
v 573.941772 190.584717 -522.715576
v 573.950073 190.588318 -524.218567
v -267.672699 185.873962 -527.387878
v -267.664398 185.877563 -528.890869
v 575.783081 -137.619995 -523.493408
v 575.791382 -137.616394 -524.996399
v -265.831329 -142.330750 -528.165710
v -265.823029 -142.327148 -529.668701
vn -0.0056 1.0000 0.0024
vn -1.0000 -0.0056 -0.0056
vn 0.0056 -1.0000 -0.0024
vn 1.0000 0.0056 0.0056
vn -0.0055 -0.0024 1.0000
vn 0.0055 0.0024 -1.0000
vt 0.375000 0.000000
vt 0.625000 0.000000
vt 0.625000 0.250000
vt 0.375000 0.250000
vt 0.625000 0.500000
vt 0.375000 0.500000
vt 0.625000 0.750000
vt 0.375000 0.750000
vt 0.625000 1.000000
vt 0.375000 1.000000
vt 0.125000 0.500000
vt 0.125000 0.750000
vt 0.875000 0.500000
vt 0.875000 0.750000
s 0
f 1/1/1 2/2/1 4/3/1 3/4/1
f 3/4/2 4/3/2 8/5/2 7/6/2
f 7/6/3 8/5/3 6/7/3 5/8/3
f 5/8/4 6/7/4 2/9/4 1/10/4
f 3/11/5 7/6/5 5/8/5 1/12/5
f 8/5/6 4/13/6 2/14/6 6/7/6
