v -0.055535 -0.738847 -0.998457
v -0.078135 0.738847 -1.404774
v 0.042598 -0.738847 -0.999092
v 0.059933 0.738847 -1.405668
v 0.140321 -0.738847 -0.990106
v 0.197424 0.738847 -1.393025
v 0.236693 -0.738847 -0.971585
v 0.333014 0.738847 -1.366966
v 0.330785 -0.738847 -0.943706
v 0.465396 0.738847 -1.327743
v 0.421692 -0.738847 -0.906739
v 0.593297 0.738847 -1.275732
v 0.508537 -0.738847 -0.861040
v 0.715484 0.738847 -1.211436
v 0.590485 -0.738847 -0.807049
v 0.830780 0.738847 -1.135473
v 0.666746 -0.738847 -0.745285
v 0.938075 0.738847 -1.048575
v 0.736586 -0.738847 -0.676344
v 1.036337 0.738847 -0.951578
v 0.799333 -0.738847 -0.600889
v 1.124617 0.738847 -0.845417
v 0.854381 -0.738847 -0.519647
v 1.202067 0.738847 -0.731115
v 0.901201 -0.738847 -0.433401
v 1.267941 0.738847 -0.609771
v 0.939342 -0.738847 -0.342981
v 1.321603 0.738847 -0.482555
v 0.968437 -0.738847 -0.249257
v 1.362538 0.738847 -0.350691
v 0.988205 -0.738847 -0.153134
v 1.390351 0.738847 -0.215451
v 0.998457 -0.738847 -0.055535
v 1.404774 0.738847 -0.078135
v 0.999092 -0.738847 0.042598
v 1.405668 0.738847 0.059933
v 0.990106 -0.738847 0.140321
v 1.393025 0.738847 0.197424
v 0.971585 -0.738847 0.236693
v 1.366966 0.738847 0.333014
v 0.943706 -0.738847 0.330785
v 1.327743 0.738847 0.465396
v 0.906739 -0.738847 0.421692
v 1.275732 0.738847 0.593297
v 0.861040 -0.738847 0.508537
v 1.211436 0.738847 0.715484
v 0.807049 -0.738847 0.590485
v 1.135473 0.738847 0.830780
v 0.745285 -0.738847 0.666746
v 1.048575 0.738847 0.938075
v 0.676344 -0.738847 0.736586
v 0.951578 0.738847 1.036337
v 0.600889 -0.738847 0.799333
v 0.845417 0.738847 1.124617
v 0.519647 -0.738847 0.854381
v 0.731115 0.738847 1.202067
v 0.433401 -0.738847 0.901201
v 0.609771 0.738847 1.267941
v 0.342981 -0.738847 0.939342
v 0.482555 0.738847 1.321603
v 0.249257 -0.738847 0.968437
v 0.350691 0.738847 1.362538
v 0.153134 -0.738847 0.988205
v 0.215451 0.738847 1.390351
v 0.055535 -0.738847 0.998457
v 0.078135 0.738847 1.404774
v -0.042598 -0.738847 0.999092
v -0.059933 0.738847 1.405668
v -0.140321 -0.738847 0.990106
v -0.197424 0.738847 1.393025
v -0.236693 -0.738847 0.971585
v -0.333014 0.738847 1.366966
v -0.330785 -0.738847 0.943706
v -0.465396 0.738847 1.327743
v -0.421692 -0.738847 0.906739
v -0.593297 0.738847 1.275732
v -0.508537 -0.738847 0.861040
v -0.715484 0.738847 1.211436
v -0.590485 -0.738847 0.807049
v -0.830780 0.738847 1.135473
v -0.666746 -0.738847 0.745285
v -0.938075 0.738847 1.048575
v -0.736586 -0.738847 0.676344
v -1.036337 0.738847 0.951578
v -0.799333 -0.738847 0.600889
v -1.124617 0.738847 0.845417
v -0.854381 -0.738847 0.519647
v -1.202067 0.738847 0.731115
v -0.901201 -0.738847 0.433401
v -1.267941 0.738847 0.609771
v -0.939342 -0.738847 0.342981
v -1.321603 0.738847 0.482555
v -0.968437 -0.738847 0.249257
v -1.362538 0.738847 0.350691
v -0.988205 -0.738847 0.153134
v -1.390351 0.738847 0.215451
v -0.998457 -0.738847 0.055535
v -1.404774 0.738847 0.078135
v -0.999092 -0.738847 -0.042598
v -1.405668 0.738847 -0.059933
v -0.990106 -0.738847 -0.140321
v -1.393025 0.738847 -0.197424
v -0.971585 -0.738847 -0.236693
v -1.366966 0.738847 -0.333014
v -0.943706 -0.738847 -0.330785
v -1.327743 0.738847 -0.465396
v -0.906739 -0.738847 -0.421692
v -1.275732 0.738847 -0.593297
v -0.861040 -0.738847 -0.508537
v -1.211436 0.738847 -0.715484
v -0.807049 -0.738847 -0.590485
v -1.135473 0.738847 -0.830780
v -0.745285 -0.738847 -0.666746
v -1.048575 0.738847 -0.938075
v -0.676344 -0.738847 -0.736586
v -0.951578 0.738847 -1.036337
v -0.600889 -0.738847 -0.799333
v -0.845417 0.738847 -1.124617
v -0.519647 -0.738847 -0.854381
v -0.731115 0.738847 -1.202067
v -0.433401 -0.738847 -0.901201
v -0.609771 0.738847 -1.267941
v -0.342981 -0.738847 -0.939342
v -0.482555 0.738847 -1.321603
v -0.249257 -0.738847 -0.968437
v -0.350691 0.738847 -1.362538
v -0.153134 -0.738847 -0.988205
v -0.215451 0.738847 -1.390351
v 0.063012 1.032436 -1.477874
v -0.082149 1.032436 -1.476934
v 0.207565 1.032436 -1.464582
v 0.350120 1.032436 -1.437185
v 0.489303 1.032436 -1.395946
v 0.623773 1.032436 -1.341264
v 0.752237 1.032436 -1.273665
v 0.873455 1.032436 -1.193800
v 0.986262 1.032436 -1.102438
v 1.089571 1.032436 -1.000459
v 1.182387 1.032436 -0.888845
v 1.263815 1.032436 -0.768671
v 1.333072 1.032436 -0.641094
v 1.389492 1.032436 -0.507343
v 1.432529 1.032436 -0.368706
v 1.461770 1.032436 -0.226518
v 1.476934 1.032436 -0.082149
v 1.477874 1.032436 0.063012
v 1.464582 1.032436 0.207565
v 1.437185 1.032436 0.350120
v 1.395946 1.032436 0.489303
v 1.341264 1.032436 0.623773
v 1.273665 1.032436 0.752237
v 1.193800 1.032436 0.873455
v 1.102438 1.032436 0.986262
v 1.000459 1.032436 1.089571
v 0.888845 1.032436 1.182387
v 0.768671 1.032436 1.263815
v 0.641094 1.032436 1.333072
v 0.507343 1.032436 1.389492
v 0.368706 1.032436 1.432529
v 0.226518 1.032436 1.461770
v 0.082149 1.032436 1.476934
v -0.063012 1.032436 1.477874
v -0.207565 1.032436 1.464582
v -0.350120 1.032436 1.437185
v -0.489303 1.032436 1.395946
v -0.623773 1.032436 1.341264
v -0.752237 1.032436 1.273665
v -0.873455 1.032436 1.193800
v -0.986262 1.032436 1.102438
v -1.089571 1.032436 1.000459
v -1.182387 1.032436 0.888845
v -1.263815 1.032436 0.768671
v -1.333072 1.032436 0.641094
v -1.389492 1.032436 0.507343
v -1.432529 1.032436 0.368706
v -1.461770 1.032436 0.226518
v -1.476934 1.032436 0.082149
v -1.477874 1.032436 -0.063012
v -1.464582 1.032436 -0.207565
v -1.437185 1.032436 -0.350120
v -1.395946 1.032436 -0.489303
v -1.341264 1.032436 -0.623773
v -1.273665 1.032436 -0.752237
v -1.193800 1.032436 -0.873455
v -1.102438 1.032436 -0.986262
v -1.000459 1.032436 -1.089571
v -0.888845 1.032436 -1.182387
v -0.768671 1.032436 -1.263815
v -0.641094 1.032436 -1.333072
v -0.507343 1.032436 -1.389492
v -0.368706 1.032436 -1.432529
v -0.226518 1.032436 -1.461770
v 0.066410 0.738847 -1.557570
v -0.086579 0.738847 -1.556579
v 0.218758 0.738847 -1.543561
v 0.369001 0.738847 -1.514686
v 0.515689 0.738847 -1.471224
v 0.657411 0.738847 -1.413593
v 0.792802 0.738847 -1.342349
v 0.920557 0.738847 -1.258177
v 1.039447 0.738847 -1.161888
v 1.148327 0.738847 -1.054410
v 1.246148 0.738847 -0.936776
v 1.331967 0.738847 -0.810122
v 1.404959 0.738847 -0.675665
v 1.464421 0.738847 -0.534702
v 1.509779 0.738847 -0.388589
v 1.540598 0.738847 -0.238733
v 1.556579 0.738847 -0.086579
v 1.557570 0.738847 0.066410
v 1.543561 0.738847 0.218758
v 1.514686 0.738847 0.369001
v 1.471224 0.738847 0.515689
v 1.413593 0.738847 0.657411
v 1.342349 0.738847 0.792802
v 1.258177 0.738847 0.920557
v 1.161888 0.738847 1.039447
v 1.054410 0.738847 1.148327
v 0.936776 0.738847 1.246148
v 0.810122 0.738847 1.331967
v 0.675665 0.738847 1.404959
v 0.534702 0.738847 1.464421
v 0.388589 0.738847 1.509779
v 0.238733 0.738847 1.540598
v 0.086579 0.738847 1.556579
v -0.066410 0.738847 1.557570
v -0.218758 0.738847 1.543561
v -0.369001 0.738847 1.514686
v -0.515689 0.738847 1.471224
v -0.657411 0.738847 1.413593
v -0.792802 0.738847 1.342349
v -0.920557 0.738847 1.258177
v -1.039447 0.738847 1.161888
v -1.148327 0.738847 1.054410
v -1.246148 0.738847 0.936776
v -1.331967 0.738847 0.810122
v -1.404959 0.738847 0.675665
v -1.464421 0.738847 0.534702
v -1.509779 0.738847 0.388589
v -1.540598 0.738847 0.238733
v -1.556579 0.738847 0.086579
v -1.557570 0.738847 -0.066410
v -1.543561 0.738847 -0.218758
v -1.514686 0.738847 -0.369001
v -1.471224 0.738847 -0.515689
v -1.413593 0.738847 -0.657411
v -1.342349 0.738847 -0.792802
v -1.258177 0.738847 -0.920557
v -1.161888 0.738847 -1.039447
v -1.054410 0.738847 -1.148327
v -0.936776 0.738847 -1.246148
v -0.810122 0.738847 -1.331967
v -0.675665 0.738847 -1.404959
v -0.534702 0.738847 -1.464421
v -0.388589 0.738847 -1.509779
v -0.238733 0.738847 -1.540598
v 0.066410 1.032436 -1.557570
v -0.086579 1.032436 -1.556579
v 0.218758 1.032436 -1.543561
v 0.369001 1.032436 -1.514686
v 0.515689 1.032436 -1.471224
v 0.657411 1.032436 -1.413593
v 0.792802 1.032436 -1.342349
v 0.920557 1.032436 -1.258177
v 1.039447 1.032436 -1.161888
v 1.148327 1.032436 -1.054410
v 1.246148 1.032436 -0.936776
v 1.331967 1.032436 -0.810122
v 1.404959 1.032436 -0.675665
v 1.464421 1.032436 -0.534702
v 1.509779 1.032436 -0.388589
v 1.540598 1.032436 -0.238733
v 1.556579 1.032436 -0.086579
v 1.557570 1.032436 0.066410
v 1.543561 1.032436 0.218758
v 1.514686 1.032436 0.369001
v 1.471224 1.032436 0.515689
v 1.413593 1.032436 0.657411
v 1.342349 1.032436 0.792802
v 1.258177 1.032436 0.920557
v 1.161888 1.032436 1.039447
v 1.054410 1.032436 1.148327
v 0.936776 1.032436 1.246148
v 0.810122 1.032436 1.331967
v 0.675665 1.032436 1.404959
v 0.534702 1.032436 1.464421
v 0.388589 1.032436 1.509779
v 0.238733 1.032436 1.540598
v 0.086579 1.032436 1.556579
v -0.066410 1.032436 1.557570
v -0.218758 1.032436 1.543561
v -0.369001 1.032436 1.514686
v -0.515689 1.032436 1.471224
v -0.657411 1.032436 1.413593
v -0.792802 1.032436 1.342349
v -0.920557 1.032436 1.258177
v -1.039447 1.032436 1.161888
v -1.148327 1.032436 1.054410
v -1.246148 1.032436 0.936776
v -1.331967 1.032436 0.810122
v -1.404959 1.032436 0.675665
v -1.464421 1.032436 0.534702
v -1.509779 1.032436 0.388589
v -1.540598 1.032436 0.238733
v -1.556579 1.032436 0.086579
v -1.557570 1.032436 -0.066410
v -1.543561 1.032436 -0.218758
v -1.514686 1.032436 -0.369001
v -1.471224 1.032436 -0.515689
v -1.413593 1.032436 -0.657411
v -1.342349 1.032436 -0.792802
v -1.258177 1.032436 -0.920557
v -1.161888 1.032436 -1.039447
v -1.054410 1.032436 -1.148327
v -0.936776 1.032436 -1.246148
v -0.810122 1.032436 -1.331967
v -0.675665 1.032436 -1.404959
v -0.534702 1.032436 -1.464421
v -0.388589 1.032436 -1.509779
v -0.238733 1.032436 -1.540598
v 0.057821 0.774226 -1.356122
v -0.075381 0.774226 -1.355259
v 0.190465 0.774226 -1.343925
v 0.321276 0.774226 -1.318784
v 0.448992 0.774226 -1.280943
v 0.572385 0.774226 -1.230766
v 0.690265 0.774226 -1.168736
v 0.801497 0.774226 -1.095451
v 0.905011 0.774226 -1.011615
v 0.999808 0.774226 -0.918038
v 1.084978 0.774226 -0.815619
v 1.159698 0.774226 -0.705345
v 1.223249 0.774226 -0.588278
v 1.275020 0.774226 -0.465546
v 1.314512 0.774226 -0.338331
v 1.341345 0.774226 -0.207857
v 1.355259 0.774226 -0.075381
v 1.356122 0.774226 0.057821
v 1.343925 0.774226 0.190465
v 1.318784 0.774226 0.321276
v 1.280943 0.774226 0.448992
v 1.230766 0.774226 0.572385
v 1.168736 0.774226 0.690265
v 1.095451 0.774226 0.801497
v 1.011615 0.774226 0.905011
v 0.918038 0.774226 0.999808
v 0.815619 0.774226 1.084978
v 0.705345 0.774226 1.159698
v 0.588278 0.774226 1.223249
v 0.465546 0.774226 1.275020
v 0.338331 0.774226 1.314512
v 0.207857 0.774226 1.341345
v 0.075381 0.774226 1.355259
v -0.057821 0.774226 1.356122
v -0.190465 0.774226 1.343925
v -0.321276 0.774226 1.318784
v -0.448992 0.774226 1.280943
v -0.572385 0.774226 1.230766
v -0.690265 0.774226 1.168736
v -0.801497 0.774226 1.095451
v -0.905011 0.774226 1.011615
v -0.999808 0.774226 0.918038
v -1.084978 0.774226 0.815619
v -1.159698 0.774226 0.705345
v -1.223249 0.774226 0.588278
v -1.275020 0.774226 0.465546
v -1.314512 0.774226 0.338331
v -1.341345 0.774226 0.207857
v -1.355259 0.774226 0.075381
v -1.356122 0.774226 -0.057821
v -1.343925 0.774226 -0.190465
v -1.318784 0.774226 -0.321276
v -1.280943 0.774226 -0.448992
v -1.230766 0.774226 -0.572385
v -1.168736 0.774226 -0.690265
v -1.095451 0.774226 -0.801497
v -1.011615 0.774226 -0.905011
v -0.918038 0.774226 -0.999808
v -0.815619 0.774226 -1.084978
v -0.705345 0.774226 -1.159698
v -0.588278 0.774226 -1.223249
v -0.465546 0.774226 -1.275020
v -0.338331 0.774226 -1.314512
v -0.207857 0.774226 -1.341345
v 0.063012 0.774226 -1.477874
v -0.082149 0.774226 -1.476934
v 0.207565 0.774226 -1.464582
v 0.350120 0.774226 -1.437185
v 0.489303 0.774226 -1.395946
v 0.623773 0.774226 -1.341264
v 0.752237 0.774226 -1.273665
v 0.873455 0.774226 -1.193800
v 0.986262 0.774226 -1.102438
v 1.089571 0.774226 -1.000459
v 1.182387 0.774226 -0.888845
v 1.263815 0.774226 -0.768671
v 1.333072 0.774226 -0.641094
v 1.389492 0.774226 -0.507343
v 1.432529 0.774226 -0.368706
v 1.461770 0.774226 -0.226518
v 1.476934 0.774226 -0.082149
v 1.477874 0.774226 0.063012
v 1.464582 0.774226 0.207565
v 1.437185 0.774226 0.350120
v 1.395946 0.774226 0.489303
v 1.341264 0.774226 0.623773
v 1.273665 0.774226 0.752237
v 1.193800 0.774226 0.873455
v 1.102438 0.774226 0.986262
v 1.000459 0.774226 1.089571
v 0.888845 0.774226 1.182387
v 0.768671 0.774226 1.263815
v 0.641094 0.774226 1.333072
v 0.507343 0.774226 1.389492
v 0.368706 0.774226 1.432529
v 0.226518 0.774226 1.461770
v 0.082149 0.774226 1.476934
v -0.063012 0.774226 1.477874
v -0.207565 0.774226 1.464582
v -0.350120 0.774226 1.437185
v -0.489303 0.774226 1.395946
v -0.623773 0.774226 1.341264
v -0.752237 0.774226 1.273665
v -0.873455 0.774226 1.193800
v -0.986262 0.774226 1.102438
v -1.089571 0.774226 1.000459
v -1.182387 0.774226 0.888845
v -1.263815 0.774226 0.768671
v -1.333072 0.774226 0.641094
v -1.389492 0.774226 0.507343
v -1.432529 0.774226 0.368706
v -1.461770 0.774226 0.226518
v -1.476934 0.774226 0.082149
v -1.477874 0.774226 -0.063012
v -1.464582 0.774226 -0.207565
v -1.437185 0.774226 -0.350120
v -1.395946 0.774226 -0.489303
v -1.341264 0.774226 -0.623773
v -1.273665 0.774226 -0.752237
v -1.193800 0.774226 -0.873455
v -1.102438 0.774226 -0.986262
v -1.000459 0.774226 -1.089571
v -0.888845 0.774226 -1.182387
v -0.768671 0.774226 -1.263815
v -0.641094 0.774226 -1.333072
v -0.507343 0.774226 -1.389492
v -0.368706 0.774226 -1.432529
v -0.226518 0.774226 -1.461770
v 0.041045 -0.665899 -0.962656
v -0.053510 -0.665899 -0.962043
v 0.135204 -0.665899 -0.953997
v 0.228061 -0.665899 -0.936151
v 0.318721 -0.665899 -0.909289
v 0.406313 -0.665899 -0.873671
v 0.489991 -0.665899 -0.829638
v 0.568950 -0.665899 -0.777616
v 0.642430 -0.665899 -0.718104
v 0.709723 -0.665899 -0.651677
v 0.770181 -0.665899 -0.578974
v 0.823222 -0.665899 -0.500696
v 0.868335 -0.665899 -0.417595
v 0.905085 -0.665899 -0.330472
v 0.933119 -0.665899 -0.240167
v 0.952166 -0.665899 -0.147549
v 0.962043 -0.665899 -0.053510
v 0.962656 -0.665899 0.041045
v 0.953997 -0.665899 0.135204
v 0.936151 -0.665899 0.228061
v 0.909289 -0.665899 0.318721
v 0.873671 -0.665899 0.406313
v 0.829638 -0.665899 0.489991
v 0.777616 -0.665899 0.568950
v 0.718104 -0.665899 0.642430
v 0.651677 -0.665899 0.709723
v 0.578974 -0.665899 0.770181
v 0.500696 -0.665899 0.823222
v 0.417595 -0.665899 0.868335
v 0.330472 -0.665899 0.905085
v 0.240167 -0.665899 0.933119
v 0.147549 -0.665899 0.952166
v 0.053510 -0.665899 0.962043
v -0.041045 -0.665899 0.962656
v -0.135204 -0.665899 0.953997
v -0.228061 -0.665899 0.936151
v -0.318721 -0.665899 0.909289
v -0.406313 -0.665899 0.873671
v -0.489991 -0.665899 0.829638
v -0.568950 -0.665899 0.777616
v -0.642430 -0.665899 0.718104
v -0.709723 -0.665899 0.651677
v -0.770181 -0.665899 0.578974
v -0.823222 -0.665899 0.500696
v -0.868335 -0.665899 0.417595
v -0.905085 -0.665899 0.330472
v -0.933119 -0.665899 0.240167
v -0.952166 -0.665899 0.147549
v -0.962043 -0.665899 0.053510
v -0.962656 -0.665899 -0.041045
v -0.953997 -0.665899 -0.135204
v -0.936151 -0.665899 -0.228061
v -0.909289 -0.665899 -0.318721
v -0.873671 -0.665899 -0.406313
v -0.829638 -0.665899 -0.489991
v -0.777616 -0.665899 -0.568950
v -0.718104 -0.665899 -0.642430
v -0.651677 -0.665899 -0.709723
v -0.578974 -0.665899 -0.770181
v -0.500696 -0.665899 -0.823222
v -0.417595 -0.665899 -0.868335
v -0.330472 -0.665899 -0.905085
v -0.240167 -0.665899 -0.933119
v -0.147549 -0.665899 -0.952166
vn -0.0535 -0.2655 -0.9626
vn 0.0411 -0.2655 -0.9632
vn 0.1353 -0.2655 -0.9546
vn 0.2282 -0.2655 -0.9367
vn 0.3189 -0.2655 -0.9098
vn 0.4066 -0.2655 -0.8742
vn 0.4903 -0.2655 -0.8301
vn 0.5693 -0.2655 -0.7781
vn 0.6428 -0.2655 -0.7185
vn 0.7101 -0.2655 -0.6521
vn 0.7706 -0.2655 -0.5793
vn 0.8237 -0.2655 -0.5010
vn 0.8689 -0.2655 -0.4178
vn 0.9056 -0.2655 -0.3307
vn 0.9337 -0.2655 -0.2403
vn 0.9527 -0.2655 -0.1476
vn 0.9626 -0.2655 -0.0535
vn 0.9632 -0.2655 0.0411
vn 0.9546 -0.2655 0.1353
vn 0.9367 -0.2655 0.2282
vn 0.9098 -0.2655 0.3189
vn 0.8742 -0.2655 0.4066
vn 0.8301 -0.2655 0.4903
vn 0.7781 -0.2655 0.5693
vn 0.7185 -0.2655 0.6428
vn 0.6521 -0.2655 0.7101
vn 0.5793 -0.2655 0.7706
vn 0.5010 -0.2655 0.8237
vn 0.4178 -0.2655 0.8689
vn 0.3307 -0.2655 0.9056
vn 0.2403 -0.2655 0.9337
vn 0.1476 -0.2655 0.9527
vn 0.0535 -0.2655 0.9626
vn -0.0411 -0.2655 0.9632
vn -0.1353 -0.2655 0.9546
vn -0.2282 -0.2655 0.9367
vn -0.3189 -0.2655 0.9098
vn -0.4066 -0.2655 0.8742
vn -0.4903 -0.2655 0.8301
vn -0.5693 -0.2655 0.7781
vn -0.6428 -0.2655 0.7185
vn -0.7101 -0.2655 0.6521
vn -0.7706 -0.2655 0.5793
vn -0.8237 -0.2655 0.5010
vn -0.8689 -0.2655 0.4178
vn -0.9056 -0.2655 0.3307
vn -0.9337 -0.2655 0.2403
vn -0.9527 -0.2655 0.1476
vn -0.9626 -0.2655 0.0535
vn -0.9632 -0.2655 -0.0411
vn -0.9546 -0.2655 -0.1353
vn -0.9367 -0.2655 -0.2282
vn -0.9098 -0.2655 -0.3189
vn -0.8742 -0.2655 -0.4066
vn -0.8301 -0.2655 -0.4903
vn -0.7781 -0.2655 -0.5693
vn -0.7185 -0.2655 -0.6428
vn -0.6521 -0.2655 -0.7101
vn -0.5793 -0.2655 -0.7706
vn -0.5010 -0.2655 -0.8237
vn -0.4178 -0.2655 -0.8689
vn -0.3307 -0.2655 -0.9056
vn -0.2403 -0.2655 -0.9337
vn -0.0000 1.0000 -0.0000
vn -0.1476 -0.2655 -0.9527
vn -0.0000 -1.0000 -0.0000
vn 0.9882 -0.0000 -0.1531
vn 0.9684 -0.0000 -0.2493
vn -0.6009 -0.0000 -0.7993
vn -0.6763 -0.0000 -0.7366
vn 0.0555 -0.0000 0.9985
vn 0.1531 -0.0000 0.9882
vn 0.5085 -0.0000 -0.8610
vn 0.4217 -0.0000 -0.9067
vn -0.7366 -0.0000 0.6763
vn -0.6667 -0.0000 0.7453
vn -0.9901 -0.0000 -0.1403
vn -0.9991 -0.0000 -0.0426
vn 0.7453 -0.0000 0.6667
vn 0.8070 -0.0000 0.5905
vn -0.5196 -0.0000 -0.8544
vn -0.0426 -0.0000 0.9991
vn 0.5905 -0.0000 -0.8070
vn -0.7993 -0.0000 0.6009
vn 0.9985 -0.0000 -0.0555
vn -0.9716 -0.0000 -0.2367
vn 0.6763 -0.0000 0.7366
vn -0.4334 -0.0000 -0.9012
vn -0.1403 -0.0000 0.9901
vn 0.6667 -0.0000 -0.7453
vn -0.8544 -0.0000 0.5196
vn 0.9991 -0.0000 0.0426
vn -0.9437 -0.0000 -0.3308
vn 0.6009 -0.0000 0.7993
vn -0.3430 -0.0000 -0.9393
vn -0.2367 -0.0000 0.9716
vn 0.7366 -0.0000 -0.6763
vn -0.9012 -0.0000 0.4334
vn 0.9901 -0.0000 0.1403
vn -0.9067 -0.0000 -0.4217
vn 0.0426 -0.0000 -0.9991
vn -0.0555 -0.0000 -0.9985
vn 0.5196 -0.0000 0.8544
vn -0.2493 -0.0000 -0.9684
vn -0.3308 -0.0000 0.9437
vn 0.7993 -0.0000 -0.6009
vn -0.9393 -0.0000 0.3430
vn 0.9716 -0.0000 0.2367
vn -0.8610 -0.0000 -0.5085
vn 0.4334 -0.0000 0.9012
vn -0.1531 -0.0000 -0.9882
vn 0.1403 -0.0000 -0.9901
vn -0.4217 -0.0000 0.9067
vn 0.8544 -0.0000 -0.5196
vn -0.9684 -0.0000 0.2493
vn 0.9437 -0.0000 0.3308
vn -0.8070 -0.0000 -0.5905
vn 0.3430 -0.0000 0.9393
vn 0.2367 -0.0000 -0.9716
vn -0.5085 -0.0000 0.8610
vn 0.9012 -0.0000 -0.4334
vn -0.9882 -0.0000 0.1531
vn 0.9067 -0.0000 0.4217
vn -0.7453 -0.0000 -0.6667
vn 0.2493 -0.0000 0.9684
vn 0.3308 -0.0000 -0.9437
vn -0.5905 -0.0000 0.8070
vn 0.9393 -0.0000 -0.3430
vn -0.9985 -0.0000 0.0555
vn 0.8610 -0.0000 0.5085
vn -0.8693 0.2638 0.4181
vn -0.8241 0.2638 0.5012
vn 0.5696 0.2638 -0.7785
vn 0.4905 0.2638 -0.8305
vn -0.9061 0.2638 0.3308
vn 0.6431 0.2638 -0.7189
vn -0.9341 0.2638 0.2404
vn 0.7105 0.2638 -0.6524
vn -0.9532 0.2638 0.1477
vn 0.7710 0.2638 -0.5796
vn -0.9631 0.2638 0.0536
vn 0.8241 0.2638 -0.5012
vn -0.9637 0.2638 -0.0411
vn 0.8693 0.2638 -0.4181
vn -0.9550 0.2638 -0.1354
vn 0.9061 0.2638 -0.3308
vn -0.9372 0.2638 -0.2283
vn 0.9341 0.2638 -0.2404
vn -0.9103 0.2638 -0.3191
vn 0.9532 0.2638 -0.1477
vn -0.8746 0.2638 -0.4068
vn 0.9631 0.2638 -0.0536
vn -0.8305 0.2638 -0.4905
vn 0.9637 0.2638 0.0411
vn -0.7785 0.2638 -0.5696
vn 0.9550 0.2638 0.1354
vn -0.7189 0.2638 -0.6431
vn 0.9372 0.2638 0.2283
vn -0.6524 0.2638 -0.7105
vn 0.9103 0.2638 0.3191
vn -0.5796 0.2638 -0.7710
vn 0.8746 0.2638 0.4068
vn -0.5012 0.2638 -0.8241
vn -0.0411 0.2638 0.9637
vn 0.0536 0.2638 0.9631
vn 0.8305 0.2638 0.4905
vn -0.4181 0.2638 -0.8693
vn -0.1354 0.2638 0.9550
vn 0.7785 0.2638 0.5696
vn -0.3308 0.2638 -0.9061
vn -0.2283 0.2638 0.9372
vn 0.7189 0.2638 0.6431
vn -0.2404 0.2638 -0.9341
vn -0.3191 0.2638 0.9103
vn 0.6524 0.2638 0.7105
vn -0.1477 0.2638 -0.9532
vn -0.4068 0.2638 0.8746
vn 0.5796 0.2638 0.7710
vn -0.0536 0.2638 -0.9631
vn -0.4905 0.2638 0.8305
vn 0.5012 0.2638 0.8241
vn 0.0411 0.2638 -0.9637
vn -0.5696 0.2638 0.7785
vn 0.4181 0.2638 0.8693
vn 0.1354 0.2638 -0.9550
vn -0.6431 0.2638 0.7189
vn 0.3308 0.2638 0.9061
vn 0.2283 0.2638 -0.9372
vn -0.7105 0.2638 0.6524
vn 0.2404 0.2638 0.9341
vn 0.3191 0.2638 -0.9103
vn -0.7710 0.2638 0.5796
vn 0.1477 0.2638 0.9532
vn 0.4068 0.2638 -0.8746
vt 1.000000 0.500000
vt 1.000000 1.000000
vt 0.984375 1.000000
vt 0.984375 0.500000
vt 0.968750 1.000000
vt 0.968750 0.500000
vt 0.953125 1.000000
vt 0.953125 0.500000
vt 0.937500 1.000000
vt 0.937500 0.500000
vt 0.921875 1.000000
vt 0.921875 0.500000
vt 0.906250 1.000000
vt 0.906250 0.500000
vt 0.890625 1.000000
vt 0.890625 0.500000
vt 0.875000 1.000000
vt 0.875000 0.500000
vt 0.859375 1.000000
vt 0.859375 0.500000
vt 0.843750 1.000000
vt 0.843750 0.500000
vt 0.828125 1.000000
vt 0.828125 0.500000
vt 0.812500 1.000000
vt 0.812500 0.500000
vt 0.796875 1.000000
vt 0.796875 0.500000
vt 0.781250 1.000000
vt 0.781250 0.500000
vt 0.765625 1.000000
vt 0.765625 0.500000
vt 0.750000 1.000000
vt 0.750000 0.500000
vt 0.734375 1.000000
vt 0.734375 0.500000
vt 0.718750 1.000000
vt 0.718750 0.500000
vt 0.703125 1.000000
vt 0.703125 0.500000
vt 0.687500 1.000000
vt 0.687500 0.500000
vt 0.671875 1.000000
vt 0.671875 0.500000
vt 0.656250 1.000000
vt 0.656250 0.500000
vt 0.640625 1.000000
vt 0.640625 0.500000
vt 0.625000 1.000000
vt 0.625000 0.500000
vt 0.609375 1.000000
vt 0.609375 0.500000
vt 0.593750 1.000000
vt 0.593750 0.500000
vt 0.578125 1.000000
vt 0.578125 0.500000
vt 0.562500 1.000000
vt 0.562500 0.500000
vt 0.546875 1.000000
vt 0.546875 0.500000
vt 0.531250 1.000000
vt 0.531250 0.500000
vt 0.515625 1.000000
vt 0.515625 0.500000
vt 0.500000 1.000000
vt 0.500000 0.500000
vt 0.484375 1.000000
vt 0.484375 0.500000
vt 0.468750 1.000000
vt 0.468750 0.500000
vt 0.453125 1.000000
vt 0.453125 0.500000
vt 0.437500 1.000000
vt 0.437500 0.500000
vt 0.421875 1.000000
vt 0.421875 0.500000
vt 0.406250 1.000000
vt 0.406250 0.500000
vt 0.390625 1.000000
vt 0.390625 0.500000
vt 0.375000 1.000000
vt 0.375000 0.500000
vt 0.359375 1.000000
vt 0.359375 0.500000
vt 0.343750 1.000000
vt 0.343750 0.500000
vt 0.328125 1.000000
vt 0.328125 0.500000
vt 0.312500 1.000000
vt 0.312500 0.500000
vt 0.296875 1.000000
vt 0.296875 0.500000
vt 0.281250 1.000000
vt 0.281250 0.500000
vt 0.265625 1.000000
vt 0.265625 0.500000
vt 0.250000 1.000000
vt 0.250000 0.500000
vt 0.234375 1.000000
vt 0.234375 0.500000
vt 0.218750 1.000000
vt 0.218750 0.500000
vt 0.203125 1.000000
vt 0.203125 0.500000
vt 0.187500 1.000000
vt 0.187500 0.500000
vt 0.171875 1.000000
vt 0.171875 0.500000
vt 0.156250 1.000000
vt 0.156250 0.500000
vt 0.140625 1.000000
vt 0.140625 0.500000
vt 0.125000 1.000000
vt 0.125000 0.500000
vt 0.109375 1.000000
vt 0.109375 0.500000
vt 0.093750 1.000000
vt 0.093750 0.500000
vt 0.078125 1.000000
vt 0.078125 0.500000
vt 0.062500 1.000000
vt 0.062500 0.500000
vt 0.046875 1.000000
vt 0.046875 0.500000
vt 0.031250 1.000000
vt 0.031250 0.500000
vt 0.485388 0.296822
vt 0.488844 0.273524
vt 0.015625 1.000000
vt 0.015625 0.500000
vt 0.000000 1.000000
vt 0.000000 0.500000
vt 0.750000 0.490000
vt 0.773524 0.488844
vt 0.796822 0.485388
vt 0.819668 0.479666
vt 0.841844 0.471731
vt 0.863135 0.461661
vt 0.883337 0.449553
vt 0.902254 0.435522
vt 0.919706 0.419706
vt 0.935522 0.402254
vt 0.949553 0.383337
vt 0.961661 0.363135
vt 0.971731 0.341844
vt 0.979666 0.319668
vt 0.985388 0.296822
vt 0.988844 0.273524
vt 0.990000 0.250000
vt 0.988844 0.226476
vt 0.985388 0.203178
vt 0.979666 0.180332
vt 0.971731 0.158156
vt 0.961661 0.136865
vt 0.949553 0.116663
vt 0.935522 0.097746
vt 0.919706 0.080294
vt 0.902254 0.064478
vt 0.883337 0.050447
vt 0.863135 0.038339
vt 0.841844 0.028269
vt 0.819668 0.020334
vt 0.796822 0.014612
vt 0.773524 0.011156
vt 0.750000 0.010000
vt 0.726476 0.011156
vt 0.703178 0.014612
vt 0.680332 0.020334
vt 0.658156 0.028269
vt 0.636865 0.038339
vt 0.616663 0.050447
vt 0.597746 0.064478
vt 0.580294 0.080294
vt 0.564478 0.097746
vt 0.550447 0.116663
vt 0.538339 0.136865
vt 0.528269 0.158156
vt 0.520334 0.180332
vt 0.514612 0.203178
vt 0.511156 0.226476
vt 0.510000 0.250000
vt 0.511156 0.273524
vt 0.514612 0.296822
vt 0.520334 0.319668
vt 0.528269 0.341844
vt 0.538339 0.363135
vt 0.550447 0.383337
vt 0.564478 0.402254
vt 0.580294 0.419706
vt 0.597746 0.435522
vt 0.616663 0.449553
vt 0.636865 0.461661
vt 0.658156 0.471731
vt 0.680332 0.479666
vt 0.703178 0.485388
vt 0.726476 0.488844
vt 0.011156 0.226476
vt 0.014612 0.203178
vt 0.479666 0.319668
vt 0.471731 0.341844
vt 0.226476 0.488844
vt 0.250000 0.490000
vt 0.461661 0.363135
vt 0.203178 0.485388
vt 0.449553 0.383337
vt 0.180332 0.479666
vt 0.435522 0.402254
vt 0.158156 0.471731
vt 0.419706 0.419706
vt 0.136865 0.461661
vt 0.402254 0.435522
vt 0.116663 0.449553
vt 0.383337 0.449553
vt 0.097746 0.435522
vt 0.363135 0.461661
vt 0.080294 0.419706
vt 0.341844 0.471731
vt 0.064478 0.402254
vt 0.319668 0.479666
vt 0.050447 0.383337
vt 0.296822 0.485388
vt 0.038339 0.363135
vt 0.273524 0.488844
vt 0.028269 0.341844
vt 0.020334 0.319668
vt 0.014612 0.296822
vt 0.011156 0.273524
vt 0.010000 0.250000
vt 0.020334 0.180332
vt 0.028269 0.158156
vt 0.038339 0.136865
vt 0.050447 0.116663
vt 0.490000 0.250000
vt 0.488844 0.226476
vt 0.485388 0.203178
vt 0.479666 0.180332
vt 0.471731 0.158156
vt 0.461661 0.136865
vt 0.449553 0.116663
vt 0.435522 0.097746
vt 0.419706 0.080294
vt 0.402254 0.064478
vt 0.383337 0.050447
vt 0.363135 0.038339
vt 0.341844 0.028269
vt 0.319668 0.020334
vt 0.296822 0.014612
vt 0.273524 0.011156
vt 0.250000 0.010000
vt 0.226476 0.011156
vt 0.203178 0.014612
vt 0.180332 0.020334
vt 0.158156 0.028269
vt 0.136865 0.038339
vt 0.116663 0.050447
vt 0.097746 0.064478
vt 0.080294 0.080294
vt 0.064478 0.097746
vt 0.453464 0.334278
vt 0.444224 0.353815
vt 0.250000 0.470228
vt 0.271586 0.469167
vt 0.292964 0.465996
vt 0.313929 0.460745
vt 0.334278 0.453464
vt 0.353815 0.444224
vt 0.372352 0.433113
vt 0.389711 0.420239
vt 0.405725 0.405725
vt 0.420239 0.389711
vt 0.433113 0.372352
vt 0.460745 0.313929
vt 0.465996 0.292964
vt 0.469168 0.271586
vt 0.470228 0.250000
vt 0.469168 0.228414
vt 0.465996 0.207036
vt 0.460745 0.186071
vt 0.453464 0.165722
vt 0.444224 0.146185
vt 0.433113 0.127648
vt 0.420239 0.110289
vt 0.405725 0.094275
vt 0.389711 0.079761
vt 0.372352 0.066887
vt 0.353815 0.055776
vt 0.334277 0.046536
vt 0.313929 0.039255
vt 0.292964 0.034004
vt 0.271586 0.030832
vt 0.250000 0.029772
vt 0.228414 0.030832
vt 0.207036 0.034004
vt 0.186071 0.039255
vt 0.165722 0.046536
vt 0.146185 0.055776
vt 0.127648 0.066887
vt 0.110289 0.079761
vt 0.094275 0.094275
vt 0.079761 0.110289
vt 0.066887 0.127648
vt 0.055776 0.146185
vt 0.046536 0.165722
vt 0.039255 0.186071
vt 0.034004 0.207036
vt 0.030832 0.228414
vt 0.029772 0.250000
vt 0.030832 0.271586
vt 0.034004 0.292964
vt 0.039255 0.313929
vt 0.046536 0.334277
vt 0.055776 0.353815
vt 0.066887 0.372352
vt 0.079761 0.389711
vt 0.094275 0.405725
vt 0.110289 0.420238
vt 0.127648 0.433113
vt 0.146185 0.444224
vt 0.165722 0.453464
vt 0.186071 0.460745
vt 0.207036 0.465996
vt 0.228414 0.469167
s 1
f 1/1/1 2/2/1 4/3/2 3/4/2
f 3/4/2 4/3/2 6/5/3 5/6/3
f 5/6/3 6/5/3 8/7/4 7/8/4
f 7/8/4 8/7/4 10/9/5 9/10/5
f 9/10/5 10/9/5 12/11/6 11/12/6
f 11/12/6 12/11/6 14/13/7 13/14/7
f 13/14/7 14/13/7 16/15/8 15/16/8
f 15/16/8 16/15/8 18/17/9 17/18/9
f 17/18/9 18/17/9 20/19/10 19/20/10
f 19/20/10 20/19/10 22/21/11 21/22/11
f 21/22/11 22/21/11 24/23/12 23/24/12
f 23/24/12 24/23/12 26/25/13 25/26/13
f 25/26/13 26/25/13 28/27/14 27/28/14
f 27/28/14 28/27/14 30/29/15 29/30/15
f 29/30/15 30/29/15 32/31/16 31/32/16
f 31/32/16 32/31/16 34/33/17 33/34/17
f 33/34/17 34/33/17 36/35/18 35/36/18
f 35/36/18 36/35/18 38/37/19 37/38/19
f 37/38/19 38/37/19 40/39/20 39/40/20
f 39/40/20 40/39/20 42/41/21 41/42/21
f 41/42/21 42/41/21 44/43/22 43/44/22
f 43/44/22 44/43/22 46/45/23 45/46/23
f 45/46/23 46/45/23 48/47/24 47/48/24
f 47/48/24 48/47/24 50/49/25 49/50/25
f 49/50/25 50/49/25 52/51/26 51/52/26
f 51/52/26 52/51/26 54/53/27 53/54/27
f 53/54/27 54/53/27 56/55/28 55/56/28
f 55/56/28 56/55/28 58/57/29 57/58/29
f 57/58/29 58/57/29 60/59/30 59/60/30
f 59/60/30 60/59/30 62/61/31 61/62/31
f 61/62/31 62/61/31 64/63/32 63/64/32
f 63/64/32 64/63/32 66/65/33 65/66/33
f 65/66/33 66/65/33 68/67/34 67/68/34
f 67/68/34 68/67/34 70/69/35 69/70/35
f 69/70/35 70/69/35 72/71/36 71/72/36
f 71/72/36 72/71/36 74/73/37 73/74/37
f 73/74/37 74/73/37 76/75/38 75/76/38
f 75/76/38 76/75/38 78/77/39 77/78/39
f 77/78/39 78/77/39 80/79/40 79/80/40
f 79/80/40 80/79/40 82/81/41 81/82/41
f 81/82/41 82/81/41 84/83/42 83/84/42
f 83/84/42 84/83/42 86/85/43 85/86/43
f 85/86/43 86/85/43 88/87/44 87/88/44
f 87/88/44 88/87/44 90/89/45 89/90/45
f 89/90/45 90/89/45 92/91/46 91/92/46
f 91/92/46 92/91/46 94/93/47 93/94/47
f 93/94/47 94/93/47 96/95/48 95/96/48
f 95/96/48 96/95/48 98/97/49 97/98/49
f 97/98/49 98/97/49 100/99/50 99/100/50
f 99/100/50 100/99/50 102/101/51 101/102/51
f 101/102/51 102/101/51 104/103/52 103/104/52
f 103/104/52 104/103/52 106/105/53 105/106/53
f 105/106/53 106/105/53 108/107/54 107/108/54
f 107/108/54 108/107/54 110/109/55 109/110/55
f 109/110/55 110/109/55 112/111/56 111/112/56
f 111/112/56 112/111/56 114/113/57 113/114/57
f 113/114/57 114/113/57 116/115/58 115/116/58
f 115/116/58 116/115/58 118/117/59 117/118/59
f 117/118/59 118/117/59 120/119/60 119/120/60
f 119/120/60 120/119/60 122/121/61 121/122/61
f 121/122/61 122/121/61 124/123/62 123/124/62
f 123/124/62 124/123/62 126/125/63 125/126/63
f 143/127/64 144/128/64 272/128/64 271/127/64
f 125/126/63 126/125/63 128/129/65 127/130/65
f 127/130/65 128/129/65 2/131/1 1/132/1
f 1/133/66 3/134/66 5/135/66 7/136/66 9/137/66 11/138/66 13/139/66 15/140/66 17/141/66 19/142/66 21/143/66 23/144/66 25/145/66 27/146/66 29/147/66 31/148/66 33/149/66 35/150/66 37/151/66 39/152/66 41/153/66 43/154/66 45/155/66 47/156/66 49/157/66 51/158/66 53/159/66 55/160/66 57/161/66 59/162/66 61/163/66 63/164/66 65/165/66 67/166/66 69/167/66 71/168/66 73/169/66 75/170/66 77/171/66 79/172/66 81/173/66 83/174/66 85/175/66 87/176/66 89/177/66 91/178/66 93/179/66 95/180/66 97/181/66 99/182/66 101/183/66 103/184/66 105/185/66 107/186/66 109/187/66 111/188/66 113/189/66 115/190/66 117/191/66 119/192/66 121/193/66 123/194/66 125/195/66 127/196/66
f 176/197/67 175/198/68 431/198/68 432/197/67
f 142/199/64 143/127/64 271/127/64 270/199/64
f 36/35/66 34/33/66 209/33/66 210/35/66
f 141/200/64 142/199/64 270/199/64 269/200/64
f 70/69/66 68/67/66 226/67/66 227/69/66
f 192/201/64 130/202/64 258/202/64 320/201/64
f 104/103/66 102/101/66 243/101/66 244/103/66
f 140/203/64 141/200/64 269/200/64 268/203/64
f 191/204/64 192/201/64 320/201/64 319/204/64
f 139/205/64 140/203/64 268/203/64 267/205/64
f 190/206/64 191/204/64 319/204/64 318/206/64
f 34/33/66 32/31/66 208/31/66 209/33/66
f 138/207/64 139/205/64 267/205/64 266/207/64
f 68/67/66 66/65/66 225/65/66 226/67/66
f 189/208/64 190/206/64 318/206/64 317/208/64
f 102/101/66 100/99/66 242/99/66 243/101/66
f 137/209/64 138/207/64 266/207/64 265/209/64
f 188/210/64 189/208/64 317/208/64 316/210/64
f 136/211/64 137/209/64 265/209/64 264/211/64
f 187/212/64 188/210/64 316/210/64 315/212/64
f 32/31/66 30/29/66 207/29/66 208/31/66
f 135/213/64 136/211/64 264/211/64 263/213/64
f 66/65/66 64/63/66 224/63/66 225/65/66
f 186/214/64 187/212/64 315/212/64 314/214/64
f 100/99/66 98/97/66 241/97/66 242/99/66
f 134/215/64 135/213/64 263/213/64 262/215/64
f 185/216/64 186/214/64 314/214/64 313/216/64
f 133/217/64 134/215/64 262/215/64 261/217/64
f 184/218/64 185/216/64 313/216/64 312/218/64
f 30/29/66 28/27/66 206/27/66 207/29/66
f 132/219/64 133/217/64 261/217/64 260/219/64
f 64/63/66 62/61/66 223/61/66 224/63/66
f 183/220/64 184/218/64 312/218/64 311/220/64
f 98/97/66 96/95/66 240/95/66 241/97/66
f 131/221/64 132/219/64 260/219/64 259/221/64
f 182/222/64 183/220/64 311/220/64 310/222/64
f 129/223/64 131/221/64 259/221/64 257/223/64
f 181/224/64 182/222/64 310/222/64 309/224/64
f 28/27/66 26/25/66 205/25/66 206/27/66
f 130/202/64 129/223/64 257/223/64 258/202/64
f 62/61/66 60/59/66 222/59/66 223/61/66
f 180/225/64 181/224/64 309/224/64 308/225/64
f 96/95/66 94/93/66 239/93/66 240/95/66
f 2/131/66 128/129/66 256/129/66 194/131/66
f 179/226/64 180/225/64 308/225/64 307/226/64
f 178/227/64 179/226/64 307/226/64 306/227/64
f 26/25/66 24/23/66 204/23/66 205/25/66
f 60/59/66 58/57/66 221/57/66 222/59/66
f 177/228/64 178/227/64 306/227/64 305/228/64
f 94/93/66 92/91/66 238/91/66 239/93/66
f 128/129/66 126/125/66 255/125/66 256/129/66
f 176/197/64 177/228/64 305/228/64 304/197/64
f 175/198/64 176/197/64 304/197/64 303/198/64
f 24/23/66 22/21/66 203/21/66 204/23/66
f 58/57/66 56/55/66 220/55/66 221/57/66
f 174/229/64 175/198/64 303/198/64 302/229/64
f 92/91/66 90/89/66 237/89/66 238/91/66
f 126/125/66 124/123/66 254/123/66 255/125/66
f 173/230/64 174/229/64 302/229/64 301/230/64
f 172/231/64 173/230/64 301/230/64 300/231/64
f 22/21/66 20/19/66 202/19/66 203/21/66
f 56/55/66 54/53/66 219/53/66 220/55/66
f 171/232/64 172/231/64 300/231/64 299/232/64
f 90/89/66 88/87/66 236/87/66 237/89/66
f 251/117/69 250/115/70 314/115/70 315/117/69
f 225/65/71 224/63/72 288/63/72 289/65/71
f 199/13/73 198/11/74 262/11/74 263/13/73
f 234/83/75 233/81/76 297/81/76 298/83/75
f 208/31/67 207/29/68 271/29/68 272/31/67
f 243/101/77 242/99/78 306/99/78 307/101/77
f 217/49/79 216/47/80 280/47/80 281/49/79
f 252/119/81 251/117/69 315/117/69 316/119/81
f 226/67/82 225/65/71 289/65/71 290/67/82
f 200/15/83 199/13/73 263/13/73 264/15/83
f 235/85/84 234/83/75 298/83/75 299/85/84
f 209/33/85 208/31/67 272/31/67 273/33/85
f 244/103/86 243/101/77 307/101/77 308/103/86
f 218/51/87 217/49/79 281/49/79 282/51/87
f 253/121/88 252/119/81 316/119/81 317/121/88
f 227/69/89 226/67/82 290/67/82 291/69/89
f 201/17/90 200/15/83 264/15/83 265/17/90
f 236/87/91 235/85/84 299/85/84 300/87/91
f 210/35/92 209/33/85 273/33/85 274/35/92
f 245/105/93 244/103/86 308/103/86 309/105/93
f 219/53/94 218/51/87 282/51/87 283/53/94
f 254/123/95 253/121/88 317/121/88 318/123/95
f 228/71/96 227/69/89 291/69/89 292/71/96
f 202/19/97 201/17/90 265/17/90 266/19/97
f 237/89/98 236/87/91 300/87/91 301/89/98
f 211/37/99 210/35/92 274/35/92 275/37/99
f 246/107/100 245/105/93 309/105/93 310/107/100
f 193/3/101 194/2/102 258/2/102 257/3/101
f 220/55/103 219/53/94 283/53/94 284/55/103
f 255/125/104 254/123/95 318/123/95 319/125/104
f 229/73/105 228/71/96 292/71/96 293/73/105
f 203/21/106 202/19/97 266/19/97 267/21/106
f 238/91/107 237/89/98 301/89/98 302/91/107
f 212/39/108 211/37/99 275/37/99 276/39/108
f 247/109/109 246/107/100 310/107/100 311/109/109
f 221/57/110 220/55/103 284/55/103 285/57/110
f 256/129/111 255/125/104 319/125/104 320/129/111
f 195/5/112 193/3/101 257/3/101 259/5/112
f 230/75/113 229/73/105 293/73/105 294/75/113
f 204/23/114 203/21/106 267/21/106 268/23/114
f 239/93/115 238/91/107 302/91/107 303/93/115
f 213/41/116 212/39/108 276/39/108 277/41/116
f 248/111/117 247/109/109 311/109/109 312/111/117
f 222/59/118 221/57/110 285/57/110 286/59/118
f 194/131/102 256/129/111 320/129/111 258/131/102
f 196/7/119 195/5/112 259/5/112 260/7/119
f 231/77/120 230/75/113 294/75/113 295/77/120
f 205/25/121 204/23/114 268/23/114 269/25/121
f 240/95/122 239/93/115 303/93/115 304/95/122
f 214/43/123 213/41/116 277/41/116 278/43/123
f 249/113/124 248/111/117 312/111/117 313/113/124
f 223/61/125 222/59/118 286/59/118 287/61/125
f 197/9/126 196/7/119 260/7/119 261/9/126
f 232/79/127 231/77/120 295/77/120 296/79/127
f 206/27/128 205/25/121 269/25/121 270/27/128
f 241/97/129 240/95/122 304/95/122 305/97/129
f 215/45/130 214/43/123 278/43/123 279/45/130
f 250/115/70 249/113/124 313/113/124 314/115/70
f 224/63/72 223/61/125 287/61/125 288/63/72
f 198/11/74 197/9/126 261/9/126 262/11/74
f 233/81/76 232/79/127 296/79/127 297/81/76
f 207/29/68 206/27/128 270/27/128 271/29/68
f 242/99/78 241/97/129 305/97/129 306/99/78
f 216/47/80 215/45/130 279/45/130 280/47/80
f 106/105/66 104/103/66 244/103/66 245/105/66
f 4/3/66 2/2/66 194/2/66 193/3/66
f 72/71/66 70/69/66 227/69/66 228/71/66
f 144/128/64 145/233/64 273/233/64 272/128/64
f 38/37/66 36/35/66 210/35/66 211/37/66
f 145/233/64 146/234/64 274/234/64 273/233/64
f 146/234/64 147/235/64 275/235/64 274/234/64
f 108/107/66 106/105/66 245/105/66 246/107/66
f 74/73/66 72/71/66 228/71/66 229/73/66
f 147/235/64 148/236/64 276/236/64 275/235/64
f 40/39/66 38/37/66 211/37/66 212/39/66
f 6/5/66 4/3/66 193/3/66 195/5/66
f 148/236/64 149/237/64 277/237/64 276/236/64
f 149/237/64 150/238/64 278/238/64 277/237/64
f 110/109/66 108/107/66 246/107/66 247/109/66
f 76/75/66 74/73/66 229/73/66 230/75/66
f 150/238/64 151/239/64 279/239/64 278/238/64
f 42/41/66 40/39/66 212/39/66 213/41/66
f 8/7/66 6/5/66 195/5/66 196/7/66
f 151/239/64 152/240/64 280/240/64 279/239/64
f 152/240/64 153/241/64 281/241/64 280/240/64
f 112/111/66 110/109/66 247/109/66 248/111/66
f 78/77/66 76/75/66 230/75/66 231/77/66
f 153/241/64 154/242/64 282/242/64 281/241/64
f 44/43/66 42/41/66 213/41/66 214/43/66
f 10/9/66 8/7/66 196/7/66 197/9/66
f 154/242/64 155/243/64 283/243/64 282/242/64
f 155/243/64 156/244/64 284/244/64 283/243/64
f 114/113/66 112/111/66 248/111/66 249/113/66
f 80/79/66 78/77/66 231/77/66 232/79/66
f 156/244/64 157/245/64 285/245/64 284/244/64
f 46/45/66 44/43/66 214/43/66 215/45/66
f 12/11/66 10/9/66 197/9/66 198/11/66
f 157/245/64 158/246/64 286/246/64 285/245/64
f 158/246/64 159/247/64 287/247/64 286/246/64
f 116/115/66 114/113/66 249/113/66 250/115/66
f 82/81/66 80/79/66 232/79/66 233/81/66
f 159/247/64 160/248/64 288/248/64 287/247/64
f 48/47/66 46/45/66 215/45/66 216/47/66
f 14/13/66 12/11/66 198/11/66 199/13/66
f 160/248/64 161/249/64 289/249/64 288/248/64
f 161/249/64 162/250/64 290/250/64 289/249/64
f 118/117/66 116/115/66 250/115/66 251/117/66
f 84/83/66 82/81/66 233/81/66 234/83/66
f 162/250/64 163/251/64 291/251/64 290/250/64
f 50/49/66 48/47/66 216/47/66 217/49/66
f 16/15/66 14/13/66 199/13/66 200/15/66
f 163/251/64 164/252/64 292/252/64 291/251/64
f 164/252/64 165/253/64 293/253/64 292/252/64
f 120/119/66 118/117/66 251/117/66 252/119/66
f 86/85/66 84/83/66 234/83/66 235/85/66
f 165/253/64 166/254/64 294/254/64 293/253/64
f 52/51/66 50/49/66 217/49/66 218/51/66
f 18/17/66 16/15/66 200/15/66 201/17/66
f 166/254/64 167/255/64 295/255/64 294/254/64
f 167/255/64 168/256/64 296/256/64 295/255/64
f 122/121/66 120/119/66 252/119/66 253/121/66
f 88/87/66 86/85/66 235/85/66 236/87/66
f 168/256/64 169/257/64 297/257/64 296/256/64
f 54/53/66 52/51/66 218/51/66 219/53/66
f 20/19/66 18/17/66 201/17/66 202/19/66
f 169/257/64 170/258/64 298/258/64 297/257/64
f 170/258/64 171/232/64 299/232/64 298/258/64
f 124/123/66 122/121/66 253/121/66 254/123/66
f 333/259/131 332/260/132 460/260/132 461/259/131
f 150/238/100 149/237/93 405/237/93 406/238/100
f 177/228/85 176/197/67 432/197/67 433/228/85
f 151/239/109 150/238/100 406/238/100 407/239/109
f 178/227/92 177/228/85 433/228/85 434/227/92
f 152/240/117 151/239/109 407/239/109 408/240/117
f 179/226/99 178/227/92 434/227/92 435/226/99
f 153/241/124 152/240/117 408/240/117 409/241/124
f 180/225/108 179/226/99 435/226/99 436/225/108
f 154/242/70 153/241/124 409/241/124 410/242/70
f 181/224/116 180/225/108 436/225/108 437/224/116
f 155/243/69 154/242/70 410/242/70 411/243/69
f 182/222/123 181/224/116 437/224/116 438/222/123
f 156/244/81 155/243/69 411/243/69 412/244/81
f 129/223/82 130/202/71 386/202/71 385/223/82
f 183/220/130 182/222/123 438/222/123 439/220/130
f 157/245/88 156/244/81 412/244/81 413/245/88
f 131/221/89 129/223/82 385/223/82 387/221/89
f 184/218/80 183/220/130 439/220/130 440/218/80
f 158/246/95 157/245/88 413/245/88 414/246/95
f 132/219/96 131/221/89 387/221/89 388/219/96
f 185/216/79 184/218/80 440/218/80 441/216/79
f 159/247/104 158/246/95 414/246/95 415/247/104
f 133/217/105 132/219/96 388/219/96 389/217/105
f 186/214/87 185/216/79 441/216/79 442/214/87
f 160/248/111 159/247/104 415/247/104 416/248/111
f 134/215/113 133/217/105 389/217/105 390/215/113
f 187/212/94 186/214/87 442/214/87 443/212/94
f 161/249/102 160/248/111 416/248/111 417/249/102
f 135/213/120 134/215/113 390/215/113 391/213/120
f 188/210/103 187/212/94 443/212/94 444/210/103
f 162/250/101 161/249/102 417/249/102 418/250/101
f 136/211/127 135/213/120 391/213/120 392/211/127
f 189/208/110 188/210/103 444/210/103 445/208/110
f 163/251/112 162/250/101 418/250/101 419/251/112
f 137/209/76 136/211/127 392/211/127 393/209/76
f 190/206/118 189/208/110 445/208/110 446/206/118
f 164/252/119 163/251/112 419/251/112 420/252/119
f 138/207/75 137/209/76 393/209/76 394/207/75
f 191/204/125 190/206/118 446/206/118 447/204/125
f 165/253/126 164/252/119 420/252/119 421/253/126
f 139/205/84 138/207/75 394/207/75 395/205/84
f 192/201/72 191/204/125 447/204/125 448/201/72
f 166/254/74 165/253/126 421/253/126 422/254/74
f 140/203/91 139/205/84 395/205/84 396/203/91
f 130/202/71 192/201/72 448/201/72 386/202/71
f 167/255/73 166/254/74 422/254/74 423/255/73
f 141/200/98 140/203/91 396/203/91 397/200/98
f 168/256/83 167/255/73 423/255/73 424/256/83
f 142/199/107 141/200/98 397/200/98 398/199/107
f 169/257/90 168/256/83 424/256/83 425/257/90
f 143/127/115 142/199/107 398/199/107 399/127/115
f 170/258/97 169/257/90 425/257/90 426/258/97
f 144/128/122 143/127/115 399/127/115 400/128/122
f 171/232/106 170/258/97 426/258/97 427/232/106
f 145/233/129 144/128/122 400/128/122 401/233/129
f 172/231/114 171/232/106 427/232/106 428/231/114
f 146/234/78 145/233/129 401/233/129 402/234/78
f 173/230/121 172/231/114 428/231/114 429/230/121
f 147/235/77 146/234/78 402/234/78 403/235/77
f 174/229/128 173/230/121 429/230/121 430/229/128
f 148/236/86 147/235/77 403/235/77 404/236/86
f 175/198/68 174/229/128 430/229/128 431/198/68
f 149/237/93 148/236/86 404/236/86 405/237/93
f 322/261/64 321/262/64 385/223/64 386/202/64
f 321/262/64 323/263/64 387/221/64 385/223/64
f 323/263/64 324/264/64 388/219/64 387/221/64
f 324/264/64 325/265/64 389/217/64 388/219/64
f 325/265/64 326/266/64 390/215/64 389/217/64
f 326/266/64 327/267/64 391/213/64 390/215/64
f 327/267/64 328/268/64 392/211/64 391/213/64
f 328/268/64 329/269/64 393/209/64 392/211/64
f 329/269/64 330/270/64 394/207/64 393/209/64
f 330/270/64 331/271/64 395/205/64 394/207/64
f 331/271/64 332/260/64 396/203/64 395/205/64
f 332/260/64 333/259/64 397/200/64 396/203/64
f 333/259/64 334/272/64 398/199/64 397/200/64
f 334/272/64 335/273/64 399/127/64 398/199/64
f 335/273/64 336/274/64 400/128/64 399/127/64
f 336/274/64 337/275/64 401/233/64 400/128/64
f 337/275/64 338/276/64 402/234/64 401/233/64
f 338/276/64 339/277/64 403/235/64 402/234/64
f 339/277/64 340/278/64 404/236/64 403/235/64
f 340/278/64 341/279/64 405/237/64 404/236/64
f 341/279/64 342/280/64 406/238/64 405/237/64
f 342/280/64 343/281/64 407/239/64 406/238/64
f 343/281/64 344/282/64 408/240/64 407/239/64
f 344/282/64 345/283/64 409/241/64 408/240/64
f 345/283/64 346/284/64 410/242/64 409/241/64
f 346/284/64 347/285/64 411/243/64 410/242/64
f 347/285/64 348/286/64 412/244/64 411/243/64
f 348/286/64 349/287/64 413/245/64 412/244/64
f 349/287/64 350/288/64 414/246/64 413/245/64
f 350/288/64 351/289/64 415/247/64 414/246/64
f 351/289/64 352/290/64 416/248/64 415/247/64
f 352/290/64 353/291/64 417/249/64 416/248/64
f 353/291/64 354/292/64 418/250/64 417/249/64
f 354/292/64 355/293/64 419/251/64 418/250/64
f 355/293/64 356/294/64 420/252/64 419/251/64
f 356/294/64 357/295/64 421/253/64 420/252/64
f 357/295/64 358/296/64 422/254/64 421/253/64
f 358/296/64 359/297/64 423/255/64 422/254/64
f 359/297/64 360/298/64 424/256/64 423/255/64
f 360/298/64 361/299/64 425/257/64 424/256/64
f 361/299/64 362/300/64 426/258/64 425/257/64
f 362/300/64 363/301/64 427/232/64 426/258/64
f 363/301/64 364/302/64 428/231/64 427/232/64
f 364/302/64 365/303/64 429/230/64 428/231/64
f 365/303/64 366/304/64 430/229/64 429/230/64
f 366/304/64 367/305/64 431/198/64 430/229/64
f 367/305/64 368/306/64 432/197/64 431/198/64
f 368/306/64 369/307/64 433/228/64 432/197/64
f 369/307/64 370/308/64 434/227/64 433/228/64
f 370/308/64 371/309/64 435/226/64 434/227/64
f 371/309/64 372/310/64 436/225/64 435/226/64
f 372/310/64 373/311/64 437/224/64 436/225/64
f 373/311/64 374/312/64 438/222/64 437/224/64
f 374/312/64 375/313/64 439/220/64 438/222/64
f 375/313/64 376/314/64 440/218/64 439/220/64
f 376/314/64 377/315/64 441/216/64 440/218/64
f 377/315/64 378/316/64 442/214/64 441/216/64
f 378/316/64 379/317/64 443/212/64 442/214/64
f 379/317/64 380/318/64 444/210/64 443/212/64
f 380/318/64 381/319/64 445/208/64 444/210/64
f 381/319/64 382/320/64 446/206/64 445/208/64
f 382/320/64 383/321/64 447/204/64 446/206/64
f 383/321/64 384/322/64 448/201/64 447/204/64
f 384/322/64 322/261/64 386/202/64 448/201/64
f 449/262/64 450/261/64 512/322/64 511/321/64 510/320/64 509/319/64 508/318/64 507/317/64 506/316/64 505/315/64 504/314/64 503/313/64 502/312/64 501/311/64 500/310/64 499/309/64 498/308/64 497/307/64 496/306/64 495/305/64 494/304/64 493/303/64 492/302/64 491/301/64 490/300/64 489/299/64 488/298/64 487/297/64 486/296/64 485/295/64 484/294/64 483/293/64 482/292/64 481/291/64 480/290/64 479/289/64 478/288/64 477/287/64 476/286/64 475/285/64 474/284/64 473/283/64 472/282/64 471/281/64 470/280/64 469/279/64 468/278/64 467/277/64 466/276/64 465/275/64 464/274/64 463/273/64 462/272/64 461/259/64 460/260/64 459/271/64 458/270/64 457/269/64 456/268/64 455/267/64 454/266/64 453/265/64 452/264/64 451/263/64
f 360/298/133 359/297/134 487/297/134 488/298/133
f 334/272/135 333/259/131 461/259/131 462/272/135
f 361/299/136 360/298/133 488/298/133 489/299/136
f 335/273/137 334/272/135 462/272/135 463/273/137
f 362/300/138 361/299/136 489/299/136 490/300/138
f 336/274/139 335/273/137 463/273/137 464/274/139
f 363/301/140 362/300/138 490/300/138 491/301/140
f 337/275/141 336/274/139 464/274/139 465/275/141
f 364/302/142 363/301/140 491/301/140 492/302/142
f 338/276/143 337/275/141 465/275/141 466/276/143
f 365/303/144 364/302/142 492/302/142 493/303/144
f 339/277/145 338/276/143 466/276/143 467/277/145
f 366/304/146 365/303/144 493/303/144 494/304/146
f 340/278/147 339/277/145 467/277/145 468/278/147
f 367/305/148 366/304/146 494/304/146 495/305/148
f 341/279/149 340/278/147 468/278/147 469/279/149
f 368/306/150 367/305/148 495/305/148 496/306/150
f 342/280/151 341/279/149 469/279/149 470/280/151
f 369/307/152 368/306/150 496/306/150 497/307/152
f 343/281/153 342/280/151 470/280/151 471/281/153
f 370/308/154 369/307/152 497/307/152 498/308/154
f 344/282/155 343/281/153 471/281/153 472/282/155
f 371/309/156 370/308/154 498/308/154 499/309/156
f 345/283/157 344/282/155 472/282/155 473/283/157
f 372/310/158 371/309/156 499/309/156 500/310/158
f 346/284/159 345/283/157 473/283/157 474/284/159
f 373/311/160 372/310/158 500/310/158 501/311/160
f 347/285/161 346/284/159 474/284/159 475/285/161
f 374/312/162 373/311/160 501/311/160 502/312/162
f 348/286/163 347/285/161 475/285/161 476/286/163
f 321/262/164 322/261/165 450/261/165 449/262/164
f 375/313/166 374/312/162 502/312/162 503/313/166
f 349/287/167 348/286/163 476/286/163 477/287/167
f 323/263/168 321/262/164 449/262/164 451/263/168
f 376/314/169 375/313/166 503/313/166 504/314/169
f 350/288/170 349/287/167 477/287/167 478/288/170
f 324/264/171 323/263/168 451/263/168 452/264/171
f 377/315/172 376/314/169 504/314/169 505/315/172
f 351/289/173 350/288/170 478/288/170 479/289/173
f 325/265/174 324/264/171 452/264/171 453/265/174
f 378/316/175 377/315/172 505/315/172 506/316/175
f 352/290/176 351/289/173 479/289/173 480/290/176
f 326/266/177 325/265/174 453/265/174 454/266/177
f 379/317/178 378/316/175 506/316/175 507/317/178
f 353/291/179 352/290/176 480/290/176 481/291/179
f 327/267/180 326/266/177 454/266/177 455/267/180
f 380/318/181 379/317/178 507/317/178 508/318/181
f 354/292/182 353/291/179 481/291/179 482/292/182
f 328/268/183 327/267/180 455/267/180 456/268/183
f 381/319/184 380/318/181 508/318/181 509/319/184
f 355/293/185 354/292/182 482/292/182 483/293/185
f 329/269/186 328/268/183 456/268/183 457/269/186
f 382/320/187 381/319/184 509/319/184 510/320/187
f 356/294/188 355/293/185 483/293/185 484/294/188
f 330/270/189 329/269/186 457/269/186 458/270/189
f 383/321/190 382/320/187 510/320/187 511/321/190
f 357/295/191 356/294/188 484/294/188 485/295/191
f 331/271/192 330/270/189 458/270/189 459/271/192
f 384/322/193 383/321/190 511/321/190 512/322/193
f 358/296/194 357/295/191 485/295/191 486/296/194
f 332/260/132 331/271/192 459/271/192 460/260/132
f 322/261/165 384/322/193 512/322/193 450/261/165
f 359/297/134 358/296/194 486/296/194 487/297/134
