v -0.076619 0.694450 -1.377519
v -0.343888 0.682007 -1.336103
v -0.597941 0.676112 -1.243341
v -0.829015 0.644738 -1.102798
v -1.028231 0.670182 -0.919875
v -1.187932 0.681400 -0.701602
v -1.301983 0.671287 -0.456367
v -1.365998 0.649626 -0.193594
v -1.377519 0.703580 0.076619
v -1.336103 0.681420 0.343888
v -1.243341 0.662218 0.597941
v -1.102798 0.670466 0.829015
v -0.919875 0.683617 1.028231
v -0.701602 0.678677 1.187932
v -0.456367 0.678912 1.301983
v -0.193594 0.673876 1.365998
v 0.076619 0.677018 1.377519
v 0.343888 0.668450 1.336103
v 0.597941 0.694105 1.243341
v 0.829015 0.678365 1.102798
v 1.028231 0.694703 0.919875
v 1.187932 0.662136 0.701602
v 1.301983 0.667099 0.456367
v 1.365998 0.661946 0.193594
v 1.377519 0.645034 -0.076619
v 1.336103 0.668848 -0.343888
v 1.243341 0.670076 -0.597941
v 1.102798 0.651820 -0.829015
v 0.919875 0.662226 -1.028231
v 0.701602 0.658443 -1.187932
v 0.456367 0.656409 -1.301983
v 0.193594 0.664236 -1.365998
v -0.196638 0.658486 -0.763996
v -0.043812 0.685387 -0.787678
v -0.341908 0.642494 -0.710954
v -0.474039 0.654772 -0.630590
v -0.587952 0.683980 -0.525993
v -0.679271 0.673649 -0.401183
v -0.744486 0.655959 -0.260955
v -0.781090 0.663745 -0.110699
v -0.787678 0.679218 0.043812
v -0.763996 0.683838 0.196638
v -0.710954 0.659327 0.341908
v -0.630590 0.654320 0.474039
v -0.525993 0.677897 0.587952
v -0.401183 0.668425 0.679271
v -0.260955 0.675000 0.744486
v -0.110699 0.656559 0.781090
v 0.043812 0.668311 0.787678
v 0.196638 0.667029 0.763996
v 0.341908 0.660014 0.710954
v 0.474039 0.660799 0.630590
v 0.587952 0.667340 0.525993
v 0.679271 0.674022 0.401183
v 0.744486 0.666945 0.260955
v 0.781090 0.674225 0.110699
v 0.787678 0.683602 -0.043812
v 0.763996 0.704323 -0.196638
v 0.710954 0.670074 -0.341908
v 0.630590 0.655050 -0.474039
v 0.525993 0.663631 -0.587952
v 0.401183 0.668112 -0.679271
v 0.260955 0.663700 -0.744486
v 0.110699 0.666958 -0.781090
v -0.308861 0.681079 -1.200014
v -0.068815 0.679259 -1.237212
v -0.537037 0.676994 -1.116700
v -0.744576 0.658570 -0.990473
v -0.923501 0.685704 -0.826182
v -1.066936 0.672657 -0.630141
v -1.169369 0.680305 -0.409884
v -1.226864 0.657004 -0.173875
v -1.237212 0.687748 0.068815
v -1.200014 0.658676 0.308861
v -1.116700 0.661146 0.537037
v -0.990473 0.658670 0.744576
v -0.826182 0.671746 0.923501
v -0.630141 0.679242 1.066936
v -0.409884 0.675686 1.169369
v -0.173875 0.656770 1.226864
v 0.068815 0.672534 1.237212
v 0.308861 0.673889 1.200014
v 0.537037 0.710659 1.116700
v 0.744576 0.692519 0.990473
v 0.923501 0.667190 0.826182
v 1.066936 0.661760 0.630141
v 1.169369 0.669339 0.409884
v 1.226864 0.700414 0.173875
v 1.237212 0.666574 -0.068815
v 1.200014 0.644439 -0.308861
v 1.116701 0.670929 -0.537037
v 0.990473 0.658698 -0.744576
v 0.826182 0.665416 -0.923501
v 0.630141 0.657218 -1.066936
v 0.409884 0.655093 -1.169369
v 0.173875 0.642867 -1.226864
v -0.255966 0.654464 -0.994503
v -0.057030 0.670823 -1.025330
v -0.445066 0.668289 -0.925457
v -0.617062 0.645385 -0.820846
v -0.765344 0.667282 -0.684692
v -0.884215 0.662391 -0.522224
v -0.969106 0.664184 -0.339688
v -1.016755 0.658485 -0.144098
v -1.025330 0.688252 0.057030
v -0.994503 0.681638 0.255966
v -0.925457 0.663876 0.445066
v -0.820847 0.650947 0.617062
v -0.684692 0.640492 0.765344
v -0.522224 0.671520 0.884215
v -0.339688 0.668134 0.969106
v -0.144098 0.664945 1.016755
v 0.057030 0.647004 1.025330
v 0.255966 0.666926 0.994503
v 0.445066 0.659235 0.925457
v 0.617062 0.670119 0.820846
v 0.765344 0.693357 0.684692
v 0.884215 0.681140 0.522224
v 0.969106 0.660498 0.339688
v 1.016755 0.662459 0.144098
v 1.025330 0.671157 -0.057030
v 0.994503 0.659160 -0.255966
v 0.925457 0.674620 -0.445066
v 0.820847 0.667399 -0.617062
v 0.684692 0.661074 -0.765344
v 0.522224 0.670126 -0.884215
v 0.339688 0.679027 -0.969106
v 0.144098 0.674740 -1.016755
v -0.188838 0.685585 -1.218613
v -0.422949 0.685823 -1.158357
v -0.640807 0.657300 -1.053586
v -0.834038 0.662662 -0.908327
v -0.995218 0.682833 -0.728161
v -1.118153 0.672891 -0.520012
v -1.198117 0.661706 -0.291880
v -1.232038 0.670374 -0.052530
v -1.218613 0.674691 0.188838
v -1.158357 0.656930 0.422949
v -1.053586 0.654570 0.640807
v -0.908327 0.668359 0.834038
v -0.728161 0.651490 0.995218
v -0.520012 0.682294 1.118152
v -0.291880 0.660515 1.198117
v -0.052530 0.651052 1.232038
v 0.188838 0.671854 1.218613
v 0.422949 0.692365 1.158357
v 0.640807 0.706974 1.053586
v 0.834038 0.684597 0.908327
v 0.995218 0.676577 0.728161
v 1.118152 0.656371 0.520012
v 1.198117 0.685310 0.291880
v 1.232038 0.690852 0.052530
v 1.218613 0.645295 -0.188838
v 1.158357 0.639424 -0.422949
v 1.053587 0.669488 -0.640807
v 0.908327 0.660809 -0.834038
v 0.728161 0.665972 -0.995218
v 0.520012 0.662713 -1.118152
v 0.291880 0.625779 -1.198117
v 0.052530 0.647393 -1.232038
v -0.210253 0.688301 -1.356811
v -0.470914 0.698609 -1.289722
v -0.713478 0.653401 -1.173069
v -0.928623 0.654508 -1.011337
v -1.108082 0.688657 -0.810739
v -1.244957 0.662820 -0.578985
v -1.333990 0.654577 -0.324980
v -1.371759 0.685480 -0.058487
v -1.356811 0.676174 0.210253
v -1.289722 0.675692 0.470914
v -1.173069 0.651949 0.713478
v -1.011337 0.688368 0.928623
v -0.810739 0.680319 1.108082
v -0.578985 0.690256 1.244957
v -0.324980 0.652670 1.333990
v -0.058487 0.676110 1.371759
v 0.210253 0.659824 1.356811
v 0.470914 0.686516 1.289722
v 0.713478 0.689225 1.173069
v 0.928623 0.680134 1.011337
v 1.108082 0.664209 0.810739
v 1.244957 0.668120 0.578985
v 1.333990 0.660683 0.324980
v 1.371759 0.665197 0.058487
v 1.356811 0.661580 -0.210253
v 1.289722 0.680477 -0.470914
v 1.173069 0.649270 -0.713478
v 1.011337 0.671883 -0.928623
v 0.810739 0.666596 -1.108082
v 0.578985 0.652587 -1.244957
v 0.324980 0.625610 -1.333990
v 0.058487 0.673430 -1.371759
v -0.326374 0.681699 -1.268059
v -0.072717 0.688685 -1.307366
v -0.567489 0.678456 -1.180021
v -0.786795 0.644052 -1.046635
v -0.975866 0.675016 -0.873028
v -1.127434 0.670058 -0.665871
v -1.235676 0.671638 -0.433125
v -1.296431 0.643937 -0.183735
v -1.307366 0.692345 0.072717
v -1.268059 0.666249 0.326374
v -1.180021 0.658547 0.567489
v -1.046635 0.663160 0.786795
v -0.873028 0.681255 0.975866
v -0.665871 0.677980 1.127434
v -0.433125 0.670001 1.235676
v -0.183735 0.654046 1.296431
v 0.072717 0.676597 1.307366
v 0.326374 0.676608 1.268059
v 0.567489 0.708716 1.180021
v 0.786795 0.684330 1.046635
v 0.975866 0.685863 0.873028
v 1.127434 0.670653 0.665871
v 1.235676 0.669059 0.433125
v 1.296431 0.690068 0.183735
v 1.307366 0.659655 -0.072717
v 1.268059 0.656975 -0.326374
v 1.180021 0.669287 -0.567489
v 1.046635 0.654041 -0.786795
v 0.873028 0.664447 -0.975866
v 0.665871 0.653974 -1.127434
v 0.433125 0.649733 -1.235676
v 0.183735 0.653680 -1.296431
v -0.156498 0.669733 -1.009916
v -0.350516 0.656806 -0.959980
v -0.531064 0.655428 -0.873152
v -0.691203 0.648134 -0.752769
v -0.824780 0.675963 -0.603458
v -0.926660 0.658085 -0.430956
v -0.992930 0.679448 -0.241893
v -1.021042 0.669703 -0.043534
v -1.009916 0.679965 0.156498
v -0.959980 0.675762 0.350516
v -0.873152 0.652059 0.531064
v -0.752769 0.643763 0.691203
v -0.603458 0.654136 0.824780
v -0.430956 0.663568 0.926660
v -0.241893 0.675517 0.992930
v -0.043534 0.660720 1.021042
v 0.156498 0.655826 1.009916
v 0.350516 0.672540 0.959980
v 0.531064 0.664898 0.873152
v 0.691203 0.681732 0.752769
v 0.824779 0.684380 0.603458
v 0.926660 0.679187 0.430956
v 0.992930 0.652388 0.241893
v 1.021042 0.665953 0.043534
v 1.009916 0.671195 -0.156498
v 0.959980 0.668598 -0.350516
v 0.873152 0.676959 -0.531064
v 0.752769 0.670718 -0.691203
v 0.603458 0.666718 -0.824780
v 0.430956 0.682138 -0.926660
v 0.241893 0.670391 -0.992930
v 0.043534 0.662473 -1.021042
v -0.282413 0.668501 -1.097258
v -0.062923 0.675672 -1.131271
v -0.491051 0.658845 -1.021079
v -0.680819 0.663377 -0.905659
v -0.844422 0.675431 -0.755437
v -0.975575 0.667773 -0.576182
v -1.069238 0.671568 -0.374786
v -1.121810 0.661101 -0.158987
v -1.131271 0.681152 0.062923
v -1.097258 0.674435 0.282413
v -1.021079 0.662063 0.491051
v -0.905659 0.657306 0.680819
v -0.755437 0.634098 0.844422
v -0.576182 0.679137 0.975575
v -0.374786 0.673432 1.069238
v -0.158987 0.651761 1.121810
v 0.062923 0.658565 1.131271
v 0.282413 0.674991 1.097258
v 0.491051 0.676523 1.021079
v 0.680819 0.678194 0.905659
v 0.844422 0.679560 0.755437
v 0.975575 0.657664 0.576182
v 1.069237 0.657320 0.374786
v 1.121810 0.685352 0.158987
v 1.131271 0.670016 -0.062923
v 1.097258 0.637740 -0.282414
v 1.021079 0.673807 -0.491052
v 0.905660 0.663454 -0.680819
v 0.755437 0.660380 -0.844422
v 0.576182 0.662338 -0.975575
v 0.374786 0.659371 -1.069238
v 0.158987 0.648926 -1.121810
v -0.120225 0.674465 -0.775837
v -0.269273 0.655575 -0.737475
v -0.407973 0.647759 -0.670772
v -0.530995 0.671137 -0.578292
v -0.633612 0.679209 -0.463588
v -0.711878 0.668726 -0.331069
v -0.762788 0.659025 -0.185827
v -0.784384 0.678247 -0.033444
v -0.775837 0.681204 0.120225
v -0.737475 0.671292 0.269273
v -0.670772 0.653085 0.407973
v -0.578292 0.672537 0.530995
v -0.463588 0.662846 0.633611
v -0.331069 0.678476 0.711878
v -0.185827 0.657801 0.762788
v -0.033444 0.664328 0.784384
v 0.120225 0.663970 0.775837
v 0.269273 0.668556 0.737475
v 0.407973 0.654841 0.670772
v 0.530995 0.664031 0.578292
v 0.633611 0.672480 0.463588
v 0.711878 0.667271 0.331069
v 0.762788 0.662676 0.185827
v 0.784384 0.669853 0.033444
v 0.775837 0.707814 -0.120225
v 0.737475 0.683712 -0.269273
v 0.670772 0.659038 -0.407973
v 0.578292 0.654123 -0.530995
v 0.463588 0.665400 -0.633611
v 0.331069 0.668852 -0.711878
v 0.185827 0.663270 -0.762788
v 0.033444 0.679210 -0.784384
v -0.226302 0.655555 -0.879249
v -0.050421 0.669414 -0.906504
v -0.393487 0.652096 -0.818205
v -0.545550 0.656855 -0.725718
v -0.676648 0.682245 -0.605342
v -0.781743 0.671399 -0.461704
v -0.856796 0.656507 -0.300322
v -0.898923 0.656954 -0.127398
v -0.906504 0.677779 0.050421
v -0.879249 0.688456 0.226302
v -0.818205 0.661469 0.393487
v -0.725718 0.639712 0.545550
v -0.605342 0.654788 0.676648
v -0.461704 0.659979 0.781743
v -0.300321 0.668167 0.856796
v -0.127398 0.670986 0.898923
v 0.050421 0.665384 0.906504
v 0.226302 0.647890 0.879249
v 0.393487 0.666126 0.818205
v 0.545550 0.666919 0.725718
v 0.676648 0.668053 0.605342
v 0.781743 0.686208 0.461704
v 0.856796 0.654602 0.300321
v 0.898923 0.656367 0.127398
v 0.906504 0.676097 -0.050421
v 0.879249 0.694033 -0.226302
v 0.818205 0.692721 -0.393487
v 0.725718 0.658938 -0.545550
v 0.605342 0.667620 -0.676648
v 0.461704 0.672580 -0.781743
v 0.300321 0.671920 -0.856796
v 0.127398 0.667626 -0.898923
v 0.038489 0.667620 -0.902713
v 0.213860 0.679075 -0.877859
v 0.381012 0.671151 -0.819269
v 0.533523 0.664398 -0.729195
v 0.665530 0.664163 -0.611099
v 0.771962 0.670788 -0.469519
v 0.848727 0.689888 -0.309895
v 0.892877 0.687683 -0.138361
v 0.902713 0.660546 0.038489
v 0.877859 0.654309 0.213860
v 0.819269 0.665274 0.381012
v 0.729195 0.692414 0.533523
v 0.611099 0.655672 0.665530
v 0.469518 0.678027 0.771962
v 0.309894 0.658461 0.848727
v 0.138361 0.659121 0.892877
v -0.038489 0.662502 0.902713
v -0.213860 0.669776 0.877859
v -0.381012 0.670697 0.819269
v -0.533523 0.658359 0.729195
v -0.665530 0.659570 0.611099
v -0.771962 0.644322 0.469518
v -0.848727 0.684777 0.309894
v -0.892877 0.681228 0.138361
v -0.902713 0.676093 -0.038489
v -0.877859 0.656737 -0.213860
v -0.819269 0.664987 -0.381013
v -0.729196 0.680714 -0.533523
v -0.611099 0.663898 -0.665530
v -0.469518 0.654969 -0.771962
v -0.309894 0.658465 -0.848727
v -0.138361 0.659881 -0.892877
v 0.048032 0.654955 -1.126540
v 0.266886 0.646154 -1.095524
v 0.475484 0.666273 -1.022406
v 0.665810 0.673926 -0.909999
v 0.830548 0.655291 -0.762621
v 0.963369 0.684488 -0.585935
v 1.059169 0.656767 -0.386733
v 1.114265 0.646262 -0.172668
v 1.126540 0.680890 0.048032
v 1.095523 0.665796 0.266886
v 1.022406 0.656315 0.475484
v 0.909999 0.674142 0.665810
v 0.762621 0.676806 0.830548
v 0.585935 0.673174 0.963369
v 0.386732 0.679055 1.059168
v 0.172668 0.662426 1.114265
v -0.048032 0.640990 1.126540
v -0.266886 0.663977 1.095524
v -0.475484 0.676993 1.022406
v -0.665810 0.650498 0.909999
v -0.830548 0.653674 0.762621
v -0.963369 0.655749 0.585935
v -1.059168 0.666629 0.386732
v -1.114265 0.680254 0.172668
v -1.126540 0.671603 -0.048032
v -1.095524 0.670502 -0.266886
v -1.022406 0.663738 -0.475484
v -0.909999 0.672784 -0.665810
v -0.762621 0.667968 -0.830548
v -0.585935 0.655537 -0.963369
v -0.386732 0.669638 -1.059168
v -0.172668 0.677950 -1.114265
v 0.055509 0.663384 -1.301898
v 0.308430 0.620538 -1.266054
v 0.549498 0.648752 -1.181555
v 0.769450 0.661837 -1.051650
v 0.959832 0.664650 -0.881331
v 1.113328 0.654309 -0.677142
v 1.224039 0.650384 -0.446932
v 1.287712 0.656015 -0.199546
v 1.301898 0.676620 0.055509
v 1.266054 0.680836 0.308430
v 1.181555 0.661122 0.549498
v 1.051650 0.666864 0.769450
v 0.881331 0.680590 0.959832
v 0.677142 0.701122 1.113328
v 0.446932 0.695749 1.224039
v 0.199546 0.670030 1.287712
v -0.055509 0.657741 1.301898
v -0.308430 0.652752 1.266054
v -0.549498 0.689114 1.181555
v -0.769450 0.663625 1.051650
v -0.959832 0.672167 0.881331
v -1.113328 0.651056 0.677142
v -1.224039 0.662950 0.446932
v -1.287712 0.667557 0.199546
v -1.301898 0.669824 -0.055509
v -1.266054 0.656002 -0.308430
v -1.181555 0.671187 -0.549498
v -1.051650 0.694657 -0.769450
v -0.881331 0.655220 -0.959832
v -0.677142 0.656134 -1.113328
v -0.446932 0.699166 -1.224039
v -0.199546 0.681538 -1.287712
vn 0.0657 0.9926 0.1019
vn 0.0537 0.9985 0.0074
vn -0.1615 0.9858 0.0468
vn -0.0059 0.9999 -0.0096
vn 0.0478 0.9890 -0.1400
vn -0.0236 0.9952 0.0954
vn -0.0454 0.9986 0.0283
vn 0.0941 0.9927 -0.0759
vn 0.1734 0.9848 0.0140
vn 0.1783 0.9833 -0.0376
vn 0.0978 0.9947 0.0322
vn 0.0215 0.9873 -0.1576
vn 0.1130 0.9904 -0.0799
vn -0.0189 0.9958 -0.0890
vn 0.1533 0.9880 -0.0178
vn -0.0299 0.9773 -0.2095
vn 0.0157 0.9992 -0.0368
vn -0.0633 0.9870 0.1480
vn 0.0622 0.9847 0.1625
vn 0.0941 0.9948 0.0393
vn -0.0064 0.9968 -0.0801
vn 0.0385 0.9990 0.0226
vn 0.0520 0.9981 0.0329
vn 0.2931 0.9550 0.0447
vn 0.1252 0.9911 -0.0456
vn -0.1915 0.9780 0.0832
vn -0.1156 0.9932 -0.0156
vn 0.0485 0.9977 0.0466
vn -0.0293 0.9995 0.0084
vn -0.0758 0.9968 0.0269
vn -0.1235 0.9913 0.0461
vn 0.1472 0.9772 0.1532
vn -0.0361 0.9993 -0.0128
vn -0.0246 0.9978 -0.0615
vn -0.0036 0.9994 0.0356
vn 0.0409 0.9988 -0.0270
vn 0.0204 0.9992 -0.0350
vn -0.0294 0.9990 0.0326
vn -0.0177 0.9995 0.0247
vn -0.0147 0.9979 -0.0637
vn -0.0077 0.9999 -0.0127
vn 0.0279 0.9996 0.0017
vn 0.0479 0.9955 0.0818
vn -0.0825 0.9966 -0.0075
vn -0.0360 0.9973 0.0637
vn -0.0562 0.9984 0.0065
vn 0.0261 0.9995 0.0203
vn 0.0076 0.9991 -0.0427
vn 0.0058 0.9999 0.0124
vn 0.0084 0.9981 0.0602
vn -0.0248 0.9995 -0.0191
vn 0.0002 0.9992 -0.0388
vn -0.0606 0.9971 0.0469
vn -0.0158 0.9973 -0.0712
vn 0.0445 0.9989 -0.0109
vn 0.0540 0.9981 0.0294
vn 0.0540 0.9936 0.0988
vn 0.0267 0.9988 -0.0399
vn -0.0951 0.9950 -0.0307
vn -0.0373 0.9993 0.0042
vn -0.0018 0.9996 0.0266
vn 0.0069 0.9998 0.0192
vn -0.0087 0.9993 0.0373
vn 0.0023 1.0000 0.0053
vn 0.0321 0.9973 0.0654
vn 0.1211 0.9906 0.0640
vn -0.0717 0.9886 0.1325
vn -0.0354 0.9960 -0.0815
vn 0.0616 0.9957 -0.0689
vn 0.0044 0.9976 0.0687
vn -0.0329 0.9991 0.0251
vn -0.0800 0.9957 -0.0471
vn 0.0152 0.9998 -0.0143
vn -0.0120 0.9982 0.0580
vn -0.0033 0.9994 0.0341
vn -0.0030 0.9980 -0.0626
vn 0.1449 0.9851 -0.0923
vn -0.0778 0.9924 -0.0948
vn 0.0893 0.9949 0.0470
vn 0.0338 0.9994 -0.0012
vn -0.0793 0.9939 -0.0761
vn -0.0930 0.9956 -0.0110
vn -0.0770 0.9930 -0.0901
vn 0.0376 0.9974 -0.0614
vn 0.0034 0.9990 -0.0443
vn 0.0020 0.9974 -0.0723
vn -0.0738 0.9948 0.0699
vn 0.0010 0.9998 0.0195
vn 0.0224 0.9888 -0.1476
vn -0.0814 0.9966 0.0114
vn 0.0844 0.9948 0.0576
vn 0.0315 0.9976 -0.0615
vn 0.0147 0.9997 0.0189
vn 0.0114 0.9969 -0.0776
vn -0.0883 0.9884 -0.1237
vn 0.1004 0.9944 0.0327
vn -0.0271 0.9970 0.0727
vn 0.0418 0.9989 0.0211
vn -0.0132 0.9993 0.0343
vn 0.0255 0.9995 0.0185
vn 0.0587 0.9956 -0.0734
vn -0.0496 0.9972 0.0567
vn 0.0588 0.9977 -0.0349
vn 0.0105 0.9999 0.0018
vn -0.0005 0.9991 -0.0426
vn -0.0430 0.9984 0.0368
vn 0.0440 0.9929 0.1102
vn 0.0409 0.9989 -0.0233
vn -0.0550 0.9980 0.0320
vn -0.0388 0.9962 -0.0778
vn -0.0053 0.9998 -0.0166
vn 0.0640 0.9939 0.0895
vn -0.0120 0.9995 0.0307
vn -0.0821 0.9945 -0.0657
vn -0.0161 0.9989 -0.0436
vn -0.0426 0.9989 -0.0218
vn -0.0407 0.9989 0.0230
vn 0.1233 0.9924 -0.0060
vn 0.0203 0.9979 -0.0620
vn -0.1165 0.9922 0.0450
vn 0.0338 0.9994 -0.0055
vn 0.2007 0.9788 -0.0407
vn 0.0659 0.9978 0.0094
vn -0.0426 0.9980 -0.0466
vn 0.0241 0.9997 -0.0028
vn 0.0421 0.9991 -0.0023
vn -0.0174 0.9956 -0.0917
vn -0.0064 0.9947 -0.1027
vn -0.0043 0.9991 0.0431
vn 0.0237 0.9914 0.1284
vn -0.0631 0.9977 0.0258
vn 0.0194 0.9919 -0.1258
vn 0.0272 0.9972 0.0697
vn 0.0183 0.9997 -0.0152
vn -0.0936 0.9934 0.0665
vn -0.0113 0.9910 -0.1331
vn -0.0137 0.9952 0.0965
vn -0.0067 0.9998 0.0193
vn -0.0090 0.9999 0.0120
vn 0.0739 0.9926 -0.0960
vn 0.0089 0.9934 -0.1144
vn 0.0320 0.9993 -0.0180
vn 0.0655 0.9960 0.0614
vn -0.0587 0.9958 -0.0698
vn -0.0266 0.9989 -0.0380
vn -0.1313 0.9905 -0.0414
vn 0.0016 0.9936 -0.1131
vn 0.0193 0.9985 -0.0521
vn 0.0195 0.9987 -0.0475
vn -0.0499 0.9987 -0.0081
vn -0.0679 0.9925 0.1017
vn 0.0460 0.9924 -0.1138
vn -0.0588 0.9955 -0.0745
vn 0.0190 0.9944 0.1036
vn 0.0649 0.9929 -0.0997
vn 0.0020 0.9996 0.0268
vn 0.0024 0.9989 -0.0461
vn 0.0242 0.9965 -0.0799
vn -0.0121 0.9965 -0.0824
vn 0.1327 0.9886 0.0717
vn -0.0257 0.9969 0.0740
vn -0.0173 0.9998 0.0020
vn -0.1196 0.9920 0.0407
vn 0.0640 0.9941 -0.0874
vn -0.0036 0.9998 -0.0173
vn -0.0277 0.9996 0.0048
vn -0.0147 0.9956 0.0923
vn 0.1769 0.9678 -0.1793
vn 0.1605 0.9848 0.0663
vn 0.1649 0.9863 -0.0067
vn 0.0225 0.9989 -0.0420
vn 0.0715 0.9869 -0.1443
vn 0.0870 0.9919 -0.0926
vn 0.0330 0.9988 -0.0369
vn 0.0610 0.9946 -0.0835
vn -0.0397 0.9792 -0.1991
vn 0.0318 0.9945 0.1001
vn -0.0524 0.9838 0.1716
vn 0.1446 0.9851 0.0930
vn -0.0282 0.9994 0.0193
vn 0.0714 0.9957 -0.0584
vn -0.0132 0.9999 0.0009
vn 0.2290 0.9697 0.0856
vn 0.2280 0.9705 -0.0782
vn -0.0241 0.9987 0.0442
vn -0.2275 0.9676 0.1096
vn 0.0055 0.9970 -0.0769
vn -0.0028 0.9985 0.0555
vn -0.0475 0.9987 0.0193
vn -0.0385 0.9978 0.0545
vn 0.0002 0.9961 0.0877
vn 0.1167 0.9845 0.1306
vn 0.0514 0.9986 0.0148
vn 0.0857 0.9909 0.1040
vn -0.1367 0.9876 0.0777
vn -0.0387 0.9976 -0.0575
vn 0.0443 0.9897 -0.1362
vn -0.0238 0.9963 0.0822
vn -0.0695 0.9972 0.0259
vn -0.0031 0.9976 -0.0690
vn 0.0993 0.9950 0.0067
vn 0.1218 0.9925 -0.0074
vn 0.0549 0.9980 0.0323
vn 0.0031 0.9928 -0.1199
vn 0.1162 0.9906 -0.0726
vn -0.0399 0.9944 -0.0980
vn 0.1285 0.9913 0.0283
vn -0.0159 0.9948 -0.1002
vn -0.0221 0.9989 -0.0415
vn -0.0791 0.9936 0.0800
vn 0.0213 0.9946 0.1014
vn 0.1083 0.9936 0.0326
vn -0.0179 0.9962 -0.0849
vn 0.0132 0.9998 -0.0178
vn 0.0138 0.9981 0.0593
vn 0.2175 0.9755 0.0323
vn 0.0927 0.9922 -0.0835
vn -0.1792 0.9824 0.0532
vn -0.0411 0.9991 0.0120
vn 0.0569 0.9984 0.0074
vn -0.0126 0.9999 0.0025
vn -0.0337 0.9990 -0.0302
vn -0.1066 0.9935 -0.0397
vn 0.1338 0.9803 0.1450
vn -0.0565 0.9956 0.0743
vn 0.0340 0.9987 0.0390
vn -0.0309 0.9988 0.0368
vn 0.0838 0.9948 -0.0580
vn -0.0398 0.9991 0.0147
vn 0.0052 0.9999 0.0142
vn 0.0451 0.9983 0.0374
vn 0.0040 0.9922 -0.1245
vn -0.0145 0.9998 0.0128
vn -0.0184 0.9941 0.1067
vn 0.0705 0.9969 0.0347
vn 0.0146 0.9994 0.0324
vn -0.1215 0.9905 -0.0642
vn 0.0222 0.9991 -0.0375
vn 0.0220 0.9992 0.0344
vn 0.0408 0.9959 0.0809
vn -0.0503 0.9984 -0.0246
vn -0.0370 0.9959 -0.0827
vn -0.0357 0.9994 -0.0005
vn -0.0882 0.9961 -0.0058
vn 0.0690 0.9976 0.0104
vn 0.0879 0.9942 -0.0618
vn -0.0674 0.9974 0.0243
vn -0.0739 0.9969 0.0265
vn 0.1504 0.9864 -0.0670
vn 0.1701 0.9852 0.0213
vn -0.0537 0.9971 -0.0544
vn 0.0131 0.9997 -0.0228
vn 0.0234 0.9995 0.0213
vn 0.0326 0.9991 -0.0278
vn -0.0007 0.9930 -0.1177
vn 0.0262 0.9986 -0.0468
vn -0.0021 0.9932 0.1163
vn 0.1068 0.9941 0.0187
vn -0.0351 0.9958 0.0851
vn 0.0485 0.9986 0.0191
vn 0.0950 0.9955 -0.0003
vn 0.0170 0.9975 0.0687
vn 0.0422 0.9991 -0.0088
vn -0.0289 0.9995 -0.0080
vn -0.0029 0.9994 -0.0348
vn -0.0670 0.9949 0.0759
vn -0.0006 0.9984 0.0567
vn 0.0371 0.9987 -0.0336
vn 0.0792 0.9949 -0.0629
vn -0.0693 0.9936 -0.0896
vn 0.0496 0.9987 -0.0067
vn 0.0710 0.9961 0.0532
vn -0.0729 0.9950 -0.0677
vn -0.0913 0.9952 -0.0364
vn -0.0817 0.9810 -0.1760
vn -0.0626 0.9941 -0.0883
vn 0.0572 0.9978 0.0332
vn 0.1010 0.9946 -0.0217
vn -0.0434 0.9989 0.0174
vn -0.1642 0.9860 0.0302
vn 0.0020 0.9917 -0.1286
vn 0.0964 0.9953 -0.0113
vn 0.0921 0.9930 0.0742
vn -0.0141 0.9957 -0.0918
vn 0.0346 0.9990 0.0275
vn 0.0238 0.9984 -0.0519
vn -0.0549 0.9870 -0.1510
vn 0.0579 0.9895 -0.1322
vn -0.0695 0.9967 -0.0408
vn -0.0240 0.9994 0.0242
vn 0.0350 0.9993 0.0104
vn 0.0486 0.9966 -0.0666
vn -0.0203 0.9995 0.0256
vn -0.0303 0.9987 0.0412
vn -0.0095 0.9998 -0.0147
vn -0.0100 0.9984 -0.0555
vn -0.0017 0.9997 -0.0231
vn 0.0595 0.9965 0.0596
vn -0.0087 0.9986 0.0523
vn -0.0882 0.9961 0.0019
vn -0.0230 0.9989 0.0411
vn -0.0348 0.9992 0.0190
vn 0.0299 0.9992 -0.0264
vn -0.0102 0.9999 -0.0080
vn 0.0323 0.9990 0.0295
vn -0.0054 0.9992 0.0385
vn -0.0363 0.9979 -0.0529
vn -0.0015 0.9999 0.0169
vn -0.0702 0.9975 -0.0041
vn 0.0287 0.9983 -0.0504
vn 0.0464 0.9986 0.0261
vn 0.0471 0.9978 0.0473
vn 0.0683 0.9965 0.0491
vn -0.0436 0.9982 -0.0415
vn -0.0830 0.9959 -0.0355
vn -0.0050 0.9992 0.0394
vn 0.0067 0.9999 0.0133
vn -0.0161 0.9998 0.0139
vn -0.0132 0.9990 0.0425
vn 0.0310 0.9987 -0.0392
vn -0.0498 0.9988 -0.0012
vn -0.0193 0.9988 -0.0443
vn 0.0073 0.9978 0.0660
vn 0.0110 0.9982 -0.0593
vn 0.0205 0.9934 -0.1124
vn -0.0779 0.9956 0.0520
vn 0.0241 0.9996 0.0123
vn 0.0075 0.9980 -0.0634
vn 0.0095 0.9994 -0.0343
vn 0.0011 1.0000 0.0094
vn 0.0841 0.9853 0.1484
vn -0.0623 0.9978 -0.0208
vn -0.0778 0.9931 0.0874
vn -0.0672 0.9975 -0.0219
vn 0.0074 0.9999 0.0140
vn 0.0379 0.9990 -0.0244
vn 0.0205 0.9981 0.0574
vn -0.0282 0.9996 0.0078
vn -0.0264 0.9996 0.0033
vn -0.0088 0.9985 -0.0533
vn -0.1434 0.9893 0.0283
vn 0.0119 0.9952 -0.0971
vn 0.0348 0.9970 -0.0689
vn 0.0266 0.9983 0.0516
vn 0.0732 0.9891 0.1278
vn 0.1378 0.9883 -0.0658
vn -0.0379 0.9974 -0.0615
vn -0.0673 0.9977 0.0080
vn -0.0013 0.9999 0.0155
vn 0.0298 0.9987 0.0412
vn -0.0198 0.9987 0.0477
vn -0.0235 0.9997 0.0016
vn 0.0293 0.9987 -0.0422
vn -0.0221 0.9991 0.0364
vn -0.0171 0.9989 0.0443
vn 0.0259 0.9995 0.0198
vn -0.0140 0.9985 0.0522
vn -0.1118 0.9905 -0.0797
vn 0.0586 0.9966 -0.0586
vn 0.1415 0.9890 0.0442
vn 0.0330 0.9961 0.0818
vn 0.0378 0.9989 0.0281
vn 0.0307 0.9917 -0.1245
vn -0.0770 0.9970 -0.0022
vn -0.0786 0.9967 -0.0223
vn -0.0318 0.9993 -0.0183
vn -0.0323 0.9995 0.0014
vn 0.0308 0.9989 0.0355
vn 0.0208 0.9995 0.0228
vn 0.0324 0.9990 -0.0322
vn -0.0399 0.9990 0.0183
vn -0.0663 0.9976 0.0207
vn -0.1160 0.9930 0.0203
vn 0.0409 0.9964 0.0748
vn 0.0595 0.9909 0.1210
vn -0.0010 0.9996 -0.0285
vn -0.0059 0.9927 -0.1202
vn 0.0480 0.9988 0.0060
vn -0.0509 0.9975 0.0491
vn -0.0581 0.9981 0.0224
vn 0.0525 0.9868 -0.1533
vn 0.0187 0.9994 0.0275
vn -0.0052 0.9995 0.0306
vn -0.1036 0.9945 -0.0127
vn 0.0966 0.9933 -0.0634
vn 0.0012 0.9840 -0.1780
vn 0.0379 0.9963 -0.0777
vn 0.0101 0.9999 -0.0031
vn 0.0167 0.9995 -0.0251
vn 0.0004 0.9986 -0.0520
vn 0.1294 0.9877 0.0877
vn 0.0670 0.9904 -0.1211
vn -0.0964 0.9932 -0.0646
vn -0.1485 0.9869 0.0639
vn 0.0666 0.9977 0.0124
vn 0.0972 0.9952 -0.0146
vn -0.0040 1.0000 0.0005
vn -0.0925 0.9834 -0.1562
vn -0.0716 0.9926 -0.0979
vn -0.0725 0.9953 -0.0645
vn -0.0110 0.9999 0.0058
vn 0.0623 0.9967 0.0516
vn 0.0449 0.9979 -0.0476
vn -0.0954 0.9889 -0.1137
vn 0.1114 0.9932 -0.0343
vn 0.0232 0.9995 0.0194
vn -0.0547 0.9961 0.0690
vn -0.0312 0.9977 0.0595
vn 0.0035 0.9936 -0.1127
vn -0.0347 0.9982 0.0484
vn 0.0658 0.9978 0.0099
vn 0.0201 0.9980 0.0606
vn 0.1067 0.9943 -0.0048
vn -0.0168 0.9990 0.0426
vn 0.0290 0.9937 0.1079
vn -0.0203 0.9961 0.0854
vn 0.1240 0.9797 0.1575
vn -0.0043 0.9996 0.0280
vn 0.0022 0.9994 -0.0339
vn -0.0261 0.9995 -0.0188
vn 0.0073 0.9990 0.0433
vn 0.0441 0.9944 -0.0957
vn -0.1519 0.9822 0.1103
vn -0.0619 0.9981 0.0047
vn 0.1962 0.9756 -0.0985
vn 0.1365 0.9854 0.1019
vn -0.0369 0.9993 -0.0070
vn 0.0363 0.9978 -0.0547
vn 0.0004 1.0000 -0.0096
vn 0.1281 0.9901 0.0571
vn -0.0950 0.9908 0.0969
vn 0.0139 0.9989 0.0456
vn -0.0569 0.9904 -0.1257
vn 0.0537 0.9985 0.0092
vn 0.0327 0.9991 -0.0263
vn 0.0715 0.9931 -0.0924
vn 0.0432 0.9916 -0.1217
vn 0.0010 0.9999 -0.0172
vn 0.1125 0.9936 -0.0086
vn 0.0841 0.9926 0.0875
vn 0.0752 0.9825 -0.1704
vn -0.0772 0.9937 0.0811
vn -0.0340 0.9993 -0.0171
vn 0.0047 0.9998 0.0180
vn 0.0254 0.9905 -0.1352
vn -0.1197 0.9925 0.0229
vn 0.0030 0.9986 0.0536
vn -0.0174 0.9990 0.0414
vt 0.000000 0.000000
s 1
f 33/1/33 290/1/290 35/1/35 291/1/291 36/1/36 292/1/292 37/1/37 293/1/293 38/1/38 294/1/294 39/1/39 295/1/295 40/1/40 296/1/296 41/1/41 297/1/297 42/1/42 298/1/298 43/1/43 299/1/299 44/1/44 300/1/300 45/1/45 301/1/301 46/1/46 302/1/302 47/1/47 303/1/303 48/1/48 304/1/304 49/1/49 305/1/305 50/1/50 306/1/306 51/1/51 307/1/307 52/1/52 308/1/308 53/1/53 309/1/309 54/1/54 310/1/310 55/1/55 311/1/311 56/1/56 312/1/312 57/1/57 313/1/313 58/1/58 314/1/314 59/1/59 315/1/315 60/1/60 316/1/316 61/1/61 317/1/317 62/1/62 318/1/318 63/1/63 319/1/319 64/1/64 320/1/320 34/1/34 289/1/289
f 448/1/448 194/1/194 1/1/1 161/1/161
f 447/1/447 193/1/193 2/1/2 162/1/162
f 446/1/446 195/1/195 3/1/3 163/1/163
f 445/1/445 196/1/196 4/1/4 164/1/164
f 444/1/444 197/1/197 5/1/5 165/1/165
f 443/1/443 198/1/198 6/1/6 166/1/166
f 442/1/442 199/1/199 7/1/7 167/1/167
f 441/1/441 200/1/200 8/1/8 168/1/168
f 440/1/440 201/1/201 9/1/9 169/1/169
f 439/1/439 202/1/202 10/1/10 170/1/170
f 438/1/438 203/1/203 11/1/11 171/1/171
f 437/1/437 204/1/204 12/1/12 172/1/172
f 436/1/436 205/1/205 13/1/13 173/1/173
f 435/1/435 206/1/206 14/1/14 174/1/174
f 434/1/434 207/1/207 15/1/15 175/1/175
f 433/1/433 208/1/208 16/1/16 176/1/176
f 432/1/432 209/1/209 17/1/17 177/1/177
f 431/1/431 210/1/210 18/1/18 178/1/178
f 430/1/430 211/1/211 19/1/19 179/1/179
f 429/1/429 212/1/212 20/1/20 180/1/180
f 428/1/428 213/1/213 21/1/21 181/1/181
f 427/1/427 214/1/214 22/1/22 182/1/182
f 426/1/426 215/1/215 23/1/23 183/1/183
f 425/1/425 216/1/216 24/1/24 184/1/184
f 424/1/424 217/1/217 25/1/25 185/1/185
f 423/1/423 218/1/218 26/1/26 186/1/186
f 422/1/422 219/1/219 27/1/27 187/1/187
f 421/1/421 220/1/220 28/1/28 188/1/188
f 420/1/420 221/1/221 29/1/29 189/1/189
f 419/1/419 222/1/222 30/1/30 190/1/190
f 418/1/418 223/1/223 31/1/31 191/1/191
f 417/1/417 224/1/224 32/1/32 192/1/192
f 416/1/416 258/1/258 66/1/66 129/1/129
f 415/1/415 257/1/257 65/1/65 130/1/130
f 414/1/414 259/1/259 67/1/67 131/1/131
f 413/1/413 260/1/260 68/1/68 132/1/132
f 412/1/412 261/1/261 69/1/69 133/1/133
f 411/1/411 262/1/262 70/1/70 134/1/134
f 410/1/410 263/1/263 71/1/71 135/1/135
f 409/1/409 264/1/264 72/1/72 136/1/136
f 408/1/408 265/1/265 73/1/73 137/1/137
f 407/1/407 266/1/266 74/1/74 138/1/138
f 406/1/406 267/1/267 75/1/75 139/1/139
f 405/1/405 268/1/268 76/1/76 140/1/140
f 404/1/404 269/1/269 77/1/77 141/1/141
f 403/1/403 270/1/270 78/1/78 142/1/142
f 402/1/402 271/1/271 79/1/79 143/1/143
f 401/1/401 272/1/272 80/1/80 144/1/144
f 400/1/400 273/1/273 81/1/81 145/1/145
f 399/1/399 274/1/274 82/1/82 146/1/146
f 398/1/398 275/1/275 83/1/83 147/1/147
f 397/1/397 276/1/276 84/1/84 148/1/148
f 396/1/396 277/1/277 85/1/85 149/1/149
f 395/1/395 278/1/278 86/1/86 150/1/150
f 394/1/394 279/1/279 87/1/87 151/1/151
f 393/1/393 280/1/280 88/1/88 152/1/152
f 392/1/392 281/1/281 89/1/89 153/1/153
f 391/1/391 282/1/282 90/1/90 154/1/154
f 390/1/390 283/1/283 91/1/91 155/1/155
f 389/1/389 284/1/284 92/1/92 156/1/156
f 388/1/388 285/1/285 93/1/93 157/1/157
f 387/1/387 286/1/286 94/1/94 158/1/158
f 386/1/386 287/1/287 95/1/95 159/1/159
f 385/1/385 288/1/288 96/1/96 160/1/160
f 384/1/384 322/1/322 98/1/98 225/1/225
f 383/1/383 321/1/321 97/1/97 226/1/226
f 382/1/382 323/1/323 99/1/99 227/1/227
f 381/1/381 324/1/324 100/1/100 228/1/228
f 380/1/380 325/1/325 101/1/101 229/1/229
f 379/1/379 326/1/326 102/1/102 230/1/230
f 378/1/378 327/1/327 103/1/103 231/1/231
f 377/1/377 328/1/328 104/1/104 232/1/232
f 376/1/376 329/1/329 105/1/105 233/1/233
f 375/1/375 330/1/330 106/1/106 234/1/234
f 374/1/374 331/1/331 107/1/107 235/1/235
f 373/1/373 332/1/332 108/1/108 236/1/236
f 372/1/372 333/1/333 109/1/109 237/1/237
f 371/1/371 334/1/334 110/1/110 238/1/238
f 370/1/370 335/1/335 111/1/111 239/1/239
f 369/1/369 336/1/336 112/1/112 240/1/240
f 368/1/368 337/1/337 113/1/113 241/1/241
f 367/1/367 338/1/338 114/1/114 242/1/242
f 366/1/366 339/1/339 115/1/115 243/1/243
f 365/1/365 340/1/340 116/1/116 244/1/244
f 364/1/364 341/1/341 117/1/117 245/1/245
f 363/1/363 342/1/342 118/1/118 246/1/246
f 362/1/362 343/1/343 119/1/119 247/1/247
f 361/1/361 344/1/344 120/1/120 248/1/248
f 360/1/360 345/1/345 121/1/121 249/1/249
f 359/1/359 346/1/346 122/1/122 250/1/250
f 358/1/358 347/1/347 123/1/123 251/1/251
f 357/1/357 348/1/348 124/1/124 252/1/252
f 356/1/356 349/1/349 125/1/125 253/1/253
f 355/1/355 350/1/350 126/1/126 254/1/254
f 354/1/354 351/1/351 127/1/127 255/1/255
f 353/1/353 352/1/352 128/1/128 256/1/256
f 322/1/322 353/1/353 256/1/256 98/1/98
f 34/1/34 320/1/320 353/1/353 322/1/322
f 320/1/320 64/1/64 352/1/352 353/1/353
f 352/1/352 354/1/354 255/1/255 128/1/128
f 64/1/64 319/1/319 354/1/354 352/1/352
f 319/1/319 63/1/63 351/1/351 354/1/354
f 351/1/351 355/1/355 254/1/254 127/1/127
f 63/1/63 318/1/318 355/1/355 351/1/351
f 318/1/318 62/1/62 350/1/350 355/1/355
f 350/1/350 356/1/356 253/1/253 126/1/126
f 62/1/62 317/1/317 356/1/356 350/1/350
f 317/1/317 61/1/61 349/1/349 356/1/356
f 349/1/349 357/1/357 252/1/252 125/1/125
f 61/1/61 316/1/316 357/1/357 349/1/349
f 316/1/316 60/1/60 348/1/348 357/1/357
f 348/1/348 358/1/358 251/1/251 124/1/124
f 60/1/60 315/1/315 358/1/358 348/1/348
f 315/1/315 59/1/59 347/1/347 358/1/358
f 347/1/347 359/1/359 250/1/250 123/1/123
f 59/1/59 314/1/314 359/1/359 347/1/347
f 314/1/314 58/1/58 346/1/346 359/1/359
f 346/1/346 360/1/360 249/1/249 122/1/122
f 58/1/58 313/1/313 360/1/360 346/1/346
f 313/1/313 57/1/57 345/1/345 360/1/360
f 345/1/345 361/1/361 248/1/248 121/1/121
f 57/1/57 312/1/312 361/1/361 345/1/345
f 312/1/312 56/1/56 344/1/344 361/1/361
f 344/1/344 362/1/362 247/1/247 120/1/120
f 56/1/56 311/1/311 362/1/362 344/1/344
f 311/1/311 55/1/55 343/1/343 362/1/362
f 343/1/343 363/1/363 246/1/246 119/1/119
f 55/1/55 310/1/310 363/1/363 343/1/343
f 310/1/310 54/1/54 342/1/342 363/1/363
f 342/1/342 364/1/364 245/1/245 118/1/118
f 54/1/54 309/1/309 364/1/364 342/1/342
f 309/1/309 53/1/53 341/1/341 364/1/364
f 341/1/341 365/1/365 244/1/244 117/1/117
f 53/1/53 308/1/308 365/1/365 341/1/341
f 308/1/308 52/1/52 340/1/340 365/1/365
f 340/1/340 366/1/366 243/1/243 116/1/116
f 52/1/52 307/1/307 366/1/366 340/1/340
f 307/1/307 51/1/51 339/1/339 366/1/366
f 339/1/339 367/1/367 242/1/242 115/1/115
f 51/1/51 306/1/306 367/1/367 339/1/339
f 306/1/306 50/1/50 338/1/338 367/1/367
f 338/1/338 368/1/368 241/1/241 114/1/114
f 50/1/50 305/1/305 368/1/368 338/1/338
f 305/1/305 49/1/49 337/1/337 368/1/368
f 337/1/337 369/1/369 240/1/240 113/1/113
f 49/1/49 304/1/304 369/1/369 337/1/337
f 304/1/304 48/1/48 336/1/336 369/1/369
f 336/1/336 370/1/370 239/1/239 112/1/112
f 48/1/48 303/1/303 370/1/370 336/1/336
f 303/1/303 47/1/47 335/1/335 370/1/370
f 335/1/335 371/1/371 238/1/238 111/1/111
f 47/1/47 302/1/302 371/1/371 335/1/335
f 302/1/302 46/1/46 334/1/334 371/1/371
f 334/1/334 372/1/372 237/1/237 110/1/110
f 46/1/46 301/1/301 372/1/372 334/1/334
f 301/1/301 45/1/45 333/1/333 372/1/372
f 333/1/333 373/1/373 236/1/236 109/1/109
f 45/1/45 300/1/300 373/1/373 333/1/333
f 300/1/300 44/1/44 332/1/332 373/1/373
f 332/1/332 374/1/374 235/1/235 108/1/108
f 44/1/44 299/1/299 374/1/374 332/1/332
f 299/1/299 43/1/43 331/1/331 374/1/374
f 331/1/331 375/1/375 234/1/234 107/1/107
f 43/1/43 298/1/298 375/1/375 331/1/331
f 298/1/298 42/1/42 330/1/330 375/1/375
f 330/1/330 376/1/376 233/1/233 106/1/106
f 42/1/42 297/1/297 376/1/376 330/1/330
f 297/1/297 41/1/41 329/1/329 376/1/376
f 329/1/329 377/1/377 232/1/232 105/1/105
f 41/1/41 296/1/296 377/1/377 329/1/329
f 296/1/296 40/1/40 328/1/328 377/1/377
f 328/1/328 378/1/378 231/1/231 104/1/104
f 40/1/40 295/1/295 378/1/378 328/1/328
f 295/1/295 39/1/39 327/1/327 378/1/378
f 327/1/327 379/1/379 230/1/230 103/1/103
f 39/1/39 294/1/294 379/1/379 327/1/327
f 294/1/294 38/1/38 326/1/326 379/1/379
f 326/1/326 380/1/380 229/1/229 102/1/102
f 38/1/38 293/1/293 380/1/380 326/1/326
f 293/1/293 37/1/37 325/1/325 380/1/380
f 325/1/325 381/1/381 228/1/228 101/1/101
f 37/1/37 292/1/292 381/1/381 325/1/325
f 292/1/292 36/1/36 324/1/324 381/1/381
f 324/1/324 382/1/382 227/1/227 100/1/100
f 36/1/36 291/1/291 382/1/382 324/1/324
f 291/1/291 35/1/35 323/1/323 382/1/382
f 323/1/323 383/1/383 226/1/226 99/1/99
f 35/1/35 290/1/290 383/1/383 323/1/323
f 290/1/290 33/1/33 321/1/321 383/1/383
f 321/1/321 384/1/384 225/1/225 97/1/97
f 33/1/33 289/1/289 384/1/384 321/1/321
f 289/1/289 34/1/34 322/1/322 384/1/384
f 258/1/258 385/1/385 160/1/160 66/1/66
f 98/1/98 256/1/256 385/1/385 258/1/258
f 256/1/256 128/1/128 288/1/288 385/1/385
f 288/1/288 386/1/386 159/1/159 96/1/96
f 128/1/128 255/1/255 386/1/386 288/1/288
f 255/1/255 127/1/127 287/1/287 386/1/386
f 287/1/287 387/1/387 158/1/158 95/1/95
f 127/1/127 254/1/254 387/1/387 287/1/287
f 254/1/254 126/1/126 286/1/286 387/1/387
f 286/1/286 388/1/388 157/1/157 94/1/94
f 126/1/126 253/1/253 388/1/388 286/1/286
f 253/1/253 125/1/125 285/1/285 388/1/388
f 285/1/285 389/1/389 156/1/156 93/1/93
f 125/1/125 252/1/252 389/1/389 285/1/285
f 252/1/252 124/1/124 284/1/284 389/1/389
f 284/1/284 390/1/390 155/1/155 92/1/92
f 124/1/124 251/1/251 390/1/390 284/1/284
f 251/1/251 123/1/123 283/1/283 390/1/390
f 283/1/283 391/1/391 154/1/154 91/1/91
f 123/1/123 250/1/250 391/1/391 283/1/283
f 250/1/250 122/1/122 282/1/282 391/1/391
f 282/1/282 392/1/392 153/1/153 90/1/90
f 122/1/122 249/1/249 392/1/392 282/1/282
f 249/1/249 121/1/121 281/1/281 392/1/392
f 281/1/281 393/1/393 152/1/152 89/1/89
f 121/1/121 248/1/248 393/1/393 281/1/281
f 248/1/248 120/1/120 280/1/280 393/1/393
f 280/1/280 394/1/394 151/1/151 88/1/88
f 120/1/120 247/1/247 394/1/394 280/1/280
f 247/1/247 119/1/119 279/1/279 394/1/394
f 279/1/279 395/1/395 150/1/150 87/1/87
f 119/1/119 246/1/246 395/1/395 279/1/279
f 246/1/246 118/1/118 278/1/278 395/1/395
f 278/1/278 396/1/396 149/1/149 86/1/86
f 118/1/118 245/1/245 396/1/396 278/1/278
f 245/1/245 117/1/117 277/1/277 396/1/396
f 277/1/277 397/1/397 148/1/148 85/1/85
f 117/1/117 244/1/244 397/1/397 277/1/277
f 244/1/244 116/1/116 276/1/276 397/1/397
f 276/1/276 398/1/398 147/1/147 84/1/84
f 116/1/116 243/1/243 398/1/398 276/1/276
f 243/1/243 115/1/115 275/1/275 398/1/398
f 275/1/275 399/1/399 146/1/146 83/1/83
f 115/1/115 242/1/242 399/1/399 275/1/275
f 242/1/242 114/1/114 274/1/274 399/1/399
f 274/1/274 400/1/400 145/1/145 82/1/82
f 114/1/114 241/1/241 400/1/400 274/1/274
f 241/1/241 113/1/113 273/1/273 400/1/400
f 273/1/273 401/1/401 144/1/144 81/1/81
f 113/1/113 240/1/240 401/1/401 273/1/273
f 240/1/240 112/1/112 272/1/272 401/1/401
f 272/1/272 402/1/402 143/1/143 80/1/80
f 112/1/112 239/1/239 402/1/402 272/1/272
f 239/1/239 111/1/111 271/1/271 402/1/402
f 271/1/271 403/1/403 142/1/142 79/1/79
f 111/1/111 238/1/238 403/1/403 271/1/271
f 238/1/238 110/1/110 270/1/270 403/1/403
f 270/1/270 404/1/404 141/1/141 78/1/78
f 110/1/110 237/1/237 404/1/404 270/1/270
f 237/1/237 109/1/109 269/1/269 404/1/404
f 269/1/269 405/1/405 140/1/140 77/1/77
f 109/1/109 236/1/236 405/1/405 269/1/269
f 236/1/236 108/1/108 268/1/268 405/1/405
f 268/1/268 406/1/406 139/1/139 76/1/76
f 108/1/108 235/1/235 406/1/406 268/1/268
f 235/1/235 107/1/107 267/1/267 406/1/406
f 267/1/267 407/1/407 138/1/138 75/1/75
f 107/1/107 234/1/234 407/1/407 267/1/267
f 234/1/234 106/1/106 266/1/266 407/1/407
f 266/1/266 408/1/408 137/1/137 74/1/74
f 106/1/106 233/1/233 408/1/408 266/1/266
f 233/1/233 105/1/105 265/1/265 408/1/408
f 265/1/265 409/1/409 136/1/136 73/1/73
f 105/1/105 232/1/232 409/1/409 265/1/265
f 232/1/232 104/1/104 264/1/264 409/1/409
f 264/1/264 410/1/410 135/1/135 72/1/72
f 104/1/104 231/1/231 410/1/410 264/1/264
f 231/1/231 103/1/103 263/1/263 410/1/410
f 263/1/263 411/1/411 134/1/134 71/1/71
f 103/1/103 230/1/230 411/1/411 263/1/263
f 230/1/230 102/1/102 262/1/262 411/1/411
f 262/1/262 412/1/412 133/1/133 70/1/70
f 102/1/102 229/1/229 412/1/412 262/1/262
f 229/1/229 101/1/101 261/1/261 412/1/412
f 261/1/261 413/1/413 132/1/132 69/1/69
f 101/1/101 228/1/228 413/1/413 261/1/261
f 228/1/228 100/1/100 260/1/260 413/1/413
f 260/1/260 414/1/414 131/1/131 68/1/68
f 100/1/100 227/1/227 414/1/414 260/1/260
f 227/1/227 99/1/99 259/1/259 414/1/414
f 259/1/259 415/1/415 130/1/130 67/1/67
f 99/1/99 226/1/226 415/1/415 259/1/259
f 226/1/226 97/1/97 257/1/257 415/1/415
f 257/1/257 416/1/416 129/1/129 65/1/65
f 97/1/97 225/1/225 416/1/416 257/1/257
f 225/1/225 98/1/98 258/1/258 416/1/416
f 194/1/194 417/1/417 192/1/192 1/1/1
f 66/1/66 160/1/160 417/1/417 194/1/194
f 160/1/160 96/1/96 224/1/224 417/1/417
f 224/1/224 418/1/418 191/1/191 32/1/32
f 96/1/96 159/1/159 418/1/418 224/1/224
f 159/1/159 95/1/95 223/1/223 418/1/418
f 223/1/223 419/1/419 190/1/190 31/1/31
f 95/1/95 158/1/158 419/1/419 223/1/223
f 158/1/158 94/1/94 222/1/222 419/1/419
f 222/1/222 420/1/420 189/1/189 30/1/30
f 94/1/94 157/1/157 420/1/420 222/1/222
f 157/1/157 93/1/93 221/1/221 420/1/420
f 221/1/221 421/1/421 188/1/188 29/1/29
f 93/1/93 156/1/156 421/1/421 221/1/221
f 156/1/156 92/1/92 220/1/220 421/1/421
f 220/1/220 422/1/422 187/1/187 28/1/28
f 92/1/92 155/1/155 422/1/422 220/1/220
f 155/1/155 91/1/91 219/1/219 422/1/422
f 219/1/219 423/1/423 186/1/186 27/1/27
f 91/1/91 154/1/154 423/1/423 219/1/219
f 154/1/154 90/1/90 218/1/218 423/1/423
f 218/1/218 424/1/424 185/1/185 26/1/26
f 90/1/90 153/1/153 424/1/424 218/1/218
f 153/1/153 89/1/89 217/1/217 424/1/424
f 217/1/217 425/1/425 184/1/184 25/1/25
f 89/1/89 152/1/152 425/1/425 217/1/217
f 152/1/152 88/1/88 216/1/216 425/1/425
f 216/1/216 426/1/426 183/1/183 24/1/24
f 88/1/88 151/1/151 426/1/426 216/1/216
f 151/1/151 87/1/87 215/1/215 426/1/426
f 215/1/215 427/1/427 182/1/182 23/1/23
f 87/1/87 150/1/150 427/1/427 215/1/215
f 150/1/150 86/1/86 214/1/214 427/1/427
f 214/1/214 428/1/428 181/1/181 22/1/22
f 86/1/86 149/1/149 428/1/428 214/1/214
f 149/1/149 85/1/85 213/1/213 428/1/428
f 213/1/213 429/1/429 180/1/180 21/1/21
f 85/1/85 148/1/148 429/1/429 213/1/213
f 148/1/148 84/1/84 212/1/212 429/1/429
f 212/1/212 430/1/430 179/1/179 20/1/20
f 84/1/84 147/1/147 430/1/430 212/1/212
f 147/1/147 83/1/83 211/1/211 430/1/430
f 211/1/211 431/1/431 178/1/178 19/1/19
f 83/1/83 146/1/146 431/1/431 211/1/211
f 146/1/146 82/1/82 210/1/210 431/1/431
f 210/1/210 432/1/432 177/1/177 18/1/18
f 82/1/82 145/1/145 432/1/432 210/1/210
f 145/1/145 81/1/81 209/1/209 432/1/432
f 209/1/209 433/1/433 176/1/176 17/1/17
f 81/1/81 144/1/144 433/1/433 209/1/209
f 144/1/144 80/1/80 208/1/208 433/1/433
f 208/1/208 434/1/434 175/1/175 16/1/16
f 80/1/80 143/1/143 434/1/434 208/1/208
f 143/1/143 79/1/79 207/1/207 434/1/434
f 207/1/207 435/1/435 174/1/174 15/1/15
f 79/1/79 142/1/142 435/1/435 207/1/207
f 142/1/142 78/1/78 206/1/206 435/1/435
f 206/1/206 436/1/436 173/1/173 14/1/14
f 78/1/78 141/1/141 436/1/436 206/1/206
f 141/1/141 77/1/77 205/1/205 436/1/436
f 205/1/205 437/1/437 172/1/172 13/1/13
f 77/1/77 140/1/140 437/1/437 205/1/205
f 140/1/140 76/1/76 204/1/204 437/1/437
f 204/1/204 438/1/438 171/1/171 12/1/12
f 76/1/76 139/1/139 438/1/438 204/1/204
f 139/1/139 75/1/75 203/1/203 438/1/438
f 203/1/203 439/1/439 170/1/170 11/1/11
f 75/1/75 138/1/138 439/1/439 203/1/203
f 138/1/138 74/1/74 202/1/202 439/1/439
f 202/1/202 440/1/440 169/1/169 10/1/10
f 74/1/74 137/1/137 440/1/440 202/1/202
f 137/1/137 73/1/73 201/1/201 440/1/440
f 201/1/201 441/1/441 168/1/168 9/1/9
f 73/1/73 136/1/136 441/1/441 201/1/201
f 136/1/136 72/1/72 200/1/200 441/1/441
f 200/1/200 442/1/442 167/1/167 8/1/8
f 72/1/72 135/1/135 442/1/442 200/1/200
f 135/1/135 71/1/71 199/1/199 442/1/442
f 199/1/199 443/1/443 166/1/166 7/1/7
f 71/1/71 134/1/134 443/1/443 199/1/199
f 134/1/134 70/1/70 198/1/198 443/1/443
f 198/1/198 444/1/444 165/1/165 6/1/6
f 70/1/70 133/1/133 444/1/444 198/1/198
f 133/1/133 69/1/69 197/1/197 444/1/444
f 197/1/197 445/1/445 164/1/164 5/1/5
f 69/1/69 132/1/132 445/1/445 197/1/197
f 132/1/132 68/1/68 196/1/196 445/1/445
f 196/1/196 446/1/446 163/1/163 4/1/4
f 68/1/68 131/1/131 446/1/446 196/1/196
f 131/1/131 67/1/67 195/1/195 446/1/446
f 195/1/195 447/1/447 162/1/162 3/1/3
f 67/1/67 130/1/130 447/1/447 195/1/195
f 130/1/130 65/1/65 193/1/193 447/1/447
f 193/1/193 448/1/448 161/1/161 2/1/2
f 65/1/65 129/1/129 448/1/448 193/1/193
f 129/1/129 66/1/66 194/1/194 448/1/448
