
v -266.653290 177.375061 527.054260
v -266.653290 197.530151 527.054260
v -266.653290 196.869995 527.054260
v -95.262238 177.375153 527.123474
v -114.532135 197.530151 527.054260
v -95.262238 196.870087 527.123474
v 56.858917 177.375153 527.123474
v 37.589035 197.530151 527.054260
v 56.858917 196.870087 527.123474
v 208.980072 177.375153 527.123474
v 189.710175 197.530151 527.054260
v 208.980072 196.870087 527.123474
v 361.101196 177.375153 527.123474
v 341.831329 197.530151 527.054260
v 361.101196 196.870087 527.123474
v 570.287842 177.375153 527.123474
v 570.287842 197.530243 527.123474
v 513.222351 196.870087 527.123474
v 570.287842 177.375137 374.192993
v 570.287842 197.530243 374.192993
v 513.222351 196.870056 374.192993
v 570.287842 177.375122 221.262466
v 570.287842 197.530212 221.262466
v 513.222351 196.870056 221.262466
v 570.287842 177.375122 68.331963
v 570.287842 197.530212 68.331963
v 513.222351 196.870026 68.331963
v 570.287842 177.375092 -84.598549
v 570.287842 197.530212 -84.598549
v 513.222351 196.870026 -84.598549
v 570.287842 177.375092 -237.529068
v 570.287842 197.530182 -237.529068
v 513.222351 196.870026 -237.529068
v 570.287842 177.375076 -390.459534
v 570.287842 197.530182 -390.459534
v 513.222351 196.869995 -390.459534
v 570.287842 177.375061 -543.390076
v 570.287842 197.530151 -543.390076
v 513.222351 196.869995 -543.390076
v 361.101196 177.375061 -543.390076
v 341.831329 197.530060 -543.459351
v 361.101196 196.869995 -543.390076
v 208.980072 177.375061 -543.390076
v 189.710175 197.530060 -543.459351
v 208.980072 196.869995 -543.390076
v 56.858917 177.375061 -543.390076
v 37.589035 197.530060 -543.459351
v 56.858917 196.869995 -543.390076
v -95.262238 177.375061 -543.390076
v -95.262238 197.530151 -543.390076
v -95.262238 196.869995 -543.390076
v -266.653290 177.374969 -543.459351
v -266.653290 197.530060 -543.459351
v -266.653290 196.869904 -543.459351
v -266.653290 177.374985 -390.528809
v -266.653290 197.530090 -390.528809
v -266.653290 196.869904 -390.528809
v -266.653290 177.375000 -237.598312
v -266.653290 197.530090 -237.598312
v -266.653290 196.869934 -237.598312
v -266.653290 177.375000 -84.667778
v -266.653290 197.530121 -84.667778
v -266.653290 196.869934 -84.667778
v -266.653290 177.375031 68.262726
v -266.653290 197.530121 68.262726
v -266.653290 196.869934 68.262726
v -266.653290 177.375031 221.193237
v -266.653290 197.530121 221.193237
v -266.653290 196.869965 221.193237
v -266.653290 177.375046 374.123718
v -266.653290 197.530151 374.123718
v -266.653290 196.869965 374.123718
v -95.262238 196.870056 374.192993
v -95.262238 196.870056 221.262466
v -95.262238 196.870026 68.331963
v -95.262238 196.870026 -84.598549
v -95.262238 196.870026 -237.529068
v -95.262238 196.869995 -390.459534
v 56.858917 196.870056 374.192993
v 56.858917 196.870056 221.262466
v 56.858917 196.870026 68.331963
v 56.858917 196.870026 -84.598549
v 56.858917 196.870026 -237.529068
v 56.858917 196.869995 -390.459534
v 208.980072 196.870056 374.192993
v 208.980072 196.870056 221.262466
v 208.980072 196.870026 68.331963
v 208.980072 196.870026 -84.598549
v 208.980072 196.870026 -237.529068
v 208.980072 196.869995 -390.459534
v 361.101196 196.870056 374.192993
v 361.101196 196.870056 221.262466
v 361.101196 196.870026 68.331963
v 361.101196 196.870026 -84.598549
v 361.101196 196.870026 -237.529068
v 361.101196 196.869995 -390.459534
v -95.262238 177.375076 -390.459534
v -95.262238 177.375092 -237.529068
v -95.262238 177.375092 -84.598549
v -95.262238 177.375122 68.331963
v -95.262238 177.375122 221.262466
v -95.262238 177.375137 374.192993
v 56.858917 177.375076 -390.459534
v 56.858917 177.375092 -237.529068
v 56.858917 177.375137 374.192993
v 208.980072 177.375076 -390.459534
v 208.980072 177.375092 -237.529068
v 208.980072 177.375092 -84.598549
v 208.980072 177.375122 68.331963
v 208.980072 177.375122 221.262466
v 189.710175 177.375046 374.123718
v 361.101196 177.375076 -390.459534
v 361.101196 177.375092 -237.529068
v 361.101196 177.375092 -84.598549
v 361.101196 177.375122 68.331963
v 361.101196 177.375122 221.262466
v 361.101196 177.375137 374.192993
vn -0.0001 0.0029 1.0000
vn -0.0001 0.0022 1.0000
vn -0.0002 0.0016 1.0000
vn -0.0000 0.0034 1.0000
vn -0.0000 0.0029 1.0000
vn 0.0002 -0.0501 -0.9987
vn -0.0000 -0.1035 -0.9946
vn 0.0002 -0.0493 -0.9988
vn -0.0000 -0.1043 -0.9945
vn -0.0000 -0.1036 -0.9946
vn 0.0002 -0.0583 -0.9983
vn 0.0002 -0.0576 -0.9983
vn 1.0000 -0.0000 -0.0000
vn -0.0116 0.9999 -0.0000
vn -0.0058 1.0000 -0.0000
vn 0.0001 -0.0022 -1.0000
vn -0.0000 -0.0029 -1.0000
vn 0.0002 -0.0016 -1.0000
vn -0.0000 -0.0034 -1.0000
vn -0.0001 -0.0029 -1.0000
vn -0.0002 -0.0023 -1.0000
vn 0.0001 -0.0009 -1.0000
vn 0.0004 -0.0000 -1.0000
vn -0.0000 0.1036 0.9946
vn -0.0002 0.0583 0.9983
vn -0.0002 0.0576 0.9983
vn -0.0000 0.1043 0.9945
vn 0.0002 0.0567 0.9984
vn -0.0001 0.0280 0.9996
vn -0.0004 -0.0000 1.0000
vn -1.0000 -0.0000 -0.0000
vn -0.0000 1.0000 -0.0000
vn -0.0000 -1.0000 -0.0000
vn -0.8961 0.4429 -0.0282
vn -0.9722 0.2336 -0.0149
vn -0.0002 0.0019 -1.0000
vn -0.0001 0.0009 -1.0000
vn -0.0000 -0.0000 -1.0000
vn 0.2186 -0.9518 -0.2151
vn -0.0000 -0.0000 1.0000
vt 0.200000 0.000000
vt 0.200000 0.500000
vt 0.000000 0.500000
vt 0.000000 0.000000
vt 0.400000 0.000000
vt 0.400000 0.500000
vt 0.600000 0.000000
vt 0.600000 0.500000
vt 0.800000 0.000000
vt 0.800000 0.500000
vt 1.000000 0.000000
vt 1.000000 0.500000
vt 0.200000 1.000000
vt 0.000000 1.000000
vt 0.400000 1.000000
vt 0.600000 1.000000
vt 0.800000 1.000000
vt 1.000000 1.000000
vt 0.142857 0.000000
vt 0.142857 0.500000
vt 0.285714 0.000000
vt 0.285714 0.500000
vt 0.428571 0.000000
vt 0.428571 0.500000
vt 0.571429 0.000000
vt 0.571429 0.500000
vt 0.714286 0.000000
vt 0.714286 0.500000
vt 0.857143 0.000000
vt 0.857143 0.500000
vt 0.142857 1.000000
vt 0.285714 1.000000
vt 0.428571 1.000000
vt 0.571429 1.000000
vt 0.714286 1.000000
vt 0.857143 1.000000
vt 0.200000 0.142857
vt 0.000000 0.142857
vt 0.400000 0.142857
vt 0.600000 0.142857
vt 0.800000 0.142857
vt 1.000000 0.142857
vt 0.200000 0.285714
vt 0.000000 0.285714
vt 0.400000 0.285714
vt 0.600000 0.285714
vt 0.800000 0.285714
vt 1.000000 0.285714
vt 0.200000 0.428571
vt 0.000000 0.428571
vt 0.400000 0.428571
vt 0.600000 0.428571
vt 0.800000 0.428571
vt 1.000000 0.428571
vt 0.200000 0.571429
vt 0.000000 0.571429
vt 0.400000 0.571429
vt 0.600000 0.571429
vt 0.800000 0.571429
vt 1.000000 0.571429
vt 0.200000 0.714286
vt 0.000000 0.714286
vt 0.400000 0.714286
vt 0.600000 0.714286
vt 0.800000 0.714286
vt 1.000000 0.714286
vt 0.200000 0.857143
vt 0.000000 0.857143
vt 0.400000 0.857143
vt 0.600000 0.857143
vt 0.800000 0.857143
vt 1.000000 0.857143
vt 0.250000 0.000000
s 1
usemtl default
f 4/1/1 5/2/2 2/3/3 1/4/3
f 7/5/4 8/6/4 5/2/2 4/1/1
f 10/7/4 11/8/4 8/6/4 7/5/4
f 13/9/2 14/10/5 11/8/4 10/7/4
f 16/11/3 17/12/3 14/10/5 13/9/2
f 5/2/6 6/13/7 3/14/8 2/3/8
f 8/6/9 9/15/9 6/13/7 5/2/6
f 11/8/9 12/16/9 9/15/9 8/6/9
f 14/10/10 15/17/11 12/16/9 11/8/9
f 17/12/12 18/18/12 15/17/11 14/10/10
f 19/19/13 20/20/13 17/3/13 16/4/13
f 22/21/13 23/22/13 20/20/13 19/19/13
f 25/23/13 26/24/13 23/22/13 22/21/13
f 28/25/13 29/26/13 26/24/13 25/23/13
f 31/27/13 32/28/13 29/26/13 28/25/13
f 34/29/13 35/30/13 32/28/13 31/27/13
f 37/11/13 38/12/13 35/30/13 34/29/13
f 20/20/14 21/31/15 18/14/15 17/3/14
f 23/22/14 24/32/15 21/31/15 20/20/14
f 26/24/14 27/33/15 24/32/15 23/22/14
f 29/26/14 30/34/15 27/33/15 26/24/14
f 32/28/14 33/35/15 30/34/15 29/26/14
f 35/30/14 36/36/15 33/35/15 32/28/14
f 38/12/14 39/18/15 36/36/15 35/30/14
f 40/1/16 41/2/17 38/3/18 37/4/18
f 43/5/19 44/6/19 41/2/17 40/1/16
f 46/7/20 47/8/21 44/6/19 43/5/19
f 49/9/22 50/10/22 47/8/21 46/7/20
f 52/11/23 53/12/23 50/10/22 49/9/22
f 41/2/24 42/13/25 39/14/26 38/3/26
f 44/6/27 45/15/27 42/13/25 41/2/24
f 47/8/28 48/16/24 45/15/27 44/6/27
f 50/10/29 51/17/29 48/16/24 47/8/28
f 53/12/30 54/18/30 51/17/29 50/10/29
f 55/19/31 56/20/31 53/3/31 52/4/31
f 58/21/31 59/22/31 56/20/31 55/19/31
f 61/23/31 62/24/31 59/22/31 58/21/31
f 64/25/31 65/26/31 62/24/31 61/23/31
f 67/27/31 68/28/31 65/26/31 64/25/31
f 70/29/31 71/30/31 68/28/31 67/27/31
f 1/11/31 2/12/31 71/30/31 70/29/31
f 56/20/13 57/31/13 54/14/13 53/3/13
f 59/22/13 60/32/13 57/31/13 56/20/13
f 62/24/13 63/33/13 60/32/13 59/22/13
f 65/26/13 66/34/13 63/33/13 62/24/13
f 68/28/13 69/35/13 66/34/13 65/26/13
f 71/30/13 72/36/13 69/35/13 68/28/13
f 2/12/13 3/18/13 72/36/13 71/30/13
f 6/1/32 73/37/32 72/38/32 3/4/32
f 9/5/32 79/39/32 73/37/32 6/1/32
f 12/7/32 85/40/32 79/39/32 9/5/32
f 15/9/32 91/41/32 85/40/32 12/7/32
f 18/11/15 21/42/15 91/41/32 15/9/32
f 73/37/32 74/43/32 69/44/32 72/38/32
f 79/39/32 80/45/32 74/43/32 73/37/32
f 85/40/32 86/46/32 80/45/32 79/39/32
f 91/41/32 92/47/32 86/46/32 85/40/32
f 21/42/15 24/48/15 92/47/32 91/41/32
f 74/43/32 75/49/32 66/50/32 69/44/32
f 80/45/32 81/51/32 75/49/32 74/43/32
f 86/46/32 87/52/32 81/51/32 80/45/32
f 92/47/32 93/53/32 87/52/32 86/46/32
f 24/48/15 27/54/15 93/53/32 92/47/32
f 75/49/32 76/55/32 63/56/32 66/50/32
f 81/51/32 82/57/32 76/55/32 75/49/32
f 87/52/32 88/58/32 82/57/32 81/51/32
f 93/53/32 94/59/32 88/58/32 87/52/32
f 27/54/15 30/60/15 94/59/32 93/53/32
f 76/55/32 77/61/32 60/62/32 63/56/32
f 82/57/32 83/63/32 77/61/32 76/55/32
f 88/58/32 89/64/32 83/63/32 82/57/32
f 94/59/32 95/65/32 89/64/32 88/58/32
f 30/60/15 33/66/15 95/65/32 94/59/32
f 77/61/32 78/67/32 57/68/32 60/62/32
f 83/63/32 84/69/32 78/67/32 77/61/32
f 89/64/32 90/70/32 84/69/32 83/63/32
f 95/65/32 96/71/32 90/70/32 89/64/32
f 33/66/15 36/72/15 96/71/32 95/65/32
f 78/67/32 51/13/32 54/14/32 57/68/32
f 84/69/32 48/15/32 51/13/32 78/67/32
f 90/70/32 45/16/32 48/15/32 84/69/32
f 96/71/32 42/17/32 45/16/32 90/70/32
f 36/72/15 39/18/15 42/17/32 96/71/32
f 49/1/33 97/37/33 55/38/33 52/4/33
f 46/5/33 103/39/33 97/37/33 49/1/33
f 43/7/33 106/40/33 103/39/33 46/5/33
f 40/9/33 112/41/33 106/40/33 43/7/33
f 37/11/33 34/42/33 112/41/33 40/9/33
f 97/37/33 98/43/33 58/44/33 55/38/33
f 103/39/33 104/45/33 98/43/33 97/37/33
f 106/40/33 107/46/33 104/45/33 103/39/33
f 112/41/33 113/47/33 107/46/33 106/40/33
f 34/42/33 31/48/33 113/47/33 112/41/33
f 98/43/33 99/49/33 61/50/33 58/44/33
f 116/65/33 117/71/33 111/70/33 110/64/33
f 22/66/33 19/72/33 117/71/33 116/65/33
f 113/47/33 114/53/33 108/52/33 107/46/33
f 31/48/33 28/54/33 114/53/33 113/47/33
f 99/49/33 100/55/33 64/56/33 61/50/33
f 102/67/33 4/13/33 1/14/33 70/68/33
f 105/69/33 7/15/33 4/13/33 102/67/33
f 114/53/33 115/59/33 109/58/33 108/52/33
f 28/54/33 25/60/33 115/59/33 114/53/33
f 100/55/33 101/61/33 67/62/33 64/56/33
f 111/70/33 10/16/33 7/15/33 105/69/33
f 117/71/33 13/17/33 10/16/33 111/70/33
f 115/59/33 116/65/33 110/64/33 109/58/33
f 25/60/33 22/66/33 116/65/33 115/59/33
f 101/61/33 102/67/33 70/68/33 67/62/33
f 19/72/33 16/18/33 13/17/33 117/71/33
f 111/4/34 85/11/34 87/18/35 109/14/35
f 111/4/36 105/11/37 79/18/37 85/14/36
f 105/4/37 102/11/38 73/18/38 79/14/37
f 102/14/39 98/18/13 77/11/13 74/73/13 73/4/13
f 109/4/35 87/11/35 89/18/31 107/14/31
f 77/4/40 98/11/40 107/18/40 89/14/40
