
v 0.521865 0.107918 0.532858
v 0.514543 0.107968 0.530895
v 0.509183 0.108005 0.525535
v 0.507221 0.108019 0.518213
v 0.509183 0.108005 0.510891
v 0.514543 0.107968 0.505530
v 0.521865 0.107918 0.503569
v 0.529187 0.107867 0.505530
v 0.534547 0.107830 0.510891
v 0.536510 0.107816 0.518213
v 0.534547 0.107830 0.525535
v 0.529187 0.107867 0.530895
v 0.513179 -0.070899 0.530896
v 0.507887 -0.070049 0.525535
v 0.505949 -0.069738 0.518213
v 0.507887 -0.070049 0.510891
v 0.513179 -0.070900 0.505530
v 0.527638 -0.073224 0.505531
v 0.532930 -0.074075 0.510891
v 0.534867 -0.074386 0.518213
v 0.532930 -0.074074 0.525535
v 0.527638 -0.073224 0.530896
v 0.517867 -0.080149 0.532858
v 0.511348 -0.076815 0.530896
v 0.506576 -0.074374 0.525535
v 0.504829 -0.073480 0.518213
v 0.506576 -0.074374 0.510891
v 0.511348 -0.076815 0.505531
v 0.517867 -0.080149 0.503569
v 0.524386 -0.083484 0.505531
v 0.529159 -0.085924 0.510891
v 0.530905 -0.086818 0.518214
v 0.529158 -0.085924 0.525536
v 0.524386 -0.083484 0.530896
v 0.505827 -0.075578 0.525535
v 0.504255 -0.074403 0.518213
v 0.505827 -0.075578 0.510891
v 0.526149 -0.090757 0.510891
v 0.527721 -0.091931 0.518214
v 0.526149 -0.090757 0.525536
v 0.511517 -0.087478 0.532858
v 0.507322 -0.081477 0.530896
v 0.504251 -0.077083 0.525535
v 0.503127 -0.075475 0.518213
v 0.504251 -0.077083 0.510891
v 0.507322 -0.081476 0.505531
v 0.511517 -0.087477 0.503569
v 0.515712 -0.093479 0.505531
v 0.518783 -0.097872 0.510891
v 0.519907 -0.099481 0.518213
v 0.518783 -0.097873 0.525535
v 0.515712 -0.093480 0.530896
v 0.502384 -0.078019 0.525535
v 0.501706 -0.076179 0.518213
v 0.502385 -0.078019 0.510891
v 0.511154 -0.101820 0.510891
v 0.511832 -0.103662 0.518213
v 0.511153 -0.101821 0.525535
v 0.502551 -0.091014 0.532858
v 0.501364 -0.083789 0.530896
v 0.500495 -0.078499 0.525535
v 0.500177 -0.076563 0.518213
v 0.500496 -0.078499 0.510891
v 0.501365 -0.083788 0.505530
v 0.502552 -0.091014 0.503569
v 0.503739 -0.098239 0.505530
v 0.504608 -0.103529 0.510890
v 0.504926 -0.105465 0.518213
v 0.504607 -0.103529 0.525535
v 0.503738 -0.098240 0.530895
v 0.495080 -0.103781 0.510891
v 0.494895 -0.105734 0.518213
v 0.495081 -0.103781 0.525535
v 0.493775 -0.083308 0.530896
v 0.495217 -0.078145 0.525535
v 0.495745 -0.076255 0.518213
v 0.495217 -0.078145 0.510891
v 0.493775 -0.083308 0.505531
v 0.489835 -0.097413 0.505531
v 0.488392 -0.102575 0.510891
v 0.487864 -0.104465 0.518214
v 0.488392 -0.102575 0.525536
v 0.489835 -0.097412 0.530896
v 0.487003 -0.088358 0.532858
v 0.490756 -0.082070 0.530896
v 0.493502 -0.077468 0.525535
v 0.494508 -0.075783 0.518213
v 0.493502 -0.077468 0.510891
v 0.490756 -0.082071 0.505531
v 0.487003 -0.088359 0.503569
v 0.483251 -0.094646 0.505531
v 0.480504 -0.099249 0.510891
v 0.479499 -0.100934 0.518214
v 0.480504 -0.099249 0.525536
v 0.483251 -0.094646 0.530896
v 0.488313 -0.079998 0.530896
v 0.492475 -0.076620 0.525535
v 0.493998 -0.075384 0.518213
v 0.492475 -0.076620 0.510891
v 0.488313 -0.079999 0.505531
v 0.476943 -0.089228 0.505531
v 0.472781 -0.092606 0.510891
v 0.471257 -0.093843 0.518213
v 0.472781 -0.092606 0.525536
v 0.476943 -0.089228 0.530896
v 0.480835 -0.081918 0.532858
v 0.487286 -0.078454 0.530896
v 0.492008 -0.075918 0.525535
v 0.493737 -0.074990 0.518213
v 0.492008 -0.075918 0.510891
v 0.487286 -0.078454 0.505531
v 0.480836 -0.081919 0.503569
v 0.474384 -0.085383 0.505531
v 0.469662 -0.087920 0.510891
v 0.467934 -0.088848 0.518213
v 0.469662 -0.087919 0.525535
v 0.474384 -0.085383 0.530896
v 0.485755 -0.073474 0.530896
v 0.491057 -0.072686 0.525535
v 0.492997 -0.072397 0.518213
v 0.491057 -0.072686 0.510891
v 0.485755 -0.073475 0.505531
v 0.471269 -0.075629 0.505531
v 0.465967 -0.076417 0.510891
v 0.464027 -0.076706 0.518213
v 0.465967 -0.076417 0.525535
v 0.471269 -0.075628 0.530896
v 0.478279 0.110758 0.532858
v 0.485601 0.110790 0.530896
v 0.490961 0.110812 0.525535
v 0.492923 0.110821 0.518213
v 0.490961 0.110812 0.510891
v 0.485601 0.110789 0.505530
v 0.478279 0.110758 0.503569
v 0.470956 0.110727 0.505531
v 0.465596 0.110703 0.510891
v 0.463634 0.110695 0.518213
v 0.465596 0.110703 0.525535
v 0.470956 0.110727 0.530896
v 0.521865 0.107918 0.492777
v 0.514543 0.107968 0.490816
v 0.509183 0.108005 0.485455
v 0.507221 0.108019 0.478133
v 0.509183 0.108005 0.470811
v 0.514543 0.107968 0.465451
v 0.521865 0.107918 0.463488
v 0.529187 0.107867 0.465451
v 0.534547 0.107830 0.470811
v 0.536510 0.107816 0.478133
v 0.534547 0.107830 0.485455
v 0.529187 0.107867 0.490816
v 0.513179 -0.070899 0.490816
v 0.507887 -0.070049 0.485456
v 0.505949 -0.069738 0.478133
v 0.507887 -0.070049 0.470811
v 0.513179 -0.070900 0.465451
v 0.527638 -0.073224 0.465451
v 0.532930 -0.074075 0.470811
v 0.534867 -0.074386 0.478133
v 0.532930 -0.074074 0.485456
v 0.527638 -0.073224 0.490816
v 0.517867 -0.080149 0.492778
v 0.511348 -0.076815 0.490816
v 0.506576 -0.074374 0.485456
v 0.504829 -0.073480 0.478133
v 0.506576 -0.074374 0.470811
v 0.511348 -0.076815 0.465451
v 0.517867 -0.080149 0.463489
v 0.524386 -0.083484 0.465451
v 0.529159 -0.085924 0.470811
v 0.530905 -0.086818 0.478133
v 0.529158 -0.085924 0.485456
v 0.524386 -0.083484 0.490816
v 0.505827 -0.075578 0.485456
v 0.504255 -0.074403 0.478133
v 0.505827 -0.075578 0.470811
v 0.526149 -0.090757 0.470811
v 0.527721 -0.091931 0.478133
v 0.526149 -0.090757 0.485456
v 0.511517 -0.087478 0.492778
v 0.507322 -0.081477 0.490816
v 0.504251 -0.077083 0.485456
v 0.503127 -0.075475 0.478133
v 0.504251 -0.077083 0.470811
v 0.507322 -0.081476 0.465451
v 0.511517 -0.087477 0.463489
v 0.515712 -0.093479 0.465451
v 0.518783 -0.097872 0.470811
v 0.519907 -0.099481 0.478133
v 0.518783 -0.097873 0.485456
v 0.515712 -0.093480 0.490816
v 0.502384 -0.078019 0.485456
v 0.501706 -0.076179 0.478133
v 0.502385 -0.078019 0.470811
v 0.511154 -0.101820 0.470811
v 0.511832 -0.103662 0.478133
v 0.511153 -0.101821 0.485455
v 0.502551 -0.091014 0.492777
v 0.501364 -0.083789 0.490816
v 0.500495 -0.078499 0.485455
v 0.500177 -0.076563 0.478133
v 0.500496 -0.078499 0.470811
v 0.501365 -0.083788 0.465451
v 0.502552 -0.091014 0.463488
v 0.503739 -0.098239 0.465450
v 0.504608 -0.103529 0.470811
v 0.504926 -0.105465 0.478133
v 0.504607 -0.103529 0.485455
v 0.503738 -0.098240 0.490816
v 0.495080 -0.103781 0.470811
v 0.494895 -0.105734 0.478133
v 0.495081 -0.103781 0.485456
v 0.493775 -0.083308 0.490816
v 0.495217 -0.078145 0.485456
v 0.495745 -0.076255 0.478133
v 0.495217 -0.078145 0.470811
v 0.493775 -0.083308 0.465451
v 0.489835 -0.097413 0.465451
v 0.488392 -0.102575 0.470811
v 0.487864 -0.104465 0.478133
v 0.488392 -0.102575 0.485456
v 0.489835 -0.097412 0.490816
v 0.487003 -0.088358 0.492778
v 0.490756 -0.082070 0.490816
v 0.493502 -0.077468 0.485456
v 0.494508 -0.075783 0.478133
v 0.493502 -0.077468 0.470811
v 0.490756 -0.082071 0.465451
v 0.487003 -0.088359 0.463489
v 0.483251 -0.094646 0.465451
v 0.480504 -0.099249 0.470811
v 0.479499 -0.100934 0.478133
v 0.480504 -0.099249 0.485456
v 0.483251 -0.094646 0.490816
v 0.488313 -0.079998 0.490816
v 0.492475 -0.076620 0.485456
v 0.493998 -0.075384 0.478133
v 0.492475 -0.076620 0.470811
v 0.488313 -0.079999 0.465451
v 0.476943 -0.089228 0.465451
v 0.472781 -0.092606 0.470811
v 0.471257 -0.093843 0.478133
v 0.472781 -0.092606 0.485456
v 0.476943 -0.089228 0.490816
v 0.480835 -0.081918 0.492778
v 0.487286 -0.078454 0.490816
v 0.492008 -0.075918 0.485456
v 0.493737 -0.074990 0.478133
v 0.492008 -0.075918 0.470811
v 0.487286 -0.078454 0.465451
v 0.480836 -0.081919 0.463489
v 0.474384 -0.085383 0.465451
v 0.469662 -0.087920 0.470811
v 0.467934 -0.088848 0.478133
v 0.469662 -0.087919 0.485456
v 0.474384 -0.085383 0.490816
v 0.485755 -0.073474 0.490816
v 0.491057 -0.072686 0.485456
v 0.492997 -0.072397 0.478133
v 0.491057 -0.072686 0.470811
v 0.485755 -0.073475 0.465451
v 0.471269 -0.075629 0.465451
v 0.465967 -0.076417 0.470811
v 0.464027 -0.076706 0.478133
v 0.465967 -0.076417 0.485456
v 0.471269 -0.075628 0.490816
v 0.478279 0.110758 0.492778
v 0.485601 0.110790 0.490816
v 0.490961 0.110812 0.485456
v 0.492923 0.110821 0.478133
v 0.490961 0.110812 0.470811
v 0.485601 0.110789 0.465451
v 0.478279 0.110758 0.463489
v 0.470956 0.110727 0.465451
v 0.465596 0.110703 0.470811
v 0.463634 0.110695 0.478133
v 0.465596 0.110703 0.485456
v 0.470956 0.110727 0.490816
vn 0.0046 0.6532 0.7572
vn -0.3740 0.6559 0.6557
vn -0.5228 0.0626 0.8501
vn -0.4418 0.2044 0.8735
vn -0.2791 0.3942 0.8756
vn 0.0170 -0.0234 0.9996
vn 0.0284 -0.0129 0.9995
vn -0.8649 -0.0993 -0.4920
vn -0.9934 -0.1144 -0.0000
vn -0.7593 0.6507 -0.0000
vn -0.6580 0.6512 -0.3783
vn -0.9932 0.1160 -0.0000
vn -0.7527 0.6584 -0.0000
vn -0.6512 0.6578 -0.3785
vn -0.8557 0.1004 -0.5077
vn -0.8557 0.1005 -0.5077
vn -0.6512 0.6578 -0.3784
vn -0.3740 0.6559 -0.6557
vn -0.5228 0.0626 -0.8502
vn 0.0046 0.6531 -0.7572
vn 0.0284 -0.0130 -0.9995
vn 0.0171 -0.0234 -0.9996
vn -0.2791 0.3943 -0.8756
vn -0.4418 0.2044 -0.8735
vn 0.9942 0.1078 -0.0000
vn 0.8565 0.0938 -0.5076
vn 0.6540 0.6548 -0.3789
vn 0.7557 0.6549 -0.0000
vn -0.1105 0.8540 0.5084
vn -0.1252 0.9921 -0.0000
vn 0.2623 0.9650 -0.0000
vn 0.2314 0.8302 0.5072
vn 0.8641 -0.1048 -0.4922
vn 0.6608 0.6480 -0.3786
vn 0.7624 0.6471 -0.0000
vn 0.9927 -0.1208 -0.0000
vn -0.6511 0.6579 0.3785
vn -0.8557 0.1005 0.5077
vn -0.0321 -0.0154 -0.9994
vn -0.0024 0.6532 -0.7572
vn 0.3764 0.6542 -0.6560
vn 0.5182 0.0606 -0.8531
vn 0.4368 0.2091 -0.8749
vn -0.8913 0.4534 -0.0000
vn -0.7685 0.3915 -0.5062
vn 0.3581 -0.9337 -0.0000
vn 0.5495 -0.8355 -0.0000
vn 0.4779 -0.7272 0.4927
vn 0.3117 -0.8128 0.4922
vn 0.4898 -0.0648 0.8694
vn 0.3833 0.6503 0.6559
vn 0.4595 -0.2194 0.8606
vn -0.4418 0.2043 -0.8735
vn -0.7659 -0.4121 -0.4935
vn -0.8806 -0.4738 -0.0000
vn -0.8649 -0.0992 -0.4920
vn 0.6967 -0.5200 -0.4941
vn 0.7738 -0.3963 -0.4941
vn 0.8901 -0.4558 -0.0000
vn 0.8014 -0.5982 -0.0000
vn 0.6664 0.5464 -0.5073
vn 0.3642 0.3228 -0.8736
vn 0.7608 0.4052 -0.5070
vn 0.6967 -0.5200 0.4941
vn 0.7738 -0.3963 0.4941
vn 0.2934 -0.4196 0.8590
vn 0.4779 -0.7273 0.4926
vn -0.3847 -0.3322 -0.8612
vn -0.6757 -0.5478 -0.4934
vn -0.4567 -0.2278 -0.8600
vn -0.4654 0.7250 -0.5077
vn -0.5360 0.8442 -0.0000
vn -0.7997 0.6005 -0.0000
vn -0.6900 0.5172 -0.5063
vn -0.4654 0.7250 0.5077
vn -0.6900 0.5173 0.5063
vn 0.0715 -0.5089 0.8579
vn 0.1224 -0.8620 0.4920
vn -0.0024 0.6532 0.7572
vn 0.3764 0.6542 0.6560
vn 0.6541 0.6548 0.3788
vn -0.3809 0.6521 -0.6555
vn -0.6579 0.6512 0.3783
vn -0.3809 0.6521 0.6555
vn 0.4368 0.2091 0.8749
vn 0.3642 0.3229 0.8736
vn 0.6664 0.5464 0.5073
vn 0.7608 0.4052 0.5070
vn -0.3010 0.8072 0.5078
vn -0.3461 0.9382 -0.0000
vn -0.7768 -0.6298 -0.0000
vn -0.6756 -0.5477 0.4934
vn -0.7659 -0.4121 0.4935
vn 0.1123 0.4824 0.8687
vn -0.0485 0.4815 0.8751
vn -0.7684 0.3916 0.5061
vn -0.0485 0.4815 -0.8751
vn -0.1105 0.8540 -0.5084
vn -0.3008 0.8072 -0.5078
vn -0.3009 0.8072 -0.5078
vn 0.4039 0.7606 0.5082
vn 0.2492 0.4118 0.8765
vn -0.2846 -0.9587 -0.0000
vn -0.2477 -0.8345 0.4922
vn -0.4243 -0.7600 0.4923
vn -0.4878 -0.8729 -0.0000
vn -0.0179 -0.0296 -0.9994
vn 0.0042 -0.0281 -0.9996
vn 0.0715 -0.5089 -0.8579
vn -0.1392 -0.4843 -0.8638
vn -0.2638 -0.4395 -0.8586
vn -0.4243 -0.7601 -0.4922
vn -0.2791 0.3943 0.8756
vn 0.4040 0.7606 -0.5082
vn 0.2315 0.8301 -0.5072
vn 0.1123 0.4824 -0.8687
vn 0.2493 0.4118 -0.8765
vn 0.4551 0.8904 -0.0000
vn 0.2493 0.4118 0.8765
vn 0.7684 0.6400 -0.0000
vn 0.8837 0.4681 -0.0000
vn -0.2477 -0.8345 -0.4922
vn -0.0486 0.4815 -0.8751
vn 0.1224 -0.8620 -0.4920
vn 0.1409 -0.9900 -0.0000
vn -0.0761 -0.9971 -0.0000
vn -0.0662 -0.8677 -0.4927
vn 0.3117 -0.8128 -0.4922
vn 0.1224 -0.8619 -0.4920
vn -0.2638 -0.4395 0.8586
vn -0.3847 -0.3322 0.8612
vn -0.0321 -0.0154 0.9994
vn -0.0179 -0.0296 0.9994
vn 0.0042 -0.0282 -0.9996
vn -0.0662 -0.8677 0.4927
vn -0.2476 -0.8345 0.4922
vn 0.8565 0.0938 0.5076
vn -0.6756 -0.5478 -0.4934
vn 0.8643 -0.1048 0.4920
vn -0.8649 -0.0992 0.4920
vn -0.4567 -0.2278 0.8600
vn -0.4911 -0.0635 0.8688
vn 0.5182 0.0605 0.8531
vn 0.6539 0.6548 0.3790
vn 0.6608 0.6481 0.3787
vn 0.2315 0.8302 -0.5072
vn -0.6579 0.6512 -0.3783
vn -0.8557 0.1004 0.5077
vn 0.4898 -0.0648 -0.8694
vn 0.3834 0.6503 -0.6558
vn -0.1392 -0.4843 0.8638
vn 0.4779 -0.7272 -0.4927
vn 0.3117 -0.8127 -0.4922
vn -0.1392 -0.4843 0.8637
vn 0.6607 0.6481 0.3787
vn 0.3833 0.6503 -0.6559
vn 0.2934 -0.4196 -0.8590
vn -0.3460 0.9382 -0.0000
vn 0.4779 -0.7273 -0.4926
vn 0.0715 -0.5089 0.8578
vn 0.8641 -0.1047 0.4922
vn -0.1392 -0.4843 -0.8637
vn 0.4595 -0.2194 -0.8606
vn -0.4911 -0.0635 -0.8688
vn -0.2638 -0.4396 -0.8586
vn 0.5182 0.0605 -0.8531
vn 0.0042 -0.0282 0.9996
vn 0.0284 -0.0130 0.9995
vt 0.218642 0.301271
vt 0.222794 0.301312
vt 0.222767 0.412652
vt 0.223848 0.416347
vt 0.226264 0.419278
vt 0.223978 0.422963
vt 0.220167 0.418355
vt 0.092920 0.649890
vt 0.089055 0.649268
vt 0.085526 0.539349
vt 0.089391 0.540139
vt 0.358051 0.643510
vt 0.358330 0.539516
vt 0.362162 0.540466
vt 0.361888 0.644630
vt 0.474447 0.412346
vt 0.475465 0.301503
vt 0.479201 0.301546
vt 0.478139 0.412896
vt 0.398329 0.412896
vt 0.399391 0.301546
vt 0.404068 0.301590
vt 0.401369 0.418663
vt 0.397439 0.423220
vt 0.394700 0.419475
vt 0.397192 0.416576
vt 0.246892 0.544059
vt 0.251608 0.543890
vt 0.251377 0.658124
vt 0.246658 0.658119
vt 0.753881 0.406294
vt 0.758439 0.406427
vt 0.758439 0.409172
vt 0.753881 0.409563
vt 0.138913 0.652726
vt 0.137152 0.539495
vt 0.141870 0.539419
vt 0.143631 0.652836
vt 0.349333 0.539997
vt 0.353635 0.539344
vt 0.353360 0.643508
vt 0.349071 0.644624
vt 0.458312 0.419734
vt 0.456969 0.299784
vt 0.461334 0.299765
vt 0.461203 0.414475
vt 0.462143 0.417577
vt 0.358286 0.645487
vt 0.362162 0.646912
vt 0.688446 0.394614
vt 0.693543 0.394243
vt 0.692871 0.398596
vt 0.688055 0.398946
vt 0.214000 0.413993
vt 0.213925 0.301268
vt 0.215920 0.420403
vt 0.477002 0.416576
vt 0.473632 0.415037
vt 0.035865 0.657380
vt 0.031968 0.657176
vt 0.032565 0.649268
vt 0.036429 0.649890
vt 0.192744 0.663140
vt 0.193192 0.660119
vt 0.197884 0.660592
vt 0.197410 0.663788
vt 0.304615 0.541442
vt 0.308529 0.539344
vt 0.308698 0.540304
vt 0.304692 0.541879
vt 0.293466 0.424971
vt 0.291666 0.421941
vt 0.295341 0.420403
vt 0.300546 0.426688
vt 0.297893 0.429453
vt 0.375933 0.424275
vt 0.372933 0.426358
vt 0.371014 0.423438
vt 0.374358 0.421879
vt 0.762997 0.453103
vt 0.758439 0.453748
vt 0.758439 0.453011
vt 0.762997 0.452073
vt 0.143109 0.660592
vt 0.147198 0.659967
vt 0.146750 0.662989
vt 0.142634 0.663788
vt 0.753881 0.403912
vt 0.753881 0.402882
vt 0.758439 0.403820
vt 0.758439 0.404557
vt 0.762997 0.403912
vt 0.762997 0.402882
vt 0.474510 0.419475
vt 0.472194 0.416722
vt 0.473168 0.415786
vt 0.223074 0.431966
vt 0.218473 0.429453
vt 0.221126 0.426688
vt 0.228354 0.429737
vt 0.227030 0.433076
vt 0.750543 0.031215
vt 0.750546 0.026501
vt 0.752908 0.022419
vt 0.756996 0.020062
vt 0.761715 0.020062
vt 0.765800 0.022418
vt 0.768157 0.026501
vt 0.768154 0.031215
vt 0.765793 0.035297
vt 0.761705 0.037654
vt 0.756986 0.037654
vt 0.752900 0.035297
vt 0.317832 0.417542
vt 0.317203 0.418495
vt 0.313926 0.416416
vt 0.314211 0.415982
vt 0.753881 0.405104
vt 0.758439 0.405464
vt 0.031358 0.660777
vt 0.026728 0.659963
vt 0.027301 0.656584
vt 0.750543 0.459823
vt 0.750544 0.455121
vt 0.753881 0.455485
vt 0.753881 0.458754
vt 0.353635 0.645789
vt 0.698535 0.393556
vt 0.697577 0.397948
vt 0.392384 0.416722
vt 0.391019 0.420909
vt 0.390063 0.417600
vt 0.391230 0.417303
vt 0.762997 0.405104
vt 0.762997 0.406294
vt 0.234459 0.420516
vt 0.232837 0.417345
vt 0.233879 0.416936
vt 0.236294 0.419767
vt 0.673517 0.394628
vt 0.673878 0.398958
vt 0.669027 0.398626
vt 0.668372 0.394275
vt 0.382302 0.423748
vt 0.391899 0.425414
vt 0.392467 0.429907
vt 0.383883 0.429381
vt 0.379822 0.427653
vt 0.378502 0.419734
vt 0.300131 0.544059
vt 0.304847 0.543890
vt 0.304615 0.658124
vt 0.299896 0.658119
vt 0.664334 0.388971
vt 0.669027 0.389613
vt 0.663365 0.393589
vt 0.411266 0.643510
vt 0.411546 0.539516
vt 0.415378 0.540466
vt 0.415103 0.644630
vt 0.238412 0.417541
vt 0.237783 0.418495
vt 0.234506 0.416415
vt 0.234791 0.415982
vt 0.403542 0.649689
vt 0.402670 0.647737
vt 0.406850 0.645789
vt 0.407011 0.646350
vt 0.407353 0.646926
vt 0.465556 0.416952
vt 0.466614 0.417375
vt 0.466143 0.420604
vt 0.464281 0.419831
vt 0.758439 0.409926
vt 0.753881 0.410607
vt 0.313879 0.420516
vt 0.312258 0.417345
vt 0.313299 0.416936
vt 0.315714 0.419767
vt 0.295909 0.541854
vt 0.295832 0.541417
vt 0.299968 0.542201
vt 0.300011 0.542446
vt 0.673878 0.389945
vt 0.670815 0.385890
vt 0.674864 0.386166
vt 0.470829 0.420909
vt 0.469873 0.417600
vt 0.471040 0.417303
vt 0.683953 0.443424
vt 0.684117 0.448113
vt 0.677871 0.448113
vt 0.678020 0.443424
vt 0.688056 0.389933
vt 0.684117 0.394765
vt 0.683953 0.390076
vt 0.462775 0.418539
vt 0.464923 0.416423
vt 0.758439 0.410229
vt 0.762997 0.410607
vt 0.762997 0.411217
vt 0.753881 0.411217
vt 0.384471 0.419831
vt 0.382965 0.418539
vt 0.385113 0.416423
vt 0.385746 0.416952
vt 0.083219 0.659963
vt 0.081705 0.665422
vt 0.077898 0.662990
vt 0.079135 0.658535
vt 0.322005 0.419725
vt 0.318239 0.423689
vt 0.035293 0.660759
vt 0.246729 0.542201
vt 0.251377 0.541442
vt 0.251454 0.541879
vt 0.246772 0.542446
vt 0.358409 0.645917
vt 0.353796 0.646350
vt 0.471709 0.425414
vt 0.462112 0.423748
vt 0.477249 0.423220
vt 0.673878 0.443294
vt 0.673517 0.447976
vt 0.678020 0.452436
vt 0.673878 0.452306
vt 0.688446 0.447962
vt 0.693543 0.447591
vt 0.692871 0.451944
vt 0.688055 0.452294
vt 0.296064 0.543865
vt 0.242825 0.543865
vt 0.242670 0.541854
vt 0.091783 0.660759
vt 0.087849 0.660777
vt 0.088459 0.657176
vt 0.092356 0.657380
vt 0.147695 0.652575
vt 0.084355 0.649094
vt 0.083792 0.656584
vt 0.079604 0.655763
vt 0.080078 0.649415
vt 0.080827 0.539344
vt 0.076552 0.540125
vt 0.240334 0.299765
vt 0.239363 0.414453
vt 0.235383 0.413977
vt 0.236315 0.299765
vt 0.145934 0.539344
vt 0.386804 0.417375
vt 0.386333 0.420604
vt 0.029035 0.539349
vt 0.032900 0.540139
vt 0.308947 0.543402
vt 0.308725 0.658113
vt 0.328623 0.299911
vt 0.327545 0.415899
vt 0.325612 0.421948
vt 0.324471 0.299819
vt 0.394637 0.412346
vt 0.395655 0.301503
vt 0.193688 0.652726
vt 0.191928 0.539495
vt 0.196646 0.539419
vt 0.198406 0.652836
vt 0.406850 0.539344
vt 0.406575 0.643508
vt 0.402548 0.539997
vt 0.402286 0.644624
vt 0.209906 0.301306
vt 0.210018 0.414538
vt 0.762997 0.409563
vt 0.134806 0.652276
vt 0.133043 0.539551
vt 0.232798 0.433302
vt 0.236778 0.429323
vt 0.236854 0.432600
vt 0.692871 0.442931
vt 0.688056 0.443281
vt 0.080093 0.668970
vt 0.076552 0.665945
vt 0.639028 0.720267
vt 0.639029 0.715549
vt 0.641384 0.711460
vt 0.645464 0.709098
vt 0.650176 0.709093
vt 0.654256 0.711449
vt 0.656611 0.715533
vt 0.656611 0.720252
vt 0.654255 0.724341
vt 0.650175 0.726704
vt 0.645464 0.726708
vt 0.641384 0.724352
vt 0.683952 0.452437
vt 0.691036 0.439213
vt 0.683503 0.439628
vt 0.677871 0.394765
vt 0.683952 0.399089
vt 0.678020 0.399089
vt 0.753881 0.454295
vt 0.758439 0.454655
vt 0.758439 0.455618
vt 0.411501 0.645487
vt 0.415378 0.646912
vt 0.692871 0.389583
vt 0.697577 0.388936
vt 0.753881 0.453103
vt 0.753881 0.452073
vt 0.750543 0.405930
vt 0.750543 0.402150
vt 0.758439 0.452624
vt 0.762997 0.451568
vt 0.758439 0.403433
vt 0.762997 0.402377
vt 0.758439 0.459117
vt 0.758439 0.458363
vt 0.762997 0.458754
vt 0.762997 0.459798
vt 0.137968 0.663140
vt 0.138416 0.660119
vt 0.312218 0.433302
vt 0.306450 0.433076
vt 0.307774 0.429737
vt 0.316198 0.429323
vt 0.316274 0.432600
vt 0.255291 0.539344
vt 0.255460 0.540304
vt 0.762998 0.454295
vt 0.762998 0.455485
vt 0.289326 0.301306
vt 0.293345 0.301268
vt 0.293420 0.413994
vt 0.289438 0.414538
vt 0.674864 0.439514
vt 0.393358 0.415786
vt 0.393822 0.415037
vt 0.187818 0.664937
vt 0.189154 0.658677
vt 0.191594 0.667602
vt 0.133043 0.664937
vt 0.134379 0.658677
vt 0.136819 0.667602
vt 0.452257 0.415804
vt 0.448556 0.416274
vt 0.448556 0.299786
vt 0.452292 0.299792
vt 0.691036 0.385865
vt 0.683503 0.386279
vt 0.766334 0.405930
vt 0.766334 0.410632
vt 0.483878 0.301590
vt 0.481179 0.418663
vt 0.678019 0.390076
vt 0.455743 0.424275
vt 0.452743 0.426358
vt 0.450824 0.423438
vt 0.454168 0.421879
vt 0.302494 0.431966
vt 0.349455 0.647737
vt 0.753881 0.459798
vt 0.758439 0.459420
vt 0.753881 0.460409
vt 0.023603 0.668970
vt 0.020062 0.665945
vt 0.021408 0.662990
vt 0.025215 0.665422
vt 0.669027 0.451974
vt 0.668372 0.447623
vt 0.669027 0.442961
vt 0.663365 0.446937
vt 0.664334 0.442319
vt 0.319754 0.299765
vt 0.318783 0.414453
vt 0.314803 0.413977
vt 0.315736 0.299765
vt 0.411624 0.645917
vt 0.670815 0.439238
vt 0.242594 0.541417
vt 0.750544 0.451341
vt 0.201974 0.659967
vt 0.201525 0.662989
vt 0.214046 0.424971
vt 0.212246 0.421941
vt 0.350327 0.649689
vt 0.354138 0.646926
vt 0.372447 0.415804
vt 0.368746 0.416274
vt 0.202470 0.652575
vt 0.377159 0.299784
vt 0.381524 0.299765
vt 0.381393 0.414475
vt 0.382333 0.417577
vt 0.189582 0.652276
vt 0.187818 0.539551
vt 0.242594 0.658099
vt 0.295832 0.658099
vt 0.255709 0.543402
vt 0.255486 0.658113
vt 0.368746 0.299786
vt 0.372482 0.299792
vt 0.027865 0.649094
vt 0.024336 0.539344
vt 0.023588 0.649415
vt 0.020062 0.540125
vt 0.762997 0.460409
vt 0.698535 0.446904
vt 0.697577 0.451296
vt 0.592469 0.726703
vt 0.587758 0.726708
vt 0.583678 0.724352
vt 0.581322 0.720267
vt 0.581323 0.715549
vt 0.583678 0.711460
vt 0.587759 0.709097
vt 0.592470 0.709093
vt 0.596550 0.711449
vt 0.598905 0.715533
vt 0.598905 0.720252
vt 0.596549 0.724340
vt 0.697577 0.442284
vt 0.022644 0.658535
vt 0.023114 0.655763
vt 0.752908 0.080135
vt 0.756996 0.077777
vt 0.761715 0.077777
vt 0.765800 0.080134
vt 0.768157 0.084216
vt 0.768154 0.088930
vt 0.765793 0.093013
vt 0.761705 0.095370
vt 0.756986 0.095370
vt 0.752901 0.093013
vt 0.750543 0.088931
vt 0.750546 0.084217
vt 0.029743 0.666604
vt 0.238819 0.423689
vt 0.229390 0.425229
vt 0.229861 0.420760
vt 0.408433 0.301622
vt 0.407254 0.414355
vt 0.405234 0.420739
vt 0.399866 0.426954
vt 0.242585 0.419725
vt 0.308811 0.425229
vt 0.303398 0.422963
vt 0.305684 0.419278
vt 0.309281 0.420760
vt 0.299587 0.418355
vt 0.459632 0.427653
vt 0.457504 0.430500
vt 0.324045 0.424322
vt 0.320199 0.427649
vt 0.485044 0.420739
vt 0.479676 0.426954
vt 0.472277 0.429907
vt 0.766334 0.455121
vt 0.766334 0.459823
vt 0.245051 0.299819
vt 0.488243 0.301622
vt 0.487064 0.414355
vt 0.298062 0.301271
vt 0.249202 0.299911
vt 0.248125 0.415899
vt 0.246192 0.421948
vt 0.377694 0.430500
vt 0.244625 0.424322
vt 0.240778 0.427649
vt 0.200709 0.539344
vt 0.750543 0.410632
vt 0.463693 0.429381
vt 0.302214 0.301312
vt 0.302188 0.412652
vt 0.303268 0.416347
vt 0.086234 0.666604
s 1
usemtl tube
f 140/1/1 141/2/2 152/3/3 163/4/4 181/5/5 180/6/6 162/7/7
f 124/8/8 125/9/9 137/10/10 136/11/11
f 154/12/12 143/13/13 144/14/14 155/15/15
f 16/16/16 5/17/17 6/18/18 17/19/19
f 156/20/19 145/21/18 146/22/20 168/23/21 186/24/22 185/25/23 167/26/24
f 259/27/25 260/28/26 271/29/27 270/30/28
f 61/31/29 62/32/30 76/33/31 75/34/32
f 158/35/33 148/36/34 149/37/35 159/38/36
f 141/39/2 142/40/37 153/41/38 152/42/3
f 112/43/39 134/44/40 133/45/41 122/46/42 111/47/43
f 165/48/44 154/12/12 155/15/15 166/49/45
f 196/50/46 189/51/47 190/52/48 197/53/49
f 161/54/50 151/55/51 140/1/1 162/7/7 173/56/52
f 17/19/19 28/57/53 27/58/45 16/16/16
f 253/59/54 254/60/55 264/61/9 263/62/56
f 38/63/57 31/64/58 32/65/59 39/66/60
f 99/67/61 100/68/62 111/69/43 110/70/63
f 40/71/64 33/72/65 34/73/52 52/74/66 51/75/67
f 240/76/68 241/77/69 253/78/54 252/79/70
f 184/80/71 183/81/72 175/82/73 176/83/74
f 171/84/59 172/85/65 179/86/64 178/87/60
f 43/88/75 35/89/76 36/90/73 44/91/72
f 45/92/71 44/91/72 36/90/73 37/93/74
f 28/57/53 46/94/23 45/95/71 37/96/74 27/58/45
f 197/97/49 190/98/48 191/99/66 209/100/77 208/101/78
f 128/102/79 129/103/80 130/104/81 131/105/28 132/106/27 133/107/41 134/108/40 135/109/82 136/110/11 137/111/10 138/112/83 139/113/84
f 107/114/85 96/115/86 97/116/87 108/117/88
f 53/118/89 43/88/75 44/91/72 54/119/90
f 254/60/55 242/120/91 243/121/92 255/122/93
f 213/123/94 199/124/95 200/125/29 214/126/32
f 165/48/44 164/127/96 153/41/38 154/12/12
f 189/51/47 178/128/60 179/129/64 190/52/48
f 184/130/71 185/25/23 203/131/97 202/132/98 194/133/99
f 54/119/90 55/134/100 63/135/98 62/32/30
f 213/136/94 214/137/32 225/138/101 224/139/102
f 220/140/103 221/141/104 233/142/105 232/143/106
f 229/144/107 204/145/108 205/146/109 218/147/110 230/148/111 240/76/68 252/79/70 251/149/39
f 120/150/25 121/151/26 132/152/27 131/153/28
f 241/154/69 231/155/112 232/143/106 242/156/91
f 15/157/12 4/158/13 5/159/17 16/160/16
f 246/161/85 235/162/86 236/163/87 247/164/88
f 42/165/113 24/166/4 25/167/96 35/168/76 43/169/75
f 88/170/114 77/171/115 78/172/116 89/173/117
f 75/34/32 76/33/31 87/174/118 86/175/101
f 74/176/94 75/177/32 86/178/101 85/179/119
f 108/180/88 97/181/87 98/182/120 109/183/121
f 231/155/112 219/184/122 220/140/103 232/143/106
f 230/185/111 218/186/110 219/184/122 231/155/112
f 45/95/71 46/94/23 64/187/123 63/188/98 55/189/100
f 67/190/124 68/191/125 72/192/126 71/193/127
f 195/194/128 196/50/46 207/195/125 206/196/129
f 89/173/117 100/197/62 99/198/61 88/170/114
f 98/199/120 87/174/118 88/200/114 99/201/61
f 86/175/101 87/174/118 98/199/120 97/202/87
f 228/203/117 239/204/62 238/205/61 227/206/114
f 104/207/92 94/208/105 95/209/130 105/210/131
f 106/211/132 84/212/133 85/179/119 96/115/86 107/114/85
f 241/213/69 242/120/91 254/60/55 253/59/54
f 98/182/120 99/67/61 110/70/63 109/183/121
f 237/214/120 238/215/61 249/216/63 248/217/121
f 164/127/96 165/48/44 175/218/73 174/219/76
f 65/220/134 90/221/107 89/173/117 78/172/116 64/187/123 46/94/23 47/222/22
f 80/223/122 71/193/127 72/192/126 81/224/103
f 72/192/126 73/225/135 82/226/136 81/224/103
f 57/227/46 50/228/47 51/229/67 58/230/49
f 119/231/137 108/180/88 109/183/121 120/150/25
f 258/232/137 247/233/88 248/217/121 259/27/25
f 102/234/138 103/235/91 115/236/55 114/237/54
f 160/238/139 172/85/65 171/84/59 159/38/36
f 126/239/140 116/240/93 117/241/141 127/242/142
f 138/243/83 126/239/140 127/242/142 139/244/84
f 268/245/80 257/246/143 258/247/137 269/248/144
f 149/37/35 150/249/145 160/238/139 159/38/36
f 227/206/114 216/250/146 217/251/116 228/203/117
f 263/62/56 264/61/9 276/252/10 275/253/147
f 121/151/26 122/254/42 133/255/41 132/152/27
f 139/256/84 127/257/142 117/258/141 106/211/132 128/259/79
f 155/260/15 144/261/14 145/21/18 156/20/19
f 19/262/33 9/263/34 10/264/35 20/265/36
f 3/266/37 4/158/13 15/157/12 14/267/148
f 2/268/2 3/266/37 14/267/148 13/269/3
f 150/270/145 151/55/51 161/54/50 160/271/139
f 142/40/37 143/13/13 154/12/12 153/41/38
f 62/32/30 63/135/98 77/272/115 76/33/31
f 157/273/149 147/274/150 148/36/34 158/35/33
f 212/275/135 208/101/78 209/100/77 222/276/151 221/277/104
f 49/278/152 50/228/47 57/227/46 56/279/153
f 82/280/136 83/281/154 95/209/130 94/208/105
f 5/282/17 4/283/13 3/284/37 2/285/2 1/286/1 12/287/51 11/288/155 10/289/35 9/290/34 8/291/156 7/292/20 6/293/18
f 72/192/126 68/191/125 69/294/78 73/225/135
f 48/295/157 49/278/152 56/279/153 67/190/124 66/296/109
f 211/297/126 207/195/125 208/298/78 212/299/135
f 200/125/29 192/300/89 193/301/158 201/302/30
f 26/303/44 15/157/12 16/160/16 27/304/45
f 189/51/47 188/305/159 177/306/57 178/128/60
f 211/297/126 212/299/135 221/141/104 220/140/103
f 182/307/75 174/308/76 175/82/73 183/81/72
f 60/309/95 42/310/113 43/88/75 53/118/89 61/31/29
f 175/82/73 165/311/44 166/312/45 176/83/74
f 36/90/73 26/313/44 27/314/45 37/93/74
f 226/315/118 215/316/31 216/317/146 227/318/114
f 177/319/57 170/320/58 171/84/59 178/87/60
f 44/91/72 45/92/71 55/134/100 54/119/90
f 192/300/89 182/307/75 183/81/72 193/301/158
f 73/321/135 69/322/78 70/323/160 83/324/154 82/325/136
f 204/145/108 229/144/107 228/203/117 217/251/116 203/131/97 185/25/23 186/24/22
f 238/215/61 239/326/62 250/327/43 249/216/63
f 61/31/29 53/118/89 54/119/90 62/32/30
f 193/301/158 194/328/99 202/329/98 201/302/30
f 137/10/10 125/9/9 126/239/140 138/243/83
f 11/330/155 12/331/51 22/332/50 21/333/161
f 66/296/109 67/190/124 71/193/127 80/223/122 79/334/162
f 167/26/24 185/25/23 184/130/71 176/335/74 166/336/45
f 48/337/157 30/338/163 31/64/58 38/63/57 49/339/152
f 187/340/157 169/341/163 170/320/58 177/319/57 188/342/159
f 123/343/164 124/344/8 136/345/11 135/346/82
f 109/183/121 110/70/63 121/151/26 120/150/25
f 26/303/44 25/167/96 14/267/148 15/157/12
f 187/347/157 188/305/159 195/194/128 206/196/129 205/348/109
f 64/349/123 78/350/116 77/272/115 63/135/98
f 17/19/19 6/18/18 7/351/20 29/352/21 47/222/22 46/94/23 28/57/53
f 206/196/129 207/195/125 211/297/126 210/353/127
f 101/354/68 102/355/138 114/356/54 113/357/70
f 58/358/49 51/75/67 52/74/66 70/323/160 69/322/78
f 183/81/72 184/80/71 194/328/99 193/301/158
f 163/359/4 152/42/3 153/41/38 164/127/96
f 214/126/32 215/316/31 226/315/118 225/360/101
f 87/174/118 76/33/31 77/272/115 88/200/114
f 225/360/101 226/315/118 237/361/120 236/362/87
f 221/363/104 222/364/151 234/365/130 233/366/105
f 81/224/103 82/226/136 94/367/105 93/368/106
f 92/369/112 80/223/122 81/224/103 93/368/106
f 115/236/55 103/235/91 104/207/92 116/240/93
f 92/369/112 93/368/106 103/370/91 102/371/138
f 129/372/80 118/373/143 119/374/137 130/375/81
f 219/184/122 210/353/127 211/297/126 220/140/103
f 158/35/33 159/38/36 171/84/59 170/320/58
f 25/167/96 26/303/44 36/376/73 35/168/76
f 91/377/165 79/334/162 80/223/122 92/369/112
f 247/233/88 236/378/87 237/214/120 248/217/121
f 199/124/95 181/379/5 182/307/75 192/300/89 200/125/29
f 32/65/59 33/380/65 40/381/64 39/66/60
f 188/305/159 189/51/47 196/50/46 195/194/128
f 179/382/64 172/383/65 173/56/52 191/99/66 190/98/48
f 68/191/125 57/227/46 58/230/49 69/294/78
f 181/384/5 163/359/4 164/127/96 174/219/76 182/385/75
f 111/69/43 122/254/42 121/151/26 110/70/63
f 114/237/54 115/236/55 125/9/9 124/8/8
f 248/217/121 249/216/63 260/28/26 259/27/25
f 118/373/143 107/114/85 108/117/88 119/374/137
f 262/386/164 252/79/70 253/78/54 263/387/56
f 200/125/29 201/302/30 215/316/31 214/126/32
f 21/388/161 33/380/65 32/65/59 20/265/36
f 251/149/39 273/389/40 272/390/41 261/391/166 250/392/43
f 18/393/149 8/394/156 9/263/34 19/262/33
f 269/395/144 258/232/137 259/27/25 270/30/28
f 130/396/81 119/231/137 120/150/25 131/153/28
f 260/28/26 261/397/166 272/398/41 271/29/27
f 262/386/164 263/387/56 275/399/147 274/400/82
f 276/252/10 264/61/9 265/401/140 277/402/83
f 201/302/30 202/329/98 216/317/146 215/316/31
f 277/402/83 265/401/140 266/403/142 278/404/84
f 235/162/86 224/139/102 225/138/101 236/163/87
f 56/279/153 57/227/46 68/191/125 67/190/124
f 237/361/120 226/315/118 227/318/114 238/405/61
f 115/236/55 116/240/93 126/239/140 125/9/9
f 50/228/47 39/406/60 40/407/64 51/229/67
f 207/195/125 196/50/46 197/53/49 208/298/78
f 116/240/93 104/207/92 105/210/131 117/241/141
f 147/408/150 146/409/20 145/410/18 144/411/14 143/412/13 142/413/37 141/414/2 140/415/1 151/416/51 150/417/145 149/418/35 148/419/34
f 254/60/55 255/122/93 265/401/140 264/61/9
f 50/228/47 49/278/152 38/420/57 39/406/60
f 255/122/93 243/121/92 244/421/131 256/422/141
f 269/423/144 270/424/28 271/425/27 272/426/41 273/427/40 274/428/82 275/429/147 276/430/10 277/431/83 278/432/84 267/433/79 268/434/80
f 232/435/106 233/366/105 243/121/92 242/120/91
f 223/436/133 198/437/167 180/6/6 181/5/5 199/438/95 213/136/94 224/139/102
f 205/348/109 206/196/129 210/353/127 219/184/122 218/186/110
f 168/23/21 146/22/20 147/439/150 157/440/149 169/441/163
f 169/441/163 187/442/157 205/146/109 204/145/108 186/24/22 168/23/21
f 245/443/132 223/436/133 224/139/102 235/162/86 246/161/85
f 30/338/163 18/393/149 19/262/33 31/64/58
f 24/166/4 13/269/3 14/267/148 25/167/96
f 21/333/161 22/332/50 34/73/52 33/72/65
f 191/99/66 173/56/52 162/7/7 180/6/6 198/437/167 209/100/77
f 84/212/133 59/444/167 41/445/6 42/446/113 60/447/95 74/176/94 85/179/119
f 134/44/40 112/43/39 113/357/70 123/343/164 135/346/82
f 52/74/66 34/73/52 23/448/168 41/445/6 59/444/167 70/323/160
f 101/354/68 91/449/165 92/450/112 102/355/138
f 229/144/107 251/149/39 250/392/43 239/204/62 228/203/117
f 59/444/167 84/212/133 106/211/132 117/258/141 105/451/131 95/452/130 83/324/154 70/323/160
f 123/343/164 113/357/70 114/356/54 124/344/8
f 30/453/163 48/454/157 66/455/109 65/220/134 47/222/22 29/352/21
f 203/456/97 217/457/116 216/317/146 202/329/98
f 267/458/79 245/443/132 246/161/85 257/246/143 268/245/80
f 128/259/79 106/211/132 107/114/85 118/373/143 129/372/80
f 29/352/21 7/351/20 8/459/156 18/460/149 30/453/163
f 22/332/50 12/331/51 1/461/1 23/448/168 34/73/52
f 169/341/163 157/273/149 158/35/33 170/320/58
f 156/20/19 167/26/24 166/336/45 155/260/15
f 278/462/84 266/463/142 256/464/141 245/443/132 267/458/79
f 160/271/139 161/54/50 173/56/52 172/383/65
f 240/76/68 230/148/111 231/465/112 241/77/69
f 19/262/33 20/265/36 32/65/59 31/64/58
f 198/437/167 223/436/133 245/443/132 256/464/141 244/466/131 234/467/130 222/276/151 209/100/77
f 10/264/35 11/468/155 21/388/161 20/265/36
f 74/469/94 60/309/95 61/31/29 75/34/32
f 96/115/86 85/179/119 86/178/101 97/116/87
f 243/121/92 233/366/105 234/365/130 244/421/131
f 257/246/143 246/161/85 247/164/88 258/247/137
f 90/221/107 112/43/39 111/47/43 100/197/62 89/173/117
f 90/221/107 65/220/134 66/455/109 79/470/162 91/449/165 101/354/68 113/357/70 112/43/39
f 250/327/43 261/397/166 260/28/26 249/216/63
f 265/401/140 255/122/93 256/422/141 266/403/142
f 273/389/40 251/149/39 252/79/70 262/386/164 274/400/82
f 1/461/1 2/471/2 13/472/3 24/473/4 42/446/113 41/445/6 23/448/168
f 94/208/105 104/207/92 103/235/91 93/474/106
