# Blender 4.3.2
# www.blender.org
mtllib CLBulbHolder.mtl

v 0.550007 0.171609 0.488408
v 0.552369 0.159560 0.487938
v 0.547088 0.171609 0.478787
v 0.540752 0.181825 0.481412
v 0.531268 0.188650 0.485340
v 0.549313 0.159560 0.477865
v 0.542349 0.171609 0.469921
v 0.536646 0.181825 0.473731
v 0.544351 0.159560 0.468583
v 0.535971 0.171609 0.462149
v 0.537674 0.159560 0.460446
v 0.528200 0.171609 0.455772
v 0.524389 0.181825 0.461474
v 0.518686 0.188650 0.470009
v 0.529538 0.159560 0.453769
v 0.519333 0.171609 0.451032
v 0.516709 0.181825 0.457369
v 0.520255 0.159560 0.448807
v 0.509713 0.171609 0.448114
v 0.506372 0.188650 0.464908
v 0.510183 0.159560 0.445752
v 0.499708 0.171609 0.447128
v 0.499708 0.181825 0.453988
v 0.499708 0.188650 0.464252
v 0.499708 0.159560 0.444720
v 0.489703 0.171609 0.448114
v 0.489233 0.159560 0.445752
v 0.480082 0.171609 0.451032
v 0.482707 0.181825 0.457369
v 0.486635 0.188650 0.466853
v 0.479161 0.159560 0.448807
v 0.471216 0.171609 0.455772
v 0.469878 0.159560 0.453769
v 0.463445 0.171609 0.462149
v 0.468294 0.181825 0.466999
v 0.475553 0.188650 0.474258
v 0.461742 0.159560 0.460446
v 0.457067 0.171609 0.469921
v 0.455064 0.159560 0.468583
v 0.452328 0.171609 0.478787
v 0.458664 0.181825 0.481412
v 0.468148 0.188650 0.485340
v 0.450103 0.159560 0.477865
v 0.449409 0.171609 0.488408
v 0.447047 0.159560 0.487938
v 0.448424 0.171609 0.498413
v 0.455282 0.181825 0.498413
v 0.465547 0.188650 0.498413
v 0.446016 0.159560 0.498413
v 0.449409 0.171609 0.508418
v 0.447047 0.159560 0.508887
v 0.452328 0.171609 0.518038
v 0.458664 0.181825 0.515413
v 0.450103 0.159560 0.518960
v 0.457067 0.171609 0.526905
v 0.462770 0.181825 0.523094
v 0.471305 0.188650 0.517391
v 0.455064 0.159560 0.528243
v 0.463445 0.171609 0.534676
v 0.461742 0.159560 0.536379
v 0.471216 0.171609 0.541054
v 0.475027 0.181825 0.535351
v 0.480729 0.188650 0.526816
v 0.469878 0.159560 0.543057
v 0.480082 0.171609 0.545793
v 0.482707 0.181825 0.539456
v 0.479161 0.159560 0.548018
v 0.489703 0.171609 0.548711
v 0.489233 0.159560 0.551073
v 0.499708 0.171609 0.549697
v 0.499708 0.181825 0.542838
v 0.499708 0.188650 0.532573
v 0.499708 0.159560 0.552105
v 0.509713 0.171609 0.548711
v 0.510183 0.159560 0.551073
v 0.519333 0.171609 0.545793
v 0.516709 0.181825 0.539456
v 0.512780 0.188650 0.529973
v 0.520255 0.159560 0.548018
v 0.528200 0.171609 0.541054
v 0.529538 0.159560 0.543057
v 0.511960 0.191047 0.516749
v 0.535971 0.171609 0.534676
v 0.531121 0.181825 0.529826
v 0.523863 0.188650 0.522568
v 0.537674 0.159560 0.536379
v 0.542349 0.171609 0.526905
v 0.544351 0.159560 0.528243
v 0.547088 0.171609 0.518038
v 0.540752 0.181825 0.515413
v 0.531268 0.188650 0.511486
v 0.549313 0.159560 0.518960
v 0.550007 0.171609 0.508418
v 0.552369 0.159560 0.508887
v 0.550992 0.171609 0.498413
v 0.544133 0.181825 0.498413
v 0.533869 0.188650 0.498413
v 0.553400 0.159560 0.498413
v 0.552369 0.109256 0.487938
v 0.549313 0.109256 0.477865
v 0.544351 0.109256 0.468583
v 0.537674 0.109256 0.460446
v 0.529538 0.109256 0.453769
v 0.520255 0.109256 0.448807
v 0.510183 0.109256 0.445752
v 0.499708 0.109256 0.444720
v 0.489233 0.109256 0.445752
v 0.479161 0.109256 0.448807
v 0.469878 0.109256 0.453769
v 0.461742 0.109256 0.460446
v 0.455064 0.109256 0.468583
v 0.450103 0.109256 0.477865
v 0.447047 0.109256 0.487938
v 0.446015 0.109256 0.498413
v 0.447047 0.109256 0.508887
v 0.450103 0.109256 0.518960
v 0.455064 0.109256 0.528243
v 0.461742 0.109256 0.536379
v 0.469878 0.109256 0.543057
v 0.479161 0.109256 0.548018
v 0.489233 0.109256 0.551073
v 0.499708 0.109256 0.552105
v 0.510183 0.109256 0.551073
v 0.520255 0.109256 0.548018
v 0.529538 0.109256 0.543057
v 0.537674 0.109256 0.536379
v 0.544351 0.109256 0.528243
v 0.549313 0.109256 0.518960
v 0.552369 0.109256 0.508887
v 0.553400 0.109256 0.498413
vn 0.6498 0.7109 0.2692
vn 0.7035 0.7106 -0.0000
vn 0.3899 0.9209 0.0043
vn 0.3561 0.9231 0.1450
vn 0.2671 0.7075 0.6543
vn 0.1292 0.9197 0.3707
vn -0.0082 0.9215 0.3883
vn -0.0000 0.7108 0.7034
vn -0.4975 0.7107 -0.4975
vn -0.2726 0.9209 -0.2788
vn -0.1492 0.9231 -0.3543
vn -0.2692 0.7107 -0.6499
vn 0.1942 0.0979 -0.9761
vn 0.1797 0.3896 -0.9033
vn 0.3540 0.3799 -0.8546
vn 0.3808 0.0979 -0.9194
vn -0.7037 0.0979 0.7037
vn -0.5529 0.0979 0.8275
vn -0.5139 0.3799 0.7691
vn -0.6541 0.3799 0.6541
vn -0.7037 0.0979 -0.7037
vn -0.6541 0.3799 -0.6541
vn -0.5118 0.3892 -0.7659
vn -0.5529 0.0979 -0.8275
vn -0.3808 0.0979 0.9194
vn -0.5556 -0.0000 0.8315
vn -0.3827 -0.0000 0.9239
vn -0.3809 0.0979 -0.9194
vn -0.3827 -0.0000 -0.9239
vn -0.5556 -0.0000 -0.8315
vn -0.5916 0.7027 0.3953
vn -0.7691 0.3799 0.5139
vn -0.3953 0.7027 0.5916
vn -0.8275 0.0979 -0.5529
vn -0.7071 -0.0000 -0.7071
vn -0.8315 -0.0000 -0.5556
vn 0.7037 0.0979 -0.7037
vn 0.6512 0.3896 -0.6512
vn 0.7691 0.3799 -0.5139
vn 0.8275 0.0979 -0.5529
vn 0.5139 0.3799 -0.7691
vn 0.5529 0.0979 -0.8275
vn -0.9761 0.0979 -0.1942
vn -0.9032 0.3897 -0.1797
vn -0.8546 0.3799 -0.3540
vn -0.9194 0.0979 -0.3808
vn 0.7037 0.0979 0.7037
vn 0.5529 0.0979 0.8275
vn 0.5556 -0.0000 0.8315
vn 0.7071 -0.0000 0.7071
vn -0.9761 0.0979 0.1942
vn -0.9033 0.3896 0.1797
vn -0.9250 0.3799 -0.0000
vn -0.9952 0.0979 -0.0000
vn 0.9808 -0.0000 0.1951
vn 0.9761 0.0979 0.1942
vn 0.9194 0.0979 0.3809
vn 0.9239 -0.0000 0.3827
vn 0.6629 0.7065 -0.2478
vn 0.3619 0.9189 -0.1573
vn -0.0225 0.9197 -0.3919
vn -0.3710 0.9158 -0.1537
vn -0.3855 0.9226 0.0142
vn -0.3220 0.9268 0.1935
vn -0.2045 0.9213 0.3307
vn 0.0608 0.9943 0.0871
vn 0.0910 0.9171 -0.3881
vn -0.9194 0.0979 0.3808
vn -0.8546 0.3799 0.3540
vn 0.8275 0.0979 0.5529
vn 0.8315 -0.0000 0.5556
vn -0.3540 0.3799 0.8546
vn 0.3827 -0.0000 -0.9239
vn 0.1951 -0.0000 -0.9808
vn -0.0036 0.7075 -0.7067
vn 0.2293 0.9218 -0.3125
vn 0.4135 0.7065 -0.5743
vn 0.2512 0.7063 -0.6618
vn 0.7658 0.3896 0.5117
vn 0.6541 0.3799 0.6541
vn 0.9761 0.0979 -0.1942
vn 0.9035 0.3892 -0.1797
vn 0.9250 0.3799 -0.0000
vn 0.9952 0.0979 -0.0000
vn 0.2931 0.9197 0.2612
vn -0.3540 0.3799 -0.8546
vn 0.9194 0.0979 -0.3809
vn 0.9808 -0.0000 -0.1951
vn 0.9239 -0.0000 -0.3827
vn -0.1797 0.3892 -0.9035
vn -0.1942 0.0979 -0.9761
vn -0.9239 -0.0000 -0.3827
vn -0.9808 -0.0000 -0.1951
vn -0.0000 0.3799 -0.9250
vn -0.0000 0.0979 -0.9952
vn -0.9808 -0.0000 0.1951
vn -0.9239 -0.0000 0.3827
vn 0.8546 0.3799 0.3540
vn -0.6564 0.7139 0.2440
vn 0.8315 -0.0000 -0.5556
vn -0.1942 0.0979 0.9761
vn -0.1797 0.3896 0.9033
vn -0.1951 -0.0000 -0.9808
vn 1.0000 -0.0000 -0.0000
vn 0.9033 0.3896 0.1797
vn 0.5556 -0.0000 -0.8315
vn -0.0000 -0.0000 -1.0000
vn -0.0000 0.0979 0.9952
vn -0.0000 0.3799 0.9250
vn 0.1942 0.0979 0.9761
vn 0.1797 0.3896 0.9033
vn -0.0000 -1.0000 -0.0000
vn 0.5022 0.7075 0.4972
vn -0.8275 0.0979 0.5529
vn -0.8315 -0.0000 0.5556
vn -0.7071 -0.0000 0.7071
vn -0.7659 0.3892 -0.5118
vn -0.6499 0.7107 -0.2692
vn -0.7034 0.7108 -0.0000
vn -1.0000 -0.0000 -0.0000
vn 0.7071 -0.0000 -0.7071
vn 0.5118 0.3892 0.7659
vn -0.1951 -0.0000 0.9808
vn -0.0000 -0.0000 1.0000
vn 0.1951 -0.0000 0.9808
vn 0.3808 0.0979 0.9194
vn 0.3827 -0.0000 0.9239
vn 0.8546 0.3799 -0.3540
vn 0.5675 0.7139 -0.4102
vn 0.3540 0.3799 0.8546
vn -0.2440 0.7139 0.6564
vt 0.602391 0.339483
vt 0.602163 0.328760
vt 0.607536 0.329297
vt 0.607711 0.337542
vt 0.497621 0.545801
vt 0.495301 0.551296
vt 0.487899 0.548196
vt 0.487996 0.541770
vt 0.460585 0.584504
vt 0.466823 0.581056
vt 0.472487 0.586863
vt 0.467952 0.592056
vt 0.678755 0.195313
vt 0.671141 0.195460
vt 0.671016 0.189322
vt 0.678625 0.188887
vt 0.603756 0.233513
vt 0.598307 0.233884
vt 0.597601 0.226287
vt 0.602804 0.225932
vt 0.598308 0.407387
vt 0.597601 0.399790
vt 0.602804 0.399436
vt 0.603756 0.407016
vt 0.592254 0.234139
vt 0.598307 0.265037
vt 0.592254 0.265292
vt 0.677999 0.219795
vt 0.678370 0.214346
vt 0.709522 0.214346
vt 0.709152 0.219795
vt 0.463906 0.549574
vt 0.459334 0.546359
vt 0.464005 0.542345
vt 0.469334 0.539344
vt 0.472569 0.543496
vt 0.592254 0.407643
vt 0.598308 0.438540
vt 0.592254 0.438795
vt 0.589679 0.305546
vt 0.597229 0.306691
vt 0.596407 0.311179
vt 0.588819 0.310244
vt 0.670772 0.183540
vt 0.678370 0.182833
vt 0.579274 0.407773
vt 0.579421 0.400158
vt 0.585680 0.400158
vt 0.585827 0.407773
vt 0.556712 0.233041
vt 0.561346 0.233513
vt 0.561346 0.264666
vt 0.556712 0.264194
vt 0.566794 0.407387
vt 0.567501 0.399790
vt 0.573283 0.400034
vt 0.572848 0.407643
vt 0.556730 0.334827
vt 0.587484 0.334827
vt 0.587742 0.341235
vt 0.556988 0.341235
vt 0.602726 0.318391
vt 0.607969 0.321323
vt 0.479888 0.589963
vt 0.463757 0.573426
vt 0.463757 0.565134
vt 0.469376 0.554197
vt 0.476037 0.549524
vt 0.493655 0.559339
vt 0.483894 0.590332
vt 0.561346 0.407016
vt 0.562297 0.399436
vt 0.677999 0.177385
vt 0.670418 0.178336
vt 0.588231 0.347253
vt 0.588931 0.352650
vt 0.558177 0.352650
vt 0.557476 0.347253
vt 0.591819 0.226531
vt 0.709778 0.188887
vt 0.709908 0.195313
vt 0.477578 0.596087
vt 0.491751 0.588636
vt 0.493005 0.594361
vt 0.487996 0.595984
vt 0.595845 0.346528
vt 0.596514 0.351682
vt 0.587691 0.321832
vt 0.595329 0.322247
vt 0.595116 0.328401
vt 0.587467 0.328276
vt 0.504031 0.564733
vt 0.504031 0.573026
vt 0.500965 0.580717
vt 0.500965 0.557103
vt 0.670418 0.218843
vt 0.670772 0.213640
vt 0.588147 0.315743
vt 0.556936 0.321832
vt 0.557392 0.315743
vt 0.671016 0.207857
vt 0.678625 0.208293
vt 0.585827 0.438926
vt 0.579274 0.438926
vt 0.671141 0.201719
vt 0.678755 0.201866
vt 0.566794 0.438540
vt 0.561346 0.438169
vt 0.595379 0.340780
vt 0.455501 0.551232
vt 0.460585 0.553795
vt 0.558064 0.310244
vt 0.585827 0.234269
vt 0.585680 0.226655
vt 0.709778 0.208293
vt 0.556712 0.328276
vt 0.595132 0.334660
vt 0.709522 0.182833
vt 0.709908 0.201866
vt 0.579274 0.234269
vt 0.579421 0.226655
vt 0.572848 0.234139
vt 0.573283 0.226531
vt 0.621963 0.043623
vt 0.623242 0.050050
vt 0.623242 0.056603
vt 0.621963 0.063029
vt 0.619456 0.069083
vt 0.615815 0.074531
vt 0.611182 0.079165
vt 0.605733 0.082805
vt 0.599680 0.085313
vt 0.593253 0.086591
vt 0.586700 0.086591
vt 0.580274 0.085313
vt 0.574220 0.082805
vt 0.568772 0.079165
vt 0.564138 0.074531
vt 0.560498 0.069083
vt 0.557990 0.063029
vt 0.556712 0.056603
vt 0.556712 0.050050
vt 0.557991 0.043623
vt 0.560498 0.037570
vt 0.564139 0.032121
vt 0.568772 0.027488
vt 0.574220 0.023847
vt 0.580274 0.021340
vt 0.586701 0.020062
vt 0.593253 0.020062
vt 0.599680 0.021340
vt 0.605734 0.023848
vt 0.611182 0.027488
vt 0.615815 0.032122
vt 0.619456 0.037570
vt 0.664274 0.190561
vt 0.664062 0.185552
vt 0.504988 0.553353
vt 0.508975 0.563277
vt 0.608389 0.233041
vt 0.608389 0.264194
vt 0.603756 0.264666
vt 0.591819 0.400034
vt 0.603756 0.438169
vt 0.456599 0.574581
vt 0.456598 0.563797
vt 0.572848 0.438795
vt 0.556712 0.406544
vt 0.557871 0.398985
vt 0.709152 0.177385
vt 0.557871 0.225482
vt 0.562297 0.225932
vt 0.556712 0.437697
vt 0.558925 0.305546
vt 0.585827 0.265422
vt 0.579274 0.265422
vt 0.572848 0.265292
vt 0.566794 0.233884
vt 0.566794 0.265037
vt 0.595765 0.316431
vt 0.501667 0.588284
vt 0.504988 0.584063
vt 0.664382 0.201300
vt 0.464005 0.595401
vt 0.459334 0.591479
vt 0.455501 0.586683
vt 0.607230 0.225482
vt 0.567501 0.226287
vt 0.561172 0.218879
vt 0.569513 0.219577
vt 0.664062 0.211627
vt 0.574522 0.393291
vt 0.585262 0.393399
vt 0.603374 0.348927
vt 0.477578 0.541874
vt 0.595588 0.393080
vt 0.669967 0.173910
vt 0.663365 0.177211
vt 0.579840 0.219896
vt 0.565006 0.392773
vt 0.590579 0.219788
vt 0.595588 0.219577
vt 0.603281 0.313841
s 1
usemtl compact_fluorescent_body
f 90/1/1 96/2/2 97/3/3 91/4/4
f 77/5/5 78/6/6 72/7/7 71/8/8
f 35/9/9 36/10/10 30/11/11 29/12/12
f 21/13/13 19/14/14 16/15/15 18/16/16
f 60/17/17 64/18/18 61/19/19 59/20/20
f 37/21/21 34/22/22 32/23/23 33/24/24
f 67/25/25 64/18/18 119/26/26 120/27/27
f 33/28/24 31/29/28 108/30/29 109/31/30
f 56/32/31 55/33/32 59/34/20 61/35/19 62/36/33
f 39/37/34 37/21/21 110/38/35 111/39/36
f 11/40/37 10/41/38 7/42/39 9/43/40
f 18/16/16 16/15/15 12/44/41 15/45/42
f 45/46/43 44/47/44 40/48/45 43/49/46
f 86/50/47 81/51/48 125/52/49 126/53/50
f 51/54/51 50/55/52 46/56/53 49/57/54
f 129/58/55 94/59/56 92/60/57 128/61/58
f 4/62/59 5/63/60 97/3/3 96/2/2
f 24/64/61 30/11/11 36/10/10 42/65/62 48/66/63 57/67/64 63/68/65 82/69/66 20/70/67
f 51/54/51 54/71/68 52/72/69 50/55/52
f 56/32/31 62/36/33 63/68/65 57/67/64
f 11/73/37 15/45/42 12/44/41 10/74/38
f 88/75/70 86/76/47 126/77/50 127/78/71
f 64/18/18 67/25/25 65/79/72 61/19/19
f 21/13/13 18/16/16 104/80/73 105/81/74
f 23/82/75 24/64/61 20/70/67 14/83/76 13/84/77 17/85/78
f 86/76/47 88/75/70 87/86/79 83/87/80
f 2/88/81 1/89/82 95/90/83 98/91/84
f 91/92/4 97/93/3 5/94/60 14/83/76 20/70/67 82/69/66 85/95/85
f 33/28/24 32/96/23 28/97/86 31/29/28
f 6/98/87 2/88/81 99/99/88 100/100/89
f 31/29/28 28/97/86 26/101/90 27/102/91
f 45/46/43 43/49/46 112/103/92 113/104/93
f 27/102/91 26/101/90 22/105/94 25/106/95
f 54/71/68 51/54/51 115/107/96 116/108/97
f 92/60/57 89/109/98 87/86/79 88/75/70
f 52/110/69 55/33/32 56/32/31 53/111/99
f 9/43/40 6/98/87 100/100/89 101/112/100
f 67/25/25 69/113/101 68/114/102 65/79/72
f 31/29/28 27/102/91 107/115/103 108/30/29
f 21/13/13 25/106/95 22/105/94 19/14/14
f 2/88/81 98/91/84 130/116/104 99/99/88
f 94/59/56 98/91/84 95/90/83 93/117/105
f 18/16/16 15/45/42 103/118/106 104/80/73
f 27/102/91 25/106/95 106/119/107 107/115/103
f 73/120/108 70/121/109 68/114/102 69/113/101
f 75/122/110 74/123/111 70/121/109 73/120/108
f 101/124/112 100/125/112 99/126/112 130/127/112 129/128/112 128/129/112 127/130/112 126/131/112 125/132/112 124/133/112 123/134/112 122/135/112 121/136/112 120/137/112 119/138/112 118/139/112 117/140/112 116/141/112 115/142/112 114/143/112 113/144/112 112/145/112 111/146/112 110/147/112 109/148/112 108/149/112 107/150/112 106/151/112 105/152/112 104/153/112 103/154/112 102/155/112
f 12/44/41 16/15/15 17/156/78 13/157/77
f 84/158/113 90/159/1 91/92/4 85/95/85
f 60/17/17 58/160/114 117/161/115 118/162/116
f 37/21/21 39/37/34 38/163/117 34/22/22
f 37/21/21 33/24/24 109/164/30 110/38/35
f 41/165/118 47/166/119 48/66/63 42/65/62
f 49/57/54 45/46/43 113/104/93 114/167/120
f 98/91/84 94/59/56 129/58/55 130/116/104
f 58/168/114 55/169/32 52/72/69 54/71/68
f 41/165/118 42/65/62 36/10/10 35/9/9
f 43/49/46 39/37/34 111/39/36 112/103/92
f 15/45/42 11/73/37 102/170/121 103/118/106
f 86/50/47 83/171/80 80/172/122 81/51/48
f 58/168/114 54/71/68 116/108/97 117/173/115
f 39/37/34 43/49/46 40/48/45 38/163/117
f 25/106/95 21/13/13 105/81/74 106/119/107
f 29/12/12 30/11/11 24/64/61 23/82/75
f 92/60/57 88/75/70 127/78/71 128/61/58
f 64/18/18 60/17/17 118/162/116 119/26/26
f 11/40/37 9/43/40 101/112/100 102/174/121
f 69/113/101 67/25/25 120/27/27 121/175/123
f 75/122/110 73/120/108 122/176/124 123/177/125
f 81/51/48 79/178/126 124/179/127 125/52/49
f 1/89/82 3/180/128 4/62/59 96/2/2 95/90/83
f 8/181/129 13/84/77 14/83/76 5/94/60 4/182/59
f 72/7/7 78/6/6 85/95/85 82/69/66 63/68/65
f 77/5/5 84/158/113 85/95/85 78/6/6
f 19/14/14 22/105/94 23/183/75 17/156/78 16/15/15
f 48/66/63 47/166/119 53/111/99 56/32/31 57/67/64
f 89/109/98 93/117/105 95/90/83 96/2/2 90/1/1
f 28/184/86 32/185/23 34/186/22 35/9/9 29/12/12
f 60/17/17 59/20/20 55/187/32 58/160/114
f 76/188/130 80/172/122 83/171/80 84/189/113 77/190/5
f 22/105/94 26/101/90 28/97/86 29/191/12 23/183/75
f 40/48/45 44/47/44 46/56/53 47/192/119 41/193/118
f 87/86/79 89/109/98 90/1/1 84/194/113 83/87/80
f 66/195/131 71/8/8 72/7/7 63/68/65 62/36/33
f 38/163/117 40/48/45 41/193/118 35/196/9 34/22/22
f 7/197/39 10/74/38 12/44/41 13/157/77 8/198/129
f 74/123/111 76/188/130 77/190/5 71/199/8 70/121/109
f 50/55/52 52/72/69 53/200/99 47/192/119 46/56/53
f 65/79/72 68/114/102 70/121/109 71/199/8 66/201/131
f 79/178/126 75/122/110 123/177/125 124/179/127
f 79/178/126 76/188/130 74/123/111 75/122/110
f 81/51/48 80/172/122 76/188/130 79/178/126
f 51/54/51 49/57/54 114/167/120 115/107/96
f 49/57/54 46/56/53 44/47/44 45/46/43
f 9/43/40 7/42/39 3/180/128 6/98/87
f 73/120/108 69/113/101 121/175/123 122/176/124
f 65/79/72 66/201/131 62/202/33 61/19/19
f 6/98/87 3/180/128 1/89/82 2/88/81
f 94/59/56 93/117/105 89/109/98 92/60/57
f 7/42/39 8/203/129 4/62/59 3/180/128
