
v -0.009558 0.137856 0.028770
v 0.009558 0.137856 0.028771
v 0.051602 0.112445 -0.003877
v -0.051602 0.112445 -0.003877
v -0.051602 0.112445 -0.025572
v 0.051602 0.112445 -0.025572
v -0.009873 0.112797 0.030746
v 0.009873 0.112797 0.030746
v 0.009873 0.132326 0.030746
v -0.009873 0.132326 0.030746
v 0.018872 0.111055 0.030746
v 0.018872 0.130584 0.030746
v -0.018872 0.130584 0.030746
v -0.018872 0.111055 0.030746
v 0.029573 0.106612 0.030746
v 0.029573 0.126142 0.030746
v -0.029573 0.126142 0.030746
v -0.029573 0.106612 0.030746
v -0.009873 0.112797 0.035612
v -0.009975 0.114000 0.037198
v 0.009975 0.114000 0.037198
v 0.009873 0.112797 0.035612
v 0.009873 0.132326 0.035612
v 0.009771 0.131124 0.037198
v -0.009771 0.131124 0.037198
v -0.009873 0.132326 0.035612
v 0.018872 0.130584 0.035612
v 0.018562 0.129421 0.037198
v 0.019181 0.112218 0.037198
v 0.018872 0.111055 0.035612
v -0.018872 0.111055 0.035612
v -0.019181 0.112218 0.037198
v -0.018562 0.129421 0.037198
v -0.018872 0.130584 0.035612
v 0.029573 0.126142 0.035612
v 0.029046 0.125069 0.037198
v 0.030100 0.107685 0.037198
v 0.029573 0.106612 0.035612
v -0.029573 0.106612 0.035612
v -0.030100 0.107685 0.037198
v -0.029046 0.125069 0.037198
v -0.029573 0.126142 0.035612
v 0.037214 0.101166 0.030746
v 0.038410 0.102073 0.032427
v 0.038410 0.118876 0.032476
v 0.037512 0.120482 0.030746
v 0.038410 0.118867 0.035593
v 0.037639 0.120392 0.035574
v 0.037322 0.119225 0.037198
v 0.038410 0.102005 0.035713
v 0.037183 0.102759 0.037198
v 0.037089 0.101255 0.035713
v -0.037512 0.120482 0.030746
v -0.038410 0.118876 0.032476
v -0.038410 0.102073 0.032427
v -0.037214 0.101166 0.030746
v -0.038410 0.102062 0.035662
v -0.037089 0.101255 0.035713
v -0.037183 0.102759 0.037198
v -0.038410 0.118855 0.035574
v -0.037322 0.119225 0.037198
v -0.037639 0.120392 0.035574
v -0.051602 0.122720 -0.003877
v -0.051602 0.122720 -0.025572
v 0.051602 0.122720 -0.003877
v 0.051602 0.122720 -0.025572
v 0.014415 0.112445 -0.025572
v 0.014415 0.122720 -0.025572
v 0.013190 0.122720 -0.003877
v 0.013190 0.112445 -0.003877
v -0.009255 0.112445 -0.025572
v -0.009255 0.122720 -0.025572
v -0.008030 0.122720 -0.003877
v -0.008030 0.112445 -0.003877
v 0.053371 0.139099 -0.000914
v 0.012068 0.139058 -0.000914
v -0.009507 0.139058 -0.000914
v -0.050096 0.139093 -0.000914
v -0.050836 0.139065 -0.023856
v -0.009214 0.139058 -0.023856
v 0.013824 0.139058 -0.023856
v 0.051491 0.139066 -0.023856
v -0.070905 0.106714 0.028052
v -0.072062 0.107787 0.029149
v -0.047028 0.110600 0.029139
v -0.047109 0.109468 0.027965
v -0.074446 0.139168 -0.028442
v -0.075369 0.138026 -0.029591
v -0.051021 0.137913 -0.029591
v -0.050984 0.139060 -0.028446
v -0.075369 0.106176 -0.029591
v -0.074080 0.105318 -0.028433
v -0.051199 0.113622 -0.029591
v -0.051188 0.112445 -0.028439
v 0.075369 0.106200 -0.029591
v 0.074055 0.105325 -0.028411
v 0.074084 0.105326 -0.025572
v 0.075404 0.106267 -0.025572
v -0.009141 0.137912 -0.029591
v -0.009156 0.139058 -0.028445
v 0.009535 0.113384 0.028220
v 0.009424 0.114556 0.029200
v 0.009648 0.113105 0.029973
v 0.052211 0.110033 0.029141
v 0.052045 0.108934 0.027961
v 0.075369 0.138026 -0.029591
v 0.074446 0.139168 -0.028442
v 0.051021 0.137911 -0.029591
v 0.051115 0.139060 -0.028448
v 0.051195 0.113597 -0.029591
v 0.051188 0.112445 -0.028439
v -0.009141 0.113592 -0.029591
v -0.009174 0.112445 -0.028445
v -0.076228 0.138011 -0.006204
v -0.075095 0.139170 -0.006219
v -0.076228 0.138011 -0.025572
v -0.075095 0.139169 -0.025445
v 0.076228 0.138011 -0.006204
v 0.075095 0.139170 -0.006219
v 0.076228 0.138011 -0.025572
v 0.075095 0.139169 -0.025445
v -0.075404 0.106276 -0.006204
v -0.074083 0.105327 -0.006078
v -0.074084 0.105326 -0.025572
v -0.075404 0.106267 -0.025572
v 0.074080 0.105328 -0.006077
v 0.075404 0.106276 -0.006204
v -0.074274 0.139172 0.026640
v -0.075246 0.138012 0.027815
v 0.075246 0.138012 0.027815
v 0.074274 0.139172 0.026640
v 0.070904 0.106714 0.028051
v 0.072062 0.107787 0.029149
v -0.049087 0.138010 0.027818
v -0.049207 0.139126 0.026643
v -0.009862 0.139058 0.026874
v 0.009941 0.139058 0.026875
v 0.055585 0.138022 0.027817
v 0.055628 0.139138 0.026641
v 0.014263 0.137911 -0.029591
v 0.014176 0.139058 -0.028447
v 0.014263 0.113592 -0.029591
v 0.014307 0.112445 -0.028446
v -0.009383 0.113384 0.028225
v -0.009648 0.113105 0.029973
v -0.009424 0.114547 0.029200
v -0.000000 0.132326 0.030746
v 0.000000 0.132326 0.035612
v 0.000000 0.131124 0.037198
v 0.000000 0.114000 0.037198
v 0.000000 0.112797 0.035612
v -0.000000 0.112797 0.030746
v -0.000000 0.113105 0.029973
v 0.000076 0.113384 0.028223
v 0.002580 0.112445 -0.003877
v 0.002580 0.122720 -0.003877
v 0.002580 0.122720 -0.025572
v 0.002580 0.112445 -0.025572
v 0.002566 0.112445 -0.028446
v 0.002561 0.113592 -0.029591
v 0.002561 0.137911 -0.029591
v 0.002510 0.139058 -0.028446
v 0.002305 0.139058 -0.023856
v 0.001281 0.139058 -0.000914
v 0.000040 0.139058 0.026875
v -0.000000 0.137856 0.028771
v 0.038410 0.102032 0.034398
v 0.038410 0.118870 0.034346
v 0.037588 0.120428 0.033643
v 0.029573 0.126142 0.033665
v 0.018872 0.130584 0.033665
v 0.009873 0.132326 0.033665
v -0.000000 0.132326 0.033665
v -0.009873 0.132326 0.033665
v -0.018872 0.130584 0.033665
v -0.029573 0.126142 0.033665
v -0.037588 0.120428 0.033643
v -0.038410 0.118863 0.034335
v -0.038410 0.102067 0.034368
v -0.037139 0.101219 0.033726
v -0.029573 0.106612 0.033665
v -0.018872 0.111055 0.033665
v -0.009873 0.112797 0.033665
v -0.000000 0.112797 0.033665
v 0.009873 0.112797 0.033665
v 0.018872 0.111055 0.033665
v 0.029573 0.106612 0.033665
v 0.037139 0.101219 0.033726
vn -0.0000 -0.9291 -0.3698
vn -0.9748 -0.0052 -0.2230
vn -0.0000 -0.0000 -1.0000
vn 0.1516 -0.7828 0.6035
vn -0.0000 -0.7967 0.6043
vn -0.1516 -0.7828 0.6035
vn 0.1516 0.7828 0.6035
vn -0.0000 0.7967 0.6043
vn -0.1516 0.7828 0.6035
vn 0.3064 0.7382 0.6010
vn -0.3064 -0.7381 0.6010
vn 0.3064 -0.7381 0.6010
vn -0.3064 0.7382 0.6010
vn 0.4703 0.6609 0.5848
vn -0.4524 -0.6360 0.6252
vn 0.4524 -0.6360 0.6252
vn -0.4703 0.6609 0.5848
vn 0.5143 -0.8576 0.0099
vn 0.8516 -0.0063 -0.5242
vn 0.8892 0.4574 -0.0085
vn 0.8000 -0.0012 0.6000
vn -0.8902 0.4554 -0.0079
vn -0.8516 -0.0063 -0.5242
vn -0.5353 -0.8445 0.0162
vn -0.8063 -0.0018 0.5915
vn -0.0000 -0.0000 1.0000
vn -0.0000 -1.0000 -0.0000
vn 1.0000 -0.0000 -0.0000
vn -0.0000 1.0000 -0.0000
vn -1.0000 -0.0000 -0.0000
vn 0.1901 0.9818 -0.0000
vn -0.1901 -0.9818 -0.0000
vn 0.1901 -0.9818 -0.0000
vn -0.1901 0.9818 -0.0000
vn 0.3834 0.9236 -0.0000
vn -0.3834 -0.9236 -0.0000
vn 0.3834 -0.9236 -0.0000
vn -0.3834 0.9236 -0.0000
vn 0.5804 0.8143 -0.0000
vn -0.5804 -0.8143 -0.0000
vn 0.5804 -0.8143 -0.0000
vn -0.5804 0.8143 -0.0000
vn 0.7954 0.4077 0.4484
vn 0.3761 -0.6628 0.6475
vn -0.4216 -0.6503 0.6319
vn -0.8004 0.4016 0.4450
vn -0.0000 -0.9996 0.0292
vn -0.0000 0.3364 0.9417
vn 0.0020 1.0000 -0.0007
vn 0.0004 1.0000 -0.0003
vn 0.0002 1.0000 -0.0003
vn 0.0022 1.0000 -0.0006
vn -0.0002 1.0000 -0.0004
vn -0.0005 1.0000 -0.0004
vn -0.0021 1.0000 -0.0007
vn -0.0023 1.0000 -0.0006
vn 0.9748 -0.0052 -0.2231
vn -0.6084 -0.7885 0.0900
vn 0.0808 -0.6958 0.7137
vn 0.0682 -0.6827 0.7275
vn -0.6953 0.7034 -0.1479
vn 0.0032 0.7072 -0.7071
vn 0.0016 0.7070 -0.7072
vn -0.0000 0.7068 -0.7074
vn -0.5701 -0.8215 0.0086
vn 0.2083 -0.6729 -0.7098
vn -0.0003 -0.7033 -0.7109
vn -0.0002 -0.7051 -0.7091
vn -0.2085 -0.6768 -0.7060
vn 0.5683 -0.8228 0.0029
vn 0.5812 -0.8137 0.0003
vn -0.0000 0.7066 -0.7076
vn -0.0000 0.7060 -0.7082
vn -0.0695 -0.6866 0.7237
vn -0.0000 -0.9875 -0.1574
vn -0.0000 -0.9875 -0.1575
vn -0.0822 -0.6970 0.7123
vn 0.6953 0.7034 -0.1478
vn -0.0032 0.7067 -0.7075
vn -0.0016 0.7062 -0.7080
vn -0.0017 0.7062 -0.7080
vn 0.0001 -0.7070 -0.7072
vn 0.0001 -0.7070 -0.7073
vn -0.0000 -0.7069 -0.7073
vn -0.7149 0.6992 -0.0000
vn -0.7350 0.6777 0.0198
vn 0.7350 0.6778 0.0198
vn 0.7148 0.6993 -0.0000
vn -0.5819 -0.8132 0.0002
vn 0.6075 -0.7892 0.0899
vn 0.0006 0.7183 0.6957
vn -0.0004 0.7185 0.6955
vn -0.0068 0.7977 0.6030
vn -0.0000 0.8445 0.5355
vn -0.0000 0.8445 0.5356
vn 0.0057 0.7978 0.6029
vn 0.9997 -0.0260 -0.0000
vn -0.9997 -0.0260 -0.0000
vn 0.3019 -0.9533 -0.0000
vn -0.3019 -0.9533 -0.0000
vn 0.9960 -0.0631 0.0635
vn 0.0482 -0.9983 -0.0342
vn -0.9960 -0.0631 0.0635
vn 0.2995 -0.9538 0.0233
vn -0.2995 -0.9538 0.0234
vn 0.9938 -0.0129 -0.1105
vn -0.9938 -0.0129 -0.1104
vn -0.0024 0.0458 0.9989
vn 0.0130 0.0333 0.9994
vn -0.2221 -0.9742 -0.0406
vn -0.0148 0.0339 0.9993
vn 0.0024 0.0453 0.9990
vn -0.0550 -0.9976 -0.0429
vn 0.2105 -0.9764 -0.0480
vn 0.0019 1.0000 -0.0006
vn 0.0006 1.0000 -0.0003
vn -0.0007 1.0000 -0.0003
vn -0.0044 1.0000 -0.0003
vn -0.0001 1.0000 -0.0004
vn -0.0000 1.0000 -0.0003
vn 0.0023 1.0000 -0.0006
vn -0.0034 1.0000 -0.0006
vn -0.0042 1.0000 -0.0005
vn -0.0027 1.0000 -0.0006
vn -0.0045 1.0000 -0.0003
vn 0.0032 1.0000 -0.0007
vn 0.0025 1.0000 -0.0007
vn 0.0041 1.0000 -0.0006
vn 0.0045 1.0000 -0.0005
vn 0.9905 0.1303 -0.0431
vn -0.9873 0.0801 -0.1372
vn -0.0000 -0.9875 -0.1576
vn -0.0000 0.8446 0.5354
vn 0.8813 0.4726 -0.0082
vn -0.8815 0.4722 -0.0075
vn -0.5691 -0.8221 0.0165
vn 0.5650 -0.8250 0.0106
vt 1.796951 0.542472
vt 1.796939 0.543794
vt 1.780449 0.543643
vt 1.780077 0.542317
vt 1.368152 0.083238
vt 1.360739 0.082783
vt 1.360116 0.082134
vt 1.359972 0.081711
vt 1.365327 0.082255
vt 1.666343 0.511703
vt 1.661184 0.478725
vt 1.676840 0.479290
vt 1.681999 0.512268
vt 1.922936 0.473171
vt 1.921533 0.506521
vt 1.906041 0.508849
vt 1.907444 0.475500
vt 1.696084 0.483965
vt 1.701243 0.516943
vt 1.887447 0.515667
vt 1.888850 0.482317
vt 0.220824 0.424183
vt 0.219958 0.433012
vt 0.152480 0.430013
vt 0.154868 0.421499
vt 0.293255 0.433969
vt 0.293371 0.425130
vt 0.365918 0.426077
vt 0.366553 0.434926
vt 0.432208 0.425121
vt 0.434372 0.433694
vt 1.777241 0.470935
vt 1.778538 0.475638
vt 1.763500 0.476954
vt 1.761861 0.470794
vt 1.794115 0.471090
vt 1.795238 0.475791
vt 1.811937 0.475945
vt 1.810989 0.471245
vt 1.826369 0.471387
vt 1.826948 0.477538
vt 1.745546 0.480509
vt 1.743572 0.470625
vt 0.511269 0.424392
vt 0.515037 0.432324
vt 0.072686 0.426548
vt 0.076659 0.418717
vt 1.844659 0.471555
vt 1.844833 0.481422
vt 1.730400 0.490567
vt 1.729001 0.469950
vt 0.567011 0.425558
vt 0.567558 0.436617
vt 0.021109 0.429482
vt 0.021946 0.418440
vt 1.860204 0.471998
vt 1.859901 0.490479
vt 1.724355 0.526686
vt 1.725466 0.525266
vt 1.727713 0.525252
vt 1.727748 0.526532
vt 1.722095 0.525288
vt 1.717425 0.525519
vt 1.714674 0.492669
vt 1.721393 0.496578
vt 1.724588 0.496500
vt 1.723313 0.493871
vt 1.726718 0.496448
vt 1.731580 0.526081
vt 1.866875 0.492154
vt 1.865782 0.494866
vt 1.863666 0.494951
vt 1.868956 0.494739
vt 1.873353 0.491653
vt 1.873466 0.524656
vt 1.870001 0.523439
vt 1.866685 0.523561
vt 1.867829 0.524971
vt 1.864434 0.525024
vt 1.863575 0.529158
vt 1.860929 0.525989
vt 0.291612 0.559793
vt 0.363409 0.560730
vt 1.797028 0.534156
vt 1.796997 0.537483
vt 1.780123 0.537327
vt 1.780154 0.534001
vt 1.777272 0.467609
vt 1.794146 0.467764
vt 1.761892 0.467467
vt 0.428169 0.560049
vt 1.764743 0.537186
vt 1.764774 0.533860
vt 1.829251 0.537779
vt 1.813871 0.537638
vt 1.813901 0.534311
vt 1.829281 0.534453
vt 0.219816 0.558855
vt 0.155382 0.556487
vt 1.811020 0.467919
vt 1.826400 0.468061
vt 1.743602 0.467299
vt 0.505627 0.559961
vt 1.746453 0.537018
vt 1.746484 0.533691
vt 1.847541 0.537948
vt 1.847571 0.534621
vt 0.078759 0.554387
vt 1.844690 0.468229
vt 1.723084 0.484109
vt 1.723643 0.469403
vt 0.566997 0.557623
vt 1.733523 0.536795
vt 1.733640 0.533400
vt 1.860473 0.537963
vt 1.860419 0.534566
vt 0.018511 0.550461
vt 1.865755 0.471890
vt 1.866509 0.482395
vt 1.731382 0.533380
vt 1.440470 0.104458
vt 1.434254 0.104531
vt 1.435290 0.102378
vt 1.439417 0.102306
vt 1.439502 0.083973
vt 1.441579 0.083973
vt 1.434561 0.056270
vt 1.440772 0.055939
vt 1.439800 0.058086
vt 1.435678 0.058417
vt 1.433017 0.084486
vt 1.435119 0.084486
vt 1.435119 0.074569
vt 1.433017 0.074569
vt 1.439502 0.075082
vt 1.441579 0.075082
vt 1.435119 0.079527
vt 1.433017 0.079527
vt 1.439502 0.079527
vt 1.441579 0.079527
vt 1.460080 0.074009
vt 1.460081 0.079095
vt 1.442822 0.077749
vt 1.442822 0.072044
vt 1.368304 0.073622
vt 1.368739 0.078897
vt 1.365811 0.078181
vt 1.365487 0.074374
vt 1.390521 0.106071
vt 1.390521 0.084248
vt 1.402857 0.084090
vt 1.402857 0.106469
vt 1.402857 0.071703
vt 1.402857 0.077897
vt 1.390521 0.078448
vt 1.390521 0.072647
vt 1.390521 0.050440
vt 1.402857 0.051451
vt 1.360478 0.073730
vt 1.358171 0.073051
vt 1.360292 0.074137
vt 1.425799 0.151234
vt 1.425215 0.151816
vt 1.426262 0.132820
vt 1.426771 0.132894
vt 1.460580 0.117882
vt 1.459990 0.117260
vt 1.459942 0.104465
vt 1.460574 0.104422
vt 1.358487 0.103197
vt 1.357878 0.103240
vt 1.360102 0.083018
vt 1.408725 0.120645
vt 1.408558 0.119848
vt 1.409328 0.122196
vt 1.408705 0.122257
vt 1.405323 0.119164
vt 1.405325 0.106549
vt 1.407801 0.106569
vt 1.405324 0.084059
vt 1.407801 0.084051
vt 1.427165 0.119953
vt 1.426924 0.120875
vt 1.426901 0.122413
vt 1.426395 0.122407
vt 1.429619 0.118967
vt 1.425859 0.106664
vt 1.429616 0.106658
vt 1.425867 0.084051
vt 1.429612 0.084068
vt 1.426694 0.037463
vt 1.429631 0.039318
vt 1.429616 0.051614
vt 1.425865 0.051610
vt 1.425995 0.035673
vt 1.425467 0.034154
vt 1.425973 0.034147
vt 1.425313 0.023741
vt 1.425822 0.023666
vt 1.407801 0.077759
vt 1.405325 0.077787
vt 1.405325 0.071514
vt 1.407801 0.071467
vt 1.357555 0.072742
vt 1.354980 0.049832
vt 1.355571 0.049743
vt 1.780614 0.546640
vt 1.796781 0.546784
vt 1.460575 0.051064
vt 1.459941 0.051153
vt 1.459989 0.041013
vt 1.460580 0.040390
vt 1.408097 0.037586
vt 1.407801 0.035950
vt 1.407778 0.034338
vt 1.408401 0.034398
vt 1.405323 0.039108
vt 1.407801 0.051703
vt 1.405326 0.051653
vt 1.429612 0.071444
vt 1.425867 0.071467
vt 1.429612 0.077756
vt 1.425867 0.077759
vt 1.409200 0.132610
vt 1.408577 0.132594
vt 1.408974 0.150899
vt 1.408358 0.150260
vt 1.408252 0.023985
vt 1.407629 0.024002
vt 1.407375 0.006337
vt 1.407990 0.005696
vt 1.424229 0.004746
vt 1.424815 0.005329
vt 1.375706 0.119071
vt 1.374150 0.118982
vt 1.374149 0.104916
vt 1.375705 0.105593
vt 1.374314 0.038018
vt 1.375706 0.039201
vt 1.375706 0.049226
vt 1.374316 0.048589
vt 1.375581 0.084438
vt 1.375580 0.079115
vt 1.375580 0.073791
vt 1.431157 0.118969
vt 1.431157 0.106881
vt 1.442822 0.106881
vt 1.441639 0.118968
vt 1.441639 0.039305
vt 1.442822 0.051391
vt 1.431157 0.051391
vt 1.431157 0.039303
vt 1.442822 0.083454
vt 1.460083 0.084181
vt 1.431157 0.084112
vt 0.247250 0.215593
vt 0.237936 0.407166
vt 0.021483 0.400252
vt 0.036164 0.210604
vt 0.240085 0.013640
vt 0.250051 0.203974
vt 0.035275 0.200434
vt 0.039463 0.006817
vt 1.431157 0.071385
vt 1.431157 0.077749
vt 0.526014 0.416005
vt 0.526143 0.215986
vt 0.521081 0.015845
vt 0.529700 0.200224
vt 1.393374 0.038759
vt 1.403711 0.038760
vt 1.393374 0.119513
vt 1.403711 0.119513
vt 1.813825 0.542627
vt 1.813429 0.543946
vt 1.812948 0.546928
vt 1.718096 0.484245
vt 1.761938 0.462477
vt 1.743648 0.462309
vt 1.777318 0.462619
vt 1.794192 0.462774
vt 1.811066 0.462929
vt 1.826445 0.463071
vt 1.844736 0.463239
vt 1.871496 0.482228
vt 1.847495 0.542937
vt 1.860554 0.543057
vt 1.829205 0.542769
vt 1.764698 0.542176
vt 1.746408 0.542007
vt 1.733349 0.541887
s 1
usemtl Clock_Texture
f 152/1/1 153/2/1 103/3/1 8/4/1
f 1/5/2 146/6/2 145/7/2 7/8/2 10/9/2
f 8/10/3 9/11/3 12/12/3 11/13/3
f 10/14/3 7/15/3 14/16/3 13/17/3
f 11/13/3 12/12/3 16/18/3 15/19/3
f 13/17/3 14/16/3 18/20/3 17/21/3
f 23/32/7 24/33/7 28/34/7 27/35/7
f 148/36/8 149/37/8 24/33/8 23/32/8
f 25/38/9 26/39/9 34/40/9 33/41/9
f 27/35/10 28/34/10 36/42/10 35/43/10
f 33/41/13 34/40/13 42/48/13 41/49/13
f 35/43/14 36/42/14 49/50/14 48/51/14
f 41/49/17 42/48/17 62/56/17 61/57/17
f 188/58/18 167/59/18 50/60/18 52/61/18
f 44/62/19 43/63/19 46/64/19 45/65/19
f 168/66/20 169/67/20 48/51/20 47/68/20
f 47/68/21 49/50/21 51/69/21 50/60/21
f 177/70/22 178/71/22 60/72/22 62/56/22
f 54/73/23 53/74/23 56/75/23 55/76/23
f 179/77/24 180/78/24 58/79/24 57/80/24
f 57/80/25 59/81/25 61/57/25 60/72/25
f 151/84/27 184/85/27 185/86/27 22/87/27
f 167/59/28 168/66/28 47/68/28 50/60/28
f 172/88/29 173/89/29 148/36/29 23/32/29
f 178/71/30 179/77/30 57/80/30 60/72/30
f 171/90/31 172/88/31 23/32/31 27/35/31
f 22/87/32 185/86/32 186/92/32 30/93/32
f 182/94/33 183/95/33 19/96/33 31/97/33
f 26/39/34 174/100/34 175/101/34 34/40/34
f 170/102/35 171/90/35 27/35/35 35/43/35
f 30/93/36 186/92/36 187/104/36 38/105/36
f 181/106/37 182/94/37 31/97/37 39/107/37
f 34/40/38 175/101/38 176/109/38 42/48/38
f 15/19/3 16/18/3 46/64/3 43/63/3
f 169/67/39 170/110/39 35/111/39 48/51/39
f 38/105/40 187/104/40 188/113/40 52/114/40
f 17/21/3 18/20/3 56/75/3 53/74/3
f 180/115/41 181/106/41 39/107/41 58/116/41
f 42/118/42 176/119/42 177/70/42 62/56/42
f 47/68/43 48/51/43 49/50/43
f 50/120/44 51/69/44 52/114/44
f 57/80/45 58/116/45 59/81/45
f 60/72/46 61/57/46 62/56/46
f 4/121/28 5/122/28 64/123/28 63/124/28
f 73/125/3 74/126/3 4/121/3 63/124/3
f 6/127/30 3/128/30 65/129/30 66/130/30
f 5/122/26 71/131/26 72/132/26 64/123/26
f 63/124/27 64/123/27 72/132/27 73/125/27
f 68/133/26 67/134/26 6/127/26 66/130/26
f 69/135/27 68/133/27 66/130/27 65/129/27
f 3/128/3 70/136/3 69/135/3 65/129/3
f 157/137/26 158/138/26 67/134/26 68/133/26
f 156/139/27 157/137/27 68/133/27 69/135/27
f 69/135/3 70/136/3 155/140/3 156/139/3
f 101/141/47 154/142/47 155/143/47 70/144/47
f 2/145/48 166/146/48 147/147/48 9/148/48
f 78/149/49 77/150/50 80/151/51 79/152/52
f 81/153/53 163/154/29 164/155/29 76/156/54
f 76/156/54 75/157/55 82/158/56 81/153/53
f 103/159/57 102/160/57 2/145/57 9/148/57 8/161/57
f 83/162/58 84/163/58 122/164/58 123/165/58
f 84/166/59 83/167/59 86/168/59 85/169/59
f 85/170/60 86/171/60 144/172/60 146/6/60
f 87/173/61 88/174/61 116/175/61 117/176/61
f 88/174/62 87/177/62 90/178/63 89/179/63
f 89/179/63 90/178/63 100/180/64 99/181/64
f 91/182/65 92/183/65 124/184/65 125/185/65
f 92/186/66 91/182/66 93/187/66 94/188/66
f 94/188/67 93/187/67 112/189/68 113/190/68
f 95/191/69 96/192/69 111/193/69 110/194/69
f 96/195/70 95/191/70 98/196/70 97/197/70
f 97/197/71 98/196/71 127/198/71 126/199/71
f 161/200/72 162/201/72 141/202/73 140/203/73
f 102/160/74 101/204/74 105/205/74 104/206/74
f 101/207/75 103/3/75 153/2/76 154/208/76
f 104/209/77 105/210/77 132/211/77 133/212/77
f 106/213/78 107/214/78 121/215/78 120/216/78
f 107/217/79 106/213/79 108/218/80 109/219/81
f 109/219/81 108/218/80 140/203/73 141/202/73
f 110/194/82 111/193/82 143/220/82 142/221/83
f 159/222/84 160/223/84 142/221/83 143/220/82
f 114/224/85 115/225/85 117/176/85 116/175/85
f 115/225/86 114/224/86 129/226/86 128/227/86
f 118/228/87 119/229/87 131/230/87 130/231/87
f 119/229/88 118/228/88 120/216/88 121/215/88
f 123/165/89 122/164/89 125/185/89 124/184/89
f 126/199/90 127/198/90 133/232/90 132/233/90
f 128/234/91 129/235/91 134/236/91 135/237/91
f 130/238/92 131/239/92 139/240/92 138/241/92
f 135/237/93 134/236/93 1/5/93 136/242/93
f 165/243/94 166/146/94 2/145/95 137/244/95
f 137/244/96 2/145/96 138/241/96 139/240/96
f 99/181/3 112/189/3 93/187/3 89/179/3
f 118/228/97 127/198/97 98/196/97 120/216/97
f 116/175/98 125/185/98 122/164/98 114/224/98
f 124/245/99 5/246/99 4/247/99 123/248/99
f 88/174/3 89/179/3 93/187/3 91/182/3
f 110/194/3 108/218/3 106/213/3 95/191/3
f 126/249/100 3/250/100 6/251/100 97/252/100
f 127/198/101 118/228/101 130/231/101 133/232/101
f 4/247/102 74/253/102 144/254/102 86/168/102
f 129/226/103 114/224/103 122/164/103 84/163/103
f 5/246/104 124/245/104 92/186/104 94/188/104
f 113/190/27 71/255/27 5/246/27 94/188/27
f 97/252/105 6/251/105 111/193/105 96/192/105
f 120/216/106 98/196/106 95/191/106 106/213/106
f 91/182/107 125/185/107 116/175/107 88/174/107
f 108/218/3 110/194/3 142/221/3 140/203/3
f 6/251/27 67/264/27 143/220/27 111/193/27
f 140/203/3 142/221/3 160/223/3 161/200/3
f 143/220/27 67/264/27 158/265/27 159/222/27
f 105/210/110 3/250/110 126/249/110 132/211/110
f 105/210/113 101/141/113 70/144/113 3/250/113
f 4/247/114 86/168/114 83/167/114 123/248/114
f 135/237/115 136/242/116 77/150/50 78/149/49
f 137/244/117 139/240/55 75/157/55 76/156/54
f 76/156/54 164/155/29 165/243/29 137/244/117
f 81/153/53 82/158/56 109/219/118 141/202/119
f 141/202/119 162/201/29 163/154/29 81/153/53
f 79/152/52 80/151/51 100/180/120 90/178/121
f 82/158/56 75/157/55 119/270/122 121/271/123
f 75/157/55 139/240/55 131/239/124 119/270/122
f 82/158/56 121/271/123 107/217/125 109/219/118
f 115/272/126 128/234/127 135/237/115 78/149/49
f 117/273/128 115/272/126 78/149/49 79/152/52
f 90/178/121 87/177/129 117/273/128 79/152/52
f 101/204/130 102/160/130 103/159/130
f 144/172/131 145/7/131 146/6/131
f 148/36/29 173/89/29 174/100/29 26/39/29
f 26/39/8 25/38/8 149/37/8 148/36/8
f 19/96/27 183/95/27 184/85/27 151/84/27
f 7/274/1 145/275/1 153/2/1 152/1/1
f 154/208/76 153/2/76 145/275/132 144/276/132
f 155/143/47 154/142/47 144/254/47 74/253/47
f 156/139/3 155/140/3 74/126/3 73/125/3
f 73/125/27 72/132/27 157/137/27 156/139/27
f 72/132/26 71/131/26 158/138/26 157/137/26
f 159/222/27 158/265/27 71/255/27 113/190/27
f 113/190/68 112/189/68 160/223/84 159/222/84
f 161/200/3 160/223/3 112/189/3 99/181/3
f 99/181/64 100/180/64 162/201/72 161/200/72
f 163/154/29 162/201/29 100/180/120 80/151/51
f 164/155/29 163/154/29 80/151/51 77/150/50
f 165/243/29 164/155/29 77/150/50 136/242/116
f 136/242/133 1/5/133 166/146/94 165/243/94
f 147/147/48 166/146/48 1/5/48 10/9/48
f 44/62/28 45/65/28 168/66/28 167/59/28
f 45/65/134 46/64/134 169/67/134 168/66/134
f 16/277/39 170/110/39 169/67/39 46/64/39
f 12/278/35 171/90/35 170/102/35 16/279/35
f 9/280/31 172/88/31 171/90/31 12/278/31
f 9/280/29 147/281/29 173/89/29 172/88/29
f 174/100/29 173/89/29 147/281/29 10/282/29
f 175/101/34 174/100/34 10/282/34 13/283/34
f 176/109/38 175/101/38 13/283/38 17/284/38
f 177/70/42 176/119/42 17/285/42 53/74/42
f 53/74/135 54/73/135 178/71/135 177/70/135
f 54/73/30 55/76/30 179/77/30 178/71/30
f 55/76/136 56/75/136 180/78/136 179/77/136
f 18/286/41 181/106/41 180/115/41 56/287/41
f 14/288/37 182/94/37 181/106/37 18/286/37
f 7/274/33 183/95/33 182/94/33 14/288/33
f 184/85/27 183/95/27 7/274/27 152/1/27
f 185/86/27 184/85/27 152/1/27 8/4/27
f 186/92/32 185/86/32 8/4/32 11/289/32
f 187/104/36 186/92/36 11/289/36 15/290/36
f 188/113/40 187/104/40 15/290/40 43/291/40
f 43/63/137 44/62/137 167/59/137 188/58/137
usemtl ClearDetail
f 19/22/4 20/23/4 32/24/4 31/25/4
f 150/26/5 151/27/5 22/28/5 21/29/5
f 21/29/6 22/28/6 30/30/6 29/31/6
f 29/31/11 30/30/11 38/44/11 37/45/11
f 31/25/12 32/24/12 40/46/12 39/47/12
f 37/45/15 38/44/15 52/52/15 51/53/15
f 39/47/16 40/46/16 59/54/16 58/55/16
f 149/82/26 150/26/26 21/29/26 24/83/26
f 24/83/26 21/29/26 29/31/26 28/91/26
f 20/23/26 25/98/26 33/99/26 32/24/26
f 28/91/26 29/31/26 37/45/26 36/103/26
f 32/24/26 33/99/26 41/108/26 40/46/26
f 36/103/26 37/45/26 51/53/26 49/112/26
f 40/46/26 41/108/26 61/117/26 59/54/26
f 85/256/108 134/257/108 129/258/108 84/259/108
f 104/260/109 138/261/109 2/262/109 102/263/109
f 1/266/111 134/257/111 85/256/111 146/267/111
f 133/268/112 130/269/112 138/261/112 104/260/112
f 25/98/26 20/23/26 150/26/26 149/82/26
f 20/23/5 19/22/5 151/27/5 150/26/5
