
v -0.039774 0.279153 -0.030912
v -0.039774 0.279153 0.025939
v -0.008531 0.279153 0.025939
v 0.010215 0.279153 0.025939
v 0.038334 0.279153 0.025939
v 0.038334 0.279153 -0.030912
v -0.075297 0.155718 0.036532
v -0.048728 0.155719 0.028921
v -0.073087 0.168298 0.035947
v -0.050804 0.168299 0.029529
v -0.075533 0.167816 0.028274
v -0.051428 0.167817 0.021332
v -0.077797 0.154384 0.028872
v -0.049058 0.154385 0.020639
v -0.074111 0.168678 0.035821
v -0.050007 0.168679 0.028880
v -0.047758 0.155247 0.028221
v -0.076497 0.155246 0.036453
v -0.067946 0.154066 0.033441
v -0.068546 0.153459 0.033110
v -0.069920 0.152753 0.026605
v -0.055140 0.153459 0.029270
v -0.055553 0.154067 0.029891
v -0.056515 0.152754 0.022764
v -0.061386 0.153003 0.032894
v -0.061831 0.152314 0.031230
v -0.063206 0.151609 0.024724
v -0.062995 0.172027 0.024675
v -0.061574 0.172889 0.032223
v -0.061148 0.172186 0.033812
v -0.080452 0.159574 0.038020
v -0.068427 0.161573 0.036044
v -0.060697 0.161768 0.035216
v -0.043567 0.159575 0.027454
v -0.042175 0.159418 0.026634
v -0.043475 0.158556 0.019052
v -0.055655 0.160719 0.022529
v -0.063003 0.160920 0.024645
v -0.070356 0.160719 0.026762
v -0.083373 0.158555 0.030481
v -0.082074 0.159417 0.038063
v -0.072642 0.167235 0.027439
v -0.069123 0.167914 0.026428
v -0.067702 0.168776 0.033976
v -0.071220 0.168097 0.034987
v -0.067162 0.168389 0.034240
v -0.070415 0.167761 0.035175
v -0.052587 0.167851 0.030042
v -0.055970 0.168478 0.031018
v -0.051935 0.168194 0.029434
v -0.055472 0.168789 0.030454
v -0.056893 0.167927 0.022906
v -0.053357 0.167332 0.021886
v -0.072481 0.161563 0.037212
v -0.074411 0.160709 0.027930
v -0.052178 0.160710 0.021527
v -0.054193 0.161586 0.031945
v -0.050249 0.161564 0.030809
v -0.071665 0.154200 0.035487
v -0.072569 0.153604 0.035323
v -0.073869 0.152742 0.027742
v -0.072789 0.160713 0.027463
v -0.071234 0.167506 0.027035
v -0.069813 0.168368 0.034583
v -0.069114 0.168012 0.034801
v -0.070860 0.161567 0.036745
v -0.051228 0.153605 0.029210
v -0.051937 0.154201 0.029836
v -0.051827 0.161573 0.031264
v -0.053940 0.168102 0.030432
v -0.053350 0.168432 0.029842
v -0.054771 0.167570 0.022294
v -0.053569 0.160713 0.021928
v -0.052528 0.152743 0.021628
v -0.072012 0.168630 0.034478
v -0.052396 0.168631 0.028855
v -0.072004 0.179056 0.034506
v -0.052388 0.179057 0.028883
v -0.073879 0.178301 0.028747
v -0.052660 0.178302 0.022665
v -0.073894 0.167287 0.028692
v -0.052676 0.167288 0.022610
v -0.072885 0.179171 0.034468
v -0.051666 0.179172 0.028386
v -0.051681 0.168158 0.028331
v -0.072900 0.168157 0.034413
v -0.066589 0.166977 0.032179
v -0.068079 0.165657 0.027016
v -0.057439 0.166977 0.029556
v -0.058181 0.165657 0.024179
v -0.061741 0.165915 0.031793
v -0.063122 0.164512 0.025626
v -0.062849 0.182776 0.025571
v -0.061855 0.183646 0.031292
v -0.061535 0.182945 0.032492
v -0.075817 0.172486 0.035580
v -0.067949 0.172332 0.034425
v -0.061189 0.172529 0.033543
v -0.048585 0.172487 0.027774
v -0.046892 0.172329 0.026976
v -0.047860 0.171459 0.021247
v -0.056389 0.171469 0.023686
v -0.062857 0.171669 0.025541
v -0.069330 0.171468 0.027396
v -0.078678 0.171458 0.030070
v -0.077709 0.172328 0.035798
v -0.071341 0.177984 0.027991
v -0.068243 0.178663 0.027105
v -0.067249 0.179533 0.032826
v -0.070347 0.178854 0.033712
v -0.066788 0.179147 0.033011
v -0.069651 0.178519 0.033830
v -0.053958 0.178609 0.029332
v -0.056936 0.179236 0.030187
v -0.053371 0.178951 0.028847
v -0.056484 0.179547 0.029741
v -0.057478 0.178677 0.024019
v -0.054365 0.178082 0.023125
v -0.071518 0.172322 0.035448
v -0.072899 0.171458 0.028419
v -0.053328 0.171459 0.022809
v -0.055419 0.172346 0.030834
v -0.051948 0.172323 0.029839
v -0.069331 0.167112 0.033705
v -0.070000 0.166515 0.033577
v -0.070994 0.165645 0.027856
v -0.071471 0.171462 0.028009
v -0.070102 0.178256 0.027637
v -0.069108 0.179126 0.033358
v -0.068506 0.178770 0.033502
v -0.070090 0.172326 0.035039
v -0.054244 0.166516 0.029061
v -0.054765 0.167113 0.029530
v -0.053337 0.172332 0.030237
v -0.055149 0.178860 0.029674
v -0.054616 0.179190 0.029204
v -0.055610 0.178320 0.023483
v -0.054553 0.171463 0.023160
v -0.055238 0.165646 0.023339
v -0.068772 0.188280 0.031303
v -0.056582 0.188281 0.027832
v -0.069335 0.194355 0.031554
v -0.056002 0.194356 0.027765
v -0.070280 0.194021 0.028822
v -0.055857 0.194021 0.024723
v -0.069702 0.187375 0.028565
v -0.056517 0.187375 0.024811
v -0.069921 0.194609 0.031571
v -0.055499 0.194610 0.027472
v -0.056126 0.187963 0.027550
v -0.069312 0.187963 0.031305
v -0.065374 0.187171 0.029981
v -0.066089 0.186281 0.027531
v -0.059688 0.187171 0.028362
v -0.059938 0.186281 0.025780
v -0.062399 0.186459 0.029610
v -0.063009 0.185513 0.026668
v -0.062838 0.197763 0.026641
v -0.062447 0.198351 0.029381
v -0.062298 0.197882 0.029950
v -0.071136 0.190866 0.031984
v -0.066289 0.190764 0.031126
v -0.062128 0.190897 0.030442
v -0.054214 0.190867 0.027165
v -0.053061 0.190761 0.026689
v -0.053433 0.190173 0.023944
v -0.058824 0.190179 0.025476
v -0.062844 0.190314 0.026621
v -0.066866 0.190179 0.027766
v -0.072763 0.190172 0.029442
v -0.072392 0.190760 0.032187
v -0.068115 0.194549 0.028134
v -0.066190 0.195005 0.027587
v -0.065800 0.195593 0.030327
v -0.067725 0.195138 0.030874
v -0.065525 0.195334 0.030399
v -0.067304 0.194913 0.030904
v -0.057552 0.194973 0.028128
v -0.059403 0.195394 0.028656
v -0.057175 0.195203 0.027870
v -0.059110 0.195602 0.028422
v -0.059500 0.195014 0.025682
v -0.057566 0.194614 0.025131
v -0.068506 0.190758 0.031757
v -0.069084 0.190172 0.028397
v -0.056922 0.190172 0.024934
v -0.058502 0.190773 0.028909
v -0.056345 0.190758 0.028294
v -0.067106 0.187262 0.030826
v -0.067510 0.186862 0.030789
v -0.067901 0.186273 0.028049
v -0.068196 0.190175 0.028144
v -0.067345 0.194731 0.027915
v -0.066955 0.195320 0.030655
v -0.066593 0.195081 0.030702
v -0.067619 0.190760 0.031505
v -0.057719 0.186862 0.028001
v -0.058054 0.187262 0.028248
v -0.057208 0.190764 0.028540
v -0.058293 0.195141 0.028339
v -0.057949 0.195362 0.028091
v -0.058340 0.194774 0.025351
v -0.057683 0.190175 0.025151
v -0.058109 0.186274 0.025261
v -0.070031 0.178908 0.032393
v -0.055030 0.178908 0.028097
v -0.070718 0.186437 0.032725
v -0.054309 0.186437 0.028037
v -0.072130 0.186027 0.028469
v -0.054380 0.186027 0.023398
v -0.071426 0.177789 0.028129
v -0.055199 0.177789 0.023483
v -0.071453 0.186752 0.032702
v -0.053703 0.186753 0.027631
v -0.054481 0.178515 0.027705
v -0.070708 0.178514 0.032351
v -0.065879 0.177533 0.030655
v -0.066979 0.176433 0.026849
v -0.058881 0.177533 0.028651
v -0.059409 0.176433 0.024681
v -0.062178 0.176650 0.030335
v -0.063188 0.175482 0.025786
v -0.062978 0.190665 0.025748
v -0.062260 0.191390 0.029970
v -0.062025 0.190808 0.030854
v -0.072941 0.182113 0.033235
v -0.066932 0.181986 0.032326
v -0.061770 0.182149 0.031626
v -0.052115 0.182113 0.027272
v -0.051328 0.181982 0.026812
v -0.052046 0.181257 0.022590
v -0.058038 0.181265 0.024306
v -0.062985 0.181432 0.025723
v -0.067935 0.181264 0.027140
v -0.074573 0.181256 0.029041
v -0.073856 0.181982 0.033263
v -0.069472 0.186681 0.027596
v -0.067104 0.187246 0.026919
v -0.066386 0.187971 0.031141
v -0.068755 0.187407 0.031818
v -0.066036 0.187650 0.031274
v -0.068225 0.187128 0.031900
v -0.056224 0.187203 0.028463
v -0.058501 0.187724 0.029117
v -0.055773 0.187488 0.028101
v -0.058153 0.187983 0.028784
v -0.058870 0.187257 0.024562
v -0.056490 0.186762 0.023879
v -0.069661 0.181977 0.033107
v -0.070664 0.181256 0.027921
v -0.055698 0.181257 0.023636
v -0.057350 0.181997 0.029582
v -0.054695 0.181978 0.028822
v -0.067981 0.177646 0.031802
v -0.068491 0.177149 0.031712
v -0.069208 0.176424 0.027490
v -0.069572 0.181259 0.027609
v -0.068525 0.186907 0.027325
v -0.067807 0.187633 0.031547
v -0.067349 0.187337 0.031649
v -0.068569 0.181981 0.032795
v -0.056441 0.177150 0.028262
v -0.056842 0.177646 0.028612
v -0.055757 0.181985 0.029126
v -0.057135 0.187412 0.028725
v -0.056725 0.187686 0.028374
v -0.057442 0.186960 0.024152
v -0.056634 0.181260 0.023904
v -0.057158 0.176424 0.024040
v -0.068009 0.195265 0.030045
v -0.057823 0.195265 0.027154
v -0.068690 0.194284 0.028105
v -0.057672 0.194284 0.024978
v -0.057437 0.194923 0.026936
v -0.068456 0.194922 0.030064
v -0.062689 0.193302 0.028619
v -0.062800 0.192801 0.028194
v -0.063098 0.192278 0.026522
v -0.063002 0.209117 0.026329
v -0.062768 0.209858 0.028288
v -0.062663 0.209273 0.028692
v -0.069994 0.198469 0.030580
v -0.062500 0.198503 0.029180
v -0.055853 0.198469 0.026566
v -0.054885 0.198354 0.026186
v -0.055104 0.197716 0.024223
v -0.062968 0.197868 0.026453
v -0.071257 0.197716 0.028803
v -0.071038 0.198354 0.030767
v -0.067351 0.201515 0.027791
v -0.067117 0.202153 0.029750
v -0.066771 0.201912 0.029758
v -0.058622 0.201976 0.027445
v -0.058302 0.202223 0.027248
v -0.058536 0.201585 0.025289
v -0.067814 0.198352 0.030332
v -0.068182 0.197716 0.027933
v -0.058020 0.197716 0.025049
v -0.057651 0.198352 0.027448
vn 0.3944 0.2071 0.8953
vn 0.3975 0.0462 0.9164
vn 0.4257 0.0168 0.9047
vn 0.4372 0.2025 0.8763
vn -0.2767 0.0028 -0.9609
vn -0.2768 0.0015 -0.9609
vn -0.2764 0.0015 -0.9610
vn 0.1374 -0.9809 0.1380
vn 0.1261 -0.9886 0.0819
vn 0.2556 -0.9646 0.0644
vn 0.2705 -0.9505 0.1532
vn 0.7542 0.6546 -0.0515
vn 0.9709 0.2097 -0.1157
vn 0.9733 0.1323 -0.1874
vn 0.7197 0.6634 -0.2050
vn -0.9792 0.1259 0.1590
vn -0.9452 0.2258 0.2359
vn -0.7175 0.6632 0.2130
vn -0.7521 0.6562 0.0605
vn 0.5180 0.0427 0.8543
vn 0.5237 0.2425 0.8167
vn 0.2834 -0.8125 0.5094
vn 0.1760 -0.6054 0.7763
vn 0.0144 0.0427 0.9990
vn -0.0098 0.2412 0.9704
vn -0.0386 -0.9825 0.1821
vn 0.0420 -0.9849 0.1680
vn 0.1468 -0.8415 0.5199
vn 0.0361 -0.8115 0.5832
vn -0.0719 -0.9897 0.1237
vn 0.0362 -0.9943 0.1001
vn -0.2755 0.0030 -0.9613
vn -0.2751 0.0034 -0.9614
vn -0.2748 0.0035 -0.9615
vn -0.2750 0.0031 -0.9614
vn 0.1508 -0.2805 0.9479
vn 0.2638 -0.2927 0.9191
vn 0.2763 -0.0542 0.9595
vn 0.1455 -0.0722 0.9867
vn 0.3589 -0.1928 0.9132
vn 0.4597 -0.2968 0.8370
vn 0.6171 -0.7758 0.1318
vn 0.5965 -0.8025 -0.0110
vn -0.2777 -0.0000 -0.9607
vn -0.2760 0.0002 -0.9612
vn -0.2751 0.0039 -0.9614
vn -0.5531 -0.8118 0.1871
vn -0.5045 -0.8000 0.3248
vn 0.0541 -0.2958 0.9537
vn -0.4862 0.8738 -0.0082
vn -0.2089 0.9753 -0.0720
vn -0.1945 0.9807 -0.0182
vn -0.4690 0.8811 0.0616
vn 0.0927 0.6469 0.7569
vn -0.3240 0.7135 0.6212
vn 0.6111 0.7003 0.3689
vn 0.3126 0.6701 0.6732
vn 0.1416 0.9862 -0.0859
vn 0.4565 0.8804 -0.1286
vn 0.1262 0.9826 -0.1360
vn 0.4163 0.8912 -0.1802
vn 0.5084 0.8395 -0.1916
vn 0.5325 0.8369 -0.1264
vn 0.6247 0.6981 0.3500
vn 0.1582 0.9784 -0.1332
vn 0.0610 0.9945 -0.0852
vn 0.0269 0.9926 -0.1184
vn 0.1559 0.9777 -0.1410
vn 0.2838 0.8863 0.3660
vn 0.1436 0.7233 0.6754
vn -0.0864 0.9943 -0.0616
vn 0.2530 0.7077 0.6597
vn -0.1177 0.9135 0.3895
vn -0.2583 0.9645 -0.0553
vn -0.1108 0.9896 -0.0921
vn -0.2597 0.9637 -0.0611
vn -0.5443 0.8353 0.0771
vn -0.5554 0.8315 0.0096
vn -0.3557 0.7127 0.6045
vn 0.0617 0.1848 0.9808
vn 0.2708 0.1853 0.9446
vn 0.2599 -0.6013 0.7555
vn -0.1658 -0.9587 0.2310
vn -0.1533 -0.9788 0.1360
vn 0.1606 0.0465 0.9859
vn 0.1564 0.2016 0.9669
vn 0.1181 0.1935 0.9740
vn 0.1320 0.0268 0.9909
vn 0.1819 -0.1915 0.9645
vn 0.2531 0.2121 0.9439
vn 0.3045 -0.0759 0.9495
vn 0.3277 -0.2253 0.9175
vn -0.2754 0.0022 -0.9613
vn -0.2742 0.0015 -0.9617
vn -0.2763 0.0037 -0.9611
vn -0.2761 0.0039 -0.9611
vn -0.2758 0.0016 -0.9612
vn -0.2749 0.0003 -0.9615
vn -0.2743 0.0025 -0.9616
vn -0.2737 0.0025 -0.9618
vn -0.2736 0.0011 -0.9618
vn -0.2743 0.0015 -0.9617
vn -0.2742 -0.0000 -0.9617
vn 0.4102 -0.0677 0.9095
vn 0.4747 0.1824 0.8611
vn 0.3784 -0.2763 0.8835
vn 0.2446 -0.0619 0.9676
vn 0.2879 0.2087 0.9346
vn 0.1977 -0.2241 0.9543
vn 0.0966 -0.3971 0.9127
vn -0.3220 -0.9210 0.2192
vn -0.3401 -0.9261 0.1636
vn 0.4448 -0.8921 0.0796
vn 0.4145 -0.3768 0.8284
vn 0.4341 -0.9005 0.0279
vn 0.3803 0.1585 0.9112
vn 0.4192 0.0052 0.9079
vn 0.4588 0.0595 0.8866
vn 0.4333 0.1543 0.8879
vn -0.2755 0.0028 -0.9613
vn -0.2758 0.0026 -0.9612
vn -0.2756 0.0020 -0.9613
vn 0.8223 0.5688 0.0170
vn 0.9966 0.0516 -0.0636
vn 0.9852 -0.0632 -0.1593
vn 0.7766 0.5893 -0.2227
vn -0.9816 -0.0677 0.1785
vn -0.9549 0.0696 0.2886
vn -0.7578 0.5859 0.2873
vn -0.8123 0.5810 0.0509
vn 0.4597 -0.0107 0.8880
vn 0.4700 0.1367 0.8720
vn 0.0795 -0.0108 0.9968
vn 0.0624 0.1369 0.9886
vn -0.2771 0.0053 -0.9608
vn -0.2765 0.0046 -0.9610
vn -0.2770 0.0054 -0.9608
vn -0.2778 0.0063 -0.9606
vn 0.1365 -0.2977 0.9449
vn 0.2609 -0.3149 0.9126
vn 0.2758 -0.0444 0.9602
vn 0.1546 -0.0474 0.9868
vn 0.3963 -0.2549 0.8820
vn 0.4322 -0.1959 0.8803
vn 0.6726 -0.7184 0.1775
vn 0.6561 -0.7547 0.0022
vn -0.2774 0.0017 -0.9607
vn -0.2755 0.0012 -0.9613
vn -0.2753 0.0028 -0.9613
vn -0.6033 -0.7666 0.2199
vn -0.5390 -0.7465 0.3901
vn -0.5390 -0.7465 0.3902
vn 0.0985 -0.1965 0.9755
vn -0.5384 0.8420 -0.0345
vn -0.2414 0.9647 -0.1047
vn -0.2233 0.9742 -0.0341
vn -0.5200 0.8522 0.0582
vn 0.1197 0.5404 0.8328
vn -0.3017 0.6344 0.7117
vn 0.6379 0.6207 0.4559
vn 0.3305 0.5643 0.7565
vn 0.1575 0.9817 -0.1065
vn 0.5052 0.8514 -0.1412
vn 0.1371 0.9755 -0.1721
vn 0.4529 0.8664 -0.2104
vn 0.5515 0.8051 -0.2182
vn 0.5801 0.8028 -0.1378
vn 0.6535 0.6201 0.4340
vn 0.0765 0.9845 -0.1577
vn -0.0063 0.9935 -0.1133
vn -0.0405 0.9888 -0.1433
vn 0.0744 0.9839 -0.1625
vn 0.2406 0.9338 0.2648
vn 0.1485 0.6399 0.7539
vn -0.0231 0.9935 -0.1117
vn 0.2883 0.6097 0.7383
vn -0.1128 0.9497 0.2920
vn -0.1590 0.9803 -0.1171
vn -0.0436 0.9888 -0.1428
vn -0.1593 0.9797 -0.1213
vn -0.5967 0.7997 0.0667
vn -0.6089 0.7931 -0.0148
vn -0.3396 0.6368 0.6922
vn 0.0903 0.1407 0.9859
vn 0.2717 0.1403 0.9521
vn 0.1452 0.0117 0.9893
vn 0.1773 0.1544 0.9720
vn 0.1344 0.1468 0.9800
vn 0.1125 0.0651 0.9915
vn 0.1395 -0.2461 0.9592
vn 0.2569 0.1613 0.9529
vn 0.2826 -0.0480 0.9580
vn 0.3394 -0.2302 0.9120
vn -0.2752 0.0025 -0.9614
vn -0.2738 0.0015 -0.9618
vn -0.2757 0.0029 -0.9612
vn -0.2760 0.0030 -0.9611
vn -0.2754 0.0028 -0.9613
vn -0.2750 0.0029 -0.9614
vn -0.2727 0.0053 -0.9621
vn -0.2715 0.0063 -0.9624
vn -0.2724 0.0053 -0.9622
vn -0.2734 0.0045 -0.9619
vn -0.2752 0.0029 -0.9614
vn 0.3997 -0.0451 0.9156
vn 0.4507 0.1390 0.8818
vn 0.3890 -0.2952 0.8727
vn 0.2680 -0.0365 0.9627
vn 0.2870 0.1586 0.9447
vn 0.1827 -0.2300 0.9559
vn 0.0966 -0.3108 0.9456
vn -0.2752 0.0027 -0.9614
vn 0.4312 -0.2939 0.8530
vn 0.5691 -0.8064 0.1609
vn 0.5587 -0.8217 0.1128
vn 0.1828 -0.2300 0.9559
vn 0.5458 -0.8373 0.0325
vn 0.3342 0.1077 0.9363
vn 0.3786 -0.0061 0.9255
vn 0.4074 0.0300 0.9128
vn 0.3854 0.0983 0.9175
vn -0.2739 0.0028 -0.9618
vn -0.2741 0.0026 -0.9617
vn -0.2739 0.0023 -0.9618
vn 0.8517 0.5141 0.1013
vn 0.9993 -0.0224 0.0306
vn 0.9780 -0.1866 -0.0928
vn 0.8025 0.5526 -0.2249
vn -0.9668 -0.1892 0.1718
vn -0.9456 0.0042 0.3253
vn -0.7777 0.5469 0.3101
vn -0.8412 0.5406 -0.0041
vn 0.4067 -0.0289 0.9131
vn 0.4154 0.0684 0.9071
vn 0.1342 -0.0290 0.9905
vn 0.1236 0.0691 0.9899
vn -0.2814 0.0119 -0.9595
vn -0.2797 0.0100 -0.9600
vn -0.2825 0.0135 -0.9592
vn -0.2856 0.0170 -0.9582
vn 0.1690 -0.2168 0.9615
vn 0.2660 -0.2293 0.9363
vn 0.2742 -0.0325 0.9611
vn 0.1811 -0.0343 0.9829
vn 0.3689 -0.1846 0.9109
vn 0.3923 -0.1377 0.9095
vn 0.6893 -0.6673 0.2821
vn 0.6812 -0.7295 0.0618
vn -0.2753 0.0020 -0.9614
vn -0.2738 0.0017 -0.9618
vn -0.2736 0.0027 -0.9618
vn -0.6133 -0.7505 0.2462
vn -0.5218 -0.7158 0.4641
vn 0.1445 -0.1383 0.9798
vn -0.5758 0.8124 -0.0923
vn -0.2712 0.9483 -0.1649
vn -0.2478 0.9665 -0.0674
vn -0.5556 0.8306 0.0360
vn 0.1565 0.4147 0.8964
vn -0.2276 0.5352 0.8135
vn 0.6254 0.5224 0.5796
vn 0.3331 0.4367 0.8357
vn 0.1634 0.9772 -0.1358
vn 0.5369 0.8302 -0.1504
vn 0.1346 0.9647 -0.2263
vn 0.4648 0.8497 -0.2488
vn 0.5721 0.7814 -0.2494
vn 0.6091 0.7802 -0.1425
vn 0.6429 0.5251 0.5576
vn -0.2662 0.9580 -0.1066
vn -0.2415 0.9701 -0.0252
vn -0.2783 0.9463 -0.1645
vn -0.2812 0.9455 -0.1643
vn 0.1809 0.4065 0.8956
vn 0.1695 0.4104 0.8960
vn 0.2671 0.9602 -0.0821
vn 0.3369 0.3910 0.8565
vn 0.3414 0.3651 0.8661
vn 0.2885 0.9413 -0.1752
vn 0.2348 0.9433 -0.2346
vn 0.2704 0.9331 -0.2370
vn -0.6332 0.7734 0.0319
vn -0.6457 0.7603 -0.0712
vn -0.2696 0.5433 0.7951
vn 0.1318 0.0999 0.9862
vn 0.2715 0.0990 0.9573
vn 0.1788 -0.0008 0.9839
vn 0.2139 0.1062 0.9711
vn 0.1750 0.0956 0.9799
vn 0.1555 0.0363 0.9872
vn 0.1728 -0.1779 0.9688
vn 0.2605 0.1140 0.9587
vn 0.2797 -0.0347 0.9594
vn 0.3259 -0.1661 0.9307
vn -0.2736 0.0026 -0.9618
vn -0.2724 0.0018 -0.9622
vn -0.2740 0.0028 -0.9617
vn -0.2744 0.0030 -0.9616
vn -0.2737 0.0028 -0.9618
vn -0.2734 0.0029 -0.9619
vn -0.2637 0.0126 -0.9645
vn -0.2577 0.0183 -0.9660
vn -0.2617 0.0143 -0.9651
vn -0.2658 0.0104 -0.9640
vn -0.2736 0.0028 -0.9618
vn 0.3699 -0.0327 0.9285
vn 0.4116 0.0989 0.9060
vn 0.3662 -0.2152 0.9053
vn 0.2677 -0.0266 0.9631
vn 0.2837 0.1123 0.9523
vn 0.2034 -0.1659 0.9649
vn -0.3918 -0.8285 0.4002
vn 0.1372 -0.2274 0.9641
vn -0.4030 -0.8350 0.3746
vn -0.4524 -0.8565 0.2484
vn -0.2743 0.0029 -0.9616
vn 0.4005 -0.2150 0.8907
vn 0.5953 -0.7631 0.2518
vn 0.5951 -0.7780 0.2016
vn 0.5836 -0.8070 0.0901
vn 0.3502 0.1350 0.9269
vn 0.4058 -0.0069 0.9139
vn 0.4417 0.0372 0.8964
vn 0.4138 0.1229 0.9020
vn -0.2753 0.0028 -0.9614
vn -0.2756 0.0026 -0.9613
vn -0.2753 0.0021 -0.9614
vn 0.8935 0.4476 -0.0374
vn 0.9978 -0.0425 -0.0507
vn 0.9775 -0.1613 -0.1359
vn 0.8591 0.4617 -0.2210
vn -0.9680 -0.1639 0.1901
vn -0.9561 -0.0250 0.2919
vn -0.8512 0.4618 0.2493
vn -0.8863 0.4582 0.0676
vn 0.4993 -0.0367 0.8656
vn 0.5144 0.1102 0.8504
vn 0.0354 -0.0370 0.9987
vn 0.0145 0.1097 0.9939
vn -0.2857 0.0134 -0.9582
vn -0.2837 0.0114 -0.9588
vn -0.2881 0.0159 -0.9575
vn -0.2921 0.0199 -0.9562
vn 0.1430 -0.2667 0.9531
vn 0.2635 -0.2824 0.9224
vn 0.2756 -0.0395 0.9605
vn 0.1576 -0.0427 0.9866
vn 0.3921 -0.2276 0.8913
vn 0.4684 -0.2046 0.8595
vn 0.7502 -0.6471 0.1359
vn 0.7386 -0.6741 -0.0097
vn -0.2771 0.0018 -0.9608
vn -0.2752 0.0014 -0.9614
vn -0.6881 -0.6865 0.2349
vn -0.6338 -0.6748 0.3781
vn -0.6338 -0.6747 0.3782
vn 0.0584 -0.2039 0.9773
vn -0.5707 0.8200 -0.0439
vn -0.2624 0.9575 -0.1199
vn -0.2426 0.9693 -0.0406
vn -0.5533 0.8308 0.0607
vn 0.1276 0.4950 0.8595
vn -0.2979 0.5935 0.7477
vn 0.6530 0.5800 0.4870
vn 0.3385 0.5183 0.7854
vn 0.1700 0.9783 -0.1181
vn 0.5377 0.8300 -0.1485
vn 0.1467 0.9704 -0.1917
vn 0.4790 0.8479 -0.2271
vn 0.5803 0.7804 -0.2327
vn 0.6107 0.7781 -0.1467
vn 0.6705 0.5799 0.4628
vn -0.2590 0.9633 -0.0704
vn -0.2386 0.9711 -0.0078
vn -0.2696 0.9556 -0.1192
vn -0.2725 0.9548 -0.1189
vn 0.1569 0.4865 0.8595
vn 0.1436 0.4904 0.8596
vn 0.2702 0.9592 -0.0833
vn 0.3452 0.4682 0.8134
vn 0.3515 0.4401 0.8263
vn 0.2969 0.9424 -0.1543
vn 0.2455 0.9478 -0.2034
vn 0.2823 0.9367 -0.2073
vn -0.6296 0.7743 0.0641
vn -0.6417 0.7666 -0.0227
vn -0.3404 0.5970 0.7265
vn 0.0965 0.1248 0.9875
vn 0.2721 0.1244 0.9542
vn 0.1556 -0.0003 0.9878
vn 0.1994 0.1330 0.9708
vn 0.1505 0.1198 0.9813
vn 0.1258 0.0452 0.9910
vn 0.1473 -0.2197 0.9644
vn 0.2579 0.1430 0.9555
vn 0.2827 -0.0427 0.9583
vn 0.3391 -0.2056 0.9180
vn -0.2749 0.0025 -0.9615
vn -0.2737 0.0018 -0.9618
vn -0.2755 0.0029 -0.9613
vn -0.2758 0.0029 -0.9612
vn -0.2751 0.0028 -0.9614
vn -0.2748 0.0029 -0.9615
vn -0.2621 0.0143 -0.9649
vn -0.2535 0.0218 -0.9671
vn -0.2590 0.0170 -0.9657
vn -0.2649 0.0118 -0.9642
vn 0.3960 -0.0407 0.9173
vn 0.4457 0.1233 0.8866
vn 0.3873 -0.2645 0.8832
vn 0.2674 -0.0327 0.9630
vn 0.2870 0.1408 0.9475
vn 0.1858 -0.2054 0.9609
vn 0.1034 -0.2789 0.9547
vn 0.4292 -0.2636 0.8639
vn 0.5943 -0.7846 0.1765
vn 0.5919 -0.7946 0.1349
vn 0.1859 -0.2054 0.9609
vn 0.5790 -0.8143 0.0415
vn 0.3633 0.0612 0.9296
vn 0.3610 -0.0119 0.9325
vn 0.4393 0.0129 0.8982
vn -0.2730 -0.0034 -0.9620
vn -0.2728 -0.0016 -0.9621
vn -0.2533 -0.0009 -0.9674
vn -0.2634 -0.0016 -0.9647
vn 0.1034 -0.9517 0.2893
vn 0.3987 -0.8888 0.2259
vn 0.4120 -0.8517 0.3237
vn 0.1012 -0.9069 0.4090
vn -0.8100 0.5779 -0.0999
vn -0.9935 0.0658 0.0932
vn -0.9242 0.3075 0.2266
vn -0.8044 0.5817 0.1208
vn 0.3977 -0.4708 0.7875
vn 0.2391 -0.4807 0.8437
vn 0.1477 0.0249 0.9887
vn -0.1039 0.2320 0.9672
vn 0.0848 -0.4776 0.8745
vn -0.1847 -0.8743 0.4489
vn -0.2354 -0.9151 0.3273
vn -0.2923 -0.0006 -0.9563
vn -0.2817 -0.0014 -0.9595
vn -0.2724 0.0071 -0.9622
vn 0.2705 -0.1102 0.9564
vn 0.2731 -0.0068 0.9620
vn 0.1877 -0.0138 0.9821
vn 0.2115 -0.1088 0.9713
vn 0.3340 -0.1109 0.9360
vn 0.3816 -0.0744 0.9213
vn 0.7921 -0.5179 0.3232
vn 0.9740 0.2264 0.0003
vn 0.3922 0.0143 0.9198
vn 0.9939 -0.0207 -0.1080
vn 0.8078 -0.5816 0.0961
vn -0.2730 -0.0063 -0.9620
vn -0.2724 -0.0064 -0.9622
vn -0.2734 -0.0065 -0.9619
vn -0.7381 -0.6118 0.2843
vn -0.6289 -0.5763 0.5219
vn 0.1584 -0.0747 0.9845
vn -0.8729 0.4835 -0.0658
vn -0.8668 0.4973 0.0382
vn -0.2727 0.3061 0.9121
vn 0.6944 0.2951 0.6563
vn 0.5856 0.2170 0.7810
vn 0.8277 0.5547 -0.0857
vn 0.8406 0.5149 -0.1682
vn 0.7492 0.5958 -0.2895
vn 0.8104 0.5155 -0.2786
vn 0.2722 0.0611 0.9603
vn 0.1808 0.0627 0.9815
vn 0.1139 0.0160 0.9934
vn -0.2723 0.0081 -0.9622
vt 1.435078 0.812269
vt 1.450217 0.816501
vt 1.455641 0.833618
vt 1.434189 0.816686
vt 1.433024 0.773461
vt 1.449069 0.770160
vt 1.449080 0.787143
vt 1.424235 0.787805
vt 1.986857 0.441717
vt 1.967335 0.440712
vt 1.967263 0.430844
vt 1.989774 0.432707
vt 1.985674 0.488807
vt 1.984653 0.508176
vt 1.962082 0.509064
vt 1.963116 0.489395
vt 1.967241 0.410392
vt 1.989811 0.409503
vt 1.988895 0.429174
vt 1.966337 0.429763
vt 1.456163 0.837285
vt 1.433376 0.818944
vt 1.988291 0.443060
vt 1.990988 0.434731
vt 1.430998 0.759789
vt 1.452227 0.739410
vt 1.452002 0.743137
vt 1.431990 0.762000
vt 1.987155 0.474914
vt 1.987126 0.458314
vt 1.992193 0.458357
vt 1.988567 0.473750
vt 1.967633 0.473910
vt 1.967605 0.457309
vt 1.435556 0.809789
vt 1.450264 0.813474
vt 1.455642 0.834027
vt 1.434437 0.816501
vt 1.466354 0.773926
vt 1.469496 0.789075
vt 1.448664 0.789997
vt 1.448400 0.771893
vt 1.464297 0.820602
vt 1.465526 0.823205
vt 1.967109 0.408436
vt 1.989621 0.410299
vt 1.989710 0.424116
vt 1.967199 0.422253
vt 1.466941 0.771665
vt 1.469921 0.787068
vt 1.464623 0.820899
vt 1.967838 0.493423
vt 1.990350 0.495286
vt 1.990508 0.509103
vt 1.967997 0.507239
vt 1.462691 0.752704
vt 1.461676 0.755426
vt 1.965481 0.445620
vt 1.965760 0.440397
vt 1.988318 0.439809
vt 1.988039 0.445031
vt 1.989426 0.441322
vt 1.989168 0.446150
vt 1.987673 0.473837
vt 1.987399 0.478859
vt 1.986119 0.480536
vt 1.986405 0.475287
vt 1.963561 0.481125
vt 1.963847 0.475875
vt 1.964697 0.460773
vt 1.987255 0.460184
vt 1.992090 0.460355
vt 1.988504 0.436327
vt 1.965945 0.436916
vt 1.989959 0.431491
vt 1.989597 0.438103
vt 1.985928 0.484035
vt 1.987216 0.482207
vt 1.986981 0.486618
vt 1.963370 0.484624
vt 1.432361 0.776550
vt 1.423896 0.790842
vt 1.991427 0.483588
vt 1.990249 0.485556
vt 1.967737 0.483693
vt 1.448024 0.761942
vt 1.433532 0.768509
vt 1.433063 0.771726
vt 1.448174 0.765922
vt 1.465643 0.764194
vt 1.433818 0.801705
vt 1.449989 0.804112
vt 1.467779 0.802612
vt 1.450154 0.809729
vt 1.434861 0.806555
vt 1.468051 0.811731
vt 1.433690 0.768539
vt 1.448952 0.765343
vt 1.466717 0.762465
vt 1.434134 0.765258
vt 1.432930 0.760833
vt 1.453149 0.741922
vt 1.448874 0.762131
vt 1.462827 0.754553
vt 1.449774 0.806825
vt 1.433254 0.804024
vt 1.467577 0.804327
vt 1.450040 0.812631
vt 1.434348 0.808971
vt 1.467589 0.812591
vt 1.466982 0.762188
vt 1.469087 0.814540
vt 1.390426 0.809683
vt 1.405539 0.813337
vt 1.405510 0.822299
vt 1.389516 0.813575
vt 1.387996 0.776233
vt 1.405103 0.773302
vt 1.404856 0.789189
vt 1.378436 0.789565
vt 1.956412 0.574867
vt 1.956065 0.547742
vt 1.990890 0.545260
vt 1.991138 0.572057
vt 1.990495 0.706002
vt 1.955694 0.708819
vt 1.955426 0.682216
vt 1.990151 0.679406
vt 1.406060 0.826636
vt 1.389322 0.815541
vt 1.387229 0.763487
vt 1.403019 0.751041
vt 1.402823 0.755493
vt 1.387581 0.765454
vt 1.390136 0.810241
vt 1.405714 0.813832
vt 1.405920 0.828016
vt 1.389473 0.816500
vt 1.416848 0.778091
vt 1.419826 0.789249
vt 1.404110 0.790016
vt 1.403937 0.774083
vt 1.414299 0.812593
vt 1.415502 0.814504
vt 1.956414 0.524574
vt 1.991338 0.522550
vt 1.418990 0.777493
vt 1.421889 0.789601
vt 1.415671 0.816127
vt 1.995009 0.728224
vt 1.960131 0.730918
vt 1.413409 0.762450
vt 1.412364 0.764472
vt 1.990568 0.650861
vt 1.990488 0.660262
vt 1.955763 0.663073
vt 1.955842 0.653672
vt 1.953956 0.660441
vt 1.954030 0.651750
vt 1.954486 0.601908
vt 1.954576 0.592867
vt 1.956435 0.589756
vt 1.956342 0.599206
vt 1.991161 0.586946
vt 1.991068 0.596395
vt 1.990749 0.623584
vt 1.956024 0.626395
vt 1.948564 0.626464
vt 1.955710 0.669340
vt 1.990435 0.666529
vt 1.953789 0.678138
vt 1.953907 0.666234
vt 1.956497 0.583456
vt 1.954635 0.586839
vt 1.954701 0.578899
vt 1.991223 0.580646
vt 1.387881 0.778258
vt 1.379346 0.790877
vt 1.403608 0.765327
vt 1.389091 0.771176
vt 1.388607 0.774009
vt 1.403739 0.768829
vt 1.416237 0.770908
vt 1.388411 0.802662
vt 1.405564 0.805071
vt 1.419343 0.801790
vt 1.405654 0.810328
vt 1.389446 0.807209
vt 1.419474 0.808950
vt 1.388779 0.771636
vt 1.405051 0.768794
vt 1.418912 0.770270
vt 1.389301 0.768571
vt 1.388717 0.764411
vt 1.404823 0.752368
vt 1.405017 0.765789
vt 1.414915 0.764037
vt 1.405142 0.804822
vt 1.388642 0.802435
vt 1.417751 0.800537
vt 1.405380 0.809931
vt 1.389713 0.806784
vt 1.417674 0.806642
vt 1.417598 0.769412
vt 1.419153 0.808066
vt 1.956828 0.516598
vt 1.991752 0.514573
vt 1.318301 0.805001
vt 1.328427 0.807241
vt 1.328392 0.812808
vt 1.319920 0.808695
vt 1.316529 0.782634
vt 1.328002 0.780783
vt 1.327840 0.790651
vt 1.310121 0.790932
vt 1.968581 0.748492
vt 1.968847 0.742079
vt 1.989469 0.740948
vt 1.989204 0.747574
vt 1.990661 0.789685
vt 1.969911 0.790413
vt 1.967996 0.783551
vt 1.988618 0.782633
vt 1.328761 0.815718
vt 1.319369 0.810047
vt 1.317947 0.774687
vt 1.326855 0.768323
vt 1.326723 0.771314
vt 1.318605 0.776007
vt 1.317974 0.803754
vt 1.328423 0.805957
vt 1.328569 0.814983
vt 1.319317 0.809090
vt 1.336085 0.785324
vt 1.338058 0.792250
vt 1.327513 0.792758
vt 1.327430 0.782860
vt 1.334305 0.806762
vt 1.335109 0.807947
vt 1.968308 0.735107
vt 1.988930 0.733731
vt 1.337317 0.783362
vt 1.339265 0.790877
vt 1.335101 0.807364
vt 1.996435 0.797089
vt 1.975557 0.797658
vt 1.333808 0.775615
vt 1.333103 0.776873
vt 1.989309 0.772647
vt 1.989263 0.775454
vt 1.968641 0.776293
vt 1.968686 0.773486
vt 1.316018 0.784931
vt 1.316553 0.782074
vt 1.317152 0.782844
vt 1.316657 0.785485
vt 1.967882 0.758029
vt 1.967937 0.755329
vt 1.969039 0.754400
vt 1.968982 0.757222
vt 1.989662 0.753561
vt 1.989606 0.756383
vt 1.989399 0.764502
vt 1.968777 0.765341
vt 1.964350 0.765362
vt 1.968610 0.778165
vt 1.989233 0.777326
vt 1.317482 0.781083
vt 1.316910 0.780169
vt 1.317797 0.806042
vt 1.989700 0.751680
vt 1.969077 0.752519
vt 1.967611 0.772912
vt 1.310906 0.793341
vt 1.327227 0.777421
vt 1.327308 0.779597
vt 1.335688 0.780864
vt 1.316815 0.799049
vt 1.328320 0.800515
vt 1.337561 0.798453
vt 1.328382 0.803780
vt 1.317510 0.801872
vt 1.337650 0.802899
vt 1.317053 0.779777
vt 1.327966 0.777984
vt 1.337263 0.778875
vt 1.317402 0.777873
vt 1.318746 0.773707
vt 1.327804 0.767556
vt 1.327942 0.776117
vt 1.334580 0.775011
vt 1.328178 0.801953
vt 1.317119 0.800502
vt 1.336645 0.799266
vt 1.328327 0.805126
vt 1.317828 0.803201
vt 1.336581 0.803058
vt 1.336604 0.779932
vt 1.998144 0.799579
vt 1.977266 0.800148
vt 1.337569 0.803940
vt 1.317340 0.804159
vt 1.968260 0.733005
vt 1.988882 0.731630
vt 1.351987 0.805940
vt 1.364538 0.808695
vt 1.364491 0.815549
vt 1.353993 0.810488
vt 1.349194 0.780144
vt 1.363363 0.777569
vt 1.363419 0.789720
vt 1.341467 0.790524
vt 1.984266 0.844932
vt 1.983834 0.835441
vt 1.993953 0.833878
vt 1.994397 0.843684
vt 1.996583 0.891219
vt 1.986345 0.891294
vt 1.984699 0.881516
vt 1.994889 0.881012
vt 1.364887 0.817616
vt 1.353310 0.812153
vt 1.351559 0.768619
vt 1.362664 0.762355
vt 1.362437 0.764463
vt 1.352374 0.770243
vt 1.351530 0.806103
vt 1.364536 0.808544
vt 1.364893 0.818135
vt 1.353332 0.812637
vt 1.374035 0.781708
vt 1.376479 0.790235
vt 1.363412 0.790863
vt 1.363311 0.778678
vt 1.371823 0.808103
vt 1.372818 0.809561
vt 1.983692 0.828761
vt 1.993811 0.827197
vt 1.374973 0.780502
vt 1.377582 0.789703
vt 1.372848 0.810104
vt 1.997623 0.897819
vt 1.987384 0.897895
vt 1.371217 0.769756
vt 1.370343 0.771305
vt 1.995106 0.869735
vt 1.995083 0.872583
vt 1.984940 0.873435
vt 1.984963 0.870586
vt 1.984412 0.872638
vt 1.984434 0.870004
vt 1.984567 0.854902
vt 1.984593 0.852162
vt 1.985136 0.851220
vt 1.985109 0.854083
vt 1.995279 0.850368
vt 1.995252 0.853231
vt 1.995156 0.861470
vt 1.985013 0.862322
vt 1.982835 0.862342
vt 1.984925 0.875334
vt 1.995067 0.874482
vt 1.984098 0.879448
vt 1.984398 0.874393
vt 1.985154 0.849311
vt 1.984611 0.850336
vt 1.984364 0.846561
vt 1.995297 0.848459
vt 1.349956 0.781913
vt 1.342827 0.791587
vt 1.363062 0.771982
vt 1.350980 0.776493
vt 1.350570 0.778661
vt 1.363161 0.774660
vt 1.373545 0.776217
vt 1.349973 0.800342
vt 1.364267 0.801849
vt 1.375665 0.799072
vt 1.364429 0.805866
vt 1.350907 0.803799
vt 1.375891 0.804543
vt 1.349769 0.776614
vt 1.363247 0.774124
vt 1.374790 0.774981
vt 1.350153 0.774261
vt 1.351711 0.769098
vt 1.362835 0.762867
vt 1.363169 0.771827
vt 1.371366 0.770294
vt 1.364232 0.802184
vt 1.350523 0.800402
vt 1.374725 0.798873
vt 1.364415 0.806091
vt 1.351402 0.803725
vt 1.374644 0.803542
vt 1.374680 0.775069
vt 1.375869 0.804628
vt 1.983624 0.826131
vt 1.993742 0.824567
vt 1.202975 0.823207
vt 1.206672 0.806996
vt 1.215429 0.807268
vt 1.183790 0.810343
vt 1.184532 0.860315
vt 1.163682 0.827158
vt 1.160929 0.810007
vt 1.926341 0.596296
vt 1.926152 0.568858
vt 1.937869 0.570316
vt 1.936502 0.597082
vt 1.931820 0.453998
vt 1.931381 0.435520
vt 1.943098 0.438625
vt 1.943537 0.457103
vt 1.938507 0.572408
vt 1.939142 0.597116
vt 1.145441 0.808723
vt 1.150145 0.809100
vt 1.165345 0.823976
vt 1.163904 0.825092
vt 1.938814 0.623904
vt 1.938201 0.626020
vt 1.926484 0.624561
vt 1.204386 0.826243
vt 1.207859 0.809309
vt 1.222054 0.809098
vt 1.183092 0.785211
vt 1.183883 0.808306
vt 1.159755 0.808312
vt 1.158875 0.794614
vt 1.205900 0.793294
vt 1.207768 0.791720
vt 1.220008 0.806630
vt 1.925973 0.554753
vt 1.937787 0.554397
vt 1.184061 0.785499
vt 1.159130 0.794784
vt 1.210012 0.794028
vt 1.931476 0.418830
vt 1.943193 0.421935
vt 1.156900 0.793148
vt 1.929915 0.494646
vt 1.941749 0.495073
vt 1.944143 0.455927
vt 1.944596 0.491729
vt 1.185109 0.856141
vt 1.204609 0.824259
vt 1.185215 0.858740
vt 1.939920 0.532691
vt 1.928009 0.534943
vt 1.147466 0.810207
s 1
usemtl Clock_Texture.002
f 48/1/1 58/2/2 34/3/3 10/4/4
f 52/5/5 37/6/6 38/7/7 28/8/5
f 22/9/8 24/10/9 74/11/10 67/12/11
f 16/13/12 35/14/13 36/15/14 12/16/15
f 40/17/16 41/18/17 15/19/18 11/20/19
f 34/3/20 35/21/13 16/22/12 10/4/21
f 23/23/22 22/9/8 67/12/11 68/24/23
f 15/25/18 41/26/17 31/27/24 9/28/25
f 20/29/26 26/30/27 25/31/28 19/32/29
f 21/33/30 27/34/31 26/30/27 20/29/26
f 42/35/32 55/36/33 40/37/34 11/38/35
f 19/39/36 25/40/37 33/41/38 32/42/39
f 58/2/2 8/43/40 34/3/3
f 8/43/41 17/44/42 35/21/13 34/3/20
f 36/45/14 35/46/13 17/47/42 14/48/43
f 24/49/44 27/50/45 38/7/7 37/6/6
f 55/36/33 13/51/46 40/37/34
f 13/52/47 18/53/48 41/54/17 40/55/16
f 31/27/24 41/26/17 18/56/48 7/57/49
f 43/58/50 63/59/51 64/60/52 44/61/53
f 44/61/53 64/60/52 65/62/54 46/63/55
f 49/64/56 70/65/57 71/66/58 51/67/59
f 51/67/59 71/66/58 72/68/60 52/69/61
f 28/70/62 29/71/63 51/67/59 52/69/61
f 29/71/63 30/72/64 49/64/56 51/67/59
f 15/19/65 45/73/66 42/74/67 11/20/68
f 9/75/69 47/76/70 45/73/66 15/19/65
f 50/77/71 48/78/72 10/79/73 16/13/74
f 53/80/75 50/77/71 16/13/74 12/16/76
f 43/58/50 44/61/53 29/71/77 28/70/78
f 44/61/53 46/63/55 30/72/79 29/71/77
f 46/81/80 32/42/39 33/41/38 30/82/81
f 23/23/22 25/31/28 26/30/27 22/9/8
f 22/9/8 26/30/27 27/34/31 24/10/9
f 20/29/26 19/32/29 59/83/82 60/84/83
f 21/33/30 20/29/26 60/84/83 61/85/84
f 54/86/85 47/87/86 9/28/87 31/27/88
f 7/57/89 54/86/85 31/27/88
f 46/81/80 65/88/90 66/89/91 32/42/39
f 19/39/36 32/42/39 66/89/91 59/90/92
f 43/91/5 28/8/5 38/7/7 39/92/93
f 21/93/94 39/92/93 38/7/7 27/50/45
f 43/91/5 39/92/93 62/94/95 63/95/5
f 39/92/93 21/93/94 61/96/96 62/94/95
f 72/97/5 73/98/97 37/6/6 52/5/5
f 24/49/44 37/6/6 73/98/97 74/99/98
f 53/100/99 12/101/100 36/102/101 56/103/102
f 14/104/103 56/103/102 36/102/101
f 57/105/104 49/106/105 30/82/81 33/41/38
f 23/107/106 57/105/104 33/41/38 25/40/37
f 49/106/105 57/105/104 69/108/107 70/109/108
f 68/110/109 69/108/107 57/105/104 23/107/106
f 60/111/83 59/90/82 7/57/110 18/56/111
f 61/85/84 60/84/83 18/53/111 13/52/112
f 62/94/95 61/96/96 13/51/46 55/36/33
f 63/95/5 62/94/95 55/36/33 42/35/32
f 64/60/52 63/59/51 42/74/67 45/73/66
f 65/62/54 64/60/52 45/73/66 47/76/70
f 66/89/91 65/88/90 47/87/86 54/86/85
f 59/90/92 66/89/91 54/86/85 7/57/89
f 68/110/23 67/112/11 17/44/113 8/43/114
f 58/2/2 69/108/107 68/110/109 8/43/40
f 70/109/108 69/108/107 58/2/2 48/1/1
f 71/66/58 70/65/57 48/78/72 50/77/71
f 72/68/60 71/66/58 50/77/71 53/80/75
f 53/100/99 56/103/102 73/98/97 72/97/5
f 74/99/98 73/98/97 56/103/102 14/104/103
f 67/12/11 74/11/10 14/48/115 17/47/113
f 113/113/116 123/114/117 99/115/118 78/116/119
f 117/117/120 102/118/121 103/119/122 93/120/120
f 84/121/123 100/122/124 101/123/125 80/124/126
f 105/125/127 106/126/128 83/127/129 79/128/130
f 99/115/131 100/129/124 84/130/123 78/116/132
f 83/131/129 106/132/128 96/133/133 77/134/134
f 107/135/135 120/136/136 105/137/137 79/138/138
f 87/139/139 91/140/140 98/141/141 97/142/142
f 123/114/117 76/143/143 99/115/118
f 76/143/144 85/144/145 100/129/124 99/115/131
f 101/123/125 100/122/124 85/145/145 82/146/146
f 90/147/147 92/148/148 103/119/122 102/118/121
f 120/136/136 81/149/149 105/137/137
f 81/150/150 86/151/151 106/126/128 105/125/127
f 96/133/133 106/132/128 86/152/152 75/153/153
f 108/154/154 128/155/155 129/156/156 109/157/157
f 109/157/157 129/156/156 130/158/158 111/159/159
f 114/160/160 135/161/161 136/162/162 116/163/163
f 116/163/163 136/162/162 137/164/164 117/165/165
f 93/166/166 94/167/167 116/163/163 117/165/165
f 94/167/167 95/168/168 114/160/160 116/163/163
f 83/127/169 110/169/170 107/170/171 79/128/172
f 77/171/173 112/172/174 110/169/170 83/127/169
f 115/173/175 113/174/176 78/175/177 84/121/178
f 118/176/179 115/173/175 84/121/178 80/124/180
f 108/154/154 109/157/157 94/167/181 93/166/182
f 109/157/157 111/159/159 95/168/183 94/167/181
f 111/177/184 97/142/142 98/141/141 95/178/185
f 119/179/186 112/180/187 77/134/188 96/133/189
f 75/153/190 119/179/186 96/133/189
f 111/177/184 130/181/191 131/182/192 97/142/142
f 87/139/139 97/142/142 131/182/192 124/183/193
f 108/184/120 93/120/120 103/119/122 104/185/194
f 88/186/195 104/185/194 103/119/122 92/148/148
f 108/184/120 104/185/194 127/187/196 128/188/120
f 104/185/194 88/186/195 126/189/197 127/187/196
f 137/190/120 138/191/198 102/118/121 117/117/120
f 90/147/147 102/118/121 138/191/198 139/192/199
f 118/193/200 80/194/201 101/195/202 121/196/203
f 82/197/204 121/196/203 101/195/202
f 122/198/205 114/199/206 95/178/185 98/141/141
f 89/200/207 122/198/205 98/141/141 91/140/140
f 114/199/206 122/198/205 134/201/208 135/202/209
f 133/203/210 134/201/208 122/198/205 89/200/207
f 125/204/211 124/183/211 75/153/211 86/152/211
f 127/187/196 126/189/197 81/149/212 120/136/136
f 128/188/120 127/187/196 120/136/136 107/135/135
f 129/156/156 128/155/155 107/170/171 110/169/170
f 130/158/158 129/156/156 110/169/170 112/172/174
f 131/182/192 130/181/191 112/180/187 119/179/186
f 124/183/193 131/182/192 119/179/186 75/153/190
f 133/203/213 132/205/214 85/144/215 76/143/213
f 123/114/117 134/201/208 133/203/216 76/143/143
f 135/202/209 134/201/208 123/114/117 113/113/116
f 136/162/162 135/161/161 113/174/176 115/173/175
f 137/164/164 136/162/162 115/173/175 118/176/179
f 118/193/200 121/196/203 138/191/198 137/190/120
f 139/192/199 138/191/198 121/196/203 82/197/204
f 132/206/214 139/207/217 82/146/217 85/145/215
f 178/208/218 188/209/219 164/210/220 143/211/221
f 182/212/222 167/213/223 168/214/224 158/215/222
f 149/216/225 165/217/226 166/218/227 145/219/228
f 170/220/229 171/221/230 148/222/231 144/223/232
f 164/210/233 165/224/226 149/225/225 143/211/234
f 148/226/231 171/227/230 161/228/235 142/229/236
f 172/230/237 185/231/238 170/232/239 144/233/240
f 152/234/241 156/235/242 163/236/243 162/237/244
f 188/209/219 141/238/245 164/210/220
f 141/238/246 150/239/247 165/224/226 164/210/233
f 166/218/227 165/217/226 150/240/247 147/241/248
f 155/242/249 157/243/250 168/214/224 167/213/223
f 185/231/238 146/244/251 170/232/239
f 146/245/252 151/246/253 171/221/230 170/220/229
f 161/228/235 171/227/230 151/247/253 140/248/254
f 173/249/255 193/250/256 194/251/257 174/252/258
f 174/253/258 194/254/257 195/255/259 176/256/260
f 179/257/261 200/258/262 201/259/263 181/260/264
f 181/260/264 201/259/263 202/261/265 182/262/266
f 158/263/267 159/264/268 181/260/264 182/262/266
f 159/264/268 160/265/269 179/257/261 181/260/264
f 148/222/270 175/266/271 172/267/272 144/223/273
f 142/229/274 177/268/275 175/269/271 148/226/270
f 180/270/276 178/208/277 143/211/278 149/225/279
f 183/271/280 180/272/276 149/216/279 145/219/281
f 173/249/255 174/252/258 159/264/282 158/263/283
f 174/252/258 176/273/260 160/265/284 159/264/282
f 176/256/285 162/237/244 163/236/243 160/274/286
f 184/275/287 177/268/288 142/229/289 161/228/290
f 140/248/291 184/275/287 161/228/290
f 176/256/285 195/255/292 196/276/293 162/237/244
f 152/234/241 162/237/244 196/276/293 189/277/294
f 173/278/222 158/215/222 168/214/224 169/279/295
f 153/280/296 169/279/295 168/214/224 157/243/250
f 173/278/222 169/279/295 192/281/297 193/282/222
f 169/279/295 153/280/296 191/283/298 192/281/297
f 202/284/222 203/285/299 167/213/223 182/212/222
f 155/242/249 167/213/223 203/285/299 204/286/300
f 183/287/301 145/288/302 166/289/303 186/290/304
f 147/291/305 186/290/304 166/289/303
f 187/292/306 179/293/307 160/274/286 163/236/243
f 154/294/308 187/292/306 163/236/243 156/235/242
f 179/293/307 187/292/306 199/295/309 200/296/310
f 198/297/311 199/295/309 187/292/306 154/294/308
f 190/298/312 189/277/313 140/248/313 151/247/314
f 191/299/315 190/300/312 151/246/314 146/245/315
f 192/281/297 191/283/316 146/244/251 185/231/238
f 193/282/222 192/281/297 185/231/238 172/230/237
f 194/251/257 193/250/256 172/267/272 175/266/271
f 195/255/259 194/254/257 175/269/271 177/268/275
f 196/276/293 195/255/292 177/268/288 184/275/287
f 189/277/294 196/276/293 184/275/287 140/248/291
f 198/297/317 197/301/318 150/239/319 141/238/317
f 188/209/219 199/295/309 198/297/311 141/238/245
f 200/296/310 199/295/309 188/209/219 178/208/218
f 201/302/263 200/296/262 178/208/277 180/270/276
f 202/261/265 201/259/263 180/272/276 183/271/280
f 183/287/301 186/290/304 203/285/299 202/284/222
f 204/286/300 203/285/299 186/290/304 147/291/305
f 197/303/318 204/304/320 147/241/320 150/240/319
f 243/305/321 253/306/322 229/307/323 208/308/324
f 247/309/325 232/310/326 233/311/327 223/312/325
f 214/313/328 230/314/329 231/315/330 210/316/331
f 235/317/332 236/318/333 213/319/334 209/320/335
f 229/307/336 230/321/329 214/322/328 208/308/337
f 213/323/334 236/324/333 226/325/338 207/326/339
f 237/327/340 250/328/341 235/329/342 209/330/343
f 217/331/344 221/332/345 228/333/346 227/334/347
f 253/306/322 206/335/348 229/307/323
f 206/335/349 215/336/350 230/321/329 229/307/336
f 231/315/330 230/314/329 215/337/350 212/338/351
f 220/339/352 222/340/353 233/311/327 232/310/326
f 250/328/341 211/341/325 235/329/342
f 211/342/354 216/343/355 236/318/333 235/317/332
f 226/325/338 236/324/333 216/344/356 205/345/357
f 238/346/358 258/347/359 259/348/360 239/349/361
f 239/349/361 259/348/360 260/350/362 241/351/363
f 244/352/364 265/353/365 266/354/366 246/355/367
f 246/355/367 266/354/366 267/356/368 247/357/369
f 223/358/370 224/359/371 246/355/367 247/357/369
f 224/359/371 225/360/372 244/352/364 246/355/367
f 213/319/373 240/361/374 237/362/375 209/320/376
f 207/363/377 242/364/378 240/361/374 213/319/373
f 245/365/379 243/366/380 208/367/381 214/313/382
f 248/368/383 245/365/379 214/313/382 210/316/384
f 238/346/358 239/349/361 224/359/385 223/358/386
f 239/349/361 241/351/363 225/360/387 224/359/385
f 241/369/388 227/334/347 228/333/346 225/370/389
f 249/371/390 242/372/391 207/326/392 226/325/393
f 205/345/394 249/371/390 226/325/393
f 241/369/388 260/373/395 261/374/396 227/334/347
f 217/331/344 227/334/347 261/374/396 254/375/397
f 238/376/325 223/312/325 233/311/327 234/377/398
f 218/378/399 234/377/398 233/311/327 222/340/353
f 238/376/325 234/377/398 257/379/400 258/380/325
f 234/377/398 218/378/399 256/381/401 257/379/400
f 267/382/325 268/383/402 232/310/326 247/309/325
f 220/339/352 232/310/326 268/383/402 269/384/403
f 248/385/404 210/386/405 231/387/406 251/388/407
f 212/389/325 251/388/407 231/387/406
f 252/390/408 244/391/409 225/370/389 228/333/346
f 219/392/410 252/390/408 228/333/346 221/332/345
f 244/391/409 252/390/408 264/393/411 265/394/412
f 263/395/413 264/393/411 252/390/408 219/392/410
f 255/396/414 254/375/414 205/345/414 216/344/414
f 257/379/400 256/381/401 211/341/325 250/328/341
f 258/380/325 257/379/400 250/328/341 237/327/340
f 259/348/360 258/347/359 237/362/375 240/361/374
f 260/350/362 259/348/360 240/361/374 242/364/378
f 261/374/396 260/373/395 242/372/391 249/371/390
f 254/375/397 261/374/396 249/371/390 205/345/394
f 263/395/415 262/397/416 215/336/417 206/335/415
f 253/306/322 264/393/411 263/395/418 206/335/348
f 265/394/412 264/393/411 253/306/322 243/305/321
f 266/354/366 265/353/365 243/366/380 245/365/379
f 267/356/368 266/354/366 245/365/379 248/368/383
f 248/385/404 251/388/407 268/383/402 267/382/325
f 269/384/403 268/383/402 251/388/407 212/389/325
f 262/398/416 269/399/419 212/338/419 215/337/417
f 293/400/420 299/401/421 284/402/422
f 287/403/423 279/404/424 295/405/425 298/406/426
f 278/407/427 273/408/428 274/409/429 277/410/430
f 290/411/431 288/412/432 289/413/433 291/414/434
f 277/410/430 274/409/429 271/415/435 276/416/436
f 289/417/433 282/418/437 292/419/438 291/420/434
f 277/410/430 276/416/436 270/421/439 275/422/440
f 278/407/427 277/410/430 275/422/440 272/423/441
f 290/424/442 297/425/443 288/426/444
f 276/427/445 283/428/446 296/429/447 270/430/448
f 299/401/421 271/431/449 284/402/422
f 271/431/450 274/432/451 285/433/452 284/402/453
f 286/434/454 285/435/452 274/409/451 273/408/455
f 278/436/456 287/403/423 298/406/426 273/437/457
f 297/425/443 272/438/458 288/426/444
f 272/439/459 275/440/460 289/413/433 288/412/432
f 282/418/437 289/417/433 275/441/460 270/430/461
f 279/442/462 290/411/431 291/414/434 280/443/463
f 291/414/434 292/444/438 281/445/464 280/443/463
f 281/446/465 293/400/466 294/447/467 280/448/468
f 294/449/467 295/450/469 279/442/470 280/443/468
f 285/433/452 294/447/467 293/400/466 284/402/453
f 286/434/454 295/450/469 294/449/467 285/435/452
f 283/428/446 281/446/471 292/419/472 296/429/447
f 296/429/447 292/419/472 282/418/473
f 270/430/448 296/429/447 282/418/473
f 287/403/423 297/425/443 290/424/442 279/404/424
f 278/436/456 272/438/458 297/425/443 287/403/423
f 295/405/425 286/451/474 298/406/426
f 273/437/457 298/406/426 286/451/474
f 283/428/446 299/401/421 293/400/420 281/446/471
f 276/427/445 271/431/449 299/401/421 283/428/446
l 1 2
l 3 4
l 5 6
l 6 1
l 2 3
l 4 5
