
v 0.074590 0.222948 0.032172
v 0.070540 0.222948 0.032172
v 0.070540 0.215538 0.032172
v 0.076156 0.226108 0.032172
v 0.074590 0.226031 0.032172
v 0.070540 0.222849 0.034591
v 0.074590 0.222948 0.035599
v 0.070540 0.215538 0.034497
v 0.066491 0.222948 0.032172
v 0.077830 0.231734 0.032172
v 0.077020 0.231733 0.032172
v 0.077221 0.229269 0.032172
v 0.074590 0.225935 0.035599
v 0.076156 0.226108 0.036230
v 0.066491 0.222948 0.035599
v 0.070540 0.225722 0.034659
v 0.074590 0.228956 0.035599
v 0.077221 0.229269 0.036861
v 0.077020 0.231909 0.036904
v 0.070540 0.228487 0.034663
v 0.077830 0.231734 0.037294
v 0.066491 0.225418 0.035599
v 0.074590 0.232507 0.035599
v 0.066491 0.225514 0.032172
v 0.065127 0.225449 0.032172
v 0.076927 0.235257 0.036935
v 0.078377 0.235324 0.037647
v 0.070540 0.232793 0.034731
v 0.066491 0.228403 0.035599
v 0.078383 0.235410 0.037649
v 0.074532 0.235197 0.035599
v 0.065127 0.225449 0.036230
v 0.066491 0.232136 0.035599
v 0.064265 0.227951 0.036861
v 0.070541 0.235143 0.034751
v 0.064265 0.229256 0.032172
v 0.058114 0.222948 0.032172
v 0.054064 0.222948 0.032172
v 0.054064 0.215538 0.032172
v 0.070540 0.239278 0.034802
v 0.064466 0.231728 0.032172
v 0.063453 0.231727 0.032172
v 0.059680 0.226108 0.032172
v 0.058114 0.226031 0.032172
v 0.066549 0.235129 0.035599
v 0.070540 0.239712 0.032172
v 0.073682 0.239712 0.032172
v 0.070540 0.242842 0.032172
v 0.064466 0.231329 0.036912
v 0.063453 0.231075 0.037294
v 0.054064 0.222849 0.034591
v 0.058114 0.222948 0.035599
v 0.054064 0.215538 0.034497
v 0.050014 0.222948 0.032172
v 0.061354 0.231734 0.032172
v 0.060544 0.231733 0.032172
v 0.060744 0.229269 0.032172
v 0.074012 0.239383 0.035485
v 0.070540 0.242842 0.034848
v 0.058114 0.225935 0.035599
v 0.059680 0.226108 0.036230
v 0.064553 0.235152 0.036948
v 0.050014 0.222948 0.035599
v 0.054064 0.225722 0.034659
v 0.066491 0.239401 0.035599
v 0.058114 0.228956 0.035599
v 0.062741 0.235203 0.037647
v 0.062741 0.235323 0.032172
v 0.060744 0.229269 0.036861
v 0.060544 0.231909 0.036904
v 0.054064 0.228487 0.034663
v 0.061354 0.231734 0.037294
v 0.062302 0.239712 0.032172
v 0.050014 0.225418 0.035599
v 0.058114 0.232507 0.035599
v 0.064466 0.239600 0.036998
v 0.050014 0.225514 0.032172
v 0.048651 0.225449 0.032172
v 0.060451 0.235257 0.036935
v 0.061901 0.235324 0.037647
v 0.054064 0.232793 0.034731
v 0.050014 0.228403 0.035599
v 0.062302 0.239712 0.037727
v 0.058056 0.235197 0.035599
v 0.066491 0.246876 0.035599
v 0.048651 0.225449 0.036230
v 0.060544 0.239598 0.036985
v 0.058114 0.239401 0.035599
v 0.050014 0.232136 0.035599
v 0.047789 0.227951 0.036861
v 0.054064 0.235143 0.034751
v 0.047789 0.229256 0.032172
v 0.041502 0.222948 0.032172
v 0.037452 0.222948 0.032172
v 0.037452 0.215538 0.032172
v 0.054064 0.239278 0.034802
v 0.047989 0.231728 0.032172
v 0.046977 0.231727 0.032172
v 0.064466 0.248893 0.037108
v 0.050073 0.235129 0.035599
v 0.043068 0.226108 0.032172
v 0.041502 0.226031 0.032172
v 0.047989 0.231329 0.036912
v 0.046977 0.231075 0.037294
v 0.037452 0.222849 0.034591
v 0.041502 0.222948 0.035599
v 0.037452 0.215538 0.034497
v 0.033402 0.222948 0.032172
v 0.044742 0.231734 0.032172
v 0.043932 0.231733 0.032172
v 0.044133 0.229269 0.032172
v 0.041502 0.225935 0.035599
v 0.043068 0.226108 0.036230
v 0.062302 0.251049 0.037727
v 0.048077 0.235152 0.036948
v 0.033402 0.222948 0.035599
v 0.037452 0.225722 0.034659
v 0.050014 0.239401 0.035599
v 0.041502 0.228956 0.035599
v 0.046264 0.235203 0.037647
v 0.046264 0.235323 0.032172
v 0.044133 0.229269 0.036861
v 0.060544 0.252801 0.037143
v 0.043932 0.231909 0.036904
v 0.037452 0.228487 0.034663
v 0.044742 0.231734 0.037294
v 0.045758 0.239712 0.032172
v 0.033402 0.225418 0.035599
v 0.041502 0.232507 0.035599
v 0.047989 0.239600 0.036998
v 0.033402 0.225514 0.032172
v 0.032039 0.225449 0.032172
v 0.043839 0.235257 0.036935
v 0.045289 0.235324 0.037647
v 0.037452 0.232793 0.034731
v 0.033402 0.228403 0.035599
v 0.045758 0.239712 0.037727
v 0.041444 0.235197 0.035599
v 0.032039 0.225449 0.036230
v 0.043932 0.239598 0.036985
v 0.041502 0.239401 0.035599
v 0.033402 0.232136 0.035599
v 0.031177 0.227951 0.036861
v 0.037452 0.235143 0.034751
v 0.031177 0.229256 0.032172
v 0.037452 0.239278 0.034802
v 0.031378 0.231728 0.032172
v 0.030365 0.231727 0.032172
v 0.033461 0.235129 0.035599
v 0.031378 0.231329 0.036912
v 0.030365 0.231075 0.037294
v 0.031465 0.235152 0.036948
v 0.033402 0.239401 0.035599
v 0.050014 0.264753 0.035599
v 0.029652 0.235203 0.037647
v 0.029652 0.235323 0.032172
v 0.029353 0.239712 0.032172
v 0.031378 0.239600 0.036998
v 0.047989 0.267151 0.037323
v 0.029353 0.239712 0.037727
v 0.045758 0.269794 0.037727
v 0.043932 0.271956 0.037374
v 0.041502 0.275079 0.035599
v 0.033402 0.289074 0.035599
v 0.031378 0.292573 0.037623
v 0.029353 0.296072 0.037727
v 0.074590 0.229014 0.032172
v 0.070540 0.225772 0.032172
v 0.074590 0.231732 0.032172
v 0.070540 0.228588 0.032172
v 0.078377 0.235324 0.032172
v 0.076927 0.235324 0.032172
v 0.076955 0.236626 0.032172
v 0.078383 0.235410 0.032172
v 0.074532 0.235324 0.032172
v 0.070540 0.231731 0.032172
v 0.066491 0.228989 0.032172
v 0.070541 0.235323 0.032172
v 0.066491 0.231729 0.032172
v 0.076956 0.236625 0.036950
v 0.075745 0.237657 0.036259
v 0.074582 0.238816 0.035599
v 0.066549 0.235323 0.032172
v 0.064553 0.235323 0.032172
v 0.066491 0.239712 0.032172
v 0.058114 0.229014 0.032172
v 0.054064 0.225772 0.032172
v 0.058114 0.231732 0.032172
v 0.064466 0.239712 0.032172
v 0.054064 0.228588 0.032172
v 0.061901 0.235324 0.032172
v 0.060451 0.235324 0.032172
v 0.066491 0.246876 0.032172
v 0.058056 0.235324 0.032172
v 0.054064 0.231731 0.032172
v 0.060544 0.239712 0.032172
v 0.050014 0.228989 0.032172
v 0.064466 0.248893 0.032172
v 0.054064 0.235323 0.032172
v 0.058114 0.239712 0.032172
v 0.050014 0.231729 0.032172
v 0.062302 0.251049 0.032172
v 0.054064 0.239712 0.032172
v 0.050073 0.235323 0.032172
v 0.060544 0.252801 0.032172
v 0.048077 0.235323 0.032172
v 0.050014 0.239712 0.032172
v 0.041502 0.229014 0.032172
v 0.058114 0.255221 0.032172
v 0.037452 0.225772 0.032172
v 0.047989 0.239712 0.032172
v 0.041502 0.231732 0.032172
v 0.037452 0.228588 0.032172
v 0.045289 0.235324 0.032172
v 0.043839 0.235324 0.032172
v 0.058114 0.255221 0.035599
v 0.041444 0.235324 0.032172
v 0.037452 0.231731 0.032172
v 0.043932 0.239712 0.032172
v 0.033402 0.228989 0.032172
v 0.054064 0.259958 0.035068
v 0.037452 0.235323 0.032172
v 0.041502 0.239712 0.032172
v 0.057798 0.255536 0.035599
v 0.033402 0.231729 0.032172
v 0.054064 0.259958 0.032172
v 0.050014 0.264753 0.032172
v 0.037452 0.239712 0.032172
v 0.033461 0.235323 0.032172
v 0.031465 0.235323 0.032172
v 0.047989 0.267151 0.032172
v 0.033402 0.239712 0.032172
v 0.031378 0.239712 0.032172
v 0.045758 0.269794 0.032172
v 0.043932 0.271956 0.032172
v 0.041502 0.275079 0.032172
v 0.037452 0.282077 0.032172
v 0.037452 0.282077 0.035352
v 0.033402 0.289074 0.032172
v 0.031378 0.292573 0.032172
v 0.029353 0.296072 0.032172
v 0.075745 0.237657 0.032172
v 0.074578 0.238819 0.032172
v 0.057798 0.255536 0.032172
v 0.041953 0.274300 0.032172
v 0.041953 0.274300 0.035856
vn -0.0000 -0.0000 -1.0000
vn -0.0045 -0.0125 0.9999
vn -0.0000 -0.0128 0.9999
vn -0.2416 -0.0114 0.9703
vn -0.2769 -0.0087 0.9609
vn -0.4037 -0.0194 0.9147
vn 0.2429 -0.0120 0.9700
vn -0.0056 -0.0063 1.0000
vn -0.4379 -0.0221 0.8988
vn -0.2969 -0.0113 0.9549
vn -0.4583 -0.0208 0.8885
vn -0.3162 -0.0120 0.9486
vn 0.0028 -0.0052 1.0000
vn -0.4396 -0.0265 0.8978
vn 0.2870 -0.0102 0.9579
vn -0.4394 -0.0158 0.8981
vn -0.4728 -0.0092 0.8811
vn -0.3052 -0.0059 0.9523
vn 0.0030 -0.0076 1.0000
vn 0.3213 -0.0114 0.9469
vn -0.4405 -0.0003 0.8978
vn -0.4855 0.0051 0.8742
vn 0.4619 -0.0239 0.8866
vn 0.0038 -0.0053 1.0000
vn 0.4976 -0.0240 0.8670
vn 0.3428 -0.0116 0.9393
vn -0.9627 -0.2667 -0.0464
vn -0.9621 -0.2683 -0.0481
vn -0.9346 -0.3550 -0.0225
vn -0.9402 -0.3398 -0.0252
vn -0.2390 -0.0034 0.9710
vn -0.1995 -0.0056 0.9799
vn 0.0484 -0.0053 0.9988
vn 0.3510 -0.0049 0.9364
vn 0.4785 -0.0198 0.8778
vn -0.9750 -0.2199 -0.0305
vn -0.9760 -0.2160 -0.0287
vn 0.3674 -0.0032 0.9301
vn 0.1540 -0.0048 0.9881
vn 0.3589 -0.0216 0.9331
vn 0.4684 -0.0039 0.8835
vn -0.9834 -0.1809 -0.0132
vn 0.3451 -0.0018 0.9385
vn 0.4461 -0.0020 0.8950
vn -0.9952 -0.0980 -0.0011
vn -0.4214 0.0003 0.9069
vn -0.4642 -0.0035 0.8857
vn -0.0230 -0.0024 0.9997
vn -0.3254 -0.0051 0.9456
vn 0.1857 -0.0041 0.9826
vn 0.0032 -0.0053 1.0000
vn -0.4633 -0.0026 0.8862
vn -0.2988 -0.0060 0.9543
vn 0.0123 -0.0065 0.9999
vn 0.5814 -0.0053 0.8136
vn 0.3712 -0.0052 0.9285
vn 0.3493 -0.0048 0.9370
vn 0.3589 -0.0217 0.9331
vn -0.2768 -0.0087 0.9609
vn -0.1944 -0.0060 0.9809
vn 0.4667 -0.0033 0.8844
vn -0.4917 -0.0049 0.8708
vn 0.3417 -0.0002 0.9398
vn 0.4456 -0.0037 0.8952
vn -0.2288 -0.0078 0.9734
vn -0.4584 -0.0207 0.8885
vn -0.9936 -0.1130 -0.0012
vn -0.4164 0.0023 0.9092
vn -0.4625 -0.0028 0.8866
vn -0.0095 -0.0042 0.9999
vn 0.0029 -0.0075 1.0000
vn -0.4588 -0.0034 0.8885
vn -0.2949 -0.0055 0.9555
vn 0.0046 -0.0063 1.0000
vn 0.3458 -0.0052 0.9383
vn 0.4721 -0.0052 0.8816
vn 0.0983 -0.0062 0.9951
vn 0.1584 -0.0057 0.9874
vn 0.3522 -0.0051 0.9359
vn 0.4642 -0.0046 0.8857
vn -0.9977 -0.0672 -0.0007
vn -1.0000 -0.0049 -0.0004
vn -1.0000 -0.0049 -0.0001
vn 0.2069 -0.0051 0.9783
vn 0.6088 -0.0049 0.7933
vn 0.3424 -0.0054 0.9395
vn -0.1640 -0.0060 0.9864
vn -0.5088 -0.0043 0.8609
vn -0.5463 -0.0039 0.8376
vn -0.1856 -0.0066 0.9826
vn 0.0857 -0.0061 0.9963
vn 0.1227 -0.0059 0.9924
vn 0.6431 -0.0047 0.7658
vn 0.3094 -0.0055 0.9509
vn 0.1964 -0.0056 0.9805
vn 0.8850 -0.4655 -0.0000
vn -0.0000 -1.0000 -0.0000
vn 0.8842 -0.4671 -0.0000
vn 0.9282 -0.3722 -0.0000
vn 0.9252 -0.3794 -0.0000
vn 0.9605 -0.2784 -0.0000
vn 0.9592 -0.2829 -0.0000
vn -0.8778 -0.4791 -0.0000
vn -0.8777 -0.4791 -0.0000
vn 0.9832 -0.1823 -0.0000
vn 0.9826 -0.1860 -0.0000
vn 0.9886 -0.1507 -0.0000
vn 0.9982 -0.0598 -0.0000
vn -0.4889 0.0055 0.8723
vn -0.8776 -0.4794 -0.0000
vn 0.9958 -0.0910 -0.0000
vn 0.9591 -0.2829 -0.0000
vn -0.1671 -0.0083 0.9859
vn 0.9943 -0.1063 -0.0000
vn -1.0000 -0.0000 -0.0000
vt 1.541735 0.879338
vt 1.556115 0.885934
vt 1.542266 0.886907
vt 1.535622 0.876825
vt 1.535973 0.879742
vt 1.120664 0.914373
vt 1.106967 0.914431
vt 1.120818 0.906785
vt 1.542797 0.894476
vt 1.524889 0.874435
vt 1.529576 0.875250
vt 1.524996 0.875949
vt 1.126414 0.906761
vt 1.126727 0.903825
vt 1.120883 0.921959
vt 1.126048 0.914350
vt 1.132639 0.901805
vt 1.132074 0.906736
vt 1.137587 0.902160
vt 1.138728 0.906708
vt 1.131229 0.914327
vt 1.137253 0.900644
vt 1.125510 0.921940
vt 1.538301 0.897353
vt 1.538002 0.894812
vt 1.143975 0.899589
vt 1.143861 0.902307
vt 1.143767 0.906794
vt 1.139297 0.914293
vt 1.131104 0.921916
vt 1.144136 0.899579
vt 1.146424 0.902241
vt 1.125581 0.924494
vt 1.143698 0.914273
vt 1.130274 0.926089
vt 1.138097 0.921886
vt 1.013285 0.912980
vt 1.022070 0.915427
vt 1.022070 0.908294
vt 1.014467 0.908294
vt 1.543896 0.910132
vt 1.558277 0.916729
vt 1.544428 0.917701
vt 1.150548 0.906672
vt 1.151616 0.907735
vt 1.151446 0.914241
vt 1.531299 0.899463
vt 1.526787 0.901304
vt 1.526653 0.899412
vt 1.537784 0.907619
vt 1.538134 0.910536
vt 1.143704 0.921752
vt 1.510934 0.889106
vt 1.505084 0.889517
vt 1.510521 0.883234
vt 1.136601 0.925686
vt 1.012474 0.918834
vt 1.022070 0.920057
vt 1.120796 0.945243
vt 1.107100 0.945301
vt 1.120951 0.937654
vt 1.544959 0.925270
vt 1.151709 0.921827
vt 1.527051 0.905229
vt 1.531738 0.906044
vt 1.527158 0.906743
vt 1.158123 0.914212
vt 1.126546 0.937630
vt 1.126859 0.934694
vt 1.136133 0.927585
vt 1.143764 0.925491
vt 1.121016 0.952829
vt 1.126181 0.945219
vt 1.132772 0.932675
vt 1.132206 0.937606
vt 1.011811 0.926568
vt 1.022070 0.926793
vt 1.143874 0.928887
vt 1.152097 0.925620
vt 1.137719 0.933030
vt 1.138860 0.937577
vt 1.131361 0.945197
vt 1.137385 0.931514
vt 1.011518 0.935477
vt 1.021925 0.935354
vt 1.125643 0.952810
vt 1.540463 0.928147
vt 1.540163 0.925607
vt 1.144107 0.930459
vt 1.143993 0.933177
vt 1.152326 0.929672
vt 1.143900 0.937664
vt 1.139429 0.945163
vt 1.131236 0.952785
vt 1.165715 0.921767
vt 1.125713 0.955364
vt 1.143831 0.945143
vt 1.152125 0.932968
vt 1.151777 0.937522
vt 1.130406 0.956959
vt 1.138229 0.952756
vt 1.012845 0.912146
vt 1.021630 0.914593
vt 1.021630 0.907460
vt 1.014027 0.907460
vt 1.546076 0.941180
vt 1.560369 0.957518
vt 1.546607 0.948749
vt 1.151578 0.945111
vt 1.533461 0.930258
vt 1.528949 0.932099
vt 1.528815 0.930206
vt 1.169510 0.925545
vt 1.143836 0.952622
vt 1.539963 0.938667
vt 1.540314 0.941584
vt 1.136734 0.956556
vt 1.012033 0.917999
vt 1.021630 0.919223
vt 1.120930 0.976366
vt 1.107233 0.976425
vt 1.121084 0.968778
vt 1.151842 0.952697
vt 1.546779 0.962174
vt 1.529230 0.936277
vt 1.533917 0.937092
vt 1.529337 0.937791
vt 1.136266 0.958455
vt 1.126680 0.968754
vt 1.126992 0.965818
vt 1.173566 0.929581
vt 1.143896 0.956361
vt 1.121149 0.983953
vt 1.176862 0.932862
vt 1.126314 0.976343
vt 1.132905 0.963798
vt 1.132339 0.968730
vt 1.011371 0.925734
vt 1.021630 0.925959
vt 1.144006 0.959757
vt 1.152230 0.956489
vt 1.181417 0.937395
vt 1.137853 0.964153
vt 1.138994 0.968701
vt 1.131495 0.976321
vt 1.137519 0.962637
vt 1.011257 0.935116
vt 1.021664 0.935047
vt 1.125776 0.983933
vt 1.542192 0.963743
vt 1.542343 0.956654
vt 1.144240 0.961583
vt 1.144126 0.964300
vt 1.152459 0.960669
vt 1.144033 0.968788
vt 1.139563 0.976286
vt 1.131369 0.983909
vt 1.125846 0.986488
vt 1.143964 0.976267
vt 1.152259 0.964092
vt 1.151910 0.968646
vt 1.130539 0.988083
vt 1.138363 0.983879
vt 1.537550 0.977323
vt 1.535130 0.964996
vt 1.542163 0.975882
vt 1.151711 0.976234
vt 1.530562 0.966045
vt 1.530995 0.961254
vt 1.143970 0.983746
vt 1.136867 0.987680
vt 1.531751 0.978458
vt 1.151975 0.983821
vt 1.136399 0.989578
vt 1.144030 0.987485
vt 1.190323 0.944944
vt 1.199341 0.952493
vt 1.524065 0.979549
vt 1.523887 0.967134
vt 1.144140 0.990881
vt 1.152363 0.987613
vt 1.515637 0.980167
vt 1.515698 0.967930
vt 1.152591 0.991406
vt 1.203850 0.956268
vt 1.208819 0.960427
vt 1.212886 0.963831
vt 1.217293 0.967521
vt 1.218755 0.968359
vt 1.231899 0.975890
vt 1.245042 0.983422
vt 1.251614 0.987187
vt 1.258185 0.990953
vt 1.015908 0.903258
vt 1.017972 0.889375
vt 1.022329 0.889375
vt 1.022329 0.903258
vt 1.014726 0.909180
vt 1.022329 0.909180
vt 1.530398 0.880133
vt 1.536987 0.887277
vt 1.013544 0.915101
vt 1.022329 0.915101
vt 1.017713 0.889724
vt 1.015649 0.903608
vt 1.022070 0.903608
vt 1.022070 0.889724
vt 1.525317 0.880490
vt 1.012733 0.919719
vt 1.022329 0.919719
vt 1.531724 0.887647
vt 1.518108 0.873883
vt 1.518298 0.876593
vt 1.515859 0.876713
vt 1.517946 0.873885
vt 1.022329 0.926445
vt 1.012070 0.926445
vt 1.518613 0.881069
vt 1.525852 0.888059
vt 1.022329 0.926607
vt 1.012067 0.926607
vt 1.531506 0.895268
vt 1.519137 0.888530
vt 1.526386 0.895628
vt 1.148368 0.904503
vt 1.519661 0.895990
vt 1.016100 0.967243
vt 1.018491 0.981074
vt 1.022846 0.980971
vt 1.022519 0.967092
vt 1.519923 0.899720
vt 1.014779 0.961351
vt 1.022380 0.961172
vt 1.511465 0.896675
vt 1.532560 0.910928
vt 1.539149 0.918072
vt 1.520161 0.903108
vt 1.013458 0.955459
vt 1.022240 0.955253
vt 1.017273 0.888890
vt 1.015209 0.902774
vt 1.021630 0.902774
vt 1.021630 0.888890
vt 1.527479 0.911284
vt 1.511731 0.900460
vt 1.012538 0.950862
vt 1.022131 0.950636
vt 1.533886 0.918441
vt 1.520269 0.904677
vt 1.520460 0.907388
vt 1.498076 0.897615
vt 1.512015 0.904503
vt 1.021973 0.943911
vt 1.011717 0.944153
vt 1.520774 0.911864
vt 1.528013 0.918853
vt 1.512245 0.907790
vt 1.533668 0.926063
vt 1.494571 0.901664
vt 1.521299 0.919324
vt 1.512564 0.912331
vt 1.528548 0.926422
vt 1.490827 0.905991
vt 1.513095 0.919900
vt 1.521823 0.926784
vt 1.015695 0.967403
vt 1.017944 0.981258
vt 1.022300 0.981200
vt 1.022116 0.967318
vt 1.487783 0.909507
vt 1.522085 0.930514
vt 1.513627 0.927470
vt 1.014435 0.961498
vt 1.022037 0.961397
vt 1.534739 0.941975
vt 1.483578 0.914366
vt 1.541328 0.949119
vt 1.522323 0.933902
vt 1.013174 0.955593
vt 1.021958 0.955476
vt 1.560524 0.971610
vt 1.546777 0.974442
vt 1.513892 0.931254
vt 1.529658 0.942332
vt 1.012301 0.950986
vt 1.021897 0.950858
vt 1.536065 0.949489
vt 1.522449 0.935725
vt 1.522639 0.938435
vt 1.514185 0.935424
vt 1.021807 0.944133
vt 1.011549 0.944269
vt 1.522954 0.942911
vt 1.530193 0.949901
vt 1.514425 0.938838
vt 1.535847 0.957110
vt 1.182009 0.937984
vt 1.523478 0.950372
vt 1.514743 0.943379
vt 1.530727 0.957470
vt 1.466825 0.930755
vt 1.475257 0.922557
vt 1.515275 0.950948
vt 1.524002 0.957832
vt 1.524264 0.961562
vt 1.462609 0.934854
vt 1.515806 0.958517
vt 1.516072 0.962302
vt 1.457963 0.939371
vt 1.454160 0.943068
vt 1.436096 0.956506
vt 1.448643 0.948019
vt 1.423548 0.964993
vt 1.417274 0.969237
vt 1.410314 0.974559
vt 1.410205 0.986030
vt 1.512073 0.881442
vt 1.514091 0.879110
vt 1.483032 0.914997
vt 1.450039 0.947075
s 1
usemtl Clock_Texture
f 1/1/1 3/2/1 2/3/1
f 4/4/1 1/1/1 5/5/1
f 6/6/2 8/7/3 7/8/4
f 3/2/1 9/9/1 2/3/1
f 10/10/1 12/11/1 11/12/1
f 13/13/5 7/8/4 14/14/6
f 15/15/7 8/7/3 6/6/2
f 16/16/8 6/6/2 7/8/4 13/13/5
f 14/14/6 18/17/9 17/18/10 13/13/5
f 19/19/11 23/20/12 17/18/10 18/17/9
f 20/21/13 16/16/8 13/13/5 17/18/10
f 19/19/11 18/17/9 21/22/14
f 22/23/15 15/15/7 6/6/2 16/16/8
f 9/9/1 25/24/1 24/25/1
f 21/22/14 27/26/16 26/27/17 19/19/11
f 26/27/17 31/28/18 23/20/12 19/19/11
f 17/18/10 23/20/12 28/29/19 20/21/13
f 29/30/20 22/23/15 16/16/8 20/21/13
f 30/31/21 180/32/22 26/27/17 27/26/16
f 32/33/23 15/15/7 22/23/15
f 31/28/18 35/34/24 28/29/19 23/20/12
f 29/30/20 34/35/25 32/33/23 22/23/15
f 33/36/26 29/30/20 20/21/13 28/29/19
f 34/37/27 36/38/28 25/39/29 32/40/30
f 37/41/1 39/42/1 38/43/1
f 31/28/18 182/44/31 58/45/32 40/46/33 35/34/24
f 36/47/1 42/48/1 41/49/1
f 43/50/1 37/41/1 44/51/1
f 45/52/34 33/36/26 28/29/19 35/34/24
f 46/53/1 48/54/1 47/55/1
f 29/30/20 33/36/26 49/56/35 34/35/25
f 50/57/36 42/58/37 36/38/28 34/37/27
f 51/59/2 53/60/3 52/61/4
f 39/42/1 54/62/1 38/43/1
f 40/46/33 65/63/38 45/52/34 35/34/24
f 55/64/1 57/65/1 56/66/1
f 58/45/32 59/67/39 40/46/33
f 60/68/5 52/61/4 61/69/6
f 50/70/40 34/35/25 49/56/35
f 33/36/26 45/52/34 62/71/41 49/56/35
f 63/72/7 53/60/3 51/59/2
f 64/73/8 51/59/2 52/61/4 60/68/5
f 61/69/6 69/74/9 66/75/10 60/68/5
f 42/58/37 50/57/36 67/76/42 68/77/42
f 62/71/41 67/78/43 50/70/40 49/56/35
f 65/63/38 76/79/44 62/71/41 45/52/34
f 70/80/11 75/81/12 66/75/10 69/74/9
f 71/82/13 64/73/8 60/68/5 66/75/10
f 70/80/11 69/74/9 72/83/14
f 67/76/45 83/84/45 73/85/45 68/77/45
f 74/86/15 63/72/7 51/59/2 64/73/8
f 54/62/1 78/87/1 77/88/1
f 72/83/14 80/89/46 79/90/47 70/80/11
f 76/79/44 83/91/48 67/78/43 62/71/41
f 79/90/47 84/92/49 75/81/12 70/80/11
f 66/75/10 75/81/12 81/93/19 71/82/13
f 82/94/20 74/86/15 64/73/8 71/82/13
f 65/63/38 40/46/33 59/67/39 85/95/50
f 86/96/23 63/72/7 74/86/15
f 84/92/49 91/97/51 81/93/19 75/81/12
f 80/89/46 83/91/48 87/98/52 79/90/47
f 79/90/47 87/98/52 88/99/53 84/92/49
f 82/94/20 90/100/25 86/96/23 74/86/15
f 89/101/26 82/94/20 71/82/13 81/93/19
f 90/102/27 92/103/28 78/104/29 86/105/30
f 93/106/1 95/107/1 94/108/1
f 84/92/49 88/99/53 96/109/54 91/97/51
f 92/110/1 98/111/1 97/112/1
f 76/79/44 65/63/38 85/95/55 99/113/56
f 100/114/34 89/101/26 81/93/19 91/97/51
f 101/115/1 93/106/1 102/116/1
f 82/94/20 89/101/26 103/117/35 90/100/25
f 104/118/36 98/119/37 92/103/28 90/102/27
f 105/120/2 107/121/3 106/122/4
f 96/109/54 118/123/57 100/114/34 91/97/51
f 95/107/1 108/124/1 94/108/1
f 109/125/1 111/126/1 110/127/1
f 104/128/58 90/100/25 103/117/35
f 112/129/59 106/122/4 113/130/6
f 83/91/48 76/79/44 99/113/56 114/131/60
f 89/101/26 100/114/34 115/132/61 103/117/35
f 116/133/7 107/121/3 105/120/2
f 114/131/60 123/134/62 87/98/52 83/91/48
f 117/135/8 105/120/2 106/122/4 112/129/59
f 113/130/6 122/136/9 119/137/10 112/129/59
f 98/119/37 104/118/36 120/138/42 121/139/42
f 115/132/61 120/140/63 104/128/58 103/117/35
f 118/123/57 130/141/64 115/132/61 100/114/34
f 123/134/62 216/142/65 88/99/53 87/98/52
f 124/143/66 129/144/12 119/137/10 122/136/9
f 125/145/13 117/135/8 112/129/59 119/137/10
f 124/143/66 122/136/9 126/146/14
f 120/138/67 137/147/67 127/148/67 121/139/67
f 128/149/15 116/133/7 105/120/2 117/135/8
f 108/124/1 132/150/1 131/151/1
f 126/146/14 134/152/68 133/153/69 124/143/66
f 130/141/64 137/154/70 120/140/63 115/132/61
f 133/153/69 138/155/49 129/144/12 124/143/66
f 119/137/10 129/144/12 135/156/71 125/145/13
f 136/157/20 128/149/15 117/135/8 125/145/13
f 139/158/23 116/133/7 128/149/15
f 138/155/49 144/159/51 135/156/71 129/144/12
f 134/152/68 137/154/70 140/160/72 133/153/69
f 133/153/69 140/160/72 141/161/73 138/155/49
f 136/157/20 143/162/25 139/158/23 128/149/15
f 142/163/26 136/157/20 125/145/13 135/156/71
f 143/164/27 145/165/28 132/150/29 139/166/30
f 138/155/49 141/161/73 146/167/74 144/159/51
f 145/165/1 148/168/1 147/169/1
f 149/170/34 142/163/26 135/156/71 144/159/51
f 136/157/20 142/163/26 150/171/35 143/162/25
f 151/172/36 148/168/37 145/165/28 143/164/27
f 146/167/74 153/173/75 149/170/34 144/159/51
f 151/174/40 143/162/25 150/171/35
f 142/163/26 149/170/34 152/175/76 150/171/35
f 118/123/57 96/109/54 221/176/77 154/177/78
f 148/168/37 151/172/36 155/178/42 156/179/42
f 152/175/76 155/180/79 151/174/40 150/171/35
f 153/173/75 158/181/80 152/175/76 149/170/34
f 155/178/81 160/182/82 157/183/83 156/179/81
f 158/181/80 160/184/84 155/180/79 152/175/76
f 130/141/64 118/123/57 154/177/85 159/185/86
f 137/154/70 130/141/64 159/185/86 161/186/87
f 161/186/87 162/187/88 140/160/72 137/154/70
f 162/187/88 246/188/89 163/189/90 141/161/73 140/160/72
f 163/189/90 238/190/91 146/167/74 141/161/73
f 153/173/75 146/167/74 238/190/91 164/191/92
f 158/181/80 153/173/75 164/191/93 165/192/94
f 160/184/84 158/181/80 165/192/94 166/193/95
f 7/194/96 8/195/97 3/196/97 1/197/98
f 14/198/99 7/194/96 1/197/98 4/199/100
f 12/11/1 4/4/1 5/5/1 167/200/1
f 1/1/1 2/3/1 168/201/1 5/5/1
f 18/202/101 14/198/99 4/199/100 12/203/102
f 8/204/97 15/205/103 9/206/104 3/207/97
f 12/11/1 167/200/1 169/208/1 11/12/1
f 21/209/105 18/202/101 12/203/102 10/210/106
f 168/201/1 170/211/1 167/200/1 5/5/1
f 171/212/1 10/10/1 11/12/1 172/213/1
f 9/9/1 24/25/1 168/201/1 2/3/1
f 173/214/1 174/215/1 171/212/1 172/213/1
f 171/216/107 27/217/107 21/209/105 10/210/106
f 169/208/1 175/218/1 172/213/1 11/12/1
f 170/211/1 176/219/1 169/208/1 167/200/1
f 174/220/108 30/221/108 27/217/108 171/216/108
f 24/25/1 177/222/1 170/211/1 168/201/1
f 176/219/1 178/223/1 175/218/1 169/208/1
f 15/205/103 32/40/30 25/39/29 9/206/104
f 177/222/1 179/224/1 176/219/1 170/211/1
f 25/24/1 36/47/1 177/222/1 24/25/1
f 181/225/109 182/44/31 31/28/18 26/27/17 180/32/22
f 179/224/1 183/226/1 178/223/1 176/219/1
f 36/47/1 41/49/1 179/224/1 177/222/1
f 52/227/96 53/228/97 39/229/97 37/230/98
f 41/49/1 184/231/1 183/226/1 179/224/1
f 61/232/99 52/227/96 37/230/98 43/233/100
f 183/226/1 185/234/1 46/53/1 178/223/1
f 57/65/1 43/50/1 44/51/1 186/235/1
f 37/41/1 38/43/1 187/236/1 44/51/1
f 42/48/1 68/237/1 184/231/1 41/49/1
f 69/238/101 61/232/99 43/233/100 57/239/102
f 53/240/97 63/241/110 54/242/104 39/243/97
f 57/65/1 186/235/1 188/244/1 56/66/1
f 184/231/1 189/245/1 185/234/1 183/226/1
f 72/246/105 69/238/101 57/239/102 55/247/106
f 187/236/1 190/248/1 186/235/1 44/51/1
f 191/249/1 55/64/1 56/66/1 192/250/1
f 185/234/1 193/251/1 48/54/1 46/53/1
f 54/62/1 77/88/1 187/236/1 38/43/1
f 68/237/1 73/252/1 189/245/1 184/231/1
f 191/253/107 80/254/107 72/246/105 55/247/106
f 188/244/1 194/255/1 192/250/1 56/66/1
f 190/248/1 195/256/1 188/244/1 186/235/1
f 73/252/1 191/249/1 192/250/1 196/257/1
f 77/88/1 197/258/1 190/248/1 187/236/1
f 189/245/1 198/259/1 193/251/1 185/234/1
f 83/84/111 80/254/111 191/253/111 73/85/111
f 195/256/1 199/260/1 194/255/1 188/244/1
f 63/241/110 86/105/30 78/104/29 54/242/104
f 194/255/1 200/261/1 196/257/1 192/250/1
f 197/258/1 201/262/1 195/256/1 190/248/1
f 78/87/1 92/110/1 197/258/1 77/88/1
f 73/252/1 202/263/1 198/259/1 189/245/1
f 199/260/1 203/264/1 200/261/1 194/255/1
f 201/262/1 204/265/1 199/260/1 195/256/1
f 92/110/1 97/112/1 201/262/1 197/258/1
f 106/266/96 107/267/97 95/268/97 93/269/98
f 205/270/1 202/263/1 73/252/1 196/257/1
f 97/112/1 206/271/1 204/265/1 201/262/1
f 204/265/1 207/272/1 203/264/1 199/260/1
f 113/273/99 106/266/96 93/269/98 101/274/100
f 111/126/1 101/115/1 102/116/1 208/275/1
f 200/261/1 209/276/1 205/270/1 196/257/1
f 93/106/1 94/108/1 210/277/1 102/116/1
f 98/111/1 121/278/1 206/271/1 97/112/1
f 122/279/101 113/273/99 101/274/100 111/280/112
f 107/281/97 116/282/103 108/124/104 95/107/97
f 206/271/1 211/283/1 207/272/1 204/265/1
f 111/126/1 208/275/1 212/284/1 110/127/1
f 126/285/105 122/279/101 111/280/112 109/286/106
f 210/277/1 213/287/1 208/275/1 102/116/1
f 214/288/1 109/125/1 110/127/1 215/289/1
f 108/124/1 131/151/1 210/277/1 94/108/1
f 121/278/1 127/290/1 211/283/1 206/271/1
f 214/291/107 134/292/107 126/285/105 109/286/106
f 212/284/1 217/293/1 215/289/1 110/127/1
f 213/287/1 218/294/1 212/284/1 208/275/1
f 127/290/1 214/288/1 215/289/1 219/295/1
f 131/151/1 220/296/1 213/287/1 210/277/1
f 88/99/53 216/142/65 224/297/113 221/176/77 96/109/54
f 137/147/114 134/292/114 214/291/114 127/148/114
f 218/294/1 222/298/1 217/293/1 212/284/1
f 116/282/103 139/166/30 132/150/29 108/124/104
f 217/293/1 223/299/1 219/295/1 215/289/1
f 220/296/1 225/300/1 218/294/1 213/287/1
f 132/150/1 145/165/1 220/296/1 131/151/1
f 207/272/1 227/301/1 226/302/1 203/264/1
f 222/298/1 228/303/1 223/299/1 217/293/1
f 225/300/1 229/304/1 222/298/1 218/294/1
f 145/165/1 147/169/1 225/300/1 220/296/1
f 147/169/1 230/305/1 229/304/1 225/300/1
f 211/283/1 231/306/1 227/301/1 207/272/1
f 229/304/1 232/307/1 228/303/1 222/298/1
f 148/168/1 156/179/1 230/305/1 147/169/1
f 230/305/1 233/308/1 232/307/1 229/304/1
f 127/290/1 234/309/1 231/306/1 211/283/1
f 156/179/1 157/183/1 233/308/1 230/305/1
f 235/310/1 234/309/1 127/290/1 219/295/1
f 228/303/1 237/311/1 236/312/1 223/299/1
f 232/307/1 239/313/1 237/311/1 228/303/1
f 240/314/1 239/313/1 232/307/1 233/308/1
f 241/315/1 240/314/1 233/308/1 157/183/1
f 166/316/115 241/315/115 157/183/83 160/182/82
f 175/218/1 243/317/1 242/318/1 173/214/1 172/213/1
f 47/55/1 243/317/1 175/218/1 178/223/1 46/53/1
f 203/264/1 226/302/1 244/319/1 209/276/1 200/261/1
f 223/299/1 236/312/1 245/320/1 235/310/1 219/295/1
