
v 0.029137 0.307382 0.042500
v 0.029137 0.307382 -0.042500
v 0.013871 0.319296 0.019558
v 0.013871 0.319296 -0.019558
v 0.013871 0.322030 0.019558
v 0.013871 0.322030 -0.019558
v 0.002522 0.338979 0.003556
v 0.002522 0.338979 -0.003556
v 0.031810 0.302140 -0.043192
v 0.031810 0.302140 0.041808
v 0.045748 0.279785 -0.042523
v 0.045748 0.279785 0.042477
v 0.063682 0.261099 -0.042025
v 0.063682 0.261099 0.042975
v 0.082907 0.241442 -0.042500
v 0.082907 0.241442 0.042500
v 0.111454 0.219529 -0.042500
v 0.111454 0.219529 0.042500
v 0.023964 0.304548 -0.042500
v 0.023964 0.304548 0.043822
v 0.028728 0.299071 0.043129
v 0.043619 0.275882 0.043799
v 0.061615 0.257157 0.044297
v 0.081454 0.238390 0.043822
v 0.108334 0.217642 0.043822
v 0.108334 0.217642 -0.042500
v 0.081454 0.238390 -0.042500
v 0.061615 0.257157 -0.042025
v 0.043619 0.275882 -0.042523
v 0.028728 0.299071 -0.043192
v -0.029137 0.307382 0.042500
v -0.029137 0.307382 -0.042500
v -0.013871 0.319296 0.019558
v -0.013871 0.319296 -0.019558
v -0.013871 0.322030 0.019558
v -0.013871 0.322030 -0.019558
v -0.002522 0.338979 0.003556
v -0.002522 0.338979 -0.003556
v -0.031810 0.302140 -0.043192
v -0.031810 0.302140 0.041808
v -0.045748 0.279785 -0.042523
v -0.045748 0.279785 0.042477
v -0.063682 0.261099 -0.042025
v -0.063682 0.261099 0.042975
v -0.082907 0.241442 -0.042500
v -0.082907 0.241442 0.042500
v -0.111454 0.219529 -0.042500
v -0.111454 0.219529 0.042500
v -0.033482 0.303266 -0.043192
v -0.033482 0.303266 0.041808
v -0.023964 0.304548 -0.042500
v -0.023964 0.304548 0.043822
v -0.028728 0.299071 0.043129
v -0.043619 0.275882 0.043799
v -0.061615 0.257157 0.044297
v -0.081454 0.238390 0.043822
v -0.108334 0.217642 0.043822
v -0.108334 0.217642 -0.042500
v -0.081454 0.238390 -0.042500
v -0.061615 0.257157 -0.042025
v -0.043619 0.275882 -0.042523
v -0.028728 0.299071 -0.043192
v 0.090161 0.245795 -0.042500
v 0.090128 0.247055 -0.042481
v 0.090128 0.247055 0.042519
v 0.090161 0.245795 0.042500
v 0.066972 0.264473 -0.041655
v 0.066840 0.265726 -0.041612
v 0.066840 0.265726 0.043388
v 0.066972 0.264473 0.043345
v 0.049868 0.281834 -0.042523
v 0.050085 0.283076 -0.042549
v 0.050085 0.283076 0.042451
v 0.049868 0.281834 0.042477
v 0.032646 0.302703 -0.043192
v 0.032750 0.303959 -0.043076
v 0.032750 0.303959 0.041924
v 0.032646 0.302703 0.041808
v 0.113921 0.225101 -0.042500
v 0.113492 0.226286 -0.042500
v 0.113492 0.226286 0.042500
v 0.113921 0.225101 0.042500
v -0.090128 0.247055 -0.042481
v -0.090161 0.245795 -0.042500
v -0.090128 0.247055 0.042519
v -0.090161 0.245795 0.042500
v -0.066840 0.265726 -0.041612
v -0.066972 0.264473 -0.041655
v -0.066840 0.265726 0.043388
v -0.066972 0.264473 0.043345
v -0.050085 0.283076 -0.042549
v -0.049868 0.281834 -0.042523
v -0.050085 0.283076 0.042451
v -0.049868 0.281834 0.042477
v -0.113492 0.226286 -0.042500
v -0.113921 0.225101 -0.042500
v -0.113492 0.226286 0.042500
v -0.113921 0.225101 0.042500
v 0.024613 0.300328 -0.042821
v 0.024048 0.298560 -0.041305
v 0.025652 0.295993 -0.041520
v 0.026830 0.297182 -0.043192
v 0.024048 0.298560 0.036851
v 0.024035 0.299494 0.039025
v 0.025869 0.295663 0.038842
v 0.026430 0.296784 0.040898
v 0.041490 0.271980 -0.040865
v 0.042788 0.273019 -0.042510
v 0.041490 0.271980 0.039466
v 0.042023 0.272958 0.041556
v 0.059549 0.253215 -0.040377
v 0.060686 0.254409 -0.042033
v 0.059549 0.253215 0.039969
v 0.060063 0.254196 0.042048
v 0.080002 0.235337 -0.040849
v 0.081041 0.236622 -0.042500
v 0.080002 0.235337 0.039538
v 0.080417 0.236210 0.041685
v 0.103154 0.218027 -0.040574
v 0.105749 0.217422 -0.042500
v 0.103127 0.218048 0.039557
v 0.105401 0.217393 0.041726
v -0.024048 0.298560 -0.041305
v -0.024613 0.300328 -0.042821
v -0.024048 0.298560 0.036851
v -0.024035 0.299494 0.039025
v -0.025652 0.295993 -0.041526
v -0.026828 0.297180 -0.043192
v -0.025869 0.295664 0.038844
v -0.026430 0.296784 0.040898
v -0.041490 0.271980 -0.040865
v -0.042791 0.273021 -0.042510
v -0.041490 0.271980 0.039466
v -0.042023 0.272958 0.041556
v -0.059549 0.253215 -0.040377
v -0.060686 0.254409 -0.042033
v -0.059549 0.253215 0.039970
v -0.060062 0.254195 0.042048
v -0.080002 0.235337 -0.040849
v -0.081041 0.236621 -0.042500
v -0.080002 0.235337 0.039544
v -0.080415 0.236206 0.041680
v -0.103200 0.217993 -0.040663
v -0.105674 0.217416 -0.042500
v -0.103145 0.218034 0.039580
v -0.105401 0.217393 0.041726
v 0.017064 0.323080 0.024059
v 0.017385 0.323274 0.024512
v 0.017329 0.323521 0.024433
v 0.017329 0.323521 -0.024433
v 0.017385 0.323274 -0.024512
v 0.017064 0.323080 -0.024059
v -0.017064 0.323080 0.024059
v -0.017385 0.323274 0.024512
v -0.017329 0.323521 0.024433
v -0.017064 0.323080 -0.024059
v -0.017385 0.323274 -0.024512
v -0.017329 0.323521 -0.024433
v 0.000505 0.340017 0.000712
v 0.000505 0.340017 -0.000712
v -0.000505 0.340017 -0.000712
v -0.000505 0.340017 0.000712
v 0.105633 0.220318 0.029412
v 0.105633 0.229682 0.029412
v -0.105633 0.220318 0.029412
v -0.105633 0.229682 0.029412
v -0.105633 0.220318 0.022224
v -0.105633 0.229682 0.022224
v 0.105633 0.220318 0.022224
v 0.105633 0.229682 0.022224
v 0.105633 0.222879 0.031353
v 0.105633 0.227121 0.031353
v -0.105633 0.227121 0.031353
v -0.105633 0.222879 0.031353
vn 0.6153 0.7883 -0.0000
vn 1.0000 -0.0000 -0.0000
vn 0.6877 0.7260 -0.0000
vn 0.7219 0.6920 -0.0000
vn 0.5546 0.8321 -0.0000
vn 0.4690 0.8832 -0.0000
vn 0.4440 0.8960 -0.0000
vn -0.0107 0.0137 -0.9998
vn -0.0091 0.0152 -0.9998
vn -0.0093 0.0151 -0.9998
vn 0.5145 -0.8575 -0.0000
vn 0.0091 -0.0152 0.9998
vn 0.0703 0.0409 -0.9967
vn 0.7160 -0.6981 -0.0000
vn -0.0703 -0.0409 0.9967
vn 0.0138 -0.0211 -0.9997
vn 0.0114 -0.0228 -0.9997
vn 0.0119 -0.0225 -0.9997
vn 0.4454 -0.8953 -0.0000
vn -0.0114 0.0228 0.9997
vn -0.0648 0.0949 -0.9934
vn -0.0658 0.0976 -0.9931
vn -0.0655 0.0969 -0.9931
vn 0.5588 -0.8293 -0.0000
vn 0.0658 -0.0976 0.9930
vn -0.0000 -0.0000 -1.0000
vn 0.9144 -0.4049 -0.0000
vn -0.0000 -0.0000 1.0000
vn 0.2654 0.0598 0.9623
vn 0.2416 0.1809 0.9534
vn 0.1984 0.2160 0.9560
vn 0.2492 0.2301 0.9407
vn 0.5176 -0.8556 -0.0000
vn -0.0164 0.0080 -0.9998
vn -0.0170 0.0071 -0.9998
vn 0.0178 -0.0095 -0.9998
vn 0.0180 -0.0092 -0.9998
vn 0.0208 -0.0083 -0.9997
vn 0.0212 -0.0154 -0.9997
vn -0.0614 0.0859 -0.9944
vn -0.0000 0.8875 -0.4609
vn -0.0000 1.0000 -0.0000
vn -0.0000 0.8875 0.4609
vn 0.2237 0.2907 0.9303
vn -0.6153 0.7883 -0.0000
vn -1.0000 -0.0000 -0.0000
vn -0.6877 0.7260 -0.0000
vn -0.7219 0.6920 -0.0000
vn -0.5546 0.8321 -0.0000
vn -0.4690 0.8832 -0.0000
vn -0.4440 0.8960 -0.0000
vn 0.0107 0.0137 -0.9998
vn 0.0093 0.0151 -0.9998
vn 0.0091 0.0152 -0.9998
vn -0.5145 -0.8575 -0.0000
vn -0.0091 -0.0152 0.9998
vn -0.0703 0.0409 -0.9967
vn -0.7160 -0.6981 -0.0000
vn 0.0703 -0.0409 0.9967
vn -0.0114 -0.0228 -0.9997
vn -0.4454 -0.8953 -0.0000
vn 0.0114 0.0228 0.9997
vn 0.0648 0.0949 -0.9934
vn 0.0655 0.0969 -0.9931
vn 0.0658 0.0976 -0.9931
vn -0.5588 -0.8293 -0.0000
vn -0.0658 -0.0976 0.9931
vn -0.9144 -0.4049 -0.0000
vn -0.5176 -0.8556 -0.0000
vn 0.0171 0.0070 -0.9998
vn 0.0163 0.0081 -0.9998
vn -0.0182 -0.0102 -0.9998
vn -0.0208 -0.0083 -0.9997
vn -0.0180 -0.0092 -0.9998
vn -0.0178 -0.0095 -0.9998
vn -0.0213 -0.0159 -0.9996
vn -0.0212 -0.0154 -0.9997
vn 0.0614 0.0859 -0.9944
vn -0.2654 0.0598 0.9623
vn -0.2416 0.1809 0.9534
vn -0.1984 0.2160 0.9560
vn -0.2492 0.2301 0.9407
vn -0.2237 0.2907 0.9303
vn -0.0000 0.4227 0.9063
vn 0.9997 0.0262 -0.0000
vn 0.9945 0.1049 -0.0000
vn 0.9852 -0.1716 -0.0000
vn 0.9966 -0.0826 -0.0000
vn 0.9404 0.3400 -0.0000
vn -0.9997 0.0262 -0.0000
vn -0.9945 0.1049 -0.0000
vn -0.9852 -0.1716 -0.0000
vn -0.9404 0.3400 -0.0000
vn -0.0000 -0.6510 -0.7591
vn -0.6390 -0.3575 -0.6810
vn -0.5821 -0.4038 -0.7058
vn -0.0000 -0.9188 0.3947
vn -0.8500 -0.4221 0.3151
vn -0.7543 -0.4836 0.4439
vn -0.5003 -0.4996 -0.7071
vn -0.6492 -0.6125 0.4510
vn -0.4751 -0.5250 -0.7062
vn -0.5914 -0.6825 0.4295
vn -0.4796 -0.6333 -0.6075
vn -0.5548 -0.7385 0.3831
vn -0.2504 -0.9681 -0.0006
vn 0.6395 -0.3566 -0.6811
vn 0.8501 -0.4220 0.3152
vn 0.5814 -0.4035 -0.7065
vn 0.7543 -0.4836 0.4441
vn 0.5001 -0.4993 -0.7075
vn 0.6492 -0.6125 0.4510
vn 0.4751 -0.5250 -0.7062
vn 0.5915 -0.6824 0.4296
vn 0.4793 -0.6304 -0.6106
vn 0.5544 -0.7380 0.3848
vn 0.2494 -0.9684 -0.0004
vn 0.0845 -0.9964 -0.0000
vn -0.0695 0.0665 -0.9954
vn -0.8473 -0.5312 0.0001
vn -0.6129 -0.4414 0.6554
vn 0.0209 -0.0135 -0.9997
vn 0.0211 -0.0148 -0.9997
vn -0.8348 -0.5506 -0.0000
vn -0.5102 -0.3082 0.8030
vn 0.0198 -0.0071 -0.9998
vn -0.7205 -0.6934 -0.0000
vn -0.4295 -0.3913 0.8139
vn -0.0171 0.0069 -0.9998
vn -0.6581 -0.7529 -0.0000
vn -0.4084 -0.4646 0.7857
vn -0.5988 -0.8009 -0.0000
vn -0.4238 -0.5548 0.7159
vn -0.0000 -0.6884 0.7253
vn -0.0000 -1.0000 -0.0000
vn -0.0000 0.0758 -0.9971
vn -0.0845 -0.9964 -0.0000
vn 0.0695 0.0665 -0.9954
vn 0.8473 -0.5312 0.0001
vn 0.6129 -0.4414 0.6554
vn -0.0211 -0.0148 -0.9997
vn -0.0209 -0.0135 -0.9997
vn 0.8348 -0.5506 -0.0000
vn 0.5102 -0.3082 0.8030
vn -0.0198 -0.0071 -0.9998
vn 0.7205 -0.6934 -0.0000
vn 0.4295 -0.3913 0.8139
vn 0.0171 0.0069 -0.9998
vn 0.6581 -0.7529 -0.0000
vn 0.4084 -0.4646 0.7857
vn 0.5988 -0.8009 -0.0000
vn 0.4238 -0.5548 0.7159
vn 0.9756 0.2197 -0.0000
vn 0.5158 -0.8567 -0.0000
vn 0.3125 -0.9499 -0.0000
vn 0.7222 0.6917 -0.0000
vn -0.0000 -0.9739 -0.2272
vn -0.0000 0.8037 -0.5951
vn -0.0000 0.8037 0.5951
vn -0.0000 -0.9739 0.2272
vn -0.3125 -0.9499 -0.0000
vn -0.7222 0.6917 -0.0000
vn -0.0000 -0.9196 0.3928
vn -0.0000 0.3026 0.9531
vn -0.5158 -0.8567 -0.0000
vn -0.9756 0.2197 -0.0000
vn -0.0000 0.3026 -0.9531
vn -0.0000 -0.9196 -0.3928
vn 0.4576 0.8891 -0.0000
vn -0.0000 0.9394 -0.3429
vn -0.4576 0.8891 -0.0000
vn -0.0000 0.9394 0.3429
vn -0.0000 0.9628 0.2702
vn -0.0000 -0.9628 0.2702
vn -0.0000 0.6040 0.7970
vn -0.0000 -0.6040 0.7970
vt 1.313034 0.851420
vt 1.312686 0.879532
vt 1.305124 0.895641
vt 1.304717 0.836049
vt 1.313723 0.856589
vt 1.314649 0.856573
vt 1.314630 0.875881
vt 1.313455 0.875855
vt 1.302871 0.895172
vt 1.302871 0.837603
vt 1.301800 0.895093
vt 1.290586 0.895529
vt 1.290586 0.837959
vt 1.301800 0.837524
vt 1.284789 0.895997
vt 1.275440 0.896048
vt 1.275440 0.838478
vt 1.284789 0.838428
vt 1.271535 0.895754
vt 1.253551 0.895476
vt 1.253481 0.837906
vt 1.271466 0.838185
vt 1.247788 0.895177
vt 1.227327 0.894569
vt 1.227570 0.837001
vt 1.248032 0.837609
vt 1.206665 0.909564
vt 1.156678 0.884092
vt 1.156577 0.881733
vt 1.170029 0.873349
vt 1.251565 0.837887
vt 1.251565 0.895457
vt 1.482355 0.869923
vt 1.495984 0.878017
vt 1.495933 0.880378
vt 1.446504 0.906918
vt 1.240851 0.944003
vt 1.200896 0.918334
vt 1.200608 0.915989
vt 1.274703 0.838450
vt 1.274703 0.896019
vt 1.452698 0.913211
vt 1.452461 0.915561
vt 1.413066 0.942083
vt 1.267668 0.985441
vt 1.232831 0.950307
vt 1.233198 0.947973
vt 1.289073 0.838485
vt 1.289073 0.896055
vt 1.420803 0.945888
vt 1.421219 0.948212
vt 1.387145 0.984087
vt 1.272841 0.995177
vt 1.265965 0.988880
vt 1.266120 0.986523
vt 1.302131 0.837524
vt 1.302131 0.895093
vt 1.388716 0.985135
vt 1.388922 0.987488
vt 1.382182 0.993931
vt 1.112254 0.845922
vt 1.111413 0.843715
vt 1.115859 0.833199
vt 1.222098 0.836873
vt 1.225376 0.836873
vt 1.225376 0.894442
vt 1.222098 0.894442
vt 1.535650 0.828620
vt 1.540320 0.839038
vt 1.539527 0.841262
vt 1.372466 0.988667
vt 1.381344 0.978365
vt 1.409043 0.934790
vt 1.442598 0.899550
vt 1.479607 0.864217
vt 1.220988 0.895338
vt 1.220988 0.836873
vt 1.121644 0.829565
vt 1.172654 0.867584
vt 1.210413 0.902115
vt 1.244716 0.936625
vt 1.273345 0.979595
vt 1.282442 0.989705
vt 1.372228 0.988191
vt 1.382008 0.993336
vt 1.339813 0.835112
vt 1.331996 0.851117
vt 1.315879 0.855003
vt 1.315831 0.853277
vt 1.328501 0.852957
vt 1.328352 0.854713
vt 1.321861 0.866368
vt 1.321856 0.865895
vt 1.322149 0.865891
vt 1.322153 0.866365
vt 1.315945 0.878887
vt 1.315829 0.877451
vt 1.328319 0.877234
vt 1.328297 0.878562
vt 1.331360 0.879222
vt 1.339593 0.894691
vt 1.529788 0.825111
vt 1.330997 0.856416
vt 1.330466 0.875330
vt 1.329592 0.875348
vt 1.329731 0.856512
vt 1.343227 0.835388
vt 1.341973 0.892940
vt 1.342635 0.892959
vt 1.343890 0.835407
vt 1.355091 0.836167
vt 1.353837 0.893718
vt 1.360211 0.893879
vt 1.360851 0.836319
vt 1.370459 0.837614
vt 1.369179 0.895164
vt 1.374771 0.894244
vt 1.374628 0.836698
vt 1.393621 0.835115
vt 1.394601 0.892670
vt 1.399742 0.893177
vt 1.399944 0.835612
vt 1.420012 0.836630
vt 1.419531 0.894196
vt 1.445260 0.905541
vt 1.480655 0.868111
vt 1.494382 0.876037
vt 1.494360 0.878398
vt 1.396767 0.892666
vt 1.396371 0.835098
vt 1.171688 0.871358
vt 1.207878 0.908019
vt 1.158207 0.881937
vt 1.158134 0.879577
vt 1.412255 0.941113
vt 1.451530 0.911759
vt 1.451322 0.914111
vt 1.369917 0.895158
vt 1.371197 0.837607
vt 1.241639 0.942874
vt 1.202001 0.916717
vt 1.201743 0.914370
vt 1.386850 0.983432
vt 1.420038 0.944823
vt 1.420482 0.947142
vt 1.355820 0.893605
vt 1.356448 0.836045
vt 1.267947 0.984638
vt 1.233544 0.949079
vt 1.233938 0.946750
vt 1.390017 0.985489
vt 1.273001 0.994436
vt 1.264825 0.986762
vt 1.533440 0.826158
vt 1.538238 0.836518
vt 1.537472 0.838752
vt 1.425052 0.836796
vt 1.424891 0.894365
vt 1.421613 0.894353
vt 1.421774 0.836784
vt 1.118014 0.830548
vt 1.114253 0.843226
vt 1.113440 0.841009
vt 1.426162 0.836800
vt 1.425998 0.895264
vt 1.477837 0.862438
vt 1.527536 0.822721
vt 1.441264 0.898222
vt 1.408143 0.933870
vt 1.380979 0.977781
vt 1.273696 0.978862
vt 1.282668 0.989081
vt 1.245595 0.935544
vt 1.211716 0.900616
vt 1.174383 0.865626
vt 1.123838 0.826991
vt 1.340080 0.908793
vt 1.340377 0.909543
vt 1.313078 0.909248
vt 1.313388 0.908459
vt 1.341486 0.909121
vt 1.343153 0.911396
vt 1.353318 0.909084
vt 1.354198 0.911467
vt 1.340762 0.949773
vt 1.340547 0.950875
vt 1.313464 0.950859
vt 1.313215 0.949734
vt 1.343860 0.949203
vt 1.342541 0.951990
vt 1.354753 0.949263
vt 1.354208 0.951947
vt 1.360216 0.909085
vt 1.361430 0.911560
vt 1.363384 0.949315
vt 1.363395 0.951900
vt 1.368529 0.908502
vt 1.369165 0.911152
vt 1.371599 0.948945
vt 1.371012 0.951770
vt 1.381320 0.908024
vt 1.378884 0.911026
vt 1.379674 0.948895
vt 1.382083 0.951405
vt 1.309124 0.910511
vt 1.310437 0.908501
vt 1.310526 0.952063
vt 1.308967 0.950593
vt 1.297148 0.910843
vt 1.297925 0.908939
vt 1.298186 0.952487
vt 1.297156 0.950905
vt 1.288935 0.911179
vt 1.289974 0.909434
vt 1.288469 0.952808
vt 1.287797 0.951159
vt 1.280497 0.911004
vt 1.281118 0.909375
vt 1.280295 0.952832
vt 1.278881 0.950948
vt 1.270330 0.911068
vt 1.268357 0.909375
vt 1.268951 0.952889
vt 1.270237 0.951027
vt 1.384329 0.952660
vt 1.382658 0.907974
vt 1.276840 0.975996
vt 1.281093 0.981820
vt 1.341456 0.953117
vt 1.339329 0.953329
vt 1.246182 0.931235
vt 1.352812 0.953089
vt 1.212065 0.896938
vt 1.406028 0.929324
vt 1.439664 0.894016
vt 1.173372 0.864259
vt 1.477644 0.860142
vt 1.126480 0.829072
vt 1.370414 0.953180
vt 1.314800 0.953335
vt 1.373310 0.980264
vt 1.267259 0.954083
vt 1.266979 0.909375
vt 1.377360 0.974297
vt 1.311719 0.953211
vt 1.406501 0.928536
vt 1.299709 0.953639
vt 1.439438 0.893104
vt 1.248559 0.930051
vt 1.214600 0.895054
vt 1.477006 0.859139
vt 1.176311 0.861525
vt 1.522546 0.822382
vt 1.280904 0.954093
vt 1.316988 0.874622
vt 1.316961 0.874772
vt 1.316812 0.857683
vt 1.316867 0.857825
vt 1.315912 0.875819
vt 1.315806 0.856609
vt 1.321179 0.865017
vt 1.321189 0.867383
vt 1.328172 0.856569
vt 1.327049 0.857669
vt 1.322823 0.864894
vt 1.322847 0.867260
vt 1.327219 0.874465
vt 1.328431 0.875636
vt 1.327251 0.874608
vt 1.327053 0.857519
vt 1.649440 0.014847
vt 1.651670 0.015064
vt 1.651568 0.261947
vt 1.649337 0.261750
vt 1.648196 0.262671
vt 1.652757 0.263057
vt 1.652338 0.272655
vt 1.648742 0.272806
vt 1.659856 0.261840
vt 1.656117 0.261840
vt 1.656117 0.015534
vt 1.659856 0.015534
vt 1.648880 0.003995
vt 1.652476 0.003934
vt 1.652853 0.013924
vt 1.648291 0.013492
vt 1.644927 0.014610
vt 1.644927 0.260915
s 1
usemtl Clock_Texture
f 4/1/1 3/2/1 1/3/1 2/4/1
f 4/5/2 6/6/2 5/7/2 3/8/2
f 1/3/3 77/9/3 76/10/3 2/4/3
f 10/11/4 73/12/4 72/13/4 9/14/4
f 12/15/5 69/16/5 68/17/5 11/18/5
f 14/19/6 65/20/6 64/21/6 13/22/6
f 16/23/7 81/24/7 80/25/7 15/26/7
f 13/27/8 64/28/9 63/29/9 15/30/10
f 15/26/11 63/31/11 66/32/11 16/23/11
f 16/33/12 66/34/12 65/35/12 14/36/12
f 11/37/13 68/38/13 67/39/13 13/27/13
f 13/22/14 67/40/14 70/41/14 14/19/14
f 14/36/15 70/42/15 69/43/15 12/44/15
f 9/45/16 72/46/17 71/47/17 11/37/18
f 11/18/19 71/48/19 74/49/19 12/15/19
f 12/44/20 74/50/20 73/51/20 10/52/20
f 2/53/21 76/54/22 75/55/22 9/45/23
f 9/14/24 75/56/24 78/57/24 10/11/24
f 10/52/25 78/58/25 77/59/25 1/60/25
f 15/30/26 80/61/26 79/62/26 17/63/26
f 17/64/27 79/65/27 82/66/27 18/67/27
f 18/68/28 82/69/28 81/70/28 16/33/28
f 10/52/29 1/60/29 20/71/29 21/72/29
f 12/44/30 10/52/30 21/72/30 22/73/30
f 14/36/31 12/44/31 22/73/31 23/74/31
f 16/33/32 14/36/32 23/74/32 24/75/32
f 18/67/33 25/76/33 26/77/33 17/64/33
f 15/30/26 17/63/26 26/78/26 27/79/26
f 13/27/8 15/30/10 27/79/34 28/80/35
f 11/37/36 13/27/36 28/80/37 29/81/38
f 9/45/16 11/37/18 29/81/38 30/82/39
f 2/53/21 9/45/23 30/82/40 19/83/40
f 2/53/26 19/83/26 51/84/26 32/85/26
f 4/1/41 2/4/41 32/86/41 34/87/41
f 6/88/26 4/89/26 34/90/26 36/91/26
f 159/92/42 160/93/42 161/94/42 162/95/42
f 3/96/28 5/97/28 35/98/28 33/99/28
f 1/3/43 3/2/43 33/100/43 31/101/43
f 25/102/44 18/68/44 16/33/44 24/75/44
f 32/86/45 31/101/45 33/100/45 34/87/45
f 34/103/46 33/104/46 35/105/46 36/106/46
f 31/101/47 32/86/47 49/107/47 50/108/47
f 40/109/48 39/110/48 91/111/48 93/112/48
f 42/113/49 41/114/49 87/115/49 89/116/49
f 44/117/50 43/118/50 83/119/50 85/120/50
f 46/121/51 45/122/51 95/123/51 97/124/51
f 43/125/52 45/126/53 84/127/54 83/128/54
f 45/122/55 46/121/55 86/129/55 84/130/55
f 46/131/56 44/132/56 85/133/56 86/134/56
f 41/135/57 43/125/57 88/136/57 87/137/57
f 43/118/58 44/117/58 90/138/58 88/139/58
f 44/132/59 42/140/59 89/141/59 90/142/59
f 39/143/60 41/135/60 92/144/60 91/145/60
f 41/114/61 42/113/61 94/146/61 92/147/61
f 42/140/62 40/148/62 93/149/62 94/150/62
f 32/85/63 39/143/64 49/151/65
f 39/110/66 40/109/66 50/108/66 49/107/66
f 40/148/67 31/152/67 50/153/67
f 45/126/26 47/154/26 96/155/26 95/156/26
f 47/157/68 48/158/68 98/159/68 96/160/68
f 48/161/28 46/131/28 97/162/28 98/163/28
f 48/158/69 47/157/69 58/164/69 57/165/69
f 45/126/26 59/166/26 58/167/26 47/154/26
f 43/125/52 60/168/70 59/166/71 45/126/53
f 41/135/72 61/169/73 60/168/74 43/125/75
f 39/143/76 62/170/77 61/169/73 41/135/72
f 32/85/63 51/84/78 62/170/78 39/143/64
f 53/171/79 52/172/79 31/152/79 40/148/79
f 54/173/80 53/171/80 40/148/80 42/140/80
f 55/174/81 54/173/81 42/140/81 44/132/81
f 56/175/82 55/174/82 44/132/82 46/131/82
f 57/176/83 56/175/83 46/131/83 48/161/83
f 31/152/84 52/172/84 20/71/84 1/60/84
f 63/31/85 64/21/85 65/20/85 66/32/85
f 67/40/86 68/17/86 69/16/86 70/41/86
f 71/48/87 72/13/87 73/12/87 74/49/87
f 75/56/88 76/10/88 77/9/88 78/57/88
f 79/65/89 80/25/89 81/24/89 82/66/89
f 83/119/90 84/130/90 86/129/90 85/120/90
f 87/115/91 88/139/91 90/138/91 89/116/91
f 91/111/92 92/147/92 94/146/92 93/112/92
f 95/123/93 96/160/93 98/159/93 97/124/93
f 99/177/94 100/178/94 123/179/94 124/180/94
f 100/178/95 99/177/95 102/181/95 101/182/95
f 101/182/96 102/181/96 108/183/96 107/184/96
f 103/185/97 104/186/97 126/187/97 125/188/97
f 104/186/98 103/185/98 105/189/98 106/190/98
f 106/190/99 105/189/99 109/191/99 110/192/99
f 107/184/100 108/183/100 112/193/100 111/194/100
f 110/192/101 109/191/101 113/195/101 114/196/101
f 111/194/102 112/193/102 116/197/102 115/198/102
f 114/196/103 113/195/103 117/199/103 118/200/103
f 115/198/104 116/197/104 120/201/104 119/202/104
f 118/200/105 117/199/105 121/203/105 122/204/105
f 119/202/106 120/201/106 122/204/106 121/203/106
f 124/180/107 123/179/107 127/205/107 128/206/107
f 125/188/108 126/187/108 130/207/108 129/208/108
f 128/206/109 127/205/109 131/209/109 132/210/109
f 129/208/110 130/207/110 134/211/110 133/212/110
f 132/210/111 131/209/111 135/213/111 136/214/111
f 133/212/112 134/211/112 138/215/112 137/216/112
f 136/214/113 135/213/113 139/217/113 140/218/113
f 137/216/114 138/215/114 142/219/114 141/220/114
f 140/218/115 139/217/115 143/221/115 144/222/115
f 141/220/116 142/219/116 146/223/116 145/224/116
f 144/222/117 143/221/117 145/224/117 146/223/117
f 25/225/118 122/204/118 120/201/118 26/226/118
f 30/82/119 102/227/119 99/228/119 19/83/119
f 100/178/120 101/182/120 105/189/120 103/185/120
f 104/186/121 106/190/121 21/229/121 20/230/121
f 29/81/38 108/231/122 102/227/123 30/82/39
f 101/182/124 107/184/124 109/191/124 105/189/124
f 106/190/125 110/192/125 22/232/125 21/229/125
f 28/80/37 112/233/126 108/231/122 29/81/38
f 107/184/127 111/194/127 113/195/127 109/191/127
f 110/234/128 114/235/128 23/74/128 22/73/128
f 27/79/34 116/236/129 112/233/129 28/80/35
f 111/194/130 115/198/130 117/199/130 113/195/130
f 114/235/131 118/237/131 24/75/131 23/74/131
f 26/78/26 120/238/26 116/236/26 27/79/26
f 115/198/132 119/202/132 121/203/132 117/199/132
f 118/200/133 122/204/133 25/225/133 24/239/133
f 104/186/134 20/230/134 52/240/134 126/187/134
f 100/178/135 103/185/135 125/188/135 123/179/135
f 19/83/136 99/228/136 124/241/136 51/84/136
f 57/242/137 58/243/137 144/222/137 146/223/137
f 62/170/138 51/84/138 124/241/138 128/244/138
f 123/179/139 125/188/139 129/208/139 127/205/139
f 126/187/140 52/240/140 53/245/140 130/207/140
f 61/169/73 62/170/77 128/244/141 132/246/142
f 127/205/143 129/208/143 133/212/143 131/209/143
f 130/207/144 53/245/144 54/247/144 134/211/144
f 60/168/74 61/169/73 132/246/142 136/248/145
f 131/209/146 133/212/146 137/216/146 135/213/146
f 134/249/147 54/173/147 55/174/147 138/250/147
f 59/166/71 60/168/70 136/248/148 140/251/148
f 135/213/149 137/216/149 141/220/149 139/217/149
f 138/250/150 55/174/150 56/175/150 142/252/150
f 58/167/26 59/166/26 140/251/26 144/253/26
f 139/217/151 141/220/151 145/224/151 143/221/151
f 142/219/152 56/254/152 57/242/152 146/223/152
f 149/255/153 148/256/153 151/257/153 150/258/153
f 148/256/154 147/259/154 152/260/154 151/257/154
f 6/6/155 152/260/155 147/259/155 5/7/155
f 150/258/156 8/261/156 7/262/156 149/255/156
f 152/260/157 6/88/157 36/91/157 156/263/157
f 8/261/158 150/258/158 158/264/158 38/265/158
f 149/255/159 7/262/159 37/266/159 155/267/159
f 5/97/160 147/259/160 153/268/160 35/98/160
f 36/106/161 35/105/161 153/268/161 156/263/161
f 158/264/162 155/267/162 37/266/162 38/265/162
f 147/259/163 148/256/163 154/269/163 153/268/163
f 148/256/164 149/255/164 155/267/164 154/269/164
f 153/268/165 154/269/165 157/270/165 156/263/165
f 154/269/166 155/267/166 158/264/166 157/270/166
f 150/258/167 151/257/167 157/270/167 158/264/167
f 151/257/168 152/260/168 156/263/168 157/270/168
f 7/262/169 8/261/169 160/93/169 159/92/169
f 8/261/170 38/265/170 161/94/170 160/93/170
f 38/265/171 37/266/171 162/95/171 161/94/171
f 37/266/172 7/262/172 159/92/172 162/95/172
f 171/271/28 172/272/28 173/273/28 174/274/28
f 165/275/46 166/276/46 168/277/46 167/278/46
f 167/279/26 168/280/26 170/281/26 169/282/26
f 169/283/2 170/284/2 164/285/2 163/286/2
f 164/285/173 170/281/42 168/280/42 166/276/173
f 169/287/135 163/286/174 165/275/174 167/288/135
f 163/286/2 164/285/2 172/272/2 171/271/2
f 164/285/173 166/276/173 173/273/175 172/272/175
f 166/276/46 165/275/46 174/274/46 173/273/46
f 165/275/174 163/286/174 171/271/176 174/274/176
