
v -0.074865 0.222948 0.032172
v -0.070815 0.222948 0.032172
v -0.070815 0.215538 0.032172
v -0.076431 0.226108 0.032172
v -0.074865 0.226031 0.032172
v -0.070815 0.222849 0.034591
v -0.074865 0.222948 0.035599
v -0.070815 0.215538 0.034497
v -0.066765 0.222948 0.032172
v -0.078105 0.231734 0.032172
v -0.077295 0.231733 0.032172
v -0.077496 0.229269 0.032172
v -0.074865 0.225935 0.035599
v -0.076431 0.226108 0.036230
v -0.066765 0.222948 0.035599
v -0.070815 0.225722 0.034659
v -0.074865 0.228956 0.035599
v -0.077496 0.229269 0.036861
v -0.077295 0.231909 0.036904
v -0.070815 0.228487 0.034663
v -0.078105 0.231734 0.037294
v -0.066765 0.225418 0.035599
v -0.074865 0.232507 0.035599
v -0.066765 0.225514 0.032172
v -0.065402 0.225449 0.032172
v -0.077202 0.235257 0.036935
v -0.078652 0.235324 0.037647
v -0.070815 0.232793 0.034731
v -0.066765 0.228403 0.035599
v -0.078657 0.235410 0.037649
v -0.074807 0.235197 0.035599
v -0.065402 0.225449 0.036230
v -0.066765 0.232136 0.035599
v -0.064540 0.227951 0.036861
v -0.070815 0.235143 0.034751
v -0.064540 0.229256 0.032172
v -0.058388 0.222948 0.032172
v -0.054339 0.222948 0.032172
v -0.054339 0.215538 0.032172
v -0.070815 0.239278 0.034802
v -0.064740 0.231728 0.032172
v -0.063728 0.231727 0.032172
v -0.059955 0.226108 0.032172
v -0.058388 0.226031 0.032172
v -0.066824 0.235129 0.035599
v -0.070815 0.239712 0.032172
v -0.073957 0.239712 0.032172
v -0.070815 0.242842 0.032172
v -0.064740 0.231329 0.036912
v -0.063728 0.231075 0.037294
v -0.054339 0.222849 0.034591
v -0.058388 0.222948 0.035599
v -0.054339 0.215538 0.034497
v -0.050289 0.222948 0.032172
v -0.061628 0.231734 0.032172
v -0.060818 0.231733 0.032172
v -0.061019 0.229269 0.032172
v -0.074287 0.239383 0.035485
v -0.070815 0.242842 0.034848
v -0.058388 0.225935 0.035599
v -0.059955 0.226108 0.036230
v -0.064828 0.235152 0.036948
v -0.050289 0.222948 0.035599
v -0.054339 0.225722 0.034659
v -0.066765 0.239401 0.035599
v -0.058388 0.228956 0.035599
v -0.063015 0.235203 0.037647
v -0.063015 0.235323 0.032172
v -0.061019 0.229269 0.036861
v -0.060818 0.231909 0.036904
v -0.054339 0.228487 0.034663
v -0.061628 0.231734 0.037294
v -0.062577 0.239712 0.032172
v -0.050289 0.225418 0.035599
v -0.058388 0.232507 0.035599
v -0.064740 0.239600 0.036998
v -0.050289 0.225514 0.032172
v -0.048925 0.225449 0.032172
v -0.060725 0.235257 0.036935
v -0.062176 0.235324 0.037647
v -0.054339 0.232793 0.034731
v -0.050289 0.228403 0.035599
v -0.062577 0.239712 0.037727
v -0.058331 0.235197 0.035599
v -0.066765 0.246876 0.035599
v -0.048925 0.225449 0.036230
v -0.060818 0.239598 0.036985
v -0.058388 0.239401 0.035599
v -0.050289 0.232136 0.035599
v -0.048063 0.227951 0.036861
v -0.054339 0.235143 0.034751
v -0.048063 0.229256 0.032172
v -0.041777 0.222948 0.032172
v -0.037727 0.222948 0.032172
v -0.037727 0.215538 0.032172
v -0.054339 0.239278 0.034802
v -0.048264 0.231728 0.032172
v -0.047252 0.231727 0.032172
v -0.064740 0.248893 0.037108
v -0.050347 0.235129 0.035599
v -0.043343 0.226108 0.032172
v -0.041777 0.226031 0.032172
v -0.048264 0.231329 0.036912
v -0.047252 0.231075 0.037294
v -0.037727 0.222849 0.034591
v -0.041777 0.222948 0.035599
v -0.037727 0.215538 0.034497
v -0.033677 0.222948 0.032172
v -0.045016 0.231734 0.032172
v -0.044206 0.231733 0.032172
v -0.044407 0.229269 0.032172
v -0.041777 0.225935 0.035599
v -0.043343 0.226108 0.036230
v -0.062577 0.251049 0.037727
v -0.048352 0.235152 0.036948
v -0.033677 0.222948 0.035599
v -0.037727 0.225722 0.034659
v -0.050289 0.239401 0.035599
v -0.041777 0.228956 0.035599
v -0.046539 0.235203 0.037647
v -0.046539 0.235323 0.032172
v -0.044407 0.229269 0.036861
v -0.060818 0.252801 0.037143
v -0.044206 0.231909 0.036904
v -0.037727 0.228487 0.034663
v -0.045016 0.231734 0.037294
v -0.046033 0.239712 0.032172
v -0.033677 0.225418 0.035599
v -0.041777 0.232507 0.035599
v -0.048264 0.239600 0.036998
v -0.033677 0.225514 0.032172
v -0.032313 0.225449 0.032172
v -0.044114 0.235257 0.036935
v -0.045564 0.235324 0.037647
v -0.037727 0.232793 0.034731
v -0.033677 0.228403 0.035599
v -0.046033 0.239712 0.037727
v -0.041719 0.235197 0.035599
v -0.032313 0.225449 0.036230
v -0.044206 0.239598 0.036985
v -0.041777 0.239401 0.035599
v -0.033677 0.232136 0.035599
v -0.031451 0.227951 0.036861
v -0.037727 0.235143 0.034751
v -0.031451 0.229256 0.032172
v -0.037727 0.239278 0.034802
v -0.031652 0.231728 0.032172
v -0.030640 0.231727 0.032172
v -0.033736 0.235129 0.035599
v -0.031652 0.231329 0.036912
v -0.030640 0.231075 0.037294
v -0.031740 0.235152 0.036948
v -0.033677 0.239401 0.035599
v -0.050289 0.264753 0.035599
v -0.029927 0.235203 0.037647
v -0.029927 0.235323 0.032172
v -0.029627 0.239712 0.032172
v -0.031652 0.239600 0.036998
v -0.048264 0.267151 0.037323
v -0.029627 0.239712 0.037727
v -0.046033 0.269794 0.037727
v -0.044206 0.271956 0.037374
v -0.041777 0.275079 0.035599
v -0.033677 0.289074 0.035599
v -0.031652 0.292573 0.037623
v -0.029627 0.296072 0.037727
v -0.074865 0.229014 0.032172
v -0.070815 0.225772 0.032172
v -0.074865 0.231732 0.032172
v -0.070815 0.228588 0.032172
v -0.078652 0.235324 0.032172
v -0.077202 0.235324 0.032172
v -0.077229 0.236626 0.032172
v -0.078657 0.235410 0.032172
v -0.074807 0.235324 0.032172
v -0.070815 0.231731 0.032172
v -0.066765 0.228989 0.032172
v -0.070815 0.235323 0.032172
v -0.066765 0.231729 0.032172
v -0.077231 0.236625 0.036950
v -0.076019 0.237657 0.036259
v -0.074857 0.238816 0.035599
v -0.066824 0.235323 0.032172
v -0.064828 0.235323 0.032172
v -0.066765 0.239712 0.032172
v -0.058388 0.229014 0.032172
v -0.054339 0.225772 0.032172
v -0.058388 0.231732 0.032172
v -0.064740 0.239712 0.032172
v -0.054339 0.228588 0.032172
v -0.062176 0.235324 0.032172
v -0.060725 0.235324 0.032172
v -0.066765 0.246876 0.032172
v -0.058331 0.235324 0.032172
v -0.054339 0.231731 0.032172
v -0.060818 0.239712 0.032172
v -0.050289 0.228989 0.032172
v -0.064740 0.248893 0.032172
v -0.054339 0.235323 0.032172
v -0.058388 0.239712 0.032172
v -0.050289 0.231729 0.032172
v -0.062577 0.251049 0.032172
v -0.054339 0.239712 0.032172
v -0.050347 0.235323 0.032172
v -0.060818 0.252801 0.032172
v -0.048352 0.235323 0.032172
v -0.050289 0.239712 0.032172
v -0.041777 0.229014 0.032172
v -0.058388 0.255221 0.032172
v -0.037727 0.225772 0.032172
v -0.048264 0.239712 0.032172
v -0.041777 0.231732 0.032172
v -0.037727 0.228588 0.032172
v -0.045564 0.235324 0.032172
v -0.044114 0.235324 0.032172
v -0.058388 0.255221 0.035599
v -0.041719 0.235324 0.032172
v -0.037727 0.231731 0.032172
v -0.044206 0.239712 0.032172
v -0.033677 0.228989 0.032172
v -0.054339 0.259958 0.035068
v -0.037727 0.235323 0.032172
v -0.041777 0.239712 0.032172
v -0.058073 0.255536 0.035599
v -0.033677 0.231729 0.032172
v -0.054339 0.259958 0.032172
v -0.050289 0.264753 0.032172
v -0.037727 0.239712 0.032172
v -0.033736 0.235323 0.032172
v -0.031740 0.235323 0.032172
v -0.048264 0.267151 0.032172
v -0.033677 0.239712 0.032172
v -0.031652 0.239712 0.032172
v -0.046033 0.269794 0.032172
v -0.044206 0.271956 0.032172
v -0.041777 0.275079 0.032172
v -0.037727 0.282077 0.032172
v -0.037727 0.282077 0.035352
v -0.033677 0.289074 0.032172
v -0.031652 0.292573 0.032172
v -0.029627 0.296072 0.032172
v -0.076019 0.237657 0.032172
v -0.074853 0.238819 0.032172
v -0.058073 0.255536 0.032172
v -0.042227 0.274300 0.032172
v -0.042227 0.274300 0.035856
vn -0.0000 -0.0000 -1.0000
vn 0.0045 -0.0125 0.9999
vn 0.2416 -0.0114 0.9703
vn -0.0000 -0.0128 0.9999
vn 0.2769 -0.0087 0.9609
vn 0.4037 -0.0194 0.9147
vn -0.2429 -0.0120 0.9700
vn 0.0056 -0.0063 1.0000
vn 0.2969 -0.0113 0.9549
vn 0.4379 -0.0221 0.8988
vn 0.4584 -0.0207 0.8885
vn 0.3162 -0.0120 0.9486
vn -0.0028 -0.0052 1.0000
vn 0.4396 -0.0265 0.8978
vn -0.2870 -0.0102 0.9579
vn 0.4728 -0.0092 0.8811
vn 0.4394 -0.0158 0.8981
vn 0.3052 -0.0059 0.9523
vn -0.0029 -0.0075 1.0000
vn -0.3213 -0.0114 0.9469
vn 0.4405 -0.0003 0.8978
vn 0.4855 0.0051 0.8742
vn -0.4619 -0.0239 0.8866
vn -0.0038 -0.0053 1.0000
vn -0.4976 -0.0240 0.8670
vn -0.3428 -0.0116 0.9393
vn 0.9627 -0.2667 -0.0464
vn 0.9402 -0.3398 -0.0252
vn 0.9346 -0.3550 -0.0225
vn 0.9621 -0.2683 -0.0481
vn -0.0484 -0.0050 0.9988
vn 0.1995 -0.0056 0.9799
vn 0.2390 -0.0034 0.9710
vn -0.3510 -0.0049 0.9364
vn -0.4785 -0.0198 0.8778
vn 0.9750 -0.2199 -0.0305
vn 0.9760 -0.2160 -0.0287
vn -0.3674 -0.0032 0.9301
vn -0.1540 -0.0048 0.9881
vn 0.4036 -0.0193 0.9147
vn -0.3590 -0.0217 0.9331
vn -0.4684 -0.0039 0.8835
vn 0.9834 -0.1809 -0.0132
vn -0.3451 -0.0018 0.9385
vn -0.4461 -0.0020 0.8950
vn 0.4583 -0.0208 0.8885
vn -0.0027 -0.0051 1.0000
vn 0.9952 -0.0980 -0.0011
vn 0.4642 -0.0035 0.8857
vn 0.4214 0.0003 0.9069
vn 0.0230 -0.0024 0.9997
vn 0.3254 -0.0051 0.9456
vn -0.1857 -0.0041 0.9826
vn -0.0032 -0.0053 1.0000
vn 0.4633 -0.0026 0.8862
vn 0.2988 -0.0060 0.9543
vn -0.0123 -0.0065 0.9999
vn -0.3712 -0.0052 0.9285
vn -0.5814 -0.0053 0.8136
vn -0.3493 -0.0048 0.9370
vn -0.3589 -0.0216 0.9331
vn 0.2768 -0.0087 0.9609
vn 0.1943 -0.0060 0.9809
vn -0.4667 -0.0033 0.8844
vn 0.4917 -0.0049 0.8708
vn -0.3418 -0.0003 0.9398
vn -0.4457 -0.0037 0.8952
vn 0.2288 -0.0078 0.9734
vn 0.9936 -0.1130 -0.0012
vn 0.4624 -0.0029 0.8867
vn 0.4164 0.0023 0.9092
vn 0.0095 -0.0042 0.9999
vn -0.0030 -0.0076 1.0000
vn 0.4588 -0.0034 0.8885
vn 0.2949 -0.0055 0.9555
vn -0.0046 -0.0063 1.0000
vn -0.3458 -0.0052 0.9383
vn -0.4721 -0.0052 0.8816
vn -0.1584 -0.0057 0.9874
vn -0.0983 -0.0062 0.9951
vn -0.3522 -0.0051 0.9359
vn -0.4642 -0.0046 0.8857
vn 0.9977 -0.0672 -0.0007
vn 1.0000 -0.0049 -0.0004
vn 1.0000 -0.0049 -0.0001
vn -0.2069 -0.0051 0.9783
vn -0.3424 -0.0054 0.9395
vn -0.6088 -0.0049 0.7933
vn 0.1640 -0.0060 0.9864
vn 0.5088 -0.0043 0.8609
vn 0.1856 -0.0066 0.9826
vn 0.5463 -0.0039 0.8376
vn -0.0857 -0.0061 0.9963
vn -0.1227 -0.0059 0.9924
vn -0.3094 -0.0055 0.9509
vn -0.6431 -0.0047 0.7658
vn -0.1964 -0.0056 0.9805
vn -0.8850 -0.4655 -0.0000
vn -0.8842 -0.4671 -0.0000
vn -0.0000 -1.0000 -0.0000
vn -0.9282 -0.3722 -0.0000
vn -0.9252 -0.3794 -0.0000
vn -0.9605 -0.2784 -0.0000
vn -0.9592 -0.2829 -0.0000
vn 0.8777 -0.4791 -0.0000
vn 0.8778 -0.4791 -0.0000
vn -0.9832 -0.1823 -0.0000
vn -0.9826 -0.1860 -0.0000
vn -0.9886 -0.1507 -0.0000
vn -0.9982 -0.0599 -0.0000
vn 0.4889 0.0055 0.8723
vn -0.9253 -0.3794 -0.0000
vn -0.9958 -0.0910 -0.0000
vn -0.9281 -0.3722 -0.0000
vn -0.9591 -0.2829 -0.0000
vn 0.8775 -0.4795 -0.0000
vn 0.1671 -0.0083 0.9859
vn -0.9943 -0.1063 -0.0000
vn 1.0000 -0.0000 -0.0000
vt 1.541749 0.879837
vt 1.542204 0.887411
vt 1.556063 0.886577
vt 1.535662 0.877263
vt 1.535983 0.880184
vt 1.120030 0.914724
vt 1.120184 0.907136
vt 1.106333 0.914783
vt 1.542660 0.894985
vt 1.524953 0.874766
vt 1.525045 0.876281
vt 1.529632 0.875628
vt 1.125780 0.907112
vt 1.126093 0.904176
vt 1.120250 0.922311
vt 1.125415 0.914701
vt 1.131440 0.907087
vt 1.132005 0.902156
vt 1.136953 0.902511
vt 1.138094 0.907059
vt 1.130595 0.914679
vt 1.136619 0.900995
vt 1.124876 0.922291
vt 1.537861 0.895274
vt 1.538136 0.897817
vt 1.143227 0.902658
vt 1.143341 0.899941
vt 1.143133 0.907146
vt 1.138663 0.914644
vt 1.130470 0.922267
vt 1.143502 0.899930
vt 1.145790 0.902592
vt 1.124947 0.924846
vt 1.143064 0.914625
vt 1.129640 0.926441
vt 1.137463 0.922237
vt 1.014187 0.913373
vt 1.015369 0.908687
vt 1.022972 0.908687
vt 1.022972 0.915819
vt 1.543603 0.910651
vt 1.544058 0.918225
vt 1.557917 0.917392
vt 1.150812 0.914592
vt 1.150982 0.908087
vt 1.149914 0.907023
vt 1.531113 0.899857
vt 1.526468 0.899760
vt 1.526583 0.901653
vt 1.537516 0.908078
vt 1.537837 0.910998
vt 1.143070 0.922103
vt 1.510852 0.889297
vt 1.510498 0.883422
vt 1.504999 0.889649
vt 1.135967 0.926037
vt 1.013376 0.919226
vt 1.022972 0.920449
vt 1.120163 0.945594
vt 1.120317 0.938006
vt 1.106466 0.945653
vt 1.544514 0.925799
vt 1.151076 0.922179
vt 1.526807 0.905581
vt 1.526899 0.907095
vt 1.531486 0.906443
vt 1.157490 0.914563
vt 1.125912 0.937982
vt 1.126225 0.935046
vt 1.135499 0.927936
vt 1.143130 0.925842
vt 1.120382 0.953181
vt 1.125547 0.945571
vt 1.131572 0.937957
vt 1.132138 0.933026
vt 1.022972 0.927185
vt 1.012714 0.926961
vt 1.143240 0.929238
vt 1.151464 0.925971
vt 1.137085 0.933381
vt 1.138226 0.937929
vt 1.130728 0.945549
vt 1.136751 0.931865
vt 1.023052 0.935454
vt 1.012645 0.935428
vt 1.125009 0.953161
vt 1.539715 0.926088
vt 1.539990 0.928631
vt 1.143359 0.933528
vt 1.143473 0.930811
vt 1.151692 0.930024
vt 1.143266 0.938016
vt 1.138795 0.945514
vt 1.130602 0.953137
vt 1.165081 0.922118
vt 1.125079 0.955716
vt 1.143197 0.945495
vt 1.151491 0.933319
vt 1.151143 0.937873
vt 1.129772 0.957311
vt 1.137596 0.953107
vt 1.013376 0.912539
vt 1.014558 0.907853
vt 1.022161 0.907853
vt 1.022161 0.914985
vt 1.545472 0.941719
vt 1.545927 0.949293
vt 1.560982 0.957550
vt 1.150944 0.945462
vt 1.532967 0.930671
vt 1.528322 0.930574
vt 1.528437 0.932467
vt 1.168876 0.925896
vt 1.143202 0.952973
vt 1.539385 0.939146
vt 1.539706 0.942066
vt 1.136100 0.956907
vt 1.012565 0.918392
vt 1.022161 0.919615
vt 1.120296 0.976718
vt 1.120450 0.969129
vt 1.106600 0.976776
vt 1.151208 0.953049
vt 1.547349 0.962139
vt 1.528676 0.936649
vt 1.528768 0.938163
vt 1.533355 0.937510
vt 1.135632 0.958806
vt 1.126046 0.969105
vt 1.126359 0.966170
vt 1.172932 0.929932
vt 1.143262 0.956712
vt 1.120515 0.984305
vt 1.176228 0.933213
vt 1.125680 0.976695
vt 1.131706 0.969081
vt 1.132271 0.964150
vt 1.022161 0.926351
vt 1.011903 0.926127
vt 1.143372 0.960109
vt 1.151596 0.956841
vt 1.180783 0.937746
vt 1.137219 0.964505
vt 1.138360 0.969053
vt 1.130861 0.976672
vt 1.136885 0.962989
vt 1.022150 0.934703
vt 1.011743 0.934785
vt 1.125142 0.984285
vt 1.541584 0.957156
vt 1.542748 0.963685
vt 1.143492 0.964652
vt 1.143606 0.961934
vt 1.151825 0.961021
vt 1.143399 0.969140
vt 1.138929 0.976638
vt 1.130735 0.984261
vt 1.125213 0.986839
vt 1.143330 0.976618
vt 1.151625 0.964443
vt 1.151276 0.968997
vt 1.129906 0.988434
vt 1.137729 0.984231
vt 1.539446 0.976702
vt 1.544059 0.975262
vt 1.535676 0.964903
vt 1.151078 0.976586
vt 1.530191 0.961642
vt 1.531099 0.965930
vt 1.143336 0.984097
vt 1.136233 0.988031
vt 1.533646 0.977837
vt 1.151341 0.984172
vt 1.135765 0.989930
vt 1.143396 0.987836
vt 1.198707 0.952845
vt 1.189689 0.945296
vt 1.524414 0.966985
vt 1.525960 0.978928
vt 1.143506 0.991232
vt 1.151730 0.987964
vt 1.516220 0.967741
vt 1.517533 0.979546
vt 1.151957 0.991757
vt 1.203216 0.956619
vt 1.208185 0.960779
vt 1.212252 0.964183
vt 1.218122 0.968710
vt 1.216659 0.967873
vt 1.231265 0.976242
vt 1.244408 0.983773
vt 1.250980 0.987539
vt 1.257552 0.991304
vt 1.066596 0.939500
vt 1.073017 0.939453
vt 1.073118 0.953336
vt 1.068762 0.953368
vt 1.065370 0.933588
vt 1.072973 0.933532
vt 1.530405 0.880519
vt 1.536922 0.887729
vt 1.064145 0.927675
vt 1.072930 0.927611
vt 1.018616 0.890117
vt 1.022972 0.890117
vt 1.022972 0.904000
vt 1.016551 0.904000
vt 1.525321 0.880825
vt 1.063300 0.923063
vt 1.072896 0.922993
vt 1.531656 0.888045
vt 1.518177 0.874146
vt 1.518341 0.876859
vt 1.515901 0.876954
vt 1.518016 0.874147
vt 1.072846 0.916266
vt 1.062588 0.916342
vt 1.518610 0.881338
vt 1.525779 0.888399
vt 1.072845 0.916105
vt 1.062584 0.916180
vt 1.531362 0.895665
vt 1.519060 0.888803
vt 1.526238 0.895973
vt 1.147734 0.904854
vt 1.519510 0.896268
vt 1.016554 0.966876
vt 1.022975 0.966908
vt 1.022905 0.980791
vt 1.018548 0.980769
vt 1.519735 0.900000
vt 1.015402 0.960949
vt 1.023004 0.960987
vt 1.511307 0.896871
vt 1.532259 0.911334
vt 1.538776 0.918543
vt 1.519939 0.903391
vt 1.014249 0.955022
vt 1.023034 0.955066
vt 1.017805 0.889283
vt 1.022161 0.889283
vt 1.022161 0.903166
vt 1.015740 0.903166
vt 1.527174 0.911640
vt 1.511535 0.900658
vt 1.013461 0.950400
vt 1.023057 0.950448
vt 1.533510 0.918860
vt 1.520031 0.904961
vt 1.520195 0.907673
vt 1.497909 0.897677
vt 1.511778 0.904704
vt 1.023091 0.943721
vt 1.012832 0.943670
vt 1.520464 0.912152
vt 1.527633 0.919214
vt 1.511976 0.907993
vt 1.533215 0.926479
vt 1.494365 0.901691
vt 1.520914 0.919617
vt 1.512250 0.912538
vt 1.528092 0.926787
vt 1.490577 0.905980
vt 1.512706 0.920111
vt 1.521364 0.927082
vt 1.016217 0.966337
vt 1.022637 0.966236
vt 1.022857 0.980117
vt 1.018501 0.980186
vt 1.487499 0.909466
vt 1.521589 0.930815
vt 1.513161 0.927686
vt 1.014941 0.960436
vt 1.022543 0.960315
vt 1.534128 0.942402
vt 1.483245 0.914283
vt 1.540646 0.949611
vt 1.521793 0.934205
vt 1.013665 0.954534
vt 1.022449 0.954395
vt 1.562420 0.970990
vt 1.548672 0.973822
vt 1.513389 0.931472
vt 1.529044 0.942707
vt 1.012781 0.949929
vt 1.022376 0.949777
vt 1.535379 0.949928
vt 1.521901 0.936029
vt 1.522064 0.938741
vt 1.513640 0.935645
vt 1.022269 0.943051
vt 1.012012 0.943214
vt 1.522334 0.943220
vt 1.529502 0.950281
vt 1.513846 0.939061
vt 1.535084 0.957547
vt 1.181375 0.938335
vt 1.522784 0.950685
vt 1.514119 0.943605
vt 1.529961 0.957855
vt 1.474843 0.922390
vt 1.466329 0.930503
vt 1.514575 0.951179
vt 1.523233 0.958150
vt 1.523458 0.961883
vt 1.462072 0.934560
vt 1.515030 0.958753
vt 1.515258 0.962540
vt 1.457382 0.939030
vt 1.453542 0.942689
vt 1.447976 0.947585
vt 1.435344 0.955946
vt 1.422713 0.964308
vt 1.416397 0.968488
vt 1.410802 0.973843
vt 1.412100 0.985409
vt 1.514109 0.879333
vt 1.512067 0.881645
vt 1.482692 0.914909
vt 1.449381 0.946655
s 1
usemtl Clock_Texture
f 1/1/1 2/2/1 3/3/1
f 4/4/1 5/5/1 1/1/1
f 6/6/2 7/7/3 8/8/4
f 3/3/1 2/2/1 9/9/1
f 10/10/1 11/11/1 12/12/1
f 13/13/5 14/14/6 7/7/3
f 15/15/7 6/6/2 8/8/4
f 16/16/8 13/13/5 7/7/3 6/6/2
f 14/14/6 13/13/5 17/17/9 18/18/10
f 19/19/11 18/18/10 17/17/9 23/20/12
f 20/21/13 17/17/9 13/13/5 16/16/8
f 19/19/11 21/22/14 18/18/10
f 22/23/15 16/16/8 6/6/2 15/15/7
f 9/9/1 24/24/1 25/25/1
f 21/22/14 19/19/11 26/26/16 27/27/17
f 26/26/16 19/19/11 23/20/12 31/28/18
f 17/17/9 20/21/13 28/29/19 23/20/12
f 29/30/20 20/21/13 16/16/8 22/23/15
f 30/31/21 27/27/17 26/26/16 180/32/22
f 32/33/23 22/23/15 15/15/7
f 31/28/18 23/20/12 28/29/19 35/34/24
f 29/30/20 22/23/15 32/33/23 34/35/25
f 33/36/26 28/29/19 20/21/13 29/30/20
f 34/37/27 32/38/28 25/39/29 36/40/30
f 37/41/1 38/42/1 39/43/1
f 31/28/18 35/34/24 40/44/31 58/45/32 182/46/33
f 36/47/1 41/48/1 42/49/1
f 43/50/1 44/51/1 37/41/1
f 45/52/34 35/34/24 28/29/19 33/36/26
f 46/53/1 47/54/1 48/55/1
f 29/30/20 34/35/25 49/56/35 33/36/26
f 50/57/36 34/37/27 36/40/30 42/58/37
f 51/59/2 52/60/3 53/61/4
f 39/43/1 38/42/1 54/62/1
f 40/44/31 35/34/24 45/52/34 65/63/38
f 55/64/1 56/65/1 57/66/1
f 58/45/32 40/44/31 59/67/39
f 60/68/5 61/69/40 52/60/3
f 50/70/41 49/56/35 34/35/25
f 33/36/26 49/56/35 62/71/42 45/52/34
f 63/72/7 51/59/2 53/61/4
f 64/73/8 60/68/5 52/60/3 51/59/2
f 61/69/40 60/68/5 66/74/9 69/75/10
f 42/58/37 68/76/43 67/77/43 50/57/36
f 62/71/42 49/56/35 50/70/41 67/78/44
f 65/63/38 45/52/34 62/71/42 76/79/45
f 70/80/46 69/75/10 66/74/9 75/81/12
f 71/82/47 66/74/9 60/68/5 64/73/8
f 70/80/46 72/83/14 69/75/10
f 67/77/48 68/76/48 73/84/48 83/85/48
f 74/86/15 64/73/8 51/59/2 63/72/7
f 54/62/1 77/87/1 78/88/1
f 72/83/14 70/80/46 79/89/49 80/90/50
f 76/79/45 62/71/42 67/78/44 83/91/51
f 79/89/49 70/80/46 75/81/12 84/92/52
f 66/74/9 71/82/47 81/93/19 75/81/12
f 82/94/20 71/82/47 64/73/8 74/86/15
f 65/63/38 85/95/53 59/67/39 40/44/31
f 86/96/23 74/86/15 63/72/7
f 84/92/52 75/81/12 81/93/19 91/97/54
f 80/90/50 79/89/49 87/98/55 83/91/51
f 79/89/49 84/92/52 88/99/56 87/98/55
f 82/94/20 74/86/15 86/96/23 90/100/25
f 89/101/26 81/93/19 71/82/47 82/94/20
f 90/102/27 86/103/28 78/104/29 92/105/30
f 93/106/1 94/107/1 95/108/1
f 84/92/52 91/97/54 96/109/57 88/99/56
f 92/110/1 97/111/1 98/112/1
f 76/79/45 99/113/58 85/95/59 65/63/38
f 100/114/34 91/97/54 81/93/19 89/101/26
f 101/115/1 102/116/1 93/106/1
f 82/94/20 90/100/25 103/117/35 89/101/26
f 104/118/36 90/102/27 92/105/30 98/119/37
f 105/120/2 106/121/3 107/122/4
f 96/109/57 91/97/54 100/114/34 118/123/60
f 95/108/1 94/107/1 108/124/1
f 109/125/1 110/126/1 111/127/1
f 104/128/61 103/117/35 90/100/25
f 112/129/62 113/130/40 106/121/3
f 83/91/51 114/131/63 99/113/58 76/79/45
f 89/101/26 103/117/35 115/132/64 100/114/34
f 116/133/7 105/120/2 107/122/4
f 114/131/63 83/91/51 87/98/55 123/134/65
f 117/135/8 112/129/62 106/121/3 105/120/2
f 113/130/40 112/129/62 119/136/9 122/137/10
f 98/119/37 121/138/43 120/139/43 104/118/36
f 115/132/64 103/117/35 104/128/61 120/140/66
f 118/123/60 100/114/34 115/132/64 130/141/67
f 123/134/65 87/98/55 88/99/56 216/142/68
f 124/143/11 122/137/10 119/136/9 129/144/12
f 125/145/47 119/136/9 112/129/62 117/135/8
f 124/143/11 126/146/14 122/137/10
f 120/139/69 121/138/69 127/147/69 137/148/69
f 128/149/15 117/135/8 105/120/2 116/133/7
f 108/124/1 131/150/1 132/151/1
f 126/146/14 124/143/11 133/152/70 134/153/71
f 130/141/67 115/132/64 120/140/66 137/154/72
f 133/152/70 124/143/11 129/144/12 138/155/52
f 119/136/9 125/145/47 135/156/73 129/144/12
f 136/157/20 125/145/47 117/135/8 128/149/15
f 139/158/23 128/149/15 116/133/7
f 138/155/52 129/144/12 135/156/73 144/159/54
f 134/153/71 133/152/70 140/160/74 137/154/72
f 133/152/70 138/155/52 141/161/75 140/160/74
f 136/157/20 128/149/15 139/158/23 143/162/25
f 142/163/26 135/156/73 125/145/47 136/157/20
f 143/164/27 139/165/28 132/151/29 145/166/30
f 138/155/52 144/159/54 146/167/76 141/161/75
f 145/166/1 147/168/1 148/169/1
f 149/170/34 144/159/54 135/156/73 142/163/26
f 136/157/20 143/162/25 150/171/35 142/163/26
f 151/172/36 143/164/27 145/166/30 148/169/37
f 146/167/76 144/159/54 149/170/34 153/173/77
f 151/174/61 150/171/35 143/162/25
f 142/163/26 150/171/35 152/175/78 149/170/34
f 118/123/60 154/176/79 221/177/80 96/109/57
f 148/169/37 156/178/43 155/179/43 151/172/36
f 152/175/78 150/171/35 151/174/61 155/180/81
f 153/173/77 149/170/34 152/175/78 158/181/82
f 155/179/83 156/178/83 157/182/84 160/183/85
f 158/181/82 152/175/78 155/180/81 160/184/86
f 130/141/67 159/185/87 154/176/88 118/123/60
f 137/154/72 161/186/89 159/185/87 130/141/67
f 161/186/89 137/154/72 140/160/74 162/187/90
f 162/187/90 140/160/74 141/161/75 163/188/91 246/189/92
f 163/188/91 141/161/75 146/167/76 238/190/93
f 153/173/77 164/191/94 238/190/93 146/167/76
f 158/181/82 165/192/95 164/191/96 153/173/77
f 160/184/86 166/193/97 165/192/95 158/181/82
f 7/194/98 1/195/99 3/196/100 8/197/100
f 14/198/101 4/199/102 1/195/99 7/194/98
f 12/12/1 167/200/1 5/5/1 4/4/1
f 1/1/1 5/5/1 168/201/1 2/2/1
f 18/202/103 12/203/104 4/199/102 14/198/101
f 8/204/100 3/205/100 9/206/105 15/207/106
f 12/12/1 11/11/1 169/208/1 167/200/1
f 21/209/107 10/210/108 12/203/104 18/202/103
f 168/201/1 5/5/1 167/200/1 170/211/1
f 171/212/1 172/213/1 11/11/1 10/10/1
f 9/9/1 2/2/1 168/201/1 24/24/1
f 173/214/1 172/213/1 171/212/1 174/215/1
f 171/216/109 10/210/108 21/209/107 27/217/109
f 169/208/1 11/11/1 172/213/1 175/218/1
f 170/211/1 167/200/1 169/208/1 176/219/1
f 174/220/110 171/216/110 27/217/110 30/221/110
f 24/24/1 168/201/1 170/211/1 177/222/1
f 176/219/1 169/208/1 175/218/1 178/223/1
f 15/207/106 9/206/105 25/39/29 32/38/28
f 177/222/1 170/211/1 176/219/1 179/224/1
f 25/25/1 24/24/1 177/222/1 36/47/1
f 181/225/111 180/32/22 26/26/16 31/28/18 182/46/33
f 179/224/1 176/219/1 178/223/1 183/226/1
f 36/47/1 177/222/1 179/224/1 41/48/1
f 52/227/98 37/228/99 39/229/100 53/230/100
f 41/48/1 179/224/1 183/226/1 184/231/1
f 61/232/101 43/233/112 37/228/99 52/227/98
f 183/226/1 178/223/1 46/53/1 185/234/1
f 57/66/1 186/235/1 44/51/1 43/50/1
f 37/41/1 44/51/1 187/236/1 38/42/1
f 42/49/1 41/48/1 184/231/1 68/237/1
f 69/238/103 57/239/104 43/233/112 61/232/101
f 53/240/100 39/241/100 54/242/105 63/243/106
f 57/66/1 56/65/1 188/244/1 186/235/1
f 184/231/1 183/226/1 185/234/1 189/245/1
f 72/246/107 55/247/108 57/239/104 69/238/103
f 187/236/1 44/51/1 186/235/1 190/248/1
f 191/249/1 192/250/1 56/65/1 55/64/1
f 185/234/1 46/53/1 48/55/1 193/251/1
f 54/62/1 38/42/1 187/236/1 77/87/1
f 68/237/1 184/231/1 189/245/1 73/252/1
f 191/253/109 55/247/108 72/246/107 80/254/109
f 188/244/1 56/65/1 192/250/1 194/255/1
f 190/248/1 186/235/1 188/244/1 195/256/1
f 73/252/1 196/257/1 192/250/1 191/249/1
f 77/87/1 187/236/1 190/248/1 197/258/1
f 189/245/1 185/234/1 193/251/1 198/259/1
f 83/85/113 73/84/113 191/253/113 80/254/113
f 195/256/1 188/244/1 194/255/1 199/260/1
f 63/243/106 54/242/105 78/104/29 86/103/28
f 194/255/1 192/250/1 196/257/1 200/261/1
f 197/258/1 190/248/1 195/256/1 201/262/1
f 78/88/1 77/87/1 197/258/1 92/110/1
f 73/252/1 189/245/1 198/259/1 202/263/1
f 199/260/1 194/255/1 200/261/1 203/264/1
f 201/262/1 195/256/1 199/260/1 204/265/1
f 92/110/1 197/258/1 201/262/1 97/111/1
f 106/266/98 93/267/99 95/268/100 107/269/100
f 205/270/1 196/257/1 73/252/1 202/263/1
f 97/111/1 201/262/1 204/265/1 206/271/1
f 204/265/1 199/260/1 203/264/1 207/272/1
f 113/273/114 101/274/112 93/267/99 106/266/98
f 111/127/1 208/275/1 102/116/1 101/115/1
f 200/261/1 196/257/1 205/270/1 209/276/1
f 93/106/1 102/116/1 210/277/1 94/107/1
f 98/112/1 97/111/1 206/271/1 121/278/1
f 122/279/103 111/280/115 101/274/112 113/273/114
f 107/281/100 95/108/100 108/124/105 116/282/116
f 206/271/1 204/265/1 207/272/1 211/283/1
f 111/127/1 110/126/1 212/284/1 208/275/1
f 126/285/107 109/286/108 111/280/115 122/279/103
f 210/277/1 102/116/1 208/275/1 213/287/1
f 214/288/1 215/289/1 110/126/1 109/125/1
f 108/124/1 94/107/1 210/277/1 131/150/1
f 121/278/1 206/271/1 211/283/1 127/290/1
f 214/291/109 109/286/108 126/285/107 134/292/109
f 212/284/1 110/126/1 215/289/1 217/293/1
f 213/287/1 208/275/1 212/284/1 218/294/1
f 127/290/1 219/295/1 215/289/1 214/288/1
f 131/150/1 210/277/1 213/287/1 220/296/1
f 88/99/56 96/109/57 221/177/80 224/297/117 216/142/68
f 137/148/118 127/147/118 214/291/118 134/292/118
f 218/294/1 212/284/1 217/293/1 222/298/1
f 116/282/116 108/124/105 132/151/29 139/165/28
f 217/293/1 215/289/1 219/295/1 223/299/1
f 220/296/1 213/287/1 218/294/1 225/300/1
f 132/151/1 131/150/1 220/296/1 145/166/1
f 207/272/1 203/264/1 226/301/1 227/302/1
f 222/298/1 217/293/1 223/299/1 228/303/1
f 225/300/1 218/294/1 222/298/1 229/304/1
f 145/166/1 220/296/1 225/300/1 147/168/1
f 147/168/1 225/300/1 229/304/1 230/305/1
f 211/283/1 207/272/1 227/302/1 231/306/1
f 229/304/1 222/298/1 228/303/1 232/307/1
f 148/169/1 147/168/1 230/305/1 156/178/1
f 230/305/1 229/304/1 232/307/1 233/308/1
f 127/290/1 211/283/1 231/306/1 234/309/1
f 156/178/1 230/305/1 233/308/1 157/182/1
f 235/310/1 219/295/1 127/290/1 234/309/1
f 228/303/1 223/299/1 236/311/1 237/312/1
f 232/307/1 228/303/1 237/312/1 239/313/1
f 240/314/1 233/308/1 232/307/1 239/313/1
f 241/315/1 157/182/1 233/308/1 240/314/1
f 166/316/119 160/183/85 157/182/84 241/315/119
f 175/218/1 172/213/1 173/214/1 242/317/1 243/318/1
f 47/54/1 46/53/1 178/223/1 175/218/1 243/318/1
f 203/264/1 200/261/1 209/276/1 244/319/1 226/301/1
f 223/299/1 219/295/1 235/310/1 245/320/1 236/311/1
