
v -0.022922 0.052652 -0.023218
v -0.013223 0.050053 -0.023218
v -0.022882 0.052800 -0.020464
v -0.013183 0.050201 -0.020464
v -0.003541 0.124983 -0.022568
v 0.006158 0.122384 -0.022568
v -0.003580 0.124835 -0.025322
v 0.006119 0.122236 -0.025322
v -0.032840 0.015635 -0.022335
v -0.023141 0.013036 -0.022335
v -0.023102 0.013184 -0.019581
v -0.032801 0.015783 -0.019581
v -0.002779 0.047254 -0.023218
v -0.002739 0.047402 -0.020464
v -0.009506 0.022147 -0.019728
v -0.009546 0.021999 -0.022482
v -0.033366 0.055450 -0.023218
v -0.033326 0.055598 -0.020464
v -0.040133 0.030195 -0.022482
v -0.040093 0.030343 -0.019728
v -0.023126 0.051891 -0.017061
v -0.013427 0.049292 -0.017061
v -0.029601 0.027725 -0.016357
v -0.019902 0.025127 -0.016357
v -0.009458 0.022328 -0.016357
v -0.002690 0.047583 -0.017093
v -0.033278 0.055779 -0.017093
v -0.040045 0.030524 -0.016357
v -0.023416 0.050809 -0.015658
v -0.013717 0.048210 -0.015658
v -0.029581 0.027799 -0.014987
v -0.019882 0.025200 -0.014987
v -0.009438 0.022402 -0.014987
v -0.002980 0.046501 -0.015690
v -0.033568 0.054697 -0.015690
v -0.040025 0.030598 -0.014987
v 0.004973 0.044291 -0.017059
v -0.001484 0.020192 -0.016357
v 0.004993 0.044365 -0.015690
v -0.001465 0.020265 -0.014987
v -0.041561 0.056760 -0.017059
v -0.048018 0.032660 -0.016357
v -0.047998 0.032734 -0.014987
v -0.041541 0.056834 -0.015690
v -0.023091 0.048895 -0.014472
v -0.014955 0.046715 -0.014472
v -0.028263 0.029592 -0.013909
v -0.020127 0.027412 -0.013909
v -0.011365 0.025064 -0.013909
v -0.005948 0.045281 -0.014498
v -0.031608 0.052157 -0.014498
v -0.037025 0.031940 -0.013909
v -0.004677 0.023272 -0.013909
v 0.000740 0.043489 -0.014498
v -0.038296 0.053949 -0.014498
v -0.043713 0.033732 -0.013909
v -0.007924 0.006918 -0.015850
v -0.049078 0.017945 -0.015850
v -0.033838 0.013667 -0.019221
v -0.049127 0.017764 -0.019221
v -0.023261 0.010833 -0.019221
v -0.007973 0.006737 -0.019221
v -0.032522 -0.002576 -0.015457
v -0.026875 -0.001220 -0.015491
v -0.036735 0.001421 -0.015491
v -0.032571 -0.002757 -0.018828
v -0.036783 0.001240 -0.018862
v -0.026924 -0.001402 -0.018862
v -0.029421 0.024677 -0.015786
v -0.021582 0.022576 -0.015786
v -0.032807 0.013460 -0.015376
v -0.024258 0.011169 -0.015376
v -0.013140 0.020314 -0.015786
v -0.011900 0.007858 -0.015376
v -0.037863 0.026939 -0.015786
v -0.045164 0.016771 -0.015376
v -0.031783 0.000185 -0.015058
v -0.027218 0.001280 -0.015085
v -0.035188 0.003415 -0.015085
vn -0.7068 -0.7057 0.0481
vn 0.2593 -0.9646 0.0481
vn 0.2676 -0.9623 0.0478
vn -0.7129 -0.6996 0.0478
vn 0.0073 0.0272 0.9996
vn -0.0073 -0.0272 -0.9996
vn -0.0050 -0.0256 -0.9997
vn -0.0085 -0.0247 -0.9997
vn 0.9659 -0.2588 -0.0000
vn -0.9659 0.2588 -0.0000
vn -0.0039 -0.0235 -0.9997
vn -0.0084 -0.0223 -0.9997
vn 0.9851 -0.1721 -0.0049
vn -0.9391 0.3435 -0.0049
vn 0.2584 0.9644 -0.0555
vn 0.2388 0.9640 0.1172
vn 0.2309 0.9723 0.0364
vn 0.5503 -0.8341 0.0369
vn 0.0006 -0.0262 -0.9997
vn 0.2752 0.9542 0.1172
vn 0.2862 0.9575 0.0364
vn -0.0136 -0.0224 -0.9997
vn -0.8937 -0.4472 0.0369
vn 0.2739 0.8960 0.3495
vn 0.2109 0.9129 0.3495
vn 0.2334 -0.9712 0.0488
vn -0.2584 -0.9644 0.0555
vn 0.9914 -0.1303 -0.0073
vn 0.2076 0.9300 0.3035
vn 0.2852 0.9092 0.3035
vn -0.9238 0.3828 -0.0073
vn -0.6877 -0.7244 0.0488
vn 0.2412 0.7439 0.6233
vn 0.1630 0.7648 0.6233
vn 0.1959 0.8267 0.5274
vn 0.2437 0.8139 0.5274
vn 0.3064 0.8846 0.3515
vn 0.1770 0.9193 0.3515
vn 0.1444 0.5388 0.8300
vn -0.1194 -0.4457 0.8872
vn 0.0932 0.5703 0.8162
vn 0.2045 0.5404 0.8162
vn 0.2784 -0.0466 0.9593
vn 0.1351 0.5042 0.8530
vn -0.2644 0.0988 0.9593
vn 0.0091 0.0338 0.9994
vn 0.0088 0.0307 0.9995
vn 0.0077 0.0310 0.9995
vn 0.0080 0.0321 0.9995
vn 0.0091 0.0318 0.9995
vn -0.9944 -0.1042 0.0199
vn -0.9925 -0.1205 0.0208
vn -0.0269 -0.0405 -0.9988
vn -0.0286 -0.0546 -0.9981
vn -0.0170 -0.0380 -0.9991
vn -0.0207 -0.0356 -0.9992
vn -0.0025 -0.0616 -0.9981
vn -0.0043 -0.0414 -0.9991
vn 0.0031 -0.0485 -0.9988
vn 0.0001 -0.0411 -0.9992
vn 0.7993 -0.6006 0.0208
vn 0.8090 -0.5874 0.0199
vn 0.0072 0.0268 0.9996
vn 0.0052 0.0278 0.9996
vn 0.0094 0.0267 0.9996
vn -0.8008 -0.5973 0.0436
vn -0.0071 -0.0267 -0.9996
vn -0.0094 -0.0267 -0.9996
vn -0.0052 -0.0278 -0.9996
vn 0.3949 -0.9177 0.0436
vn 0.0501 0.1868 0.9811
vn 0.1289 0.0454 0.9906
vn -0.0889 0.1038 0.9906
vn 0.0428 -0.1541 0.9871
vn 0.0824 -0.1484 0.9855
vn -0.1456 -0.0873 0.9855
vn -0.1142 -0.1120 0.9871
vt 1.226086 0.075997
vt 1.246952 0.076802
vt 1.244671 0.093006
vt 1.224202 0.091901
vt 1.193156 0.149061
vt 1.183853 0.149048
vt 1.183917 0.081076
vt 1.193283 0.081089
vt 1.166954 0.081065
vt 1.177107 0.081080
vt 1.177107 0.149053
vt 1.167295 0.149036
vt 1.160813 0.149082
vt 1.160130 0.081113
vt 1.176720 0.183901
vt 1.167594 0.183901
vt 1.280201 0.195102
vt 1.274489 0.195104
vt 1.274481 0.173134
vt 1.280193 0.173133
vt 0.409574 0.595241
vt 0.608844 0.596240
vt 0.606234 0.976858
vt 0.406964 0.975859
vt 1.195910 0.194867
vt 1.190199 0.194973
vt 1.189793 0.173007
vt 1.195504 0.172902
vt 1.239906 0.210159
vt 1.239928 0.204446
vt 1.249006 0.204483
vt 1.248983 0.210195
vt 0.192390 0.974784
vt 0.195123 0.576135
vt 1.268778 0.078779
vt 1.266391 0.094304
vt 1.186547 0.149053
vt 1.186547 0.172835
vt 1.231498 0.204413
vt 1.231475 0.210125
vt 1.222397 0.210088
vt 1.222420 0.204376
vt 1.157767 0.172835
vt 1.157767 0.149053
vt 1.203436 0.092058
vt 1.205778 0.075855
vt 0.823542 0.579285
vt 0.820809 0.977934
vt 1.231526 0.197419
vt 1.239956 0.197453
vt 1.247081 0.136714
vt 1.235213 0.140901
vt 1.232139 0.127033
vt 1.243129 0.127988
vt 1.267217 0.195150
vt 1.267210 0.173181
vt 1.249034 0.197490
vt 1.222448 0.197383
vt 1.203702 0.172403
vt 1.203909 0.194370
vt 1.221885 0.135446
vt 1.222394 0.126560
vt 1.231720 0.193427
vt 1.240150 0.193461
vt 1.231047 0.167433
vt 1.239477 0.167515
vt 1.240039 0.171753
vt 1.231609 0.171679
vt 1.248555 0.167603
vt 1.249117 0.171832
vt 1.259549 0.172967
vt 1.259557 0.193931
vt 1.256210 0.193835
vt 1.256005 0.171980
vt 1.249227 0.193971
vt 1.222640 0.193865
vt 1.212582 0.192856
vt 1.212307 0.171896
vt 1.215512 0.171412
vt 1.215935 0.193241
vt 1.221970 0.167345
vt 1.222531 0.171600
vt 1.255965 0.197517
vt 0.028580 0.973963
vt 0.031313 0.575314
vt 1.255710 0.168586
vt 1.215267 0.168040
vt 0.987352 0.580106
vt 0.984619 0.978755
vt 1.215518 0.197356
vt 1.232588 0.190743
vt 1.239660 0.190771
vt 1.239728 0.173980
vt 1.232655 0.173952
vt 1.247343 0.174010
vt 1.247273 0.191597
vt 1.224970 0.191508
vt 1.225040 0.173921
vt 1.253529 0.174215
vt 1.253497 0.191802
vt 1.218812 0.191190
vt 1.218619 0.173607
vt 1.238458 0.164197
vt 1.231643 0.164157
vt 1.231393 0.154312
vt 1.238824 0.154356
vt 1.245795 0.164240
vt 1.249565 0.154419
vt 1.224306 0.164114
vt 1.220652 0.154248
vt 1.202477 0.160593
vt 1.195485 0.160722
vt 1.225744 0.103098
vt 1.201297 0.102954
vt 1.242940 0.103433
vt 1.264703 0.104698
vt 1.274271 0.160956
vt 1.267278 0.160958
vt 1.235171 0.143784
vt 1.238623 0.145684
vt 1.231697 0.145643
vt 1.203485 0.134465
vt 1.263743 0.136458
vt 1.252993 0.154563
vt 1.217223 0.154351
s 1
usemtl Clock_Texture
f 9/1/1 10/2/2 11/3/3 12/4/4
f 3/5/5 4/6/5 6/7/5 5/8/5
f 7/9/6 8/10/6 2/11/7 1/12/8
f 2/11/9 8/10/9 6/7/9 4/6/9
f 7/9/10 1/12/10 3/13/10 5/14/10
f 1/12/8 2/11/7 10/15/11 9/16/12
f 13/17/9 14/18/9 15/19/13 16/20/9
f 18/25/10 17/26/10 19/27/10 20/28/14
f 2/29/15 4/30/16 14/31/17 13/32/15
f 11/3/3 10/2/2 16/35/18 15/36/18
f 10/15/11 2/11/7 13/37/19 16/38/19
f 3/39/20 1/40/15 17/41/15 18/42/21
f 1/12/8 9/16/12 19/43/22 17/44/22
f 9/1/1 12/4/4 20/45/23 19/46/23
f 3/39/20 21/49/24 22/50/25 4/30/16
f 64/51/26 63/52/27 66/53/27 68/54/26
f 26/55/9 25/56/28 15/19/13 14/18/9
f 22/50/25 26/57/29 14/31/17 4/30/16
f 27/58/30 21/49/24 3/39/20 18/42/21
f 28/59/31 27/60/10 18/25/10 20/28/14
f 63/52/27 65/61/32 67/62/32 66/53/27
f 22/50/25 21/49/24 29/63/33 30/64/34
f 23/65/27 24/66/27 32/67/27 31/68/27
f 24/66/27 25/69/27 33/70/27 32/67/27
f 38/71/9 37/72/9 39/73/9 40/74/9
f 26/57/29 22/50/25 30/64/34 34/75/35
f 21/49/24 27/58/30 35/76/36 29/63/33
f 41/77/10 42/78/10 43/79/10 44/80/10
f 28/81/27 23/65/27 31/68/27 36/82/27
f 25/56/6 26/55/6 37/72/6 38/71/6
f 26/57/29 34/75/35 39/73/37 37/83/37
f 33/70/27 25/69/27 38/86/27 40/74/27
f 27/60/6 28/59/6 42/78/6 41/77/6
f 28/81/27 36/82/27 43/79/27 42/87/27
f 35/76/36 27/58/30 41/90/38 44/80/38
f 30/64/39 29/63/39 45/91/39 46/92/39
f 31/68/40 32/67/40 48/93/40 47/94/40
f 32/67/40 33/70/40 49/95/40 48/93/40
f 34/75/41 30/64/41 46/92/41 50/96/41
f 29/63/42 35/76/42 51/97/42 45/91/42
f 36/82/40 31/68/40 47/94/40 52/98/40
f 33/70/40 40/74/40 53/99/40 49/95/40
f 40/74/43 39/73/43 54/100/43 53/99/43
f 39/73/44 34/75/44 50/96/44 54/100/44
f 35/76/44 44/80/44 55/101/44 51/97/44
f 44/80/45 43/79/45 56/102/45 55/101/45
f 43/79/40 36/82/40 52/98/40 56/102/40
f 70/103/46 69/104/46 71/105/47 72/106/48
f 73/107/46 70/103/46 72/106/48 74/108/49
f 69/104/46 75/109/46 76/110/50 71/105/47
f 58/111/51 28/59/31 20/28/14 60/112/52
f 20/45/53 12/4/54 59/113/55 60/114/56
f 12/4/54 11/3/57 61/115/58 59/113/55
f 11/3/57 15/36/59 62/116/60 61/115/58
f 62/117/61 15/19/13 25/56/28 57/118/62
f 72/106/48 71/105/47 77/119/63
f 74/108/49 72/106/48 77/119/63 78/120/64
f 71/105/47 76/110/50 79/121/65 77/119/63
f 65/61/66 58/122/51 60/114/52 67/62/66
f 60/114/56 59/113/55 66/53/67 67/62/68
f 59/113/55 61/115/58 66/53/67
f 61/115/58 62/116/60 68/54/69 66/53/67
f 64/51/70 68/54/70 62/116/61 57/123/62
f 24/66/71 23/65/71 69/104/71 70/103/71
f 25/69/71 24/66/71 70/103/71 73/107/71
f 57/124/72 25/69/72 73/107/72 74/108/72
f 23/65/71 28/81/71 75/109/71 69/104/71
f 28/81/73 58/125/73 76/110/73 75/109/73
f 63/52/74 64/51/74 78/120/74 77/119/74
f 64/51/75 57/124/75 74/108/75 78/120/75
f 58/125/76 65/61/76 79/121/76 76/110/76
f 65/61/77 63/52/77 77/119/77 79/121/77
usemtl ClearDetail
f 46/21/5 45/22/5 47/23/5 48/24/5
f 46/21/5 48/24/5 49/33/5 50/34/5
f 47/23/5 45/22/5 51/47/5 52/48/5
f 50/34/5 49/33/5 53/84/5 54/85/5
f 52/48/5 51/47/5 55/88/5 56/89/5
