
v 0.004428 0.185012 0.031913
v 0.003767 0.186310 0.031913
v 0.002737 0.187340 0.031913
v 0.001439 0.188001 0.031913
v -0.000000 0.188229 0.031913
v -0.001439 0.188001 0.031913
v -0.002737 0.187340 0.031913
v -0.003767 0.186310 0.031913
v -0.004428 0.185012 0.031913
v -0.004656 0.183573 0.031913
v -0.004428 0.182134 0.031913
v -0.003767 0.180836 0.031913
v -0.002737 0.179806 0.031913
v -0.001439 0.179145 0.031913
v -0.000000 0.178917 0.031913
v 0.001439 0.179145 0.031913
v 0.002737 0.179806 0.031913
v 0.003767 0.180836 0.031913
v 0.004428 0.182134 0.031913
v 0.004656 0.183573 0.031913
v 0.010987 0.187143 0.031913
v 0.009346 0.190363 0.031913
v 0.006790 0.192919 0.031913
v 0.003570 0.194560 0.031913
v -0.000000 0.195125 0.031913
v -0.003570 0.194560 0.031913
v -0.006790 0.192919 0.031913
v -0.009346 0.190363 0.031913
v -0.010987 0.187143 0.031913
v -0.011552 0.183573 0.031913
v -0.010987 0.180003 0.031913
v -0.009346 0.176783 0.031913
v -0.006790 0.174227 0.031913
v -0.003570 0.172586 0.031913
v -0.000000 0.172021 0.031913
v 0.003570 0.172586 0.031913
v 0.006790 0.174227 0.031913
v 0.009346 0.176783 0.031913
v 0.010987 0.180003 0.031913
v 0.011552 0.183573 0.031913
v 0.025548 0.191874 0.031913
v 0.021733 0.199363 0.031913
v 0.015790 0.205306 0.031913
v 0.008301 0.209121 0.031913
v -0.000000 0.210436 0.031913
v -0.008301 0.209121 0.031913
v -0.015790 0.205306 0.031913
v -0.021733 0.199363 0.031913
v -0.025548 0.191874 0.031913
v -0.026863 0.183573 0.031913
v -0.025548 0.175272 0.031913
v -0.021733 0.167783 0.031913
v -0.015790 0.161840 0.031913
v -0.008301 0.158025 0.031913
v -0.000000 0.156710 0.031913
v 0.008301 0.158025 0.031913
v 0.015790 0.161840 0.031913
v 0.021733 0.167783 0.031913
v 0.025548 0.175272 0.031913
v 0.026863 0.183573 0.031913
v 0.029874 0.193280 0.031913
v 0.025412 0.202036 0.031913
v 0.018463 0.208985 0.031913
v 0.009707 0.213447 0.031913
v -0.000000 0.214985 0.031913
v -0.009707 0.213447 0.031913
v -0.018463 0.208985 0.031913
v -0.025412 0.202036 0.031913
v -0.029874 0.193280 0.031913
v -0.031411 0.183573 0.031913
v -0.029874 0.173866 0.031913
v -0.025412 0.165110 0.031913
v -0.018463 0.158161 0.031913
v -0.009707 0.153699 0.031913
v -0.000000 0.152162 0.031913
v 0.009707 0.153699 0.031913
v 0.018463 0.158161 0.031913
v 0.025412 0.165110 0.031913
v 0.029874 0.173866 0.031913
v 0.031411 0.183573 0.031913
v 0.004428 0.185012 0.033861
v 0.003767 0.186310 0.033861
v 0.002737 0.187340 0.033861
v 0.001439 0.188001 0.033861
v -0.000000 0.188229 0.033861
v -0.001439 0.188001 0.033861
v -0.002737 0.187340 0.033861
v -0.003767 0.186310 0.033861
v -0.004428 0.185012 0.033861
v -0.004656 0.183573 0.033861
v -0.004428 0.182134 0.033861
v -0.003767 0.180836 0.033861
v -0.002737 0.179806 0.033861
v -0.001439 0.179145 0.033861
v -0.000000 0.178917 0.033861
v 0.001439 0.179145 0.033861
v 0.002737 0.179806 0.033861
v 0.003767 0.180836 0.033861
v 0.004428 0.182134 0.033861
v 0.004656 0.183573 0.033861
v 0.003393 0.184676 0.033861
v 0.002886 0.185670 0.033861
v 0.002097 0.186460 0.033861
v 0.001103 0.186966 0.033861
v -0.000000 0.187141 0.033861
v -0.001103 0.186966 0.033861
v -0.002097 0.186460 0.033861
v -0.002886 0.185670 0.033861
v -0.003393 0.184676 0.033861
v -0.003568 0.183573 0.033861
v -0.003393 0.182471 0.033861
v -0.002886 0.181476 0.033861
v -0.002097 0.180687 0.033861
v -0.001103 0.180180 0.033861
v -0.000000 0.180005 0.033861
v 0.001103 0.180180 0.033861
v 0.002097 0.180687 0.033861
v 0.002886 0.181476 0.033861
v 0.003393 0.182471 0.033861
v 0.003568 0.183573 0.033861
v 0.002452 0.184370 0.035141
v 0.002086 0.185089 0.035141
v 0.001515 0.185659 0.035141
v 0.000797 0.186025 0.035141
v -0.000000 0.186151 0.035141
v -0.000797 0.186025 0.035141
v -0.001515 0.185659 0.035141
v -0.002086 0.185089 0.035141
v -0.002452 0.184370 0.035141
v -0.002578 0.183573 0.035141
v -0.002452 0.182776 0.035141
v -0.002086 0.182058 0.035141
v -0.001515 0.181487 0.035141
v -0.000797 0.181121 0.035141
v -0.000000 0.180995 0.035141
v 0.000797 0.181121 0.035141
v 0.001515 0.181487 0.035141
v 0.002086 0.182058 0.035141
v 0.002452 0.182776 0.035141
v 0.002578 0.183573 0.035141
v 0.001217 0.183969 0.035141
v 0.001035 0.184325 0.035141
v 0.000752 0.184609 0.035141
v 0.000396 0.184790 0.035141
v -0.000000 0.184853 0.035141
v -0.000396 0.184790 0.035141
v -0.000752 0.184609 0.035141
v -0.001035 0.184325 0.035141
v -0.001217 0.183969 0.035141
v -0.001280 0.183573 0.035141
v -0.001217 0.183178 0.035141
v -0.001035 0.182821 0.035141
v -0.000752 0.182538 0.035141
v -0.000396 0.182356 0.035141
v -0.000000 0.182293 0.035141
v 0.000396 0.182356 0.035141
v 0.000752 0.182538 0.035141
v 0.001035 0.182821 0.035141
v 0.001217 0.183178 0.035141
v 0.001280 0.183573 0.035141
v 0.001217 0.183969 0.034373
v 0.001035 0.184325 0.034373
v -0.000000 0.183573 0.034373
v 0.000752 0.184609 0.034373
v 0.000396 0.184790 0.034373
v -0.000000 0.184853 0.034373
v -0.000396 0.184790 0.034373
v -0.000752 0.184609 0.034373
v -0.001035 0.184325 0.034373
v -0.001217 0.183969 0.034373
v -0.001280 0.183573 0.034373
v -0.001217 0.183178 0.034373
v -0.001035 0.182821 0.034373
v -0.000752 0.182538 0.034373
v -0.000396 0.182356 0.034373
v -0.000000 0.182293 0.034373
v 0.000396 0.182356 0.034373
v 0.000752 0.182538 0.034373
v 0.001035 0.182821 0.034373
v 0.001217 0.183178 0.034373
v 0.001280 0.183573 0.034373
v 0.031656 0.193859 0.024501
v 0.026928 0.203137 0.024501
v 0.019564 0.210501 0.024501
v 0.010286 0.215229 0.024501
v -0.000000 0.216858 0.024501
v -0.010286 0.215229 0.024501
v -0.019564 0.210501 0.024501
v -0.026928 0.203137 0.024501
v -0.031656 0.193859 0.024501
v -0.033285 0.183573 0.024501
v -0.031656 0.173288 0.024501
v -0.026928 0.164009 0.024501
v -0.019564 0.156645 0.024501
v -0.010286 0.151917 0.024501
v -0.000000 0.150288 0.024501
v 0.010286 0.151917 0.024501
v 0.019564 0.156645 0.024501
v 0.026928 0.164009 0.024501
v 0.031656 0.173288 0.024501
v 0.033285 0.183573 0.024501
vn -0.0000 -0.0000 1.0000
vn 0.8090 0.5878 -0.0000
vn 0.9511 0.3090 -0.0000
vn 0.5878 0.8090 -0.0000
vn 0.3090 0.9511 -0.0000
vn -0.0000 1.0000 -0.0000
vn -0.3090 0.9511 -0.0000
vn -0.5878 0.8090 -0.0000
vn -0.8090 0.5878 -0.0000
vn -0.9511 0.3090 -0.0000
vn -1.0000 -0.0000 -0.0000
vn -0.9511 -0.3090 -0.0000
vn -0.8090 -0.5878 -0.0000
vn -0.5878 -0.8090 -0.0000
vn -0.3090 -0.9511 -0.0000
vn -0.0000 -1.0000 -0.0000
vn 0.3090 -0.9511 -0.0000
vn 0.5878 -0.8090 -0.0000
vn 0.8090 -0.5878 -0.0000
vn 0.9511 -0.3090 -0.0000
vn 1.0000 -0.0000 -0.0000
vn 0.7082 0.3609 0.6068
vn 0.5621 0.5621 0.6068
vn 0.3609 0.7082 0.6068
vn 0.1244 0.7851 0.6068
vn -0.1244 0.7851 0.6068
vn -0.3609 0.7082 0.6068
vn -0.5621 0.5621 0.6068
vn -0.7082 0.3609 0.6068
vn -0.7851 0.1244 0.6068
vn -0.7851 -0.1244 0.6068
vn -0.7082 -0.3609 0.6068
vn -0.7083 -0.3609 0.6068
vn -0.5621 -0.5621 0.6068
vn -0.3609 -0.7082 0.6068
vn -0.1243 -0.7851 0.6068
vn 0.1243 -0.7851 0.6068
vn 0.3609 -0.7082 0.6068
vn 0.5621 -0.5621 0.6068
vn 0.7082 -0.3609 0.6068
vn 0.7851 -0.1244 0.6068
vn 0.7851 0.1244 0.6068
vn 0.7851 0.1243 0.6068
vn -0.3090 -0.9510 -0.0000
vn 0.3090 -0.9510 -0.0000
vn 0.3090 0.9510 -0.0000
vn -0.3090 0.9510 -0.0000
vn 0.8645 0.4405 0.2422
vn 0.6860 0.6860 0.2422
vn 0.6860 0.6861 0.2422
vn 0.4405 0.8645 0.2422
vn 0.1518 0.9583 0.2422
vn -0.1518 0.9583 0.2422
vn -0.4405 0.8645 0.2422
vn -0.6860 0.6861 0.2422
vn -0.8645 0.4405 0.2422
vn -0.9583 0.1518 0.2422
vn -0.9583 -0.1518 0.2422
vn -0.8645 -0.4405 0.2422
vn -0.6860 -0.6861 0.2422
vn -0.4405 -0.8645 0.2422
vn -0.1518 -0.9583 0.2422
vn 0.1518 -0.9583 0.2422
vn 0.4405 -0.8645 0.2422
vn 0.6860 -0.6861 0.2422
vn 0.8645 -0.4405 0.2422
vn 0.9583 -0.1518 0.2422
vn 0.9583 0.1518 0.2422
vn 0.3608 0.7082 0.6068
vt 1.950994 1.157443
vt 1.947924 1.162970
vt 1.931834 1.150559
vt 1.943272 1.167288
vt 1.937492 1.169969
vt 1.931152 1.170748
vt 1.924878 1.169543
vt 1.919290 1.166477
vt 1.914937 1.161852
vt 1.912246 1.156127
vt 1.911477 1.149867
vt 1.912701 1.143686
vt 1.915792 1.138187
vt 1.920446 1.133904
vt 1.926206 1.131253
vt 1.932511 1.130487
vt 1.938750 1.131682
vt 1.944316 1.134719
vt 1.948667 1.139309
vt 1.951379 1.145004
vt 1.952182 1.151251
vt 0.563826 0.511268
vt 0.675632 0.522028
vt 0.652256 0.572470
vt 0.613858 0.613412
vt 0.548316 0.527429
vt 0.564147 0.640449
vt 0.528454 0.538031
vt 0.506218 0.541979
vt 0.508191 0.650583
vt 0.451846 0.642656
vt 0.483844 0.538863
vt 0.401029 0.617540
vt 0.463586 0.529001
vt 0.447469 0.513408
vt 0.360977 0.578005
vt 0.335635 0.528325
vt 0.437074 0.493674
vt 0.433386 0.471786
vt 0.327259 0.473695
vt 0.336297 0.419601
vt 0.436707 0.449909
vt 0.446648 0.430169
vt 0.361488 0.371231
vt 0.400124 0.333021
vt 0.462197 0.414452
vt 0.481826 0.404231
vt 0.448406 0.308333
vt 0.503648 0.400457
vt 0.501810 0.299270
vt 0.555456 0.306576
vt 0.525583 0.403473
vt 0.604458 0.329620
vt 0.545547 0.412998
vt 0.561626 0.428147
vt 0.644272 0.366422
vt 0.671045 0.413753
vt 0.572252 0.447499
vt 0.576355 0.469214
vt 0.681972 0.467314
vt 0.573472 0.491192
vt 0.947480 0.601514
vt 0.890720 0.734889
vt 0.792596 0.845197
vt 0.662286 0.919166
vt 0.513750 0.947286
vt 0.363923 0.925722
vt 0.230028 0.857205
vt 0.126793 0.750470
vt 0.064353 0.618501
vt 0.047334 0.476201
vt 0.075097 0.338187
vt 0.142723 0.217205
vt 0.242295 0.123273
vt 0.364060 0.063408
vt 0.497304 0.041720
vt 0.630953 0.059557
vt 0.753988 0.115630
vt 0.855827 0.205978
vt 0.926841 0.323886
vt 0.959116 0.459796
vt 1.976897 1.179956
vt 1.987433 1.166053
vt 1.979644 1.182397
vt 1.964706 1.192305
vt 1.966762 1.195657
vt 1.950001 1.204171
vt 1.948958 1.200194
vt 1.931352 1.202588
vt 1.931190 1.206776
vt 1.912535 1.203075
vt 1.913896 1.199143
vt 1.896235 1.193541
vt 1.898598 1.190282
vt 1.887131 1.177124
vt 1.884107 1.179423
vt 1.877320 1.162475
vt 1.880607 1.161251
vt 1.879478 1.144444
vt 1.876299 1.144633
vt 1.880801 1.127721
vt 1.883578 1.128412
vt 1.892255 1.114623
vt 1.890074 1.113260
vt 1.903044 1.102391
vt 1.904516 1.104205
vt 1.919174 1.097920
vt 1.918459 1.095864
vt 1.934998 1.094080
vt 1.934947 1.096187
vt 1.950526 1.099097
vt 1.951329 1.097116
vt 1.966145 1.104758
vt 1.964625 1.106429
vt 1.978196 1.116483
vt 1.976028 1.117657
vt 1.986336 1.131453
vt 1.983645 1.131931
vt 1.986604 1.148082
vt 1.989621 1.148481
vt 1.984374 1.164646
vt 0.575467 0.487383
vt 0.565550 0.508022
vt 0.549600 0.524638
vt 0.529171 0.535539
vt 0.506296 0.539600
vt 0.483280 0.536394
vt 0.462441 0.526252
vt 0.445865 0.510220
vt 0.435179 0.489932
vt 0.431392 0.467433
vt 0.434813 0.444950
vt 0.445041 0.424667
vt 0.461032 0.408520
vt 0.481216 0.398022
vt 0.503652 0.394145
vt 0.526205 0.397244
vt 0.546732 0.407030
vt 0.563267 0.422594
vt 0.574199 0.442478
vt 0.578424 0.464794
vt 0.551329 0.498185
vt 0.558956 0.482402
vt 0.539102 0.510875
vt 0.505982 0.522285
vt 0.523470 0.519191
vt 0.472447 0.512100
vt 0.488387 0.519839
vt 0.459748 0.499858
vt 0.448596 0.467124
vt 0.451537 0.484348
vt 0.458986 0.434312
vt 0.451176 0.449886
vt 0.486725 0.413818
vt 0.471236 0.421898
vt 0.521278 0.413215
vt 0.503956 0.410832
vt 0.549710 0.432713
vt 0.537035 0.420745
vt 0.561264 0.465102
vt 0.558065 0.447986
vt 0.539094 0.486670
vt 0.544728 0.475074
vt 0.530089 0.495984
vt 0.505739 0.504348
vt 0.518591 0.502081
vt 0.492810 0.502553
vt 0.471741 0.487893
vt 0.481090 0.496877
vt 0.463489 0.463833
vt 0.465680 0.476500
vt 0.471097 0.439656
vt 0.465363 0.451139
vt 0.491534 0.424523
vt 0.480115 0.430492
vt 0.517029 0.424076
vt 0.504247 0.422314
vt 0.537985 0.438473
vt 0.528649 0.429638
vt 0.546455 0.462346
vt 0.544124 0.449738
vt 1.971009 1.162768
vt 1.948220 1.161286
vt 1.951325 1.155696
vt 1.964780 1.174056
vt 1.943515 1.165653
vt 1.943506 1.188381
vt 1.955303 1.182889
vt 1.931256 1.169150
vt 1.937668 1.168364
vt 1.917734 1.187514
vt 1.930553 1.189978
vt 1.906325 1.181238
vt 1.924911 1.167932
vt 1.897456 1.171780
vt 1.919258 1.164830
vt 1.891994 1.160087
vt 1.914855 1.160154
vt 1.911356 1.148034
vt 1.912133 1.154365
vt 1.892994 1.134744
vt 1.890464 1.147323
vt 1.915720 1.136225
vt 1.912593 1.141784
vt 1.899316 1.123575
vt 1.920427 1.131895
vt 1.908798 1.114890
vt 1.926253 1.129215
vt 1.920511 1.109522
vt 1.932631 1.128441
vt 1.945994 1.110399
vt 1.933321 1.107977
vt 1.957310 1.116557
vt 1.938940 1.129648
vt 1.966174 1.125866
vt 1.944570 1.132720
vt 1.971720 1.137433
vt 1.948971 1.137360
vt 1.952526 1.149436
vt 1.951713 1.143118
vt 1.973393 1.150146
vt 0.967351 0.636380
vt 0.917425 0.791102
vt 0.901086 0.775419
vt 0.803462 0.909002
vt 0.791497 0.888237
vt 0.654855 0.984814
vt 0.648889 0.960671
vt 0.488859 0.982837
vt 0.487923 1.008069
vt 0.322352 0.975164
vt 0.330149 0.951347
vt 0.177813 0.890357
vt 0.191476 0.870237
vt 0.088301 0.750120
vt 0.070497 0.764865
vt 0.030552 0.605936
vt 0.010713 0.614430
vt 0.002106 0.456316
vt 0.021863 0.454147
vt 0.042356 0.306695
vt 0.060165 0.310264
vt 0.124667 0.178971
vt 0.139064 0.187238
vt 0.239444 0.083102
vt 0.249403 0.094765
vt 0.380546 0.039240
vt 0.375644 0.025607
vt 0.521659 0.009916
vt 0.521254 0.024056
vt 0.660196 0.049892
vt 0.665831 0.036699
vt 0.796712 0.104064
vt 0.786248 0.114900
vt 0.888764 0.214657
vt 0.903320 0.207507
vt 0.975562 0.339720
vt 0.958020 0.342012
vt 0.985968 0.486885
vt 1.005010 0.490345
vt 0.986062 0.646040
s 1
f 161/1/1 162/2/1 163/3/1
f 162/2/1 164/4/1 163/3/1
f 164/4/1 165/5/1 163/3/1
f 165/5/1 166/6/1 163/3/1
f 166/6/1 167/7/1 163/3/1
f 167/7/1 168/8/1 163/3/1
f 168/8/1 169/9/1 163/3/1
f 169/9/1 170/10/1 163/3/1
f 170/10/1 171/11/1 163/3/1
f 171/11/1 172/12/1 163/3/1
f 172/12/1 173/13/1 163/3/1
f 173/13/1 174/14/1 163/3/1
f 174/14/1 175/15/1 163/3/1
f 175/15/1 176/16/1 163/3/1
f 176/16/1 177/17/1 163/3/1
f 177/17/1 178/18/1 163/3/1
f 178/18/1 179/19/1 163/3/1
f 179/19/1 180/20/1 163/3/1
f 180/20/1 181/21/1 163/3/1
f 181/21/1 161/1/1 163/3/1
f 2/22/1 21/23/1 22/24/1
f 2/22/1 23/25/1 3/26/1
f 3/26/1 24/27/1 4/28/1
f 5/29/1 24/27/1 25/30/1
f 5/29/1 26/31/1 6/32/1
f 6/32/1 27/33/1 7/34/1
f 8/35/1 27/33/1 28/36/1
f 8/35/1 29/37/1 9/38/1
f 10/39/1 29/37/1 30/40/1
f 10/39/1 31/41/1 11/42/1
f 12/43/1 31/41/1 32/44/1
f 12/43/1 33/45/1 13/46/1
f 14/47/1 33/45/1 34/48/1
f 15/49/1 34/48/1 35/50/1
f 15/49/1 36/51/1 16/52/1
f 16/52/1 37/53/1 17/54/1
f 18/55/1 37/53/1 38/56/1
f 18/55/1 39/57/1 19/58/1
f 20/59/1 39/57/1 40/60/1
f 20/59/1 21/23/1 1/61/1
f 22/24/1 41/62/1 42/63/1
f 23/25/1 42/63/1 43/64/1
f 23/25/1 44/65/1 24/27/1
f 25/30/1 44/65/1 45/66/1
f 25/30/1 46/67/1 26/31/1
f 26/31/1 47/68/1 27/33/1
f 28/36/1 47/68/1 48/69/1
f 28/36/1 49/70/1 29/37/1
f 30/40/1 49/70/1 50/71/1
f 30/40/1 51/72/1 31/41/1
f 32/44/1 51/72/1 52/73/1
f 32/44/1 53/74/1 33/45/1
f 34/48/1 53/74/1 54/75/1
f 34/48/1 55/76/1 35/50/1
f 36/51/1 55/76/1 56/77/1
f 36/51/1 57/78/1 37/53/1
f 38/56/1 57/78/1 58/79/1
f 38/56/1 59/80/1 39/57/1
f 40/60/1 59/80/1 60/81/1
f 40/60/1 41/62/1 21/23/1
f 42/82/1 61/83/1 62/84/1
f 43/85/1 62/84/1 63/86/1
f 43/85/1 64/87/1 44/88/1
f 45/89/1 64/87/1 65/90/1
f 45/89/1 66/91/1 46/92/1
f 46/92/1 67/93/1 47/94/1
f 48/95/1 67/93/1 68/96/1
f 48/95/1 69/97/1 49/98/1
f 50/99/1 69/97/1 70/100/1
f 50/99/1 71/101/1 51/102/1
f 52/103/1 71/101/1 72/104/1
f 52/103/1 73/105/1 53/106/1
f 54/107/1 73/105/1 74/108/1
f 54/107/1 75/109/1 55/110/1
f 56/111/1 75/109/1 76/112/1
f 56/111/1 77/113/1 57/114/1
f 57/114/1 78/115/1 58/116/1
f 58/116/1 79/117/1 59/118/1
f 60/119/1 79/117/1 80/120/1
f 60/119/1 61/83/1 41/121/1
f 2/22/2 81/122/3 1/61/3
f 3/26/4 82/123/2 2/22/2
f 4/28/5 83/124/4 3/26/4
f 5/29/6 84/125/5 4/28/5
f 6/32/7 85/126/6 5/29/6
f 7/34/8 86/127/7 6/32/7
f 8/35/9 87/128/8 7/34/8
f 9/38/10 88/129/9 8/35/9
f 10/39/11 89/130/10 9/38/10
f 11/42/12 90/131/11 10/39/11
f 12/43/13 91/132/12 11/42/12
f 13/46/14 92/133/13 12/43/13
f 14/47/15 93/134/14 13/46/14
f 15/49/16 94/135/15 14/47/15
f 16/52/17 95/136/16 15/49/16
f 17/54/18 96/137/17 16/52/17
f 18/55/19 97/138/18 17/54/18
f 19/58/20 98/139/19 18/55/19
f 20/59/21 99/140/20 19/58/20
f 1/61/3 100/141/21 20/59/21
f 81/122/1 102/142/1 101/143/1
f 83/124/1 102/142/1 82/123/1
f 84/125/1 103/144/1 83/124/1
f 84/125/1 105/145/1 104/146/1
f 86/127/1 105/145/1 85/126/1
f 86/127/1 107/147/1 106/148/1
f 87/128/1 108/149/1 107/147/1
f 89/130/1 108/149/1 88/129/1
f 89/130/1 110/150/1 109/151/1
f 91/132/1 110/150/1 90/131/1
f 91/132/1 112/152/1 111/153/1
f 93/134/1 112/152/1 92/133/1
f 93/134/1 114/154/1 113/155/1
f 95/136/1 114/154/1 94/135/1
f 95/136/1 116/156/1 115/157/1
f 97/138/1 116/156/1 96/137/1
f 97/138/1 118/158/1 117/159/1
f 99/140/1 118/158/1 98/139/1
f 99/140/1 120/160/1 119/161/1
f 81/122/1 120/160/1 100/141/1
f 101/143/22 122/162/22 121/163/22
f 103/144/23 122/162/23 102/142/23
f 104/146/24 123/164/24 103/144/24
f 104/146/25 125/165/25 124/166/25
f 106/148/26 125/165/26 105/145/26
f 107/147/27 126/167/27 106/148/27
f 107/147/28 128/168/28 127/169/28
f 109/151/29 128/168/29 108/149/29
f 109/151/30 130/170/30 129/171/30
f 111/153/31 130/170/31 110/150/31
f 111/153/32 132/172/32 131/173/33
f 113/155/34 132/172/34 112/152/34
f 113/155/35 134/174/35 133/175/35
f 115/157/36 134/174/36 114/154/36
f 115/157/37 136/176/37 135/177/37
f 117/159/38 136/176/38 116/156/38
f 117/159/39 138/178/39 137/179/39
f 119/161/40 138/178/40 118/158/40
f 119/161/41 140/180/41 139/181/41
f 101/143/42 140/180/42 120/160/43
f 121/182/1 142/183/1 141/184/1
f 122/185/1 143/186/1 142/183/1
f 124/187/1 143/186/1 123/188/1
f 124/187/1 145/189/1 144/190/1
f 126/191/1 145/189/1 125/192/1
f 127/193/1 146/194/1 126/191/1
f 128/195/1 147/196/1 127/193/1
f 129/197/1 148/198/1 128/195/1
f 129/197/1 150/199/1 149/200/1
f 131/201/1 150/199/1 130/202/1
f 131/201/1 152/203/1 151/204/1
f 132/205/1 153/206/1 152/203/1
f 133/207/1 154/208/1 153/206/1
f 134/209/1 155/210/1 154/208/1
f 136/211/1 155/210/1 135/212/1
f 137/213/1 156/214/1 136/211/1
f 138/215/1 157/216/1 137/213/1
f 139/217/1 158/218/1 138/215/1
f 139/217/1 160/219/1 159/220/1
f 121/182/1 160/219/1 140/221/1
f 142/183/13 161/1/12 141/184/12
f 143/186/14 162/2/13 142/183/13
f 144/190/15 164/4/14 143/186/14
f 145/189/16 165/5/44 144/190/15
f 146/194/45 166/6/16 145/189/16
f 147/196/18 167/7/17 146/194/45
f 148/198/19 168/8/18 147/196/18
f 149/200/20 169/9/19 148/198/19
f 150/199/21 170/10/20 149/200/20
f 151/204/3 171/11/21 150/199/21
f 152/203/2 172/12/3 151/204/3
f 153/206/4 173/13/2 152/203/2
f 153/206/4 175/15/46 174/14/4
f 154/208/46 176/16/6 175/15/46
f 156/214/47 176/16/6 155/210/6
f 157/216/8 177/17/47 156/214/47
f 157/216/8 179/19/9 178/18/8
f 159/220/10 179/19/9 158/218/9
f 160/219/11 180/20/10 159/220/10
f 141/184/12 181/21/11 160/219/11
f 61/222/48 183/223/48 62/224/48
f 62/224/49 184/225/50 63/226/50
f 63/226/51 185/227/51 64/228/51
f 65/229/52 185/227/52 186/230/52
f 65/229/53 187/231/53 66/232/53
f 66/232/54 188/233/54 67/234/54
f 68/235/55 188/233/55 189/236/55
f 69/237/56 189/236/56 190/238/56
f 69/237/57 191/239/57 70/240/57
f 70/240/58 192/241/58 71/242/58
f 71/242/59 193/243/59 72/244/59
f 72/244/60 194/245/60 73/246/60
f 74/247/61 194/245/61 195/248/61
f 74/247/62 196/249/62 75/250/62
f 76/251/63 196/249/63 197/252/63
f 76/251/64 198/253/64 77/254/64
f 78/255/65 198/253/65 199/256/65
f 78/255/66 200/257/66 79/258/66
f 80/259/67 200/257/67 201/260/67
f 80/259/68 182/261/68 61/222/68
f 2/22/1 1/61/1 21/23/1
f 2/22/1 22/24/1 23/25/1
f 3/26/1 23/25/1 24/27/1
f 5/29/1 4/28/1 24/27/1
f 5/29/1 25/30/1 26/31/1
f 6/32/1 26/31/1 27/33/1
f 8/35/1 7/34/1 27/33/1
f 8/35/1 28/36/1 29/37/1
f 10/39/1 9/38/1 29/37/1
f 10/39/1 30/40/1 31/41/1
f 12/43/1 11/42/1 31/41/1
f 12/43/1 32/44/1 33/45/1
f 14/47/1 13/46/1 33/45/1
f 15/49/1 14/47/1 34/48/1
f 15/49/1 35/50/1 36/51/1
f 16/52/1 36/51/1 37/53/1
f 18/55/1 17/54/1 37/53/1
f 18/55/1 38/56/1 39/57/1
f 20/59/1 19/58/1 39/57/1
f 20/59/1 40/60/1 21/23/1
f 22/24/1 21/23/1 41/62/1
f 23/25/1 22/24/1 42/63/1
f 23/25/1 43/64/1 44/65/1
f 25/30/1 24/27/1 44/65/1
f 25/30/1 45/66/1 46/67/1
f 26/31/1 46/67/1 47/68/1
f 28/36/1 27/33/1 47/68/1
f 28/36/1 48/69/1 49/70/1
f 30/40/1 29/37/1 49/70/1
f 30/40/1 50/71/1 51/72/1
f 32/44/1 31/41/1 51/72/1
f 32/44/1 52/73/1 53/74/1
f 34/48/1 33/45/1 53/74/1
f 34/48/1 54/75/1 55/76/1
f 36/51/1 35/50/1 55/76/1
f 36/51/1 56/77/1 57/78/1
f 38/56/1 37/53/1 57/78/1
f 38/56/1 58/79/1 59/80/1
f 40/60/1 39/57/1 59/80/1
f 40/60/1 60/81/1 41/62/1
f 42/82/1 41/121/1 61/83/1
f 43/85/1 42/82/1 62/84/1
f 43/85/1 63/86/1 64/87/1
f 45/89/1 44/88/1 64/87/1
f 45/89/1 65/90/1 66/91/1
f 46/92/1 66/91/1 67/93/1
f 48/95/1 47/94/1 67/93/1
f 48/95/1 68/96/1 69/97/1
f 50/99/1 49/98/1 69/97/1
f 50/99/1 70/100/1 71/101/1
f 52/103/1 51/102/1 71/101/1
f 52/103/1 72/104/1 73/105/1
f 54/107/1 53/106/1 73/105/1
f 54/107/1 74/108/1 75/109/1
f 56/111/1 55/110/1 75/109/1
f 56/111/1 76/112/1 77/113/1
f 57/114/1 77/113/1 78/115/1
f 58/116/1 78/115/1 79/117/1
f 60/119/1 59/118/1 79/117/1
f 60/119/1 80/120/1 61/83/1
f 2/22/2 82/123/2 81/122/3
f 3/26/4 83/124/4 82/123/2
f 4/28/5 84/125/5 83/124/4
f 5/29/6 85/126/6 84/125/5
f 6/32/7 86/127/7 85/126/6
f 7/34/8 87/128/8 86/127/7
f 8/35/9 88/129/9 87/128/8
f 9/38/10 89/130/10 88/129/9
f 10/39/11 90/131/11 89/130/10
f 11/42/12 91/132/12 90/131/11
f 12/43/13 92/133/13 91/132/12
f 13/46/14 93/134/14 92/133/13
f 14/47/15 94/135/15 93/134/14
f 15/49/16 95/136/16 94/135/15
f 16/52/17 96/137/17 95/136/16
f 17/54/18 97/138/18 96/137/17
f 18/55/19 98/139/19 97/138/18
f 19/58/20 99/140/20 98/139/19
f 20/59/21 100/141/21 99/140/20
f 1/61/3 81/122/3 100/141/21
f 81/122/1 82/123/1 102/142/1
f 83/124/1 103/144/1 102/142/1
f 84/125/1 104/146/1 103/144/1
f 84/125/1 85/126/1 105/145/1
f 86/127/1 106/148/1 105/145/1
f 86/127/1 87/128/1 107/147/1
f 87/128/1 88/129/1 108/149/1
f 89/130/1 109/151/1 108/149/1
f 89/130/1 90/131/1 110/150/1
f 91/132/1 111/153/1 110/150/1
f 91/132/1 92/133/1 112/152/1
f 93/134/1 113/155/1 112/152/1
f 93/134/1 94/135/1 114/154/1
f 95/136/1 115/157/1 114/154/1
f 95/136/1 96/137/1 116/156/1
f 97/138/1 117/159/1 116/156/1
f 97/138/1 98/139/1 118/158/1
f 99/140/1 119/161/1 118/158/1
f 99/140/1 100/141/1 120/160/1
f 81/122/1 101/143/1 120/160/1
f 101/143/22 102/142/22 122/162/22
f 103/144/23 123/164/23 122/162/23
f 104/146/24 124/166/69 123/164/24
f 104/146/25 105/145/25 125/165/25
f 106/148/26 126/167/26 125/165/26
f 107/147/27 127/169/27 126/167/27
f 107/147/28 108/149/28 128/168/28
f 109/151/29 129/171/29 128/168/29
f 109/151/30 110/150/30 130/170/30
f 111/153/31 131/173/31 130/170/31
f 111/153/32 112/152/32 132/172/32
f 113/155/34 133/175/34 132/172/34
f 113/155/35 114/154/35 134/174/35
f 115/157/36 135/177/36 134/174/36
f 115/157/37 116/156/37 136/176/37
f 117/159/38 137/179/38 136/176/38
f 117/159/39 118/158/39 138/178/39
f 119/161/40 139/181/40 138/178/40
f 119/161/41 120/160/41 140/180/41
f 101/143/42 121/163/42 140/180/42
f 121/182/1 122/185/1 142/183/1
f 122/185/1 123/188/1 143/186/1
f 124/187/1 144/190/1 143/186/1
f 124/187/1 125/192/1 145/189/1
f 126/191/1 146/194/1 145/189/1
f 127/193/1 147/196/1 146/194/1
f 128/195/1 148/198/1 147/196/1
f 129/197/1 149/200/1 148/198/1
f 129/197/1 130/202/1 150/199/1
f 131/201/1 151/204/1 150/199/1
f 131/201/1 132/205/1 152/203/1
f 132/205/1 133/207/1 153/206/1
f 133/207/1 134/209/1 154/208/1
f 134/209/1 135/212/1 155/210/1
f 136/211/1 156/214/1 155/210/1
f 137/213/1 157/216/1 156/214/1
f 138/215/1 158/218/1 157/216/1
f 139/217/1 159/220/1 158/218/1
f 139/217/1 140/221/1 160/219/1
f 121/182/1 141/184/1 160/219/1
f 142/183/13 162/2/13 161/1/12
f 143/186/14 164/4/14 162/2/13
f 144/190/15 165/5/44 164/4/14
f 145/189/16 166/6/16 165/5/44
f 146/194/45 167/7/17 166/6/16
f 147/196/18 168/8/18 167/7/17
f 148/198/19 169/9/19 168/8/18
f 149/200/20 170/10/20 169/9/19
f 150/199/21 171/11/21 170/10/20
f 151/204/3 172/12/3 171/11/21
f 152/203/2 173/13/2 172/12/3
f 153/206/4 174/14/4 173/13/2
f 153/206/4 154/208/46 175/15/46
f 154/208/46 155/210/6 176/16/6
f 156/214/47 177/17/47 176/16/6
f 157/216/8 178/18/8 177/17/47
f 157/216/8 158/218/9 179/19/9
f 159/220/10 180/20/10 179/19/9
f 160/219/11 181/21/11 180/20/10
f 141/184/12 161/1/12 181/21/11
f 61/222/48 182/261/48 183/223/48
f 62/224/49 183/223/49 184/225/50
f 63/226/51 184/225/51 185/227/51
f 65/229/52 64/228/52 185/227/52
f 65/229/53 186/230/53 187/231/53
f 66/232/54 187/231/54 188/233/54
f 68/235/55 67/234/55 188/233/55
f 69/237/56 68/235/56 189/236/56
f 69/237/57 190/238/57 191/239/57
f 70/240/58 191/239/58 192/241/58
f 71/242/59 192/241/59 193/243/59
f 72/244/60 193/243/60 194/245/60
f 74/247/61 73/246/61 194/245/61
f 74/247/62 195/248/62 196/249/62
f 76/251/63 75/250/63 196/249/63
f 76/251/64 197/252/64 198/253/64
f 78/255/65 77/254/65 198/253/65
f 78/255/66 199/256/66 200/257/66
f 80/259/67 79/258/67 200/257/67
f 80/259/68 201/260/68 182/261/68
