
v -0.059040 0.140797 0.025939
v 0.057600 0.140797 0.025939
v 0.057600 0.135797 0.025939
v -0.059040 0.135797 0.025939
v -0.059040 0.243887 -0.030912
v -0.059040 0.243887 0.025939
v 0.057600 0.243887 0.025939
v 0.057600 0.243887 -0.030912
v -0.026930 0.302663 -0.030912
v -0.026930 0.302663 0.025939
v 0.025490 0.302663 0.025939
v 0.025490 0.302663 -0.030912
v 0.057600 0.140797 0.050179
v 0.057600 0.140570 0.050728
v 0.057600 0.140020 0.050955
v -0.059040 0.140020 0.050955
v -0.059040 0.140570 0.050728
v -0.059040 0.140797 0.050179
v 0.057600 0.140797 -0.030912
v 0.057600 0.140021 -0.030912
v 0.057600 0.141621 -0.030912
v 0.080558 0.140021 -0.030912
v 0.080330 0.140570 -0.030952
v 0.079781 0.141250 -0.030879
v 0.080558 0.140020 0.025939
v 0.080330 0.140570 0.025939
v 0.079782 0.140797 0.025939
v 0.079147 0.140797 0.049544
v 0.079615 0.140402 0.050037
v 0.079586 0.139797 0.050046
v -0.059040 0.140797 -0.030912
v -0.059040 0.141621 -0.030912
v -0.059040 0.140021 -0.030912
v -0.079781 0.141250 -0.030879
v -0.080330 0.140570 -0.030952
v -0.080558 0.140021 -0.030912
v -0.079782 0.140797 0.025939
v -0.080330 0.140570 0.025939
v -0.080558 0.140020 0.025939
v -0.079586 0.139797 0.050046
v -0.079615 0.140402 0.050037
v -0.079147 0.140797 0.049544
v 0.057496 0.135797 0.050111
v 0.057569 0.136045 0.050708
v 0.057600 0.136642 0.050955
v -0.058927 0.135797 0.050111
v -0.059007 0.136045 0.050708
v -0.059040 0.136642 0.050955
v 0.057600 0.135797 -0.030068
v 0.057600 0.136044 -0.030665
v 0.057600 0.136641 -0.030912
v -0.059040 0.136641 -0.030912
v -0.059040 0.136044 -0.030665
v -0.059040 0.135797 -0.030068
v 0.079714 0.135797 -0.030068
v 0.080311 0.136044 -0.030665
v 0.080558 0.136641 -0.030912
v 0.079714 0.135797 0.025841
v 0.080311 0.136045 0.025911
v 0.080558 0.136642 0.025939
v 0.075164 0.135797 0.045878
v 0.075667 0.135905 0.046370
v 0.076108 0.136217 0.046789
v -0.079714 0.135797 -0.030068
v -0.080311 0.136044 -0.030665
v -0.080558 0.136641 -0.030912
v -0.079714 0.135797 0.025841
v -0.080311 0.136045 0.025911
v -0.080558 0.136642 0.025939
v -0.075168 0.135797 0.045893
v -0.075668 0.135905 0.046374
v -0.076107 0.136216 0.046789
v -0.005962 0.302663 0.025939
v -0.012384 0.243887 0.025939
v -0.012384 0.140797 0.025939
v -0.012384 0.140797 0.050179
v -0.012384 0.140570 0.050728
v -0.012384 0.140020 0.050955
v -0.012384 0.136642 0.050955
v -0.012376 0.136045 0.050708
v -0.012358 0.135797 0.050111
v -0.012384 0.135797 0.025939
v -0.012384 0.135797 -0.030068
v -0.012384 0.136045 -0.030665
v -0.012384 0.136641 -0.030912
v 0.015610 0.136641 -0.030912
v 0.015610 0.136045 -0.030665
v 0.015610 0.135797 -0.030068
v 0.015610 0.135797 0.025939
v 0.015584 0.135797 0.050111
v 0.015602 0.136045 0.050708
v 0.015610 0.136642 0.050955
v 0.015610 0.140020 0.050955
v 0.015610 0.140570 0.050728
v 0.015610 0.140797 0.050179
v 0.015610 0.140797 0.025939
v 0.015610 0.243887 0.025939
v 0.006619 0.302663 0.025939
v -0.039774 0.279153 -0.030912
v -0.039774 0.279153 0.025939
v -0.008531 0.279153 0.025939
v 0.010215 0.279153 0.025939
v 0.038334 0.279153 0.025939
v 0.038334 0.279153 -0.030912
v -0.008531 0.279153 -0.011725
v 0.010215 0.279153 -0.011725
v -0.012384 0.243887 -0.011725
v 0.015610 0.243887 -0.011725
vn -0.0000 -0.0000 1.0000
vn 1.0000 -0.0000 -0.0000
vn 0.9904 0.1384 -0.0000
vn -0.8776 0.4794 -0.0000
vn 0.8776 0.4794 -0.0000
vn -0.0000 -0.0000 -1.0000
vn -1.0000 -0.0000 -0.0000
vn -0.9904 0.1384 -0.0000
vn -0.0000 0.0578 0.9983
vn -0.0000 0.3823 0.9240
vn -0.0000 0.9237 0.3831
vn -0.0000 1.0000 0.0092
vn -0.0000 -0.0008 -1.0000
vn -0.0001 -0.0023 -1.0000
vn -0.0010 -0.0304 -0.9995
vn -0.0001 -0.0039 -1.0000
vn 0.0005 0.0485 -0.9988
vn 0.0085 1.0000 -0.0019
vn 0.0291 0.9995 -0.0076
vn -0.0089 1.0000 -0.0019
vn -0.0005 0.0485 -0.9988
vn -0.0310 0.9995 -0.0076
vn 0.0001 -0.0021 -1.0000
vn -0.0000 -0.0007 -1.0000
vn 0.0001 -0.0039 -1.0000
vn 0.0011 -0.0304 -0.9995
vn 0.0038 1.0000 0.0050
vn 0.0242 0.9997 0.0080
vn -0.0000 1.0000 -0.0000
vn 0.0001 0.9999 0.0106
vn -0.0258 0.9996 0.0080
vn -0.0038 1.0000 0.0047
vn -0.0002 0.9999 0.0104
vn 0.0065 0.9043 0.4268
vn 0.0188 0.8616 0.5073
vn 0.0129 0.3210 0.9470
vn 0.0350 -0.1002 0.9943
vn 0.0374 0.1994 0.9792
vn -0.0334 -0.0833 0.9960
vn -0.0122 0.3278 0.9447
vn -0.0400 0.1993 0.9791
vn -0.0062 0.9066 0.4219
vn -0.0201 0.8618 0.5069
vn 0.9982 0.0600 -0.0000
vn 0.9240 0.3825 -0.0000
vn 0.9469 0.3214 0.0106
vn 0.9957 -0.0881 0.0294
vn 0.6372 0.7707 0.0031
vn 0.6072 0.7945 0.0069
vn 0.9849 0.1697 0.0358
vn 0.5163 0.8562 0.0176
vn -0.6372 0.7707 0.0031
vn -0.6073 0.7945 0.0068
vn -0.9240 0.3825 -0.0000
vn -0.9982 0.0600 -0.0000
vn -0.9957 -0.0882 0.0294
vn -0.9469 0.3214 0.0106
vn -0.5163 0.8562 0.0176
vn -0.9849 0.1697 0.0358
vn -0.0000 -0.0209 -0.9998
vn -0.0000 -0.3827 -0.9239
vn -0.0000 -0.0222 -0.9998
vn -0.0000 -0.9239 -0.3827
vn -0.0000 -1.0000 -0.0044
vn -0.0000 -1.0000 -0.0000
vn 0.0157 -0.9999 -0.0063
vn 0.0113 -0.9999 0.0005
vn -0.0000 -0.0332 -0.9995
vn -0.0000 -0.0314 -0.9995
vn 0.0006 -0.9999 0.0102
vn 0.0098 -0.9999 0.0091
vn -0.0002 -1.0000 0.0100
vn -0.0000 -1.0000 0.0100
vn -0.0121 -0.9999 0.0005
vn -0.0168 -0.9998 -0.0063
vn -0.0005 -0.9999 0.0103
vn -0.0105 -0.9999 0.0090
vn 0.0403 -0.2171 0.9753
vn 0.1073 -0.4758 0.8730
vn 0.1029 -0.4633 0.8802
vn -0.0000 -0.0492 -0.9988
vn 0.9783 -0.2043 0.0339
vn 0.9988 -0.0493 -0.0000
vn -0.9988 -0.0493 -0.0000
vn -0.9783 -0.2042 0.0339
vn -0.0000 -0.0622 0.9981
vn -0.0000 -0.0621 0.9981
vn 0.8636 -0.4937 0.1024
vn 0.8711 -0.4813 0.0981
vn -0.8636 -0.4937 0.1024
vn -0.8710 -0.4813 0.0981
vn -0.0000 -0.0491 -0.9988
vn -0.1104 -0.4660 0.8779
vn -0.1153 -0.4786 0.8704
vn -0.0385 -0.2005 0.9789
vn -0.0000 -0.9237 0.3831
vn -0.0000 -0.3823 0.9240
vn -0.0178 -0.9341 0.3565
vn -0.1873 -0.9692 0.1598
vn -0.0460 -0.4532 0.8902
vn -0.1780 -0.6384 0.7489
vn 0.3828 -0.9238 -0.0000
vn 0.3559 -0.9344 0.0158
vn 0.9239 -0.3825 -0.0000
vn 0.8896 -0.4549 0.0405
vn 0.1803 -0.9698 0.1640
vn 0.7491 -0.6438 0.1561
vn 0.0487 -0.4626 0.8852
vn 0.1650 -0.6374 0.7526
vn 0.0189 -0.9356 0.3526
vn -0.9239 -0.3825 -0.0000
vn -0.8898 -0.4545 0.0405
vn -0.3828 -0.9238 -0.0000
vn -0.3562 -0.9343 0.0159
vn -0.7500 -0.6428 0.1563
vn 0.9941 -0.1086 -0.0000
vn -0.9885 -0.1512 -0.0000
vt 1.805521 0.362468
vt 1.802527 0.186177
vt 1.848749 0.186193
vt 1.847174 0.362322
vt 1.666564 0.142386
vt 1.749096 0.143495
vt 1.745401 0.282277
vt 1.664250 0.282279
vt 1.883552 0.328576
vt 1.992972 0.327872
vt 1.993682 0.359772
vt 1.865032 0.360493
vt 1.815158 0.458457
vt 1.809473 0.419227
vt 1.842335 0.419105
vt 1.835932 0.458457
vt 1.663458 0.330134
vt 1.773610 0.330138
vt 1.792482 0.362029
vt 1.662930 0.362037
vt 0.618696 0.487419
vt 0.908710 0.487570
vt 0.860972 0.569287
vt 0.666336 0.569186
vt 0.547445 0.009204
vt 0.980528 0.009428
vt 0.980317 0.364993
vt 0.547235 0.364769
vt 1.906013 0.141950
vt 1.988793 0.140145
vt 1.991907 0.280022
vt 1.911235 0.280724
vt 1.803524 0.010231
vt 1.803535 0.009416
vt 1.849755 0.009932
vt 1.849743 0.010747
vt 1.846750 0.140271
vt 1.846750 0.141177
vt 1.800527 0.141144
vt 1.800528 0.140238
vt 1.748256 0.140038
vt 1.748265 0.141091
vt 1.717414 0.141035
vt 1.717099 0.140293
vt 1.916045 0.275251
vt 1.916175 0.275578
vt 1.952615 0.273867
vt 1.953521 0.274774
vt 1.722536 0.272760
vt 1.723378 0.274754
vt 1.688239 0.274585
vt 1.689147 0.273679
vt 1.906560 0.139800
vt 1.906552 0.138748
vt 1.935754 0.138510
vt 1.935451 0.139257
vt 1.918084 0.186218
vt 1.952682 0.181277
vt 1.916084 0.141227
vt 1.951662 0.142299
vt 1.689212 0.181089
vt 1.725488 0.186149
vt 1.690287 0.142113
vt 1.723489 0.141089
vt 1.916085 0.140321
vt 1.952435 0.141487
vt 1.734206 0.008641
vt 1.734195 0.009455
vt 1.697086 0.009636
vt 1.697854 0.008484
vt 1.926775 0.011608
vt 1.926787 0.010793
vt 1.960754 0.011422
vt 1.962193 0.012672
vt 1.723490 0.140183
vt 1.689515 0.141299
vt 1.691926 0.129904
vt 1.691031 0.129542
vt 1.693821 0.045596
vt 1.694728 0.045620
vt 1.953588 0.181277
vt 1.695286 0.009878
vt 1.693445 0.045586
vt 1.694608 0.010591
vt 1.688306 0.181088
vt 1.963945 0.132769
vt 1.963035 0.133101
vt 1.963754 0.048782
vt 1.964661 0.048789
vt 1.965037 0.048791
vt 1.964689 0.013047
vt 1.965336 0.013781
vt 1.805205 0.134987
vt 1.805242 0.133777
vt 1.843234 0.133600
vt 1.843196 0.134678
vt 1.805286 0.132567
vt 1.843278 0.132522
vt 1.748207 0.056623
vt 1.748297 0.132635
vt 1.718285 0.132671
vt 1.718194 0.056792
vt 1.805196 0.056555
vt 1.843188 0.056510
vt 1.906514 0.134161
vt 1.748218 0.135452
vt 1.748310 0.023817
vt 1.724338 0.029591
vt 1.843114 0.023704
vt 1.805192 0.023749
vt 1.906508 0.056435
vt 1.934567 0.056535
vt 1.934657 0.132414
vt 1.906599 0.132447
vt 1.906316 0.023629
vt 1.928365 0.029328
vt 1.734153 0.014681
vt 1.702827 0.014720
vt 1.717062 0.135706
vt 1.700304 0.045770
vt 1.697503 0.130053
vt 1.957455 0.133062
vt 1.958176 0.048744
vt 1.849674 0.015758
vt 1.803455 0.015241
vt 1.955953 0.018038
vt 1.935717 0.133923
vt 1.926665 0.016886
vt 1.805166 0.022940
vt 1.843138 0.022895
vt 1.803455 0.016127
vt 1.849649 0.016643
vt 1.906424 0.022820
vt 1.929043 0.028675
vt 1.926644 0.017513
vt 1.954643 0.019749
vt 1.748255 0.134043
vt 1.717433 0.134187
vt 1.717385 0.056699
vt 1.698500 0.129713
vt 1.701288 0.045839
vt 1.723654 0.028924
vt 1.703993 0.015823
vt 1.734150 0.015308
vt 1.748208 0.023008
vt 1.906554 0.133304
vt 1.935422 0.133169
vt 1.956473 0.132689
vt 1.957189 0.048780
vt 1.935377 0.056440
vt 1.732263 0.419637
vt 1.730263 0.458457
vt 1.727516 0.361406
vt 1.920112 0.361406
vt 1.915365 0.419637
vt 1.917365 0.458457
vt 1.831642 0.395456
vt 1.819079 0.395521
vt 1.817010 0.374989
vt 1.833176 0.374785
s 1
usemtl Clock_Texture
f 74/1/1 75/2/1 96/3/1 97/4/1
f 2/5/2 21/6/2 8/7/3 7/8/3
f 99/9/4 100/10/4 10/11/4 9/12/4
f 73/13/1 101/14/1 102/15/1 98/16/1
f 103/17/5 104/18/5 12/19/5 11/20/5
f 32/29/7 1/30/7 6/31/8 5/32/8
f 93/33/9 94/34/10 77/35/10 78/36/9
f 94/37/11 95/38/12 76/39/12 77/40/11
f 20/41/13 19/42/14 23/43/15 22/44/16
f 19/45/17 21/46/18 24/47/19 23/48/17
f 32/49/20 31/50/21 35/51/21 34/52/22
f 31/53/23 33/54/24 36/55/25 35/56/26
f 24/47/19 21/46/18 2/57/27 27/58/28
f 95/38/12 96/3/29 75/2/29 76/39/12
f 2/57/27 13/59/30 28/60/29 27/58/28
f 32/49/20 34/52/22 37/61/31 1/62/32
f 1/62/32 37/61/31 42/63/29 18/64/33
f 13/59/30 14/65/34 29/66/35 28/60/35
f 14/67/36 15/68/37 30/69/38 29/70/38
f 16/71/39 17/72/40 41/73/41 40/74/41
f 17/75/42 18/64/33 42/63/43 41/76/43
f 22/77/44 23/78/45 26/79/46 25/80/47
f 23/48/48 24/47/19 27/58/28 26/81/49
f 25/80/47 26/79/46 29/82/50 30/69/50
f 26/79/49 27/83/28 28/84/51 29/82/51
f 34/52/22 35/51/52 38/85/53 37/61/31
f 35/86/54 36/87/55 39/88/56 38/89/57
f 37/90/31 38/89/53 41/91/58 42/92/58
f 38/89/57 39/88/56 40/74/59 41/91/59
f 86/93/60 87/94/61 84/95/61 85/96/62
f 87/94/63 88/97/64 83/98/64 84/95/63
f 3/99/65 49/100/64 55/101/66 58/102/67
f 88/97/64 89/103/65 82/104/65 83/98/64
f 52/105/68 33/54/24 20/41/13 51/106/69 86/93/60 85/96/62
f 43/107/70 3/99/65 58/102/67 61/108/71
f 81/109/72 82/104/65 89/103/65 90/110/73
f 4/111/65 67/112/74 64/113/75 54/114/64
f 46/115/76 70/116/77 67/112/74 4/111/65
f 15/68/37 45/117/78 63/118/79 30/69/80
f 51/106/69 20/41/13 22/44/16 57/119/81
f 25/80/47 60/120/82 57/121/83 22/77/44
f 66/122/84 69/123/85 39/88/56 36/87/55
f 78/36/9 79/124/86 92/125/87 93/33/9
f 63/118/88 60/120/82 25/80/47 30/69/89
f 39/88/56 69/123/85 72/126/90 40/74/91
f 52/105/68 66/127/92 36/55/25 33/54/24
f 16/71/39 40/74/93 72/126/94 48/128/95
f 90/110/73 91/129/96 80/130/96 81/109/72
f 91/131/97 92/125/87 79/124/86 80/132/97
f 46/115/76 47/133/98 71/134/99 70/116/77
f 47/135/100 48/128/95 72/126/94 71/136/101
f 49/100/64 50/137/63 56/138/63 55/101/66
f 50/137/61 51/106/69 57/119/81 56/138/61
f 55/101/66 56/138/102 59/139/103 58/102/67
f 56/140/104 57/121/83 60/120/82 59/141/105
f 58/102/67 59/139/103 62/142/106 61/108/71
f 59/141/105 60/120/82 63/118/88 62/143/107
f 45/117/78 44/144/108 62/143/109 63/118/79
f 44/145/110 43/107/70 61/108/71 62/142/106
f 52/105/68 53/146/61 65/147/61 66/127/92
f 53/146/63 54/114/64 64/113/75 65/147/63
f 66/122/84 65/148/111 68/149/112 69/123/85
f 65/147/113 64/113/75 67/112/74 68/150/114
f 69/123/85 68/149/112 71/136/115 72/126/90
f 68/150/114 67/112/74 70/116/77 71/134/99
f 100/151/1 101/14/1 73/13/1 10/152/1
f 1/62/1 75/2/1 74/1/1 6/153/1
f 76/39/12 75/2/29 1/62/32 18/64/33
f 77/40/11 76/39/12 18/64/33 17/75/42
f 78/36/9 77/35/10 17/72/40 16/71/39
f 16/71/39 48/128/95 79/124/86 78/36/9
f 80/132/97 79/124/86 48/128/95 47/135/100
f 81/109/72 80/130/96 47/133/98 46/115/76
f 46/115/76 4/111/65 82/104/65 81/109/72
f 83/98/64 82/104/65 4/111/65 54/114/64
f 84/95/63 83/98/64 54/114/64 53/146/63
f 85/96/62 84/95/61 53/146/61 52/105/68
f 51/106/69 50/137/61 87/94/61 86/93/60
f 50/137/63 49/100/64 88/97/64 87/94/63
f 3/99/65 89/103/65 88/97/64 49/100/64
f 90/110/73 89/103/65 3/99/65 43/107/70
f 43/107/70 44/145/110 91/129/96 90/110/73
f 44/144/108 45/117/78 92/125/87 91/131/97
f 93/33/9 92/125/87 45/117/78 15/68/37
f 15/68/37 14/67/36 94/34/10 93/33/9
f 14/65/34 13/59/30 95/38/12 94/37/11
f 2/57/27 96/3/29 95/38/12 13/59/30
f 97/4/1 96/3/1 2/57/1 7/154/1
f 98/16/1 102/15/1 103/155/1 11/156/1
f 5/32/8 6/31/8 100/10/4 99/9/4
f 6/153/1 74/1/1 101/14/1 100/151/1
f 106/157/1 105/158/1 107/159/1 108/160/1
f 103/155/1 102/15/1 97/4/1 7/154/1
f 7/8/3 8/7/3 104/18/5 103/17/5
f 102/15/65 101/14/65 105/158/65 106/157/65
f 101/14/116 74/1/116 107/159/116 105/158/116
f 74/1/29 97/4/29 108/160/29 107/159/29
f 97/4/117 102/15/117 106/157/117 108/160/117
f 21/6/6 19/42/14 31/53/23 32/29/6
f 20/41/13 33/54/24 31/53/23 19/42/14
usemtl ClearDetail
f 104/21/6 99/22/6 9/23/6 12/24/6
f 21/25/6 32/26/6 5/27/6 8/28/6
f 8/28/6 5/27/6 99/22/6 104/21/6
