
v -0.013737 0.234509 0.028393
v -0.013737 0.286491 0.028393
v 0.000927 0.237091 0.028393
v 0.000927 0.294716 0.028393
v 0.014125 0.234509 0.028393
v 0.014125 0.286491 0.028393
v 0.020140 0.258247 0.028393
v -0.020119 0.258247 0.028393
v -0.023246 0.269859 0.028393
v 0.023267 0.269859 0.028393
v 0.022755 0.246529 0.028393
v -0.022733 0.246529 0.028393
v -0.004939 0.236891 0.028393
v -0.006177 0.290074 0.028393
v 0.006160 0.236891 0.028393
v 0.007398 0.290074 0.028393
v -0.026740 0.238221 0.028393
v -0.020440 0.232345 0.028393
v 0.026761 0.238258 0.028393
v 0.020444 0.232409 0.028393
v -0.027548 0.275987 0.028393
v -0.022681 0.283193 0.028393
v 0.022731 0.283226 0.028393
v 0.027577 0.276008 0.028393
v -0.009631 0.258664 0.009613
v 0.009987 0.258664 0.009613
v 0.009511 0.271456 0.009613
v -0.009123 0.271456 0.009613
v 0.005619 0.276494 0.009613
v 0.000861 0.277682 0.009613
v -0.004474 0.276494 0.009613
v 0.010046 0.248008 0.009613
v -0.004474 0.248008 0.009613
v 0.000861 0.248008 0.009613
v 0.005619 0.248008 0.009613
v 0.005125 0.258681 0.009613
v 0.000633 0.258668 0.009613
v -0.004238 0.258681 0.009613
v -0.011099 0.258259 0.030592
v -0.009815 0.258757 0.029526
v -0.009598 0.248650 0.029511
v -0.010948 0.249451 0.031914
v 0.011452 0.258259 0.030592
v 0.010173 0.258757 0.029526
v 0.010923 0.272506 0.030592
v 0.009688 0.271228 0.029529
v -0.010526 0.272529 0.030592
v -0.009298 0.271228 0.029529
v 0.006431 0.278309 0.030592
v 0.005723 0.276133 0.029533
v 0.000933 0.279677 0.030592
v 0.000874 0.277290 0.029534
v -0.005181 0.278316 0.030592
v -0.004561 0.276133 0.029533
v 0.011509 0.249194 0.031914
v 0.010234 0.248401 0.029531
v -0.004939 0.249194 0.031914
v -0.004561 0.248400 0.029535
v 0.000927 0.249194 0.031914
v 0.000874 0.248400 0.029535
v 0.006160 0.249194 0.031914
v 0.005723 0.248400 0.029535
v -0.009401 0.248280 0.009613
v -0.010251 0.258496 0.030024
v -0.010072 0.250605 0.031337
v -0.004655 0.250352 0.031351
v 0.000887 0.250353 0.031351
v 0.005831 0.250352 0.031351
v 0.010665 0.250353 0.031349
v 0.010608 0.258496 0.030024
v 0.010110 0.271885 0.030026
v 0.005964 0.277248 0.030029
v 0.000890 0.278512 0.030029
v -0.004773 0.277251 0.030028
v -0.009716 0.271896 0.030026
v -0.013737 0.286491 0.030023
v -0.013508 0.285888 0.030592
v -0.006177 0.290074 0.030023
v -0.005887 0.289500 0.030592
v -0.013737 0.234509 0.030023
v -0.013905 0.235133 0.030592
v -0.004939 0.236891 0.030023
v -0.005027 0.237537 0.030592
v 0.000927 0.237091 0.030023
v 0.000928 0.237740 0.030592
v 0.006160 0.236891 0.030023
v 0.006257 0.237537 0.030592
v 0.000927 0.294716 0.030023
v 0.000911 0.293942 0.030592
v 0.007398 0.290074 0.030023
v 0.007084 0.289514 0.030592
v 0.014125 0.234509 0.030023
v 0.014302 0.235130 0.030592
v 0.020297 0.233138 0.030592
v 0.020444 0.232409 0.030023
v 0.014125 0.286491 0.030023
v 0.013880 0.285894 0.030592
v 0.022339 0.282685 0.030592
v 0.022731 0.283226 0.030023
v -0.020119 0.258247 0.030023
v -0.019482 0.258263 0.030592
v -0.023246 0.269859 0.030023
v -0.022683 0.270149 0.030592
v 0.020140 0.258247 0.030023
v 0.019503 0.258263 0.030592
v 0.023267 0.269859 0.030023
v 0.022704 0.270149 0.030592
v 0.026816 0.276016 0.030592
v 0.027577 0.276008 0.030023
v -0.026786 0.275994 0.030592
v -0.027548 0.275987 0.030023
v -0.022150 0.246305 0.030592
v -0.022733 0.246529 0.030023
v 0.022755 0.246529 0.030023
v 0.022171 0.246305 0.030592
v -0.025974 0.238374 0.030592
v -0.026740 0.238221 0.030023
v -0.020290 0.233072 0.030592
v -0.020440 0.232345 0.030023
v 0.025994 0.238412 0.030592
v 0.026761 0.238258 0.030023
v -0.022292 0.282649 0.030592
v -0.022681 0.283193 0.030023
v -0.020506 0.264053 0.028393
v -0.020506 0.264053 0.030023
v -0.019939 0.264206 0.030592
v -0.010926 0.265394 0.030592
v -0.010089 0.265196 0.030025
v -0.009658 0.264992 0.029527
v -0.009477 0.265060 0.009613
v -0.004119 0.267588 0.009613
v 0.000707 0.268175 0.009613
v 0.005081 0.267588 0.009613
v 0.009823 0.265060 0.009613
v 0.010007 0.264992 0.029527
v 0.010439 0.265191 0.030025
v 0.011275 0.265382 0.030592
v 0.019960 0.264206 0.030592
v 0.020527 0.264053 0.030023
v 0.020527 0.264053 0.028393
v 0.020532 0.251217 0.028393
v 0.020532 0.251217 0.030023
v 0.019960 0.251088 0.030592
v 0.011577 0.250919 0.030592
v 0.010725 0.251709 0.030026
v 0.010288 0.252543 0.029529
v 0.009480 0.252270 0.009613
v 0.005128 0.252277 0.009613
v 0.000729 0.252272 0.009613
v -0.004141 0.252277 0.009613
v -0.009594 0.252434 0.009613
v -0.009788 0.252692 0.029517
v -0.010250 0.251860 0.030019
v -0.011123 0.251073 0.030592
v -0.019939 0.251088 0.030592
v -0.020511 0.251217 0.030023
v -0.020511 0.251217 0.028393
v -0.009338 0.235700 0.028393
v -0.009338 0.235700 0.030023
v -0.009466 0.236335 0.030592
v -0.007943 0.249322 0.031914
v -0.007363 0.250479 0.031344
v -0.007080 0.248525 0.029523
v -0.006937 0.248144 0.009613
v -0.006868 0.252355 0.009613
v -0.006935 0.258673 0.009613
v -0.006798 0.266324 0.009613
v -0.006798 0.274529 0.009613
v -0.006929 0.274235 0.029531
v -0.007245 0.275449 0.030027
v -0.007854 0.276298 0.030592
v -0.009697 0.287694 0.030592
v -0.009957 0.288282 0.030023
v -0.009957 0.288282 0.028393
v 0.010142 0.235700 0.028393
v 0.010142 0.235700 0.030023
v 0.010280 0.236333 0.030592
v 0.008835 0.249194 0.031914
v 0.008248 0.250353 0.031350
v 0.007978 0.248400 0.029533
v 0.007833 0.248008 0.009613
v 0.007304 0.252274 0.009613
v 0.007556 0.258673 0.009613
v 0.007452 0.266324 0.009613
v 0.007565 0.274529 0.009613
v 0.007706 0.274235 0.029531
v 0.008037 0.275442 0.030027
v 0.008677 0.276283 0.030592
v 0.010482 0.287704 0.030592
v 0.010762 0.288282 0.030023
v 0.010762 0.288282 0.028393
vn -0.0000 -0.0000 1.0000
vn 0.5130 -0.1538 0.8445
vn 0.6338 -0.0258 0.7730
vn 0.7495 -0.0284 0.6614
vn 0.6435 -0.1320 0.7539
vn 0.7405 0.0037 0.6720
vn 0.6277 0.0665 0.7756
vn 0.1661 0.6996 -0.6950
vn 0.2250 0.9372 0.2664
vn 0.0477 0.9654 -0.2563
vn 0.0355 0.6840 -0.7287
vn -0.5191 0.5741 0.6332
vn -0.6411 0.0431 0.7663
vn -0.9757 0.1170 0.1855
vn -0.7500 -0.0270 0.6609
vn -0.6349 -0.0241 0.7723
vn -0.5303 -0.1340 0.8372
vn -0.6635 -0.1126 0.7397
vn -0.3981 -0.2882 0.8709
vn -0.3668 -0.2930 0.8830
vn -0.1631 -0.3866 0.9077
vn -0.1708 -0.3563 0.9186
vn 0.3551 -0.3100 0.8819
vn 0.3348 -0.3193 0.8866
vn 0.0006 -0.4136 0.9105
vn -0.0000 -0.3829 0.9238
vn 0.1471 -0.3958 0.9065
vn 0.1507 -0.3631 0.9195
vn -0.0002 0.9662 -0.2577
vn -0.0006 0.9621 -0.2729
vn -0.0007 0.6813 -0.7320
vn -0.0003 0.6811 -0.7322
vn 0.0109 0.6817 -0.7316
vn 0.0155 0.9663 -0.2571
vn -0.0037 0.9548 -0.2971
vn -0.0000 0.6811 -0.7322
vn 0.9997 0.0220 0.0093
vn 0.9997 0.0216 0.0093
vn 0.9989 0.0466 0.0091
vn -0.9992 -0.0381 0.0090
vn -0.9992 -0.0380 0.0090
vn -0.9987 -0.0499 0.0087
vn 0.9984 -0.0564 0.0085
vn 0.9991 -0.0405 0.0088
vn 0.9991 -0.0406 0.0088
vn -0.7839 -0.6208 -0.0035
vn -0.7853 -0.6192 -0.0034
vn -0.7012 -0.7129 -0.0074
vn -0.0001 -0.9998 -0.0183
vn 0.2127 -0.9770 -0.0181
vn 0.0001 -0.9998 -0.0183
vn -0.9978 -0.0608 0.0260
vn -0.9997 -0.0053 0.0253
vn -0.9997 -0.0060 0.0252
vn 0.0523 0.9985 -0.0184
vn 0.0523 0.9985 -0.0187
vn -0.0000 0.9998 -0.0197
vn 0.7264 -0.6872 -0.0052
vn 0.7279 -0.6857 -0.0052
vn 0.7916 -0.6111 -0.0019
vn 0.0166 0.9997 -0.0195
vn 0.0165 0.9997 -0.0194
vn -0.2370 -0.9713 -0.0177
vn -0.0001 0.9998 -0.0197
vn 0.2682 0.3027 0.9146
vn -0.0321 0.0042 0.9995
vn 0.0153 -0.0645 0.9978
vn 0.0075 -0.0665 0.9978
vn -0.0000 -0.0614 0.9981
vn -0.0084 -0.0665 0.9977
vn -0.0176 -0.0662 0.9977
vn -0.2777 0.2881 0.9164
vn 0.2264 0.6289 0.7438
vn -0.5584 -0.0215 0.8293
vn -0.4922 -0.1458 0.8582
vn -0.3686 -0.2986 0.8803
vn -0.0126 -0.0298 0.9995
vn -0.0001 -0.0283 0.9996
vn 0.0115 -0.0310 0.9995
vn 0.4793 -0.1658 0.8618
vn 0.3425 -0.3275 0.8806
vn 0.5576 -0.0232 0.8298
vn -0.2463 0.6143 0.7496
vn -0.2456 0.6146 0.7496
vn -0.2839 0.5991 0.7487
vn -0.3859 0.5209 0.7614
vn -0.3931 0.5157 0.7613
vn -0.3379 0.5712 0.7481
vn -0.3365 0.5719 0.7481
vn -0.3638 0.5567 0.7468
vn 0.1912 -0.6328 0.7503
vn 0.1908 -0.6329 0.7503
vn 0.2032 -0.6294 0.7501
vn 0.1728 -0.6379 0.7505
vn 0.0877 -0.6519 0.7532
vn 0.0887 -0.6518 0.7532
vn -0.0001 -0.6595 0.7517
vn -0.0985 -0.6500 0.7535
vn -0.0973 -0.6502 0.7535
vn -0.1895 -0.6334 0.7503
vn 0.3881 0.5410 0.7461
vn 0.3625 0.5567 0.7474
vn 0.3639 0.5559 0.7474
vn 0.3120 0.5857 0.7481
vn -0.2010 -0.6300 0.7501
vn -0.2013 -0.6299 0.7501
vn -0.2085 -0.6277 0.7500
vn 0.4539 -0.4902 0.7441
vn 0.2583 0.6093 0.7496
vn 0.2572 0.6098 0.7497
vn 0.3994 0.5115 0.7608
vn 0.3923 0.5167 0.7609
vn 0.5582 0.3748 0.7403
vn -0.6553 -0.1760 0.7346
vn -0.6550 -0.1769 0.7346
vn -0.5847 -0.3408 0.7363
vn -0.5830 -0.3429 0.7365
vn -0.6641 0.1464 0.7332
vn -0.6634 0.1496 0.7332
vn -0.6135 0.2928 0.7334
vn -0.6141 0.2928 0.7329
vn -0.5500 -0.3861 0.7406
vn 0.6634 0.1496 0.7332
vn 0.6641 0.1464 0.7332
vn 0.6137 0.2934 0.7330
vn 0.6132 0.2935 0.7334
vn 0.6550 -0.1769 0.7346
vn 0.6553 -0.1760 0.7346
vn 0.5832 -0.3428 0.7365
vn 0.5848 -0.3406 0.7362
vn 0.5503 -0.3857 0.7406
vn -0.5571 0.3762 0.7403
vn -0.6077 0.2930 0.7382
vn 0.6071 0.2941 0.7382
vn -0.4557 -0.4886 0.7440
vn 0.1343 -0.9909 -0.0000
vn -0.0000 -1.0000 -0.0000
vn -0.5089 0.8609 -0.0000
vn -0.5470 0.8371 -0.0000
vn 0.9656 -0.2601 -0.0000
vn 0.8614 -0.5079 -0.0000
vn -0.8612 -0.5082 -0.0000
vn -0.9656 -0.2601 -0.0000
vn -0.3459 0.9383 -0.0000
vn -0.3714 0.9285 -0.0000
vn 0.3072 -0.9516 -0.0000
vn 0.2893 -0.9572 -0.0000
vn -0.1493 -0.9888 -0.0000
vn -0.2866 -0.9580 -0.0000
vn 0.5475 0.8368 -0.0000
vn 0.4701 0.8826 -0.0000
vn -0.3043 -0.9526 -0.0000
vn -0.3153 -0.9490 -0.0000
vn 0.3891 0.9212 -0.0000
vn 0.3547 0.9350 -0.0000
vn 0.9013 0.4331 -0.0000
vn 0.9013 0.4332 -0.0000
vn 0.9760 0.2178 -0.0000
vn -0.9760 0.2178 -0.0000
vn -0.9018 0.4322 -0.0000
vn 0.8189 -0.5739 -0.0000
vn -0.8185 -0.5746 -0.0000
vn 0.9000 0.4359 -0.0000
vn -0.9008 0.4343 -0.0000
vn -0.4282 0.9037 -0.0000
vn 0.2614 -0.9652 -0.0000
vn 0.5829 0.8125 -0.0000
vn -0.0313 -0.0554 0.9980
vn -0.1270 0.1045 0.9864
vn -0.6821 -0.7313 -0.0000
vn 0.6794 -0.7338 -0.0000
vn -0.8287 0.5596 -0.0000
vn 0.8302 0.5574 -0.0000
vn -0.0352 0.0815 0.9961
vn -0.0407 0.0941 0.9947
vn 0.0402 0.0923 0.9949
vn 0.0348 0.0798 0.9962
vn 0.0325 0.0029 0.9995
vn 0.1314 0.1074 0.9855
vn 0.0080 -0.1110 0.9938
vn 0.0002 -0.1136 0.9935
vn -0.0186 -0.1034 0.9945
vn -0.0100 -0.1112 0.9937
vn 0.0329 -0.0564 0.9979
vn 0.0147 -0.1020 0.9947
vn -0.0126 -0.0752 0.9971
vn -1.0000 0.0004 -0.0000
vn -0.6835 0.0005 0.7300
vn -0.6835 -0.0003 0.7300
vn 0.5558 -0.0065 0.8313
vn 0.6330 -0.0077 0.7741
vn 0.7508 -0.0113 0.6605
vn 0.9999 -0.0097 0.0093
vn 0.9999 -0.0096 0.0093
vn -0.9999 0.0024 0.0170
vn -0.9999 0.0026 0.0170
vn -0.7570 -0.0173 0.6532
vn -0.6396 -0.0136 0.7686
vn -0.5599 -0.0114 0.8285
vn 0.6835 -0.0002 0.7300
vn 0.6835 0.0005 0.7300
vn 1.0000 0.0004 -0.0000
vn -0.7586 -0.0114 0.6514
vn -0.0187 -0.0698 0.9974
vn 0.0133 -0.0763 0.9970
vn 0.0200 -0.0711 0.9973
vn 0.6356 -0.7720 -0.0092
vn -0.0005 1.0000 -0.0099
vn -0.0007 0.6814 -0.7319
vn -0.8399 -0.5427 -0.0004
vt 1.771799 0.617366
vt 1.771677 0.620071
vt 1.768877 0.620074
vt 1.768733 0.617366
vt 1.774534 0.617366
vt 1.774206 0.620074
vt 1.772578 0.637573
vt 1.771664 0.629659
vt 1.774179 0.629304
vt 1.776361 0.634866
vt 1.766260 0.634830
vt 1.768890 0.629304
vt 1.775542 0.628543
vt 1.776666 0.633327
vt 1.765669 0.631571
vt 1.765567 0.627715
vt 1.767350 0.628543
vt 1.766337 0.633424
vt 1.767316 0.617407
vt 1.767310 0.620121
vt 1.765533 0.620102
vt 1.765768 0.617415
vt 1.775807 0.617366
vt 1.775456 0.620072
vt 1.749659 0.644031
vt 1.749364 0.630117
vt 1.750884 0.629282
vt 1.751010 0.642506
vt 1.752920 0.620092
vt 1.752601 0.619491
vt 1.752924 0.617655
vt 1.753973 0.602476
vt 1.749525 0.602063
vt 1.755667 0.602066
vt 1.758769 0.602471
vt 1.791527 0.619406
vt 1.790703 0.619464
vt 1.790263 0.617440
vt 1.792747 0.629219
vt 1.794690 0.629824
vt 1.794305 0.643851
vt 1.792861 0.642475
vt 1.788602 0.648965
vt 1.789332 0.651494
vt 1.784764 0.655278
vt 1.784234 0.652943
vt 1.756358 0.648965
vt 1.755663 0.651509
vt 1.773587 0.657927
vt 1.773552 0.655366
vt 1.761109 0.655285
vt 1.761576 0.652943
vt 1.784738 0.601931
vt 1.790063 0.601932
vt 1.787444 0.602466
vt 1.783149 0.602464
vt 1.763565 0.602465
vt 1.761635 0.601931
vt 1.773845 0.601931
vt 1.773916 0.602465
vt 1.777316 0.627618
vt 1.790129 0.627414
vt 1.790130 0.631174
vt 1.777226 0.631474
vt 1.752920 0.631368
vt 1.752921 0.627608
vt 1.790132 0.632986
vt 1.789573 0.634924
vt 1.753148 0.638616
vt 1.753014 0.634748
vt 1.790262 0.619938
vt 1.777217 0.619907
vt 1.777253 0.617284
vt 1.765833 0.603564
vt 1.767281 0.603556
vt 1.771853 0.603548
vt 1.774641 0.603548
vt 1.752919 0.633180
vt 1.768729 0.603548
vt 1.788899 0.638787
vt 1.775937 0.603549
vt 1.748994 0.602347
vt 1.746997 0.601300
vt 1.747528 0.599659
vt 1.754124 0.599408
vt 1.760744 0.599140
vt 1.773668 0.599141
vt 1.785196 0.599140
vt 1.791090 0.599140
vt 1.797269 0.600057
vt 1.795032 0.601661
vt 1.795392 0.601425
vt 1.796565 0.598045
vt 1.796632 0.630417
vt 1.796244 0.645342
vt 1.790742 0.653256
vt 1.785794 0.657502
vt 1.773681 0.660368
vt 1.760210 0.657516
vt 1.748056 0.645640
vt 1.754322 0.653288
vt 1.747616 0.630691
vt 1.808606 0.554371
vt 1.808428 0.556338
vt 1.805353 0.556495
vt 1.805557 0.554528
vt 1.815822 0.554002
vt 1.815514 0.555975
vt 1.802507 0.554684
vt 1.802279 0.556653
vt 1.796794 0.556933
vt 1.796775 0.554977
vt 1.711844 0.556238
vt 1.711711 0.558198
vt 1.706560 0.558314
vt 1.706200 0.555645
vt 1.715393 0.556157
vt 1.715293 0.558117
vt 1.718875 0.558036
vt 1.718943 0.556077
vt 1.723676 0.555970
vt 1.723680 0.557927
vt 1.727898 0.555875
vt 1.727979 0.557830
vt 1.731111 0.555803
vt 1.731225 0.557757
vt 1.791814 0.557188
vt 1.791553 0.555244
vt 1.789072 0.557328
vt 1.788840 0.555383
vt 1.734471 0.557684
vt 1.734325 0.555730
vt 1.739647 0.555267
vt 1.739308 0.557575
vt 1.744439 0.555273
vt 1.744189 0.557238
vt 1.786127 0.555522
vt 1.786330 0.557468
vt 1.778974 0.557893
vt 1.779022 0.555950
vt 1.773325 0.557824
vt 1.773323 0.555867
vt 1.681634 0.555480
vt 1.681520 0.557440
vt 1.676960 0.557543
vt 1.677180 0.555581
vt 1.691585 0.557213
vt 1.691484 0.555258
vt 1.695080 0.555177
vt 1.695255 0.557130
vt 1.672475 0.557644
vt 1.672478 0.555687
vt 1.754301 0.555327
vt 1.754198 0.557282
vt 1.750529 0.557178
vt 1.750704 0.555226
vt 1.764264 0.557567
vt 1.764150 0.555607
vt 1.768605 0.555733
vt 1.768824 0.557696
vt 1.667369 0.557759
vt 1.666948 0.555811
vt 1.701404 0.555754
vt 1.701657 0.557705
vt 1.718935 0.550475
vt 1.723668 0.550368
vt 1.802488 0.549081
vt 1.796756 0.549374
vt 1.764160 0.550004
vt 1.768615 0.550130
vt 1.677171 0.549978
vt 1.681626 0.549877
vt 1.815803 0.548400
vt 1.808588 0.548769
vt 1.706192 0.550043
vt 1.711836 0.550635
vt 1.727890 0.550273
vt 1.731103 0.550200
vt 1.791535 0.549642
vt 1.788821 0.549781
vt 1.734317 0.550127
vt 1.739648 0.549664
vt 1.786108 0.549920
vt 1.779018 0.550348
vt 1.750715 0.549623
vt 1.754311 0.549725
vt 1.691476 0.549655
vt 1.695072 0.549574
vt 1.773333 0.550264
vt 1.672470 0.550084
vt 1.744368 0.549443
vt 1.701447 0.549430
vt 1.805538 0.548925
vt 1.715385 0.550555
vt 1.714398 0.573830
vt 1.722824 0.590448
vt 1.666940 0.550209
vt 1.727696 0.627953
vt 1.721649 0.640405
vt 1.821648 0.640405
vt 1.815601 0.627953
vt 1.727695 0.600469
vt 1.815601 0.600468
vt 1.820473 0.590446
vt 1.802206 0.673394
vt 1.820842 0.666670
vt 1.787233 0.680978
vt 1.794720 0.677186
vt 1.758655 0.680948
vt 1.773633 0.690255
vt 1.722511 0.666595
vt 1.712609 0.652651
vt 1.760550 0.572077
vt 1.773670 0.572501
vt 1.794273 0.569554
vt 1.785410 0.572076
vt 1.828896 0.573910
vt 1.741863 0.673381
vt 1.750259 0.677165
vt 1.750770 0.569558
vt 1.740989 0.567039
vt 1.686081 0.549777
vt 1.686089 0.555380
vt 1.686080 0.557337
vt 1.728702 0.615500
vt 1.747425 0.615742
vt 1.749367 0.615954
vt 1.750887 0.616217
vt 1.752922 0.623848
vt 1.765523 0.623859
vt 1.767271 0.623930
vt 1.768821 0.623935
vt 1.771622 0.623927
vt 1.774204 0.623935
vt 1.775602 0.623930
vt 1.790128 0.623655
vt 1.777363 0.623762
vt 1.792744 0.616154
vt 1.794576 0.615798
vt 1.796828 0.615492
vt 1.814595 0.615500
vt 1.759704 0.557438
vt 1.759696 0.555480
vt 1.759706 0.549878
vt 1.792751 0.603136
vt 1.750908 0.603511
vt 1.726922 0.562720
vt 1.803137 0.567033
vt 1.816345 0.562860
vt 1.830708 0.652697
vt 1.791739 0.602467
vt 1.777234 0.603551
vt 1.751780 0.619494
s 1
usemtl Clock_Texture
f 34/1/1 149/2/1 150/3/1 33/4/1
f 35/5/1 148/6/1 149/2/1 34/1/1
f 30/7/1 132/8/1 133/9/1 29/10/1
f 31/11/1 131/12/1 132/8/1 30/7/1
f 29/10/1 133/9/1 184/13/1 185/14/1
f 28/15/1 130/16/1 167/17/1 168/18/1
f 164/19/1 165/20/1 151/21/1 63/22/1
f 181/23/1 182/24/1 148/6/1 35/5/1
f 75/25/2 128/26/3 129/27/4 48/28/5
f 152/29/6 153/30/7 41/31/8
f 41/32/8 65/33/9 162/34/10 163/35/11
f 69/36/12 145/37/13 56/38/14
f 135/39/15 136/40/16 71/41/17 46/42/18
f 186/43/19 187/44/20 72/45/21 50/46/22
f 169/47/23 170/48/24 75/25/2 48/28/5
f 50/46/22 72/45/21 73/49/25 52/50/26
f 52/50/26 73/49/25 74/51/27 54/52/28
f 68/53/29 179/54/30 180/55/31 62/56/32
f 58/57/33 66/58/34 67/59/35 60/60/36
f 60/60/36 67/59/35 68/53/29 62/56/32
f 151/21/37 152/29/38 41/31/39 63/22/39
f 134/61/40 135/62/41 46/63/42 27/64/42
f 48/65/43 129/66/44 130/16/45 28/15/43
f 185/14/46 186/67/47 50/68/48 29/10/48
f 52/69/49 54/70/50 31/11/50 30/7/51
f 56/38/52 146/71/53 147/72/54 32/73/52
f 63/22/55 41/74/55 163/75/56 164/19/56
f 60/76/57 62/77/57 35/5/57 34/1/57
f 168/18/58 169/78/59 48/65/60 28/15/60
f 58/79/61 60/76/57 34/1/57 33/4/62
f 50/68/63 52/80/49 30/7/51 29/10/63
f 62/77/57 180/81/64 181/23/64 35/5/57
f 65/33/9 153/82/7 154/83/65 42/84/66
f 161/85/67 162/34/10 65/33/9 42/84/66
f 67/59/35 66/58/34 57/86/68 59/87/69
f 68/53/29 67/59/35 59/87/69 61/88/70
f 178/89/71 179/54/30 68/53/29 61/88/70
f 144/90/72 145/91/13 69/92/12 55/93/73
f 71/41/17 136/40/16 137/94/74 45/95/75
f 72/45/21 187/44/20 188/96/76 49/97/77
f 73/49/25 72/45/21 49/97/77 51/98/78
f 74/51/27 73/49/25 51/98/78 53/99/79
f 47/100/80 75/25/2 170/48/24 171/101/81
f 127/102/82 128/26/3 75/25/2 47/100/80
f 76/103/83 77/104/84 172/105/85 173/106/85
f 77/104/84 76/103/83 123/107/86 122/108/87
f 78/109/88 79/110/89 89/111/90 88/112/90
f 80/113/91 81/114/92 118/115/93 119/116/93
f 81/114/92 80/113/91 159/117/94 160/118/94
f 83/119/95 82/120/96 84/121/97 85/122/97
f 85/122/97 84/121/97 86/123/98 87/124/99
f 87/124/99 86/123/98 176/125/100 177/126/100
f 88/112/101 89/111/101 91/127/102 90/128/103
f 90/128/103 91/127/102 189/129/104 190/130/104
f 93/131/105 92/132/106 95/133/107 94/134/107
f 94/134/108 95/133/108 121/135/108 120/136/108
f 96/137/109 97/138/110 98/139/111 99/140/112
f 99/140/112 98/139/111 108/141/113 109/142/113
f 125/143/114 126/144/115 103/145/116 102/146/117
f 155/147/118 156/148/119 113/149/120 112/150/121
f 102/146/117 103/145/116 110/151/122 111/152/122
f 142/153/123 143/154/124 115/155/125 114/156/126
f 138/157/127 139/158/128 106/159/129 107/160/130
f 107/160/130 106/159/129 109/142/131 108/141/131
f 111/152/132 110/151/132 122/161/87 123/162/86
f 112/150/121 113/149/120 117/163/133 116/164/133
f 114/156/126 115/155/125 120/136/134 121/135/134
f 116/164/135 117/163/135 119/116/135 118/115/135
f 82/120/136 13/165/136 3/166/137 84/121/137
f 14/167/138 78/109/138 88/112/139 4/168/139
f 139/158/140 140/169/140 10/170/141 106/159/141
f 102/146/142 9/171/142 124/172/143 125/143/143
f 22/173/144 123/107/144 76/103/145 2/174/145
f 119/116/146 18/175/146 1/176/147 80/113/147
f 86/123/148 15/177/148 175/178/149 176/125/149
f 16/179/150 90/128/150 190/130/151 191/180/151
f 92/132/152 5/181/152 20/182/153 95/133/153
f 6/183/154 96/137/154 99/140/155 23/184/155
f 114/156/156 11/185/157 141/186/158 142/153/158
f 156/148/159 157/187/159 12/188/160 113/149/160
f 106/159/141 10/170/141 24/189/161 109/142/161
f 111/152/162 21/190/162 9/171/142 102/146/142
f 121/135/163 19/191/163 11/185/157 114/156/156
f 113/149/160 12/188/160 17/192/164 117/163/164
f 2/174/145 76/103/145 173/106/165 174/193/165
f 80/113/147 1/176/147 158/194/166 159/117/166
f 4/168/167 88/112/167 90/128/150 16/179/150
f 84/121/137 3/166/137 15/177/148 86/123/148
f 116/195/168 42/84/66 112/196/169
f 17/192/170 18/175/170 119/116/170 117/163/170
f 20/182/171 19/191/171 121/135/171 95/133/171
f 111/152/172 123/162/172 22/197/172 21/190/172
f 99/140/173 109/142/173 24/189/173 23/184/173
f 126/198/1 127/102/1 47/100/1 103/199/1
f 107/200/1 45/95/1 137/94/1 138/201/1
f 112/196/169 42/84/66 154/83/174 155/202/175
f 143/203/176 144/90/177 55/93/178 115/204/179
f 97/205/1 45/95/1 98/206/1
f 91/207/1 49/97/77 188/96/1 189/208/1
f 79/209/1 53/99/79 51/98/78 89/210/1
f 103/199/1 47/100/1 122/211/1 110/212/1
f 59/87/69 57/86/68 83/213/180 85/214/181
f 177/215/182 178/89/71 61/88/70 87/216/183
f 115/204/179 55/93/178 120/217/184
f 77/218/1 47/100/1 171/101/1 172/219/1
f 160/220/185 161/85/67 42/84/66 81/221/186
f 89/210/1 51/98/78 49/97/77 91/207/1
f 87/216/183 61/88/70 59/87/69 85/214/181
f 125/143/143 124/172/143 8/222/187 100/223/187
f 100/223/188 101/224/189 126/144/115 125/143/114
f 101/225/1 39/226/1 127/102/1 126/198/1
f 39/226/190 64/227/191 128/26/3 127/102/82
f 129/27/4 128/26/3 64/227/191 40/228/192
f 130/16/45 129/66/44 40/229/193 25/230/194
f 166/231/1 167/17/1 130/16/1 25/230/1
f 132/8/1 131/12/1 38/232/1 37/233/1
f 133/9/1 132/8/1 37/233/1 36/234/1
f 183/235/1 184/13/1 133/9/1 36/234/1
f 44/236/195 135/62/41 134/61/40 26/237/196
f 44/238/197 70/239/198 136/40/16 135/39/15
f 137/94/74 136/40/16 70/239/198 43/240/199
f 138/201/1 137/94/1 43/240/1 105/241/1
f 105/242/200 104/243/201 139/158/128 138/157/127
f 104/243/202 7/244/202 140/169/140 139/158/140
f 142/153/158 141/186/158 7/244/202 104/243/202
f 104/243/201 105/242/200 143/154/124 142/153/123
f 105/241/1 43/240/1 144/90/177 143/203/176
f 43/240/199 70/239/198 145/91/13 144/90/72
f 146/245/203 145/91/13 70/239/198 44/238/197
f 147/72/54 146/71/53 44/236/195 26/237/196
f 148/6/1 182/24/1 183/235/1 36/234/1
f 149/2/1 148/6/1 36/234/1 37/233/1
f 150/3/1 149/2/1 37/233/1 38/232/1
f 151/21/1 165/20/1 166/231/1 25/230/1
f 40/229/193 152/29/38 151/21/37 25/230/194
f 40/228/192 64/227/191 153/82/7 152/246/6
f 154/83/65 153/82/7 64/227/191 39/226/190
f 155/202/175 154/83/174 39/226/1 101/225/1
f 101/224/189 100/223/188 156/148/119 155/147/118
f 100/223/187 8/222/187 157/187/159 156/148/159
f 116/195/168 118/247/204 81/221/186 42/84/66
f 120/217/184 55/93/178 93/248/205 94/249/206
f 122/211/1 47/100/1 77/218/1
f 98/206/1 45/95/1 107/200/1 108/250/1
f 159/117/166 158/194/166 13/165/136 82/120/136
f 160/118/94 159/117/94 82/120/96 83/119/95
f 83/213/180 57/86/68 161/85/67 160/220/185
f 66/58/34 162/34/10 161/85/67 57/86/68
f 163/35/11 162/34/10 66/58/34 58/57/33
f 164/19/56 163/75/56 58/79/61 33/4/62
f 33/4/1 150/3/1 165/20/1 164/19/1
f 166/231/1 165/20/1 150/3/1 38/232/1
f 131/12/1 167/17/1 166/231/1 38/232/1
f 168/18/1 167/17/1 131/12/1 31/11/1
f 54/70/207 169/78/59 168/18/58 31/11/207
f 74/51/27 170/48/24 169/47/23 54/52/28
f 171/101/81 170/48/24 74/51/27 53/99/79
f 172/219/1 171/101/1 53/99/79 79/209/1
f 173/106/85 172/105/85 79/110/89 78/109/88
f 174/193/165 173/106/165 78/109/138 14/167/138
f 176/125/149 175/178/149 5/181/152 92/132/152
f 177/126/100 176/125/100 92/132/106 93/131/105
f 55/93/178 178/89/71 177/215/182 93/248/205
f 55/93/178 69/92/208 179/54/30 178/89/71
f 180/55/31 179/54/30 69/92/208 56/251/209
f 181/23/64 180/81/64 56/252/64 32/73/64
f 32/73/1 147/72/1 182/24/1 181/23/1
f 183/235/1 182/24/1 147/72/1 26/237/1
f 134/61/1 184/13/1 183/235/1 26/237/1
f 185/14/1 184/13/1 134/61/1 27/64/1
f 46/63/210 186/67/47 185/14/46 27/64/210
f 46/42/18 71/41/17 187/44/20 186/43/19
f 188/96/76 187/44/20 71/41/17 45/95/75
f 189/208/1 188/96/1 45/95/1 97/205/1
f 190/130/104 189/129/104 97/138/110 96/137/109
f 191/180/151 190/130/151 96/137/154 6/183/154
f 41/31/8 153/30/7 65/253/9
f 56/38/14 145/37/13 146/71/203
