
v 229.267563 -137.717773 -406.667969
v 229.267563 -85.271683 -406.667969
v 229.267563 -32.825603 -406.667969
v 229.267563 19.620472 -406.667969
v 229.267563 72.066551 -406.667969
v 229.267563 124.512634 -406.667969
v 229.267563 176.958694 -406.667999
v 283.123474 -137.717773 -406.667969
v 283.123474 -85.271683 -406.667969
v 283.123474 -32.825603 -406.667969
v 283.123474 19.620472 -406.667969
v 283.123474 72.066551 -406.667969
v 283.123474 124.512634 -406.667969
v 283.123474 176.958694 -406.667999
v 336.979340 72.066551 -406.667969
v 336.979340 124.512634 -406.667969
v 336.979340 176.958694 -406.667999
v 444.691101 72.066551 -406.667969
v 444.691101 124.512634 -406.667969
v 444.691101 176.958694 -406.667999
v 498.546997 -137.717773 -406.667969
v 498.546997 -85.271683 -406.667969
v 498.546997 -32.825603 -406.667969
v 498.546997 19.620472 -406.667969
v 498.546997 72.066551 -406.667969
v 498.546997 124.512634 -406.667969
v 498.546997 176.958694 -406.667999
v 552.402893 -137.717773 -406.667969
v 552.402893 -85.271683 -406.667969
v 552.402893 -32.825603 -406.667969
v 552.402893 19.620472 -406.667969
v 552.402893 72.066551 -406.667969
v 552.402893 124.512634 -406.667969
v 552.402893 176.958694 -406.667999
v 552.402893 -137.717773 -436.667969
v 552.402893 -85.271683 -436.667969
v 552.402893 -32.825603 -436.667969
v 552.402893 19.620470 -436.667969
v 552.402893 72.066544 -436.667969
v 552.402893 124.512634 -436.667969
v 552.402893 176.958694 -436.667999
v 498.546997 -137.717773 -436.667969
v 498.546997 -85.271683 -436.667969
v 498.546997 -32.825603 -436.667969
v 498.546997 19.620470 -436.667969
v 498.546997 72.066544 -436.667969
v 498.546997 124.512634 -436.667969
v 498.546997 176.958694 -436.667999
v 444.691101 -137.717773 -436.667969
v 444.691101 -85.271683 -436.667969
v 444.691101 -32.825603 -436.667969
v 444.691101 19.620470 -436.667969
v 444.691101 72.066544 -436.667969
v 444.691101 124.512634 -436.667969
v 444.691101 176.958694 -436.667999
v 390.835205 -137.717773 -436.667969
v 390.835205 -85.271683 -436.667969
v 390.835205 -32.825603 -436.667969
v 390.835205 19.620470 -436.667969
v 390.835205 72.066544 -436.667969
v 390.835205 124.512634 -436.667969
v 390.835205 176.958694 -436.667999
v 336.979340 -137.717773 -436.667969
v 336.979340 -85.271683 -436.667969
v 336.979340 -32.825603 -436.667969
v 336.979340 19.620470 -436.667969
v 336.979340 72.066544 -436.667969
v 336.979340 124.512634 -436.667969
v 336.979340 176.958694 -436.667999
v 283.123474 -137.717773 -436.667969
v 283.123474 -85.271683 -436.667969
v 283.123474 -32.825603 -436.667969
v 283.123474 19.620470 -436.667969
v 283.123474 72.066544 -436.667969
v 283.123474 124.512634 -436.667969
v 283.123474 176.958694 -436.667999
v 229.267563 -137.717773 -436.667969
v 229.267563 -85.271683 -436.667969
v 229.267563 -32.825603 -436.667969
v 229.267563 19.620470 -436.667969
v 229.267563 72.066544 -436.667969
v 229.267563 124.512634 -436.667969
v 229.267563 176.958694 -436.667999
v 336.558289 138.143906 -406.345520
v 336.558289 141.244781 -406.345520
v 447.599487 138.143906 -406.345520
v 447.599487 141.244781 -406.345520
v 447.599487 138.143906 -429.754700
v 447.599487 141.244781 -429.754700
v 336.558289 138.143906 -429.754700
v 336.558289 141.244781 -429.754700
v 336.558289 113.191772 -406.345520
v 336.558289 116.292664 -406.345520
v 447.599487 113.191772 -406.345520
v 447.599487 116.292664 -406.345520
v 447.599487 113.191772 -429.754700
v 447.599487 116.292664 -429.754700
v 336.558289 113.191772 -429.754700
v 336.558289 116.292664 -429.754700
v 336.558289 162.767700 -406.345551
v 336.558289 165.868591 -406.345551
v 447.599487 162.767700 -406.345551
v 447.599487 165.868591 -406.345551
v 447.599487 162.767700 -429.754700
v 447.599487 165.868591 -429.754700
v 336.558289 162.767700 -429.754700
v 336.558289 165.868591 -429.754700
vn -0.0000 -0.0000 1.0000
vn -0.0000 -0.0000 -1.0000
vn -1.0000 -0.0000 -0.0000
vn -0.0000 1.0000 -0.0000
vn 1.0000 -0.0000 -0.0000
vn -0.0000 -1.0000 -0.0000
vt 0.166667 0.000000
vt 0.166667 0.166667
vt 0.000000 0.166667
vt 0.000000 0.000000
vt 0.833333 0.833333
vt 0.833333 1.000000
vt 0.666667 1.000000
vt 0.666667 0.833333
vt 1.000000 0.833333
vt 1.000000 1.000000
vt 1.000000 0.000000
vt 1.000000 0.166667
vt 1.000000 0.333333
vt 0.000000 0.333333
vt 0.833333 0.166667
vt 0.833333 0.000000
vt 0.166667 0.333333
vt 1.000000 0.500000
vt 0.000000 0.500000
vt 1.000000 0.666667
vt 0.000000 0.666667
vt 0.000000 0.833333
vt 0.000000 1.000000
vt 0.833333 0.333333
vt 0.166667 0.500000
vt 0.166667 1.000000
vt 0.333333 0.000000
vt 0.333333 1.000000
vt 0.833333 0.500000
vt 0.166667 0.666667
vt 0.666667 0.000000
vt 0.833333 0.666667
vt 0.166667 0.833333
vt 0.333333 0.666667
vt 0.333333 0.833333
vt 0.666667 0.666667
vt 0.333333 0.166667
vt 0.500000 0.000000
vt 0.500000 0.166667
vt 0.666667 0.166667
vt 0.333333 0.333333
vt 0.500000 0.333333
vt 0.666667 0.333333
vt 0.333333 0.500000
vt 0.500000 0.500000
vt 0.666667 0.500000
vt 0.500000 0.666667
vt 0.500000 0.833333
vt 0.500000 1.000000
s 1
usemtl default
f 8/1/1 9/2/1 2/3/1 1/4/1
f 75/5/2 76/6/2 69/7/2 68/8/2
f 82/9/2 83/10/2 76/6/2 75/5/2
f 1/11/3 2/12/3 78/3/3 77/4/3
f 2/12/3 3/13/3 79/14/3 78/3/3
f 28/11/1 29/12/1 22/15/1 21/16/1
f 9/2/1 10/17/1 3/14/1 2/3/1
f 3/13/3 4/18/3 80/19/3 79/14/3
f 4/18/3 5/20/3 81/21/3 80/19/3
f 5/20/3 6/9/3 82/22/3 81/21/3
f 6/9/3 7/10/3 83/23/3 82/22/3
f 29/12/1 30/13/1 23/24/1 22/15/1
f 10/17/1 11/25/1 4/19/1 3/14/1
f 14/1/4 76/26/4 83/23/4 7/4/4
f 17/27/4 69/28/4 76/26/4 14/1/4
f 74/4/5 12/11/5 8/10/5 70/23/5
f 46/4/3 42/11/3 21/10/3 25/23/3
f 30/13/1 31/18/1 24/29/1 23/24/1
f 11/25/1 12/30/1 5/21/1 4/19/1
f 27/16/4 48/6/4 55/7/4 20/31/4
f 34/11/4 41/10/4 48/6/4 27/16/4
f 70/1/6 8/26/6 1/23/6 77/4/6
f 69/4/5 17/11/5 15/10/5 67/23/5
f 31/18/1 32/20/1 25/32/1 24/29/1
f 12/30/1 13/33/1 6/22/1 5/21/1
f 15/34/1 16/35/1 13/33/1 12/30/1
f 20/4/3 55/11/3 53/10/3 18/23/3
f 15/4/6 12/11/6 74/10/6 67/23/6
f 25/32/1 26/5/1 19/8/1 18/36/1
f 32/20/1 33/9/1 26/5/1 25/32/1
f 13/33/1 14/26/1 7/23/1 6/22/1
f 16/35/1 17/28/1 14/26/1 13/33/1
f 25/4/6 18/11/6 53/10/6 46/23/6
f 35/11/6 28/10/6 21/6/6 42/16/6
f 26/5/1 27/6/1 20/7/1 19/8/1
f 33/9/1 34/10/1 27/6/1 26/5/1
f 35/11/5 36/12/5 29/3/5 28/4/5
f 36/12/5 37/13/5 30/14/5 29/3/5
f 37/13/5 38/18/5 31/19/5 30/14/5
f 38/18/5 39/20/5 32/21/5 31/19/5
f 39/20/5 40/9/5 33/22/5 32/21/5
f 40/9/5 41/10/5 34/23/5 33/22/5
f 42/1/2 43/2/2 36/3/2 35/4/2
f 49/27/2 50/37/2 43/2/2 42/1/2
f 56/38/2 57/39/2 50/37/2 49/27/2
f 63/31/2 64/40/2 57/39/2 56/38/2
f 70/16/2 71/15/2 64/40/2 63/31/2
f 77/11/2 78/12/2 71/15/2 70/16/2
f 43/2/2 44/17/2 37/14/2 36/3/2
f 50/37/2 51/41/2 44/17/2 43/2/2
f 57/39/2 58/42/2 51/41/2 50/37/2
f 64/40/2 65/43/2 58/42/2 57/39/2
f 71/15/2 72/24/2 65/43/2 64/40/2
f 78/12/2 79/13/2 72/24/2 71/15/2
f 44/17/2 45/25/2 38/19/2 37/14/2
f 51/41/2 52/44/2 45/25/2 44/17/2
f 58/42/2 59/45/2 52/44/2 51/41/2
f 65/43/2 66/46/2 59/45/2 58/42/2
f 72/24/2 73/29/2 66/46/2 65/43/2
f 79/13/2 80/18/2 73/29/2 72/24/2
f 45/25/2 46/30/2 39/21/2 38/19/2
f 52/44/2 53/34/2 46/30/2 45/25/2
f 59/45/2 60/47/2 53/34/2 52/44/2
f 66/46/2 67/36/2 60/47/2 59/45/2
f 73/29/2 74/32/2 67/36/2 66/46/2
f 80/18/2 81/20/2 74/32/2 73/29/2
f 46/30/2 47/33/2 40/22/2 39/21/2
f 53/34/2 54/35/2 47/33/2 46/30/2
f 60/47/2 61/48/2 54/35/2 53/34/2
f 67/36/2 68/8/2 61/48/2 60/47/2
f 74/32/2 75/5/2 68/8/2 67/36/2
f 81/20/2 82/9/2 75/5/2 74/32/2
f 47/33/2 48/26/2 41/23/2 40/22/2
f 54/35/2 55/28/2 48/26/2 47/33/2
f 61/48/2 62/49/2 55/28/2 54/35/2
f 68/8/2 69/7/2 62/49/2 61/48/2
f 86/11/1 87/10/1 85/23/1 84/4/1
f 88/11/5 89/10/5 87/23/5 86/4/5
f 90/11/2 91/10/2 89/23/2 88/4/2
f 84/11/3 85/10/3 91/23/3 90/4/3
f 87/11/4 89/10/4 91/23/4 85/4/4
f 88/11/6 86/10/6 84/23/6 90/4/6
f 94/11/1 95/10/1 93/23/1 92/4/1
f 96/11/5 97/10/5 95/23/5 94/4/5
f 98/11/2 99/10/2 97/23/2 96/4/2
f 92/11/3 93/10/3 99/23/3 98/4/3
f 95/11/4 97/10/4 99/23/4 93/4/4
f 96/11/6 94/10/6 92/23/6 98/4/6
f 102/11/1 103/10/1 101/23/1 100/4/1
f 104/11/5 105/10/5 103/23/5 102/4/5
f 106/11/2 107/10/2 105/23/2 104/4/2
f 100/11/3 101/10/3 107/23/3 106/4/3
f 103/11/4 105/10/4 107/23/4 101/4/4
f 104/11/6 102/10/6 100/23/6 106/4/6
