
v -0.015353 0.180480 0.031301
v -0.014495 0.179626 0.031301
v -0.015407 0.182291 0.031264
v -0.015865 0.181010 0.031227
v -0.014495 0.179626 0.033229
v -0.014495 0.181936 0.033229
v -0.015353 0.180480 0.033229
v -0.015428 0.184861 0.031264
v -0.015407 0.182291 0.033266
v -0.016264 0.183564 0.031249
v -0.014495 0.182745 0.033229
v -0.015353 0.186474 0.031301
v -0.014495 0.187328 0.031301
v -0.015865 0.185814 0.031227
v -0.017542 0.182303 0.033303
v -0.015865 0.181010 0.033303
v -0.017745 0.181010 0.033303
v -0.015428 0.184861 0.033266
v -0.014495 0.184363 0.033229
v -0.014495 0.185172 0.033229
v -0.017528 0.183597 0.033303
v -0.016264 0.183564 0.033281
v -0.015353 0.186474 0.033229
v -0.014495 0.187328 0.033229
v -0.017564 0.184927 0.033303
v -0.017543 0.184129 0.033303
v -0.015865 0.185814 0.033303
v -0.017745 0.185814 0.033303
v -0.004797 0.180760 0.031301
v -0.005098 0.181727 0.031301
v -0.004514 0.181981 0.031301
v -0.004514 0.180957 0.031301
v -0.005220 0.180465 0.031301
v -0.005935 0.181808 0.031301
v -0.004797 0.180760 0.033229
v -0.004514 0.180957 0.033229
v -0.006160 0.180465 0.031301
v -0.006645 0.181981 0.031301
v -0.005220 0.180465 0.033229
v -0.004514 0.181981 0.033229
v -0.006160 0.180465 0.033229
v -0.007033 0.180465 0.031301
v -0.007033 0.182162 0.031301
v -0.005098 0.181727 0.033229
v -0.007033 0.180465 0.033229
v -0.007777 0.180690 0.031301
v -0.007322 0.182819 0.031301
v -0.005935 0.181808 0.033229
v -0.009118 0.181530 0.031301
v -0.009118 0.179850 0.031301
v -0.007777 0.180690 0.033229
v -0.006645 0.181981 0.033229
v -0.005098 0.185227 0.031301
v -0.004797 0.186194 0.031301
v -0.004514 0.185997 0.031301
v -0.004514 0.184973 0.031301
v -0.009118 0.179850 0.033229
v -0.007033 0.182162 0.033229
v -0.005935 0.185146 0.031301
v -0.005220 0.186489 0.031301
v -0.008554 0.182898 0.031301
v -0.007322 0.182819 0.033229
v -0.009118 0.181530 0.033229
v -0.005098 0.185227 0.033229
v -0.004514 0.184973 0.033229
v -0.004514 0.185997 0.033229
v -0.006645 0.184973 0.031301
v -0.006160 0.186489 0.031301
v -0.011710 0.179262 0.031301
v -0.010626 0.179883 0.031301
v -0.010010 0.182162 0.031301
v -0.008908 0.183201 0.031301
v -0.005935 0.185146 0.033229
v -0.011710 0.179262 0.033229
v -0.010626 0.179883 0.033229
v -0.004797 0.186194 0.033229
v -0.008986 0.183503 0.031301
v -0.007033 0.184792 0.031301
v -0.007033 0.186489 0.031301
v -0.008554 0.182898 0.033229
v -0.012522 0.179169 0.031301
v -0.008908 0.183813 0.031301
v -0.007322 0.184134 0.031301
v -0.007777 0.186264 0.031301
v -0.008554 0.184123 0.031301
v -0.012522 0.179169 0.033229
v -0.010010 0.182162 0.033229
v -0.006645 0.184973 0.033229
v -0.005220 0.186489 0.033229
v -0.009118 0.185424 0.031301
v -0.007322 0.184134 0.033229
v -0.007033 0.184792 0.033229
v -0.008908 0.183201 0.033229
v -0.013335 0.179262 0.031301
v -0.008554 0.184123 0.033229
v -0.013335 0.179262 0.033229
v -0.006160 0.186489 0.033229
v -0.008986 0.183503 0.033229
v -0.009118 0.187104 0.031301
v -0.010010 0.184792 0.031301
v -0.008908 0.183813 0.033229
v -0.009118 0.182809 0.033229
v -0.007033 0.186489 0.033229
v -0.010626 0.181937 0.033229
v -0.011710 0.181791 0.033229
v -0.010010 0.182951 0.033229
v -0.009118 0.183156 0.033229
v -0.007777 0.186264 0.033229
v -0.010626 0.187071 0.031301
v -0.009118 0.183503 0.033229
v -0.010010 0.183227 0.033229
v -0.012522 0.181754 0.033229
v -0.009118 0.183857 0.033229
v -0.010010 0.183503 0.033229
v -0.009118 0.184211 0.033229
v -0.009118 0.185424 0.033229
v -0.010626 0.182745 0.033229
v -0.010010 0.184792 0.033229
v -0.010010 0.183780 0.033229
v -0.013335 0.181791 0.033229
v -0.011710 0.182676 0.033229
v -0.009118 0.187104 0.033229
v -0.010010 0.184056 0.033229
v -0.010626 0.183554 0.033229
v -0.017961 0.179397 0.031227
v -0.016297 0.180249 0.031227
v -0.010626 0.184363 0.033229
v -0.011710 0.187692 0.031301
v -0.011710 0.183561 0.033229
v -0.012522 0.182658 0.033229
v -0.014833 0.182874 0.031287
v -0.014485 0.183550 0.031301
v -0.010626 0.187071 0.033229
v -0.010626 0.185172 0.033229
v -0.016297 0.180249 0.033303
v -0.013335 0.182676 0.033229
v -0.011710 0.184447 0.033229
v -0.012522 0.183563 0.033229
v -0.017961 0.179397 0.033303
v -0.012522 0.187785 0.031301
v -0.014830 0.184223 0.031288
v -0.019919 0.179397 0.031227
v -0.019624 0.181010 0.031227
v -0.011710 0.185332 0.033229
v -0.013335 0.183561 0.033229
v -0.012522 0.184468 0.033229
v -0.013335 0.187692 0.031301
v -0.019919 0.179397 0.033303
v -0.019465 0.182303 0.031227
v -0.011710 0.187692 0.033229
v -0.013335 0.184447 0.033229
v -0.012522 0.185373 0.033229
v -0.016016 0.184163 0.031253
v -0.014485 0.183550 0.033229
v -0.014833 0.182874 0.033243
v -0.013335 0.185332 0.033229
v -0.012522 0.187785 0.033229
v -0.019624 0.181010 0.033303
v -0.014830 0.184223 0.033243
v -0.013335 0.187692 0.033229
v -0.019465 0.182303 0.033303
v -0.019465 0.184927 0.031227
v -0.017961 0.187796 0.031227
v -0.016297 0.186945 0.031227
v -0.019624 0.185814 0.031227
v -0.016297 0.186945 0.033303
v -0.016016 0.184163 0.033277
v -0.017535 0.182950 0.033303
v -0.019545 0.182950 0.033303
v -0.019624 0.183597 0.033303
v -0.019919 0.187796 0.031227
v -0.019561 0.184129 0.033303
v -0.017961 0.187796 0.033303
v -0.019465 0.184927 0.033303
v -0.019624 0.185814 0.033303
v -0.029530 0.182303 0.031227
v -0.019919 0.187796 0.033303
v -0.029530 0.182303 0.033303
v -0.029530 0.184927 0.031227
v -0.029530 0.182950 0.033303
v -0.029530 0.184927 0.033303
v -0.029530 0.183597 0.033303
v -0.029530 0.184129 0.033303
v -0.031774 0.183168 0.031227
v -0.031379 0.182732 0.031227
v -0.031897 0.183603 0.031227
v -0.031826 0.183956 0.031227
v -0.031379 0.182732 0.033303
v -0.031379 0.184486 0.031227
v -0.031774 0.183168 0.033303
v -0.031379 0.184486 0.033303
v -0.031897 0.183603 0.033303
v -0.031826 0.183956 0.033303
v -0.015387 0.182657 0.031265
v -0.015393 0.184438 0.031265
v -0.016011 0.182924 0.031253
v -0.015387 0.182657 0.033266
v -0.015393 0.184438 0.033265
v -0.016011 0.182924 0.033277
vn 0.0150 -0.0088 0.9998
vn 0.0032 -0.0019 1.0000
vn 0.0083 -0.0031 1.0000
vn 0.0170 0.0023 0.9999
vn 0.0124 -0.0001 0.9999
vn 0.0410 -0.0003 0.9992
vn 0.0252 -0.0001 0.9997
vn 0.0065 0.0085 0.9999
vn 0.0064 0.0045 1.0000
vn 0.0021 0.0027 1.0000
vn 0.0127 0.0001 0.9999
vn 0.0083 0.0033 1.0000
vn 0.0179 -0.0019 0.9998
vn 0.0246 0.0004 0.9997
vn 0.0404 0.0005 0.9992
vn 0.0072 -0.0000 1.0000
vn 0.0174 0.0001 0.9998
vn 0.0175 0.0004 0.9998
vn 0.0082 0.0002 1.0000
vn 0.0146 0.0096 0.9998
vn 0.0031 0.0020 1.0000
vn 0.0067 -0.0054 1.0000
vn 0.0049 -0.0093 0.9999
vn 0.0015 -0.0028 1.0000
vn 0.5720 -0.8202 -0.0000
vn 0.5721 -0.8202 -0.0000
vn 0.2118 -0.9773 -0.0000
vn 1.0000 -0.0000 -0.0000
vn -0.0000 -1.0000 -0.0000
vn -0.1206 0.9927 -0.0000
vn -0.3984 0.9172 -0.0000
vn -0.1377 -0.9905 -0.0000
vn 0.1618 0.9868 -0.0000
vn -0.0000 -0.0000 1.0000
vn 0.2826 -0.9592 -0.0000
vn 0.3065 0.9519 -0.0000
vn 0.5306 -0.8476 -0.0000
vn 0.7777 0.6286 -0.0000
vn 0.9151 0.4032 -0.0000
vn -1.0000 -0.0000 -0.0000
vn -0.1206 -0.9927 -0.0000
vn -0.3984 -0.9172 -0.0000
vn 0.1618 -0.9868 -0.0000
vn 0.3527 -0.9357 -0.0000
vn 0.8628 -0.5056 -0.0000
vn 0.5721 0.8202 -0.0000
vn 0.5720 0.8202 -0.0000
vn 0.0636 0.9980 -0.0000
vn 0.2338 0.9723 -0.0000
vn 0.9653 -0.2610 -0.0000
vn 0.3065 -0.9519 -0.0000
vn 0.2118 0.9773 -0.0000
vn -0.5778 -0.8162 -0.0000
vn 0.9151 -0.4032 -0.0000
vn 0.7777 -0.6286 -0.0000
vn 0.8136 0.5815 -0.0000
vn 0.1987 -0.9801 -0.0000
vn 0.0094 -1.0000 -0.0000
vn -0.2255 -0.9742 -0.0000
vn -0.0000 1.0000 -0.0000
vn 0.8199 -0.5725 -0.0000
vn -0.1377 0.9905 -0.0000
vn -0.5168 -0.8561 -0.0000
vn 0.2826 0.9592 -0.0000
vn -0.5778 0.8162 -0.0000
vn -0.7058 -0.7084 -0.0000
vn 0.5306 0.8476 -0.0000
vn 0.9653 0.2610 -0.0000
vn 0.8628 0.5056 -0.0000
vn 0.8694 -0.4941 -0.0000
vn 0.9160 -0.4013 -0.0000
vn -0.9996 -0.0295 -0.0000
vn 0.2289 -0.9735 -0.0000
vn 0.4556 -0.8902 -0.0000
vn 0.9415 -0.3369 -0.0000
vn 0.3527 0.9357 -0.0000
vn 0.0016 -0.0000 1.0000
vn -0.9838 0.1795 -0.0000
vn -0.9880 0.1543 -0.0000
vn -0.2256 0.9742 -0.0000
vn 0.9091 0.4167 -0.0000
vn 0.9232 0.3844 -0.0000
vn -0.9989 0.0465 -0.0000
vn -0.9925 0.1225 -0.0000
vn -0.5168 0.8561 -0.0000
vn -0.7058 0.7084 -0.0000
vn 0.9340 0.3573 -0.0000
vn 0.0079 -0.0001 1.0000
vn 0.4556 0.8902 -0.0000
vn 0.2289 0.9735 -0.0000
vn -0.9842 -0.1772 -0.0000
vn -0.9877 -0.1563 -0.0000
vn -0.9892 -0.1468 -0.0000
vn -0.0360 -0.9994 -0.0000
vn -0.0370 0.9993 -0.0000
vn -0.2260 -0.9741 -0.0000
vn -0.7403 -0.6723 -0.0000
vn -0.8593 -0.5114 -0.0000
vn -0.2321 0.9727 -0.0000
vn -0.9978 -0.0656 -0.0000
vn -0.8625 0.5061 -0.0000
vn -0.7643 0.6449 -0.0000
vn 0.0175 -0.0001 0.9998
vn -0.3641 0.9313 -0.0000
vn -0.8892 0.4575 -0.0000
vn 0.3938 0.9192 -0.0000
vn 0.9302 0.3672 -0.0000
vn -0.3568 -0.9342 -0.0000
vn 0.4045 -0.9146 -0.0000
vn -0.8899 -0.4562 -0.0000
vn 0.9239 -0.3826 -0.0000
vt 1.015651 0.842611
vt 1.007845 0.834776
vt 1.028951 0.834776
vt 1.032188 0.843099
vt 1.036338 0.834776
vt 1.037510 0.837859
vt 1.035531 0.842920
vt 1.020487 0.847287
vt 1.032302 0.862606
vt 1.020487 0.864455
vt 1.051112 0.834776
vt 1.058500 0.834776
vt 1.055667 0.843297
vt 1.051804 0.842979
vt 1.049837 0.837829
vt 1.044117 0.862480
vt 1.043817 0.850928
vt 1.049291 0.848662
vt 1.048978 0.862609
vt 1.070392 0.842611
vt 1.078198 0.834776
vt 1.056269 0.862804
vt 1.064371 0.847287
vt 1.064371 0.864455
vt 1.102459 0.882734
vt 1.091608 0.882734
vt 1.091639 0.881746
vt 1.102490 0.881787
vt 1.102459 0.883901
vt 1.091608 0.883901
vt 1.091628 0.878477
vt 1.102479 0.878486
vt 1.102459 0.886491
vt 1.091608 0.886491
vt 1.091541 0.876629
vt 1.102391 0.876566
vt 1.102459 0.888897
vt 1.091608 0.888897
vt 1.091521 0.874323
vt 1.102371 0.874260
vt 1.027039 0.748945
vt 1.018208 0.746191
vt 1.020006 0.743613
vt 1.029355 0.743613
vt 1.102459 0.890950
vt 1.091608 0.890950
vt 1.027779 0.756587
vt 1.015511 0.750059
vt 1.091504 0.872367
vt 1.102354 0.872304
vt 1.102570 0.895394
vt 1.091720 0.895311
vt 1.029355 0.763069
vt 1.015511 0.758640
vt 1.091429 0.870865
vt 1.102280 0.870878
vt 1.031008 0.766613
vt 1.015511 0.766613
vt 1.091498 0.868426
vt 1.102347 0.868575
vt 1.102577 0.900770
vt 1.091728 0.900607
vt 1.102342 0.846955
vt 1.091493 0.847130
vt 1.091439 0.845223
vt 1.102284 0.844944
vt 1.091512 0.841688
vt 1.102358 0.841540
vt 1.037016 0.769260
vt 1.017564 0.773417
vt 1.102397 0.849261
vt 1.091548 0.849436
vt 1.102232 0.913108
vt 1.091380 0.913108
vt 1.091700 0.909810
vt 1.102551 0.909865
vt 1.091757 0.840494
vt 1.102607 0.840579
vt 1.091707 0.864839
vt 1.102555 0.865050
vt 1.025239 0.785664
vt 1.009897 0.785664
vt 1.102232 0.915347
vt 1.091380 0.915347
vt 1.091902 0.902783
vt 1.102751 0.902920
vt 1.102444 0.851217
vt 1.091595 0.851391
vt 1.091771 0.839326
vt 1.102621 0.839411
vt 1.102751 0.855583
vt 1.091906 0.855305
vt 1.091672 0.852797
vt 1.102521 0.852809
vt 1.091757 0.863449
vt 1.102602 0.863722
vt 1.067835 0.746191
vt 1.059004 0.748945
vt 1.056688 0.743613
vt 1.066036 0.743613
vt 1.102813 0.859413
vt 1.091970 0.859054
vt 1.102232 0.917586
vt 1.091380 0.917586
vt 1.091801 0.836737
vt 1.102651 0.836822
vt 1.091817 0.862201
vt 1.102660 0.862537
vt 1.091889 0.860688
vt 1.102732 0.861036
vt 1.070532 0.750059
vt 1.058264 0.756587
vt 1.036925 0.785664
vt 1.037733 0.780507
vt 1.091829 0.834331
vt 1.102679 0.834416
vt 1.102232 0.920786
vt 1.091380 0.920786
vt 1.070532 0.758640
vt 1.056688 0.763069
vt 1.010199 0.799437
vt 1.028951 0.799437
vt 1.027621 0.809332
vt 1.004520 0.809332
vt 1.038216 0.793811
vt 1.031007 0.793811
vt 1.040497 0.783743
vt 1.040093 0.785664
vt 1.091853 0.832278
vt 1.102703 0.832363
vt 1.043262 0.785664
vt 1.043262 0.784458
vt 1.070532 0.766613
vt 1.055035 0.766613
vt 1.040739 0.793811
vt 1.027282 0.816754
vt 1.003673 0.816754
vt 1.046091 0.783743
vt 1.046495 0.785664
vt 1.068479 0.773417
vt 1.049027 0.769260
vt 1.043262 0.793811
vt 1.049729 0.785664
vt 1.048921 0.780507
vt 1.060804 0.785664
vt 1.036338 0.799437
vt 1.091996 0.821418
vt 1.102845 0.821550
vt 1.102843 0.823533
vt 1.091992 0.823423
vt 1.045785 0.793811
vt 1.091311 0.923433
vt 1.102159 0.923274
vt 1.027621 0.824175
vt 1.004520 0.824175
vt 1.035706 0.809332
vt 1.091909 0.828317
vt 1.102760 0.828415
vt 1.048308 0.793811
vt 1.043725 0.799437
vt 1.076146 0.785664
vt 1.051112 0.799437
vt 1.055036 0.793811
vt 1.043792 0.809332
vt 1.035545 0.816754
vt 1.092001 0.814485
vt 1.102849 0.814668
vt 1.058500 0.799437
vt 1.091062 0.935466
vt 1.090929 0.933116
vt 1.102619 0.933171
vt 1.102752 0.935493
vt 1.035707 0.824175
vt 1.051877 0.809332
vt 1.102473 0.929009
vt 1.091206 0.929148
vt 1.043808 0.816754
vt 1.102901 0.940303
vt 1.091210 0.940303
vt 1.075845 0.799437
vt 1.059963 0.809332
vt 1.043792 0.824175
vt 1.052072 0.816754
vt 1.091165 0.946120
vt 1.102855 0.946139
vt 1.091979 0.811112
vt 1.102827 0.811320
vt 1.051877 0.824175
vt 1.060336 0.816754
vt 1.081523 0.809332
vt 1.013535 0.851237
vt 1.005758 0.866431
vt 1.043691 0.834678
vt 1.059963 0.824175
vt 1.092042 0.808873
vt 1.102890 0.809081
vt 1.102789 0.951023
vt 1.091099 0.950986
vt 1.082371 0.816754
vt 1.092106 0.806634
vt 1.102954 0.806842
vt 1.020487 0.881625
vt 1.005758 0.884312
vt 1.102590 0.794785
vt 1.091326 0.794869
vt 1.090960 0.791510
vt 1.102647 0.791739
vt 1.102975 0.800468
vt 1.092130 0.800551
vt 1.081523 0.824175
vt 1.102749 0.954948
vt 1.091059 0.954930
vt 1.092197 0.803436
vt 1.103045 0.803644
vt 1.032302 0.880166
vt 1.091084 0.787964
vt 1.102772 0.788011
vt 1.038209 0.862543
vt 1.038209 0.880895
vt 1.044117 0.881625
vt 1.048978 0.881041
vt 1.091038 0.782950
vt 1.102726 0.782814
vt 1.056269 0.880166
vt 1.090990 0.768671
vt 1.102674 0.768404
vt 1.102671 0.771325
vt 1.090991 0.771723
vt 1.082475 0.866431
vt 1.074699 0.851237
vt 1.064371 0.881625
vt 1.102790 0.777101
vt 1.091106 0.777368
vt 1.102726 0.983052
vt 1.091036 0.983052
vt 1.082475 0.884312
vt 1.038209 0.972104
vt 1.032302 0.972104
vt 1.090631 0.740321
vt 1.102320 0.740185
vt 1.044117 0.972104
vt 1.048978 0.972104
vt 1.056269 0.972104
vt 1.102726 0.988148
vt 1.091036 0.988148
vt 1.102726 0.989237
vt 1.091036 0.989237
vt 1.040196 0.992600
vt 1.036220 0.988989
vt 1.090543 0.735226
vt 1.102232 0.735090
vt 1.090885 0.730955
vt 1.102575 0.731019
vt 1.102566 0.732219
vt 1.090876 0.732155
vt 1.102384 0.733525
vt 1.090695 0.733561
vt 1.044173 0.993723
vt 1.047399 0.993074
vt 1.052240 0.988989
vt 1.037974 0.848622
vt 1.083342 0.905270
vt 1.081088 0.905427
vt 1.081079 0.891800
vt 1.083333 0.891953
vt 1.063198 0.905146
vt 1.060445 0.905241
vt 1.060445 0.891924
vt 1.063198 0.892019
vt 1.078002 0.905515
vt 1.077973 0.891735
vt 1.074853 0.905566
vt 1.074805 0.891723
vt 1.068972 0.905424
vt 1.066306 0.905254
vt 1.066306 0.891941
vt 1.068972 0.891801
vt 1.071959 0.905523
vt 1.071935 0.891743
s 1
usemtl Clock_Texture
f 7/1/1 5/2/2 6/3/3 9/4/4
f 9/4/4 6/3/3 11/5/5 155/6/6 197/7/7
f 16/8/8 9/4/4 15/9/9 17/10/10
f 19/11/11 20/12/12 18/13/13 198/14/14 159/15/15
f 21/16/16 22/17/17 167/18/18 26/19/19
f 23/20/20 18/13/13 20/12/12 24/21/21
f 18/13/13 25/22/22 26/19/19 167/18/18 198/14/14
f 25/22/22 18/13/13 27/23/23 28/24/24
f 35/25/25 29/26/25 32/27/26 36/28/26
f 39/29/27 33/30/27 29/26/25 35/25/25
f 31/31/28 40/32/28 36/28/28 32/27/28
f 41/33/29 37/34/29 33/30/27 39/29/27
f 30/35/30 44/36/30 40/32/31 31/31/31
f 45/37/32 42/38/32 37/34/29 41/33/29
f 34/39/33 48/40/33 44/36/30 30/35/30
f 44/41/34 35/42/34 36/43/34 40/44/34
f 51/45/35 46/46/35 42/38/32 45/37/32
f 48/47/34 39/48/34 35/42/34 44/41/34
f 38/49/36 52/50/36 48/40/33 34/39/33
f 57/51/37 50/52/37 46/46/35 51/45/35
f 52/53/34 41/54/34 39/48/34 48/47/34
f 43/55/38 58/56/38 52/50/36 38/49/36
f 58/57/34 45/58/34 41/54/34 52/53/34
f 47/59/39 62/60/39 58/56/38 43/55/38
f 63/61/40 49/62/40 50/52/40 57/51/40
f 64/63/41 53/64/41 56/65/42 65/66/42
f 65/66/28 56/65/28 55/67/28 66/68/28
f 62/69/34 51/70/34 45/58/34 58/57/34
f 73/71/43 59/72/43 53/64/41 64/63/41
f 74/73/44 69/74/44 70/75/45 75/76/45
f 54/77/46 76/78/46 66/68/47 55/67/47
f 47/59/48 61/79/49 80/80/49 62/60/48
f 62/69/34 63/81/34 57/82/34 51/70/34
f 86/83/29 81/84/29 69/74/44 74/73/44
f 75/76/45 70/75/45 71/85/50 87/86/50
f 88/87/51 67/88/51 59/72/43 73/71/43
f 60/89/52 89/90/52 76/78/46 54/77/46
f 87/86/53 71/85/53 49/62/53 63/61/53
f 91/91/54 83/92/54 78/93/55 92/94/55
f 92/94/55 78/93/55 67/88/51 88/87/51
f 80/80/49 61/79/49 72/95/56 93/96/56
f 76/97/34 64/98/34 65/99/34 66/100/34
f 95/101/57 85/102/57 83/92/58 91/91/58
f 96/103/59 94/104/59 81/84/29 86/83/29
f 68/105/60 97/106/60 89/90/52 60/89/52
f 93/96/56 72/95/56 77/107/28 98/108/28
f 98/108/28 77/107/28 82/109/61 101/110/61
f 89/111/34 73/112/34 64/98/34 76/97/34
f 102/113/34 63/81/34 62/69/34 80/114/34
f 101/110/61 82/109/61 85/102/57 95/101/57
f 79/115/62 103/116/62 97/106/60 68/105/60
f 5/117/63 2/118/63 94/104/59 96/103/59
f 97/119/34 88/120/34 73/112/34 89/111/34
f 75/121/34 104/122/34 105/123/34 74/124/34
f 102/113/34 106/125/34 87/126/34 63/81/34
f 93/127/34 107/128/34 102/113/34 80/114/34
f 87/126/34 106/125/34 104/122/34 75/121/34
f 84/129/64 108/130/64 103/116/62 79/115/62
f 110/131/34 107/128/34 93/127/34 98/132/34
f 103/133/34 92/134/34 88/120/34 97/119/34
f 107/128/34 111/135/34 106/125/34 102/113/34
f 74/124/34 105/123/34 112/136/34 86/137/34
f 101/138/34 113/139/34 110/131/34 98/132/34
f 108/140/34 91/141/34 92/134/34 103/133/34
f 110/131/34 114/142/34 111/135/34 107/128/34
f 115/143/34 113/139/34 101/138/34 95/144/34
f 116/145/34 115/143/34 95/144/34 91/141/34
f 104/122/34 106/125/34 111/135/34 117/146/34
f 100/147/65 118/148/65 116/149/65 90/150/65
f 113/139/34 119/151/34 114/142/34 110/131/34
f 1/152/66 2/118/63 5/117/63 7/153/66
f 86/137/34 112/136/34 120/154/34 96/155/34
f 105/123/34 104/122/34 117/146/34 121/156/34
f 99/157/67 122/158/67 108/130/64 84/129/64
f 115/143/34 123/159/34 119/151/34 113/139/34
f 117/146/34 111/135/34 114/142/34 124/160/34
f 90/150/40 116/149/40 122/158/40 99/157/40
f 116/145/34 91/141/34 108/140/34 122/161/34
f 124/160/34 114/142/34 119/151/34 127/162/34
f 118/163/34 123/159/34 115/143/34 116/145/34
f 121/156/34 117/146/34 124/160/34 129/164/34
f 112/136/34 105/123/34 121/156/34 130/165/34
f 96/155/34 120/154/34 6/3/3 5/2/2
f 100/147/68 109/166/69 133/167/69 118/148/68
f 127/162/34 119/151/34 123/159/34 134/168/34
f 126/169/70 4/170/71 16/171/71 135/172/70
f 120/154/34 112/136/34 130/165/34 136/173/34
f 129/164/34 124/160/34 127/162/34 137/174/34
f 7/153/72 9/175/72 3/176/72 1/152/72
f 130/165/34 121/156/34 129/164/34 138/177/34
f 139/178/73 125/179/73 126/169/74 135/172/74
f 134/168/34 123/159/34 118/163/34 133/180/34
f 16/171/71 4/170/71 3/176/75 9/175/75
f 137/174/34 127/162/34 134/168/34 144/181/34
f 136/173/34 130/165/34 138/177/34 145/182/34
f 138/177/34 129/164/34 137/174/34 146/183/34
f 6/3/3 120/154/34 136/173/34 11/5/5
f 142/184/29 125/179/73 139/178/73 148/185/29
f 133/167/69 109/166/69 128/186/76 150/187/76
f 145/182/34 138/177/34 146/183/34 151/188/34
f 146/183/34 137/174/34 144/181/34 152/189/34
f 144/181/34 134/168/34 133/180/34 150/190/34
f 135/191/34 16/8/8 17/10/10 139/192/34
f 11/5/5 154/193/77 155/6/6
f 151/188/34 146/183/34 152/189/34 156/194/34
f 150/187/76 128/186/76 140/195/60 157/196/60
f 148/185/78 158/197/79 143/198/79 142/184/78
f 152/189/34 144/181/34 150/190/34 157/199/34
f 19/11/11 151/188/34 156/194/34 20/12/12
f 154/193/77 19/11/11 159/15/15
f 157/196/60 140/195/60 147/200/80 160/201/80
f 139/192/34 17/10/10 158/202/34 148/203/34
f 18/204/81 8/205/81 14/206/82 27/207/82
f 8/205/83 18/204/83 23/208/83 12/209/83
f 156/194/34 152/189/34 157/199/34 160/210/34
f 143/198/79 158/197/79 161/211/84 149/212/84
f 160/201/80 147/200/80 13/213/85 24/214/85
f 24/214/85 13/213/85 12/209/86 23/208/86
f 20/12/12 156/194/34 160/210/34 24/21/21
f 158/202/34 17/10/10 15/9/9 161/215/34
f 27/207/82 14/206/82 164/216/87 166/217/87
f 161/215/34 15/9/9 168/218/88 169/219/34
f 169/219/34 168/218/88 21/16/16 170/220/34
f 170/220/34 21/16/16 26/19/19 172/221/34
f 164/216/89 163/222/90 173/223/90 166/217/89
f 172/221/34 26/19/19 25/22/22 174/224/34
f 162/225/91 174/226/91 175/227/92 165/228/92
f 173/229/34 28/24/24 27/23/23 166/230/34
f 174/224/34 25/22/22 28/24/24 175/231/34
f 165/228/92 175/227/92 177/232/93 171/233/93
f 173/223/90 163/222/90 171/233/60 177/232/60
f 149/212/29 161/211/29 178/234/94 176/235/94
f 175/231/34 28/24/24 173/229/34 177/236/34
f 161/215/34 169/219/34 180/237/34 178/238/34
f 174/226/60 162/225/60 179/239/95 181/240/95
f 180/237/34 169/219/34 170/220/34 182/241/34
f 170/220/34 172/221/34 183/242/34 182/241/34
f 183/242/34 172/221/34 174/224/34 181/243/34
f 176/235/94 178/234/94 188/244/96 185/245/96
f 185/245/97 188/244/97 190/246/98 184/247/98
f 178/238/34 180/237/34 190/248/34 188/249/34
f 181/240/95 179/239/95 189/250/99 191/251/99
f 184/252/98 190/253/98 192/254/100 186/255/100
f 186/255/100 192/254/100 193/256/101 187/257/101
f 190/248/34 180/237/34 182/241/34 192/258/34
f 187/257/101 193/256/101 191/251/102 189/250/102
f 182/241/34 183/242/34 193/259/34 192/258/34
f 193/259/34 183/242/34 181/243/34 191/260/34
f 154/193/77 145/182/34 151/188/34 19/11/11
f 21/16/16 168/218/88 199/261/103 22/17/17
f 131/262/104 194/263/104 197/264/104 155/265/104
f 132/266/105 131/267/105 155/268/105 154/269/105
f 194/263/106 196/270/106 199/271/106 197/264/106
f 11/5/5 136/173/34 145/182/34 154/193/77
f 196/270/107 10/272/107 22/273/107 199/271/107
f 195/274/108 141/275/108 159/276/108 198/277/108
f 153/278/109 195/274/109 198/277/109 167/279/109
f 199/261/103 168/218/88 15/9/9 9/4/4 197/7/7
f 141/275/110 132/266/110 154/269/110 159/276/110
f 10/272/111 153/278/111 167/279/111 22/273/111
