
v -258.862915 -140.182968 503.437439
v -262.340210 177.301331 507.197083
v -238.712936 -140.182968 503.437439
v -242.190155 177.301331 507.197083
v -247.443146 -140.183060 -531.961975
v -250.920364 177.301285 -528.202209
v -267.593140 -140.183060 -531.961975
v -271.070374 177.301285 -528.202209
v -247.443146 -17.278486 146.137726
v -247.443146 -17.311647 145.947205
v -247.443146 -17.182245 146.309586
v -247.443146 -17.032351 146.445984
v -247.443146 -16.843470 146.533554
v -247.443146 -16.634100 146.563721
v -247.443146 144.622070 146.563705
v -247.443146 144.831451 146.533539
v -247.443146 145.020325 146.445969
v -247.443146 145.170227 146.309570
v -247.443146 145.266464 146.137711
v -247.443146 145.299622 145.947189
v -247.443146 -17.278498 -0.974411
v -247.443146 -17.311659 -0.783890
v -247.443146 -17.182257 -1.146271
v -247.443146 -17.032362 -1.282669
v -247.443146 -16.843481 -1.370232
v -247.443146 -16.634111 -1.400406
v -247.443146 144.622070 -1.400414
v -247.443146 144.831436 -1.370239
v -247.443146 145.020325 -1.282677
v -247.443146 145.170212 -1.146278
v -247.443146 145.266464 -0.974419
v -247.443146 145.299622 -0.783897
v -247.443146 -17.278502 -74.607491
v -247.443146 -17.311663 -74.798004
v -247.443146 -17.182261 -74.435623
v -247.443146 -17.032366 -74.299232
v -247.443146 -16.843485 -74.211662
v -247.443146 -16.634115 -74.181488
v -247.443146 144.622055 -74.181503
v -247.443146 144.831436 -74.211670
v -247.443146 145.020309 -74.299240
v -247.443146 145.170212 -74.435638
v -247.443146 145.266449 -74.607498
v -247.443146 145.299606 -74.798019
v -247.443146 -17.278513 -221.719620
v -247.443146 -17.311674 -221.529114
v -247.443146 -17.182272 -221.891495
v -247.443146 -17.032377 -222.027893
v -247.443146 -16.843496 -222.115448
v -247.443146 -16.634127 -222.145630
v -247.443146 144.622055 -222.145630
v -247.443146 144.831421 -222.115463
v -247.443146 145.020309 -222.027893
v -247.443146 145.170197 -221.891510
v -247.443146 145.266449 -221.719635
v -247.443146 145.299606 -221.529114
v -267.593140 -17.278486 146.137726
v -267.593140 -17.311647 145.947205
v -267.593140 -17.182245 146.309586
v -267.593140 -17.032351 146.445984
v -267.593140 -16.843470 146.533554
v -267.593140 -16.634100 146.563721
v -267.593140 144.622070 146.563705
v -267.593140 144.831451 146.533539
v -267.593140 145.020325 146.445969
v -267.593140 145.170227 146.309570
v -267.593140 145.266464 146.137711
v -267.593140 145.299622 145.947189
v -267.593140 -17.278498 -0.974411
v -267.593140 -17.311659 -0.783890
v -267.593140 -17.182257 -1.146271
v -267.593140 -17.032362 -1.282669
v -267.593140 -16.843481 -1.370232
v -267.593140 -16.634111 -1.400406
v -267.593140 144.622070 -1.400414
v -267.593140 144.831436 -1.370239
v -267.593140 145.020325 -1.282677
v -267.593140 145.170212 -1.146278
v -267.593140 145.266464 -0.974419
v -267.593140 145.299622 -0.783897
v -267.593140 -17.278502 -74.607491
v -267.593140 -17.311663 -74.798004
v -267.593140 -17.182261 -74.435623
v -267.593140 -17.032366 -74.299232
v -267.593140 -16.843485 -74.211662
v -267.593140 -16.634115 -74.181488
v -267.593140 144.622055 -74.181503
v -267.593140 144.831436 -74.211670
v -267.593140 145.020309 -74.299240
v -267.593140 145.170212 -74.435638
v -267.593140 145.266449 -74.607498
v -267.593140 145.299606 -74.798019
v -267.593140 -17.278513 -221.719620
v -267.593140 -17.311674 -221.529114
v -267.593140 -17.182272 -221.891495
v -267.593140 -17.032377 -222.027893
v -267.593140 -16.843496 -222.115448
v -267.593140 -16.634127 -222.145630
v -267.593140 144.622055 -222.145630
v -267.593140 144.831421 -222.115463
v -267.593140 145.020309 -222.027893
v -267.593140 145.170197 -221.891510
v -267.593140 145.266449 -221.719635
v -267.593140 145.299606 -221.529114
vn -0.0000 -0.0118 0.9999
vn 0.9977 0.0676 -0.0000
vn 1.0000 -0.0000 -0.0000
vn 1.0000 -0.0001 -0.0000
vn 1.0000 0.0001 -0.0000
vn 0.9997 0.0233 -0.0063
vn 0.9999 0.0146 -0.0050
vn 0.9994 0.0352 -0.0055
vn 0.9998 0.0143 -0.0159
vn 0.9996 0.0287 -0.0073
vn 1.0000 -0.0002 -0.0000
vn 1.0000 0.0016 -0.0038
vn 1.0000 0.0076 -0.0064
vn 0.9977 0.0675 -0.0011
vn 0.9990 0.0426 -0.0098
vn 0.9999 -0.0061 -0.0152
vn 0.9996 0.0241 -0.0162
vn 0.9999 -0.0011 -0.0121
vn 0.9997 0.0139 -0.0196
vn 0.9999 0.0007 -0.0113
vn 0.9999 0.0035 -0.0110
vn 0.9997 0.0066 -0.0222
vn 0.9999 0.0078 -0.0105
vn 0.9998 0.0056 -0.0206
vn 0.9999 0.0026 -0.0165
vn 0.9998 0.0039 -0.0178
vn 0.9998 0.0151 -0.0098
vn 0.9993 0.0370 -0.0075
vn 0.9999 -0.0047 -0.0142
vn 0.9999 0.0068 -0.0074
vn 0.9999 -0.0100 -0.0136
vn 1.0000 0.0013 -0.0074
vn 0.9997 -0.0201 -0.0128
vn 0.9987 -0.0500 -0.0101
vn 0.9994 -0.0353 -0.0071
vn 0.9999 -0.0134 -0.0062
vn 0.9880 -0.1543 -0.0007
vn 0.9873 -0.1586 0.0003
vn -0.0000 0.0118 -0.9999
vn -1.0000 -0.0000 -0.0000
vn -1.0000 -0.0001 -0.0000
vn -0.9991 -0.0424 0.0098
vn -0.9991 -0.0416 0.0075
vn -0.9998 -0.0138 0.0164
vn -0.9999 -0.0111 0.0062
vn -0.9996 -0.0240 0.0162
vn -0.9993 -0.0362 0.0066
vn -0.9997 -0.0140 0.0196
vn -0.9997 -0.0066 0.0222
vn -0.9998 -0.0056 0.0206
vn -1.0000 0.0001 -0.0000
vn -1.0000 -0.0002 -0.0000
vn -0.9999 -0.0028 0.0165
vn -0.9998 -0.0046 0.0180
vn -0.9999 0.0045 0.0142
vn -0.9999 0.0103 0.0136
vn -1.0000 -0.0043 0.0039
vn -0.9997 0.0201 0.0128
vn -1.0000 -0.0044 0.0089
vn -0.9999 -0.0080 0.0066
vn -0.9987 0.0496 0.0101
vn -0.9999 -0.0035 0.0110
vn -0.9988 0.0474 0.0075
vn -0.9999 -0.0077 0.0105
vn -0.9991 0.0421 0.0072
vn -0.9998 -0.0151 0.0098
vn -0.9993 -0.0368 0.0075
vn -0.9997 -0.0253 0.0050
vn -0.9999 -0.0098 0.0045
vn -0.9947 -0.1029 0.0005
vn -0.9944 -0.1054 -0.0002
vn -0.0000 1.0000 -0.0000
vn -0.0000 -1.0000 -0.0000
vt 1.000000 0.000000
vt 1.000000 1.000000
vt 0.000000 1.000000
vt 0.000000 0.000000
vt 0.384587 0.362695
vt 0.469918 0.363077
vt 0.469760 0.363519
vt 0.640559 0.362793
vt 0.640338 0.362695
vt 0.470117 0.362793
vt 0.470338 0.362695
vt 0.640758 0.363077
vt 0.385165 0.363519
vt 0.385007 0.363077
vt 0.469659 0.364077
vt 0.469624 0.364695
vt 0.640916 0.363519
vt 0.214587 0.362695
vt 0.384807 0.362793
vt 0.214366 0.362793
vt 0.641017 0.364077
vt 0.214167 0.363077
vt 0.641052 0.364695
vt 0.214009 0.363519
vt 0.385266 0.364077
vt 0.641052 0.840695
vt 0.641017 0.841313
vt 0.213907 0.364077
vt 0.640916 0.841870
vt 0.213872 0.364695
vt 0.385301 0.364695
vt 0.213872 0.840695
vt 0.640758 0.842313
vt 0.385301 0.840695
vt 0.469624 0.840695
vt 0.469659 0.841313
vt 0.385266 0.841313
vt 0.640559 0.842597
vt 0.213907 0.841313
vt 0.640338 0.842695
vt 0.214009 0.841870
vt 0.470338 0.842695
vt 0.385165 0.841870
vt 0.469760 0.841870
vt 0.214167 0.842313
vt 0.214366 0.842597
vt 0.470117 0.842597
vt 0.385007 0.842313
vt 0.469918 0.842313
vt 0.214587 0.842695
vt 0.384807 0.842597
vt 0.384587 0.842695
vt 0.529662 0.362695
vt 0.614993 0.363077
vt 0.614835 0.363519
vt 0.785634 0.362793
vt 0.785413 0.362695
vt 0.785833 0.363077
vt 0.615413 0.362695
vt 0.615193 0.362793
vt 0.530082 0.363077
vt 0.529883 0.362793
vt 0.614734 0.364077
vt 0.614699 0.364695
vt 0.785991 0.363519
vt 0.786093 0.364077
vt 0.359662 0.362695
vt 0.786128 0.364695
vt 0.359441 0.362793
vt 0.359242 0.363077
vt 0.530240 0.363519
vt 0.359084 0.363519
vt 0.530341 0.364077
vt 0.786128 0.840695
vt 0.614699 0.840695
vt 0.786093 0.841313
vt 0.358983 0.364077
vt 0.785991 0.841870
vt 0.358948 0.364695
vt 0.530341 0.841313
vt 0.530376 0.840695
vt 0.614734 0.841313
vt 0.785833 0.842313
vt 0.358948 0.840695
vt 0.530376 0.364695
vt 0.785634 0.842597
vt 0.358983 0.841313
vt 0.785413 0.842695
vt 0.359084 0.841870
vt 0.614835 0.841870
vt 0.530240 0.841870
vt 0.615413 0.842695
vt 0.359242 0.842313
vt 0.359441 0.842597
vt 0.615193 0.842597
vt 0.614993 0.842313
vt 0.530082 0.842313
vt 0.359662 0.842695
vt 0.529883 0.842597
vt 0.529662 0.842695
s 1
usemtl default
f 3/1/1 4/2/1 2/3/1 1/4/1
f 22/5/2 35/6/3 36/7/4
f 45/8/5 46/9/6 5/1/7
f 33/10/8 35/6/3 22/5/2
f 3/4/9 5/1/7 46/9/6 34/11/10
f 47/12/11 45/8/5 5/1/7
f 3/4/9 33/10/8 22/5/2
f 24/13/3 23/14/3 37/15/4 38/16/3
f 48/17/12 5/1/7 6/2/13
f 3/4/9 34/11/10 33/10/8
f 3/4/9 22/5/2 10/18/14
f 48/17/12 47/12/11 5/1/7
f 21/19/5 22/5/2 36/7/4 37/15/4
f 3/4/9 10/18/14 9/20/15
f 49/21/16 48/17/12 6/2/13
f 23/14/3 21/19/5 37/15/4
f 3/4/9 9/20/15 11/22/17
f 50/23/18 49/21/16 6/2/13
f 3/4/9 11/22/17 12/24/19
f 25/25/3 24/13/3 38/16/3
f 51/26/20 50/23/18 6/2/13
f 52/27/21 51/26/20 6/2/13
f 3/4/9 12/24/19 13/28/22
f 53/29/23 52/27/21 6/2/13
f 3/4/9 13/28/22 14/30/24
f 26/31/3 25/25/3 38/16/3
f 15/32/25 4/3/26 3/4/9 14/30/24
f 54/33/27 53/29/23 6/2/13
f 27/34/3 26/31/3 38/16/3 39/35/3
f 40/36/3 28/37/3 27/34/3 39/35/3
f 55/38/28 54/33/27 6/2/13
f 4/3/26 15/32/25 16/39/29
f 56/40/30 55/38/28 6/2/13
f 4/3/26 16/39/29 17/41/31
f 44/42/32 56/40/30 6/2/13 4/3/26
f 29/43/3 28/37/3 40/36/3 41/44/3
f 4/3/26 17/41/31 18/45/33
f 4/3/26 18/45/33 19/46/34
f 43/47/35 44/42/32 4/3/26
f 30/48/3 29/43/3 41/44/3 42/49/36
f 42/49/36 43/47/35 4/3/26
f 4/3/26 19/46/34 20/50/37
f 31/51/3 30/48/3 42/49/36
f 4/3/26 20/50/37 32/52/38
f 32/52/38 31/51/3 42/49/36
f 32/52/38 42/49/36 4/3/26
f 7/1/39 8/2/39 6/3/39 5/4/39
f 82/53/40 71/54/41 72/55/41
f 57/56/42 58/57/43 1/1/44
f 7/4/45 71/54/41 82/53/40
f 59/58/46 57/56/42 1/1/44
f 70/59/47 7/4/45 1/1/44 58/57/43
f 7/4/45 69/60/40 71/54/41
f 83/61/40 81/62/40 73/63/40 74/64/40
f 60/65/48 59/58/46 1/1/44
f 7/4/45 70/59/47 69/60/40
f 61/66/49 60/65/48 1/1/44
f 7/4/45 82/53/40 94/67/40
f 81/62/40 82/53/40 72/55/41 73/63/40
f 62/68/50 61/66/49 1/1/44
f 7/4/45 94/67/40 93/69/51
f 7/4/45 93/69/51 95/70/51
f 84/71/51 83/61/40 74/64/40
f 96/72/52 7/4/45 95/70/51
f 85/73/40 84/71/51 74/64/40
f 63/74/53 62/68/50 1/1/44 2/2/54
f 85/73/40 74/64/40 75/75/40
f 64/76/55 63/74/53 2/2/54
f 97/77/40 7/4/45 96/72/52
f 65/78/56 64/76/55 2/2/54
f 98/79/57 7/4/45 97/77/40
f 88/80/40 87/81/40 75/75/40 76/82/40
f 66/83/58 65/78/56 2/2/54
f 99/84/59 8/3/60 7/4/45 98/79/57
f 86/85/40 85/73/40 75/75/40
f 67/86/61 66/83/58 2/2/54
f 87/81/40 86/85/40 75/75/40
f 8/3/60 99/84/59 100/87/62
f 68/88/63 67/86/61 2/2/54
f 8/3/60 100/87/62 101/89/64
f 77/90/51 89/91/51 88/80/40 76/82/40
f 80/92/65 68/88/63 2/2/54 8/3/60
f 8/3/60 101/89/64 102/93/66
f 8/3/60 102/93/66 103/94/67
f 79/95/68 80/92/65 8/3/60
f 78/96/69 90/97/52 89/91/51 77/90/51
f 78/96/69 79/95/68 8/3/60
f 8/3/60 103/94/67 104/98/70
f 91/99/40 90/97/52 78/96/69
f 8/3/60 104/98/70 92/100/71
f 92/100/71 91/99/40 78/96/69
f 92/100/71 78/96/69 8/3/60
f 4/1/72 6/2/72 8/3/72 2/4/72
f 5/1/73 3/2/73 1/3/73 7/4/73
