v 0.000000 -0.268379 0.500000
v 0.000000 -0.268379 -0.500000
v 0.000000 0.339079 0.500000
v 0.000000 0.339079 -0.500000
v -0.050000 -0.268379 0.500000
v -0.050000 -0.268379 -0.500000
v -0.050000 0.339079 0.500000
v -0.050000 0.339079 -0.500000
v 0.000000 0.000000 0.500000
v 0.000000 -0.000000 -0.500000
v -0.050000 0.000000 0.500000
v -0.050000 -0.000000 -0.500000
v 0.000000 -0.268379 0.000000
v 0.000000 0.339079 -0.000000
v -0.050000 -0.268379 0.000000
v -0.050000 0.339079 -0.000000
v -0.050000 0.000000 0.000000
v 0.023479 0.339079 0.500000
v 0.023479 0.339079 -0.000000
v 0.000000 0.065576 0.096697
v 0.000000 0.000000 0.167019
v 0.000000 0.065576 -0.096697
v 0.000000 -0.000000 -0.167019
v 0.012531 -0.268379 0.000000
v 0.012531 -0.268379 -0.500000
v 0.012531 0.339079 -0.000000
v 0.012531 0.339079 0.500000
v 0.012531 -0.268379 0.500000
v 0.012531 0.339079 -0.500000
v 0.012531 -0.000000 -0.167019
v 0.012531 0.000000 0.000000
v 0.012531 0.065576 -0.096697
v 0.012531 0.065576 0.096697
v 0.012531 0.000000 0.167019
v 0.023479 0.339079 -0.500000
v 0.023479 0.155745 -0.000000
v 0.023479 0.065576 -0.096697
v 0.023479 0.065576 0.096697
v 0.023479 0.000000 0.000000
vn -0.0000 -0.8276 0.5613
vn -1.0000 -0.0000 -0.0000
vn -0.0000 -0.0000 1.0000
vn -0.0000 -1.0000 -0.0000
vn -0.0000 -0.0000 -1.0000
vn -0.0000 1.0000 -0.0000
vn 1.0000 -0.0000 -0.0000
vn -0.0000 0.7786 -0.6275
vn -0.0000 0.7555 -0.6552
vn -0.0000 0.7555 0.6552
vn -0.0000 0.7786 0.6275
vn -0.0000 0.7314 0.6820
vn -0.0000 -0.8276 -0.5613
vn -0.0000 0.7314 -0.6820
vt 0.820422 0.458890
vt 0.820422 0.253094
vt 0.829851 0.253094
vt 0.829851 0.458890
vt 0.378035 0.203754
vt 0.378035 0.458892
vt 0.001814 0.458892
vt 0.001814 0.203754
vt 0.795508 0.203752
vt 0.795508 0.458890
vt 0.757886 0.458890
vt 0.757886 0.203752
vt 0.434168 0.930473
vt 0.745542 0.930473
vt 0.745542 0.968095
vt 0.434168 0.968095
vt 0.955806 0.737422
vt 0.955806 0.869731
vt 0.918184 0.869731
vt 0.918184 0.737422
vt 0.955806 0.286036
vt 0.955806 0.570258
vt 0.918184 0.570258
vt 0.918184 0.286036
vt 0.795508 0.001812
vt 0.757885 0.001812
vt 0.378035 0.001814
vt 0.001814 0.001814
vt 0.122794 0.930473
vt 0.122794 0.921044
vt 0.434168 0.921044
vt 0.965234 0.286036
vt 0.965234 0.570258
vt 0.754257 0.001814
vt 0.754257 0.203754
vt 0.955806 0.001814
vt 0.918184 0.001814
vt 0.122794 0.968095
vt 0.754257 0.458892
vt 0.703394 0.757930
vt 0.844019 0.550567
vt 0.914554 0.534468
vt 0.914554 0.901130
vt 0.851144 0.001812
vt 0.851144 0.323402
vt 0.841716 0.323402
vt 0.841716 0.001812
vt 0.745542 0.921044
vt 0.378359 0.665792
vt 0.504031 0.665792
vt 0.451118 0.715134
vt 0.965234 0.001814
vt 0.536261 0.644588
vt 0.820422 0.203752
vt 0.820422 0.001812
vt 0.829851 0.001812
vt 0.829851 0.203752
vt 0.001809 0.631225
vt 0.072345 0.647323
vt 0.212974 0.854684
vt 0.001816 0.997888
vt 0.380104 0.741338
vt 0.378359 0.463852
vt 0.754581 0.463852
vt 0.002138 0.463852
vt 0.252687 0.665792
vt 0.838089 0.203752
vt 0.838089 0.253094
vt 0.838089 0.458890
vt 0.973472 0.001814
vt 0.973472 0.286036
vt 0.807363 0.001814
vt 0.807363 0.089726
vt 0.799125 0.089726
vt 0.799125 0.001814
vt 0.305600 0.715134
vt 0.851144 0.395704
vt 0.841716 0.395704
vt 0.816791 0.089726
vt 0.816791 0.456389
vt 0.807363 0.456389
vt 0.914641 0.915308
vt 0.538419 0.915308
vt 0.538419 0.777360
vt 0.611178 0.709513
vt 0.162198 0.915308
vt 0.465661 0.709513
vt 0.538419 0.660171
vt 0.799125 0.456389
vt 0.973472 0.570258
s 1
f 3/1/1 20/2/1 33/3/1 27/4/1
f 17/5/2 16/6/2 8/7/2 12/8/2
f 9/9/3 3/10/3 7/11/3 11/12/3
f 13/13/4 1/14/4 5/15/4 15/16/4
f 10/17/5 2/18/5 6/19/5 12/20/5
f 14/21/6 4/22/6 8/23/6 16/24/6
f 4/22/5 10/17/5 12/20/5 8/23/5
f 1/25/3 9/9/3 11/12/3 5/26/3
f 15/27/2 17/5/2 12/8/2 6/28/2
f 13/13/4 2/29/4 25/30/4 24/31/4
f 4/22/6 14/21/6 26/32/6 29/33/6
f 5/34/2 11/35/2 17/5/2 15/27/2
f 3/36/6 14/21/6 16/24/6 7/37/6
f 2/29/4 13/13/4 15/16/4 6/38/4
f 11/35/2 7/39/2 16/6/2 17/5/2
f 9/40/7 21/41/7 20/42/7 3/43/7
f 2/44/8 23/45/9 30/46/9 25/47/8
f 1/14/4 13/13/4 24/31/4 28/48/4
f 31/49/7 30/50/7 32/51/7
f 14/21/6 3/36/6 27/52/6 26/32/6
f 21/41/7 9/40/7 1/53/7
f 21/54/10 1/55/11 28/56/11 34/57/10
f 22/58/7 23/59/7 10/60/7 4/61/7
f 20/2/12 21/54/10 34/57/10 33/3/12
f 23/59/7 2/62/7 10/60/7
f 24/63/7 25/64/7 30/50/7 31/49/7
f 28/65/7 24/63/7 31/49/7 34/66/7
f 33/3/1 31/57/1 39/67/1 38/68/1
f 27/4/1 33/3/1 38/68/1 18/69/1
f 26/32/6 27/52/6 18/70/6 19/71/6
f 31/72/13 32/73/13 37/74/13 39/75/13
f 33/76/7 34/66/7 31/49/7
f 23/45/9 22/77/14 32/78/14 30/46/9
f 22/79/13 4/80/13 29/81/13 32/73/13
f 35/82/7 19/83/7 36/84/7 37/85/7
f 18/86/7 38/87/7 36/84/7 19/83/7
f 37/85/7 36/84/7 39/88/7
f 36/84/7 38/87/7 39/88/7
f 32/73/13 29/81/13 35/89/13 37/74/13
f 29/33/6 26/32/6 19/71/6 35/90/6
