
v 0.011747 0.187346 0.032017
v 0.011032 0.188036 0.032017
v 0.011926 0.185768 0.031984
v 0.012175 0.186917 0.031952
v 0.011032 0.188036 0.033708
v 0.011209 0.186017 0.033708
v 0.011747 0.187346 0.033708
v 0.012139 0.183523 0.031984
v 0.011926 0.185768 0.033741
v 0.012672 0.184712 0.031971
v 0.011271 0.185310 0.033708
v 0.012205 0.182110 0.032017
v 0.011621 0.181306 0.032017
v 0.012542 0.182719 0.031952
v 0.013544 0.185898 0.033773
v 0.012175 0.186917 0.033773
v 0.013599 0.187042 0.033773
v 0.012139 0.183523 0.033741
v 0.011394 0.183897 0.033708
v 0.011456 0.183190 0.033708
v 0.013632 0.184767 0.033773
v 0.012672 0.184712 0.033754
v 0.012205 0.182110 0.033708
v 0.011621 0.181306 0.033708
v 0.013761 0.183607 0.033773
v 0.013684 0.184303 0.033773
v 0.012542 0.182719 0.033773
v 0.013966 0.182844 0.033773
v 0.003775 0.186402 0.032017
v 0.004077 0.185577 0.032017
v 0.003654 0.185317 0.032017
v 0.003576 0.186211 0.032017
v 0.004073 0.186688 0.032017
v 0.004717 0.185562 0.032017
v 0.003775 0.186402 0.033708
v 0.003576 0.186211 0.033708
v 0.004784 0.186750 0.032017
v 0.005267 0.185458 0.032017
v 0.004073 0.186688 0.033708
v 0.003654 0.185317 0.033708
v 0.004784 0.186750 0.033708
v 0.005445 0.186808 0.032017
v 0.005575 0.185326 0.032017
v 0.004077 0.185577 0.033708
v 0.005445 0.186808 0.033708
v 0.006027 0.186661 0.032017
v 0.005845 0.184770 0.032017
v 0.004717 0.185562 0.033708
v 0.007106 0.186016 0.032017
v 0.006978 0.187483 0.032017
v 0.006027 0.186661 0.033708
v 0.005267 0.185458 0.033708
v 0.004345 0.182519 0.032017
v 0.004190 0.181655 0.032017
v 0.003961 0.181808 0.032017
v 0.003883 0.182702 0.032017
v 0.006978 0.187483 0.033708
v 0.005575 0.185326 0.033708
v 0.004972 0.182646 0.032017
v 0.004533 0.181425 0.032017
v 0.006783 0.184783 0.032017
v 0.005845 0.184770 0.033708
v 0.007106 0.186016 0.033708
v 0.004345 0.182519 0.033708
v 0.003883 0.182702 0.033708
v 0.003961 0.181808 0.033708
v 0.005496 0.182843 0.032017
v 0.005245 0.181487 0.032017
v 0.008895 0.188169 0.032017
v 0.008122 0.187554 0.032017
v 0.007830 0.185523 0.032017
v 0.007075 0.184542 0.032017
v 0.004972 0.182646 0.033708
v 0.008895 0.188169 0.033708
v 0.008122 0.187554 0.033708
v 0.004190 0.181655 0.033708
v 0.007157 0.184283 0.032017
v 0.005776 0.183027 0.032017
v 0.005906 0.181545 0.032017
v 0.006783 0.184783 0.033708
v 0.009503 0.188304 0.032017
v 0.007121 0.184007 0.032017
v 0.005945 0.183621 0.032017
v 0.006453 0.181791 0.032017
v 0.006877 0.183713 0.032017
v 0.009503 0.188304 0.033708
v 0.007830 0.185523 0.033708
v 0.005496 0.182843 0.033708
v 0.004533 0.181425 0.033708
v 0.007404 0.182614 0.032017
v 0.005945 0.183621 0.033708
v 0.005776 0.183027 0.033708
v 0.007075 0.184542 0.033708
v 0.010125 0.188277 0.032017
v 0.006877 0.183713 0.033708
v 0.010125 0.188277 0.033708
v 0.005245 0.181487 0.033708
v 0.007157 0.184283 0.033708
v 0.007532 0.181146 0.032017
v 0.008031 0.183224 0.032017
v 0.007121 0.184007 0.033708
v 0.007204 0.184898 0.033708
v 0.005906 0.181545 0.033708
v 0.008279 0.185761 0.033708
v 0.009088 0.185960 0.033708
v 0.007890 0.184833 0.033708
v 0.007231 0.184595 0.033708
v 0.006453 0.181791 0.033708
v 0.008672 0.181275 0.032017
v 0.007257 0.184292 0.033708
v 0.007911 0.184592 0.033708
v 0.009701 0.186046 0.033708
v 0.007284 0.183982 0.033708
v 0.007932 0.184351 0.033708
v 0.007311 0.183673 0.033708
v 0.007404 0.182614 0.033708
v 0.008341 0.185054 0.033708
v 0.008031 0.183224 0.033708
v 0.007954 0.184109 0.033708
v 0.010319 0.186067 0.033708
v 0.009156 0.185186 0.033708
v 0.007532 0.181146 0.033708
v 0.007975 0.183868 0.033708
v 0.008403 0.184347 0.033708
v 0.013639 0.188465 0.031952
v 0.012444 0.187611 0.031952
v 0.008465 0.183641 0.033708
v 0.009539 0.180803 0.032017
v 0.009224 0.184413 0.033708
v 0.009770 0.185255 0.033708
v 0.011536 0.185220 0.032005
v 0.011324 0.184606 0.032017
v 0.008672 0.181275 0.033708
v 0.008526 0.182934 0.033708
v 0.012444 0.187611 0.033773
v 0.010386 0.185294 0.033708
v 0.009291 0.183639 0.033708
v 0.009839 0.184465 0.033708
v 0.013639 0.188465 0.033773
v 0.010162 0.180776 0.032017
v 0.011637 0.184041 0.032005
v 0.015121 0.188595 0.031952
v 0.015022 0.187166 0.031952
v 0.009359 0.182866 0.033708
v 0.010454 0.184520 0.033708
v 0.009908 0.183674 0.033708
v 0.010770 0.180911 0.032017
v 0.015121 0.188595 0.033773
v 0.015000 0.186026 0.031952
v 0.009539 0.180803 0.033708
v 0.010522 0.183747 0.033708
v 0.009977 0.182884 0.033708
v 0.012530 0.184172 0.031975
v 0.011324 0.184606 0.033708
v 0.011536 0.185220 0.033720
v 0.010589 0.182973 0.033708
v 0.010162 0.180776 0.033708
v 0.015022 0.187166 0.033773
v 0.011637 0.184041 0.033720
v 0.010770 0.180911 0.033708
v 0.015000 0.186026 0.033773
v 0.015200 0.183733 0.031952
v 0.014281 0.181126 0.031952
v 0.012956 0.181760 0.031952
v 0.015389 0.182968 0.031952
v 0.012956 0.181760 0.033773
v 0.012530 0.184172 0.033750
v 0.013588 0.185333 0.033773
v 0.015110 0.185466 0.033773
v 0.015220 0.184906 0.033773
v 0.015763 0.181256 0.031952
v 0.015212 0.184437 0.033773
v 0.014281 0.181126 0.033773
v 0.015200 0.183733 0.033773
v 0.015389 0.182968 0.033773
v 0.022622 0.186692 0.031952
v 0.015763 0.181256 0.033773
v 0.022622 0.186692 0.033773
v 0.022822 0.184400 0.031952
v 0.022671 0.186127 0.033773
v 0.022822 0.184400 0.033773
v 0.022721 0.185562 0.033773
v 0.022761 0.185097 0.033773
v 0.024387 0.186086 0.031952
v 0.024054 0.186440 0.031952
v 0.024513 0.185714 0.031952
v 0.024487 0.185400 0.031952
v 0.024054 0.186440 0.033773
v 0.024189 0.184908 0.031952
v 0.024387 0.186086 0.033773
v 0.024189 0.184908 0.033773
v 0.024513 0.185714 0.033773
v 0.024487 0.185400 0.033773
v 0.011939 0.185446 0.031985
v 0.012080 0.183890 0.031985
v 0.012432 0.185254 0.031975
v 0.011939 0.185446 0.033740
v 0.012080 0.183890 0.033740
v 0.012432 0.185254 0.033750
vn -0.0180 0.0073 0.9998
vn -0.0035 0.0014 1.0000
vn -0.0098 0.0024 0.9999
vn -0.0193 -0.0042 0.9998
vn -0.0144 -0.0012 0.9999
vn -0.0471 -0.0038 0.9989
vn -0.0290 -0.0024 0.9996
vn -0.0066 -0.0089 0.9999
vn -0.0070 -0.0050 1.0000
vn -0.0022 -0.0030 1.0000
vn -0.0148 -0.0014 0.9999
vn -0.0093 -0.0042 0.9999
vn -0.0208 0.0003 0.9998
vn -0.0282 -0.0029 0.9996
vn -0.0463 -0.0045 0.9989
vn -0.0083 -0.0008 1.0000
vn -0.0200 -0.0019 0.9998
vn -0.0201 -0.0022 0.9998
vn -0.0094 -0.0010 1.0000
vn -0.0159 -0.0110 0.9998
vn -0.0031 -0.0021 1.0000
vn -0.0082 0.0044 1.0000
vn -0.0062 0.0085 0.9999
vn -0.0020 0.0027 1.0000
vn -0.6924 0.7215 -0.0000
vn -0.6925 0.7215 -0.0000
vn -0.3262 0.9453 -0.0000
vn -0.9962 -0.0872 -0.0000
vn -0.0872 0.9962 -0.0000
vn 0.2245 -0.9745 -0.0000
vn 0.5242 -0.8516 -0.0000
vn 0.0716 0.9974 -0.0000
vn -0.0996 -0.9950 -0.0000
vn -0.0000 -0.0000 1.0000
vn -0.4032 0.9151 -0.0000
vn -0.2653 -0.9642 -0.0000
vn -0.6540 0.7565 -0.0000
vn -0.7659 -0.6429 -0.0000
vn -0.8996 -0.4368 -0.0000
vn 0.9962 0.0872 -0.0000
vn 0.0519 0.9987 -0.0000
vn 0.3684 0.9297 -0.0000
vn -0.2708 0.9626 -0.0000
vn -0.4772 0.8788 -0.0000
vn -0.9277 0.3734 -0.0000
vn -0.5567 -0.8307 -0.0000
vn 0.0138 -0.9999 -0.0000
vn -0.1823 -0.9832 -0.0000
vn -0.1823 -0.9832 -0.0001
vn -0.9898 0.1424 -0.0000
vn -0.4287 0.9035 -0.0000
vn -0.1571 -0.9876 -0.0000
vn 0.5627 0.8266 -0.0000
vn -0.9618 0.2739 -0.0000
vn -0.8659 0.5002 -0.0000
vn -0.8010 -0.5986 -0.0000
vn -0.3118 0.9502 -0.0000
vn -0.0980 0.9952 -0.0000
vn 0.1729 0.9849 -0.0000
vn 0.0872 -0.9962 -0.0000
vn -0.9962 -0.0871 -0.0000
vn -0.8974 0.4412 -0.0000
vn 0.2438 -0.9698 -0.0000
vn 0.4979 0.8672 -0.0000
vn -0.2381 -0.9712 0.0001
vn -0.2381 -0.9712 -0.0000
vn 0.6977 -0.7164 -0.0000
vn 0.6944 0.7196 -0.0000
vn -0.5127 -0.8586 -0.0000
vn -0.9500 -0.3121 -0.0000
vn -0.8487 -0.5288 -0.0000
vn -0.9322 0.3620 -0.0000
vn -0.9623 0.2721 -0.0000
vn 0.9936 0.1126 -0.0000
vn -0.3450 0.9386 -0.0000
vn -0.5816 0.8135 -0.0000
vn -0.9773 0.2119 -0.0000
vn -0.3174 -0.9483 -0.0000
vn -0.0016 -0.0001 1.0000
vn 0.9976 -0.0695 -0.0000
vn 0.9989 -0.0473 -0.0000
vn 0.3413 -0.9400 -0.0000
vn -0.8937 -0.4488 -0.0000
vn -0.9075 -0.4201 -0.0000
vn -0.9074 -0.4202 -0.0000
vn 0.9989 0.0469 -0.0000
vn 0.9998 -0.0193 -0.0000
vn 0.6410 -0.7676 -0.0000
vn 0.8088 -0.5880 -0.0000
vn -0.9182 -0.3962 -0.0000
vn -0.0092 -0.0007 1.0000
vn -0.4315 -0.9021 -0.0000
vn -0.1768 -0.9843 -0.0000
vn 0.9708 0.2397 -0.0000
vn 0.9751 0.2217 -0.0000
vn 0.9769 0.2135 -0.0000
vn -0.0457 0.9990 -0.0000
vn 0.1296 -0.9916 -0.0000
vn 0.1734 0.9848 -0.0000
vn 0.7290 0.6846 -0.0000
vn 0.8454 0.5341 -0.0000
vn 0.3485 -0.9373 -0.0000
vn 0.9896 0.1437 -0.0000
vn 0.9275 -0.3739 -0.0000
vn 0.8556 -0.5177 -0.0000
vn -0.0201 -0.0016 0.9998
vn 0.4891 -0.8722 -0.0000
vn 0.9453 -0.3261 -0.0000
vn -0.3633 -0.9317 -0.0000
vn -0.9144 -0.4049 -0.0000
vn 0.3220 0.9467 -0.0000
vn -0.5304 0.8477 -0.0000
vn 0.8750 0.4841 -0.0000
vn -0.9671 0.2545 -0.0000
vt 1.015808 0.843085
vt 1.008144 0.835393
vt 1.028866 0.835393
vt 1.032044 0.843564
vt 1.036119 0.835393
vt 1.037270 0.838419
vt 1.035327 0.843389
vt 1.020556 0.847675
vt 1.032156 0.862717
vt 1.020556 0.864532
vt 1.050625 0.835393
vt 1.057877 0.835393
vt 1.055096 0.843758
vt 1.051303 0.843446
vt 1.049372 0.838390
vt 1.043756 0.862592
vt 1.043462 0.851251
vt 1.048836 0.849025
vt 1.048529 0.862720
vt 1.069554 0.843085
vt 1.077218 0.835393
vt 1.055688 0.862911
vt 1.063642 0.847675
vt 1.063642 0.864532
vt 1.100438 0.873361
vt 1.085792 0.873361
vt 1.085699 0.872271
vt 1.100344 0.872268
vt 1.100438 0.874442
vt 1.085792 0.874442
vt 1.085639 0.869204
vt 1.100284 0.869198
vt 1.100438 0.876841
vt 1.085792 0.876841
vt 1.085673 0.867628
vt 1.100318 0.867622
vt 1.100438 0.879069
vt 1.085792 0.879069
vt 1.085670 0.865492
vt 1.100315 0.865486
vt 1.026989 0.751122
vt 1.018319 0.748419
vt 1.020084 0.745887
vt 1.029263 0.745887
vt 1.100438 0.880971
vt 1.085792 0.880971
vt 1.027716 0.758626
vt 1.015671 0.752216
vt 1.085668 0.863680
vt 1.100313 0.863675
vt 1.100392 0.885077
vt 1.085751 0.884940
vt 1.029263 0.764989
vt 1.015671 0.760642
vt 1.085772 0.862390
vt 1.100417 0.862384
vt 1.030885 0.768470
vt 1.015671 0.768470
vt 1.085932 0.860133
vt 1.100576 0.860209
vt 1.100094 0.890045
vt 1.085457 0.889772
vt 1.100807 0.840851
vt 1.086164 0.840730
vt 1.086399 0.838515
vt 1.101037 0.838746
vt 1.087270 0.834888
vt 1.101901 0.834868
vt 1.036784 0.771068
vt 1.017686 0.775149
vt 1.100752 0.842987
vt 1.086109 0.842866
vt 1.100370 0.901883
vt 1.085725 0.901883
vt 1.085741 0.898488
vt 1.100385 0.898584
vt 1.087693 0.833875
vt 1.102322 0.833495
vt 1.086096 0.856713
vt 1.100738 0.856871
vt 1.025222 0.787174
vt 1.010159 0.787174
vt 1.100370 0.903957
vt 1.085725 0.903957
vt 1.085679 0.891714
vt 1.100318 0.891946
vt 1.100705 0.844798
vt 1.086061 0.844678
vt 1.087604 0.832795
vt 1.102234 0.832415
vt 1.100680 0.848830
vt 1.086036 0.848947
vt 1.085939 0.846340
vt 1.100582 0.846332
vt 1.086312 0.855785
vt 1.100956 0.855838
vt 1.067043 0.748419
vt 1.058372 0.751122
vt 1.056099 0.745887
vt 1.065277 0.745887
vt 1.100892 0.852248
vt 1.086248 0.852346
vt 1.100370 0.906031
vt 1.085725 0.906031
vt 1.087407 0.830399
vt 1.102037 0.830019
vt 1.086489 0.854988
vt 1.101134 0.854936
vt 1.086374 0.853724
vt 1.101018 0.853649
vt 1.069691 0.752216
vt 1.057646 0.758626
vt 1.036695 0.787174
vt 1.037488 0.782110
vt 1.087225 0.828173
vt 1.101854 0.827793
vt 1.100370 0.908994
vt 1.085725 0.908994
vt 1.069691 0.760642
vt 1.056099 0.764989
vt 1.010455 0.800696
vt 1.028866 0.800696
vt 1.027560 0.810412
vt 1.004879 0.810412
vt 1.037962 0.795173
vt 1.030885 0.795173
vt 1.040202 0.785287
vt 1.039806 0.787174
vt 1.087069 0.826274
vt 1.101698 0.825893
vt 1.042917 0.787174
vt 1.042917 0.785990
vt 1.069691 0.768470
vt 1.054476 0.768470
vt 1.040440 0.795173
vt 1.027227 0.817698
vt 1.004047 0.817698
vt 1.045695 0.785287
vt 1.046091 0.787174
vt 1.067675 0.775149
vt 1.048577 0.771068
vt 1.042917 0.795173
vt 1.049266 0.787174
vt 1.048473 0.782110
vt 1.060139 0.787174
vt 1.036119 0.800696
vt 1.087679 0.815417
vt 1.102324 0.815417
vt 1.101945 0.817741
vt 1.087300 0.817725
vt 1.045394 0.795173
vt 1.085565 0.911484
vt 1.100209 0.911432
vt 1.027560 0.824984
vt 1.004879 0.824984
vt 1.035498 0.810412
vt 1.087036 0.822433
vt 1.101673 0.822251
vt 1.047871 0.795173
vt 1.043372 0.800696
vt 1.075203 0.787174
vt 1.050625 0.800696
vt 1.054477 0.795173
vt 1.043437 0.810412
vt 1.035340 0.817698
vt 1.088314 0.808375
vt 1.102959 0.808387
vt 1.057877 0.800696
vt 1.084273 0.923130
vt 1.084262 0.920785
vt 1.100032 0.921069
vt 1.100047 0.923272
vt 1.035499 0.824984
vt 1.051375 0.810412
vt 1.100185 0.917047
vt 1.084978 0.916964
vt 1.043453 0.817698
vt 1.100172 0.927778
vt 1.084395 0.927778
vt 1.074907 0.800696
vt 1.059314 0.810412
vt 1.043437 0.824984
vt 1.051567 0.817698
vt 1.084495 0.933224
vt 1.100272 0.933159
vt 1.088622 0.805077
vt 1.103268 0.805119
vt 1.051375 0.824984
vt 1.059680 0.817698
vt 1.080482 0.810412
vt 1.013731 0.851554
vt 1.006095 0.866471
vt 1.043339 0.835297
vt 1.059314 0.824984
vt 1.088641 0.803003
vt 1.103286 0.803045
vt 1.100478 0.937659
vt 1.084702 0.937788
vt 1.081315 0.817698
vt 1.088660 0.800929
vt 1.103305 0.800971
vt 1.020556 0.881389
vt 1.006095 0.884027
vt 1.104911 0.790024
vt 1.089700 0.790014
vt 1.089629 0.787665
vt 1.105406 0.787677
vt 1.103883 0.794935
vt 1.089238 0.794911
vt 1.080482 0.824984
vt 1.100705 0.941168
vt 1.084928 0.941232
vt 1.088686 0.797966
vt 1.103331 0.798007
vt 1.032156 0.879957
vt 1.089203 0.784592
vt 1.104981 0.784554
vt 1.037956 0.862654
vt 1.037956 0.880673
vt 1.043756 0.881389
vt 1.048529 0.880816
vt 1.088697 0.780159
vt 1.104474 0.780071
vt 1.055688 0.879957
vt 1.086997 0.766770
vt 1.102767 0.766970
vt 1.103308 0.769729
vt 1.087530 0.769721
vt 1.081417 0.866471
vt 1.073782 0.851554
vt 1.063642 0.881389
vt 1.103842 0.774932
vt 1.088065 0.774971
vt 1.100846 0.967072
vt 1.085068 0.967072
vt 1.081417 0.884027
vt 1.037956 0.970223
vt 1.032156 0.970223
vt 1.088480 0.740411
vt 1.104242 0.740803
vt 1.043756 0.970223
vt 1.048529 0.970223
vt 1.055688 0.970223
vt 1.100846 0.971792
vt 1.085068 0.971792
vt 1.100846 0.972801
vt 1.085068 0.972801
vt 1.039907 0.990346
vt 1.036002 0.986801
vt 1.088851 0.735696
vt 1.104613 0.736088
vt 1.089422 0.731856
vt 1.105200 0.731865
vt 1.105198 0.732976
vt 1.089420 0.732968
vt 1.104950 0.734413
vt 1.089180 0.734213
vt 1.043811 0.991448
vt 1.046979 0.990811
vt 1.051731 0.986801
vt 1.037725 0.848987
vt 1.066612 0.891524
vt 1.069897 0.891625
vt 1.069897 0.905177
vt 1.066936 0.904761
vt 1.062839 0.891498
vt 1.063478 0.904539
vt 1.072820 0.891702
vt 1.072820 0.905407
vt 1.075806 0.891824
vt 1.075806 0.905592
vt 1.081900 0.891463
vt 1.084183 0.891592
vt 1.084330 0.904832
vt 1.082052 0.905011
vt 1.078806 0.891635
vt 1.078883 0.905339
vt 1.060116 0.891539
vt 1.060764 0.904764
s 1
usemtl Clock_Texture
f 7/1/1 5/2/2 6/3/3 9/4/4
f 9/4/4 6/3/3 11/5/5 155/6/6 197/7/7
f 16/8/8 9/4/4 15/9/9 17/10/10
f 19/11/11 20/12/12 18/13/13 198/14/14 159/15/15
f 21/16/16 22/17/17 167/18/18 26/19/19
f 23/20/20 18/13/13 20/12/12 24/21/21
f 18/13/13 25/22/22 26/19/19 167/18/18 198/14/14
f 25/22/22 18/13/13 27/23/23 28/24/24
f 35/25/25 29/26/25 32/27/26 36/28/26
f 39/29/27 33/30/27 29/26/25 35/25/25
f 31/31/28 40/32/28 36/28/28 32/27/28
f 41/33/29 37/34/29 33/30/27 39/29/27
f 30/35/30 44/36/30 40/32/31 31/31/31
f 45/37/32 42/38/32 37/34/29 41/33/29
f 34/39/33 48/40/33 44/36/30 30/35/30
f 44/41/34 35/42/34 36/43/34 40/44/34
f 51/45/35 46/46/35 42/38/32 45/37/32
f 48/47/34 39/48/34 35/42/34 44/41/34
f 38/49/36 52/50/36 48/40/33 34/39/33
f 57/51/37 50/52/37 46/46/35 51/45/35
f 52/53/34 41/54/34 39/48/34 48/47/34
f 43/55/38 58/56/38 52/50/36 38/49/36
f 58/57/34 45/58/34 41/54/34 52/53/34
f 47/59/39 62/60/39 58/56/38 43/55/38
f 63/61/40 49/62/40 50/52/40 57/51/40
f 64/63/41 53/64/41 56/65/42 65/66/42
f 65/66/28 56/65/28 55/67/28 66/68/28
f 62/69/34 51/70/34 45/58/34 58/57/34
f 73/71/43 59/72/43 53/64/41 64/63/41
f 74/73/44 69/74/44 70/75/45 75/76/45
f 54/77/46 76/78/46 66/68/46 55/67/46
f 47/59/47 61/79/48 80/80/49 62/60/47
f 62/69/34 63/81/34 57/82/34 51/70/34
f 86/83/29 81/84/29 69/74/44 74/73/44
f 75/76/45 70/75/45 71/85/50 87/86/50
f 88/87/51 67/88/51 59/72/43 73/71/43
f 60/89/52 89/90/52 76/78/46 54/77/46
f 87/86/53 71/85/53 49/62/53 63/61/53
f 91/91/54 83/92/54 78/93/55 92/94/55
f 92/94/55 78/93/55 67/88/51 88/87/51
f 80/80/49 61/79/48 72/95/56 93/96/56
f 76/97/34 64/98/34 65/99/34 66/100/34
f 95/101/57 85/102/57 83/92/58 91/91/58
f 96/103/59 94/104/59 81/84/29 86/83/29
f 68/105/60 97/106/60 89/90/52 60/89/52
f 93/96/56 72/95/56 77/107/61 98/108/61
f 98/108/61 77/107/61 82/109/62 101/110/62
f 89/111/34 73/112/34 64/98/34 76/97/34
f 102/113/34 63/81/34 62/69/34 80/114/34
f 101/110/62 82/109/62 85/102/57 95/101/57
f 79/115/63 103/116/63 97/106/60 68/105/60
f 5/117/64 2/118/64 94/104/59 96/103/59
f 97/119/34 88/120/34 73/112/34 89/111/34
f 75/121/34 104/122/34 105/123/34 74/124/34
f 102/113/34 106/125/34 87/126/34 63/81/34
f 93/127/34 107/128/34 102/113/34 80/114/34
f 87/126/34 106/125/34 104/122/34 75/121/34
f 84/129/65 108/130/66 103/116/63 79/115/63
f 110/131/34 107/128/34 93/127/34 98/132/34
f 103/133/34 92/134/34 88/120/34 97/119/34
f 107/128/34 111/135/34 106/125/34 102/113/34
f 74/124/34 105/123/34 112/136/34 86/137/34
f 101/138/34 113/139/34 110/131/34 98/132/34
f 108/140/34 91/141/34 92/134/34 103/133/34
f 110/131/34 114/142/34 111/135/34 107/128/34
f 115/143/34 113/139/34 101/138/34 95/144/34
f 116/145/34 115/143/34 95/144/34 91/141/34
f 104/122/34 106/125/34 111/135/34 117/146/34
f 100/147/67 118/148/67 116/149/67 90/150/67
f 113/139/34 119/151/34 114/142/34 110/131/34
f 1/152/68 2/118/64 5/117/64 7/153/68
f 86/137/34 112/136/34 120/154/34 96/155/34
f 105/123/34 104/122/34 117/146/34 121/156/34
f 99/157/69 122/158/69 108/130/66 84/129/65
f 115/143/34 123/159/34 119/151/34 113/139/34
f 117/146/34 111/135/34 114/142/34 124/160/34
f 90/150/40 116/149/40 122/158/40 99/157/40
f 116/145/34 91/141/34 108/140/34 122/161/34
f 124/160/34 114/142/34 119/151/34 127/162/34
f 118/163/34 123/159/34 115/143/34 116/145/34
f 121/156/34 117/146/34 124/160/34 129/164/34
f 112/136/34 105/123/34 121/156/34 130/165/34
f 96/155/34 120/154/34 6/3/3 5/2/2
f 100/147/70 109/166/71 133/167/71 118/148/70
f 127/162/34 119/151/34 123/159/34 134/168/34
f 126/169/72 4/170/73 16/171/73 135/172/72
f 120/154/34 112/136/34 130/165/34 136/173/34
f 129/164/34 124/160/34 127/162/34 137/174/34
f 7/153/74 9/175/74 3/176/74 1/152/74
f 130/165/34 121/156/34 129/164/34 138/177/34
f 139/178/75 125/179/75 126/169/76 135/172/76
f 134/168/34 123/159/34 118/163/34 133/180/34
f 16/171/73 4/170/73 3/176/77 9/175/77
f 137/174/34 127/162/34 134/168/34 144/181/34
f 136/173/34 130/165/34 138/177/34 145/182/34
f 138/177/34 129/164/34 137/174/34 146/183/34
f 6/3/3 120/154/34 136/173/34 11/5/5
f 142/184/29 125/179/75 139/178/75 148/185/29
f 133/167/71 109/166/71 128/186/78 150/187/78
f 145/182/34 138/177/34 146/183/34 151/188/34
f 146/183/34 137/174/34 144/181/34 152/189/34
f 144/181/34 134/168/34 133/180/34 150/190/34
f 135/191/34 16/8/8 17/10/10 139/192/34
f 11/5/5 154/193/79 155/6/6
f 151/188/34 146/183/34 152/189/34 156/194/34
f 150/187/78 128/186/78 140/195/60 157/196/60
f 148/185/80 158/197/81 143/198/81 142/184/80
f 152/189/34 144/181/34 150/190/34 157/199/34
f 19/11/11 151/188/34 156/194/34 20/12/12
f 154/193/79 19/11/11 159/15/15
f 157/196/60 140/195/60 147/200/82 160/201/82
f 139/192/34 17/10/10 158/202/34 148/203/34
f 18/204/83 8/205/83 14/206/84 27/207/85
f 8/205/86 18/204/86 23/208/86 12/209/86
f 156/194/34 152/189/34 157/199/34 160/210/34
f 143/198/81 158/197/81 161/211/87 149/212/87
f 160/201/82 147/200/82 13/213/88 24/214/88
f 24/214/88 13/213/88 12/209/89 23/208/89
f 20/12/12 156/194/34 160/210/34 24/21/21
f 158/202/34 17/10/10 15/9/9 161/215/34
f 27/207/85 14/206/84 164/216/90 166/217/90
f 161/215/34 15/9/9 168/218/91 169/219/34
f 169/219/34 168/218/91 21/16/16 170/220/34
f 170/220/34 21/16/16 26/19/19 172/221/34
f 164/216/92 163/222/93 173/223/93 166/217/92
f 172/221/34 26/19/19 25/22/22 174/224/34
f 162/225/94 174/226/94 175/227/95 165/228/95
f 173/229/34 28/24/24 27/23/23 166/230/34
f 174/224/34 25/22/22 28/24/24 175/231/34
f 165/228/95 175/227/95 177/232/96 171/233/96
f 173/223/93 163/222/93 171/233/60 177/232/60
f 149/212/29 161/211/29 178/234/97 176/235/97
f 175/231/34 28/24/24 173/229/34 177/236/34
f 161/215/34 169/219/34 180/237/34 178/238/34
f 174/226/60 162/225/60 179/239/98 181/240/98
f 180/237/34 169/219/34 170/220/34 182/241/34
f 170/220/34 172/221/34 183/242/34 182/241/34
f 183/242/34 172/221/34 174/224/34 181/243/34
f 176/235/97 178/234/97 188/244/99 185/245/99
f 185/245/100 188/244/100 190/246/101 184/247/101
f 178/238/34 180/237/34 190/248/34 188/249/34
f 181/240/98 179/239/98 189/250/102 191/251/102
f 184/252/101 190/253/101 192/254/103 186/255/103
f 186/255/103 192/254/103 193/256/104 187/257/104
f 190/248/34 180/237/34 182/241/34 192/258/34
f 187/257/104 193/256/104 191/251/105 189/250/105
f 182/241/34 183/242/34 193/259/34 192/258/34
f 193/259/34 183/242/34 181/243/34 191/260/34
f 154/193/79 145/182/34 151/188/34 19/11/11
f 21/16/16 168/218/91 199/261/106 22/17/17
f 131/262/107 194/263/107 197/264/107 155/265/107
f 132/266/108 131/262/108 155/265/108 154/267/108
f 194/263/109 196/268/109 199/269/109 197/264/109
f 11/5/5 136/173/34 145/182/34 154/193/79
f 196/268/110 10/270/110 22/271/110 199/269/110
f 195/272/111 141/273/111 159/274/111 198/275/111
f 153/276/112 195/272/112 198/275/112 167/277/112
f 199/261/106 168/218/91 15/9/9 9/4/4 197/7/7
f 141/278/113 132/266/113 154/267/113 159/279/113
f 10/270/114 153/276/114 167/277/114 22/271/114
