
v 40.231628 65.243416 -1.157386
v 19.000000 86.475044 -1.157387
v 19.000000 -86.475044 -1.157374
v 40.231632 -65.243408 -1.157376
v -40.809219 -64.665825 -1.157376
v -19.000000 86.475044 -1.157387
v -19.000000 -86.475044 -1.157374
v -40.809223 64.665817 -1.157386
v 6.217478 80.453079 -0.572128
v 6.217478 80.899857 -0.895564
v 6.217478 80.836082 -0.696217
v 6.217478 80.201851 -1.174344
v 6.217478 81.101280 -1.174348
v 6.217478 81.101280 -0.895578
v 6.217478 80.275246 -0.682533
v 5.921413 80.275246 -0.682533
v 5.921412 80.453079 -0.572128
v 6.217478 80.663445 -0.577176
v 6.217478 80.575439 -0.845730
v 5.921412 80.663445 -0.577176
v 6.217478 80.801468 -1.174347
v 6.217478 80.501663 -1.174345
v 5.921412 80.899857 -0.895564
v 5.921412 81.101280 -0.895578
v 5.921412 80.836082 -0.696217
v 5.921413 80.501663 -1.174346
v 5.921414 80.201851 -1.174344
v 5.921412 81.101280 -1.174348
v 5.921413 80.801468 -1.174347
v 5.625346 81.101280 -1.174348
v 5.625348 80.801468 -1.174347
v 5.625349 80.501663 -1.174346
v 5.329283 80.801468 -1.174347
v 5.329285 80.501663 -1.174346
v 5.329287 80.201851 -1.174344
v 5.625350 80.201851 -1.174344
v 5.329283 80.275246 -0.682533
v 5.625347 80.275246 -0.682533
v 5.329282 80.453079 -0.572128
v 5.625347 80.453079 -0.572128
v 5.329281 80.663445 -0.577176
v 5.625346 80.663445 -0.577176
v 5.329281 80.836082 -0.696217
v 5.625346 80.836082 -0.696217
v 5.329281 80.899857 -0.895564
v 5.625346 80.899857 -0.895564
v 5.329281 81.101280 -0.895578
v 5.625346 81.101280 -0.895578
v 5.329281 81.101280 -1.174348
v 5.033215 81.101280 -0.895578
v 5.033216 81.101280 -1.174348
v 5.033218 80.801468 -1.174347
v 4.737150 81.101280 -1.174348
v 4.737152 80.801468 -1.174347
v 4.737154 80.501663 -1.174346
v 5.033220 80.501663 -1.174346
v 4.737159 80.201851 -1.174344
v 5.033222 80.201851 -1.174344
v 4.737153 80.275246 -0.682533
v 5.033218 80.275246 -0.682533
v 4.737151 80.453079 -0.572128
v 5.033216 80.453079 -0.572128
v 4.737151 80.663445 -0.577176
v 5.033216 80.663445 -0.577176
v 4.737150 80.836082 -0.696217
v 5.033216 80.836082 -0.696217
v 4.737150 80.899857 -0.895564
v 5.033215 80.899857 -0.895564
v 4.737150 81.101280 -0.895578
v 4.441083 80.899857 -0.895564
v 4.441083 81.101280 -0.895578
v 4.441084 81.101280 -1.174348
v 4.441083 80.801468 -1.174347
v 4.441086 80.501663 -1.174345
v 4.441094 80.201851 -1.174344
v 4.441087 80.275246 -0.682533
v 4.441085 80.453079 -0.572128
v 4.441084 80.663445 -0.577176
v 4.441083 80.836082 -0.696217
v 32.374386 55.219101 -0.572126
v 32.757393 55.219101 -0.696215
v 32.821163 55.219101 -0.895562
v 32.123158 55.219101 -1.174342
v 33.022587 55.219101 -0.895576
v 33.022587 55.219101 -1.174347
v 32.196552 55.219101 -0.682531
v 32.496887 55.219101 -0.845010
v 32.584751 55.219101 -0.577174
v 32.584751 54.922215 -0.577174
v 32.374386 54.922215 -0.572126
v 32.196552 54.922215 -0.682531
v 32.757393 54.922215 -0.696215
v 32.821163 54.922215 -0.895562
v 32.422966 55.219101 -1.174344
v 32.722778 55.219101 -1.174345
v 33.022587 54.922215 -0.895576
v 32.123158 54.922226 -1.174342
v 32.422966 54.922226 -1.174344
v 33.022587 54.922226 -1.174347
v 32.722778 54.922226 -1.174345
v 32.722778 54.625340 -1.174345
v 33.022587 54.625340 -1.174347
v 32.422966 54.625340 -1.174343
v 32.422966 54.328465 -1.174343
v 32.722778 54.328465 -1.174345
v 32.123158 54.625340 -1.174342
v 32.123158 54.328465 -1.174342
v 32.196552 54.625340 -0.682531
v 32.196552 54.328465 -0.682531
v 32.374386 54.328465 -0.572126
v 33.022587 54.328465 -1.174346
v 33.022587 54.328465 -0.895576
v 33.022587 54.625340 -0.895576
v 32.821163 54.328465 -0.895562
v 32.821163 54.625340 -0.895562
v 32.757393 54.328465 -0.696215
v 32.757393 54.625340 -0.696215
v 32.584751 54.328465 -0.577174
v 32.584751 54.625340 -0.577174
v 32.374386 54.625340 -0.572126
v -6.217478 80.453079 -0.572128
v -6.217478 80.899857 -0.895564
v -6.217478 80.836082 -0.696217
v -6.217478 80.201851 -1.174344
v -6.217478 81.101280 -1.174348
v -6.217478 81.101280 -0.895578
v -6.217478 80.275246 -0.682533
v -5.921413 80.275246 -0.682533
v -5.921412 80.453079 -0.572128
v -6.217478 80.663445 -0.577176
v -6.217478 80.575439 -0.845730
v -5.921412 80.663445 -0.577176
v -6.217478 80.801468 -1.174347
v -6.217478 80.501663 -1.174345
v -5.921412 80.899857 -0.895564
v -5.921412 81.101280 -0.895578
v -5.921412 80.836082 -0.696217
v -5.921413 80.501663 -1.174346
v -5.921414 80.201851 -1.174344
v -5.921412 81.101280 -1.174348
v -5.921413 80.801468 -1.174347
v -5.625346 81.101280 -1.174348
v -5.625348 80.801468 -1.174347
v -5.625349 80.501663 -1.174346
v -5.329283 80.801468 -1.174347
v -5.329285 80.501663 -1.174346
v -5.329287 80.201851 -1.174344
v -5.625350 80.201851 -1.174344
v -5.329283 80.275246 -0.682533
v -5.625347 80.275246 -0.682533
v -5.329282 80.453079 -0.572128
v -5.625347 80.453079 -0.572128
v -5.329281 80.663445 -0.577176
v -5.625346 80.663445 -0.577176
v -5.329281 80.836082 -0.696217
v -5.625346 80.836082 -0.696217
v -5.329281 80.899857 -0.895564
v -5.625346 80.899857 -0.895564
v -5.329281 81.101280 -0.895578
v -5.625346 81.101280 -0.895578
v -5.329281 81.101280 -1.174348
v -5.033215 81.101280 -0.895578
v -5.033216 81.101280 -1.174348
v -5.033218 80.801468 -1.174347
v -4.737150 81.101280 -1.174348
v -4.737152 80.801468 -1.174347
v -4.737154 80.501663 -1.174346
v -5.033220 80.501663 -1.174346
v -4.737159 80.201851 -1.174344
v -5.033222 80.201851 -1.174344
v -4.737153 80.275246 -0.682533
v -5.033218 80.275246 -0.682533
v -4.737151 80.453079 -0.572128
v -5.033216 80.453079 -0.572128
v -4.737151 80.663445 -0.577176
v -5.033216 80.663445 -0.577176
v -4.737150 80.836082 -0.696217
v -5.033216 80.836082 -0.696217
v -4.737150 80.899857 -0.895564
v -5.033215 80.899857 -0.895564
v -4.737150 81.101280 -0.895578
v -4.441083 80.899857 -0.895564
v -4.441083 81.101280 -0.895578
v -4.441084 81.101280 -1.174348
v -4.441083 80.801468 -1.174347
v -4.441086 80.501663 -1.174345
v -4.441094 80.201851 -1.174344
v -4.441087 80.275246 -0.682533
v -4.441085 80.453079 -0.572128
v -4.441084 80.663445 -0.577176
v -4.441083 80.836082 -0.696217
v -32.374386 55.219101 -0.572126
v -32.757393 55.219101 -0.696215
v -32.821163 55.219101 -0.895562
v -32.123158 55.219101 -1.174342
v -33.022587 55.219101 -0.895576
v -33.022587 55.219101 -1.174347
v -32.196552 55.219101 -0.682531
v -32.496887 55.219101 -0.845010
v -32.584751 55.219101 -0.577174
v -32.584751 54.922215 -0.577174
v -32.374386 54.922215 -0.572126
v -32.196552 54.922215 -0.682531
v -32.757393 54.922215 -0.696215
v -32.821163 54.922215 -0.895562
v -32.422966 55.219101 -1.174344
v -32.722778 55.219101 -1.174345
v -33.022587 54.922215 -0.895576
v -32.123158 54.922226 -1.174342
v -32.422966 54.922226 -1.174344
v -33.022587 54.922226 -1.174347
v -32.722778 54.922226 -1.174345
v -32.722778 54.625340 -1.174345
v -33.022587 54.625340 -1.174347
v -32.422966 54.625340 -1.174343
v -32.422966 54.328465 -1.174343
v -32.722778 54.328465 -1.174345
v -32.123158 54.625340 -1.174342
v -32.123158 54.328465 -1.174342
v -32.196552 54.625340 -0.682531
v -32.196552 54.328465 -0.682531
v -32.374386 54.328465 -0.572126
v -33.022587 54.328465 -1.174346
v -33.022587 54.328465 -0.895576
v -33.022587 54.625340 -0.895576
v -32.821163 54.328465 -0.895562
v -32.821163 54.625340 -0.895562
v -32.757393 54.328465 -0.696215
v -32.757393 54.625340 -0.696215
v -32.584751 54.328465 -0.577174
v -32.584751 54.625340 -0.577174
v -32.374386 54.625340 -0.572126
v 6.217478 -80.453079 -0.572116
v 6.217478 -80.899857 -0.895552
v 6.217478 -80.836082 -0.696205
v 6.217478 -80.201851 -1.174332
v 6.217478 -81.101280 -1.174336
v 6.217478 -81.101280 -0.895566
v 6.217478 -80.275246 -0.682521
v 5.921413 -80.275246 -0.682521
v 5.921412 -80.453079 -0.572116
v 6.217478 -80.663445 -0.577164
v 6.217478 -80.575439 -0.845718
v 5.921412 -80.663445 -0.577164
v 6.217478 -80.801468 -1.174335
v 6.217478 -80.501663 -1.174333
v 5.921412 -80.899857 -0.895552
v 5.921412 -81.101280 -0.895566
v 5.921412 -80.836082 -0.696205
v 5.921413 -80.501663 -1.174333
v 5.921414 -80.201851 -1.174332
v 5.921412 -81.101280 -1.174336
v 5.921413 -80.801468 -1.174335
v 5.625346 -81.101280 -1.174336
v 5.625348 -80.801468 -1.174335
v 5.625349 -80.501663 -1.174333
v 5.329283 -80.801468 -1.174335
v 5.329285 -80.501663 -1.174334
v 5.329287 -80.201851 -1.174332
v 5.625350 -80.201851 -1.174332
v 5.329283 -80.275246 -0.682521
v 5.625347 -80.275246 -0.682521
v 5.329282 -80.453079 -0.572116
v 5.625347 -80.453079 -0.572116
v 5.329281 -80.663445 -0.577164
v 5.625346 -80.663445 -0.577164
v 5.329281 -80.836082 -0.696205
v 5.625346 -80.836082 -0.696205
v 5.329281 -80.899857 -0.895552
v 5.625346 -80.899857 -0.895552
v 5.329281 -81.101280 -0.895566
v 5.625346 -81.101280 -0.895566
v 5.329281 -81.101280 -1.174336
v 5.033215 -81.101280 -0.895566
v 5.033216 -81.101280 -1.174336
v 5.033218 -80.801468 -1.174335
v 4.737150 -81.101280 -1.174336
v 4.737152 -80.801468 -1.174335
v 4.737154 -80.501663 -1.174333
v 5.033220 -80.501663 -1.174334
v 4.737159 -80.201851 -1.174332
v 5.033222 -80.201851 -1.174332
v 4.737153 -80.275246 -0.682521
v 5.033218 -80.275246 -0.682521
v 4.737151 -80.453079 -0.572116
v 5.033216 -80.453079 -0.572116
v 4.737151 -80.663445 -0.577164
v 5.033216 -80.663445 -0.577164
v 4.737150 -80.836082 -0.696205
v 5.033216 -80.836082 -0.696205
v 4.737150 -80.899857 -0.895552
v 5.033215 -80.899857 -0.895552
v 4.737150 -81.101280 -0.895566
v 4.441083 -80.899857 -0.895552
v 4.441083 -81.101280 -0.895566
v 4.441084 -81.101280 -1.174336
v 4.441083 -80.801468 -1.174335
v 4.441086 -80.501663 -1.174333
v 4.441094 -80.201851 -1.174332
v 4.441087 -80.275246 -0.682521
v 4.441085 -80.453079 -0.572116
v 4.441084 -80.663445 -0.577164
v 4.441083 -80.836082 -0.696205
v 32.374386 -55.219101 -0.572118
v 32.757393 -55.219101 -0.696207
v 32.821163 -55.219101 -0.895554
v 32.123158 -55.219101 -1.174334
v 33.022587 -55.219101 -0.895568
v 33.022587 -55.219101 -1.174338
v 32.196552 -55.219101 -0.682523
v 32.496887 -55.219101 -0.845002
v 32.584751 -55.219101 -0.577166
v 32.584751 -54.922215 -0.577166
v 32.374386 -54.922215 -0.572118
v 32.196552 -54.922215 -0.682523
v 32.757393 -54.922215 -0.696207
v 32.821163 -54.922215 -0.895554
v 32.422966 -55.219101 -1.174335
v 32.722778 -55.219101 -1.174337
v 33.022587 -54.922215 -0.895568
v 32.123158 -54.922226 -1.174334
v 32.422966 -54.922226 -1.174335
v 33.022587 -54.922226 -1.174338
v 32.722778 -54.922226 -1.174337
v 32.722778 -54.625340 -1.174337
v 33.022587 -54.625340 -1.174338
v 32.422966 -54.625340 -1.174335
v 32.422966 -54.328465 -1.174335
v 32.722778 -54.328465 -1.174337
v 32.123158 -54.625340 -1.174334
v 32.123158 -54.328465 -1.174334
v 32.196552 -54.625340 -0.682523
v 32.196552 -54.328465 -0.682523
v 32.374386 -54.328465 -0.572118
v 33.022587 -54.328465 -1.174338
v 33.022587 -54.328465 -0.895568
v 33.022587 -54.625340 -0.895568
v 32.821163 -54.328465 -0.895554
v 32.821163 -54.625340 -0.895554
v 32.757393 -54.328465 -0.696207
v 32.757393 -54.625340 -0.696207
v 32.584751 -54.328465 -0.577166
v 32.584751 -54.625340 -0.577166
v 32.374386 -54.625340 -0.572118
v -6.217478 -80.453079 -0.572116
v -6.217478 -80.899857 -0.895552
v -6.217478 -80.836082 -0.696205
v -6.217478 -80.201851 -1.174332
v -6.217478 -81.101280 -1.174336
v -6.217478 -81.101280 -0.895566
v -6.217478 -80.275246 -0.682521
v -5.921413 -80.275246 -0.682521
v -5.921412 -80.453079 -0.572116
v -6.217478 -80.663445 -0.577164
v -6.217478 -80.575439 -0.845718
v -5.921412 -80.663445 -0.577164
v -6.217478 -80.801468 -1.174335
v -6.217478 -80.501663 -1.174333
v -5.921412 -80.899857 -0.895552
v -5.921412 -81.101280 -0.895566
v -5.921412 -80.836082 -0.696205
v -5.921413 -80.501663 -1.174333
v -5.921414 -80.201851 -1.174332
v -5.921412 -81.101280 -1.174336
v -5.921413 -80.801468 -1.174335
v -5.625346 -81.101280 -1.174336
v -5.625348 -80.801468 -1.174335
v -5.625349 -80.501663 -1.174333
v -5.329283 -80.801468 -1.174335
v -5.329285 -80.501663 -1.174334
v -5.329287 -80.201851 -1.174332
v -5.625350 -80.201851 -1.174332
v -5.329283 -80.275246 -0.682521
v -5.625347 -80.275246 -0.682521
v -5.329282 -80.453079 -0.572116
v -5.625347 -80.453079 -0.572116
v -5.329281 -80.663445 -0.577164
v -5.625346 -80.663445 -0.577164
v -5.329281 -80.836082 -0.696205
v -5.625346 -80.836082 -0.696205
v -5.329281 -80.899857 -0.895552
v -5.625346 -80.899857 -0.895552
v -5.329281 -81.101280 -0.895566
v -5.625346 -81.101280 -0.895566
v -5.329281 -81.101280 -1.174336
v -5.033215 -81.101280 -0.895566
v -5.033216 -81.101280 -1.174336
v -5.033218 -80.801468 -1.174335
v -4.737150 -81.101280 -1.174336
v -4.737152 -80.801468 -1.174335
v -4.737154 -80.501663 -1.174333
v -5.033220 -80.501663 -1.174334
v -4.737159 -80.201851 -1.174332
v -5.033222 -80.201851 -1.174332
v -4.737153 -80.275246 -0.682521
v -5.033218 -80.275246 -0.682521
v -4.737151 -80.453079 -0.572116
v -5.033216 -80.453079 -0.572116
v -4.737151 -80.663445 -0.577164
v -5.033216 -80.663445 -0.577164
v -4.737150 -80.836082 -0.696205
v -5.033216 -80.836082 -0.696205
v -4.737150 -80.899857 -0.895552
v -5.033215 -80.899857 -0.895552
v -4.737150 -81.101280 -0.895566
v -4.441083 -80.899857 -0.895552
v -4.441083 -81.101280 -0.895566
v -4.441084 -81.101280 -1.174336
v -4.441083 -80.801468 -1.174335
v -4.441086 -80.501663 -1.174333
v -4.441094 -80.201851 -1.174332
v -4.441087 -80.275246 -0.682521
v -4.441085 -80.453079 -0.572116
v -4.441084 -80.663445 -0.577164
v -4.441083 -80.836082 -0.696205
v -32.374386 -55.219101 -0.572118
v -32.757393 -55.219101 -0.696207
v -32.821163 -55.219101 -0.895554
v -32.123158 -55.219101 -1.174334
v -33.022587 -55.219101 -0.895568
v -33.022587 -55.219101 -1.174338
v -32.196552 -55.219101 -0.682523
v -32.496887 -55.219101 -0.845002
v -32.584751 -55.219101 -0.577166
v -32.584751 -54.922215 -0.577166
v -32.374386 -54.922215 -0.572118
v -32.196552 -54.922215 -0.682523
v -32.757393 -54.922215 -0.696207
v -32.821163 -54.922215 -0.895554
v -32.422966 -55.219101 -1.174335
v -32.722778 -55.219101 -1.174337
v -33.022587 -54.922215 -0.895568
v -32.123158 -54.922226 -1.174334
v -32.422966 -54.922226 -1.174335
v -33.022587 -54.922226 -1.174338
v -32.722778 -54.922226 -1.174337
v -32.722778 -54.625340 -1.174337
v -33.022587 -54.625340 -1.174338
v -32.422966 -54.625340 -1.174335
v -32.422966 -54.328465 -1.174335
v -32.722778 -54.328465 -1.174337
v -32.123158 -54.625340 -1.174334
v -32.123158 -54.328465 -1.174334
v -32.196552 -54.625340 -0.682523
v -32.196552 -54.328465 -0.682523
v -32.374386 -54.328465 -0.572118
v -33.022587 -54.328465 -1.174338
v -33.022587 -54.328465 -0.895568
v -33.022587 -54.625340 -0.895568
v -32.821163 -54.328465 -0.895554
v -32.821163 -54.625340 -0.895554
v -32.757393 -54.328465 -0.696207
v -32.757393 -54.625340 -0.696207
v -32.584751 -54.328465 -0.577166
v -32.584751 -54.625340 -0.577166
v -32.374386 -54.625340 -0.572118
vn -0.0000 -0.0000 1.0000
vn -0.0000 -0.2627 0.9649
vn -0.0000 -0.5275 0.8496
vn 1.0000 -0.0000 -0.0000
vn -0.0000 0.3087 0.9512
vn -0.0000 0.0001 1.0000
vn -0.0000 0.9524 0.3047
vn -0.0000 0.8031 0.5959
vn -0.0000 0.9525 0.3047
vn -0.0000 -0.0000 -1.0000
vn -0.0000 -0.9890 0.1476
vn -0.0000 1.0000 -0.0000
vn -0.0000 -0.5274 0.8496
vn -0.2627 -0.0000 0.9649
vn 0.3087 -0.0000 0.9512
vn -0.5275 -0.0000 0.8496
vn 0.8031 -0.0000 0.5959
vn 0.9525 -0.0000 0.3047
vn 0.0001 -0.0000 1.0000
vn -0.9890 -0.0000 0.1476
vn -1.0000 -0.0000 -0.0000
vn -0.3087 -0.0000 0.9512
vn 0.2627 -0.0000 0.9649
vn 0.5275 -0.0000 0.8496
vn -0.8031 -0.0000 0.5959
vn -0.9525 -0.0000 0.3047
vn -0.0001 -0.0000 1.0000
vn 0.9890 -0.0000 0.1476
vn -0.0000 0.5275 0.8496
vn -0.0000 0.2627 0.9649
vn -0.0000 -0.3087 0.9512
vn -0.0000 -0.0001 1.0000
vn -0.0000 -0.8031 0.5959
vn -0.0000 -0.9524 0.3047
vn -0.0000 -0.9525 0.3047
vn -0.0000 0.9890 0.1476
vn -0.0000 -1.0000 -0.0000
vn -0.0000 0.5274 0.8496
vt 0.009952 0.628678
vt 0.009952 0.368985
vt 0.053744 0.325193
vt 0.130047 0.325193
vt 0.172679 0.367825
vt 0.172679 0.629838
vt 0.130047 0.672470
vt 0.053744 0.672470
vt -1.016133 1.595610
vt -1.016133 1.590233
vt -1.007182 1.590233
vt -1.007182 1.595610
vt -1.007182 1.599310
vt -1.007182 1.601970
vt -1.016133 1.601970
vt -1.007182 1.607190
vt -1.007182 1.609118
vt -1.007182 1.597079
vt -1.007182 1.606143
vt -1.007182 1.615208
vt -1.016133 1.615208
vt -1.016133 1.609118
vt -1.016133 1.607190
vt -1.007182 1.588014
vt -1.016133 1.588014
vt -1.016133 1.597079
vt -1.016133 1.606143
vt -1.025085 1.606143
vt -1.025085 1.615208
vt -1.025085 1.597079
vt -1.034036 1.597079
vt -1.034036 1.606143
vt -1.025084 1.588014
vt -1.034036 1.588014
vt -1.025085 1.590233
vt -1.034036 1.590233
vt -1.025085 1.595610
vt -1.034036 1.595610
vt -1.025085 1.601970
vt -1.034036 1.601970
vt -1.025085 1.607190
vt -1.034036 1.607190
vt -1.025085 1.609118
vt -1.034036 1.609118
vt -1.034036 1.615208
vt -1.042987 1.615208
vt -1.042987 1.606143
vt -1.051939 1.606143
vt -1.051939 1.615208
vt -1.042987 1.597079
vt -1.051939 1.597079
vt -1.042987 1.588014
vt -1.051939 1.588014
vt -1.042987 1.590233
vt -1.051939 1.590233
vt -1.042987 1.595610
vt -1.051939 1.595610
vt -1.042987 1.601970
vt -1.051939 1.601970
vt -1.042987 1.607190
vt -1.051939 1.607190
vt -1.042987 1.609118
vt -1.051939 1.609118
vt -1.060890 1.615208
vt -1.060890 1.609118
vt -1.060890 1.606143
vt -1.060890 1.597079
vt -1.060890 1.588014
vt -1.060890 1.590233
vt -1.060890 1.595610
vt -1.060890 1.601970
vt -1.060890 1.607190
vt 0.168374 0.047303
vt 0.166151 0.047303
vt 0.158552 0.047303
vt 0.163051 0.047303
vt 0.163051 0.039792
vt 0.168374 0.039792
vt 0.158552 0.039792
vt 0.174355 0.047303
vt 0.172742 0.047303
vt 0.172742 0.039792
vt 0.174355 0.039792
vt 0.171866 0.047303
vt 0.164280 0.047303
vt 0.179451 0.047303
vt 0.179451 0.039792
vt 0.156695 0.039792
vt 0.156695 0.047303
vt 0.164280 0.039792
vt 0.179451 0.039792
vt 0.171866 0.039792
vt 0.179451 0.032281
vt 0.171866 0.032281
vt 0.164280 0.032281
vt 0.171866 0.024770
vt 0.164280 0.024770
vt 0.156695 0.032281
vt 0.156695 0.024770
vt 0.158552 0.024770
vt 0.158552 0.032281
vt 0.179451 0.024770
vt 0.174355 0.032281
vt 0.174355 0.024770
vt 0.172742 0.032281
vt 0.172742 0.024770
vt 0.168374 0.032281
vt 0.168374 0.024770
vt 0.163051 0.032281
vt 0.163051 0.024770
s 1
usemtl Mat
f 8/1/1 5/2/1 7/3/1 3/4/1 4/5/1 1/6/1 2/7/1 6/8/1
f 17/9/2 16/10/3 15/11/3 9/12/2
f 15/11/4 19/13/4 18/14/4 9/12/4
f 18/14/5 20/15/5 17/9/2 9/12/2
f 11/16/4 18/14/4 19/13/4 10/17/4
f 19/13/4 22/18/4 21/19/4 10/17/4
f 21/19/4 13/20/4 14/20/4 10/17/4
f 14/20/6 24/21/6 23/22/6 10/17/6
f 23/22/7 25/23/8 11/16/8 10/17/9
f 25/23/8 20/15/5 18/14/5 11/16/8
f 22/18/4 19/13/4 15/11/4 12/24/4
f 27/25/10 26/26/10 22/18/10 12/24/10
f 15/11/11 16/10/11 27/25/11 12/24/11
f 28/21/12 24/21/12 14/20/12 13/20/12
f 21/19/10 29/27/10 28/21/10 13/20/10
f 31/28/10 30/29/10 28/21/10 29/27/10
f 26/26/10 32/30/10 31/28/10 29/27/10
f 21/19/10 22/18/10 26/26/10 29/27/10
f 34/31/10 33/32/10 31/28/10 32/30/10
f 36/33/10 35/34/10 34/31/10 32/30/10
f 26/26/10 27/25/10 36/33/10 32/30/10
f 38/35/11 37/36/11 35/34/11 36/33/11
f 27/25/11 16/10/11 38/35/11 36/33/11
f 40/37/2 39/38/2 37/36/13 38/35/13
f 16/10/3 17/9/2 40/37/2 38/35/13
f 42/39/5 41/40/5 39/38/2 40/37/2
f 17/9/2 20/15/5 42/39/5 40/37/2
f 44/41/8 43/42/8 41/40/5 42/39/5
f 20/15/5 25/23/8 44/41/8 42/39/5
f 46/43/7 45/44/9 43/42/8 44/41/8
f 25/23/8 23/22/7 46/43/7 44/41/8
f 48/29/6 47/45/6 45/44/6 46/43/6
f 23/22/6 24/21/6 48/29/6 46/43/6
f 30/29/12 49/45/12 47/45/12 48/29/12
f 24/21/12 28/21/12 30/29/12 48/29/12
f 51/46/12 50/46/12 47/45/12 49/45/12
f 33/32/10 52/47/10 51/46/10 49/45/10
f 30/29/10 31/28/10 33/32/10 49/45/10
f 54/48/10 53/49/10 51/46/10 52/47/10
f 56/50/10 55/51/10 54/48/10 52/47/10
f 33/32/10 34/31/10 56/50/10 52/47/10
f 58/52/10 57/53/10 55/51/10 56/50/10
f 34/31/10 35/34/10 58/52/10 56/50/10
f 60/54/11 59/55/11 57/53/11 58/52/11
f 35/34/11 37/36/11 60/54/11 58/52/11
f 62/56/2 61/57/2 59/55/3 60/54/3
f 37/36/13 39/38/2 62/56/2 60/54/3
f 64/58/5 63/59/5 61/57/2 62/56/2
f 39/38/2 41/40/5 64/58/5 62/56/2
f 66/60/8 65/61/8 63/59/5 64/58/5
f 41/40/5 43/42/8 66/60/8 64/58/5
f 68/62/9 67/63/7 65/61/8 66/60/8
f 43/42/8 45/44/9 68/62/9 66/60/8
f 50/46/6 69/49/6 67/63/6 68/62/6
f 45/44/6 47/45/6 50/46/6 68/62/6
f 71/64/6 70/65/6 67/63/6 69/49/6
f 53/49/12 72/64/12 71/64/12 69/49/12
f 50/46/12 51/46/12 53/49/12 69/49/12
f 53/49/10 54/48/10 73/66/10 72/64/10
f 54/48/10 55/51/10 74/67/10 73/66/10
f 55/51/10 57/53/10 75/68/10 74/67/10
f 57/53/11 59/55/11 76/69/11 75/68/11
f 59/55/3 61/57/2 77/70/2 76/69/3
f 61/57/2 63/59/5 78/71/5 77/70/2
f 63/59/5 65/61/8 79/72/8 78/71/5
f 65/61/8 67/63/7 70/65/7 79/72/8
f 88/73/12 87/74/12 86/75/12 80/76/12
f 90/77/14 89/78/15 88/73/15 80/76/14
f 86/75/16 91/79/16 90/77/14 80/76/14
f 82/80/12 87/74/12 88/73/12 81/81/12
f 88/73/15 89/78/15 92/82/17 81/81/17
f 92/82/17 93/83/18 82/80/18 81/81/17
f 95/84/12 94/85/12 87/74/12 82/80/12
f 84/86/12 85/86/12 95/84/12 82/80/12
f 93/83/19 96/87/19 84/86/19 82/80/19
f 97/88/20 91/79/20 86/75/20 83/89/20
f 86/75/12 87/74/12 94/85/12 83/89/12
f 94/85/10 98/90/10 97/88/10 83/89/10
f 96/87/4 99/91/4 85/86/4 84/86/4
f 99/91/10 100/92/10 95/84/10 85/86/10
f 99/91/10 102/93/10 101/94/10 100/92/10
f 98/90/10 94/85/10 95/84/10 100/92/10
f 101/94/10 103/95/10 98/90/10 100/92/10
f 101/94/10 105/96/10 104/97/10 103/95/10
f 106/98/10 97/88/10 98/90/10 103/95/10
f 104/97/10 107/99/10 106/98/10 103/95/10
f 109/100/20 108/101/20 106/98/20 107/99/20
f 102/93/4 113/93/4 112/102/4 111/102/4
f 105/96/10 101/94/10 102/93/10 111/102/10
f 115/103/19 114/104/19 112/102/19 113/93/19
f 96/87/19 93/83/19 115/103/19 113/93/19
f 102/93/4 99/91/4 96/87/4 113/93/4
f 117/105/17 116/106/17 114/104/18 115/103/18
f 93/83/18 92/82/17 117/105/17 115/103/18
f 119/107/15 118/108/15 116/106/17 117/105/17
f 92/82/17 89/78/15 119/107/15 117/105/17
f 120/109/14 110/110/14 118/108/15 119/107/15
f 89/78/15 90/77/14 120/109/14 119/107/15
f 108/101/16 109/100/16 110/110/14 120/109/14
f 90/77/14 91/79/16 108/101/16 120/109/14
f 91/79/20 97/88/20 106/98/20 108/101/20
f 127/11/3 128/10/3 129/9/2 121/12/2
f 130/14/21 131/13/21 127/11/21 121/12/21
f 129/9/2 132/15/5 130/14/5 121/12/2
f 131/13/21 130/14/21 123/16/21 122/17/21
f 133/19/21 134/18/21 131/13/21 122/17/21
f 126/20/21 125/20/21 133/19/21 122/17/21
f 135/22/6 136/21/6 126/20/6 122/17/6
f 123/16/8 137/23/8 135/22/7 122/17/9
f 130/14/5 132/15/5 137/23/8 123/16/8
f 127/11/21 131/13/21 134/18/21 124/24/21
f 134/18/10 138/26/10 139/25/10 124/24/10
f 139/25/11 128/10/11 127/11/11 124/24/11
f 126/20/12 136/21/12 140/21/12 125/20/12
f 140/21/10 141/27/10 133/19/10 125/20/10
f 140/21/10 142/29/10 143/28/10 141/27/10
f 143/28/10 144/30/10 138/26/10 141/27/10
f 138/26/10 134/18/10 133/19/10 141/27/10
f 143/28/10 145/32/10 146/31/10 144/30/10
f 146/31/10 147/34/10 148/33/10 144/30/10
f 148/33/10 139/25/10 138/26/10 144/30/10
f 147/34/11 149/36/11 150/35/11 148/33/11
f 150/35/11 128/10/11 139/25/11 148/33/11
f 149/36/13 151/38/2 152/37/2 150/35/13
f 152/37/2 129/9/2 128/10/3 150/35/13
f 151/38/2 153/40/5 154/39/5 152/37/2
f 154/39/5 132/15/5 129/9/2 152/37/2
f 153/40/5 155/42/8 156/41/8 154/39/5
f 156/41/8 137/23/8 132/15/5 154/39/5
f 155/42/8 157/44/7 158/43/7 156/41/8
f 158/43/7 135/22/7 137/23/8 156/41/8
f 157/44/6 159/45/6 160/29/6 158/43/6
f 160/29/6 136/21/6 135/22/6 158/43/6
f 159/45/12 161/45/12 142/29/12 160/29/12
f 142/29/12 140/21/12 136/21/12 160/29/12
f 159/45/12 162/46/12 163/46/12 161/45/12
f 163/46/10 164/47/10 145/32/10 161/45/10
f 145/32/10 143/28/10 142/29/10 161/45/10
f 163/46/10 165/49/10 166/48/10 164/47/10
f 166/48/10 167/51/10 168/50/10 164/47/10
f 168/50/10 146/31/10 145/32/10 164/47/10
f 167/51/10 169/53/10 170/52/10 168/50/10
f 170/52/10 147/34/10 146/31/10 168/50/10
f 169/53/11 171/55/11 172/54/11 170/52/11
f 172/54/11 149/36/11 147/34/11 170/52/11
f 171/55/13 173/57/2 174/56/2 172/54/13
f 174/56/2 151/38/2 149/36/13 172/54/13
f 173/57/2 175/59/5 176/58/5 174/56/2
f 176/58/5 153/40/5 151/38/2 174/56/2
f 175/59/5 177/61/8 178/60/8 176/58/5
f 178/60/8 155/42/8 153/40/5 176/58/5
f 177/61/8 179/63/7 180/62/7 178/60/8
f 180/62/7 157/44/7 155/42/8 178/60/8
f 179/63/6 181/49/6 162/46/6 180/62/6
f 162/46/6 159/45/6 157/44/6 180/62/6
f 179/63/6 182/65/6 183/64/6 181/49/6
f 183/64/12 184/64/12 165/49/12 181/49/12
f 165/49/12 163/46/12 162/46/12 181/49/12
f 185/66/10 166/48/10 165/49/10 184/64/10
f 186/67/10 167/51/10 166/48/10 185/66/10
f 187/68/10 169/53/10 167/51/10 186/67/10
f 188/69/11 171/55/11 169/53/11 187/68/11
f 189/70/2 173/57/2 171/55/13 188/69/3
f 190/71/5 175/59/5 173/57/2 189/70/2
f 191/72/8 177/61/8 175/59/5 190/71/5
f 182/65/7 179/63/7 177/61/8 191/72/8
f 198/75/12 199/74/12 200/73/12 192/76/12
f 200/73/22 201/78/22 202/77/23 192/76/23
f 202/77/23 203/79/24 198/75/24 192/76/23
f 200/73/12 199/74/12 194/80/12 193/81/12
f 204/82/25 201/78/22 200/73/22 193/81/25
f 194/80/26 205/83/26 204/82/25 193/81/25
f 199/74/12 206/85/12 207/84/12 194/80/12
f 207/84/12 197/86/12 196/86/12 194/80/12
f 196/86/27 208/87/27 205/83/27 194/80/27
f 198/75/28 203/79/28 209/88/28 195/89/28
f 206/85/12 199/74/12 198/75/12 195/89/12
f 209/88/10 210/90/10 206/85/10 195/89/10
f 197/86/21 211/91/21 208/87/21 196/86/21
f 207/84/10 212/92/10 211/91/10 197/86/10
f 213/94/10 214/93/10 211/91/10 212/92/10
f 207/84/10 206/85/10 210/90/10 212/92/10
f 210/90/10 215/95/10 213/94/10 212/92/10
f 216/97/10 217/96/10 213/94/10 215/95/10
f 210/90/10 209/88/10 218/98/10 215/95/10
f 218/98/10 219/99/10 216/97/10 215/95/10
f 218/98/28 220/101/28 221/100/28 219/99/28
f 224/102/21 225/93/21 214/93/21 223/102/21
f 214/93/10 213/94/10 217/96/10 223/102/10
f 224/102/27 226/104/27 227/103/27 225/93/27
f 227/103/27 205/83/27 208/87/27 225/93/27
f 208/87/21 211/91/21 214/93/21 225/93/21
f 226/104/26 228/106/25 229/105/25 227/103/26
f 229/105/25 204/82/25 205/83/26 227/103/26
f 228/106/25 230/108/22 231/107/22 229/105/25
f 231/107/22 201/78/22 204/82/25 229/105/25
f 230/108/22 222/110/23 232/109/23 231/107/22
f 232/109/23 202/77/23 201/78/22 231/107/22
f 222/110/23 221/100/24 220/101/24 232/109/23
f 220/101/24 203/79/24 202/77/23 232/109/23
f 218/98/28 209/88/28 203/79/28 220/101/28
f 239/11/29 240/10/29 241/9/30 233/12/30
f 242/14/4 243/13/4 239/11/4 233/12/4
f 241/9/30 244/15/31 242/14/31 233/12/30
f 243/13/4 242/14/4 235/16/4 234/17/4
f 245/19/4 246/18/4 243/13/4 234/17/4
f 238/20/4 237/20/4 245/19/4 234/17/4
f 247/22/32 248/21/32 238/20/32 234/17/32
f 235/16/33 249/23/33 247/22/34 234/17/35
f 242/14/31 244/15/31 249/23/33 235/16/33
f 239/11/4 243/13/4 246/18/4 236/24/4
f 246/18/10 250/26/10 251/25/10 236/24/10
f 251/25/36 240/10/36 239/11/36 236/24/36
f 238/20/37 248/21/37 252/21/37 237/20/37
f 252/21/10 253/27/10 245/19/10 237/20/10
f 252/21/10 254/29/10 255/28/10 253/27/10
f 255/28/10 256/30/10 250/26/10 253/27/10
f 250/26/10 246/18/10 245/19/10 253/27/10
f 255/28/10 257/32/10 258/31/10 256/30/10
f 258/31/10 259/34/10 260/33/10 256/30/10
f 260/33/10 251/25/10 250/26/10 256/30/10
f 259/34/36 261/36/36 262/35/36 260/33/36
f 262/35/36 240/10/36 251/25/36 260/33/36
f 261/36/38 263/38/30 264/37/30 262/35/38
f 264/37/30 241/9/30 240/10/29 262/35/38
f 263/38/30 265/40/31 266/39/31 264/37/30
f 266/39/31 244/15/31 241/9/30 264/37/30
f 265/40/31 267/42/33 268/41/33 266/39/31
f 268/41/33 249/23/33 244/15/31 266/39/31
f 267/42/33 269/44/34 270/43/34 268/41/33
f 270/43/34 247/22/34 249/23/33 268/41/33
f 269/44/32 271/45/32 272/29/32 270/43/32
f 272/29/32 248/21/32 247/22/32 270/43/32
f 271/45/37 273/45/37 254/29/37 272/29/37
f 254/29/37 252/21/37 248/21/37 272/29/37
f 271/45/37 274/46/37 275/46/37 273/45/37
f 275/46/10 276/47/10 257/32/10 273/45/10
f 257/32/10 255/28/10 254/29/10 273/45/10
f 275/46/10 277/49/10 278/48/10 276/47/10
f 278/48/10 279/51/10 280/50/10 276/47/10
f 280/50/10 258/31/10 257/32/10 276/47/10
f 279/51/10 281/53/10 282/52/10 280/50/10
f 282/52/10 259/34/10 258/31/10 280/50/10
f 281/53/36 283/55/36 284/54/36 282/52/36
f 284/54/36 261/36/36 259/34/36 282/52/36
f 283/55/38 285/57/30 286/56/30 284/54/38
f 286/56/30 263/38/30 261/36/38 284/54/38
f 285/57/30 287/59/31 288/58/31 286/56/30
f 288/58/31 265/40/31 263/38/30 286/56/30
f 287/59/31 289/61/33 290/60/33 288/58/31
f 290/60/33 267/42/33 265/40/31 288/58/31
f 289/61/33 291/63/34 292/62/34 290/60/33
f 292/62/34 269/44/34 267/42/33 290/60/33
f 291/63/32 293/49/32 274/46/32 292/62/32
f 274/46/32 271/45/32 269/44/32 292/62/32
f 291/63/32 294/65/32 295/64/32 293/49/32
f 295/64/37 296/64/37 277/49/37 293/49/37
f 277/49/37 275/46/37 274/46/37 293/49/37
f 297/66/10 278/48/10 277/49/10 296/64/10
f 298/67/10 279/51/10 278/48/10 297/66/10
f 299/68/10 281/53/10 279/51/10 298/67/10
f 300/69/36 283/55/36 281/53/36 299/68/36
f 301/70/30 285/57/30 283/55/38 300/69/29
f 302/71/31 287/59/31 285/57/30 301/70/30
f 303/72/33 289/61/33 287/59/31 302/71/31
f 294/65/34 291/63/34 289/61/33 303/72/33
f 310/75/37 311/74/37 312/73/37 304/76/37
f 312/73/15 313/78/15 314/77/14 304/76/14
f 314/77/14 315/79/16 310/75/16 304/76/14
f 312/73/37 311/74/37 306/80/37 305/81/37
f 316/82/17 313/78/15 312/73/15 305/81/17
f 306/80/18 317/83/18 316/82/17 305/81/17
f 311/74/37 318/85/37 319/84/37 306/80/37
f 319/84/37 309/86/37 308/86/37 306/80/37
f 308/86/19 320/87/19 317/83/19 306/80/19
f 310/75/20 315/79/20 321/88/20 307/89/20
f 318/85/37 311/74/37 310/75/37 307/89/37
f 321/88/10 322/90/10 318/85/10 307/89/10
f 309/86/4 323/91/4 320/87/4 308/86/4
f 319/84/10 324/92/10 323/91/10 309/86/10
f 325/94/10 326/93/10 323/91/10 324/92/10
f 319/84/10 318/85/10 322/90/10 324/92/10
f 322/90/10 327/95/10 325/94/10 324/92/10
f 328/97/10 329/96/10 325/94/10 327/95/10
f 322/90/10 321/88/10 330/98/10 327/95/10
f 330/98/10 331/99/10 328/97/10 327/95/10
f 330/98/20 332/101/20 333/100/20 331/99/20
f 336/102/4 337/93/4 326/93/4 335/102/4
f 326/93/10 325/94/10 329/96/10 335/102/10
f 336/102/19 338/104/19 339/103/19 337/93/19
f 339/103/19 317/83/19 320/87/19 337/93/19
f 320/87/4 323/91/4 326/93/4 337/93/4
f 338/104/18 340/106/17 341/105/17 339/103/18
f 341/105/17 316/82/17 317/83/18 339/103/18
f 340/106/17 342/108/15 343/107/15 341/105/17
f 343/107/15 313/78/15 316/82/17 341/105/17
f 342/108/15 334/110/14 344/109/14 343/107/15
f 344/109/14 314/77/14 313/78/15 343/107/15
f 334/110/14 333/100/16 332/101/16 344/109/14
f 332/101/16 315/79/16 314/77/14 344/109/14
f 330/98/20 321/88/20 315/79/20 332/101/20
f 353/9/30 352/10/29 351/11/29 345/12/30
f 351/11/21 355/13/21 354/14/21 345/12/21
f 354/14/31 356/15/31 353/9/30 345/12/30
f 347/16/21 354/14/21 355/13/21 346/17/21
f 355/13/21 358/18/21 357/19/21 346/17/21
f 357/19/21 349/20/21 350/20/21 346/17/21
f 350/20/32 360/21/32 359/22/32 346/17/32
f 359/22/34 361/23/33 347/16/33 346/17/35
f 361/23/33 356/15/31 354/14/31 347/16/33
f 358/18/21 355/13/21 351/11/21 348/24/21
f 363/25/10 362/26/10 358/18/10 348/24/10
f 351/11/36 352/10/36 363/25/36 348/24/36
f 364/21/37 360/21/37 350/20/37 349/20/37
f 357/19/10 365/27/10 364/21/10 349/20/10
f 367/28/10 366/29/10 364/21/10 365/27/10
f 362/26/10 368/30/10 367/28/10 365/27/10
f 357/19/10 358/18/10 362/26/10 365/27/10
f 370/31/10 369/32/10 367/28/10 368/30/10
f 372/33/10 371/34/10 370/31/10 368/30/10
f 362/26/10 363/25/10 372/33/10 368/30/10
f 374/35/36 373/36/36 371/34/36 372/33/36
f 363/25/36 352/10/36 374/35/36 372/33/36
f 376/37/30 375/38/30 373/36/38 374/35/38
f 352/10/29 353/9/30 376/37/30 374/35/38
f 378/39/31 377/40/31 375/38/30 376/37/30
f 353/9/30 356/15/31 378/39/31 376/37/30
f 380/41/33 379/42/33 377/40/31 378/39/31
f 356/15/31 361/23/33 380/41/33 378/39/31
f 382/43/34 381/44/35 379/42/33 380/41/33
f 361/23/33 359/22/34 382/43/34 380/41/33
f 384/29/32 383/45/32 381/44/32 382/43/32
f 359/22/32 360/21/32 384/29/32 382/43/32
f 366/29/37 385/45/37 383/45/37 384/29/37
f 360/21/37 364/21/37 366/29/37 384/29/37
f 387/46/37 386/46/37 383/45/37 385/45/37
f 369/32/10 388/47/10 387/46/10 385/45/10
f 366/29/10 367/28/10 369/32/10 385/45/10
f 390/48/10 389/49/10 387/46/10 388/47/10
f 392/50/10 391/51/10 390/48/10 388/47/10
f 369/32/10 370/31/10 392/50/10 388/47/10
f 394/52/10 393/53/10 391/51/10 392/50/10
f 370/31/10 371/34/10 394/52/10 392/50/10
f 396/54/36 395/55/36 393/53/36 394/52/36
f 371/34/36 373/36/36 396/54/36 394/52/36
f 398/56/30 397/57/30 395/55/29 396/54/29
f 373/36/38 375/38/30 398/56/30 396/54/29
f 400/58/31 399/59/31 397/57/30 398/56/30
f 375/38/30 377/40/31 400/58/31 398/56/30
f 402/60/33 401/61/33 399/59/31 400/58/31
f 377/40/31 379/42/33 402/60/33 400/58/31
f 404/62/35 403/63/34 401/61/33 402/60/33
f 379/42/33 381/44/35 404/62/35 402/60/33
f 386/46/32 405/49/32 403/63/32 404/62/32
f 381/44/32 383/45/32 386/46/32 404/62/32
f 407/64/32 406/65/32 403/63/32 405/49/32
f 389/49/37 408/64/37 407/64/37 405/49/37
f 386/46/37 387/46/37 389/49/37 405/49/37
f 389/49/10 390/48/10 409/66/10 408/64/10
f 390/48/10 391/51/10 410/67/10 409/66/10
f 391/51/10 393/53/10 411/68/10 410/67/10
f 393/53/36 395/55/36 412/69/36 411/68/36
f 395/55/29 397/57/30 413/70/30 412/69/29
f 397/57/30 399/59/31 414/71/31 413/70/30
f 399/59/31 401/61/33 415/72/33 414/71/31
f 401/61/33 403/63/34 406/65/34 415/72/33
f 424/73/37 423/74/37 422/75/37 416/76/37
f 426/77/23 425/78/22 424/73/22 416/76/23
f 422/75/24 427/79/24 426/77/23 416/76/23
f 418/80/37 423/74/37 424/73/37 417/81/37
f 424/73/22 425/78/22 428/82/25 417/81/25
f 428/82/25 429/83/26 418/80/26 417/81/25
f 431/84/37 430/85/37 423/74/37 418/80/37
f 420/86/37 421/86/37 431/84/37 418/80/37
f 429/83/27 432/87/27 420/86/27 418/80/27
f 433/88/28 427/79/28 422/75/28 419/89/28
f 422/75/37 423/74/37 430/85/37 419/89/37
f 430/85/10 434/90/10 433/88/10 419/89/10
f 432/87/21 435/91/21 421/86/21 420/86/21
f 435/91/10 436/92/10 431/84/10 421/86/10
f 435/91/10 438/93/10 437/94/10 436/92/10
f 434/90/10 430/85/10 431/84/10 436/92/10
f 437/94/10 439/95/10 434/90/10 436/92/10
f 437/94/10 441/96/10 440/97/10 439/95/10
f 442/98/10 433/88/10 434/90/10 439/95/10
f 440/97/10 443/99/10 442/98/10 439/95/10
f 445/100/28 444/101/28 442/98/28 443/99/28
f 438/93/21 449/93/21 448/102/21 447/102/21
f 441/96/10 437/94/10 438/93/10 447/102/10
f 451/103/27 450/104/27 448/102/27 449/93/27
f 432/87/27 429/83/27 451/103/27 449/93/27
f 438/93/21 435/91/21 432/87/21 449/93/21
f 453/105/25 452/106/25 450/104/26 451/103/26
f 429/83/26 428/82/25 453/105/25 451/103/26
f 455/107/22 454/108/22 452/106/25 453/105/25
f 428/82/25 425/78/22 455/107/22 453/105/25
f 456/109/23 446/110/23 454/108/22 455/107/22
f 425/78/22 426/77/23 456/109/23 455/107/22
f 444/101/24 445/100/24 446/110/23 456/109/23
f 426/77/23 427/79/24 444/101/24 456/109/23
f 427/79/28 433/88/28 442/98/28 444/101/28
