v 0.000000 -0.268379 0.500000
v 0.000000 -0.268379 -0.500000
v 0.000000 0.339079 0.500000
v 0.000000 0.339079 -0.500000
v -0.050000 -0.268379 0.500000
v -0.050000 -0.268379 -0.500000
v -0.050000 0.339079 0.500000
v -0.050000 0.339079 -0.500000
v 0.000000 0.000000 0.500000
v 0.000000 -0.000000 -0.500000
v -0.050000 0.000000 0.500000
v -0.050000 -0.000000 -0.500000
v 0.000000 -0.268379 0.000000
v -0.050000 -0.268379 0.000000
v -0.050000 0.339079 -0.000000
v -0.050000 0.000000 0.000000
v 0.000000 0.065576 0.096697
v 0.000000 0.000000 0.167019
v 0.000000 0.065576 -0.096697
v 0.000000 -0.000000 -0.167019
v 0.012531 -0.268379 0.000000
v 0.012531 -0.268379 -0.500000
v 0.012531 -0.268379 0.500000
v 0.012531 -0.000000 -0.167019
v 0.012531 0.000000 0.000000
v 0.012531 0.065576 -0.096697
v 0.012531 0.065576 0.096697
v 0.012531 0.000000 0.167019
vn -1.0000 -0.0000 -0.0000
vn -0.0000 -0.0000 1.0000
vn -0.0000 -1.0000 -0.0000
vn -0.0000 -0.0000 -1.0000
vn 1.0000 -0.0000 -0.0000
vn -0.0000 0.7786 -0.6275
vn -0.0000 0.7555 -0.6552
vn -0.0000 0.7555 0.6552
vn -0.0000 0.7786 0.6275
vn -0.0000 0.7314 0.6820
vn -0.0000 0.7314 -0.6820
vt 0.378035 0.203754
vt 0.378035 0.458892
vt 0.001814 0.458892
vt 0.001814 0.203754
vt 0.795508 0.203752
vt 0.795508 0.458890
vt 0.757886 0.458890
vt 0.757886 0.203752
vt 0.434168 0.930473
vt 0.745542 0.930473
vt 0.745542 0.968095
vt 0.434168 0.968095
vt 0.955806 0.737422
vt 0.955806 0.869731
vt 0.918184 0.869731
vt 0.918184 0.737422
vt 0.955806 0.570258
vt 0.918184 0.570258
vt 0.795508 0.001812
vt 0.757885 0.001812
vt 0.378035 0.001814
vt 0.001814 0.001814
vt 0.122794 0.930473
vt 0.122794 0.921044
vt 0.434168 0.921044
vt 0.754257 0.001814
vt 0.754257 0.203754
vt 0.122794 0.968095
vt 0.754257 0.458892
vt 0.703394 0.757930
vt 0.844019 0.550567
vt 0.914554 0.534468
vt 0.914554 0.901130
vt 0.851144 0.001812
vt 0.851144 0.323402
vt 0.841716 0.323402
vt 0.841716 0.001812
vt 0.745542 0.921044
vt 0.378359 0.665792
vt 0.504031 0.665792
vt 0.451118 0.715134
vt 0.536261 0.644588
vt 0.820422 0.203752
vt 0.820422 0.001812
vt 0.829851 0.001812
vt 0.829851 0.203752
vt 0.001809 0.631225
vt 0.072345 0.647323
vt 0.212974 0.854684
vt 0.001816 0.997888
vt 0.820422 0.253094
vt 0.829851 0.253094
vt 0.380104 0.741338
vt 0.378359 0.463852
vt 0.754581 0.463852
vt 0.002138 0.463852
vt 0.252687 0.665792
vt 0.305600 0.715134
vt 0.851144 0.395704
vt 0.841716 0.395704
s 1
f 16/1/1 15/2/1 8/3/1 12/4/1
f 9/5/2 3/6/2 7/7/2 11/8/2
f 13/9/3 1/10/3 5/11/3 14/12/3
f 10/13/4 2/14/4 6/15/4 12/16/4
f 4/17/4 10/13/4 12/16/4 8/18/4
f 1/19/2 9/5/2 11/8/2 5/20/2
f 14/21/1 16/1/1 12/4/1 6/22/1
f 13/9/3 2/23/3 22/24/3 21/25/3
f 5/26/1 11/27/1 16/1/1 14/21/1
f 2/23/3 13/9/3 14/12/3 6/28/3
f 11/27/1 7/29/1 15/2/1 16/1/1
f 9/30/5 18/31/5 17/32/5 3/33/5
f 2/34/6 20/35/7 24/36/7 22/37/6
f 1/10/3 13/9/3 21/25/3 23/38/3
f 25/39/5 24/40/5 26/41/5
f 18/31/5 9/30/5 1/42/5
f 18/43/8 1/44/9 23/45/9 28/46/8
f 19/47/5 20/48/5 10/49/5 4/50/5
f 17/51/10 18/43/8 28/46/8 27/52/10
f 20/48/5 2/53/5 10/49/5
f 21/54/5 22/55/5 24/40/5 25/39/5
f 23/56/5 21/54/5 25/39/5 28/57/5
f 27/58/5 28/57/5 25/39/5
f 20/35/7 19/59/11 26/60/11 24/36/7
