v -0.990690 0.166483 -0.302903
v 0.987382 0.166483 -0.302903
v -0.990690 1.317008 -0.302903
v 0.987382 1.317008 -0.302903
v -0.990690 0.741746 -0.302903
v -0.001654 0.166483 -0.302903
v 0.987382 0.741745 -0.302903
v -0.001654 1.317008 -0.302903
v -0.001654 0.741745 -0.302903
vn -0.0000 -0.0000 1.0000
vt 0.500000 0.500000
vt 1.000000 0.500000
vt 1.000000 1.000000
vt 0.500000 1.000000
vt 0.000000 0.500000
vt 0.000000 1.000000
vt 0.000000 0.000000
vt 0.500000 0.000000
vt 1.000000 0.000000
s 0
f 9/1/1 7/2/1 4/3/1 8/4/1
f 5/5/1 9/1/1 8/4/1 3/6/1
f 1/7/1 6/8/1 9/1/1 5/5/1
f 6/8/1 2/9/1 7/2/1 9/1/1
