# Blender 4.3.2
# www.blender.org
mtllib PendantGlass.mtl
g Circle
v 0.500000 0.350000 0.450000
v 0.490245 0.350000 0.450961
v 0.480866 0.350000 0.453806
v 0.472221 0.350000 0.458427
v 0.464645 0.350000 0.464645
v 0.458427 0.350000 0.472221
v 0.453806 0.350000 0.480866
v 0.450961 0.350000 0.490245
v 0.450000 0.350000 0.500000
v 0.450961 0.350000 0.509755
v 0.453806 0.350000 0.519134
v 0.458427 0.350000 0.527779
v 0.464645 0.350000 0.535355
v 0.472221 0.350000 0.541573
v 0.480866 0.350000 0.546194
v 0.490245 0.350000 0.549039
v 0.500000 0.350000 0.550000
v 0.509755 0.350000 0.549039
v 0.519134 0.350000 0.546194
v 0.527779 0.350000 0.541573
v 0.535355 0.350000 0.535355
v 0.541573 0.350000 0.527779
v 0.546194 0.350000 0.519134
v 0.549039 0.350000 0.509755
v 0.550000 0.350000 0.500000
v 0.549039 0.350000 0.490245
v 0.546194 0.350000 0.480866
v 0.541573 0.350000 0.472221
v 0.535355 0.350000 0.464645
v 0.527779 0.350000 0.458427
v 0.519134 0.350000 0.453806
v 0.509755 0.350000 0.450961
v 0.490245 0.300000 0.450961
v 0.500000 0.300000 0.450000
v 0.480866 0.300000 0.453806
v 0.472221 0.300000 0.458427
v 0.464645 0.300000 0.464645
v 0.458427 0.300000 0.472221
v 0.453806 0.300000 0.480866
v 0.450961 0.300000 0.490245
v 0.450000 0.300000 0.500000
v 0.450961 0.300000 0.509755
v 0.453806 0.300000 0.519134
v 0.458427 0.300000 0.527779
v 0.464645 0.300000 0.535355
v 0.472221 0.300000 0.541573
v 0.480866 0.300000 0.546194
v 0.490245 0.300000 0.549039
v 0.500000 0.300000 0.550000
v 0.509755 0.300000 0.549039
v 0.519134 0.300000 0.546194
v 0.527779 0.300000 0.541573
v 0.535355 0.300000 0.535355
v 0.541573 0.300000 0.527779
v 0.546194 0.300000 0.519134
v 0.549039 0.300000 0.509755
v 0.550000 0.300000 0.500000
v 0.549039 0.300000 0.490245
v 0.546194 0.300000 0.480866
v 0.541573 0.300000 0.472221
v 0.535355 0.300000 0.464645
v 0.527779 0.300000 0.458427
v 0.519134 0.300000 0.453806
v 0.509755 0.300000 0.450961
v 0.485368 0.300000 0.426441
v 0.500000 0.300000 0.425000
v 0.471299 0.300000 0.430709
v 0.458332 0.300000 0.437640
v 0.446967 0.300000 0.446967
v 0.437640 0.300000 0.458332
v 0.430709 0.300000 0.471299
v 0.426441 0.300000 0.485368
v 0.425000 0.300000 0.500000
v 0.426441 0.300000 0.514632
v 0.430709 0.300000 0.528701
v 0.437640 0.300000 0.541668
v 0.446967 0.300000 0.553033
v 0.458332 0.300000 0.562360
v 0.471299 0.300000 0.569291
v 0.485368 0.300000 0.573559
v 0.500000 0.300000 0.575000
v 0.514632 0.300000 0.573559
v 0.528701 0.300000 0.569291
v 0.541668 0.300000 0.562360
v 0.553033 0.300000 0.553033
v 0.562360 0.300000 0.541668
v 0.569291 0.300000 0.528701
v 0.573559 0.300000 0.514632
v 0.575000 0.300000 0.500000
v 0.573559 0.300000 0.485368
v 0.569291 0.300000 0.471299
v 0.562360 0.300000 0.458332
v 0.553033 0.300000 0.446967
v 0.541668 0.300000 0.437640
v 0.528701 0.300000 0.430709
v 0.514632 0.300000 0.426441
v 0.571751 0.259952 0.470280
v 0.576170 0.259952 0.484849
v 0.456853 0.259952 0.564574
v 0.445084 0.259952 0.554915
v 0.564574 0.259952 0.456853
v 0.470280 0.259952 0.571751
v 0.484849 0.259952 0.423830
v 0.500000 0.259952 0.422338
v 0.554915 0.259952 0.445084
v 0.484849 0.259952 0.576170
v 0.470280 0.259952 0.428249
v 0.543147 0.259952 0.435426
v 0.500000 0.259952 0.577662
v 0.456853 0.259952 0.435426
v 0.529720 0.259952 0.428249
v 0.515151 0.259952 0.576170
v 0.445084 0.259952 0.445084
v 0.515151 0.259952 0.423830
v 0.529720 0.259952 0.571751
v 0.435426 0.259952 0.456853
v 0.543147 0.259952 0.564574
v 0.428249 0.259952 0.470280
v 0.554915 0.259952 0.554915
v 0.423830 0.259952 0.484849
v 0.564574 0.259952 0.543147
v 0.422338 0.259952 0.500000
v 0.571751 0.259952 0.529720
v 0.423830 0.259952 0.515151
v 0.576170 0.259952 0.515151
v 0.428249 0.259952 0.529720
v 0.577662 0.259952 0.500000
v 0.435426 0.259952 0.543147
v 0.410430 0.053105 0.049698
v 0.411354 0.051628 0.054344
v 0.410670 0.051770 0.050903
v 0.411008 0.051230 0.052604
v 0.500000 0.051628 0.045613
v 0.500000 0.053105 0.040876
v 0.500000 0.051230 0.043839
v 0.500000 0.051770 0.042105
v 0.324301 0.053105 0.075825
v 0.326114 0.051628 0.080201
v 0.324772 0.051770 0.076960
v 0.325435 0.051230 0.078562
v 0.244925 0.053105 0.118253
v 0.247557 0.051628 0.122191
v 0.245608 0.051770 0.119274
v 0.246571 0.051230 0.120716
v 0.175351 0.053105 0.175350
v 0.178700 0.051628 0.178700
v 0.176220 0.051770 0.176219
v 0.177446 0.051230 0.177445
v 0.118253 0.053105 0.244924
v 0.122192 0.051628 0.247556
v 0.119275 0.051770 0.245607
v 0.120716 0.051230 0.246570
v 0.075826 0.053105 0.324301
v 0.080202 0.051628 0.326113
v 0.076961 0.051770 0.324771
v 0.078563 0.051230 0.325435
v 0.049699 0.053105 0.410429
v 0.054345 0.051628 0.411353
v 0.050904 0.051770 0.410669
v 0.052604 0.051230 0.411007
v 0.040877 0.053105 0.500000
v 0.045614 0.051628 0.500000
v 0.042106 0.051770 0.500000
v 0.043839 0.051230 0.500000
v 0.049699 0.053105 0.589570
v 0.054345 0.051628 0.588646
v 0.050904 0.051770 0.589330
v 0.052604 0.051230 0.588992
v 0.075826 0.053105 0.675699
v 0.080202 0.051628 0.673886
v 0.076961 0.051770 0.675228
v 0.078563 0.051230 0.674565
v 0.118253 0.053105 0.755075
v 0.122192 0.051628 0.752443
v 0.119275 0.051770 0.754392
v 0.120716 0.051230 0.753429
v 0.175351 0.053105 0.824649
v 0.178700 0.051628 0.821300
v 0.176220 0.051770 0.823780
v 0.177446 0.051230 0.822554
v 0.244925 0.053105 0.881747
v 0.247557 0.051628 0.877808
v 0.245608 0.051770 0.880725
v 0.246571 0.051230 0.879284
v 0.324301 0.053105 0.924174
v 0.326114 0.051628 0.919798
v 0.324772 0.051770 0.923039
v 0.325435 0.051230 0.921437
v 0.410430 0.053105 0.950301
v 0.411354 0.051628 0.945655
v 0.410670 0.051770 0.949096
v 0.411008 0.051230 0.947396
v 0.500000 0.053105 0.959123
v 0.500000 0.051628 0.954386
v 0.500000 0.051770 0.957894
v 0.500000 0.051230 0.956161
v 0.589571 0.053105 0.950301
v 0.588647 0.051628 0.945655
v 0.589331 0.051770 0.949096
v 0.588993 0.051230 0.947396
v 0.675699 0.053105 0.924174
v 0.673887 0.051628 0.919798
v 0.675229 0.051770 0.923039
v 0.674565 0.051230 0.921437
v 0.755076 0.053105 0.881747
v 0.752444 0.051628 0.877808
v 0.754393 0.051770 0.880725
v 0.753430 0.051230 0.879284
v 0.824650 0.053105 0.824649
v 0.821300 0.051628 0.821300
v 0.823781 0.051770 0.823780
v 0.822555 0.051230 0.822554
v 0.881747 0.053105 0.755075
v 0.877809 0.051628 0.752443
v 0.880726 0.051770 0.754392
v 0.879284 0.051230 0.753429
v 0.924175 0.053105 0.675699
v 0.919799 0.051628 0.673886
v 0.923040 0.051770 0.675228
v 0.921438 0.051230 0.674565
v 0.950302 0.053105 0.589570
v 0.945656 0.051628 0.588646
v 0.949097 0.051770 0.589330
v 0.947396 0.051230 0.588992
v 0.959124 0.053105 0.500000
v 0.954387 0.051628 0.500000
v 0.957895 0.051770 0.500000
v 0.956161 0.051230 0.500000
v 0.950302 0.053105 0.410429
v 0.945656 0.051628 0.411353
v 0.949097 0.051770 0.410669
v 0.947396 0.051230 0.411007
v 0.924175 0.053105 0.324301
v 0.919799 0.051628 0.326113
v 0.923040 0.051770 0.324771
v 0.921438 0.051230 0.325435
v 0.881747 0.053105 0.244924
v 0.877809 0.051628 0.247556
v 0.880726 0.051770 0.245607
v 0.879284 0.051230 0.246570
v 0.824650 0.053105 0.175350
v 0.821300 0.051628 0.178700
v 0.823781 0.051770 0.176219
v 0.822555 0.051230 0.177445
v 0.755076 0.053105 0.118253
v 0.752444 0.051628 0.122191
v 0.754393 0.051770 0.119274
v 0.753430 0.051230 0.120716
v 0.675699 0.053105 0.075825
v 0.673887 0.051628 0.080201
v 0.675229 0.051770 0.076960
v 0.674565 0.051230 0.078562
v 0.589571 0.053105 0.049698
v 0.588647 0.051628 0.054344
v 0.589331 0.051770 0.050903
v 0.588993 0.051230 0.052604
v 0.924084 0.060499 0.324338
v 0.925461 0.055766 0.323768
v 0.925321 0.059269 0.323826
v 0.925825 0.057537 0.323617
v 0.951667 0.055766 0.410158
v 0.950205 0.060499 0.410448
v 0.952054 0.057537 0.410081
v 0.951519 0.059269 0.410187
v 0.244980 0.060499 0.881665
v 0.244152 0.055766 0.882904
v 0.244236 0.059269 0.882779
v 0.243933 0.057537 0.883232
v 0.174367 0.055766 0.825633
v 0.175420 0.060499 0.824579
v 0.174088 0.057537 0.825912
v 0.174474 0.059269 0.825526
v 0.881666 0.060499 0.244979
v 0.882905 0.055766 0.244151
v 0.882779 0.059269 0.244235
v 0.883233 0.057537 0.243932
v 0.324339 0.060499 0.924084
v 0.323769 0.055766 0.925460
v 0.323827 0.059269 0.925321
v 0.323618 0.057537 0.925825
v 0.410449 0.060499 0.049795
v 0.410158 0.055766 0.048333
v 0.410188 0.059269 0.048481
v 0.410081 0.057537 0.047946
v 0.500000 0.055766 0.039485
v 0.500000 0.060499 0.040975
v 0.500000 0.057537 0.039090
v 0.500000 0.059269 0.039635
v 0.824580 0.060499 0.175420
v 0.825634 0.055766 0.174366
v 0.825527 0.059269 0.174473
v 0.825913 0.057537 0.174087
v 0.410449 0.060499 0.950205
v 0.410158 0.055766 0.951666
v 0.410188 0.059269 0.951518
v 0.410081 0.057537 0.952053
v 0.324339 0.060499 0.075916
v 0.323769 0.055766 0.074539
v 0.323826 0.059269 0.074679
v 0.323618 0.057537 0.074175
v 0.755021 0.060499 0.118334
v 0.755849 0.055766 0.117096
v 0.755765 0.059269 0.117221
v 0.756068 0.057537 0.116767
v 0.500000 0.060499 0.959025
v 0.500000 0.055766 0.960515
v 0.500000 0.059269 0.960364
v 0.500000 0.057537 0.960909
v 0.244980 0.060499 0.118334
v 0.244152 0.055766 0.117096
v 0.244236 0.059269 0.117221
v 0.243933 0.057537 0.116767
v 0.675662 0.060499 0.075916
v 0.676232 0.055766 0.074539
v 0.676174 0.059269 0.074679
v 0.676383 0.057537 0.074175
v 0.589552 0.060499 0.950205
v 0.589842 0.055766 0.951666
v 0.589813 0.059269 0.951518
v 0.589919 0.057537 0.952053
v 0.175420 0.060499 0.175420
v 0.174367 0.055766 0.174366
v 0.174474 0.059269 0.174473
v 0.174088 0.057537 0.174087
v 0.589552 0.060499 0.049795
v 0.589842 0.055766 0.048333
v 0.589813 0.059269 0.048481
v 0.589919 0.057537 0.047946
v 0.675662 0.060499 0.924084
v 0.676232 0.055766 0.925460
v 0.676174 0.059269 0.925321
v 0.676383 0.057537 0.925825
v 0.118335 0.060499 0.244979
v 0.117096 0.055766 0.244151
v 0.117221 0.059269 0.244235
v 0.116768 0.057537 0.243932
v 0.755021 0.060499 0.881665
v 0.755849 0.055766 0.882904
v 0.755765 0.059269 0.882779
v 0.756068 0.057537 0.883232
v 0.075916 0.060499 0.324338
v 0.074540 0.055766 0.323768
v 0.074679 0.059269 0.323826
v 0.074175 0.057537 0.323617
v 0.824580 0.060499 0.824579
v 0.825634 0.055766 0.825633
v 0.825527 0.059269 0.825526
v 0.825913 0.057537 0.825912
v 0.049795 0.060499 0.410448
v 0.048334 0.055766 0.410158
v 0.048482 0.059269 0.410187
v 0.047947 0.057537 0.410081
v 0.881666 0.060499 0.755020
v 0.882905 0.055766 0.755848
v 0.882779 0.059269 0.755764
v 0.883233 0.057537 0.756067
v 0.040975 0.060499 0.500000
v 0.039485 0.055766 0.500000
v 0.039636 0.059269 0.500000
v 0.039091 0.057537 0.500000
v 0.924084 0.060499 0.675661
v 0.925461 0.055766 0.676231
v 0.925321 0.059269 0.676174
v 0.925825 0.057537 0.676382
v 0.049795 0.060499 0.589551
v 0.048334 0.055766 0.589842
v 0.048482 0.059269 0.589812
v 0.047947 0.057537 0.589919
v 0.950205 0.060499 0.589551
v 0.951667 0.055766 0.589842
v 0.951519 0.059269 0.589812
v 0.952054 0.057537 0.589919
v 0.075916 0.060499 0.675661
v 0.074540 0.055766 0.676231
v 0.074679 0.059269 0.676173
v 0.074175 0.057537 0.676382
v 0.959026 0.060499 0.500000
v 0.960515 0.055766 0.500000
v 0.960365 0.059269 0.500000
v 0.960910 0.057537 0.500000
v 0.118335 0.060499 0.755020
v 0.117096 0.055766 0.755848
v 0.117221 0.059269 0.755764
v 0.116768 0.057537 0.756067
v 0.485368 0.250000 0.426441
v 0.500000 0.250000 0.425000
v 0.471299 0.250000 0.430709
v 0.458332 0.250000 0.437640
v 0.446967 0.250000 0.446967
v 0.437640 0.250000 0.458332
v 0.430709 0.250000 0.471299
v 0.426441 0.250000 0.485368
v 0.425000 0.250000 0.500000
v 0.426441 0.250000 0.514632
v 0.430709 0.250000 0.528701
v 0.437640 0.250000 0.541668
v 0.446967 0.250000 0.553033
v 0.458332 0.250000 0.562360
v 0.471299 0.250000 0.569291
v 0.485368 0.250000 0.573559
v 0.500000 0.250000 0.575000
v 0.514632 0.250000 0.573559
v 0.528701 0.250000 0.569291
v 0.541668 0.250000 0.562360
v 0.553033 0.250000 0.553033
v 0.562360 0.250000 0.541668
v 0.569291 0.250000 0.528701
v 0.573559 0.250000 0.514632
v 0.575000 0.250000 0.500000
v 0.573559 0.250000 0.485368
v 0.569291 0.250000 0.471299
v 0.562360 0.250000 0.458332
v 0.553033 0.250000 0.446967
v 0.541668 0.250000 0.437640
v 0.528701 0.250000 0.430709
v 0.514632 0.250000 0.426441
v 0.487329 0.250000 0.436296
v 0.500000 0.250000 0.435048
v 0.475144 0.250000 0.439993
v 0.463915 0.250000 0.445995
v 0.454072 0.250000 0.454072
v 0.445995 0.250000 0.463915
v 0.439993 0.250000 0.475144
v 0.436296 0.250000 0.487329
v 0.435048 0.250000 0.500000
v 0.436296 0.250000 0.512671
v 0.439993 0.250000 0.524856
v 0.445995 0.250000 0.536085
v 0.454072 0.250000 0.545928
v 0.463915 0.250000 0.554005
v 0.475144 0.250000 0.560007
v 0.487329 0.250000 0.563704
v 0.500000 0.250000 0.564952
v 0.512671 0.250000 0.563704
v 0.524856 0.250000 0.560007
v 0.536085 0.250000 0.554005
v 0.545928 0.250000 0.545928
v 0.554005 0.250000 0.536085
v 0.560007 0.250000 0.524856
v 0.563704 0.250000 0.512671
v 0.564952 0.250000 0.500000
v 0.563704 0.250000 0.487329
v 0.560007 0.250000 0.475144
v 0.554005 0.250000 0.463915
v 0.545928 0.250000 0.454072
v 0.536085 0.250000 0.445995
v 0.524856 0.250000 0.439993
v 0.512671 0.250000 0.436296
v 0.487329 0.190000 0.436296
v 0.488309 0.185000 0.441224
v 0.487460 0.187500 0.436957
v 0.487819 0.185670 0.438760
v 0.500000 0.185000 0.440073
v 0.500000 0.190000 0.435048
v 0.500000 0.185670 0.437560
v 0.500000 0.187500 0.435722
v 0.475144 0.190000 0.439993
v 0.477067 0.185000 0.444634
v 0.475402 0.187500 0.440614
v 0.476105 0.185670 0.442313
v 0.463915 0.190000 0.445995
v 0.466706 0.185000 0.450172
v 0.464289 0.187500 0.446554
v 0.465310 0.185670 0.448083
v 0.454072 0.190000 0.454072
v 0.457625 0.185000 0.457625
v 0.454548 0.187500 0.454548
v 0.455849 0.185670 0.455849
v 0.445995 0.190000 0.463915
v 0.450172 0.185000 0.466706
v 0.446554 0.187500 0.464289
v 0.448083 0.185670 0.465310
v 0.439993 0.190000 0.475144
v 0.444634 0.185000 0.477067
v 0.440614 0.187500 0.475402
v 0.442313 0.185670 0.476105
v 0.436296 0.190000 0.487329
v 0.441224 0.185000 0.488309
v 0.436957 0.187500 0.487460
v 0.438760 0.185670 0.487819
v 0.435048 0.190000 0.500000
v 0.440073 0.185000 0.500000
v 0.435722 0.187500 0.500000
v 0.437560 0.185670 0.500000
v 0.436296 0.190000 0.512671
v 0.441224 0.185000 0.511691
v 0.436957 0.187500 0.512540
v 0.438760 0.185670 0.512181
v 0.439993 0.190000 0.524856
v 0.444634 0.185000 0.522933
v 0.440614 0.187500 0.524598
v 0.442313 0.185670 0.523895
v 0.445995 0.190000 0.536085
v 0.450172 0.185000 0.533294
v 0.446554 0.187500 0.535711
v 0.448083 0.185670 0.534690
v 0.454072 0.190000 0.545928
v 0.457625 0.185000 0.542375
v 0.454548 0.187500 0.545452
v 0.455849 0.185670 0.544151
v 0.463915 0.190000 0.554005
v 0.466706 0.185000 0.549828
v 0.464289 0.187500 0.553446
v 0.465310 0.185670 0.551917
v 0.475144 0.190000 0.560007
v 0.477067 0.185000 0.555366
v 0.475402 0.187500 0.559386
v 0.476105 0.185670 0.557687
v 0.487329 0.190000 0.563704
v 0.488309 0.185000 0.558776
v 0.487460 0.187500 0.563043
v 0.487819 0.185670 0.561240
v 0.500000 0.190000 0.564952
v 0.500000 0.185000 0.559927
v 0.500000 0.187500 0.564278
v 0.500000 0.185670 0.562440
v 0.512671 0.190000 0.563704
v 0.511691 0.185000 0.558776
v 0.512540 0.187500 0.563043
v 0.512181 0.185670 0.561240
v 0.524856 0.190000 0.560007
v 0.522933 0.185000 0.555366
v 0.524598 0.187500 0.559386
v 0.523895 0.185670 0.557687
v 0.536085 0.190000 0.554005
v 0.533294 0.185000 0.549828
v 0.535711 0.187500 0.553446
v 0.534690 0.185670 0.551917
v 0.545928 0.190000 0.545928
v 0.542375 0.185000 0.542375
v 0.545452 0.187500 0.545452
v 0.544151 0.185670 0.544151
v 0.554005 0.190000 0.536085
v 0.549828 0.185000 0.533294
v 0.553446 0.187500 0.535711
v 0.551917 0.185670 0.534690
v 0.560007 0.190000 0.524856
v 0.555366 0.185000 0.522933
v 0.559386 0.187500 0.524598
v 0.557687 0.185670 0.523895
v 0.563704 0.190000 0.512671
v 0.558776 0.185000 0.511691
v 0.563043 0.187500 0.512540
v 0.561240 0.185670 0.512181
v 0.564952 0.190000 0.500000
v 0.559927 0.185000 0.500000
v 0.564278 0.187500 0.500000
v 0.562440 0.185670 0.500000
v 0.563704 0.190000 0.487329
v 0.558776 0.185000 0.488309
v 0.563043 0.187500 0.487460
v 0.561240 0.185670 0.487819
v 0.560007 0.190000 0.475144
v 0.555366 0.185000 0.477067
v 0.559386 0.187500 0.475402
v 0.557687 0.185670 0.476105
v 0.554005 0.190000 0.463915
v 0.549828 0.185000 0.466706
v 0.553446 0.187500 0.464289
v 0.551917 0.185670 0.465310
v 0.545928 0.190000 0.454072
v 0.542375 0.185000 0.457625
v 0.545452 0.187500 0.454548
v 0.544151 0.185670 0.455849
v 0.536085 0.190000 0.445995
v 0.533294 0.185000 0.450172
v 0.535711 0.187500 0.446554
v 0.534690 0.185670 0.448083
v 0.524856 0.190000 0.439993
v 0.522933 0.185000 0.444634
v 0.524598 0.187500 0.440614
v 0.523895 0.185670 0.442313
v 0.512671 0.190000 0.436296
v 0.511691 0.185000 0.441224
v 0.512540 0.187500 0.436957
v 0.512181 0.185670 0.438760
vn -0.0000 1.0000 -0.0000
vn -0.7071 -0.0000 0.7071
vn -0.5556 -0.0000 0.8315
vn 0.9239 -0.0000 -0.3827
vn 0.8315 -0.0000 -0.5556
vn -0.3827 -0.0000 0.9239
vn -0.0000 -0.0000 -1.0000
vn -0.1951 -0.0000 -0.9808
vn 0.7071 -0.0000 -0.7071
vn -0.1951 -0.0000 0.9808
vn -0.3827 -0.0000 -0.9239
vn 0.5556 -0.0000 -0.8315
vn -0.0000 -0.0000 1.0000
vn -0.5556 -0.0000 -0.8315
vn 0.3827 -0.0000 -0.9239
vn 0.1951 -0.0000 0.9808
vn -0.7071 -0.0000 -0.7071
vn 0.1951 -0.0000 -0.9808
vn 0.3827 -0.0000 0.9239
vn -0.8315 -0.0000 -0.5556
vn 0.5556 -0.0000 0.8315
vn -0.9239 -0.0000 -0.3827
vn 0.7071 -0.0000 0.7071
vn -0.9808 -0.0000 -0.1951
vn 0.8315 -0.0000 0.5556
vn -1.0000 -0.0000 -0.0000
vn 0.9239 -0.0000 0.3827
vn -0.9808 -0.0000 0.1951
vn 0.9808 -0.0000 0.1951
vn -0.9239 -0.0000 0.3827
vn 1.0000 -0.0000 -0.0000
vn -0.8315 -0.0000 0.5556
vn 0.9808 -0.0000 -0.1951
vn 0.6823 -0.5715 -0.4559
vn 0.7817 -0.3408 -0.5223
vn 0.8686 -0.3408 -0.3598
vn 0.7581 -0.5715 -0.3140
vn -0.3140 -0.5715 0.7581
vn -0.3598 -0.3408 0.8686
vn -0.5223 -0.3408 0.7817
vn -0.4559 -0.5715 0.6823
vn 0.5802 -0.5715 -0.5802
vn 0.6648 -0.3408 -0.6648
vn -0.1601 -0.5715 0.8048
vn -0.1834 -0.3408 0.9221
vn -0.3140 -0.5715 -0.7581
vn -0.3598 -0.3408 -0.8686
vn -0.1834 -0.3408 -0.9221
vn -0.1601 -0.5715 -0.8048
vn 0.4559 -0.5715 -0.6823
vn 0.5223 -0.3408 -0.7817
vn -0.0000 -0.5715 0.8206
vn -0.0000 -0.3408 0.9401
vn 0.0904 -0.8862 0.4545
vn 0.0657 -0.9416 0.3304
vn -0.0000 -0.9416 0.3368
vn -0.0000 -0.8862 0.4634
vn 0.3140 -0.5715 -0.7581
vn 0.3598 -0.3408 -0.8686
vn 0.1601 -0.5715 0.8048
vn 0.1834 -0.3408 0.9221
vn -0.5802 -0.5715 -0.5802
vn -0.6648 -0.3408 -0.6648
vn -0.5223 -0.3408 -0.7817
vn -0.4559 -0.5715 -0.6823
vn 0.1601 -0.5715 -0.8048
vn 0.1834 -0.3408 -0.9221
vn 0.3140 -0.5715 0.7581
vn 0.3598 -0.3408 0.8686
vn -0.6823 -0.5715 -0.4559
vn -0.7817 -0.3408 -0.5223
vn 0.2100 0.9676 -0.1403
vn 0.2333 0.9676 -0.0967
vn 0.5361 0.8144 -0.2221
vn 0.4825 0.8144 -0.3224
vn 0.4559 -0.5715 0.6823
vn 0.5223 -0.3408 0.7817
vn -0.7581 -0.5715 -0.3140
vn -0.8686 -0.3408 -0.3598
vn 0.5802 -0.5715 0.5802
vn 0.6648 -0.3408 0.6648
vn -0.8048 -0.5715 -0.1601
vn -0.9221 -0.3408 -0.1834
vn 0.6823 -0.5715 0.4559
vn 0.7817 -0.3408 0.5223
vn -0.8206 -0.5715 -0.0000
vn -0.9401 -0.3408 -0.0000
vn 0.7581 -0.5715 0.3140
vn 0.8686 -0.3408 0.3598
vn -0.8048 -0.5715 0.1601
vn -0.9221 -0.3408 0.1834
vn 0.8048 -0.5715 0.1601
vn 0.9221 -0.3408 0.1834
vn -0.7581 -0.5715 0.3140
vn -0.8686 -0.3408 0.3598
vn 0.8206 -0.5715 -0.0000
vn 0.9401 -0.3408 -0.0000
vn -0.6823 -0.5715 0.4559
vn -0.7817 -0.3408 0.5223
vn 0.8048 -0.5715 -0.1601
vn 0.9221 -0.3408 -0.1834
vn -0.5802 -0.5715 0.5802
vn -0.6648 -0.3408 0.6648
vn 0.2477 0.9676 -0.0493
vn 0.2526 0.9676 -0.0000
vn 0.5802 0.8144 -0.0000
vn 0.5691 0.8144 -0.1132
vn -0.1786 0.9676 0.1786
vn -0.2100 0.9676 0.1403
vn -0.4825 0.8144 0.3224
vn -0.4103 0.8144 0.4103
vn -0.1403 0.9676 0.2100
vn -0.3224 0.8144 0.4825
vn -0.0000 0.9676 -0.2526
vn 0.0493 0.9676 -0.2477
vn 0.1132 0.8144 -0.5691
vn -0.0000 0.8144 -0.5802
vn -0.0493 0.9676 0.2477
vn -0.0967 0.9676 0.2333
vn -0.2221 0.8144 0.5361
vn -0.1132 0.8144 0.5691
vn -0.0967 0.9676 -0.2333
vn -0.0493 0.9676 -0.2477
vn -0.1132 0.8144 -0.5691
vn -0.2221 0.8144 -0.5361
vn -0.0000 0.9676 0.2526
vn -0.0000 0.8144 0.5802
vn -0.1403 0.9676 -0.2100
vn -0.3224 0.8144 -0.4825
vn 0.0967 0.9676 -0.2333
vn 0.1403 0.9676 -0.2100
vn 0.3224 0.8144 -0.4825
vn 0.2221 0.8144 -0.5361
vn 0.0493 0.9676 0.2477
vn 0.1132 0.8144 0.5691
vn -0.1786 0.9676 -0.1786
vn -0.4103 0.8144 -0.4103
vn 0.0967 0.9676 0.2333
vn 0.2221 0.8144 0.5361
vn -0.2100 0.9676 -0.1403
vn -0.4825 0.8144 -0.3224
vn 0.1403 0.9676 0.2100
vn 0.3224 0.8144 0.4825
vn 0.1786 0.9676 -0.1786
vn 0.4103 0.8144 -0.4103
vn -0.2333 0.9676 -0.0967
vn -0.5361 0.8144 -0.2221
vn 0.1786 0.9676 0.1786
vn 0.4103 0.8144 0.4103
vn -0.2477 0.9676 -0.0493
vn -0.5691 0.8144 -0.1132
vn 0.2100 0.9676 0.1403
vn 0.4825 0.8144 0.3224
vn -0.2526 0.9676 -0.0000
vn -0.5802 0.8144 -0.0000
vn 0.2333 0.9676 0.0967
vn 0.5361 0.8144 0.2221
vn -0.2477 0.9676 0.0493
vn -0.5691 0.8144 0.1132
vn 0.2477 0.9676 0.0493
vn 0.5691 0.8144 0.1132
vn -0.2333 0.9676 0.0967
vn -0.5361 0.8144 0.2221
vn 0.4545 -0.8862 0.0904
vn 0.3304 -0.9416 0.0657
vn 0.3112 -0.9416 0.1289
vn 0.4281 -0.8862 0.1773
vn -0.3853 -0.8862 -0.2574
vn -0.2801 -0.9416 -0.1871
vn -0.2382 -0.9416 -0.2382
vn -0.3276 -0.8862 -0.3276
vn 0.4634 -0.8862 -0.0000
vn 0.3368 -0.9416 -0.0000
vn -0.4281 -0.8862 -0.1773
vn -0.3112 -0.9416 -0.1289
vn 0.4545 -0.8862 -0.0904
vn 0.3304 -0.9416 -0.0657
vn -0.4545 -0.8862 -0.0904
vn -0.3304 -0.9416 -0.0657
vn 0.4281 -0.8862 -0.1773
vn 0.3112 -0.9416 -0.1289
vn -0.4634 -0.8862 -0.0000
vn -0.3368 -0.9416 -0.0000
vn 0.3853 -0.8862 -0.2574
vn 0.2801 -0.9416 -0.1871
vn -0.4545 -0.8862 0.0904
vn -0.3304 -0.9416 0.0657
vn 0.3276 -0.8862 -0.3276
vn 0.2382 -0.9416 -0.2382
vn -0.4281 -0.8862 0.1773
vn -0.3112 -0.9416 0.1289
vn 0.2574 -0.8862 -0.3853
vn 0.1871 -0.9416 -0.2801
vn -0.3853 -0.8862 0.2574
vn -0.2801 -0.9416 0.1871
vn 0.1773 -0.8862 -0.4281
vn 0.1289 -0.9416 -0.3112
vn 0.1773 -0.8862 0.4281
vn 0.1289 -0.9416 0.3112
vn -0.3276 -0.8862 0.3276
vn -0.2382 -0.9416 0.2382
vn 0.0904 -0.8862 -0.4545
vn 0.0657 -0.9416 -0.3304
vn -0.0000 -0.5715 -0.8206
vn -0.0000 -0.3408 -0.9401
vn -0.2574 -0.8862 0.3853
vn -0.1871 -0.9416 0.2801
vn -0.0000 -0.8862 -0.4634
vn -0.0000 -0.9416 -0.3368
vn 0.2574 -0.8862 0.3853
vn 0.1871 -0.9416 0.2801
vn -0.1773 -0.8862 0.4281
vn -0.1289 -0.9416 0.3112
vn -0.0904 -0.8862 -0.4545
vn -0.0657 -0.9416 -0.3304
vn 0.3276 -0.8862 0.3276
vn 0.2382 -0.9416 0.2382
vn -0.0904 -0.8862 0.4545
vn -0.0657 -0.9416 0.3304
vn -0.1773 -0.8862 -0.4281
vn -0.1289 -0.9416 -0.3112
vn 0.3853 -0.8862 0.2574
vn 0.2801 -0.9416 0.1871
vn -0.2574 -0.8862 -0.3853
vn -0.1871 -0.9416 -0.2801
vn 0.0427 -0.9757 0.2147
vn -0.0000 -0.9757 0.2189
vn -0.0581 -0.9547 -0.2919
vn -0.0000 -0.9547 -0.2977
vn -0.1435 -0.6774 -0.7215
vn -0.0000 -0.6774 -0.7356
vn 0.0838 -0.9757 0.2022
vn -0.1139 -0.9547 -0.2750
vn -0.2815 -0.6774 -0.6796
vn 0.1216 -0.9757 0.1820
vn -0.1654 -0.9547 -0.2475
vn -0.4087 -0.6774 -0.6116
vn 0.1548 -0.9757 0.1548
vn -0.2105 -0.9547 -0.2105
vn -0.5201 -0.6774 -0.5201
vn 0.1820 -0.9757 0.1216
vn -0.2475 -0.9547 -0.1654
vn -0.6116 -0.6774 -0.4087
vn 0.2022 -0.9757 0.0838
vn -0.2750 -0.9547 -0.1139
vn -0.6796 -0.6774 -0.2815
vn 0.2147 -0.9757 0.0427
vn -0.2919 -0.9547 -0.0581
vn -0.7215 -0.6774 -0.1435
vn 0.2189 -0.9757 -0.0000
vn -0.2977 -0.9547 -0.0000
vn -0.7356 -0.6774 -0.0000
vn 0.2147 -0.9757 -0.0427
vn -0.2919 -0.9547 0.0581
vn -0.7215 -0.6774 0.1435
vn 0.2022 -0.9757 -0.0838
vn -0.2750 -0.9547 0.1139
vn -0.6796 -0.6774 0.2815
vn 0.1820 -0.9757 -0.1216
vn -0.2475 -0.9547 0.1654
vn -0.6116 -0.6774 0.4087
vn 0.1548 -0.9757 -0.1548
vn -0.2105 -0.9547 0.2105
vn -0.5201 -0.6774 0.5201
vn 0.1216 -0.9757 -0.1820
vn -0.1654 -0.9547 0.2475
vn -0.4087 -0.6774 0.6116
vn 0.0838 -0.9757 -0.2022
vn -0.1139 -0.9547 0.2750
vn -0.2815 -0.6774 0.6796
vn 0.0427 -0.9757 -0.2147
vn -0.0581 -0.9547 0.2919
vn -0.1435 -0.6774 0.7215
vn -0.0000 -0.9757 -0.2189
vn -0.0000 -0.9547 0.2977
vn -0.0000 -0.6774 0.7356
vn -0.0427 -0.9757 -0.2147
vn 0.0581 -0.9547 0.2919
vn 0.1435 -0.6774 0.7215
vn -0.0838 -0.9757 -0.2022
vn 0.1139 -0.9547 0.2750
vn 0.2815 -0.6774 0.6796
vn -0.1216 -0.9757 -0.1820
vn 0.1654 -0.9547 0.2475
vn 0.4087 -0.6774 0.6116
vn -0.1548 -0.9757 -0.1548
vn 0.2105 -0.9547 0.2105
vn 0.5201 -0.6774 0.5201
vn -0.1820 -0.9757 -0.1216
vn 0.2475 -0.9547 0.1654
vn 0.6116 -0.6774 0.4087
vn -0.2022 -0.9757 -0.0838
vn 0.2750 -0.9547 0.1139
vn 0.6796 -0.6774 0.2815
vn -0.2147 -0.9757 -0.0427
vn 0.2919 -0.9547 0.0581
vn 0.7215 -0.6774 0.1435
vn -0.2189 -0.9757 -0.0000
vn 0.2977 -0.9547 -0.0000
vn 0.7356 -0.6774 -0.0000
vn -0.2147 -0.9757 0.0427
vn 0.2919 -0.9547 -0.0581
vn 0.7215 -0.6774 -0.1435
vn -0.2022 -0.9757 0.0838
vn 0.2750 -0.9547 -0.1139
vn 0.6796 -0.6774 -0.2815
vn -0.1820 -0.9757 0.1216
vn 0.2475 -0.9547 -0.1654
vn 0.6116 -0.6774 -0.4087
vn -0.1548 -0.9757 0.1548
vn 0.2105 -0.9547 -0.2105
vn 0.5201 -0.6774 -0.5201
vn -0.1216 -0.9757 0.1820
vn 0.1654 -0.9547 -0.2475
vn 0.4087 -0.6774 -0.6116
vn -0.0838 -0.9757 0.2022
vn 0.1139 -0.9547 -0.2750
vn 0.2815 -0.6774 -0.6796
vn -0.0427 -0.9757 0.2147
vn 0.0581 -0.9547 -0.2919
vn 0.1435 -0.6774 -0.7215
vn 0.9231 0.0421 -0.3823
vn 0.9799 0.0421 -0.1949
vn 0.7838 0.5294 -0.3247
vn 0.8321 0.5294 -0.1655
vn -0.5551 0.0421 0.8307
vn -0.7065 0.0421 0.7065
vn -0.4713 0.5294 0.7054
vn -0.5999 0.5294 0.5999
vn 0.8307 0.0421 -0.5551
vn 0.7054 0.5294 -0.4713
vn -0.3823 0.0421 0.9231
vn -0.3247 0.5294 0.7838
vn -0.1949 0.0421 -0.9799
vn -0.0000 0.0421 -0.9991
vn -0.1655 0.5294 -0.8321
vn -0.0000 0.5294 -0.8484
vn 0.7065 0.0421 -0.7065
vn 0.5999 0.5294 -0.5999
vn -0.1949 0.0421 0.9799
vn -0.1655 0.5294 0.8321
vn -0.3823 0.0421 -0.9231
vn -0.3247 0.5294 -0.7838
vn 0.5551 0.0421 -0.8307
vn 0.4713 0.5294 -0.7054
vn -0.0000 0.0421 0.9991
vn -0.0000 0.5294 0.8484
vn -0.5551 0.0421 -0.8307
vn -0.4713 0.5294 -0.7054
vn 0.3823 0.0421 -0.9231
vn 0.3247 0.5294 -0.7838
vn 0.1949 0.0421 0.9799
vn 0.1655 0.5294 0.8321
vn -0.7065 0.0421 -0.7065
vn -0.5999 0.5294 -0.5999
vn 0.1949 0.0421 -0.9799
vn 0.1655 0.5294 -0.8321
vn 0.3823 0.0421 0.9231
vn 0.3247 0.5294 0.7838
vn -0.8307 0.0421 -0.5551
vn -0.7054 0.5294 -0.4713
vn 0.5551 0.0421 0.8307
vn 0.4713 0.5294 0.7054
vn -0.9231 0.0421 -0.3823
vn -0.7838 0.5294 -0.3247
vn 0.7065 0.0421 0.7065
vn 0.5999 0.5294 0.5999
vn -0.9799 0.0421 -0.1949
vn -0.8321 0.5294 -0.1655
vn 0.8307 0.0421 0.5551
vn 0.7054 0.5294 0.4713
vn -0.9991 0.0421 -0.0000
vn -0.8484 0.5294 -0.0000
vn 0.9231 0.0421 0.3823
vn 0.7838 0.5294 0.3247
vn -0.9799 0.0421 0.1949
vn -0.8321 0.5294 0.1655
vn 0.9799 0.0421 0.1949
vn 0.8321 0.5294 0.1655
vn -0.9231 0.0421 0.3823
vn -0.7838 0.5294 0.3247
vn 0.9991 0.0421 -0.0000
vn 0.8484 0.5294 -0.0000
vn -0.8307 0.0421 0.5551
vn -0.7054 0.5294 0.4713
vn -0.0000 -1.0000 -0.0000
vn 0.5508 -0.1301 0.8244
vn 0.7011 -0.1301 0.7011
vn -0.7011 -0.1301 -0.7011
vn -0.8244 -0.1301 -0.5509
vn -0.1934 -0.1301 -0.9725
vn -0.3794 -0.1301 -0.9160
vn 0.8244 -0.1301 0.5508
vn 0.9160 -0.1301 0.3794
vn 0.9725 -0.1301 0.1934
vn 0.9915 -0.1301 -0.0000
vn 0.9725 -0.1301 -0.1934
vn 0.9160 -0.1301 -0.3794
vn 0.8244 -0.1301 -0.5508
vn 0.7011 -0.1301 -0.7011
vn 0.5508 -0.1301 -0.8244
vn 0.1934 -0.1301 -0.9725
vn -0.0000 -0.1301 -0.9915
vn 0.3794 -0.1301 -0.9160
vn -0.5508 -0.1301 -0.8244
vn -0.9160 -0.1301 -0.3794
vn -0.9725 -0.1301 -0.1934
vn -0.9915 -0.1301 -0.0000
vn -0.9725 -0.1301 0.1934
vn -0.9160 -0.1301 0.3794
vn -0.8244 -0.1301 0.5508
vn -0.7011 -0.1301 0.7011
vn -0.5508 -0.1301 0.8244
vn -0.3794 -0.1301 0.9160
vn -0.1934 -0.1301 0.9725
vn -0.0000 -0.1301 0.9915
vn 0.1934 -0.1301 0.9725
vn 0.3794 -0.1301 0.9160
vn -0.0269 -0.9904 -0.1352
vn -0.0503 -0.9662 -0.2527
vn -0.0000 -0.9662 -0.2577
vn -0.0000 -0.9904 -0.1379
vn -0.1376 -0.7088 -0.6918
vn -0.1695 -0.4947 -0.8524
vn -0.0000 -0.4947 -0.8691
vn -0.0000 -0.7088 -0.7054
vn -0.0528 -0.9904 -0.1274
vn -0.0986 -0.9662 -0.2380
vn -0.2699 -0.7088 -0.6517
vn -0.3326 -0.4947 -0.8029
vn -0.0766 -0.9904 -0.1147
vn -0.1431 -0.9662 -0.2142
vn -0.3919 -0.7088 -0.5865
vn -0.4828 -0.4947 -0.7226
vn -0.0975 -0.9904 -0.0975
vn -0.1822 -0.9662 -0.1822
vn -0.4988 -0.7088 -0.4988
vn -0.6145 -0.4947 -0.6145
vn -0.1147 -0.9904 -0.0766
vn -0.2142 -0.9662 -0.1431
vn -0.5865 -0.7088 -0.3919
vn -0.7226 -0.4947 -0.4828
vn -0.1274 -0.9904 -0.0528
vn -0.2380 -0.9662 -0.0986
vn -0.6517 -0.7088 -0.2699
vn -0.8029 -0.4947 -0.3326
vn -0.1352 -0.9904 -0.0269
vn -0.2527 -0.9662 -0.0503
vn -0.6918 -0.7088 -0.1376
vn -0.8524 -0.4947 -0.1695
vn -0.1379 -0.9904 -0.0000
vn -0.2577 -0.9662 -0.0000
vn -0.7054 -0.7088 -0.0000
vn -0.8691 -0.4947 -0.0000
vn -0.1352 -0.9904 0.0269
vn -0.2527 -0.9662 0.0503
vn -0.6918 -0.7088 0.1376
vn -0.8524 -0.4947 0.1695
vn -0.1274 -0.9904 0.0528
vn -0.2380 -0.9662 0.0986
vn -0.6517 -0.7088 0.2699
vn -0.8029 -0.4947 0.3326
vn -0.1147 -0.9904 0.0766
vn -0.2142 -0.9662 0.1431
vn -0.5865 -0.7088 0.3919
vn -0.7226 -0.4947 0.4828
vn -0.0975 -0.9904 0.0975
vn -0.1822 -0.9662 0.1822
vn -0.4988 -0.7088 0.4988
vn -0.6145 -0.4947 0.6145
vn -0.0766 -0.9904 0.1147
vn -0.1431 -0.9662 0.2142
vn -0.3919 -0.7088 0.5865
vn -0.4828 -0.4947 0.7226
vn -0.0528 -0.9904 0.1274
vn -0.0986 -0.9662 0.2380
vn -0.2699 -0.7088 0.6517
vn -0.3326 -0.4947 0.8029
vn -0.0269 -0.9904 0.1352
vn -0.0503 -0.9662 0.2527
vn -0.1376 -0.7088 0.6918
vn -0.1695 -0.4947 0.8524
vn -0.0000 -0.9904 0.1379
vn -0.0000 -0.9662 0.2577
vn -0.0000 -0.7088 0.7054
vn -0.0000 -0.4947 0.8691
vn 0.0269 -0.9904 0.1352
vn 0.0503 -0.9662 0.2527
vn 0.1376 -0.7088 0.6918
vn 0.1695 -0.4947 0.8524
vn 0.0528 -0.9904 0.1274
vn 0.0986 -0.9662 0.2380
vn 0.2699 -0.7088 0.6517
vn 0.3326 -0.4947 0.8029
vn 0.0766 -0.9904 0.1147
vn 0.1431 -0.9662 0.2142
vn 0.3919 -0.7088 0.5865
vn 0.4828 -0.4947 0.7226
vn 0.0975 -0.9904 0.0975
vn 0.1822 -0.9662 0.1822
vn 0.4988 -0.7088 0.4988
vn 0.6145 -0.4947 0.6145
vn 0.1147 -0.9904 0.0766
vn 0.2142 -0.9662 0.1431
vn 0.5865 -0.7088 0.3919
vn 0.7226 -0.4947 0.4828
vn 0.1274 -0.9904 0.0528
vn 0.2380 -0.9662 0.0986
vn 0.6517 -0.7088 0.2699
vn 0.8029 -0.4947 0.3326
vn 0.1352 -0.9904 0.0269
vn 0.2527 -0.9662 0.0503
vn 0.6918 -0.7088 0.1376
vn 0.8524 -0.4947 0.1695
vn 0.1379 -0.9904 -0.0000
vn 0.2577 -0.9662 -0.0000
vn 0.7054 -0.7088 -0.0000
vn 0.8691 -0.4947 -0.0000
vn 0.1352 -0.9904 -0.0269
vn 0.2527 -0.9662 -0.0503
vn 0.6918 -0.7088 -0.1376
vn 0.8524 -0.4947 -0.1695
vn 0.1274 -0.9904 -0.0528
vn 0.2380 -0.9662 -0.0986
vn 0.6517 -0.7088 -0.2699
vn 0.8029 -0.4947 -0.3326
vn 0.1147 -0.9904 -0.0766
vn 0.2142 -0.9662 -0.1431
vn 0.5865 -0.7088 -0.3919
vn 0.7226 -0.4947 -0.4828
vn 0.0975 -0.9904 -0.0975
vn 0.1822 -0.9662 -0.1822
vn 0.4988 -0.7088 -0.4988
vn 0.6145 -0.4947 -0.6145
vn 0.0766 -0.9904 -0.1147
vn 0.1431 -0.9662 -0.2142
vn 0.3919 -0.7088 -0.5865
vn 0.4828 -0.4947 -0.7226
vn 0.0528 -0.9904 -0.1274
vn 0.0986 -0.9662 -0.2380
vn 0.2699 -0.7088 -0.6517
vn 0.3326 -0.4947 -0.8029
vn 0.0269 -0.9904 -0.1352
vn 0.0503 -0.9662 -0.2527
vn 0.1376 -0.7088 -0.6918
vn 0.1695 -0.4947 -0.8524
vt 0.146362 0.734614
vt 0.144067 0.735114
vt 0.141728 0.735114
vt 0.139433 0.734614
vt 0.137272 0.733633
vt 0.135326 0.732209
vt 0.133672 0.730397
vt 0.132372 0.728266
vt 0.131477 0.725899
vt 0.131021 0.723385
vt 0.131021 0.720822
vt 0.131477 0.718309
vt 0.132372 0.715941
vt 0.133672 0.713810
vt 0.135326 0.711998
vt 0.137272 0.710574
vt 0.139433 0.709593
vt 0.141728 0.709093
vt 0.144067 0.709093
vt 0.146362 0.709593
vt 0.148524 0.710574
vt 0.150469 0.711998
vt 0.152123 0.713810
vt 0.153423 0.715941
vt 0.154318 0.718309
vt 0.154775 0.720822
vt 0.154775 0.723385
vt 0.154318 0.725899
vt 0.153423 0.728266
vt 0.152123 0.730397
vt 0.150469 0.732209
vt 0.148524 0.733633
vt 0.364236 0.719352
vt 0.377202 0.719514
vt 0.377170 0.722076
vt 0.364204 0.721914
vt 0.755042 0.513746
vt 0.755042 0.500707
vt 0.757556 0.500744
vt 0.757556 0.513782
vt 0.377076 0.724589
vt 0.364109 0.724427
vt 0.527921 0.713589
vt 0.540958 0.713778
vt 0.540885 0.716291
vt 0.527848 0.716102
vt 0.760118 0.500744
vt 0.760118 0.513782
vt 0.376921 0.726955
vt 0.363955 0.726793
vt 0.540848 0.718853
vt 0.527811 0.718664
vt 0.762632 0.500707
vt 0.762632 0.513746
vt 0.376714 0.729083
vt 0.363748 0.728921
vt 0.540848 0.721367
vt 0.527811 0.721178
vt 0.765000 0.500636
vt 0.765000 0.513674
vt 0.376461 0.730893
vt 0.363495 0.730730
vt 0.540885 0.723736
vt 0.527848 0.723547
vt 0.528162 0.709093
vt 0.541199 0.709283
vt 0.541064 0.711412
vt 0.528027 0.711222
vt 0.766812 0.349373
vt 0.766812 0.362026
vt 0.765000 0.361571
vt 0.765000 0.348918
vt 0.540958 0.725868
vt 0.527921 0.725679
vt 0.762869 0.361212
vt 0.762869 0.348559
vt 0.541064 0.727682
vt 0.528027 0.727493
vt 0.760501 0.360966
vt 0.760501 0.348313
vt 0.541199 0.729108
vt 0.528162 0.728919
vt 0.757988 0.360840
vt 0.757988 0.348187
vt 0.363495 0.709093
vt 0.376461 0.709255
vt 0.376714 0.710683
vt 0.363748 0.710520
vt 0.755425 0.360840
vt 0.755425 0.348187
vt 0.376921 0.712497
vt 0.363955 0.712335
vt 0.752911 0.360966
vt 0.752911 0.348313
vt 0.377076 0.714630
vt 0.364109 0.714468
vt 0.750543 0.361212
vt 0.750543 0.348559
vt 0.377170 0.717000
vt 0.364204 0.716837
vt 0.750543 0.513570
vt 0.750543 0.500532
vt 0.752674 0.500636
vt 0.752674 0.513674
vt 0.686676 0.339346
vt 0.689043 0.338451
vt 0.692125 0.343714
vt 0.688573 0.345057
vt 0.684803 0.345741
vt 0.684162 0.339803
vt 0.681599 0.339803
vt 0.680959 0.345741
vt 0.677188 0.345057
vt 0.673637 0.343714
vt 0.670440 0.341764
vt 0.667722 0.339282
vt 0.665586 0.336364
vt 0.664115 0.333122
vt 0.663365 0.329680
vt 0.663365 0.326171
vt 0.664115 0.322729
vt 0.665586 0.319486
vt 0.667722 0.316569
vt 0.670440 0.314087
vt 0.673637 0.312137
vt 0.677188 0.310794
vt 0.680959 0.310110
vt 0.684803 0.310110
vt 0.688573 0.310794
vt 0.692125 0.312137
vt 0.695321 0.314087
vt 0.698039 0.316569
vt 0.700175 0.319486
vt 0.701646 0.322729
vt 0.702396 0.326171
vt 0.702396 0.329680
vt 0.701646 0.333122
vt 0.700175 0.336364
vt 0.698039 0.339282
vt 0.695321 0.341764
vt 0.691174 0.337151
vt 0.692986 0.335497
vt 0.694410 0.333551
vt 0.695391 0.331390
vt 0.695891 0.329095
vt 0.695891 0.326756
vt 0.695391 0.324461
vt 0.694410 0.322299
vt 0.692986 0.320354
vt 0.691174 0.318700
vt 0.689043 0.317400
vt 0.686676 0.316505
vt 0.684162 0.316048
vt 0.681599 0.316048
vt 0.679086 0.316505
vt 0.676718 0.317400
vt 0.674587 0.318700
vt 0.672775 0.320354
vt 0.671351 0.322299
vt 0.670370 0.324461
vt 0.669870 0.326756
vt 0.669870 0.329095
vt 0.670370 0.331390
vt 0.671351 0.333551
vt 0.672775 0.335497
vt 0.674587 0.337151
vt 0.676718 0.338451
vt 0.679086 0.339346
vt 0.265862 0.723993
vt 0.265670 0.727558
vt 0.253033 0.728191
vt 0.253225 0.724625
vt 0.020588 0.738831
vt 0.020386 0.736692
vt 0.033423 0.736882
vt 0.033625 0.739020
vt 0.265862 0.720218
vt 0.253225 0.720850
vt 0.665506 0.650988
vt 0.663365 0.651367
vt 0.663527 0.638400
vt 0.665668 0.638021
vt 0.265670 0.716378
vt 0.253033 0.717010
vt 0.668228 0.650676
vt 0.668390 0.637710
vt 0.265294 0.712622
vt 0.252656 0.713254
vt 0.671428 0.650445
vt 0.671590 0.637479
vt 0.264747 0.709093
vt 0.252109 0.709726
vt 0.674981 0.650303
vt 0.675143 0.637336
vt 0.430497 0.727581
vt 0.430364 0.730778
vt 0.417326 0.730872
vt 0.417459 0.727675
vt 0.678753 0.650255
vt 0.678915 0.637288
vt 0.430579 0.724029
vt 0.417541 0.724122
vt 0.682597 0.650303
vt 0.682759 0.637336
vt 0.430606 0.720258
vt 0.417568 0.720352
vt 0.686365 0.650445
vt 0.686528 0.637479
vt 0.020117 0.719606
vt 0.020227 0.715837
vt 0.033264 0.716026
vt 0.033155 0.719795
vt 0.430579 0.716414
vt 0.417541 0.716507
vt 0.689914 0.650676
vt 0.690077 0.637710
vt 0.020062 0.723450
vt 0.033099 0.723639
vt 0.430497 0.712644
vt 0.417459 0.712738
vt 0.693107 0.650988
vt 0.693269 0.638021
vt 0.020062 0.727220
vt 0.033099 0.727410
vt 0.430364 0.709093
vt 0.417326 0.709187
vt 0.695821 0.651367
vt 0.695983 0.638400
vt 0.020117 0.730773
vt 0.033155 0.730962
vt 0.020386 0.712287
vt 0.020588 0.709093
vt 0.033625 0.709282
vt 0.033423 0.712476
vt 0.265294 0.730778
vt 0.264747 0.733527
vt 0.252109 0.734159
vt 0.252656 0.731410
vt 0.020227 0.733971
vt 0.033264 0.734161
vt 0.168421 0.364451
vt 0.167701 0.364415
vt 0.168037 0.341265
vt 0.168756 0.341370
vt 0.027379 0.441002
vt 0.026731 0.441098
vt 0.027645 0.417958
vt 0.028290 0.417932
vt 0.168421 0.387984
vt 0.167701 0.388020
vt 0.025926 0.462725
vt 0.025274 0.462887
vt 0.123599 0.387905
vt 0.122878 0.387934
vt 0.123082 0.364331
vt 0.123802 0.364373
vt 0.168756 0.411065
vt 0.168037 0.411170
vt 0.023987 0.482266
vt 0.023330 0.482488
vt 0.375850 0.143442
vt 0.284161 0.099475
vt 0.293058 0.079002
vt 0.377319 0.140062
vt 0.169414 0.432806
vt 0.168696 0.432978
vt 0.073039 0.469078
vt 0.073783 0.469324
vt 0.069479 0.482659
vt 0.068748 0.482373
vt 0.124205 0.432734
vt 0.123486 0.432899
vt 0.123015 0.411087
vt 0.123735 0.410987
vt 0.125180 0.319560
vt 0.124464 0.319383
vt 0.125590 0.299765
vt 0.126303 0.300002
vt 0.076424 0.452257
vt 0.077178 0.452452
vt 0.124990 0.452308
vt 0.124274 0.452533
vt 0.133097 0.133957
vt 0.132388 0.137862
vt 0.020511 0.128088
vt 0.024701 0.105012
vt 0.078773 0.432555
vt 0.079534 0.432690
vt 0.126061 0.468959
vt 0.125348 0.469234
vt 0.079995 0.410730
vt 0.080761 0.410799
vt 0.321607 0.222218
vt 0.321335 0.222682
vt 0.304674 0.206402
vt 0.304996 0.205988
vt 0.080045 0.387620
vt 0.080810 0.387619
vt 0.341140 0.235079
vt 0.340927 0.235582
vt 0.078919 0.364114
vt 0.079681 0.364042
vt 0.362843 0.244078
vt 0.362697 0.244608
vt 0.076662 0.341115
vt 0.077417 0.340973
vt 0.385884 0.248868
vt 0.385807 0.249413
vt 0.073359 0.319507
vt 0.074104 0.319299
vt 0.028371 0.371314
vt 0.027726 0.371200
vt 0.026890 0.349378
vt 0.027537 0.349559
vt 0.069138 0.300119
vt 0.069871 0.299853
vt 0.028625 0.394401
vt 0.027981 0.394356
vt 0.168696 0.319457
vt 0.169414 0.319629
vt 0.132388 0.141842
vt 0.133097 0.145746
vt 0.024701 0.174692
vt 0.020511 0.151616
vt 0.167185 0.149424
vt 0.168576 0.145746
vt 0.234398 0.174692
vt 0.226178 0.196429
vt 0.165166 0.152734
vt 0.214245 0.215991
vt 0.145455 0.120420
vt 0.142098 0.121944
vt 0.077900 0.034004
vt 0.097744 0.025000
vt 0.159575 0.157760
vt 0.162596 0.155549
vt 0.199058 0.232628
vt 0.181199 0.245700
vt 0.152653 0.119644
vt 0.149019 0.119644
vt 0.118810 0.020410
vt 0.140289 0.020410
vt 0.156217 0.159284
vt 0.161355 0.254703
vt 0.156217 0.120420
vt 0.161355 0.025000
vt 0.139076 0.124155
vt 0.136507 0.126970
vt 0.044854 0.063712
vt 0.060042 0.047075
vt 0.152653 0.160060
vt 0.140289 0.259293
vt 0.159575 0.121944
vt 0.181199 0.034004
vt 0.149019 0.160060
vt 0.118810 0.259293
vt 0.162596 0.124155
vt 0.199058 0.047075
vt 0.145455 0.159284
vt 0.097744 0.254703
vt 0.134488 0.130280
vt 0.032921 0.083275
vt 0.165166 0.126970
vt 0.214245 0.063712
vt 0.142098 0.157760
vt 0.077900 0.245700
vt 0.167185 0.130280
vt 0.226178 0.083275
vt 0.139076 0.155549
vt 0.060042 0.232628
vt 0.168576 0.133957
vt 0.234398 0.105012
vt 0.136507 0.152734
vt 0.044854 0.215991
vt 0.169285 0.137862
vt 0.238588 0.128088
vt 0.134488 0.149424
vt 0.032921 0.196429
vt 0.169285 0.141842
vt 0.238588 0.151616
vt 0.382164 0.163534
vt 0.322414 0.221204
vt 0.305974 0.205141
vt 0.379451 0.160882
vt 0.411847 0.140646
vt 0.502247 0.082538
vt 0.511144 0.103312
vt 0.413316 0.144075
vt 0.385355 0.165635
vt 0.341745 0.233932
vt 0.409715 0.137546
vt 0.489330 0.063759
vt 0.388900 0.167105
vt 0.363225 0.242838
vt 0.407002 0.134895
vt 0.472890 0.047696
vt 0.392664 0.167887
vt 0.386028 0.247579
vt 0.403811 0.132794
vt 0.453559 0.034967
vt 0.396502 0.167952
vt 0.409277 0.247972
vt 0.400265 0.131324
vt 0.432080 0.026061
vt 0.400265 0.167297
vt 0.432080 0.244002
vt 0.396502 0.130541
vt 0.409277 0.021321
vt 0.403811 0.165947
vt 0.453559 0.235823
vt 0.392664 0.130477
vt 0.386028 0.020928
vt 0.407002 0.163954
vt 0.472890 0.223747
vt 0.375102 0.147043
vt 0.279625 0.121293
vt 0.388900 0.131132
vt 0.363225 0.024897
vt 0.409715 0.161394
vt 0.489330 0.208240
vt 0.124336 0.341295
vt 0.123617 0.341184
vt 0.385355 0.132482
vt 0.341745 0.033077
vt 0.411847 0.158366
vt 0.502247 0.189898
vt 0.375102 0.150727
vt 0.279625 0.143616
vt 0.382164 0.134475
vt 0.322414 0.045152
vt 0.413316 0.154987
vt 0.511144 0.169424
vt 0.375850 0.154354
vt 0.284161 0.165587
vt 0.379451 0.137035
vt 0.305974 0.060659
vt 0.414064 0.151386
vt 0.515680 0.147606
vt 0.377319 0.157783
vt 0.293058 0.186361
vt 0.414064 0.147701
vt 0.515680 0.125283
vt 0.283724 0.099309
vt 0.292656 0.078756
vt 0.283282 0.099216
vt 0.292248 0.078584
vt 0.124173 0.364407
vt 0.124705 0.341392
vt 0.279170 0.121212
vt 0.278711 0.121202
vt 0.123971 0.387876
vt 0.279170 0.143622
vt 0.278711 0.143697
vt 0.124106 0.410897
vt 0.283724 0.165679
vt 0.283282 0.165838
vt 0.124575 0.432586
vt 0.292656 0.186534
vt 0.292248 0.186773
vt 0.291945 0.187012
vt 0.282955 0.166022
vt 0.305623 0.205387
vt 0.305264 0.205697
vt 0.322127 0.221513
vt 0.321831 0.221884
vt 0.341533 0.234291
vt 0.341312 0.234711
vt 0.363097 0.243232
vt 0.362957 0.243686
vt 0.385988 0.247991
vt 0.385936 0.248463
vt 0.409329 0.248385
vt 0.409365 0.248859
vt 0.409375 0.249265
vt 0.432220 0.244400
vt 0.432343 0.244859
vt 0.432416 0.245254
vt 0.453784 0.236189
vt 0.453989 0.236616
vt 0.454119 0.236989
vt 0.473190 0.224066
vt 0.473469 0.224447
vt 0.473652 0.224788
vt 0.489694 0.208499
vt 0.490036 0.208821
vt 0.490263 0.209120
vt 0.502662 0.190085
vt 0.503052 0.190336
vt 0.503314 0.190586
vt 0.511593 0.169531
vt 0.512018 0.169705
vt 0.512304 0.169899
vt 0.516147 0.147628
vt 0.516589 0.147719
vt 0.076014 0.452072
vt 0.072639 0.468849
vt 0.516147 0.125218
vt 0.516589 0.125223
vt 0.078357 0.432423
vt 0.511593 0.103161
vt 0.512018 0.103083
vt 0.079576 0.410656
vt 0.502662 0.082306
vt 0.503052 0.082148
vt 0.079626 0.387609
vt 0.489694 0.063453
vt 0.490036 0.063223
vt 0.078503 0.364166
vt 0.473190 0.047327
vt 0.473469 0.047037
vt 0.076252 0.341228
vt 0.453784 0.034549
vt 0.453989 0.034209
vt 0.072958 0.319677
vt 0.432220 0.025608
vt 0.432343 0.025235
vt 0.068748 0.300342
vt 0.409329 0.020849
vt 0.409365 0.020458
vt 0.169127 0.341464
vt 0.169782 0.319780
vt 0.385988 0.020455
vt 0.385936 0.020062
vt 0.168793 0.364483
vt 0.363097 0.024440
vt 0.362957 0.024062
vt 0.168793 0.387953
vt 0.341533 0.032651
vt 0.341312 0.032305
vt 0.169127 0.410972
vt 0.322127 0.044774
vt 0.321831 0.044473
vt 0.169782 0.432655
vt 0.305623 0.060341
vt 0.305264 0.060100
vt 0.125547 0.319715
vt 0.126667 0.300209
vt 0.167568 0.341235
vt 0.168228 0.319408
vt 0.167126 0.341276
vt 0.167785 0.319476
vt 0.020062 0.128053
vt 0.020062 0.151650
vt 0.027199 0.417962
vt 0.027535 0.394340
vt 0.026732 0.417941
vt 0.027068 0.394347
vt 0.026369 0.417902
vt 0.026704 0.394376
vt 0.167232 0.364405
vt 0.166790 0.364419
vt 0.024264 0.104910
vt 0.026284 0.441122
vt 0.025818 0.441074
vt 0.025458 0.440967
vt 0.122613 0.364316
vt 0.123149 0.341150
vt 0.122171 0.364327
vt 0.122706 0.341187
vt 0.118648 0.020062
vt 0.097520 0.024665
vt 0.167232 0.388030
vt 0.166790 0.388016
vt 0.032508 0.083110
vt 0.024826 0.462930
vt 0.024361 0.462856
vt 0.024005 0.462686
vt 0.122409 0.387940
vt 0.121968 0.387922
vt 0.140189 0.020062
vt 0.167568 0.411200
vt 0.167126 0.411159
vt 0.044475 0.063490
vt 0.022880 0.482547
vt 0.022418 0.482450
vt 0.022067 0.482223
vt 0.122546 0.411113
vt 0.122104 0.411068
vt 0.161316 0.024665
vt 0.168228 0.433027
vt 0.167785 0.432959
vt 0.059708 0.046805
vt 0.020973 0.499147
vt 0.020521 0.499220
vt 0.020062 0.499103
vt 0.140189 0.259642
vt 0.161316 0.255038
vt 0.123017 0.432944
vt 0.122575 0.432873
vt 0.122279 0.432705
vt 0.121809 0.410963
vt 0.169653 0.452604
vt 0.169186 0.452670
vt 0.168742 0.452579
vt 0.077619 0.033695
vt 0.077649 0.452495
vt 0.074251 0.469382
vt 0.078055 0.452385
vt 0.074661 0.469252
vt 0.118648 0.259642
vt 0.123806 0.452595
vt 0.123363 0.452500
vt 0.199129 0.046805
vt 0.181218 0.033695
vt 0.123996 0.319330
vt 0.123553 0.319393
vt 0.080007 0.432716
vt 0.080410 0.432630
vt 0.097520 0.255038
vt 0.124881 0.469309
vt 0.124437 0.469195
vt 0.214361 0.063490
vt 0.081234 0.410806
vt 0.081636 0.410746
vt 0.077619 0.246008
vt 0.126667 0.482359
vt 0.126201 0.482446
vt 0.125755 0.482317
vt 0.226329 0.083110
vt 0.081284 0.387607
vt 0.081686 0.387573
vt 0.059708 0.232899
vt 0.023622 0.313011
vt 0.023173 0.312925
vt 0.020866 0.299765
vt 0.021317 0.299863
vt 0.022710 0.313028
vt 0.020406 0.299884
vt 0.022359 0.313294
vt 0.020062 0.300188
vt 0.080154 0.364009
vt 0.080557 0.364004
vt 0.044475 0.216214
vt 0.025504 0.329730
vt 0.025056 0.329658
vt 0.024591 0.329742
vt 0.024235 0.329959
vt 0.077888 0.340921
vt 0.078293 0.340943
vt 0.032508 0.196594
vt 0.026443 0.349323
vt 0.025977 0.349384
vt 0.025616 0.349543
vt 0.074572 0.319228
vt 0.074982 0.319276
vt 0.024264 0.174793
vt 0.027280 0.371163
vt 0.026813 0.371198
vt 0.026450 0.371295
vt 0.070335 0.299765
vt 0.168742 0.299856
vt 0.169185 0.299765
vt 0.392921 0.132987
vt 0.389662 0.133554
vt 0.386591 0.134724
vt 0.402575 0.134994
vt 0.399504 0.133721
vt 0.396245 0.133043
vt 0.410806 0.154214
vt 0.411454 0.151095
vt 0.411454 0.147904
vt 0.410806 0.144763
vt 0.409534 0.141794
vt 0.407688 0.139109
vt 0.405338 0.136813
vt 0.383828 0.136450
vt 0.381478 0.138666
vt 0.379632 0.141288
vt 0.378360 0.144215
vt 0.377712 0.147334
vt 0.377712 0.150525
vt 0.378360 0.153665
vt 0.379632 0.156635
vt 0.381478 0.159319
vt 0.383828 0.161615
vt 0.386591 0.163435
vt 0.389662 0.164708
vt 0.392921 0.165385
vt 0.396245 0.165442
vt 0.399504 0.164874
vt 0.402575 0.163705
vt 0.405338 0.161979
vt 0.407688 0.159762
vt 0.409534 0.157140
vt 0.322888 0.727873
vt 0.307704 0.727873
vt 0.308024 0.724797
vt 0.323208 0.724797
vt 0.195039 0.727761
vt 0.210685 0.727761
vt 0.210820 0.730529
vt 0.195174 0.730529
vt 0.194898 0.718091
vt 0.210544 0.718091
vt 0.210544 0.721420
vt 0.194898 0.721420
vt 0.308188 0.721532
vt 0.323371 0.721532
vt 0.308188 0.718202
vt 0.323371 0.718202
vt 0.308024 0.714937
vt 0.323208 0.714937
vt 0.307704 0.711861
vt 0.322888 0.711861
vt 0.471005 0.709093
vt 0.486651 0.709093
vt 0.486516 0.711861
vt 0.470870 0.711861
vt 0.486423 0.714937
vt 0.470777 0.714937
vt 0.486376 0.718202
vt 0.470730 0.718202
vt 0.486376 0.721532
vt 0.470730 0.721532
vt 0.486423 0.724797
vt 0.470777 0.724797
vt 0.195039 0.711750
vt 0.210685 0.711750
vt 0.210592 0.714825
vt 0.194946 0.714825
vt 0.486516 0.727872
vt 0.470870 0.727872
vt 0.194946 0.724685
vt 0.210592 0.724685
vt 0.486651 0.730641
vt 0.471005 0.730641
vt 0.210992 0.732883
vt 0.195345 0.732883
vt 0.211194 0.734733
vt 0.195547 0.734733
vt 0.073749 0.709093
vt 0.089308 0.709288
vt 0.089637 0.711142
vt 0.074077 0.710947
vt 0.089906 0.713499
vt 0.074346 0.713305
vt 0.090106 0.716270
vt 0.074547 0.716076
vt 0.090230 0.719348
vt 0.074670 0.719153
vt 0.090271 0.722614
vt 0.074711 0.722419
vt 0.090230 0.725943
vt 0.074670 0.725748
vt 0.090106 0.729207
vt 0.074547 0.729012
vt 0.089906 0.732280
vt 0.074346 0.732085
vt 0.089637 0.735045
vt 0.074077 0.734850
vt 0.089308 0.737395
vt 0.073749 0.737201
vt 0.321830 0.732995
vt 0.306647 0.732995
vt 0.307239 0.730641
vt 0.322422 0.730641
vt 0.664019 0.506585
vt 0.663365 0.506575
vt 0.663990 0.503572
vt 0.664618 0.503703
vt 0.211721 0.718155
vt 0.211209 0.718108
vt 0.211256 0.714877
vt 0.211767 0.715016
vt 0.664019 0.509524
vt 0.663365 0.509637
vt 0.211721 0.721355
vt 0.211209 0.721403
vt 0.664618 0.512407
vt 0.663990 0.512640
vt 0.211767 0.724494
vt 0.211256 0.724634
vt 0.665794 0.515122
vt 0.665214 0.515469
vt 0.664790 0.515825
vt 0.663529 0.512913
vt 0.211348 0.727678
vt 0.667500 0.517566
vt 0.666992 0.518016
vt 0.666621 0.518446
vt 0.211482 0.730417
vt 0.669672 0.519644
vt 0.669255 0.520181
vt 0.668950 0.520675
vt 0.211652 0.732747
vt 0.672226 0.521277
vt 0.671916 0.521882
vt 0.671690 0.522427
vt 0.211851 0.734577
vt 0.675064 0.522402
vt 0.674873 0.523054
vt 0.674734 0.523633
vt 0.674683 0.523984
vt 0.671607 0.522765
vt 0.678077 0.522975
vt 0.678012 0.523651
vt 0.677965 0.524248
vt 0.090536 0.713619
vt 0.090269 0.711286
vt 0.681148 0.522975
vt 0.681213 0.523651
vt 0.681260 0.524248
vt 0.090734 0.716361
vt 0.684161 0.522402
vt 0.684352 0.523054
vt 0.684491 0.523633
vt 0.090856 0.719407
vt 0.686999 0.521277
vt 0.687308 0.521882
vt 0.687535 0.522427
vt 0.090897 0.722639
vt 0.689553 0.519644
vt 0.689969 0.520181
vt 0.690274 0.520676
vt 0.090856 0.725933
vt 0.691725 0.517566
vt 0.692232 0.518016
vt 0.692604 0.518446
vt 0.090734 0.729163
vt 0.693431 0.515122
vt 0.694010 0.515469
vt 0.694435 0.515825
vt 0.090536 0.732205
vt 0.694607 0.512407
vt 0.695235 0.512640
vt 0.695695 0.512913
vt 0.090269 0.734941
vt 0.695206 0.509524
vt 0.695860 0.509637
vt 0.696338 0.509821
vt 0.089944 0.737267
vt 0.695206 0.506585
vt 0.695860 0.506575
vt 0.696338 0.506669
vt 0.306572 0.730529
vt 0.305986 0.732859
vt 0.694607 0.503703
vt 0.695235 0.503572
vt 0.306462 0.727563
vt 0.307032 0.727790
vt 0.306015 0.730224
vt 0.693431 0.500988
vt 0.694010 0.500742
vt 0.306771 0.724606
vt 0.307349 0.724746
vt 0.691725 0.498544
vt 0.692232 0.498196
vt 0.306928 0.721467
vt 0.307511 0.721514
vt 0.689553 0.496466
vt 0.689969 0.496031
vt 0.306928 0.718267
vt 0.307511 0.718220
vt 0.686999 0.494833
vt 0.687308 0.494330
vt 0.306771 0.715128
vt 0.307349 0.714988
vt 0.684161 0.493708
vt 0.684352 0.493158
vt 0.306462 0.712171
vt 0.307032 0.711944
vt 0.681148 0.493135
vt 0.681213 0.492561
vt 0.306015 0.709510
vt 0.306572 0.709205
vt 0.307239 0.709093
vt 0.678077 0.493135
vt 0.678012 0.492561
vt 0.487598 0.715128
vt 0.487088 0.714988
vt 0.487180 0.711944
vt 0.487688 0.712171
vt 0.675064 0.493708
vt 0.674873 0.493158
vt 0.487553 0.718267
vt 0.487041 0.718220
vt 0.672226 0.494833
vt 0.671916 0.494330
vt 0.487553 0.721467
vt 0.487041 0.721514
vt 0.669672 0.496466
vt 0.669255 0.496031
vt 0.487598 0.724606
vt 0.487088 0.724746
vt 0.667500 0.498544
vt 0.666992 0.498196
vt 0.487688 0.727563
vt 0.487180 0.727790
vt 0.665794 0.500988
vt 0.665214 0.500742
vt 0.211856 0.712059
vt 0.211348 0.711833
vt 0.211482 0.709093
vt 0.211986 0.709398
vt 0.487313 0.730529
s 1
usemtl black_paint
f 1/1/1 2/2/1 3/3/1 4/4/1 5/5/1 6/6/1 7/7/1 8/8/1 9/9/1 10/10/1 11/11/1 12/12/1 13/13/1 14/14/1 15/15/1 16/16/1 17/17/1 18/18/1 19/19/1 20/20/1 21/21/1 22/22/1 23/23/1 24/24/1 25/25/1 26/26/1 27/27/1 28/28/1 29/29/1 30/30/1 31/31/1 32/32/1
f 13/33/2 45/34/2 46/35/3 14/36/3
f 27/37/4 59/38/4 60/39/5 28/40/5
f 14/36/3 46/35/3 47/41/6 15/42/6
f 1/43/7 34/44/7 33/45/8 2/46/8
f 28/40/5 60/39/5 61/47/9 29/48/9
f 15/42/6 47/41/6 48/49/10 16/50/10
f 2/46/8 33/45/8 35/51/11 3/52/11
f 29/48/9 61/47/9 62/53/12 30/54/12
f 16/50/10 48/49/10 49/55/13 17/56/13
f 3/52/11 35/51/11 36/57/14 4/58/14
f 30/54/12 62/53/12 63/59/15 31/60/15
f 17/56/13 49/55/13 50/61/16 18/62/16
f 4/58/14 36/57/14 37/63/17 5/64/17
f 31/65/15 63/66/15 64/67/18 32/68/18
f 18/69/16 50/70/16 51/71/19 19/72/19
f 5/64/17 37/63/17 38/73/20 6/74/20
f 32/68/18 64/67/18 34/44/7 1/43/7
f 19/72/19 51/71/19 52/75/21 20/76/21
f 6/74/20 38/73/20 39/77/22 7/78/22
f 20/76/21 52/75/21 53/79/23 21/80/23
f 7/78/22 39/77/22 40/81/24 8/82/24
f 21/80/23 53/79/23 54/83/25 22/84/25
f 8/85/24 40/86/24 41/87/26 9/88/26
f 22/84/25 54/83/25 55/89/27 23/90/27
f 9/88/26 41/87/26 42/91/28 10/92/28
f 23/90/27 55/89/27 56/93/29 24/94/29
f 10/92/28 42/91/28 43/95/30 11/96/30
f 24/94/29 56/93/29 57/97/31 25/98/31
f 11/96/30 43/95/30 44/99/32 12/100/32
f 25/101/31 57/102/31 58/103/33 26/104/33
f 12/100/32 44/99/32 45/34/2 13/33/2
f 26/104/33 58/103/33 59/38/4 27/37/4
f 41/105/1 40/106/1 72/107/1 73/108/1 74/109/1 42/110/1
f 43/111/1 42/110/1 74/109/1 75/112/1 76/113/1 77/114/1 78/115/1 79/116/1 80/117/1 81/118/1 82/119/1 83/120/1 84/121/1 85/122/1 86/123/1 87/124/1 88/125/1 89/126/1 90/127/1 91/128/1 92/129/1 93/130/1 94/131/1 95/132/1 96/133/1 66/134/1 65/135/1 67/136/1 68/137/1 69/138/1 70/139/1 71/140/1 72/107/1 40/106/1 39/141/1 38/142/1 37/143/1 36/144/1 35/145/1 33/146/1 34/147/1 64/148/1 63/149/1 62/150/1 61/151/1 60/152/1 59/153/1 58/154/1 57/155/1 56/156/1 55/157/1 54/158/1 53/159/1 52/160/1 51/161/1 50/162/1 49/163/1 48/164/1 47/165/1 46/166/1 45/167/1 44/168/1
f 85/169/23 84/170/21 404/171/21 405/172/23
f 72/173/24 71/174/22 391/175/22 392/176/24
f 86/177/25 85/169/23 405/172/23 406/178/25
f 73/179/26 72/180/24 392/181/24 393/182/26
f 87/183/27 86/177/25 406/178/25 407/184/27
f 74/185/28 73/179/26 393/182/26 394/186/28
f 88/187/29 87/183/27 407/184/27 408/188/29
f 75/189/30 74/185/28 394/186/28 395/190/30
f 89/191/31 88/187/29 408/188/29 409/192/31
f 76/193/32 75/189/30 395/190/30 396/194/32
f 90/195/33 89/196/31 409/197/31 410/198/33
f 77/199/2 76/193/32 396/194/32 397/200/2
f 91/201/4 90/195/33 410/198/33 411/202/4
f 78/203/3 77/199/2 397/200/2 398/204/3
f 92/205/5 91/201/4 411/202/4 412/206/5
f 79/207/6 78/203/3 398/204/3 399/208/6
f 65/209/8 66/210/7 386/211/7 385/212/8
f 93/213/9 92/205/5 412/206/5 413/214/9
f 80/215/10 79/207/6 399/208/6 400/216/10
f 67/217/11 65/209/8 385/212/8 387/218/11
f 94/219/12 93/213/9 413/214/9 414/220/12
f 81/221/13 80/215/10 400/216/10 401/222/13
f 68/223/14 67/217/11 387/218/11 388/224/14
f 95/225/15 94/219/12 414/220/12 415/226/15
f 82/227/16 81/221/13 401/222/13 402/228/16
f 69/229/17 68/223/14 388/224/14 389/230/17
f 96/231/18 95/232/15 415/233/15 416/234/18
f 83/235/19 82/236/16 402/237/16 403/238/19
f 70/239/20 69/229/17 389/230/17 390/240/20
f 66/210/7 96/231/18 416/234/18 386/211/7
f 84/170/21 83/235/19 403/238/19 404/171/21
f 71/174/22 70/239/20 390/240/20 391/175/22
f 237/241/34 274/242/35 258/243/36 233/244/37
f 185/245/38 278/246/39 266/247/40 181/248/41
f 241/249/42 290/250/43 274/242/35 237/241/34
f 189/251/44 294/252/45 278/246/39 185/245/38
f 137/253/46 298/254/47 282/255/48 129/256/49
f 245/257/50 302/258/51 290/250/43 241/249/42
f 193/259/52 306/260/53 294/252/45 189/251/44
f 249/265/58 314/266/59 302/258/51 245/257/50
f 197/267/60 318/268/61 306/269/53 193/270/52
f 145/271/62 322/272/63 310/273/64 141/274/65
f 253/275/66 326/276/67 314/277/59 249/278/58
f 201/279/68 330/280/69 318/268/61 197/267/60
f 149/281/70 334/282/71 322/272/63 145/271/62
f 101/283/72 97/284/73 257/285/74 273/286/75
f 205/287/76 338/288/77 330/280/69 201/279/68
f 153/289/78 342/290/79 334/282/71 149/281/70
f 141/274/65 310/273/64 298/254/47 137/253/46
f 209/291/80 346/292/81 338/288/77 205/287/76
f 157/293/82 350/294/83 342/295/79 153/296/78
f 213/297/84 354/298/85 346/292/81 209/291/80
f 161/299/86 358/300/87 350/294/83 157/293/82
f 217/301/88 362/302/89 354/298/85 213/297/84
f 165/303/90 366/304/91 358/300/87 161/299/86
f 221/305/92 370/306/93 362/302/89 217/301/88
f 169/307/94 374/308/95 366/304/91 165/303/90
f 225/309/96 378/310/97 370/306/93 221/305/92
f 173/311/98 382/312/99 374/313/95 169/314/94
f 229/315/100 261/316/101 378/310/97 225/309/96
f 177/317/102 269/318/103 382/312/99 173/311/98
f 233/244/37 258/243/36 261/319/101 229/320/100
f 181/248/41 266/247/40 269/318/103 177/317/102
f 98/321/104 127/322/105 377/323/106 262/324/107
f 100/325/108 128/326/109 381/327/110 270/328/111
f 97/284/73 98/321/104 262/324/107 257/285/74
f 99/329/112 100/325/108 270/328/111 265/330/113
f 104/331/114 114/332/115 325/333/116 286/334/117
f 106/335/118 102/336/119 277/337/120 293/338/121
f 107/339/122 103/340/123 281/341/124 297/342/125
f 103/340/123 104/331/114 286/334/117 281/341/124
f 109/343/126 106/335/118 293/338/121 305/344/127
f 110/345/128 107/339/122 297/342/125 309/346/129
f 111/347/130 108/348/131 301/349/132 313/350/133
f 112/351/134 109/343/126 305/344/127 317/352/135
f 113/353/136 110/345/128 309/346/129 321/354/137
f 114/332/115 111/347/130 313/350/133 325/333/116
f 115/355/138 112/351/134 317/352/135 329/356/139
f 116/357/140 113/353/136 321/354/137 333/358/141
f 117/359/142 115/355/138 329/356/139 337/360/143
f 108/348/131 105/361/144 289/362/145 301/349/132
f 118/363/146 116/357/140 333/358/141 341/364/147
f 119/365/148 117/359/142 337/360/143 345/366/149
f 120/367/150 118/363/146 341/364/147 349/368/151
f 121/369/152 119/365/148 345/366/149 353/370/153
f 122/371/154 120/367/150 349/368/151 357/372/155
f 123/373/156 121/369/152 353/370/153 361/374/157
f 124/375/158 122/371/154 357/372/155 365/376/159
f 125/377/160 123/373/156 361/374/157 369/378/161
f 126/379/162 124/375/158 365/376/159 373/380/163
f 127/322/105 125/377/160 369/378/161 377/323/106
f 128/326/109 126/379/162 373/380/163 381/327/110
f 102/336/119 99/329/112 265/330/113 277/337/120
f 105/361/144 101/283/72 273/286/75 289/362/145
f 103/340/123 107/339/122 110/345/128 113/353/136 116/357/140 118/363/146 120/367/150 122/371/154 124/375/158 126/379/162 128/326/109 100/325/108 99/329/112 102/336/119 106/335/118 109/343/126 112/351/134 115/355/138 117/359/142 119/365/148 121/369/152 123/373/156 125/377/160 127/322/105 98/321/104 97/284/73 101/283/72 105/361/144 108/348/131 111/347/130 114/332/115 104/331/114
f 134/421/204 285/422/205 326/276/67 253/275/66
f 130/262/55 132/443/226 135/444/227 133/263/56
f 132/443/228 131/445/228 136/446/229 135/444/229
f 131/447/230 129/256/49 134/421/204 136/448/231
f 138/416/199 140/449/232 132/443/226 130/262/55
f 140/449/233 139/450/233 131/445/228 132/443/228
f 139/451/234 137/253/46 129/256/49 131/447/230
f 142/428/211 144/452/235 140/449/232 138/416/199
f 144/452/236 143/453/236 139/450/233 140/449/233
f 143/454/237 141/274/65 137/253/46 139/451/234
f 146/434/217 148/455/238 144/452/235 142/428/211
f 148/455/239 147/456/239 143/453/236 144/452/236
f 147/457/240 145/271/62 141/274/65 143/454/237
f 150/440/223 152/458/241 148/455/238 146/434/217
f 152/458/242 151/459/242 147/456/239 148/455/239
f 151/459/243 149/460/70 145/461/62 147/456/240
f 154/383/166 156/462/244 152/458/241 150/440/223
f 156/462/245 155/463/245 151/459/242 152/458/242
f 155/463/246 153/296/78 149/460/70 151/459/243
f 158/382/165 160/464/247 156/462/244 154/383/166
f 160/464/248 159/465/248 155/463/245 156/462/245
f 159/465/249 157/293/82 153/296/78 155/463/246
f 162/390/173 164/466/250 160/464/247 158/382/165
f 164/466/251 163/467/251 159/465/248 160/464/248
f 163/467/252 161/299/86 157/293/82 159/465/249
f 166/394/177 168/468/253 164/466/250 162/390/173
f 168/468/254 167/469/254 163/467/251 164/466/251
f 167/469/255 165/303/90 161/299/86 163/467/252
f 170/398/181 172/470/256 168/468/253 166/394/177
f 172/470/257 171/471/257 167/469/254 168/468/254
f 171/471/258 169/307/94 165/303/90 167/469/255
f 174/402/185 176/472/259 172/470/256 170/398/181
f 176/472/260 175/473/260 171/471/257 172/470/257
f 175/473/261 173/474/98 169/307/94 171/471/258
f 178/406/189 180/475/262 176/472/259 174/402/185
f 180/475/263 179/476/263 175/473/260 176/472/260
f 179/476/264 177/477/102 173/474/98 175/473/261
f 182/410/193 184/478/265 180/475/262 178/406/189
f 184/478/266 183/479/266 179/476/263 180/475/263
f 183/479/267 181/480/41 177/477/102 179/476/264
f 186/414/197 188/481/268 184/478/265 182/410/193
f 188/481/269 187/482/269 183/479/266 184/478/266
f 187/482/270 185/483/38 181/480/41 183/479/267
f 190/420/203 192/484/271 188/481/268 186/414/197
f 192/484/272 191/485/272 187/482/269 188/481/269
f 191/485/273 189/486/44 185/483/38 187/482/270
f 194/426/209 196/487/274 192/484/271 190/420/203
f 196/487/275 195/488/275 191/485/272 192/484/272
f 195/488/276 193/489/52 189/486/44 191/485/273
f 198/432/215 200/490/277 196/487/274 194/426/209
f 200/490/278 199/491/278 195/488/275 196/487/275
f 199/491/279 197/492/60 193/489/52 195/488/276
f 202/438/221 204/493/280 200/490/277 198/432/215
f 204/493/281 203/494/281 199/491/278 200/490/278
f 203/495/282 201/279/68 197/267/60 199/496/279
f 206/442/225 208/497/283 204/493/280 202/438/221
f 208/497/284 207/498/284 203/494/281 204/493/281
f 207/499/285 205/287/76 201/279/68 203/495/282
f 210/387/170 212/500/286 208/497/283 206/442/225
f 212/500/287 211/501/287 207/498/284 208/497/284
f 211/502/288 209/291/80 205/287/76 207/499/285
f 214/386/169 216/503/289 212/500/286 210/387/170
f 216/503/290 215/504/290 211/501/287 212/500/287
f 215/505/291 213/297/84 209/291/80 211/502/288
f 218/392/175 220/506/292 216/503/289 214/386/169
f 220/506/293 219/507/293 215/504/290 216/503/290
f 219/508/294 217/301/88 213/297/84 215/505/291
f 222/396/179 224/509/295 220/506/292 218/392/175
f 224/509/296 223/510/296 219/507/293 220/506/293
f 223/511/297 221/305/92 217/301/88 219/508/294
f 226/400/183 228/512/298 224/509/295 222/396/179
f 228/512/299 227/513/299 223/510/296 224/509/296
f 227/514/300 225/309/96 221/305/92 223/511/297
f 230/404/187 232/515/301 228/512/298 226/400/183
f 232/515/302 231/516/302 227/513/299 228/512/299
f 231/517/303 229/315/100 225/309/96 227/514/300
f 234/408/191 236/518/304 232/515/301 230/404/187
f 236/518/305 235/519/305 231/516/302 232/515/302
f 235/520/306 233/244/37 229/320/100 231/521/303
f 238/412/195 240/522/307 236/518/304 234/408/191
f 240/522/308 239/523/308 235/519/305 236/518/305
f 239/524/309 237/241/34 233/244/37 235/520/306
f 242/418/201 244/525/310 240/522/307 238/412/195
f 244/525/311 243/526/311 239/523/308 240/522/308
f 243/527/312 241/249/42 237/241/34 239/524/309
f 246/424/207 248/528/313 244/525/310 242/418/201
f 248/528/314 247/529/314 243/526/311 244/525/311
f 247/530/315 245/257/50 241/249/42 243/527/312
f 250/430/213 252/531/316 248/528/313 246/424/207
f 252/531/317 251/532/317 247/529/314 248/528/314
f 251/533/318 249/265/58 245/257/50 247/530/315
f 254/436/219 256/534/319 252/531/316 250/430/213
f 256/534/320 255/535/320 251/532/317 252/531/317
f 255/536/321 253/275/66 249/278/58 251/537/318
f 133/263/56 135/444/227 256/534/319 254/436/219
f 135/444/229 136/446/229 255/535/320 256/534/320
f 136/448/231 134/421/204 253/275/66 255/536/321
f 258/243/36 260/538/322 263/539/323 261/319/101
f 260/538/322 259/540/324 264/541/325 263/539/323
f 259/542/324 257/285/74 262/324/107 264/543/325
f 266/247/40 268/544/326 271/545/327 269/318/103
f 268/544/326 267/546/328 272/547/329 271/545/327
f 267/546/328 265/548/113 270/549/111 272/547/329
f 274/242/35 276/550/330 260/538/322 258/243/36
f 276/550/330 275/551/331 259/540/324 260/538/322
f 275/552/331 273/286/75 257/285/74 259/542/324
f 278/246/39 280/553/332 268/544/326 266/247/40
f 280/553/332 279/554/333 267/546/328 268/544/326
f 279/554/333 277/555/120 265/548/113 267/546/328
f 282/255/48 284/556/334 287/557/335 285/422/205
f 284/556/334 283/558/336 288/559/337 287/557/335
f 283/560/336 281/341/124 286/334/117 288/561/337
f 290/250/43 292/562/338 276/550/330 274/242/35
f 292/562/338 291/563/339 275/551/331 276/550/330
f 291/564/339 289/362/145 273/286/75 275/552/331
f 294/252/45 296/565/340 280/553/332 278/246/39
f 296/565/340 295/566/341 279/554/333 280/553/332
f 295/566/341 293/567/121 277/555/120 279/554/333
f 298/254/47 300/568/342 284/556/334 282/255/48
f 300/568/342 299/569/343 283/558/336 284/556/334
f 299/570/343 297/342/125 281/341/124 283/560/336
f 302/258/51 304/571/344 292/562/338 290/250/43
f 304/571/344 303/572/345 291/563/339 292/562/338
f 303/573/345 301/349/132 289/362/145 291/564/339
f 306/260/53 308/574/346 296/565/340 294/252/45
f 308/574/346 307/575/347 295/566/341 296/565/340
f 307/575/347 305/576/127 293/567/121 295/566/341
f 310/273/64 312/577/348 300/568/342 298/254/47
f 312/577/348 311/578/349 299/569/343 300/568/342
f 311/579/349 309/346/129 297/342/125 299/570/343
f 314/266/59 316/580/350 304/571/344 302/258/51
f 316/580/350 315/581/351 303/572/345 304/571/344
f 315/582/351 313/350/133 301/349/132 303/573/345
f 318/583/61 320/584/352 308/574/346 306/260/53
f 320/584/352 319/585/353 307/575/347 308/574/346
f 319/586/353 317/352/135 305/344/127 307/587/347
f 322/272/63 324/588/354 312/577/348 310/273/64
f 324/588/354 323/589/355 311/578/349 312/577/348
f 323/589/355 321/590/137 309/591/129 311/578/349
f 326/592/67 328/593/356 316/580/350 314/266/59
f 328/593/356 327/594/357 315/581/351 316/580/350
f 327/595/357 325/333/116 313/350/133 315/582/351
f 330/280/69 332/596/358 320/597/352 318/268/61
f 332/596/358 331/598/359 319/599/353 320/597/352
f 331/600/359 329/356/139 317/352/135 319/586/353
f 334/282/71 336/601/360 324/588/354 322/272/63
f 336/601/360 335/602/361 323/589/355 324/588/354
f 335/603/361 333/358/141 321/354/137 323/604/355
f 285/422/205 287/557/335 328/605/356 326/276/67
f 287/557/335 288/559/337 327/606/357 328/605/356
f 288/561/337 286/334/117 325/333/116 327/595/357
f 338/288/77 340/607/362 332/596/358 330/280/69
f 340/607/362 339/608/363 331/598/359 332/596/358
f 339/609/363 337/360/143 329/356/139 331/600/359
f 342/290/79 344/610/364 336/601/360 334/282/71
f 344/610/364 343/611/365 335/602/361 336/601/360
f 343/612/365 341/364/147 333/358/141 335/603/361
f 346/292/81 348/613/366 340/607/362 338/288/77
f 348/613/366 347/614/367 339/608/363 340/607/362
f 347/615/367 345/366/149 337/360/143 339/609/363
f 350/616/83 352/617/368 344/610/364 342/290/79
f 352/617/368 351/618/369 343/611/365 344/610/364
f 351/619/369 349/368/151 341/364/147 343/612/365
f 354/298/85 356/620/370 348/613/366 346/292/81
f 356/620/370 355/621/371 347/614/367 348/613/366
f 355/622/371 353/370/153 345/366/149 347/615/367
f 358/623/87 360/624/372 352/625/368 350/626/83
f 360/624/372 359/627/373 351/628/369 352/625/368
f 359/627/373 357/629/155 349/630/151 351/628/369
f 362/302/89 364/631/374 356/620/370 354/298/85
f 364/631/374 363/632/375 355/621/371 356/620/370
f 363/633/375 361/374/157 353/370/153 355/622/371
f 366/634/91 368/635/376 360/624/372 358/623/87
f 368/635/376 367/636/377 359/627/373 360/624/372
f 367/636/377 365/637/159 357/629/155 359/627/373
f 370/306/93 372/638/378 364/631/374 362/302/89
f 372/638/378 371/639/379 363/632/375 364/631/374
f 371/640/379 369/378/161 361/374/157 363/633/375
f 374/313/95 376/641/380 368/635/376 366/634/91
f 376/641/380 375/642/381 367/636/377 368/635/376
f 375/642/381 373/643/163 365/637/159 367/636/377
f 378/310/97 380/644/382 372/638/378 370/306/93
f 380/644/382 379/645/383 371/639/379 372/638/378
f 379/646/383 377/323/106 369/378/161 371/640/379
f 382/312/99 384/647/384 376/641/380 374/313/95
f 384/647/384 383/648/385 375/642/381 376/641/380
f 383/648/385 381/649/110 373/643/163 375/642/381
f 261/316/101 263/650/323 380/644/382 378/310/97
f 263/539/323 264/541/325 379/651/383 380/652/382
f 264/543/325 262/324/107 377/323/106 379/646/383
f 269/318/103 271/545/327 384/647/384 382/312/99
f 271/545/327 272/547/329 383/648/385 384/647/384
f 272/547/329 270/549/111 381/649/110 383/648/385
f 129/256/49 282/255/48 285/422/205 134/421/204
f 436/685/21 525/686/387 529/687/388 437/688/23
f 421/689/17 465/690/389 469/691/390 422/692/20
f 417/693/8 449/694/391 457/695/392 419/696/11
f 437/688/23 529/687/388 533/697/393 438/698/25
f 438/698/25 533/697/393 537/699/394 439/700/27
f 439/700/27 537/699/394 541/701/395 440/702/29
f 440/702/29 541/701/395 545/703/396 441/704/31
f 441/705/31 545/706/396 549/707/397 442/708/33
f 442/708/33 549/707/397 553/709/398 443/710/4
f 443/710/4 553/709/398 557/711/399 444/712/5
f 444/712/5 557/711/399 561/713/400 445/714/9
f 445/714/9 561/713/400 565/715/401 446/716/12
f 448/717/18 573/718/402 454/719/403 418/720/7
f 446/716/12 565/715/401 569/721/404 447/722/15
f 420/723/14 461/724/405 465/690/389 421/689/17
f 447/722/15 569/721/404 573/725/402 448/726/18
f 422/692/20 469/691/390 473/727/406 423/728/22
f 419/696/11 457/695/392 461/724/405 420/723/14
f 423/728/22 473/727/406 477/729/407 424/730/24
f 424/731/24 477/732/407 481/733/408 425/734/26
f 425/734/26 481/733/408 485/735/409 426/736/28
f 426/736/28 485/735/409 489/737/410 427/738/30
f 427/738/30 489/737/410 493/739/411 428/740/32
f 428/740/32 493/739/411 497/741/412 429/742/2
f 429/742/2 497/741/412 501/743/413 430/744/3
f 430/744/3 501/743/413 505/745/414 431/746/6
f 431/746/6 505/745/414 509/747/415 432/748/10
f 432/748/10 509/747/415 513/749/416 433/750/13
f 433/750/13 513/749/416 517/751/417 434/752/16
f 434/753/16 517/754/417 521/755/418 435/756/19
f 435/756/19 521/755/418 525/686/387 436/685/21
f 450/757/419 452/758/420 455/759/421 453/760/422
f 452/761/423 451/762/424 456/763/425 455/764/426
f 451/762/424 449/694/391 454/719/403 456/763/425
f 458/765/427 460/766/428 452/758/420 450/757/419
f 460/767/429 459/768/430 451/762/424 452/761/423
f 459/768/430 457/695/392 449/694/391 451/762/424
f 462/769/431 464/770/432 460/766/428 458/765/427
f 464/771/433 463/772/434 459/768/430 460/767/429
f 463/772/434 461/724/405 457/695/392 459/768/430
f 466/773/435 468/774/436 464/770/432 462/769/431
f 468/774/437 467/775/438 463/776/434 464/770/433
f 467/777/438 465/690/389 461/724/405 463/772/434
f 470/778/439 472/779/440 468/774/436 466/773/435
f 472/779/441 471/780/442 467/775/438 468/774/437
f 471/781/442 469/691/390 465/690/389 467/777/438
f 474/782/443 476/783/444 472/779/440 470/778/439
f 476/783/445 475/784/446 471/780/442 472/779/441
f 475/785/446 473/727/406 469/691/390 471/781/442
f 478/786/447 480/787/448 476/783/444 474/782/443
f 480/787/449 479/788/450 475/784/446 476/783/445
f 479/789/450 477/729/407 473/727/406 475/785/446
f 482/790/451 484/791/452 480/787/448 478/786/447
f 484/791/453 483/792/454 479/788/450 480/787/449
f 483/792/454 481/793/408 477/794/407 479/788/450
f 486/795/455 488/796/456 484/791/452 482/790/451
f 488/796/457 487/797/458 483/792/454 484/791/453
f 487/798/458 485/735/409 481/733/408 483/799/454
f 490/800/459 492/801/460 488/796/456 486/795/455
f 492/801/461 491/802/462 487/797/458 488/796/457
f 491/803/462 489/737/410 485/735/409 487/798/458
f 494/804/463 496/805/464 492/801/460 490/800/459
f 496/805/465 495/806/466 491/802/462 492/801/461
f 495/807/466 493/739/411 489/737/410 491/803/462
f 498/808/467 500/809/468 496/805/464 494/804/463
f 500/809/469 499/810/470 495/806/466 496/805/465
f 499/811/470 497/741/412 493/739/411 495/807/466
f 502/812/471 504/813/472 500/809/468 498/808/467
f 504/813/473 503/814/474 499/810/470 500/809/469
f 503/815/474 501/743/413 497/741/412 499/811/470
f 506/816/475 508/817/476 504/813/472 502/812/471
f 508/817/477 507/818/478 503/814/474 504/813/473
f 507/819/478 505/745/414 501/743/413 503/815/474
f 510/820/479 512/821/480 508/817/476 506/816/475
f 512/821/481 511/822/482 507/818/478 508/817/477
f 511/823/482 509/747/415 505/745/414 507/819/478
f 514/824/483 516/825/484 512/821/480 510/820/479
f 516/825/485 515/826/486 511/822/482 512/821/481
f 515/827/486 513/749/416 509/747/415 511/823/482
f 518/828/487 520/829/488 516/825/484 514/824/483
f 520/829/489 519/830/490 515/826/486 516/825/485
f 519/831/490 517/751/417 513/749/416 515/827/486
f 522/832/491 524/833/492 520/829/488 518/828/487
f 524/833/493 523/834/494 519/830/490 520/829/489
f 523/835/494 521/755/418 517/754/417 519/836/490
f 526/837/495 528/838/496 524/833/492 522/832/491
f 528/839/497 527/840/498 523/835/494 524/841/493
f 527/840/498 525/686/387 521/755/418 523/835/494
f 530/842/499 532/843/500 528/838/496 526/837/495
f 532/844/501 531/845/502 527/840/498 528/839/497
f 531/845/502 529/687/388 525/686/387 527/840/498
f 534/846/503 536/847/504 532/843/500 530/842/499
f 536/848/505 535/849/506 531/845/502 532/844/501
f 535/849/506 533/697/393 529/687/388 531/845/502
f 538/850/507 540/851/508 536/847/504 534/846/503
f 540/852/509 539/853/510 535/849/506 536/848/505
f 539/853/510 537/699/394 533/697/393 535/849/506
f 542/854/511 544/855/512 540/851/508 538/850/507
f 544/856/513 543/857/514 539/853/510 540/852/509
f 543/857/514 541/701/395 537/699/394 539/853/510
f 546/858/515 548/859/516 544/855/512 542/854/511
f 548/860/517 547/861/518 543/857/514 544/856/513
f 547/861/518 545/703/396 541/701/395 543/857/514
f 550/862/519 552/863/520 548/859/516 546/858/515
f 552/864/521 551/865/522 547/861/518 548/860/517
f 551/865/522 549/866/397 545/703/396 547/861/518
f 554/867/523 556/868/524 552/863/520 550/862/519
f 556/869/525 555/870/526 551/871/522 552/872/521
f 555/870/526 553/709/398 549/707/397 551/871/522
f 558/873/527 560/874/528 556/868/524 554/867/523
f 560/875/529 559/876/530 555/870/526 556/869/525
f 559/876/530 557/711/399 553/709/398 555/870/526
f 562/877/531 564/878/532 560/874/528 558/873/527
f 564/879/533 563/880/534 559/876/530 560/875/529
f 563/880/534 561/713/400 557/711/399 559/876/530
f 566/881/535 568/882/536 564/878/532 562/877/531
f 568/883/537 567/884/538 563/880/534 564/879/533
f 567/884/538 565/715/401 561/713/400 563/880/534
f 570/885/539 572/886/540 568/882/536 566/881/535
f 572/887/541 571/888/542 567/884/538 568/883/537
f 571/888/542 569/721/404 565/715/401 567/884/538
f 574/889/543 576/890/544 572/886/540 570/885/539
f 576/891/545 575/892/546 571/893/542 572/894/541
f 575/895/546 573/725/402 569/721/404 571/888/542
f 453/760/422 455/759/421 576/890/544 574/889/543
f 455/764/426 456/763/425 575/892/546 576/891/545
f 456/763/425 454/719/403 573/718/402 575/892/546
f 418/720/7 454/719/403 449/694/391 417/693/8
f 450/757/419 453/760/422 574/889/543 570/885/539 566/881/535 562/877/531 558/873/527 554/867/523 550/862/519 546/858/515 542/854/511 538/850/507 534/846/503 530/842/499 526/837/495 522/832/491 518/828/487 514/824/483 510/820/479 506/816/475 502/812/471 498/808/467 494/804/463 490/800/459 486/795/455 482/790/451 478/786/447 474/782/443 470/778/439 466/773/435 462/769/431 458/765/427
usemtl white_paint
f 385/261/54 130/262/55 133/263/56 386/264/57
f 392/381/164 158/382/165 154/383/166 391/384/167
f 406/385/168 214/386/169 210/387/170 405/388/171
f 393/389/172 162/390/173 158/382/165 392/381/164
f 407/391/174 218/392/175 214/386/169 406/385/168
f 394/393/176 166/394/177 162/390/173 393/389/172
f 408/395/178 222/396/179 218/392/175 407/391/174
f 395/397/180 170/398/181 166/394/177 394/393/176
f 409/399/182 226/400/183 222/396/179 408/395/178
f 396/401/184 174/402/185 170/398/181 395/397/180
f 410/403/186 230/404/187 226/400/183 409/399/182
f 397/405/188 178/406/189 174/402/185 396/401/184
f 411/407/190 234/408/191 230/404/187 410/403/186
f 398/409/192 182/410/193 178/406/189 397/405/188
f 412/411/194 238/412/195 234/408/191 411/407/190
f 399/413/196 186/414/197 182/410/193 398/409/192
f 387/415/198 138/416/199 130/262/55 385/261/54
f 413/417/200 242/418/201 238/412/195 412/411/194
f 400/419/202 190/420/203 186/414/197 399/413/196
f 414/423/206 246/424/207 242/418/201 413/417/200
f 401/425/208 194/426/209 190/420/203 400/419/202
f 388/427/210 142/428/211 138/416/199 387/415/198
f 415/429/212 250/430/213 246/424/207 414/423/206
f 402/431/214 198/432/215 194/426/209 401/425/208
f 389/433/216 146/434/217 142/428/211 388/427/210
f 416/435/218 254/436/219 250/430/213 415/429/212
f 403/437/220 202/438/221 198/432/215 402/431/214
f 390/439/222 150/440/223 146/434/217 389/433/216
f 386/264/57 133/263/56 254/436/219 416/435/218
f 404/441/224 206/442/225 202/438/221 403/437/220
f 391/384/167 154/383/166 150/440/223 390/439/222
f 405/388/171 210/387/170 206/442/225 404/441/224
f 444/653/386 445/654/386 446/655/386 414/423/386 413/417/386 412/411/386 411/407/386 410/403/386 409/399/386 441/656/386 442/657/386 443/658/386
f 434/659/386 435/660/386 436/661/386 437/662/386 438/663/386 439/664/386 440/665/386 441/656/386 409/399/386 408/395/386 407/391/386 406/385/386 405/388/386 404/441/386 403/437/386 402/431/386 401/425/386 400/419/386 399/413/386 398/409/386 397/405/386 396/401/386 395/397/386 394/393/386 393/389/386 392/381/386 391/384/386 390/439/386 389/433/386 388/427/386 387/415/386 385/261/386 386/264/386 416/435/386 415/429/386 414/423/386 446/655/386 447/666/386 448/667/386 418/668/386 417/669/386 419/670/386 420/671/386 421/672/386 422/673/386 423/674/386 424/675/386 425/676/386 426/677/386 427/678/386 428/679/386 429/680/386 430/681/386 431/682/386 432/683/386 433/684/386
