v 0.000000 35.498272 -0.000003
v 9.505725 35.498276 -3.088586
v 8.904844 35.498276 -4.537233
v 8.086051 35.498276 -5.874872
v 7.066927 35.498276 -7.066921
v 5.874860 35.498276 -8.086063
v 4.537248 35.498276 -8.904838
v 3.088601 35.498276 -9.505719
v 1.563429 35.498276 -9.871106
v 0.000000 35.498276 -9.994903
v -1.563429 35.498276 -9.871106
v -3.088601 35.498276 -9.505719
v -4.537248 35.498276 -8.904838
v -5.874860 35.498276 -8.086063
v -7.066927 35.498276 -7.066921
v -8.086051 35.498276 -5.874872
v -8.904835 35.498276 -4.537233
v -9.505716 35.498276 -3.088586
v -9.871103 35.498276 -1.563423
v -9.994900 35.498276 -0.000003
v -9.871103 35.498276 1.563417
v -9.505716 35.498276 3.088580
v -8.904835 35.498276 4.537227
v -8.086051 35.498276 5.874866
v -7.066927 35.498276 7.066915
v -5.874860 35.498276 8.086058
v -4.537248 35.498276 8.904832
v -3.088601 35.498276 9.505713
v -1.563429 35.498276 9.871100
v 0.000000 35.498276 9.994897
v 1.563429 35.498276 9.871100
v 3.088601 35.498276 9.505713
v 4.537248 35.498276 8.904832
v 5.874860 35.498276 8.086058
v 7.066918 35.498276 7.066915
v 8.086042 35.498276 5.874866
v 8.904835 35.498276 4.537227
v 9.505716 35.498276 3.088580
v 9.871103 35.498276 1.563417
v 9.994900 35.498276 -0.000003
v 9.871103 35.498276 -1.563423
vn -0.0000 1.0000 -0.0000
vt 0.364140 0.502494
vt 0.400565 0.517603
vt 0.286480 0.741508
vt 0.434199 0.538191
vt 0.464172 0.563816
vt 0.489797 0.593789
vt 0.510385 0.627423
vt 0.525494 0.663847
vt 0.534681 0.702197
vt 0.537794 0.741508
vt 0.534681 0.780819
vt 0.525494 0.819168
vt 0.510385 0.855593
vt 0.489797 0.889226
vt 0.464172 0.919200
vt 0.434199 0.944825
vt 0.400565 0.965412
vt 0.364140 0.980521
vt 0.325791 0.989708
vt 0.286480 0.992822
vt 0.247170 0.989708
vt 0.208821 0.980521
vt 0.172396 0.965412
vt 0.138762 0.944825
vt 0.108788 0.919200
vt 0.083163 0.889226
vt 0.062576 0.855593
vt 0.047467 0.819168
vt 0.038280 0.780819
vt 0.035167 0.741508
vt 0.038280 0.702197
vt 0.047467 0.663847
vt 0.062576 0.627423
vt 0.083163 0.593789
vt 0.108789 0.563816
vt 0.138762 0.538191
vt 0.172395 0.517603
vt 0.208820 0.502494
vt 0.247169 0.493307
vt 0.286480 0.490194
vt 0.325791 0.493307
s 1
f 2/1/1 3/2/1 1/3/1
f 3/2/1 4/4/1 1/3/1
f 4/4/1 5/5/1 1/3/1
f 5/5/1 6/6/1 1/3/1
f 6/6/1 7/7/1 1/3/1
f 7/7/1 8/8/1 1/3/1
f 8/8/1 9/9/1 1/3/1
f 9/9/1 10/10/1 1/3/1
f 10/10/1 11/11/1 1/3/1
f 11/11/1 12/12/1 1/3/1
f 12/12/1 13/13/1 1/3/1
f 13/13/1 14/14/1 1/3/1
f 14/14/1 15/15/1 1/3/1
f 15/15/1 16/16/1 1/3/1
f 16/16/1 17/17/1 1/3/1
f 17/17/1 18/18/1 1/3/1
f 18/18/1 19/19/1 1/3/1
f 19/19/1 20/20/1 1/3/1
f 20/20/1 21/21/1 1/3/1
f 21/21/1 22/22/1 1/3/1
f 22/22/1 23/23/1 1/3/1
f 23/23/1 24/24/1 1/3/1
f 24/24/1 25/25/1 1/3/1
f 25/25/1 26/26/1 1/3/1
f 26/26/1 27/27/1 1/3/1
f 27/27/1 28/28/1 1/3/1
f 28/28/1 29/29/1 1/3/1
f 29/29/1 30/30/1 1/3/1
f 30/30/1 31/31/1 1/3/1
f 31/31/1 32/32/1 1/3/1
f 32/32/1 33/33/1 1/3/1
f 33/33/1 34/34/1 1/3/1
f 34/34/1 35/35/1 1/3/1
f 35/35/1 36/36/1 1/3/1
f 36/36/1 37/37/1 1/3/1
f 37/37/1 38/38/1 1/3/1
f 38/38/1 39/39/1 1/3/1
f 39/39/1 40/40/1 1/3/1
f 40/40/1 41/41/1 1/3/1
f 41/41/1 2/1/1 1/3/1
