v 0.077125 0.039775 0.147503
v 0.077125 0.041192 0.142593
v 0.096895 0.039775 0.147503
v 0.096895 0.041192 0.142593
v 0.077125 0.038318 0.141764
v 0.077125 0.036901 0.146673
v 0.096895 0.038318 0.141764
v 0.096895 0.036901 0.146673
v 0.056341 0.041192 0.142593
v 0.056341 0.039775 0.147503
v 0.117679 0.039775 0.147503
v 0.117679 0.041192 0.142593
v 0.056341 0.038318 0.141764
v 0.056341 0.036901 0.146673
v 0.117679 0.036901 0.146673
v 0.117679 0.038318 0.141764
v 0.077725 0.043964 0.148088
v 0.077125 0.043221 0.148498
v 0.077125 0.044638 0.143588
v 0.077725 0.045215 0.143754
v 0.096295 0.043964 0.148088
v 0.096895 0.043221 0.148498
v 0.096295 0.045215 0.143754
v 0.096895 0.044638 0.143588
vn -0.0000 0.9608 0.2773
vn 1.0000 -0.0000 -0.0000
vn -1.0000 -0.0000 -0.0000
vn -0.0000 -0.2773 0.9608
vn -0.0000 0.2773 -0.9608
vn -0.7071 0.6794 0.1961
vn 0.7071 0.6794 0.1961
vn -0.0000 0.4833 0.8755
vt 0.246744 0.835336
vt 0.233540 0.838543
vt 0.233540 0.835336
vt 0.991461 0.652398
vt 0.995094 0.654949
vt 0.991461 0.654949
vt 0.995108 0.725173
vt 0.991475 0.727723
vt 0.991475 0.725173
vt 0.247171 0.841696
vt 0.233114 0.843824
vt 0.233114 0.841696
vt 0.793278 0.035693
vt 0.779648 0.035267
vt 0.793705 0.035267
vt 0.779648 0.032717
vt 0.793705 0.030589
vt 0.793705 0.032717
vt 0.995108 0.710395
vt 0.991475 0.708267
vt 0.995108 0.708267
vt 0.995094 0.669727
vt 0.991461 0.671854
vt 0.991461 0.669727
vt 0.808482 0.032717
vt 0.218336 0.841696
vt 0.764870 0.030589
vt 0.779648 0.030589
vt 0.261949 0.843824
vt 0.247171 0.843824
vt 0.994682 0.728326
vt 0.995108 0.727723
vt 0.994667 0.651795
vt 0.991461 0.651795
vt 0.246744 0.838543
vt 0.233114 0.839146
vt 0.995094 0.652398
vt 0.780074 0.035693
vt 0.991475 0.710395
vt 0.995094 0.671854
vt 0.808482 0.030589
vt 0.218336 0.843824
vt 0.764870 0.032717
vt 0.261949 0.841696
vt 0.991475 0.728326
vt 0.247171 0.839146
s 0
f 20/1/1 21/2/1 23/3/1
f 24/4/2 3/5/2 4/6/2
f 1/7/3 19/8/3 2/9/3
f 1/10/4 8/11/4 3/12/4
f 20/13/5 24/14/5 19/15/5
f 4/16/5 5/17/5 2/18/5
f 10/19/3 13/20/3 14/21/3
f 11/22/2 16/23/2 12/24/2
f 5/17/5 9/25/5 2/18/5
f 8/11/4 11/26/4 3/12/4
f 2/9/1 10/19/1 1/7/1
f 4/16/5 16/27/5 7/28/5
f 3/5/1 12/24/1 4/6/1
f 1/10/4 14/29/4 6/30/4
f 17/31/6 19/8/6 18/32/6
f 21/33/7 24/4/7 23/34/7
f 17/35/8 22/36/8 21/2/8
f 22/36/4 1/10/4 3/12/4
f 19/15/5 4/16/5 2/18/5
f 20/1/1 17/35/1 21/2/1
f 24/4/2 22/37/2 3/5/2
f 1/7/3 18/32/3 19/8/3
f 1/10/4 6/30/4 8/11/4
f 20/13/5 23/38/5 24/14/5
f 4/16/5 7/28/5 5/17/5
f 10/19/3 9/39/3 13/20/3
f 11/22/2 15/40/2 16/23/2
f 5/17/5 13/41/5 9/25/5
f 8/11/4 15/42/4 11/26/4
f 2/9/1 9/39/1 10/19/1
f 4/16/5 12/43/5 16/27/5
f 3/5/1 11/22/1 12/24/1
f 1/10/4 10/44/4 14/29/4
f 17/31/6 20/45/6 19/8/6
f 21/33/7 22/37/7 24/4/7
f 17/35/8 18/46/8 22/36/8
f 22/36/4 18/46/4 1/10/4
f 19/15/5 24/14/5 4/16/5
