v 0.184260 0.035971 0.147970
v 0.184706 0.035971 0.147524
v 0.184576 0.035971 0.147839
v 0.184260 0.045354 0.147970
v 0.184260 0.045800 0.147524
v 0.184706 0.045354 0.147524
v 0.184260 0.045669 0.147839
v 0.184518 0.045611 0.147781
v 0.184576 0.045669 0.147524
v 0.184576 0.045354 0.147839
v 0.184706 0.035971 0.139697
v 0.184260 0.035971 0.139251
v 0.184576 0.035971 0.139382
v 0.184260 0.045800 0.139697
v 0.184260 0.045354 0.139251
v 0.184706 0.045354 0.139697
v 0.184260 0.045669 0.139382
v 0.184518 0.045611 0.139439
v 0.184576 0.045354 0.139382
v 0.184576 0.045669 0.139697
v 0.132479 0.035971 0.147524
v 0.132925 0.035971 0.147970
v 0.132609 0.035971 0.147839
v 0.132925 0.045800 0.147524
v 0.132925 0.045354 0.147970
v 0.132479 0.045354 0.147524
v 0.132925 0.045669 0.147839
v 0.132667 0.045611 0.147781
v 0.132609 0.045354 0.147839
v 0.132609 0.045669 0.147524
v 0.132925 0.035971 0.139251
v 0.132479 0.035971 0.139697
v 0.132609 0.035971 0.139382
v 0.132925 0.045800 0.139697
v 0.132479 0.045354 0.139697
v 0.132925 0.045354 0.139251
v 0.132609 0.045669 0.139697
v 0.132667 0.045611 0.139439
v 0.132609 0.045354 0.139382
v 0.132925 0.045669 0.139382
vn 0.1951 -0.0000 0.9808
vn 0.9808 -0.0000 0.1951
vn 0.7071 -0.0000 0.7071
vn 0.1794 0.1794 0.9673
vn 0.1794 0.9673 0.1794
vn 0.9673 0.1794 0.1794
vn 0.1479 0.6993 0.6993
vn 0.5774 0.5774 0.5773
vn 0.6993 0.6993 0.1479
vn 0.6993 0.1479 0.6993
vn 0.9808 -0.0000 -0.1951
vn 0.1951 -0.0000 -0.9808
vn 0.7071 -0.0000 -0.7071
vn 0.1794 0.9673 -0.1794
vn 0.1794 0.1794 -0.9673
vn 0.9673 0.1794 -0.1794
vn 0.1479 0.6993 -0.6993
vn 0.5774 0.5774 -0.5773
vn 0.6993 0.1479 -0.6993
vn 0.6993 0.6993 -0.1479
vn -0.9808 -0.0000 0.1951
vn -0.1951 -0.0000 0.9808
vn -0.7071 -0.0000 0.7071
vn -0.1794 0.9673 0.1794
vn -0.1794 0.1794 0.9673
vn -0.9673 0.1794 0.1794
vn -0.1479 0.6993 0.6993
vn -0.5774 0.5774 0.5773
vn -0.6993 0.1479 0.6993
vn -0.6993 0.6993 0.1479
vn -0.1951 -0.0000 -0.9808
vn -0.9808 -0.0000 -0.1951
vn -0.7071 -0.0000 -0.7071
vn -0.1794 0.9673 -0.1794
vn -0.9673 0.1794 -0.1794
vn -0.1794 0.1794 -0.9673
vn -0.6993 0.6993 -0.1479
vn -0.5774 0.5774 -0.5773
vn -0.6993 0.1479 -0.6993
vn -0.1479 0.6993 -0.6993
vt 0.902477 0.920932
vt 0.894627 0.877981
vt 0.902477 0.877980
vt 0.558774 0.145667
vt 0.550929 0.139123
vt 0.558774 0.139123
vt 0.894077 0.877981
vt 0.887528 0.920931
vt 0.887528 0.877980
vt 0.873850 0.063825
vt 0.881696 0.070369
vt 0.873850 0.070370
vt 0.591403 0.552971
vt 0.548477 0.560817
vt 0.548477 0.552971
vt 0.894627 0.920931
vt 0.894352 0.921160
vt 0.894352 0.920928
vt 0.894077 0.920931
vt 0.894101 0.921221
vt 0.881938 0.070611
vt 0.881706 0.070654
vt 0.887286 0.921174
vt 0.887243 0.920942
vt 0.548235 0.561059
vt 0.548192 0.560827
vt 0.881696 0.063826
vt 0.881938 0.063584
vt 0.881981 0.063816
vt 0.894352 0.877752
vt 0.894352 0.877984
vt 0.894603 0.877691
vt 0.550929 0.145667
vt 0.550686 0.145909
vt 0.550643 0.145677
vt 0.887286 0.877738
vt 0.887518 0.877694
vt 0.550687 0.138881
vt 0.550918 0.138838
vt 0.591403 0.560817
vt 0.591645 0.561059
vt 0.591413 0.561102
vt 0.902477 0.921218
vt 0.873851 0.070656
vt 0.881981 0.070379
vt 0.873850 0.063539
vt 0.881706 0.063541
vt 0.548467 0.561102
vt 0.591689 0.552971
vt 0.591688 0.560827
vt 0.550644 0.139113
vt 0.558774 0.145953
vt 0.550918 0.145952
vt 0.894603 0.921221
vt 0.887518 0.921217
vt 0.894101 0.877691
vt 0.887243 0.877970
vt 0.548191 0.552971
vt 0.558774 0.138837
vt 0.902477 0.877693
s 1
f 1/1/1 25/2/25 22/3/22
f 21/4/21 35/5/35 32/6/32
f 24/7/24 14/8/14 34/9/34
f 11/10/11 6/11/6 2/12/2
f 31/13/31 15/14/15 12/15/12
f 4/16/4 8/17/8 7/18/7
f 5/19/5 8/17/8 9/20/9
f 6/11/6 8/21/8 10/22/10
f 14/8/14 18/23/18 17/24/17
f 15/14/15 18/25/18 19/26/19
f 16/27/16 18/28/18 20/29/20
f 24/7/24 28/30/28 27/31/27
f 25/2/25 28/30/28 29/32/29
f 26/33/26 28/34/28 30/35/30
f 34/9/34 38/36/38 37/37/37
f 35/5/35 38/38/38 39/39/39
f 36/40/36 38/41/38 40/42/40
f 3/43/3 4/16/4 1/1/1
f 2/12/2 10/22/10 3/44/3
f 9/20/9 14/8/14 5/19/5
f 6/11/6 20/29/20 9/45/9
f 19/26/19 12/15/12 15/14/15
f 16/27/16 13/46/13 19/47/19
f 17/24/17 34/9/34 14/8/14
f 15/14/15 40/42/40 17/48/17
f 39/39/39 32/6/32 35/5/35
f 36/40/36 33/49/33 39/50/39
f 37/37/37 24/7/24 34/9/34
f 35/5/35 30/35/30 37/51/37
f 29/32/29 22/3/22 25/2/25
f 26/33/26 23/52/23 29/53/29
f 27/31/27 5/19/5 24/7/24
f 25/2/25 7/18/7 27/31/27
f 1/1/1 4/16/4 25/2/25
f 21/4/21 26/33/26 35/5/35
f 24/7/24 5/19/5 14/8/14
f 11/10/11 16/27/16 6/11/6
f 31/13/31 36/40/36 15/14/15
f 4/16/4 10/54/10 8/17/8
f 5/19/5 7/18/7 8/17/8
f 6/11/6 9/45/9 8/21/8
f 14/8/14 20/55/20 18/23/18
f 15/14/15 17/48/17 18/25/18
f 16/27/16 19/47/19 18/28/18
f 24/7/24 30/56/30 28/30/28
f 25/2/25 27/31/27 28/30/28
f 26/33/26 29/53/29 28/34/28
f 34/9/34 40/57/40 38/36/38
f 35/5/35 37/51/37 38/38/38
f 36/40/36 39/50/39 38/41/38
f 3/43/3 10/54/10 4/16/4
f 2/12/2 6/11/6 10/22/10
f 9/20/9 20/55/20 14/8/14
f 6/11/6 16/27/16 20/29/20
f 19/26/19 13/58/13 12/15/12
f 16/27/16 11/10/11 13/46/13
f 17/24/17 40/57/40 34/9/34
f 15/14/15 36/40/36 40/42/40
f 39/39/39 33/59/33 32/6/32
f 36/40/36 31/13/31 33/49/33
f 37/37/37 30/56/30 24/7/24
f 35/5/35 26/33/26 30/35/30
f 29/32/29 23/60/23 22/3/22
f 26/33/26 21/4/21 23/52/23
f 27/31/27 7/18/7 5/19/5
f 25/2/25 4/16/4 7/18/7
