v 0.140135 0.078869 -0.133361
v 0.137456 0.078869 -0.132828
v 0.135185 0.078869 -0.131311
v 0.133668 0.078869 -0.129040
v 0.133135 0.078869 -0.126361
v 0.133668 0.078869 -0.123682
v 0.135185 0.078869 -0.121411
v 0.137456 0.078869 -0.119894
v 0.140135 0.078869 -0.119361
v 0.142814 0.078869 -0.119894
v 0.145085 0.078869 -0.121411
v 0.146602 0.078869 -0.123682
v 0.147135 0.078869 -0.126361
v 0.146602 0.078869 -0.129040
v 0.145085 0.078869 -0.131311
v 0.142814 0.078869 -0.132828
v 0.140135 0.071584 -0.133361
v 0.140135 0.071584 -0.119361
v 0.145085 0.076533 -0.131311
v 0.137456 0.074262 -0.132828
v 0.142814 0.074262 -0.132828
v 0.135185 0.076533 -0.131311
v 0.133668 0.078051 -0.129040
v 0.133135 0.078584 -0.126361
v 0.133668 0.078051 -0.123682
v 0.137456 0.074262 -0.119894
v 0.142814 0.074262 -0.119894
v 0.135185 0.076533 -0.121411
v 0.145085 0.076533 -0.121411
v 0.146602 0.078051 -0.123682
v 0.147135 0.078584 -0.126361
v 0.146602 0.078051 -0.129040
v 0.140135 0.080012 -0.131531
v 0.138156 0.080012 -0.131138
v 0.136479 0.080012 -0.130017
v 0.135358 0.080012 -0.128340
v 0.134965 0.080012 -0.126361
v 0.135358 0.080012 -0.124382
v 0.136479 0.080012 -0.122705
v 0.138156 0.080012 -0.121584
v 0.140135 0.080012 -0.121190
v 0.142114 0.080012 -0.121584
v 0.143791 0.080012 -0.122705
v 0.144912 0.080012 -0.124382
v 0.145306 0.080012 -0.126361
v 0.144912 0.080012 -0.128340
v 0.143791 0.080012 -0.130017
v 0.142114 0.080012 -0.131138
v 0.140135 0.080012 -0.131966
v 0.137990 0.080012 -0.131539
v 0.136172 0.080012 -0.130324
v 0.134957 0.080012 -0.128506
v 0.134530 0.080012 -0.126361
v 0.134957 0.080012 -0.124216
v 0.136172 0.080012 -0.122398
v 0.137990 0.080012 -0.121183
v 0.140135 0.080012 -0.120756
v 0.142280 0.080012 -0.121183
v 0.144098 0.080012 -0.122398
v 0.145313 0.080012 -0.124216
v 0.145740 0.080012 -0.126361
v 0.145313 0.080012 -0.128506
v 0.144098 0.080012 -0.130324
v 0.142280 0.080012 -0.131539
v 0.140135 0.078813 -0.131531
v 0.138156 0.078813 -0.131138
v 0.136479 0.078813 -0.130017
v 0.135358 0.078813 -0.128340
v 0.134965 0.078813 -0.126361
v 0.135358 0.078813 -0.124382
v 0.136479 0.078813 -0.122705
v 0.138156 0.078813 -0.121584
v 0.140135 0.078813 -0.121190
v 0.142114 0.078813 -0.121584
v 0.143791 0.078813 -0.122705
v 0.144912 0.078813 -0.124382
v 0.145306 0.078813 -0.126361
v 0.144912 0.078813 -0.128340
v 0.143791 0.078813 -0.130017
v 0.142114 0.078813 -0.131138
v 0.126313 0.071584 -0.131486
v 0.128152 0.071584 -0.133361
v 0.152118 0.071584 -0.133361
v 0.153957 0.071584 -0.131486
v 0.126313 0.069622 -0.131095
v 0.128152 0.068905 -0.132828
v 0.153957 0.069622 -0.131095
v 0.152118 0.068905 -0.132828
v 0.126313 0.067960 -0.129985
v 0.128152 0.066634 -0.131311
v 0.153957 0.067960 -0.129985
v 0.152118 0.066634 -0.131311
v 0.126313 0.066849 -0.128322
v 0.128152 0.065116 -0.129040
v 0.153957 0.066849 -0.128322
v 0.152118 0.065116 -0.129040
v 0.126313 0.066459 -0.126361
v 0.128152 0.064584 -0.126361
v 0.153957 0.066459 -0.126361
v 0.152118 0.064584 -0.126361
v 0.126313 0.066849 -0.124400
v 0.128152 0.065116 -0.123682
v 0.153957 0.066849 -0.124400
v 0.152118 0.065116 -0.123682
v 0.126313 0.067960 -0.122737
v 0.128152 0.066634 -0.121411
v 0.153957 0.067960 -0.122737
v 0.152118 0.066634 -0.121411
v 0.126313 0.069622 -0.121626
v 0.128152 0.068905 -0.119894
v 0.153957 0.069622 -0.121626
v 0.152118 0.068905 -0.119894
v 0.126313 0.071584 -0.121236
v 0.128152 0.071584 -0.119361
v 0.153957 0.071584 -0.121236
v 0.152118 0.071584 -0.119361
v 0.128152 0.074262 -0.119894
v 0.126313 0.073545 -0.121626
v 0.153957 0.073545 -0.121626
v 0.152118 0.074262 -0.119894
v 0.128152 0.076533 -0.121411
v 0.126313 0.075207 -0.122737
v 0.153957 0.075207 -0.122737
v 0.152118 0.076533 -0.121411
v 0.128152 0.078051 -0.123682
v 0.126313 0.076318 -0.124400
v 0.153957 0.076318 -0.124400
v 0.152118 0.078051 -0.123682
v 0.128152 0.078584 -0.126361
v 0.126313 0.076708 -0.126361
v 0.153957 0.076708 -0.126361
v 0.152118 0.078584 -0.126361
v 0.128152 0.078051 -0.129040
v 0.126313 0.076318 -0.128322
v 0.153957 0.076318 -0.128322
v 0.152118 0.078051 -0.129040
v 0.128152 0.076533 -0.131311
v 0.126313 0.075207 -0.129985
v 0.153957 0.075207 -0.129985
v 0.152118 0.076533 -0.131311
v 0.128152 0.074262 -0.132828
v 0.126313 0.073545 -0.131095
v 0.153957 0.073545 -0.131095
v 0.152118 0.074262 -0.132828
v 0.128152 0.057730 -0.132828
v 0.128152 0.057730 -0.131311
v 0.152118 0.057730 -0.131311
v 0.152118 0.057730 -0.132828
v 0.128152 0.057730 -0.129040
v 0.152118 0.057730 -0.129040
v 0.128152 0.057730 -0.126361
v 0.152118 0.057730 -0.126361
v 0.128152 0.057730 -0.123682
v 0.152118 0.057730 -0.123682
v 0.128152 0.057730 -0.121411
v 0.152118 0.057730 -0.121411
v 0.128152 0.057730 -0.119894
v 0.152118 0.057730 -0.119894
v 0.140135 0.078813 -0.126361
v 0.153957 0.071584 -0.126361
v 0.126313 0.071584 -0.126361
v 0.140135 0.068905 -0.119894
v 0.140135 0.057730 -0.119894
v 0.140135 0.068905 -0.132828
v 0.140135 0.057730 -0.132828
vn 0.5856 0.7734 0.2426
vn 0.6339 0.7734 -0.0000
vn 1.0000 -0.0000 -0.0000
vn -1.0000 -0.0000 -0.0000
vn -0.7071 -0.0000 0.7071
vn -0.1852 -0.0963 0.9780
vn -0.7071 -0.0000 -0.7071
vn -0.0000 -0.0000 -1.0000
vn -0.0000 0.2977 -0.9547
vn -0.0000 0.3827 -0.9239
vn -0.0000 -0.0651 -0.9979
vn -0.2977 -0.0000 -0.9547
vn -0.3827 -0.0000 -0.9239
vn -0.6547 -0.0000 -0.7559
vn -0.9077 -0.0000 -0.4196
vn -0.9239 -0.0000 -0.3827
vn -0.9239 -0.0000 0.3827
vn -0.9077 -0.0000 0.4196
vn -0.6547 -0.0000 0.7559
vn -0.3827 -0.0000 0.9239
vn -0.2977 -0.0000 0.9547
vn -0.0000 -0.0000 1.0000
vn 0.2977 -0.0000 0.9547
vn 0.6547 -0.0000 0.7559
vn 0.3827 -0.0000 0.9239
vn 0.9077 -0.0000 0.4196
vn 0.7071 -0.0000 0.7071
vn 0.9239 -0.0000 0.3827
vn 0.9239 -0.0000 -0.3827
vn 0.9077 -0.0000 -0.4196
vn 0.7071 -0.0000 -0.7071
vn 0.6547 -0.0000 -0.7559
vn 0.3827 -0.0000 -0.9239
vn 0.2977 -0.0000 -0.9547
vn -0.0000 0.6547 0.7559
vn -0.0000 0.3827 0.9239
vn -0.0000 0.2977 0.9547
vn -0.0000 0.7071 0.7071
vn -0.0000 0.9077 0.4196
vn -0.0000 0.9239 0.3827
vn -0.0000 1.0000 -0.0000
vn -0.0000 0.9239 -0.3827
vn -0.0000 0.9077 -0.4196
vn -0.0000 0.7071 -0.7071
vn -0.0000 0.6547 -0.7559
vn -0.4647 0.7538 0.4647
vn -0.6894 0.6657 0.2856
vn -0.6071 0.7538 0.2515
vn -0.6339 0.7734 -0.0000
vn -0.5856 0.7734 0.2426
vn 0.5856 0.7734 -0.2426
vn -0.4482 0.7734 0.4482
vn 0.4482 0.7734 -0.4482
vn -0.2426 0.7734 0.5856
vn 0.2426 0.7734 -0.5856
vn -0.0000 0.7734 0.6339
vn -0.2426 0.7734 -0.5856
vn -0.0000 0.7734 -0.6339
vn 0.2426 0.7734 0.5856
vn -0.4482 0.7734 -0.4482
vn 0.4482 0.7734 0.4482
vn -0.5856 0.7734 -0.2426
vn 0.2515 0.7538 0.6071
vn 0.4647 0.7538 0.4647
vn 0.6071 0.7538 0.2515
vn 0.6571 0.7538 -0.0000
vn 0.6071 0.7538 -0.2515
vn 0.4647 0.7538 -0.4647
vn 0.2515 0.7538 -0.6071
vn -0.0000 0.7538 -0.6571
vn -0.2515 0.7538 -0.6071
vn -0.4647 0.7538 -0.4647
vn -0.6071 0.7538 -0.2515
vn -0.6571 0.7538 -0.0000
vn -0.2515 0.7538 0.6071
vn -0.0000 0.7538 0.6571
vn 0.5276 0.6657 -0.5276
vn 0.2856 0.6657 -0.6894
vn -0.5276 0.6657 0.5276
vn -0.0000 0.6657 0.7462
vn -0.2856 0.6657 0.6894
vn -0.0000 0.6657 -0.7462
vn 0.2856 0.6657 0.6894
vn -0.2856 0.6657 -0.6894
vn 0.5276 0.6657 0.5276
vn -0.5276 0.6657 -0.5276
vn 0.6894 0.6657 0.2856
vn -0.6894 0.6657 -0.2856
vn 0.7462 0.6657 -0.0000
vn -0.7462 0.6657 -0.0000
vn 0.6894 0.6657 -0.2856
vn -0.7139 -0.2680 -0.6469
vn -0.7139 -0.0000 -0.7002
vn 0.7139 -0.0000 -0.7002
vn 0.7139 -0.2680 -0.6469
vn -0.7139 -0.4951 -0.4951
vn 0.7139 -0.4951 -0.4951
vn -0.7139 -0.6469 -0.2680
vn 0.7139 -0.6469 -0.2680
vn -0.7139 -0.7002 -0.0000
vn 0.7139 -0.7002 -0.0000
vn -0.7139 -0.6469 0.2680
vn 0.7139 -0.6469 0.2680
vn -0.7139 -0.4951 0.4951
vn 0.7139 -0.4951 0.4951
vn -0.7139 -0.2680 0.6469
vn 0.7139 -0.2680 0.6469
vn -0.7139 -0.0000 0.7002
vn 0.7139 -0.0000 0.7002
vn -0.7139 0.2680 0.6469
vn 0.7139 0.2680 0.6469
vn -0.7139 0.4951 0.4951
vn 0.7139 0.4951 0.4951
vn -0.7139 0.6469 0.2680
vn 0.7139 0.6469 0.2680
vn -0.7139 0.7002 -0.0000
vn 0.7139 0.7002 -0.0000
vn -0.7139 0.6469 -0.2680
vn 0.7139 0.6469 -0.2680
vn -0.7139 0.4951 -0.4951
vn 0.7139 0.4951 -0.4951
vn -0.7139 0.2680 -0.6469
vn 0.7139 0.2680 -0.6469
vn -0.0000 -0.0980 -0.9952
vn 0.1852 -0.0963 -0.9780
vn -0.0000 -0.0980 0.9952
vn 0.1852 -0.0963 0.9780
vn -0.0000 -0.0651 0.9979
vn -0.1852 -0.0963 -0.9780
vt 0.762859 0.140480
vt 0.765321 0.141001
vt 0.763608 0.141739
vt 0.398052 0.133153
vt 0.395988 0.138433
vt 0.395988 0.132743
vt 0.404798 0.108046
vt 0.403629 0.114904
vt 0.403629 0.106296
vt 0.412423 0.108046
vt 0.413592 0.114904
vt 0.412423 0.114904
vt 0.400115 0.138433
vt 0.398052 0.138433
vt 0.410674 0.109214
vt 0.410674 0.114904
vt 0.241421 0.604369
vt 0.243525 0.597202
vt 0.243525 0.604369
vt 0.241421 0.585909
vt 0.243525 0.593075
vt 0.241421 0.595138
vt 0.430473 0.230778
vt 0.426386 0.231424
vt 0.429099 0.229257
vt 0.426465 0.228678
vt 0.427936 0.227696
vt 0.426359 0.226213
vt 0.426960 0.225951
vt 0.426169 0.223922
vt 0.755346 0.149494
vt 0.754527 0.151642
vt 0.754725 0.149224
vt 0.756322 0.147693
vt 0.754829 0.146721
vt 0.757423 0.146094
vt 0.754729 0.144016
vt 0.758620 0.144584
vt 0.754513 0.141157
vt 0.757365 0.140857
vt 0.760043 0.140467
vt 0.759898 0.143136
vt 0.762481 0.139919
vt 0.761265 0.141757
vt 0.764807 0.139279
vt 0.942976 0.059754
vt 0.941008 0.058978
vt 0.943233 0.059165
vt 0.944687 0.060732
vt 0.945673 0.059275
vt 0.946227 0.061925
vt 0.948436 0.059204
vt 0.947751 0.063345
vt 0.951447 0.058952
vt 0.681660 0.945622
vt 0.683148 0.945627
vt 0.682364 0.949357
vt 0.254044 0.591326
vt 0.256148 0.585909
vt 0.256148 0.593075
vt 0.254044 0.585909
vt 0.251941 0.590157
vt 0.251941 0.585909
vt 0.256148 0.604369
vt 0.254044 0.598951
vt 0.256148 0.597202
vt 0.249837 0.589747
vt 0.254044 0.604369
vt 0.251941 0.600120
vt 0.247733 0.585909
vt 0.247733 0.590157
vt 0.251941 0.604369
vt 0.249837 0.600530
vt 0.245629 0.585909
vt 0.245629 0.591326
vt 0.247733 0.604369
vt 0.249837 0.604369
vt 0.243525 0.585909
vt 0.245629 0.604369
vt 0.247733 0.600120
vt 0.245629 0.598951
vt 0.400115 0.132743
vt 0.401864 0.138433
vt 0.543504 0.945632
vt 0.544871 0.946204
vt 0.542783 0.949365
vt 0.991625 0.320771
vt 0.992549 0.322325
vt 0.991625 0.322325
vt 0.754798 0.151695
vt 0.756720 0.149997
vt 0.756323 0.151800
vt 0.940944 0.059216
vt 0.942465 0.061039
vt 0.940806 0.060624
vt 0.943960 0.061855
vt 0.757523 0.148375
vt 0.758532 0.146872
vt 0.431339 0.229633
vt 0.945334 0.062942
vt 0.759666 0.145437
vt 0.430110 0.228380
vt 0.762162 0.142802
vt 0.760877 0.144073
vt 0.428279 0.225439
vt 0.429074 0.226975
vt 0.426414 0.223855
vt 0.430375 0.228154
vt 0.429372 0.226792
vt 0.428609 0.225317
vt 0.428225 0.223691
vt 0.427866 0.223716
vt 0.756695 0.151807
vt 0.757066 0.150118
vt 0.757839 0.148558
vt 0.758829 0.147088
vt 0.759949 0.145673
vt 0.761143 0.144325
vt 0.762398 0.143079
vt 0.763791 0.142057
vt 0.765398 0.141369
vt 0.940789 0.060967
vt 0.942340 0.061358
vt 0.943768 0.062145
vt 0.945095 0.063199
vt 0.946241 0.064423
vt 0.946557 0.064218
vt 0.759909 0.985906
vt 0.759909 0.984352
vt 0.763815 0.985129
vt 0.991625 0.331649
vt 0.992549 0.333203
vt 0.991625 0.333203
vt 0.991625 0.319217
vt 0.992549 0.320771
vt 0.991625 0.330095
vt 0.992549 0.331649
vt 0.991625 0.340973
vt 0.992549 0.342526
vt 0.991625 0.342526
vt 0.991625 0.317663
vt 0.992549 0.319217
vt 0.991625 0.328541
vt 0.992549 0.330095
vt 0.991625 0.339419
vt 0.992549 0.340973
vt 0.991625 0.326987
vt 0.992549 0.328541
vt 0.991625 0.337865
vt 0.992549 0.339419
vt 0.991625 0.325433
vt 0.992549 0.326987
vt 0.991625 0.336311
vt 0.992549 0.337865
vt 0.991625 0.323879
vt 0.992549 0.325433
vt 0.991625 0.334757
vt 0.992549 0.336311
vt 0.992549 0.323879
vt 0.992549 0.334757
vt 0.677410 0.952563
vt 0.680219 0.952503
vt 0.679012 0.954239
vt 0.537915 0.952656
vt 0.540693 0.952525
vt 0.539543 0.954255
vt 0.676578 0.950419
vt 0.679182 0.951441
vt 0.541651 0.955145
vt 0.542060 0.953096
vt 0.676622 0.948130
vt 0.678633 0.950064
vt 0.543543 0.953089
vt 0.543950 0.955144
vt 0.677528 0.946034
vt 0.678652 0.948583
vt 0.546103 0.954283
vt 0.544917 0.952526
vt 0.679159 0.944435
vt 0.679233 0.947221
vt 0.545952 0.951462
vt 0.547706 0.952608
vt 0.681277 0.943570
vt 0.680287 0.946183
vt 0.548566 0.950475
vt 0.546513 0.950089
vt 0.683576 0.943570
vt 0.546494 0.948609
vt 0.548528 0.948187
vt 0.684514 0.946214
vt 0.547651 0.946079
vt 0.545926 0.947242
vt 0.687320 0.946138
vt 0.685709 0.944473
vt 0.546024 0.944476
vt 0.686093 0.948658
vt 0.685554 0.947276
vt 0.543918 0.943583
vt 0.688143 0.948284
vt 0.686079 0.950140
vt 0.542018 0.945637
vt 0.541619 0.943578
vt 0.688117 0.950572
vt 0.685490 0.951500
vt 0.539474 0.944457
vt 0.540649 0.946213
vt 0.687209 0.952667
vt 0.684430 0.952531
vt 0.539618 0.947272
vt 0.537868 0.946128
vt 0.685577 0.954263
vt 0.683061 0.953079
vt 0.537010 0.948262
vt 0.539060 0.948640
vt 0.683454 0.955121
vt 0.681586 0.953075
vt 0.537032 0.950550
vt 0.539067 0.950119
vt 0.681155 0.955126
vt 0.539637 0.951487
vt 0.239318 0.595138
vt 0.239318 0.604369
vt 0.230710 0.595138
vt 0.260356 0.585909
vt 0.268964 0.595138
vt 0.260356 0.595138
vt 0.406547 0.109214
vt 0.404798 0.114904
vt 0.394239 0.138433
vt 0.394239 0.131574
vt 0.408611 0.109625
vt 0.406547 0.114904
vt 0.393070 0.138433
vt 0.393070 0.129824
vt 0.401864 0.131574
vt 0.403033 0.138433
vt 0.408611 0.114904
vt 0.763038 0.981223
vt 0.764592 0.981223
vt 0.767721 0.984352
vt 0.767127 0.982916
vt 0.763038 0.989035
vt 0.761603 0.988440
vt 0.767127 0.987341
vt 0.766028 0.988440
vt 0.764592 0.989035
vt 0.767721 0.985906
vt 0.766028 0.981817
vt 0.760504 0.982916
vt 0.761603 0.981817
vt 0.760504 0.987341
vt 0.260356 0.604369
vt 0.258252 0.595138
vt 0.258252 0.585909
vt 0.258252 0.604369
vt 0.268964 0.604369
vt 0.230710 0.585909
vt 0.239318 0.585909
vt 0.764925 0.139517
vt 0.413592 0.106296
vt 0.426135 0.234391
vt 0.249837 0.585909
vt 0.431540 0.229337
vt 0.992549 0.317663
vt 0.230710 0.604369
vt 0.268964 0.585909
vt 0.403033 0.129824
s 1
f 12/1/1 61/2/2 60/3/1
f 100/4/3 150/5/3 96/6/3
f 106/7/4 157/8/5 110/9/6
f 90/10/4 145/11/7 146/12/4
f 100/4/3 154/13/3 152/14/3
f 94/15/4 146/12/4 149/16/4
f 83/17/8 21/18/9 144/19/10
f 82/20/8 20/21/9 17/22/11
f 1/23/8 20/24/12 2/25/13
f 2/25/13 22/26/14 3/27/7
f 3/27/7 23/28/15 4/29/16
f 24/30/4 4/29/16 23/28/15
f 6/31/17 24/32/4 25/33/18
f 7/34/5 25/33/18 28/35/19
f 8/36/20 28/35/19 26/37/21
f 9/38/22 26/37/21 18/39/22
f 27/40/23 9/38/22 18/39/22
f 29/41/24 10/42/25 27/40/23
f 30/43/26 11/44/27 29/41/24
f 31/45/3 12/1/28 30/43/26
f 14/46/29 31/47/3 32/48/30
f 15/49/31 32/48/30 19/50/32
f 16/51/33 19/50/32 21/52/34
f 1/53/8 21/52/34 17/54/8
f 105/55/4 109/56/4 161/57/4
f 28/58/35 117/59/36 26/60/37
f 121/61/38 25/62/39 125/63/40
f 120/64/36 29/65/35 27/66/37
f 24/67/41 125/63/40 25/62/39
f 124/68/38 30/69/39 29/65/35
f 133/70/42 24/67/41 23/71/43
f 128/72/40 31/73/41 30/69/39
f 137/74/44 23/71/43 22/75/45
f 136/76/42 31/73/41 132/77/41
f 141/78/10 22/75/45 20/21/9
f 140/79/44 32/80/43 136/76/42
f 144/19/10 19/81/45 140/79/44
f 104/82/3 156/83/3 154/13/3
f 123/84/3 119/85/3 160/86/3
f 47/87/46 78/88/47 46/89/48
f 5/90/49 54/91/50 53/92/49
f 13/93/2 62/94/51 61/95/2
f 7/34/52 54/91/50 6/31/50
f 14/46/51 63/96/53 62/94/51
f 8/36/54 55/97/52 7/34/52
f 16/51/55 63/96/53 15/49/53
f 9/38/56 56/98/54 8/36/54
f 2/25/57 49/99/58 1/23/58
f 1/53/58 64/100/55 16/51/55
f 10/42/59 57/101/56 9/38/56
f 3/27/60 50/102/57 2/25/57
f 10/42/59 59/103/61 58/104/59
f 3/27/60 52/105/62 51/106/60
f 12/1/1 59/103/61 11/44/61
f 5/107/49 52/105/62 4/29/62
f 34/108/63 49/99/41 50/102/41
f 35/109/64 50/102/41 51/106/41
f 36/110/65 51/106/41 52/105/41
f 37/111/66 52/105/41 53/112/41
f 37/113/66 54/91/41 38/114/67
f 38/114/67 55/97/41 39/115/68
f 40/116/69 55/97/41 56/98/41
f 40/116/69 57/101/41 41/117/70
f 41/117/70 58/104/41 42/118/71
f 42/118/71 59/103/41 43/119/72
f 43/119/72 60/3/41 44/120/73
f 44/120/73 61/2/41 45/121/74
f 45/122/74 62/94/41 46/123/48
f 47/124/46 62/94/41 63/96/41
f 48/125/75 63/96/41 64/100/41
f 33/126/76 64/100/41 49/127/41
f 71/128/77 72/129/78 159/130/41
f 40/131/69 71/132/77 39/133/68
f 48/134/75 79/135/79 47/87/46
f 41/136/70 72/137/78 40/131/69
f 34/138/63 65/139/80 33/140/76
f 33/141/76 80/142/81 48/134/75
f 42/143/71 73/144/82 41/136/70
f 35/145/64 66/146/83 34/138/63
f 43/147/72 74/148/84 42/143/71
f 36/149/65 67/150/85 35/145/64
f 44/151/73 75/152/86 43/147/72
f 37/153/66 68/154/87 36/149/65
f 45/155/74 76/156/88 44/151/73
f 38/157/67 69/158/89 37/153/66
f 46/89/48 77/159/90 45/155/74
f 39/133/68 70/160/91 38/157/67
f 86/161/92 81/162/93 82/163/93
f 83/164/94 87/165/95 88/166/95
f 90/167/96 85/168/92 86/161/92
f 92/169/97 87/165/95 91/170/97
f 94/171/98 89/172/96 90/167/96
f 92/169/97 95/173/99 96/174/99
f 98/175/100 93/176/98 94/171/98
f 100/177/101 95/173/99 99/178/101
f 102/179/102 97/180/100 98/175/100
f 100/177/101 103/181/103 104/182/103
f 106/183/104 101/184/102 102/179/102
f 108/185/105 103/181/103 107/186/105
f 110/187/106 105/55/104 106/183/104
f 108/185/105 111/188/107 112/189/107
f 110/187/106 113/190/108 109/56/106
f 116/191/109 111/188/107 115/192/109
f 117/193/110 113/190/108 114/194/108
f 116/191/109 119/85/111 120/195/111
f 117/193/110 122/196/112 118/197/110
f 124/198/113 119/85/111 123/84/113
f 121/199/112 126/200/114 122/196/112
f 124/198/113 127/201/115 128/202/115
f 125/203/114 130/204/116 126/200/114
f 132/205/117 127/201/115 131/206/117
f 129/207/116 134/208/118 130/204/116
f 132/205/117 135/209/119 136/210/119
f 133/211/118 138/212/120 134/208/118
f 140/213/121 135/209/119 139/214/121
f 137/215/120 142/216/122 138/212/120
f 144/217/123 139/214/121 143/218/123
f 141/219/122 81/162/93 142/216/122
f 83/164/94 143/218/123 84/220/94
f 83/17/8 164/221/124 17/22/11
f 88/222/125 165/223/8 164/221/124
f 110/224/6 163/225/22 162/226/126
f 102/227/4 155/228/4 106/7/4
f 96/6/3 147/229/3 92/230/3
f 98/231/4 153/232/4 102/227/4
f 92/230/3 148/233/31 88/234/125
f 108/235/3 158/236/27 156/83/3
f 98/231/4 149/16/4 151/237/4
f 75/238/86 76/239/88 159/130/41
f 79/240/79 159/130/41 78/241/47
f 68/242/87 69/243/89 159/130/41
f 159/130/41 65/244/80 66/245/83
f 66/245/83 67/246/85 159/130/41
f 67/246/85 68/242/87 159/130/41
f 79/240/79 80/247/81 159/130/41
f 80/247/81 65/244/80 159/130/41
f 159/130/41 77/248/90 78/241/47
f 76/239/88 77/248/90 159/130/41
f 159/130/41 73/249/82 74/250/84
f 74/250/84 75/238/86 159/130/41
f 73/249/82 159/130/41 72/129/78
f 159/130/41 69/243/89 70/251/91
f 71/128/77 159/130/41 70/251/91
f 107/186/3 103/181/3 160/86/3
f 135/209/3 131/206/3 160/86/3
f 91/170/3 160/86/3 95/173/3
f 115/192/3 160/86/3 119/85/3
f 160/86/3 131/206/3 127/201/3
f 123/84/3 160/86/3 127/201/3
f 160/86/3 84/220/3 143/218/3
f 143/218/3 139/214/3 160/86/3
f 139/214/3 135/209/3 160/86/3
f 103/181/3 99/178/3 160/86/3
f 160/86/3 115/192/3 111/188/3
f 111/188/3 107/186/3 160/86/3
f 91/170/3 87/165/3 160/86/3
f 87/165/3 84/220/3 160/86/3
f 160/86/3 99/178/3 95/173/3
f 93/176/4 97/180/4 161/57/4
f 122/196/4 126/200/4 161/57/4
f 138/212/4 161/57/4 134/208/4
f 126/200/4 130/204/4 161/57/4
f 161/57/4 113/190/4 118/197/4
f 118/197/4 122/196/4 161/57/4
f 138/212/4 142/216/4 161/57/4
f 142/216/4 81/162/4 161/57/4
f 161/57/4 130/204/4 134/208/4
f 161/57/4 81/162/4 85/168/4
f 85/168/4 89/172/4 161/57/4
f 89/172/4 93/176/4 161/57/4
f 113/190/4 161/57/4 109/56/4
f 161/57/4 97/180/4 101/184/4
f 105/55/4 161/57/4 101/184/4
f 112/252/127 18/253/128 162/226/126
f 26/60/37 114/254/22 18/253/128
f 27/66/37 116/255/22 120/64/36
f 162/226/126 158/256/27 112/252/127
f 164/221/124 145/257/7 86/258/129
f 82/20/8 164/221/124 86/258/129
f 162/226/126 114/254/22 110/224/6
f 12/1/1 13/259/2 61/2/2
f 100/4/3 152/14/3 150/5/3
f 106/7/4 155/228/4 157/8/5
f 90/10/4 86/260/129 145/11/7
f 100/4/3 104/82/3 154/13/3
f 94/15/4 90/10/4 146/12/4
f 83/17/8 17/22/11 21/18/9
f 82/20/8 141/78/10 20/21/9
f 1/23/8 17/261/8 20/24/12
f 2/25/13 20/24/12 22/26/14
f 3/27/7 22/26/14 23/28/15
f 24/30/4 5/107/4 4/29/16
f 6/31/17 5/90/4 24/32/4
f 7/34/5 6/31/17 25/33/18
f 8/36/20 7/34/5 28/35/19
f 9/38/22 8/36/20 26/37/21
f 27/40/23 10/42/25 9/38/22
f 29/41/24 11/44/27 10/42/25
f 30/43/26 12/1/28 11/44/27
f 31/45/3 13/259/3 12/1/28
f 14/46/29 13/93/3 31/47/3
f 15/49/31 14/46/29 32/48/30
f 16/51/33 15/49/31 19/50/32
f 1/53/8 16/51/33 21/52/34
f 28/58/35 121/61/38 117/59/36
f 121/61/38 28/58/35 25/62/39
f 120/64/36 124/68/38 29/65/35
f 24/67/41 129/262/41 125/63/40
f 124/68/38 128/72/40 30/69/39
f 133/70/42 129/262/41 24/67/41
f 128/72/40 132/77/41 31/73/41
f 137/74/44 133/70/42 23/71/43
f 136/76/42 32/80/43 31/73/41
f 141/78/10 137/74/44 22/75/45
f 140/79/44 19/81/45 32/80/43
f 144/19/10 21/18/9 19/81/45
f 104/82/3 108/235/3 156/83/3
f 47/87/46 79/135/79 78/88/47
f 5/90/49 6/31/50 54/91/50
f 13/93/2 14/46/51 62/94/51
f 7/34/52 55/97/52 54/91/50
f 14/46/51 15/49/53 63/96/53
f 8/36/54 56/98/54 55/97/52
f 16/51/55 64/100/55 63/96/53
f 9/38/56 57/101/56 56/98/54
f 2/25/57 50/102/57 49/99/58
f 1/53/58 49/127/58 64/100/55
f 10/42/59 58/104/59 57/101/56
f 3/27/60 51/106/60 50/102/57
f 10/42/59 11/44/61 59/103/61
f 3/27/60 4/29/62 52/105/62
f 12/1/1 60/3/1 59/103/61
f 5/107/49 53/112/49 52/105/62
f 34/108/63 33/263/76 49/99/41
f 35/109/64 34/108/63 50/102/41
f 36/110/65 35/109/64 51/106/41
f 37/111/66 36/110/65 52/105/41
f 37/113/66 53/92/41 54/91/41
f 38/114/67 54/91/41 55/97/41
f 40/116/69 39/115/68 55/97/41
f 40/116/69 56/98/41 57/101/41
f 41/117/70 57/101/41 58/104/41
f 42/118/71 58/104/41 59/103/41
f 43/119/72 59/103/41 60/3/41
f 44/120/73 60/3/41 61/2/41
f 45/122/74 61/95/41 62/94/41
f 47/124/46 46/123/48 62/94/41
f 48/125/75 47/124/46 63/96/41
f 33/126/76 48/125/75 64/100/41
f 40/131/69 72/137/78 71/132/77
f 48/134/75 80/142/81 79/135/79
f 41/136/70 73/144/82 72/137/78
f 34/138/63 66/146/83 65/139/80
f 33/141/76 65/264/80 80/142/81
f 42/143/71 74/148/84 73/144/82
f 35/145/64 67/150/85 66/146/83
f 43/147/72 75/152/86 74/148/84
f 36/149/65 68/154/87 67/150/85
f 44/151/73 76/156/88 75/152/86
f 37/153/66 69/158/89 68/154/87
f 45/155/74 77/159/90 76/156/88
f 38/157/67 70/160/91 69/158/89
f 46/89/48 78/88/47 77/159/90
f 39/133/68 71/132/77 70/160/91
f 86/161/92 85/168/92 81/162/93
f 83/164/94 84/220/94 87/165/95
f 90/167/96 89/172/96 85/168/92
f 92/169/97 88/166/95 87/165/95
f 94/171/98 93/176/98 89/172/96
f 92/169/97 91/170/97 95/173/99
f 98/175/100 97/180/100 93/176/98
f 100/177/101 96/174/99 95/173/99
f 102/179/102 101/184/102 97/180/100
f 100/177/101 99/178/101 103/181/103
f 106/183/104 105/55/104 101/184/102
f 108/185/105 104/182/103 103/181/103
f 110/187/106 109/56/106 105/55/104
f 108/185/105 107/186/105 111/188/107
f 110/187/106 114/194/108 113/190/108
f 116/191/109 112/189/107 111/188/107
f 117/193/110 118/197/110 113/190/108
f 116/191/109 115/192/109 119/85/111
f 117/193/110 121/199/112 122/196/112
f 124/198/113 120/195/111 119/85/111
f 121/199/112 125/203/114 126/200/114
f 124/198/113 123/84/113 127/201/115
f 125/203/114 129/207/116 130/204/116
f 132/205/117 128/202/115 127/201/115
f 129/207/116 133/211/118 134/208/118
f 132/205/117 131/206/117 135/209/119
f 133/211/118 137/215/120 138/212/120
f 140/213/121 136/210/119 135/209/119
f 137/215/120 141/219/122 142/216/122
f 144/217/123 140/213/121 139/214/121
f 141/219/122 82/163/93 81/162/93
f 83/164/94 144/217/123 143/218/123
f 83/17/8 88/222/125 164/221/124
f 88/222/125 148/265/31 165/223/8
f 110/224/6 157/266/5 163/225/22
f 102/227/4 153/232/4 155/228/4
f 96/6/3 150/5/3 147/229/3
f 98/231/4 151/237/4 153/232/4
f 92/230/3 147/229/3 148/233/31
f 108/235/3 112/267/127 158/236/27
f 98/231/4 94/15/4 149/16/4
f 112/252/127 116/255/22 18/253/128
f 26/60/37 117/59/36 114/254/22
f 27/66/37 18/253/128 116/255/22
f 162/226/126 163/225/22 158/256/27
f 164/221/124 165/223/8 145/257/7
f 82/20/8 17/22/11 164/221/124
f 162/226/126 18/253/128 114/254/22
