v -0.184698 0.039803 0.146736
v -0.184698 0.041220 0.141826
v -0.164928 0.039803 0.146736
v -0.164928 0.041220 0.141826
v -0.184698 0.038345 0.140997
v -0.184698 0.036928 0.145906
v -0.164928 0.038345 0.140997
v -0.164928 0.036928 0.145906
v -0.194127 0.041220 0.141826
v -0.194127 0.039803 0.146736
v -0.155499 0.039803 0.146736
v -0.155499 0.041220 0.141826
v -0.194127 0.038345 0.140997
v -0.194127 0.036928 0.145906
v -0.155499 0.036928 0.145906
v -0.155499 0.038345 0.140997
v -0.184098 0.043991 0.147321
v -0.184698 0.043249 0.147731
v -0.184698 0.044666 0.142821
v -0.184098 0.045242 0.142987
v -0.165528 0.043991 0.147321
v -0.164928 0.043249 0.147731
v -0.165528 0.045242 0.142987
v -0.164928 0.044666 0.142821
vn -0.0000 0.9608 0.2773
vn 1.0000 -0.0000 -0.0000
vn -1.0000 -0.0000 -0.0000
vn -0.0000 -0.2773 0.9608
vn -0.0000 0.2773 -0.9608
vn -0.7071 0.6794 0.1961
vn 0.7071 0.6794 0.1961
vn -0.0000 0.4833 0.8755
vt 0.985679 0.531677
vt 0.988802 0.544539
vt 0.985679 0.544539
vt 0.273370 0.891807
vt 0.270886 0.895346
vt 0.270886 0.891807
vt 0.395325 0.909461
vt 0.392841 0.905922
vt 0.395325 0.905922
vt 0.991874 0.531262
vt 0.993946 0.544955
vt 0.991874 0.544955
vt 0.369814 0.557936
vt 0.356536 0.557521
vt 0.370229 0.557521
vt 0.356536 0.555037
vt 0.370229 0.552964
vt 0.370229 0.555037
vt 0.401855 0.905922
vt 0.403928 0.909461
vt 0.401855 0.909461
vt 0.264356 0.895346
vt 0.262283 0.891807
vt 0.264356 0.891807
vt 0.376760 0.555037
vt 0.991874 0.551485
vt 0.350006 0.552964
vt 0.356536 0.552964
vt 0.993946 0.524731
vt 0.993946 0.531262
vt 0.392253 0.909046
vt 0.392841 0.909461
vt 0.273958 0.894931
vt 0.273958 0.891807
vt 0.988802 0.531677
vt 0.989390 0.544955
vt 0.273370 0.895346
vt 0.356952 0.557936
vt 0.403928 0.905922
vt 0.262283 0.895346
vt 0.376760 0.552964
vt 0.993946 0.551485
vt 0.350006 0.555037
vt 0.991874 0.524731
vt 0.392253 0.905922
vt 0.989390 0.531262
s 0
f 20/1/1 21/2/1 23/3/1
f 24/4/2 3/5/2 4/6/2
f 1/7/3 19/8/3 2/9/3
f 1/10/4 8/11/4 3/12/4
f 20/13/5 24/14/5 19/15/5
f 4/16/5 5/17/5 2/18/5
f 9/19/3 14/20/3 10/21/3
f 11/22/2 16/23/2 12/24/2
f 5/17/5 9/25/5 2/18/5
f 8/11/4 11/26/4 3/12/4
f 2/9/1 10/21/1 1/7/1
f 4/16/5 16/27/5 7/28/5
f 3/5/1 12/24/1 4/6/1
f 1/10/4 14/29/4 6/30/4
f 17/31/6 19/8/6 18/32/6
f 21/33/7 24/4/7 23/34/7
f 17/35/8 22/36/8 21/2/8
f 22/36/4 1/10/4 3/12/4
f 19/15/5 4/16/5 2/18/5
f 20/1/1 17/35/1 21/2/1
f 24/4/2 22/37/2 3/5/2
f 1/7/3 18/32/3 19/8/3
f 1/10/4 6/30/4 8/11/4
f 20/13/5 23/38/5 24/14/5
f 4/16/5 7/28/5 5/17/5
f 9/19/3 13/39/3 14/20/3
f 11/22/2 15/40/2 16/23/2
f 5/17/5 13/41/5 9/25/5
f 8/11/4 15/42/4 11/26/4
f 2/9/1 9/19/1 10/21/1
f 4/16/5 12/43/5 16/27/5
f 3/5/1 11/22/1 12/24/1
f 1/10/4 10/44/4 14/29/4
f 17/31/6 20/45/6 19/8/6
f 21/33/7 22/37/7 24/4/7
f 17/35/8 18/46/8 22/36/8
f 22/36/4 18/46/4 1/10/4
f 19/15/5 24/14/5 4/16/5
