v 0.140161 0.087878 -0.149803
v 0.142664 0.087632 -0.149803
v 0.145071 0.086902 -0.149803
v 0.149233 0.084120 -0.149803
v 0.152745 0.077551 -0.149803
v 0.152015 0.070138 -0.149803
v 0.150829 0.067920 -0.149803
v 0.142664 0.062465 -0.149803
v 0.140161 0.062218 -0.149803
v 0.128308 0.070138 -0.149803
v 0.127578 0.072545 -0.149803
v 0.127331 0.075048 -0.149803
v 0.127578 0.077551 -0.149803
v 0.128308 0.079958 -0.149803
v 0.129493 0.082176 -0.149803
v 0.131089 0.084120 -0.149803
v 0.133033 0.085716 -0.149803
v 0.137658 0.087632 -0.149803
v 0.146076 0.079001 -0.147803
v 0.146734 0.077771 -0.147803
v 0.147139 0.076436 -0.147803
v 0.147275 0.075048 -0.147803
v 0.147139 0.073660 -0.147803
v 0.146076 0.071096 -0.147803
v 0.142884 0.068476 -0.147803
v 0.136209 0.069133 -0.147803
v 0.134246 0.071096 -0.147803
v 0.133589 0.072326 -0.147803
v 0.133047 0.075048 -0.147803
v 0.152015 0.079958 -0.155803
v 0.149233 0.065976 -0.155803
v 0.137658 0.062465 -0.155803
v 0.140161 0.082162 -0.148523
v 0.140161 0.075048 -0.148522
v 0.141549 0.082026 -0.148523
v 0.142884 0.081621 -0.148523
v 0.144114 0.080963 -0.148523
v 0.145192 0.080079 -0.148522
v 0.146076 0.079001 -0.148522
v 0.146734 0.077771 -0.148522
v 0.147139 0.076436 -0.148522
v 0.147275 0.075048 -0.148522
v 0.147139 0.073660 -0.148522
v 0.146734 0.072326 -0.148522
v 0.146076 0.071096 -0.148522
v 0.145192 0.070018 -0.148522
v 0.144114 0.069133 -0.148522
v 0.142884 0.068476 -0.148522
v 0.141549 0.068071 -0.148522
v 0.140161 0.067934 -0.148522
v 0.138773 0.068071 -0.148522
v 0.137439 0.068476 -0.148522
v 0.136209 0.069133 -0.148522
v 0.135131 0.070018 -0.148522
v 0.134246 0.071096 -0.148522
v 0.133589 0.072326 -0.148522
v 0.133184 0.073660 -0.148522
v 0.133047 0.075048 -0.148522
v 0.133184 0.076436 -0.148522
v 0.133589 0.077771 -0.148522
v 0.134246 0.079001 -0.148522
v 0.135131 0.080079 -0.148522
v 0.136209 0.080963 -0.148523
v 0.137439 0.081621 -0.148523
v 0.138773 0.082026 -0.148523
v 0.131089 0.065976 -0.155803
v 0.140161 0.082162 -0.147803
v 0.141549 0.082026 -0.147803
v 0.147289 0.085716 -0.155803
v 0.142884 0.081621 -0.147803
v 0.152991 0.075048 -0.155803
v 0.144114 0.080963 -0.147803
v 0.147289 0.085716 -0.149803
v 0.145192 0.080079 -0.147803
v 0.147289 0.064380 -0.155803
v 0.135251 0.063195 -0.155803
v 0.150829 0.082176 -0.149803
v 0.129493 0.067920 -0.155803
v 0.152015 0.079958 -0.149803
v 0.140161 0.087878 -0.155803
v 0.137658 0.087632 -0.155803
v 0.133033 0.085716 -0.155803
v 0.152991 0.075048 -0.149803
v 0.131089 0.084120 -0.155803
v 0.152745 0.072545 -0.149803
v 0.146734 0.072326 -0.147803
v 0.129493 0.082176 -0.155803
v 0.128308 0.079958 -0.155803
v 0.127578 0.077551 -0.155803
v 0.145192 0.070018 -0.147803
v 0.149233 0.065976 -0.149803
v 0.144114 0.069133 -0.147803
v 0.147289 0.064380 -0.149803
v 0.127331 0.075048 -0.155803
v 0.145071 0.063195 -0.149803
v 0.141549 0.068071 -0.147803
v 0.127578 0.072545 -0.155803
v 0.140161 0.067934 -0.147803
v 0.128308 0.070138 -0.155803
v 0.138773 0.068071 -0.147803
v 0.137658 0.062465 -0.149803
v 0.137439 0.068476 -0.147803
v 0.135251 0.063195 -0.149803
v 0.140161 0.062218 -0.155803
v 0.133033 0.064380 -0.149803
v 0.135131 0.070018 -0.147803
v 0.131089 0.065976 -0.149803
v 0.142664 0.062465 -0.155803
v 0.129493 0.067920 -0.149803
v 0.150829 0.067920 -0.155803
v 0.152015 0.070138 -0.155803
v 0.133184 0.073660 -0.147803
v 0.152745 0.077551 -0.155803
v 0.149233 0.084120 -0.155803
v 0.145071 0.086901 -0.155803
v 0.133184 0.076436 -0.147803
v 0.142664 0.087632 -0.155803
v 0.133589 0.077771 -0.147803
v 0.150829 0.082176 -0.155803
v 0.134246 0.079001 -0.147803
v 0.152745 0.072545 -0.155803
v 0.135131 0.080079 -0.147803
v 0.145071 0.063195 -0.155803
v 0.136209 0.080963 -0.147803
v 0.133033 0.064380 -0.155803
v 0.137439 0.081621 -0.147803
v 0.135251 0.086902 -0.149803
v 0.138773 0.082026 -0.147803
v 0.135251 0.086901 -0.155803
v 0.151599 0.079786 -0.155803
v 0.148915 0.066294 -0.155803
v 0.137746 0.062906 -0.155803
v 0.131407 0.066294 -0.155803
v 0.147039 0.085342 -0.155803
v 0.152541 0.075048 -0.155803
v 0.147039 0.064754 -0.155803
v 0.135423 0.063610 -0.155803
v 0.129867 0.068170 -0.155803
v 0.140161 0.087428 -0.155803
v 0.137746 0.087190 -0.155803
v 0.133283 0.085342 -0.155803
v 0.131407 0.083802 -0.155803
v 0.129867 0.081926 -0.155803
v 0.128723 0.079786 -0.155803
v 0.128019 0.077463 -0.155803
v 0.127781 0.075048 -0.155803
v 0.128019 0.072633 -0.155803
v 0.128723 0.070310 -0.155803
v 0.140161 0.062668 -0.155803
v 0.142576 0.062906 -0.155803
v 0.150455 0.068170 -0.155803
v 0.151599 0.070310 -0.155803
v 0.152304 0.077463 -0.155803
v 0.148915 0.083802 -0.155803
v 0.144899 0.086486 -0.155803
v 0.142576 0.087190 -0.155803
v 0.150455 0.081926 -0.155803
v 0.152304 0.072633 -0.155803
v 0.144899 0.063610 -0.155803
v 0.133283 0.064754 -0.155803
v 0.135423 0.086486 -0.155803
v 0.151599 0.079786 -0.156693
v 0.148915 0.066294 -0.156693
v 0.137746 0.062906 -0.156693
v 0.131407 0.066294 -0.156693
v 0.147039 0.085342 -0.156694
v 0.152541 0.075048 -0.156693
v 0.147039 0.064754 -0.156693
v 0.135423 0.063610 -0.156693
v 0.129867 0.068170 -0.156693
v 0.140161 0.087428 -0.156694
v 0.137746 0.087190 -0.156694
v 0.133283 0.085342 -0.156694
v 0.131407 0.083802 -0.156694
v 0.129867 0.081926 -0.156694
v 0.128723 0.079786 -0.156693
v 0.128019 0.077463 -0.156693
v 0.127781 0.075048 -0.156693
v 0.128019 0.072633 -0.156693
v 0.128723 0.070310 -0.156693
v 0.140161 0.062668 -0.156693
v 0.142576 0.062906 -0.156693
v 0.150455 0.068170 -0.156693
v 0.151599 0.070310 -0.156693
v 0.152304 0.077463 -0.156693
v 0.148915 0.083802 -0.156694
v 0.144899 0.086486 -0.156694
v 0.142576 0.087190 -0.156694
v 0.150455 0.081926 -0.156694
v 0.152304 0.072633 -0.156693
v 0.144899 0.063610 -0.156693
v 0.133283 0.064754 -0.156693
v 0.135423 0.086486 -0.156694
vn -0.0000 0.8270 0.5622
vn 0.1613 0.8111 0.5622
vn 0.3165 0.7640 0.5622
vn 0.5848 0.5848 0.5622
vn 0.8111 0.1613 0.5622
vn 0.7640 -0.3165 0.5622
vn 0.6876 -0.4594 0.5622
vn 0.1613 -0.8111 0.5622
vn -0.0000 -0.8270 0.5622
vn -0.7640 -0.3165 0.5622
vn -0.8111 -0.1613 0.5622
vn -0.8270 -0.0000 0.5622
vn -0.8111 0.1613 0.5622
vn -0.7640 0.3165 0.5622
vn -0.6876 0.4594 0.5622
vn -0.5848 0.5848 0.5622
vn -0.4594 0.6876 0.5622
vn -0.1613 0.8111 0.5622
vn -0.4513 -0.3015 0.8399
vn -0.5015 -0.2077 0.8399
vn -0.5324 -0.1059 0.8399
vn -0.5428 -0.0000 0.8399
vn -0.5324 0.1059 0.8399
vn -0.4513 0.3016 0.8399
vn -0.2077 0.5015 0.8399
vn 0.3016 0.4513 0.8399
vn 0.4513 0.3016 0.8399
vn 0.5015 0.2077 0.8399
vn 0.5428 -0.0000 0.8399
vn 0.6725 0.2785 -0.6857
vn 0.5147 -0.5147 -0.6857
vn -0.1420 -0.7139 -0.6857
vn -0.0000 -0.7279 0.6857
vn -0.0000 -0.0000 1.0000
vn -0.1420 -0.7139 0.6857
vn -0.2785 -0.6725 0.6857
vn -0.4044 -0.6052 0.6857
vn -0.5147 -0.5147 0.6857
vn -0.6052 -0.4044 0.6857
vn -0.6725 -0.2785 0.6857
vn -0.7139 -0.1420 0.6857
vn -0.7279 -0.0000 0.6857
vn -0.7139 0.1420 0.6857
vn -0.6725 0.2785 0.6857
vn -0.6052 0.4044 0.6857
vn -0.5147 0.5147 0.6857
vn -0.4044 0.6052 0.6857
vn -0.2785 0.6725 0.6857
vn -0.1420 0.7139 0.6857
vn -0.0000 0.7279 0.6857
vn 0.1420 0.7139 0.6857
vn 0.2785 0.6725 0.6857
vn 0.4044 0.6052 0.6857
vn 0.5147 0.5147 0.6857
vn 0.6052 0.4044 0.6857
vn 0.6725 0.2786 0.6857
vn 0.7139 0.1420 0.6857
vn 0.7279 -0.0000 0.6857
vn 0.7139 -0.1420 0.6857
vn 0.6725 -0.2785 0.6857
vn 0.6052 -0.4044 0.6857
vn 0.5147 -0.5147 0.6857
vn 0.4044 -0.6052 0.6857
vn 0.2785 -0.6725 0.6857
vn 0.1420 -0.7139 0.6857
vn -0.5147 -0.5147 -0.6857
vn -0.0000 -0.5428 0.8399
vn -0.1059 -0.5324 0.8399
vn 0.4044 0.6052 -0.6857
vn -0.2077 -0.5015 0.8399
vn 0.7279 -0.0000 -0.6857
vn -0.3016 -0.4513 0.8399
vn 0.4594 0.6876 0.5622
vn -0.3838 -0.3838 0.8399
vn 0.4044 -0.6052 -0.6857
vn -0.2786 -0.6725 -0.6857
vn 0.6876 0.4595 0.5622
vn -0.6052 -0.4044 -0.6857
vn 0.7640 0.3165 0.5622
vn -0.0000 0.7279 -0.6857
vn -0.1420 0.7139 -0.6857
vn -0.4044 0.6052 -0.6857
vn 0.8270 -0.0000 0.5622
vn -0.5147 0.5147 -0.6857
vn 0.8111 -0.1613 0.5622
vn -0.5015 0.2077 0.8399
vn -0.6052 0.4044 -0.6857
vn -0.6725 0.2785 -0.6857
vn -0.7139 0.1420 -0.6857
vn -0.3838 0.3838 0.8399
vn 0.5848 -0.5848 0.5622
vn -0.3016 0.4513 0.8399
vn 0.4594 -0.6876 0.5622
vn -0.7279 -0.0000 -0.6857
vn 0.3165 -0.7640 0.5622
vn -0.1059 0.5324 0.8399
vn -0.7139 -0.1420 -0.6857
vn -0.0000 0.5428 0.8399
vn -0.6725 -0.2786 -0.6857
vn 0.1059 0.5324 0.8399
vn -0.1613 -0.8111 0.5622
vn 0.2077 0.5015 0.8399
vn -0.3165 -0.7640 0.5622
vn -0.0000 -0.7279 -0.6857
vn -0.4594 -0.6876 0.5622
vn 0.3838 0.3838 0.8399
vn -0.5848 -0.5848 0.5622
vn 0.1420 -0.7139 -0.6857
vn -0.6876 -0.4594 0.5622
vn 0.6052 -0.4044 -0.6857
vn 0.6725 -0.2786 -0.6857
vn 0.5324 0.1059 0.8399
vn 0.7139 0.1420 -0.6857
vn 0.5147 0.5147 -0.6857
vn 0.2786 0.6725 -0.6857
vn 0.5324 -0.1059 0.8399
vn 0.1420 0.7139 -0.6857
vn 0.5015 -0.2077 0.8399
vn 0.6052 0.4044 -0.6857
vn 0.4513 -0.3015 0.8399
vn 0.7139 -0.1420 -0.6857
vn 0.3838 -0.3838 0.8399
vn 0.2785 -0.6725 -0.6857
vn 0.3016 -0.4513 0.8399
vn -0.4044 -0.6052 -0.6857
vn 0.2077 -0.5015 0.8399
vn -0.3165 0.7640 0.5622
vn 0.1059 -0.5323 0.8399
vn -0.2785 0.6725 -0.6857
vn 0.6316 0.2616 -0.7298
vn 0.4834 -0.4834 -0.7298
vn -0.1334 -0.6705 -0.7298
vn -0.4834 -0.4834 -0.7298
vn 0.3798 0.5684 -0.7299
vn 0.6836 -0.0000 -0.7299
vn 0.3798 -0.5684 -0.7299
vn -0.2616 -0.6316 -0.7298
vn -0.5684 -0.3798 -0.7298
vn -0.0000 0.6836 -0.7299
vn -0.1334 0.6705 -0.7299
vn -0.3798 0.5684 -0.7299
vn -0.4834 0.4834 -0.7298
vn -0.5684 0.3798 -0.7299
vn -0.6316 0.2616 -0.7299
vn -0.6705 0.1334 -0.7299
vn -0.6836 -0.0000 -0.7299
vn -0.6705 -0.1334 -0.7299
vn -0.6316 -0.2616 -0.7298
vn -0.0000 -0.6836 -0.7298
vn 0.1334 -0.6705 -0.7298
vn 0.5684 -0.3798 -0.7298
vn 0.6316 -0.2616 -0.7298
vn 0.6705 0.1334 -0.7299
vn 0.4834 0.4834 -0.7299
vn 0.2616 0.6316 -0.7299
vn 0.1334 0.6705 -0.7299
vn 0.5684 0.3798 -0.7299
vn 0.6705 -0.1334 -0.7299
vn 0.2616 -0.6316 -0.7298
vn -0.3798 -0.5684 -0.7299
vn -0.2616 0.6316 -0.7299
vn 0.9239 0.3827 -0.0000
vn 0.7071 -0.7071 -0.0000
vn -0.1951 -0.9808 -0.0000
vn -0.7071 -0.7071 -0.0000
vn 0.5556 0.8315 -0.0000
vn 1.0000 -0.0000 -0.0000
vn 0.5556 -0.8315 -0.0000
vn -0.3827 -0.9239 -0.0000
vn -0.8315 -0.5556 -0.0000
vn -0.0000 1.0000 -0.0000
vn -0.1951 0.9808 -0.0000
vn -0.5556 0.8315 -0.0000
vn -0.7071 0.7071 -0.0000
vn -0.8315 0.5556 -0.0000
vn -0.9239 0.3827 -0.0000
vn -0.9808 0.1951 -0.0000
vn -1.0000 -0.0000 -0.0000
vn -0.9808 -0.1951 -0.0000
vn -0.9239 -0.3827 -0.0000
vn -0.0000 -1.0000 -0.0000
vn 0.1951 -0.9808 -0.0000
vn 0.8315 -0.5556 -0.0000
vn 0.9239 -0.3827 -0.0000
vn 0.9808 0.1951 -0.0000
vn 0.7071 0.7071 -0.0000
vn 0.3827 0.9239 -0.0000
vn 0.1951 0.9808 -0.0000
vn 0.8315 0.5556 -0.0000
vn 0.9808 -0.1951 -0.0000
vn 0.3827 -0.9239 -0.0000
vn -0.5556 -0.8315 -0.0000
vn -0.3827 0.9239 -0.0000
vt 0.002356 0.403606
vt 0.005040 0.408807
vt 0.002356 0.408807
vt 0.002356 0.434815
vt 0.005040 0.429613
vt 0.005040 0.434815
vt 0.002356 0.497233
vt 0.005040 0.502435
vt 0.002356 0.502435
vt 0.002356 0.398405
vt 0.005040 0.403606
vt 0.002356 0.424412
vt 0.002356 0.429613
vt 0.002356 0.492032
vt 0.005040 0.497233
vt 0.002356 0.393203
vt 0.005040 0.398405
vt 0.005040 0.486830
vt 0.005040 0.492032
vt 0.002356 0.388001
vt 0.005040 0.393203
vt 0.002356 0.481629
vt 0.002356 0.486830
vt 0.002356 0.382800
vt 0.005040 0.388001
vt 0.005040 0.476428
vt 0.005040 0.481629
vt 0.002356 0.377598
vt 0.005040 0.382800
vt 0.002356 0.471226
vt 0.002356 0.476428
vt 0.002356 0.372396
vt 0.005040 0.377598
vt 0.002356 0.466024
vt 0.005040 0.471226
vt 0.002356 0.367195
vt 0.005040 0.372396
vt 0.002356 0.460823
vt 0.005040 0.466024
vt 0.002356 0.361994
vt 0.005040 0.367195
vt 0.002356 0.455621
vt 0.005040 0.460823
vt 0.002356 0.356792
vt 0.005040 0.361994
vt 0.002356 0.450420
vt 0.005040 0.455621
vt 0.002356 0.351591
vt 0.005040 0.356792
vt 0.002356 0.419211
vt 0.005040 0.424412
vt 0.005040 0.445218
vt 0.005040 0.450420
vt 0.002356 0.346389
vt 0.005040 0.351591
vt 0.005040 0.414009
vt 0.005040 0.419211
vt 0.002356 0.445218
vt 0.005040 0.440016
vt 0.002356 0.341188
vt 0.005040 0.346389
vt 0.002356 0.414009
vt 0.002356 0.440016
vt 0.005040 0.507636
vt 0.002356 0.507636
vt 0.932298 0.792505
vt 0.909920 0.801886
vt 0.909920 0.792505
vt 0.932298 0.783124
vt 0.909920 0.783124
vt 0.932298 0.773743
vt 0.909920 0.773744
vt 0.932298 0.764363
vt 0.909920 0.764363
vt 0.932298 0.754982
vt 0.909919 0.754982
vt 0.932298 0.745601
vt 0.909919 0.745601
vt 0.932298 0.736220
vt 0.909919 0.736220
vt 0.932298 0.726839
vt 0.909919 0.726839
vt 0.932298 0.717458
vt 0.909919 0.717458
vt 0.932298 0.708078
vt 0.909919 0.708078
vt 0.932298 0.698696
vt 0.909919 0.698697
vt 0.932298 0.689316
vt 0.909919 0.689316
vt 0.932298 0.679935
vt 0.909919 0.679935
vt 0.932298 0.670554
vt 0.909919 0.670554
vt 0.932298 0.661173
vt 0.909919 0.661173
vt 0.932298 0.651792
vt 0.909919 0.651792
vt 0.932298 0.942598
vt 0.909920 0.951979
vt 0.909920 0.942598
vt 0.932298 0.933218
vt 0.909920 0.933218
vt 0.932298 0.923837
vt 0.909920 0.923837
vt 0.909920 0.914456
vt 0.909920 0.905075
vt 0.932298 0.914456
vt 0.932298 0.895694
vt 0.909920 0.895694
vt 0.932298 0.886313
vt 0.909920 0.886313
vt 0.932298 0.876933
vt 0.909920 0.876933
vt 0.932298 0.867552
vt 0.909920 0.867552
vt 0.909920 0.858171
vt 0.909920 0.848790
vt 0.932298 0.858171
vt 0.932298 0.839409
vt 0.909920 0.839410
vt 0.932298 0.830028
vt 0.909920 0.830029
vt 0.932298 0.820648
vt 0.909920 0.820648
vt 0.932298 0.811267
vt 0.909920 0.811267
vt 0.508149 0.216217
vt 0.495381 0.213402
vt 0.508146 0.213755
vt 0.554795 0.211697
vt 0.564281 0.208045
vt 0.564649 0.209773
vt 0.377718 0.179828
vt 0.384438 0.182500
vt 0.383773 0.183613
vt 0.495252 0.215654
vt 0.483436 0.212581
vt 0.544015 0.211378
vt 0.554474 0.209855
vt 0.371809 0.175784
vt 0.378424 0.178746
vt 0.483236 0.214682
vt 0.472263 0.211383
vt 0.544282 0.213345
vt 0.532846 0.212576
vt 0.638527 0.179824
vt 0.643607 0.174803
vt 0.644430 0.175783
vt 0.461485 0.211702
vt 0.472001 0.213349
vt 0.521041 0.215652
vt 0.533052 0.214679
vt 0.632474 0.183609
vt 0.637817 0.178744
vt 0.451990 0.208050
vt 0.461801 0.209859
vt 0.520905 0.213399
vt 0.626233 0.187204
vt 0.631806 0.182497
vt 0.442367 0.207613
vt 0.451626 0.209779
vt 0.619766 0.190625
vt 0.625598 0.186056
vt 0.434097 0.203700
vt 0.442773 0.205988
vt 0.613033 0.193878
vt 0.619161 0.189432
vt 0.425431 0.202655
vt 0.433653 0.205232
vt 0.605996 0.196967
vt 0.612460 0.192633
vt 0.417650 0.199899
vt 0.425909 0.201207
vt 0.598612 0.199893
vt 0.605452 0.195663
vt 0.410262 0.196974
vt 0.418160 0.198527
vt 0.590834 0.202649
vt 0.598098 0.198521
vt 0.403222 0.193884
vt 0.410803 0.195668
vt 0.582615 0.205226
vt 0.590352 0.201202
vt 0.396487 0.190630
vt 0.403793 0.192637
vt 0.573494 0.205982
vt 0.582167 0.203695
vt 0.390649 0.186059
vt 0.397088 0.189435
vt 0.573904 0.207607
vt 0.532518 0.169940
vt 0.515692 0.190456
vt 0.512013 0.186779
vt 0.520018 0.193345
vt 0.524824 0.195334
vt 0.529926 0.196346
vt 0.535127 0.196345
vt 0.540228 0.195328
vt 0.545034 0.193336
vt 0.549357 0.190445
vt 0.553034 0.186766
vt 0.555923 0.182439
vt 0.557912 0.177633
vt 0.558924 0.172531
vt 0.558923 0.167330
vt 0.557906 0.162229
vt 0.555914 0.157424
vt 0.553023 0.153100
vt 0.549344 0.149423
vt 0.545017 0.146535
vt 0.540211 0.144546
vt 0.535109 0.143533
vt 0.529908 0.143535
vt 0.524807 0.144551
vt 0.520002 0.146544
vt 0.515678 0.149435
vt 0.512001 0.153114
vt 0.509112 0.157440
vt 0.507124 0.162246
vt 0.506111 0.167348
vt 0.506113 0.172550
vt 0.507129 0.177651
vt 0.509121 0.182456
vt 0.081928 0.860306
vt 0.071102 0.881480
vt 0.067481 0.877866
vt 0.073972 0.854988
vt 0.063225 0.875029
vt 0.065130 0.851323
vt 0.058498 0.873076
vt 0.055743 0.849451
vt 0.053480 0.872083
vt 0.048365 0.872087
vt 0.046169 0.849447
vt 0.043350 0.873089
vt 0.036777 0.851309
vt 0.038626 0.875051
vt 0.027927 0.854969
vt 0.034377 0.877897
vt 0.019958 0.860288
vt 0.030765 0.881518
vt 0.013189 0.867067
vt 0.027930 0.885774
vt 0.007874 0.875034
vt 0.025979 0.890503
vt 0.004217 0.883883
vt 0.024989 0.895520
vt 0.002356 0.893274
vt 0.024996 0.900636
vt 0.002362 0.902846
vt 0.026001 0.905651
vt 0.004234 0.912233
vt 0.027964 0.910374
vt 0.007899 0.921074
vt 0.030811 0.914623
vt 0.013217 0.929029
vt 0.034432 0.918236
vt 0.019984 0.935797
vt 0.038688 0.921074
vt 0.027941 0.941115
vt 0.043415 0.923027
vt 0.036783 0.944780
vt 0.048433 0.924020
vt 0.046170 0.946651
vt 0.053547 0.924016
vt 0.055744 0.946656
vt 0.058564 0.923014
vt 0.065136 0.944794
vt 0.073987 0.941133
vt 0.063287 0.921051
vt 0.067537 0.918206
vt 0.081955 0.935815
vt 0.088724 0.929036
vt 0.071148 0.914585
vt 0.094039 0.921069
vt 0.073984 0.910328
vt 0.075934 0.905600
vt 0.097696 0.912220
vt 0.099557 0.902829
vt 0.076925 0.900583
vt 0.099552 0.893256
vt 0.076917 0.895467
vt 0.097680 0.883870
vt 0.075913 0.890452
vt 0.094014 0.875029
vt 0.073949 0.885729
vt 0.088696 0.867073
vt 0.390017 0.187209
vt 0.391906 0.183751
vt 0.472714 0.207436
vt 0.385766 0.180270
vt 0.508145 0.208975
vt 0.372632 0.174804
vt 0.379827 0.176584
vt 0.642178 0.172689
vt 0.636415 0.176583
vt 0.462368 0.206160
vt 0.604396 0.193040
vt 0.630478 0.180269
vt 0.597108 0.195764
vt 0.452660 0.204576
vt 0.495548 0.208897
vt 0.617973 0.187033
vt 0.624341 0.183749
vt 0.589433 0.198292
vt 0.443535 0.202721
vt 0.611337 0.190130
vt 0.572733 0.202717
vt 0.581323 0.200616
vt 0.434941 0.200620
vt 0.426828 0.198297
vt 0.419149 0.195768
vt 0.483755 0.208365
vt 0.520739 0.208896
vt 0.553906 0.206156
vt 0.563611 0.204573
vt 0.411859 0.193044
vt 0.404915 0.190133
vt 0.543564 0.207433
vt 0.398277 0.187036
vt 0.532527 0.208362
vt 0.005040 0.341188
vt 0.932298 0.801886
vt 0.932298 0.951979
vt 0.932298 0.905075
vt 0.932298 0.848790
vt 0.374061 0.172689
s 1
f 122/1/122 63/2/63 124/3/124
f 70/4/70 35/5/35 36/6/36
f 25/7/25 49/8/49 96/9/96
f 120/10/120 62/11/62 122/1/122
f 67/12/67 35/5/35 68/13/68
f 92/14/92 48/15/48 25/7/25
f 118/16/118 61/17/61 120/10/120
f 92/14/92 46/18/46 47/19/47
f 116/20/116 60/21/60 118/16/118
f 24/22/24 46/18/46 90/23/90
f 29/24/29 59/25/59 116/20/116
f 24/22/24 44/26/44 45/27/45
f 112/28/112 58/29/58 29/24/29
f 23/30/23 44/26/44 86/31/86
f 28/32/28 57/33/57 112/28/112
f 22/34/22 43/35/43 23/30/23
f 27/36/27 56/37/56 28/32/28
f 21/38/21 42/39/42 22/34/22
f 106/40/106 55/41/55 27/36/27
f 20/42/20 41/43/41 21/38/21
f 26/44/26 54/45/54 106/40/106
f 19/46/19 40/47/40 20/42/20
f 102/48/102 53/49/53 26/44/26
f 128/50/128 33/51/33 67/12/67
f 19/46/19 38/52/38 39/53/39
f 100/54/100 52/55/52 102/48/102
f 128/50/128 64/56/64 65/57/65
f 74/58/74 37/59/37 38/52/38
f 98/60/98 51/61/51 100/54/100
f 124/3/124 64/56/64 126/62/126
f 70/4/70 37/59/37 72/63/72
f 96/9/96 50/64/50 98/65/98
f 18/66/18 80/67/80 81/68/81
f 127/69/127 81/68/81 129/70/129
f 17/71/17 129/70/129 82/72/82
f 16/73/16 82/72/82 84/74/84
f 15/75/15 84/74/84 87/76/87
f 14/77/14 87/76/87 88/78/88
f 13/79/13 88/78/88 89/80/89
f 12/81/12 89/80/89 94/82/94
f 11/83/11 94/82/94 97/84/97
f 10/85/10 97/84/97 99/86/99
f 109/87/109 99/86/99 78/88/78
f 107/89/107 78/88/78 66/90/66
f 105/91/105 66/90/66 125/92/125
f 103/93/103 125/92/125 76/94/76
f 101/95/101 76/94/76 32/96/32
f 9/97/9 32/96/32 104/98/104
f 8/99/8 104/100/104 108/101/108
f 95/102/95 108/101/108 123/103/123
f 93/104/93 123/103/123 75/105/75
f 31/106/31 93/104/93 75/105/75
f 110/107/110 91/108/91 31/106/31
f 6/109/6 110/107/110 111/110/111
f 85/111/85 111/110/111 121/112/121
f 83/113/83 121/112/121 71/114/71
f 5/115/5 71/114/71 113/116/113
f 30/117/30 5/115/5 113/116/113
f 119/118/119 79/119/79 30/117/30
f 4/120/4 119/118/119 114/121/114
f 73/122/73 114/121/114 69/123/69
f 3/124/3 69/123/69 115/125/115
f 2/126/2 115/125/115 117/127/117
f 80/67/80 2/126/2 117/127/117
f 80/128/80 156/129/156 139/130/139
f 84/131/84 143/132/143 87/133/87
f 108/134/108 159/135/159 123/136/123
f 117/137/117 155/138/155 156/129/156
f 84/131/84 141/139/141 142/140/142
f 104/141/104 150/142/150 108/134/108
f 115/143/115 134/144/134 155/138/155
f 82/145/82 161/146/161 141/139/141
f 32/147/32 149/148/149 104/149/104
f 114/150/114 134/144/134 69/151/69
f 81/152/81 161/146/161 129/153/129
f 76/154/76 132/155/132 32/147/32
f 114/150/114 157/156/157 154/157/154
f 81/152/81 139/130/139 140/158/140
f 125/159/125 137/160/137 76/154/76
f 30/161/30 157/156/157 119/162/119
f 66/163/66 160/164/160 125/159/125
f 30/161/30 153/165/153 130/166/130
f 78/167/78 133/168/133 66/163/66
f 71/169/71 153/165/153 113/170/113
f 99/171/99 138/172/138 78/167/78
f 121/173/121 135/174/135 71/169/71
f 97/175/97 148/176/148 99/171/99
f 111/177/111 158/178/158 121/173/121
f 94/179/94 147/180/147 97/175/97
f 110/181/110 152/182/152 111/177/111
f 89/183/89 146/184/146 94/179/94
f 31/185/31 151/186/151 110/181/110
f 89/183/89 144/187/144 145/188/145
f 31/185/31 136/189/136 131/190/131
f 87/133/87 144/187/144 88/191/88
f 34/192/34 35/193/35 33/194/33
f 34/192/34 36/195/36 35/193/35
f 34/192/34 37/196/37 36/195/36
f 34/192/34 38/197/38 37/196/37
f 34/192/34 39/198/39 38/197/38
f 34/192/34 40/199/40 39/198/39
f 34/192/34 41/200/41 40/199/40
f 34/192/34 42/201/42 41/200/41
f 34/192/34 43/202/43 42/201/42
f 34/192/34 44/203/44 43/202/43
f 34/192/34 45/204/45 44/203/44
f 34/192/34 46/205/46 45/204/45
f 34/192/34 47/206/47 46/205/46
f 34/192/34 48/207/48 47/206/47
f 34/192/34 49/208/49 48/207/48
f 34/192/34 50/209/50 49/208/49
f 34/192/34 51/210/51 50/209/50
f 34/192/34 52/211/52 51/210/51
f 34/192/34 53/212/53 52/211/52
f 34/192/34 54/213/54 53/212/53
f 34/192/34 55/214/55 54/213/54
f 34/192/34 56/215/56 55/214/55
f 34/192/34 57/216/57 56/215/56
f 34/192/34 58/217/58 57/216/57
f 34/192/34 59/218/59 58/217/58
f 34/192/34 60/219/60 59/218/59
f 34/192/34 61/220/61 60/219/60
f 34/192/34 62/221/62 61/220/61
f 34/192/34 63/222/63 62/221/62
f 34/192/34 64/223/64 63/222/63
f 34/192/34 65/224/65 64/223/64
f 34/192/34 33/194/33 65/224/65
f 2/225/2 67/226/67 68/227/68
f 3/228/3 68/227/68 70/229/70
f 73/230/73 70/229/70 72/231/72
f 4/232/4 72/231/72 74/233/74
f 4/232/4 19/234/19 77/235/77
f 77/235/77 20/236/20 79/237/79
f 79/237/79 21/238/21 5/239/5
f 5/239/5 22/240/22 83/241/83
f 83/241/83 23/242/23 85/243/85
f 85/243/85 86/244/86 6/245/6
f 6/245/6 24/246/24 7/247/7
f 7/247/7 90/248/90 91/249/91
f 91/249/91 92/250/92 93/251/93
f 93/251/93 25/252/25 95/253/95
f 95/253/95 96/254/96 8/255/8
f 8/255/8 98/256/98 9/257/9
f 9/257/9 100/258/100 101/259/101
f 101/259/101 102/260/102 103/261/103
f 103/261/103 26/262/26 105/263/105
f 105/263/105 106/264/106 107/265/107
f 107/265/107 27/266/27 109/267/109
f 109/267/109 28/268/28 10/269/10
f 11/270/11 28/268/28 112/271/112
f 11/270/11 29/272/29 12/273/12
f 13/274/13 29/272/29 116/275/116
f 14/276/14 116/275/116 118/277/118
f 14/276/14 120/278/120 15/279/15
f 16/280/16 120/278/120 122/281/122
f 17/282/17 122/281/122 124/283/124
f 127/284/127 124/283/124 126/285/126
f 18/286/18 126/285/126 128/287/128
f 1/288/1 128/287/128 67/226/67
f 123/136/123 136/189/136 75/289/75
f 159/135/159 168/290/168 136/189/136
f 154/157/154 166/291/166 134/144/134
f 150/142/150 191/292/191 159/135/159
f 156/129/156 171/293/171 139/130/139
f 149/294/149 182/295/182 150/142/150
f 132/155/132 181/296/181 149/148/149
f 137/160/137 164/297/164 132/155/132
f 157/156/157 186/298/186 154/157/154
f 147/180/147 180/299/180 148/176/148
f 160/164/160 169/300/169 137/160/137
f 146/184/146 179/301/179 147/180/147
f 130/166/130 189/302/189 157/156/157
f 155/138/155 188/303/188 156/129/156
f 160/164/160 165/304/165 192/305/192
f 145/188/145 178/306/178 146/184/146
f 153/165/153 162/307/162 130/166/130
f 133/168/133 170/308/170 165/304/165
f 145/188/145 176/309/176 177/310/177
f 135/174/135 185/311/185 153/165/153
f 148/176/148 170/308/170 138/172/138
f 158/178/158 167/312/167 135/174/135
f 143/132/143 176/309/176 144/187/144
f 152/182/152 190/313/190 158/178/158
f 134/144/134 187/314/187 155/138/155
f 139/130/139 172/315/172 140/158/140
f 143/132/143 174/316/174 175/317/175
f 151/186/151 184/318/184 152/182/152
f 141/139/141 174/316/174 142/140/142
f 131/190/131 183/319/183 151/186/151
f 161/146/161 173/320/173 141/139/141
f 136/189/136 163/321/163 131/190/131
f 140/158/140 193/322/193 161/146/161
f 122/1/122 62/11/62 63/2/63
f 70/4/70 68/13/68 35/5/35
f 25/7/25 48/15/48 49/8/49
f 120/10/120 61/17/61 62/11/62
f 67/12/67 33/51/33 35/5/35
f 92/14/92 47/19/47 48/15/48
f 118/16/118 60/21/60 61/17/61
f 92/14/92 90/23/90 46/18/46
f 116/20/116 59/25/59 60/21/60
f 24/22/24 45/27/45 46/18/46
f 29/24/29 58/29/58 59/25/59
f 24/22/24 86/31/86 44/26/44
f 112/28/112 57/33/57 58/29/58
f 23/30/23 43/35/43 44/26/44
f 28/32/28 56/37/56 57/33/57
f 22/34/22 42/39/42 43/35/43
f 27/36/27 55/41/55 56/37/56
f 21/38/21 41/43/41 42/39/42
f 106/40/106 54/45/54 55/41/55
f 20/42/20 40/47/40 41/43/41
f 26/44/26 53/49/53 54/45/54
f 19/46/19 39/53/39 40/47/40
f 102/48/102 52/55/52 53/49/53
f 128/50/128 65/57/65 33/51/33
f 19/46/19 74/58/74 38/52/38
f 100/54/100 51/61/51 52/55/52
f 128/50/128 126/62/126 64/56/64
f 74/58/74 72/63/72 37/59/37
f 98/60/98 50/323/50 51/61/51
f 124/3/124 63/2/63 64/56/64
f 70/4/70 36/6/36 37/59/37
f 96/9/96 49/8/49 50/64/50
f 18/66/18 1/324/1 80/67/80
f 127/69/127 18/66/18 81/68/81
f 17/71/17 127/69/127 129/70/129
f 16/73/16 17/71/17 82/72/82
f 15/75/15 16/73/16 84/74/84
f 14/77/14 15/75/15 87/76/87
f 13/79/13 14/77/14 88/78/88
f 12/81/12 13/79/13 89/80/89
f 11/83/11 12/81/12 94/82/94
f 10/85/10 11/83/11 97/84/97
f 109/87/109 10/85/10 99/86/99
f 107/89/107 109/87/109 78/88/78
f 105/91/105 107/89/107 66/90/66
f 103/93/103 105/91/105 125/92/125
f 101/95/101 103/93/103 76/94/76
f 9/97/9 101/95/101 32/96/32
f 8/99/8 9/325/9 104/100/104
f 95/102/95 8/99/8 108/101/108
f 93/104/93 95/102/95 123/103/123
f 31/106/31 91/108/91 93/104/93
f 110/107/110 7/326/7 91/108/91
f 6/109/6 7/326/7 110/107/110
f 85/111/85 6/109/6 111/110/111
f 83/113/83 85/111/85 121/112/121
f 5/115/5 83/113/83 71/114/71
f 30/117/30 79/119/79 5/115/5
f 119/118/119 77/327/77 79/119/79
f 4/120/4 77/327/77 119/118/119
f 73/122/73 4/120/4 114/121/114
f 3/124/3 73/122/73 69/123/69
f 2/126/2 3/124/3 115/125/115
f 80/67/80 1/324/1 2/126/2
f 80/128/80 117/137/117 156/129/156
f 84/131/84 142/140/142 143/132/143
f 108/134/108 150/142/150 159/135/159
f 117/137/117 115/143/115 155/138/155
f 84/131/84 82/145/82 141/139/141
f 104/141/104 149/294/149 150/142/150
f 115/143/115 69/151/69 134/144/134
f 82/145/82 129/153/129 161/146/161
f 32/147/32 132/155/132 149/148/149
f 114/150/114 154/157/154 134/144/134
f 81/152/81 140/158/140 161/146/161
f 76/154/76 137/160/137 132/155/132
f 114/150/114 119/162/119 157/156/157
f 81/152/81 80/128/80 139/130/139
f 125/159/125 160/164/160 137/160/137
f 30/161/30 130/166/130 157/156/157
f 66/163/66 133/168/133 160/164/160
f 30/161/30 113/170/113 153/165/153
f 78/167/78 138/172/138 133/168/133
f 71/169/71 135/174/135 153/165/153
f 99/171/99 148/176/148 138/172/138
f 121/173/121 158/178/158 135/174/135
f 97/175/97 147/180/147 148/176/148
f 111/177/111 152/182/152 158/178/158
f 94/179/94 146/184/146 147/180/147
f 110/181/110 151/186/151 152/182/152
f 89/183/89 145/188/145 146/184/146
f 31/185/31 131/190/131 151/186/151
f 89/183/89 88/191/88 144/187/144
f 31/185/31 75/289/75 136/189/136
f 87/133/87 143/132/143 144/187/144
f 2/225/2 1/288/1 67/226/67
f 3/228/3 2/225/2 68/227/68
f 73/230/73 3/228/3 70/229/70
f 4/232/4 73/230/73 72/231/72
f 4/232/4 74/233/74 19/234/19
f 77/235/77 19/234/19 20/236/20
f 79/237/79 20/236/20 21/238/21
f 5/239/5 21/238/21 22/240/22
f 83/241/83 22/240/22 23/242/23
f 85/243/85 23/242/23 86/244/86
f 6/245/6 86/244/86 24/246/24
f 7/247/7 24/246/24 90/248/90
f 91/249/91 90/248/90 92/250/92
f 93/251/93 92/250/92 25/252/25
f 95/253/95 25/252/25 96/254/96
f 8/255/8 96/254/96 98/256/98
f 9/257/9 98/256/98 100/258/100
f 101/259/101 100/258/100 102/260/102
f 103/261/103 102/260/102 26/262/26
f 105/263/105 26/262/26 106/264/106
f 107/265/107 106/264/106 27/266/27
f 109/267/109 27/266/27 28/268/28
f 11/270/11 10/269/10 28/268/28
f 11/270/11 112/271/112 29/272/29
f 13/274/13 12/273/12 29/272/29
f 14/276/14 13/274/13 116/275/116
f 14/276/14 118/277/118 120/278/120
f 16/280/16 15/279/15 120/278/120
f 17/282/17 16/280/16 122/281/122
f 127/284/127 17/282/17 124/283/124
f 18/286/18 127/284/127 126/285/126
f 1/288/1 18/286/18 128/287/128
f 123/136/123 159/135/159 136/189/136
f 159/135/159 191/292/191 168/290/168
f 154/157/154 186/298/186 166/291/166
f 150/142/150 182/295/182 191/292/191
f 156/129/156 188/303/188 171/293/171
f 149/294/149 181/328/181 182/295/182
f 132/155/132 164/297/164 181/296/181
f 137/160/137 169/300/169 164/297/164
f 157/156/157 189/302/189 186/298/186
f 147/180/147 179/301/179 180/299/180
f 160/164/160 192/305/192 169/300/169
f 146/184/146 178/306/178 179/301/179
f 130/166/130 162/307/162 189/302/189
f 155/138/155 187/314/187 188/303/188
f 160/164/160 133/168/133 165/304/165
f 145/188/145 177/310/177 178/306/178
f 153/165/153 185/311/185 162/307/162
f 133/168/133 138/172/138 170/308/170
f 145/188/145 144/187/144 176/309/176
f 135/174/135 167/312/167 185/311/185
f 148/176/148 180/299/180 170/308/170
f 158/178/158 190/313/190 167/312/167
f 143/132/143 175/317/175 176/309/176
f 152/182/152 184/318/184 190/313/190
f 134/144/134 166/291/166 187/314/187
f 139/130/139 171/293/171 172/315/172
f 143/132/143 142/140/142 174/316/174
f 151/186/151 183/319/183 184/318/184
f 141/139/141 173/320/173 174/316/174
f 131/190/131 163/321/163 183/319/183
f 161/146/161 193/322/193 173/320/173
f 136/189/136 168/290/168 163/321/163
f 140/158/140 172/315/172 193/322/193
