
v -1.612406 0.016718 0.854411
v -1.596916 0.002179 0.835280
v 0.155250 1.496652 1.160830
v 0.170739 1.482113 1.141698
v -0.110022 2.186180 0.422035
v -0.094533 2.171641 0.402904
v -2.035711 1.117027 -0.324515
v -2.020222 1.102488 -0.343646
v 0.043186 1.813665 0.786457
v 0.027697 1.828204 0.805588
v -2.568917 0.026102 0.072866
v -2.553428 0.011563 0.053735
v -0.064373 2.200548 0.452280
v -0.094909 2.201169 0.463823
v -0.123480 2.185882 0.459814
v -0.136717 2.161840 0.442128
v -0.128428 2.140291 0.419040
v -0.102489 2.131321 0.401354
v -0.071039 2.139124 0.397345
v -0.048793 2.160051 0.408889
v -0.046161 2.184309 0.430584
v 0.190056 1.539204 1.160877
v 0.159520 1.539825 1.172421
v 0.130949 1.524538 1.168412
v 0.117712 1.500495 1.150725
v 0.126002 1.478947 1.127638
v 0.151940 1.469976 1.109952
v 0.183390 1.477780 1.105943
v 0.205636 1.498707 1.117486
v 0.208268 1.522965 1.139182
v -0.090710 2.167171 0.430584
v 0.163719 1.505827 1.139182
v -0.635099 3.877919 -0.227722
v -0.653401 3.871501 -0.227722
v -0.692197 4.040748 -0.227722
v -0.710500 4.034330 -0.227722
v -0.692197 4.040748 0.215775
v -0.710500 4.034330 0.215775
v -0.635099 3.877919 0.215775
v -0.653401 3.871501 0.215775
v -0.555370 3.669999 -0.374849
v -0.745918 4.213388 -0.374849
v -0.745918 4.213388 0.362903
v -0.555370 3.669999 0.362903
v -0.719752 4.058944 -0.241115
v -0.650470 3.861372 -0.241115
v -0.650470 3.861372 0.229168
v -0.719752 4.058944 0.229168
v -0.694874 3.989771 -0.191216
v -0.719752 4.058944 -0.202404
v -0.745918 4.213388 -0.314120
v -0.692197 4.040748 -0.191216
v -0.719752 4.058944 -0.158317
v -0.713805 4.043756 -0.149640
v -0.692197 4.040748 -0.149640
v -0.745918 4.213388 -0.244959
v -0.719752 4.058944 -0.113723
v -0.694874 3.989771 -0.107585
v -0.692197 4.040748 -0.107585
v -0.745918 4.213388 -0.175002
v -0.719752 4.058944 -0.070272
v -0.713805 4.043756 -0.066610
v -0.692197 4.040748 -0.066610
v -0.745918 4.213388 -0.106840
v -0.719752 4.058944 -0.024535
v -0.694874 3.989771 -0.023477
v -0.692197 4.040748 -0.023477
v -0.745918 4.213388 -0.035090
v -0.719752 4.058944 0.020060
v -0.713805 4.043756 0.018577
v -0.692197 4.040748 0.018577
v -0.745918 4.213388 0.034866
v -0.719752 4.058944 0.056650
v -0.694874 3.989771 0.053083
v -0.692197 4.040748 0.053083
v -0.745918 4.213388 0.092267
v -0.719752 4.058944 0.100100
v -0.713805 4.043756 0.094059
v -0.692197 4.040748 0.094059
v -0.745918 4.213388 0.160430
v -0.719752 4.058944 0.134404
v -0.694874 3.989771 0.126409
v -0.692197 4.040748 0.126409
v -0.745918 4.213388 0.214241
v -0.719752 4.058944 0.168707
v -0.713805 4.043756 0.158757
v -0.692197 4.040748 0.158757
v -0.745918 4.213388 0.268054
v -0.719752 4.058944 0.199580
v -0.694874 3.989771 0.187872
v -0.692197 4.040748 0.187872
v -0.745918 4.213388 0.316485
v -0.597335 3.695321 -0.351022
v -0.597335 3.695321 0.339075
v -0.766277 4.177097 0.339075
v -0.766277 4.177097 0.295656
v -0.766277 4.177097 0.250353
v -0.766277 4.177097 0.200017
v -0.766277 4.177097 0.149680
v -0.766277 4.177097 0.085920
v -0.766277 4.177097 0.032229
v -0.766277 4.177097 -0.033210
v -0.766277 4.177097 -0.100325
v -0.766277 4.177097 -0.164084
v -0.766277 4.177097 -0.229522
v -0.766277 4.177097 -0.294216
v -0.766277 4.177097 -0.351022
v -0.617327 3.757799 -0.309669
v -0.617327 3.757799 0.297722
v -0.748772 4.132641 0.297722
v -0.748772 4.132641 0.259507
v -0.748772 4.132641 0.219633
v -0.748772 4.132641 0.175331
v -0.748772 4.132641 0.131025
v -0.748772 4.132641 0.074907
v -0.748772 4.132641 0.027650
v -0.748772 4.132641 -0.029945
v -0.748772 4.132641 -0.089017
v -0.748772 4.132641 -0.145135
v -0.748772 4.132641 -0.202730
v -0.748772 4.132641 -0.259671
v -0.748772 4.132641 -0.309669
v -0.650470 3.861372 -0.175454
v -0.653401 3.871501 -0.165800
v -0.635099 3.877919 -0.165800
v -0.555370 3.669999 -0.271844
v -0.650470 3.861372 -0.116875
v -0.653401 3.871501 -0.110559
v -0.635099 3.877919 -0.110559
v -0.555370 3.669999 -0.179949
v -0.650470 3.861372 0.111725
v -0.653401 3.871501 0.105022
v -0.635099 3.877919 0.105022
v -0.555370 3.669999 0.178665
v -0.650470 3.861372 0.166019
v -0.653401 3.871501 0.156222
v -0.635099 3.877919 0.156222
v -0.555370 3.669999 0.263837
v -0.591716 3.677763 -0.360155
v -0.586139 3.669498 -0.367478
v -0.576785 3.665253 -0.372869
v -0.566237 3.666188 -0.374849
v -0.757994 4.209153 -0.374849
v -0.766204 4.203587 -0.372652
v -0.770429 4.194801 -0.366682
v -0.769479 4.185228 -0.358585
v -0.756889 4.209540 -0.314120
v -0.765752 4.204042 -0.312488
v -0.770656 4.195816 -0.308045
v -0.770236 4.187151 -0.302028
v -0.757994 4.209153 0.362903
v -0.766135 4.203418 0.360547
v -0.770181 4.194170 0.354149
v -0.768984 4.183971 0.345469
v -0.566236 3.666188 0.362903
v -0.576785 3.665253 0.360923
v -0.586139 3.669499 0.355532
v -0.591717 3.677766 0.348212
v -0.567351 3.665797 0.263837
v -0.577277 3.664854 0.262731
v -0.586044 3.668690 0.259723
v -0.591234 3.676256 0.255638
v -0.757469 4.209337 -0.244959
v -0.766003 4.203847 -0.243636
v -0.770596 4.195439 -0.240037
v -0.769965 4.186461 -0.235166
v -0.757998 4.209152 -0.175002
v -0.766234 4.203675 -0.174033
v -0.770549 4.195119 -0.171395
v -0.769735 4.185878 -0.167828
v -0.758392 4.209014 -0.106840
v -0.766408 4.203550 -0.106247
v -0.770519 4.194892 -0.104634
v -0.769574 4.185468 -0.102454
v -0.758611 4.208937 -0.035090
v -0.766505 4.203481 -0.034917
v -0.770504 4.194770 -0.034444
v -0.769487 4.185248 -0.033808
v -0.758591 4.208944 0.034866
v -0.766496 4.203487 0.034623
v -0.770506 4.194781 0.033962
v -0.769495 4.185268 0.033069
v -0.758404 4.209009 0.092267
v -0.766413 4.203546 0.091688
v -0.770518 4.194885 0.090116
v -0.769569 4.185455 0.087992
v -0.758015 4.209145 0.160430
v -0.766242 4.203669 0.159473
v -0.770548 4.195108 0.156873
v -0.769728 4.185859 0.153357
v -0.757619 4.209284 0.214241
v -0.766069 4.203797 0.213009
v -0.770582 4.195346 0.209659
v -0.769898 4.186292 0.205124
v -0.757179 4.209439 0.268054
v -0.765877 4.203943 0.266569
v -0.770625 4.195625 0.262528
v -0.770098 4.186800 0.257058
v -0.756768 4.209583 0.316485
v -0.765700 4.204084 0.314794
v -0.770671 4.195898 0.310190
v -0.770296 4.187303 0.303956
v -0.591239 3.676271 -0.263758
v -0.586051 3.668701 -0.267785
v -0.577288 3.664854 -0.270754
v -0.567372 3.665790 -0.271844
v -0.591390 3.676743 -0.174511
v -0.586186 3.668921 -0.177218
v -0.577526 3.664842 -0.179215
v -0.567808 3.665637 -0.179949
v -0.591375 3.676697 0.172909
v -0.586172 3.668899 0.175775
v -0.577502 3.664843 0.177889
v -0.567764 3.665652 0.178665
v -0.563519 3.691251 -0.359811
v -0.740427 4.195742 -0.359811
v -0.740427 4.195742 -0.301558
v -0.740427 4.195742 -0.235215
v -0.740427 4.195742 -0.168112
v -0.740427 4.195742 -0.102728
v -0.740427 4.195742 -0.033903
v -0.740427 4.195742 0.033201
v -0.740427 4.195742 0.088262
v -0.740427 4.195742 0.153645
v -0.740427 4.195742 0.205264
v -0.740427 4.195742 0.256883
v -0.740427 4.195742 0.303339
v -0.740427 4.195742 0.347864
v -0.563519 3.691251 0.347864
v -0.582528 3.740825 -0.324732
v -0.727619 4.154580 -0.324732
v -0.727619 4.154580 -0.272254
v -0.727619 4.154580 -0.212489
v -0.727619 4.154580 -0.152038
v -0.727619 4.154580 -0.093135
v -0.727619 4.154580 -0.031134
v -0.727619 4.154580 0.029317
v -0.727619 4.154580 0.078919
v -0.727619 4.154580 0.137821
v -0.727619 4.154580 0.184322
v -0.727619 4.154580 0.230823
v -0.727619 4.154580 0.272674
v -0.727619 4.154580 0.312785
v -0.582528 3.740825 0.312785
v -0.597780 3.696715 -0.232711
v -0.599050 3.700681 -0.238921
v -0.600944 3.706601 -0.243011
v -0.603163 3.713536 -0.244345
v -0.605353 3.720380 -0.242715
v -0.597335 3.695321 -0.276934
v -0.597335 3.695321 -0.225344
v -0.577193 3.728587 -0.250305
v -0.574610 3.721852 -0.249057
v -0.572398 3.716082 -0.245043
v -0.570913 3.712209 -0.238896
v -0.570391 3.710848 -0.231579
v -0.562912 3.690509 -0.266401
v -0.568877 3.706532 -0.282766
v -0.579724 3.735187 -0.248591
v -0.613701 3.746469 -0.229387
v -0.615223 3.751225 -0.224516
v -0.616371 3.754811 -0.218617
v -0.617085 3.757042 -0.212000
v -0.617327 3.757799 -0.205014
v -0.622067 3.772612 -0.217798
v -0.617327 3.757799 -0.242636
v -0.611883 3.740786 -0.232981
v -0.589114 3.759675 -0.222921
v -0.588269 3.757472 -0.229585
v -0.586908 3.753922 -0.235566
v -0.585100 3.749207 -0.240562
v -0.582937 3.743567 -0.244317
v -0.588170 3.756914 -0.251654
v -0.594839 3.774404 -0.227400
v -0.589400 3.760422 -0.215905
v -0.601053 3.706943 -0.165943
v -0.599509 3.702118 -0.169975
v -0.598328 3.698426 -0.175151
v -0.597587 3.696110 -0.181133
v -0.597335 3.695321 -0.187534
v -0.592370 3.679807 -0.173554
v -0.597335 3.695321 -0.151718
v -0.602859 3.712586 -0.163322
v -0.570683 3.711610 -0.185245
v -0.571541 3.713846 -0.179243
v -0.572909 3.717414 -0.174038
v -0.574700 3.722084 -0.169963
v -0.576799 3.727559 -0.167279
v -0.570391 3.710848 -0.155382
v -0.564432 3.694644 -0.175670
v -0.570391 3.710848 -0.191658
v -0.616932 3.756566 -0.167589
v -0.615803 3.753036 -0.161694
v -0.614093 3.747693 -0.157545
v -0.612037 3.741267 -0.155709
v -0.609914 3.734633 -0.156439
v -0.617327 3.757799 -0.129001
v -0.623230 3.776246 -0.143448
v -0.617327 3.757799 -0.174418
v -0.583081 3.743942 -0.163160
v -0.585532 3.750333 -0.164891
v -0.587575 3.755660 -0.168960
v -0.588927 3.759188 -0.174799
v -0.589400 3.760422 -0.181581
v -0.596542 3.778783 -0.149162
v -0.589400 3.760422 -0.135720
v -0.580556 3.737356 -0.164010
v -0.603178 3.713582 0.235920
v -0.600955 3.706636 0.234608
v -0.599056 3.700700 0.230526
v -0.597782 3.696720 0.224310
v -0.597335 3.695321 0.216928
v -0.597335 3.695321 0.268746
v -0.605367 3.720424 0.234255
v -0.570915 3.712214 0.230588
v -0.572405 3.716101 0.236740
v -0.574624 3.721886 0.240744
v -0.577211 3.728633 0.241968
v -0.579741 3.735230 0.240218
v -0.568810 3.706339 0.274703
v -0.562871 3.690397 0.258344
v -0.570391 3.710848 0.223257
v -0.597583 3.696098 0.179067
v -0.598313 3.698378 0.173079
v -0.599477 3.702018 0.167877
v -0.601003 3.706784 0.163794
v -0.602791 3.712373 0.161089
v -0.597335 3.695321 0.149804
v -0.592413 3.679940 0.171834
v -0.597335 3.695321 0.185462
v -0.574640 3.721928 0.168063
v -0.572871 3.717316 0.172191
v -0.571523 3.713800 0.177423
v -0.570678 3.711597 0.183432
v -0.570391 3.710848 0.189840
v -0.564459 3.694715 0.174111
v -0.570391 3.710848 0.153696
v -0.576719 3.727351 0.165293
v -0.617086 3.757045 0.203298
v -0.616375 3.754823 0.209930
v -0.615231 3.751249 0.215849
v -0.613713 3.746506 0.220746
v -0.611898 3.740834 0.224373
v -0.617327 3.757799 0.233943
v -0.622053 3.772567 0.209011
v -0.617327 3.757799 0.196300
v -0.585114 3.749244 0.232086
v -0.586917 3.753946 0.227063
v -0.588274 3.757483 0.221061
v -0.589115 3.759678 0.214381
v -0.589400 3.760422 0.207353
v -0.594817 3.774349 0.218768
v -0.588126 3.756786 0.243059
v -0.582956 3.743616 0.235877
v -0.611999 3.741148 0.152921
v -0.614065 3.747605 0.154687
v -0.615788 3.752989 0.158806
v -0.616928 3.756553 0.164705
v -0.617327 3.757799 0.171557
v -0.623241 3.776281 0.139916
v -0.617327 3.757799 0.125691
v -0.609876 3.734515 0.153754
v -0.588922 3.759174 0.172358
v -0.587556 3.755612 0.166521
v -0.585497 3.750243 0.162487
v -0.583035 3.743820 0.160832
v -0.580510 3.737237 0.161791
v -0.589400 3.760422 0.132800
v -0.596549 3.778803 0.145983
v -0.589400 3.760422 0.179160
v -0.593677 3.683891 -0.260123
v -0.597335 3.695321 -0.268029
v -0.596115 3.691511 -0.256488
v -0.597335 3.695321 -0.259123
v -0.569483 3.708258 -0.274062
v -0.565903 3.698645 -0.264243
v -0.570088 3.709984 -0.265357
v -0.568895 3.706780 -0.262084
v -0.617327 3.757799 -0.235527
v -0.620171 3.766687 -0.220625
v -0.617327 3.757799 -0.228418
v -0.618275 3.760761 -0.223451
v -0.592663 3.768811 -0.230728
v -0.588662 3.758317 -0.245280
v -0.590488 3.763218 -0.234056
v -0.589154 3.759720 -0.238907
v -0.597335 3.695321 -0.158515
v -0.594356 3.686013 -0.171617
v -0.597335 3.695321 -0.165313
v -0.596342 3.692218 -0.169680
v -0.566816 3.701125 -0.174544
v -0.570391 3.710848 -0.162371
v -0.569199 3.707607 -0.173419
v -0.570391 3.710848 -0.169361
v -0.620869 3.768867 -0.145752
v -0.617327 3.757799 -0.137083
v -0.618508 3.761488 -0.148056
v -0.617327 3.757799 -0.145166
v -0.589400 3.760422 -0.143956
v -0.593685 3.771439 -0.152022
v -0.589400 3.760422 -0.152194
v -0.590829 3.764094 -0.154882
v -0.597335 3.695321 0.259811
v -0.593676 3.683887 0.251943
v -0.597335 3.695321 0.250876
v -0.596115 3.691510 0.248253
v -0.565879 3.698578 0.256141
v -0.569442 3.708142 0.265957
v -0.568887 3.706758 0.253939
v -0.570075 3.709946 0.257211
v -0.594381 3.686093 0.169796
v -0.597335 3.695321 0.156578
v -0.596350 3.692245 0.167758
v -0.597335 3.695321 0.163351
v -0.570391 3.710848 0.160673
v -0.566831 3.701168 0.172922
v -0.570391 3.710848 0.167649
v -0.569204 3.707621 0.171733
v -0.620162 3.766660 0.211871
v -0.617327 3.757799 0.226830
v -0.618272 3.760753 0.214730
v -0.617327 3.757799 0.219717
v -0.588636 3.758241 0.236707
v -0.592650 3.768778 0.222132
v -0.589145 3.759695 0.230354
v -0.590484 3.763207 0.225496
v -0.617327 3.757799 0.133830
v -0.620876 3.768888 0.142365
v -0.617327 3.757799 0.141970
v -0.618510 3.761496 0.144815
v -0.593690 3.771450 0.149022
v -0.589400 3.760422 0.141112
v -0.590830 3.764098 0.152060
v -0.589400 3.760422 0.149424
v -0.155518 2.510293 1.700316
v -0.173820 2.503875 1.700316
v -0.155518 2.510293 1.872866
v -0.173820 2.503875 1.872866
v -0.008759 2.091781 1.872866
v -0.027062 2.085363 1.872866
v -0.008759 2.091781 1.700316
v -0.027062 2.085363 1.700316
v -0.198131 2.651260 1.477726
v -0.198131 2.651260 2.053556
v 0.045998 1.955072 2.053556
v 0.045998 1.955072 1.477726
v -0.178804 2.516320 1.899155
v -0.178804 2.516320 1.689787
v -0.023182 2.072531 1.689787
v -0.023182 2.072531 1.899155
v -0.161739 2.469425 1.825646
v -0.165994 2.479789 1.899155
v -0.178036 2.593953 2.053556
v -0.143437 2.475843 1.872866
v -0.151405 2.438186 1.899155
v -0.147981 2.430192 1.882854
v -0.129679 2.436610 1.872866
v -0.155150 2.528688 2.053556
v -0.136649 2.396104 1.899155
v -0.134065 2.390506 1.825646
v -0.115763 2.396924 1.872866
v -0.132000 2.462672 2.053556
v -0.122270 2.355101 1.899155
v -0.120506 2.351839 1.882854
v -0.102203 2.358257 1.872866
v -0.109445 2.398350 2.053556
v -0.107135 2.311941 1.899155
v -0.106233 2.311137 1.825646
v -0.087930 2.317555 1.872866
v -0.085702 2.330643 2.053556
v -0.092379 2.269859 1.899155
v -0.092317 2.271452 1.882854
v -0.074014 2.277870 1.872866
v -0.062552 2.264628 2.053556
v -0.080271 2.235330 1.899155
v -0.080898 2.238890 1.825646
v -0.062596 2.245308 1.872866
v -0.043558 2.210461 2.053556
v -0.065892 2.194328 1.899155
v -0.067339 2.200223 1.882854
v -0.049037 2.206641 1.872866
v -0.021002 2.146138 2.053556
v -0.054541 2.161957 1.899155
v -0.056634 2.169695 1.825646
v -0.038332 2.176113 1.872866
v -0.003195 2.095358 2.053556
v -0.043190 2.129586 1.899155
v -0.045929 2.139169 1.882854
v -0.027627 2.145587 1.872866
v 0.014612 2.044577 2.053556
v -0.032974 2.100453 1.899155
v -0.036295 2.111695 1.825646
v -0.017993 2.118113 1.872866
v 0.030638 1.998875 2.053556
v -0.219709 2.618444 1.515508
v 0.008651 1.967226 1.515508
v 0.008651 1.967226 2.026047
v -0.005716 2.008198 2.026047
v -0.020708 2.050949 2.026047
v -0.037365 2.098450 2.026047
v -0.054021 2.145950 2.026047
v -0.075120 2.206118 2.026047
v -0.092887 2.256784 2.026047
v -0.114542 2.318537 2.026047
v -0.136751 2.381871 2.026047
v -0.157849 2.442037 2.026047
v -0.179504 2.503789 2.026047
v -0.200912 2.564838 2.026047
v -0.219709 2.618444 2.026047
v -0.204319 2.580019 1.581082
v -0.003326 2.006847 1.581082
v -0.003326 2.006847 1.978302
v -0.015972 2.042910 1.978302
v -0.029167 2.080537 1.978302
v -0.043827 2.122344 1.978302
v -0.058488 2.164153 1.978302
v -0.077058 2.217109 1.978302
v -0.092696 2.261704 1.978302
v -0.111755 2.316055 1.978302
v -0.131302 2.371798 1.978302
v -0.149872 2.424755 1.978302
v -0.168932 2.479105 1.978302
v -0.187774 2.532838 1.978302
v -0.204319 2.580019 1.978302
v -0.157076 2.454358 1.689787
v -0.153329 2.445442 1.700316
v -0.135027 2.451860 1.700316
v -0.164046 2.554058 1.477726
v -0.137692 2.399079 1.689787
v -0.135049 2.393312 1.700316
v -0.116747 2.399730 1.700316
v -0.133637 2.467340 1.477726
v -0.062046 2.183358 1.689787
v -0.063711 2.189877 1.700316
v -0.045409 2.196295 1.700316
v -0.014968 2.128930 1.477726
v -0.044079 2.132123 1.689787
v -0.046768 2.141562 1.700316
v -0.028466 2.147980 1.700316
v 0.013217 2.048557 1.477726
v -0.223211 2.626894 1.497081
v -0.223249 2.634641 1.487435
v -0.218029 2.642184 1.480334
v -0.208999 2.647449 1.477726
v -0.210208 2.647025 2.053556
v -0.218529 2.641780 2.051021
v -0.223060 2.633864 2.044128
v -0.222524 2.625471 2.034779
v -0.189007 2.590106 2.053556
v -0.198077 2.585195 2.051300
v -0.203542 2.578571 2.045160
v -0.203883 2.572075 2.036844
v 0.033922 1.950837 2.053556
v 0.024103 1.949890 2.050838
v 0.015495 1.953652 2.043450
v 0.010503 1.961099 2.033429
v 0.035132 1.951261 1.477726
v 0.024791 1.949733 1.480334
v 0.016003 1.952364 1.487436
v 0.011195 1.958435 1.497083
v 0.001236 2.044355 1.477726
v -0.008264 2.042196 1.480120
v -0.015869 2.042717 1.486642
v -0.019480 2.045780 1.495498
v -0.166701 2.524637 2.053556
v -0.175577 2.520123 2.051199
v -0.181101 2.514372 2.044785
v -0.181731 2.508989 2.036104
v -0.144080 2.458436 2.053556
v -0.152804 2.454350 2.051113
v -0.158445 2.449577 2.044467
v -0.159425 2.445452 2.035478
v -0.121919 2.393976 2.053556
v -0.130567 2.390315 2.051052
v -0.136398 2.386561 2.044243
v -0.137777 2.383767 2.035037
v -0.098395 2.326192 2.053556
v -0.107070 2.322965 2.051020
v -0.113196 2.320317 2.044123
v -0.115053 2.318991 2.034801
v -0.075226 2.260184 2.053556
v -0.084049 2.257347 2.051023
v -0.090557 2.255765 2.044134
v -0.092923 2.255881 2.034822
v -0.056044 2.206083 2.053556
v -0.065073 2.203529 2.051050
v -0.071954 2.202782 2.044236
v -0.074756 2.204051 2.035024
v -0.033100 2.141896 2.053556
v -0.042452 2.139630 2.051110
v -0.049820 2.139801 2.044456
v -0.053141 2.142363 2.035457
v -0.014896 2.091255 2.053556
v -0.024542 2.089178 2.051174
v -0.032308 2.090005 2.044692
v -0.036027 2.093506 2.035922
v 0.003351 2.040629 2.053556
v -0.006602 2.038712 2.051249
v -0.014765 2.040131 2.044969
v -0.018861 2.044491 2.036468
v 0.019789 1.995070 2.053556
v 0.009557 1.993275 2.051322
v 0.001052 1.995170 2.045243
v -0.003362 2.000229 2.037008
v -0.191353 2.535914 1.495514
v -0.190430 2.540505 1.486655
v -0.184811 2.545621 1.480124
v -0.176048 2.549849 1.477726
v -0.161807 2.451699 1.496010
v -0.160512 2.455023 1.486906
v -0.154735 2.459164 1.480192
v -0.146076 2.462978 1.477726
v -0.046844 2.123852 1.495961
v -0.043697 2.121918 1.486881
v -0.036544 2.122187 1.480185
v -0.027362 2.124584 1.477726
v -0.193776 2.636851 1.500477
v -0.193776 2.636851 2.035088
v -0.174499 2.581881 2.035088
v -0.152546 2.519275 2.035088
v -0.130341 2.455953 2.035088
v -0.108704 2.394252 2.035088
v -0.085929 2.329304 2.035088
v -0.063724 2.265981 2.035088
v -0.045504 2.214022 2.035088
v -0.023868 2.152323 2.035088
v -0.006786 2.103612 2.035088
v 0.010295 2.054901 2.035088
v 0.025668 2.011062 2.035088
v 0.040401 1.969046 2.035088
v 0.040401 1.969046 1.500477
v -0.183615 2.603241 1.553549
v -0.183615 2.603241 1.992006
v -0.166250 2.553720 1.992006
v -0.146473 2.497322 1.992006
v -0.126469 2.440276 1.992006
v -0.106978 2.384692 1.992006
v -0.086461 2.326185 1.992006
v -0.066457 2.269139 1.992006
v -0.050043 2.222331 1.992006
v -0.030552 2.166748 1.992006
v -0.015164 2.122867 1.992006
v 0.000224 2.078985 1.992006
v 0.014073 2.039492 1.992006
v 0.027346 2.001641 1.992006
v 0.027346 2.001641 1.553549
v -0.180521 2.506812 1.516971
v -0.182467 2.512710 1.521134
v -0.183659 2.516626 1.527347
v -0.183911 2.517951 1.534626
v -0.183185 2.516479 1.541809
v -0.195193 2.548530 1.515508
v -0.178121 2.499846 1.515508
v -0.158057 2.533333 1.540235
v -0.157448 2.532225 1.533025
v -0.155951 2.528496 1.526848
v -0.153804 2.522735 1.522702
v -0.151343 2.515844 1.521244
v -0.162557 2.548813 1.499577
v -0.168281 2.564148 1.516670
v -0.157683 2.531648 1.547301
v -0.178062 2.504152 1.569190
v -0.176320 2.499601 1.574183
v -0.174270 2.494068 1.577947
v -0.172020 2.487845 1.580287
v -0.169687 2.481260 1.581082
v -0.173513 2.493466 1.596629
v -0.182137 2.516763 1.581082
v -0.179406 2.507489 1.563226
v -0.149903 2.507174 1.573517
v -0.152044 2.513485 1.571158
v -0.153920 2.519166 1.567358
v -0.155435 2.523928 1.562310
v -0.156513 2.527529 1.556272
v -0.159433 2.534280 1.570599
v -0.151884 2.511225 1.589310
v -0.147604 2.500545 1.574316
v -0.158147 2.443904 1.527706
v -0.159613 2.447662 1.522641
v -0.161427 2.452511 1.518767
v -0.163470 2.458134 1.516336
v -0.165609 2.464166 1.515508
v -0.161407 2.450826 1.499226
v -0.153757 2.430368 1.515508
v -0.157126 2.441484 1.533629
v -0.136032 2.472113 1.522060
v -0.134112 2.466426 1.524454
v -0.132493 2.461478 1.528274
v -0.131281 2.457585 1.533274
v -0.130553 2.454995 1.539135
v -0.126128 2.443939 1.521244
v -0.132595 2.463171 1.503982
v -0.138132 2.478172 1.521244
v -0.157336 2.445932 1.579788
v -0.155482 2.440335 1.576083
v -0.154255 2.436368 1.570475
v -0.153823 2.434575 1.563731
v -0.154246 2.435200 1.556768
v -0.144534 2.409529 1.581082
v -0.148811 2.423340 1.600443
v -0.159563 2.452388 1.581082
v -0.129669 2.450941 1.556673
v -0.130428 2.452509 1.563516
v -0.131930 2.456294 1.569219
v -0.133965 2.461768 1.572995
v -0.136245 2.468155 1.574316
v -0.126143 2.437343 1.594006
v -0.121069 2.424878 1.574316
v -0.129757 2.451810 1.549623
v -0.024985 2.064744 1.534675
v -0.025609 2.065916 1.527384
v -0.027122 2.069711 1.521154
v -0.029287 2.075538 1.516976
v -0.031768 2.082491 1.515508
v -0.014621 2.033592 1.515508
v -0.025349 2.066381 1.541855
v 0.001554 2.079701 1.522707
v 0.003476 2.073856 1.526868
v 0.004632 2.070017 1.533062
v 0.004840 2.068794 1.540284
v 0.004068 2.070378 1.547347
v 0.016192 2.038085 1.516466
v 0.011089 2.053631 1.499457
v -0.000832 2.086633 1.521244
v -0.044276 2.118227 1.516323
v -0.046195 2.123900 1.518717
v -0.047817 2.128843 1.522537
v -0.049038 2.132742 1.527539
v -0.049780 2.135348 1.533405
v -0.053980 2.145833 1.515508
v -0.047111 2.124897 1.499365
v -0.042181 2.112184 1.515508
v -0.019420 2.138604 1.533107
v -0.017919 2.134755 1.528169
v -0.016085 2.129854 1.524404
v -0.014033 2.124207 1.522047
v -0.011890 2.118167 1.521244
v -0.016850 2.133096 1.504058
v -0.023851 2.152274 1.521244
v -0.020495 2.141162 1.538912
v -0.034593 2.095945 1.580290
v -0.032459 2.089665 1.577958
v -0.030598 2.084045 1.574207
v -0.029107 2.079379 1.569229
v -0.028061 2.075901 1.563277
v -0.024432 2.067034 1.581082
v -0.032278 2.090702 1.596582
v -0.036888 2.102556 1.581082
v 0.000968 2.077908 1.562349
v -0.000832 2.082600 1.567383
v -0.002921 2.088227 1.571170
v -0.005195 2.094508 1.573520
v -0.007543 2.101133 1.574316
v -0.004240 2.090194 1.589251
v 0.004273 2.067439 1.570464
v 0.002387 2.074388 1.556324
v -0.051697 2.143331 1.563606
v -0.050937 2.141726 1.570382
v -0.049426 2.137891 1.576034
v -0.047377 2.132359 1.579774
v -0.045076 2.125904 1.581082
v -0.055041 2.155940 1.600480
v -0.060253 2.169186 1.581082
v -0.051603 2.142482 1.556644
v -0.019086 2.134169 1.572980
v -0.020914 2.139714 1.569167
v -0.022092 2.143576 1.563419
v -0.022452 2.145203 1.556543
v -0.021943 2.144365 1.549496
v -0.032213 2.171486 1.574316
v -0.028477 2.158826 1.594027
v -0.016872 2.127738 1.574316
v -0.189942 2.532556 1.503512
v -0.192246 2.540126 1.515508
v -0.188531 2.529199 1.511510
v -0.189299 2.531722 1.515508
v -0.165401 2.555934 1.518500
v -0.161966 2.546733 1.508244
v -0.162520 2.547719 1.520330
v -0.161375 2.544652 1.516911
v -0.179784 2.510054 1.581082
v -0.174610 2.496076 1.590410
v -0.177432 2.503346 1.581082
v -0.175707 2.498687 1.584191
v -0.152794 2.514433 1.583313
v -0.157324 2.528266 1.572086
v -0.153705 2.517641 1.577315
v -0.155215 2.522252 1.573573
v -0.156007 2.436783 1.515508
v -0.160596 2.449057 1.505739
v -0.158256 2.443197 1.515508
v -0.159786 2.447288 1.512252
v -0.132322 2.462074 1.510887
v -0.128441 2.450535 1.521244
v -0.132048 2.460978 1.517792
v -0.130754 2.457131 1.521244
v -0.149774 2.425443 1.592699
v -0.147208 2.417157 1.581082
v -0.150738 2.427546 1.584954
v -0.149883 2.424784 1.581082
v -0.123795 2.432650 1.574316
v -0.126839 2.440130 1.586130
v -0.126521 2.440423 1.574316
v -0.127535 2.442916 1.578254
v -0.017578 2.042024 1.515508
v -0.020494 2.049339 1.503508
v -0.020535 2.050456 1.515508
v -0.021507 2.052895 1.511508
v 0.010236 2.055666 1.508172
v 0.013298 2.046338 1.518377
v 0.009383 2.057701 1.516887
v 0.010403 2.054591 1.520289
v -0.047617 2.126880 1.505822
v -0.051739 2.139441 1.515508
v -0.048123 2.128862 1.512280
v -0.049498 2.133049 1.515508
v -0.021542 2.145691 1.521244
v -0.017342 2.134184 1.510932
v -0.019234 2.139107 1.521244
v -0.017833 2.135271 1.517807
v -0.031493 2.087947 1.590382
v -0.026785 2.073746 1.581082
v -0.030708 2.085192 1.584182
v -0.029139 2.080458 1.581082
v 0.002171 2.073433 1.572005
v -0.002937 2.087086 1.583277
v 0.000069 2.079427 1.573546
v -0.001634 2.083978 1.577303
v -0.057560 2.161506 1.581082
v -0.054433 2.153558 1.592721
v -0.054866 2.153825 1.581082
v -0.053824 2.151175 1.584962
v -0.027221 2.156046 1.586143
v -0.029463 2.163642 1.574316
v -0.025965 2.153267 1.578258
v -0.026712 2.155799 1.574316
v 0.646182 0.241883 2.201452
v 0.675033 0.252000 2.201452
v -0.810788 4.396736 2.201453
v -0.781937 4.406853 2.201453
v -0.810788 4.396736 -2.201452
v -0.781937 4.406853 -2.201452
v 0.646182 0.241883 -2.201452
v 0.675033 0.252000 -2.201452
v 0.816381 0.133145 -2.360384
v 0.816381 0.133145 2.360384
v -0.745773 4.587955 -2.360384
v -0.745773 4.587955 2.360385
v -0.682804 4.348396 2.108620
v -0.672900 4.320151 2.121017
v -0.694603 4.379818 2.142175
v -0.686907 4.360095 2.078688
v -0.543431 4.397270 2.108620
v -0.547533 4.408969 2.078688
v -0.553840 4.429179 2.142175
v -0.533526 4.369025 2.121017
v -0.682804 4.348396 -2.108620
v -0.686907 4.360095 -2.078688
v -0.694603 4.379818 -2.142175
v -0.672900 4.320151 -2.121017
v -0.543431 4.397270 -2.108620
v -0.533526 4.369025 -2.121017
v -0.553840 4.429179 -2.142175
v -0.547533 4.408969 -2.078688
v 0.712727 0.368748 -2.108620
v 0.702822 0.396993 -2.121017
v 0.723135 0.336840 -2.142175
v 0.716829 0.357049 -2.078688
v 0.852100 0.417622 -2.108620
v 0.856203 0.405923 -2.078688
v 0.863899 0.386201 -2.142175
v 0.842195 0.445867 -2.121017
v 0.712727 0.368748 2.108620
v 0.716829 0.357049 2.078688
v 0.723135 0.336840 2.142175
v 0.702822 0.396993 2.121017
v 0.852100 0.417622 2.108620
v 0.842195 0.445867 2.121017
v 0.863899 0.386201 2.142175
v 0.856203 0.405923 2.078688
v 0.962321 0.034532 2.506600
v 0.982536 0.052904 2.495952
v 0.983311 0.080210 2.470441
v -0.696602 4.765298 2.506601
v -0.669339 4.763573 2.495951
v -0.651681 4.742731 2.470441
v -0.696602 4.765298 -2.506600
v -0.669339 4.763573 -2.495952
v -0.651681 4.742731 -2.470442
v 0.962321 0.034532 -2.506600
v 0.982536 0.052904 -2.495952
v 0.983311 0.080210 -2.470441
v 0.820196 0.025789 2.467819
v 0.839135 0.003437 2.495180
v 0.868373 0.001587 2.506600
v -0.813061 4.683363 2.467819
v -0.812230 4.712648 2.495180
v -0.790550 4.732354 2.506601
v -0.813061 4.683363 -2.467819
v -0.812230 4.712648 -2.495180
v -0.790550 4.732354 -2.506600
v 0.820196 0.025789 -2.467819
v 0.839135 0.003437 -2.495180
v 0.868373 0.001587 -2.506600
vn 0.3588 -0.5800 0.7313
vn 0.8012 0.5530 0.2284
vn -0.1444 0.7280 -0.6702
vn -0.8012 -0.5530 -0.2284
vn -0.3269 -0.8610 0.3897
vn 0.5418 -0.5086 -0.6692
vn -0.5418 0.5086 0.6692
vn -0.7296 0.1108 -0.6749
vn 0.2468 0.7511 0.6124
vn -0.4121 0.5876 0.6964
vn -0.8782 0.1491 0.4545
vn -0.9333 -0.3591 -0.0000
vn -0.5517 -0.6993 -0.4545
vn 0.0880 -0.7123 -0.6964
vn 0.6865 -0.3920 -0.6124
vn 0.9639 0.1117 -0.2418
vn 0.7902 0.5631 0.2418
vn -0.2539 0.6600 -0.7071
vn -0.2539 0.6599 -0.7071
vn 0.2539 -0.6600 0.7071
vn 0.2539 -0.6599 0.7071
vn -0.9428 -0.3306 0.0437
vn 0.9428 0.3306 0.0437
vn -0.9389 -0.3440 -0.0087
vn -0.9396 -0.3424 0.0024
vn -0.9335 -0.3587 -0.0000
vn -0.9320 -0.3624 -0.0016
vn 0.9548 0.2971 -0.0000
vn -0.9428 -0.3306 -0.0437
vn 0.9428 0.3306 -0.0437
vn -0.9606 -0.2780 -0.0000
vn -0.9526 -0.3041 -0.0000
vn -0.9531 -0.3026 -0.0000
vn 0.9319 0.3627 -0.0046
vn 0.9320 0.3626 -0.0016
vn 0.9318 0.3628 -0.0026
vn 0.9320 0.3625 -0.0053
vn 0.9320 0.3623 -0.0061
vn 0.8689 -0.3176 -0.3798
vn 0.9164 -0.3979 0.0434
vn 0.9171 -0.3971 0.0359
vn -0.0000 -0.0000 -1.0000
vn -0.3309 0.9437 -0.0000
vn -0.0000 -0.0000 1.0000
vn -0.9524 -0.3048 -0.0000
vn -0.9305 -0.3664 -0.0000
vn -0.9397 -0.3420 -0.0036
vn -0.9386 -0.3448 0.0121
vn -0.9319 -0.3628 0.0021
vn -0.9335 -0.3586 -0.0000
vn 0.9186 -0.3935 -0.0355
vn 0.9167 -0.3952 -0.0592
vn 0.8274 -0.3025 0.4732
vn -0.9392 -0.3433 -0.0017
vn -0.9336 -0.3584 0.0009
vn 0.8922 -0.4517 -0.0000
vn 0.8922 -0.4517 -0.0003
vn -0.9392 -0.3433 0.0011
vn -0.9333 -0.3591 -0.0002
vn 0.8922 -0.4517 -0.0035
vn -0.9393 -0.3430 -0.0009
vn -0.9335 -0.3587 0.0004
vn 0.8922 -0.4517 -0.0015
vn -0.9392 -0.3434 0.0001
vn -0.9333 -0.3590 -0.0000
vn 0.8922 -0.4517 -0.0032
vn -0.9393 -0.3430 0.0002
vn -0.9334 -0.3587 -0.0002
vn 0.8922 -0.4517 0.0057
vn -0.9392 -0.3434 -0.0004
vn -0.9333 -0.3590 0.0001
vn 0.8919 -0.4515 0.0250
vn -0.9393 -0.3431 0.0010
vn -0.9334 -0.3588 -0.0007
vn 0.8922 -0.4517 0.0068
vn -0.9393 -0.3430 -0.0023
vn -0.9333 -0.3591 0.0003
vn -0.9392 -0.3434 0.0022
vn -0.9336 -0.3583 -0.0013
vn 0.8922 -0.4517 0.0030
vn -0.9457 -0.3233 -0.0338
vn -0.9416 -0.3342 -0.0419
vn -0.9413 -0.3351 0.0407
vn -0.9457 -0.3233 0.0337
vn -0.9529 -0.3033 -0.0000
vn -0.9531 -0.3025 -0.0000
vn -0.0804 -0.0282 -0.9964
vn -0.3223 -0.1130 -0.9399
vn -0.3233 -0.1134 -0.9395
vn -0.0803 -0.0283 -0.9964
vn -0.5867 -0.2054 -0.7833
vn -0.8966 -0.3767 -0.2328
vn -0.9167 -0.3514 -0.1900
vn -0.9313 -0.3061 -0.1973
vn -0.9213 -0.2874 -0.2620
vn -0.3309 0.9436 -0.0000
vn -0.4240 0.9057 0.0005
vn -0.4279 0.9038 0.0001
vn -0.0828 -0.0290 0.9961
vn -0.0834 -0.0293 0.9961
vn 0.3309 -0.9437 -0.0000
vn 0.2245 -0.9745 -0.0009
vn 0.2310 -0.9729 -0.0015
vn -0.4293 0.9032 0.0002
vn -0.4272 0.9041 -0.0000
vn -0.4286 0.9035 -0.0004
vn -0.4310 0.9024 -0.0004
vn -0.4325 0.9016 -0.0003
vn -0.4334 0.9012 -0.0001
vn -0.4333 0.9013 0.0001
vn -0.4327 0.9015 0.0003
vn -0.4308 0.9024 0.0004
vn -0.3310 0.9436 -0.0000
vn -0.4294 0.9031 0.0004
vn -0.4272 0.9042 0.0004
vn -0.8960 -0.4441 -0.0006
vn -0.9176 -0.3500 0.1885
vn -0.9294 -0.3103 0.2000
vn -0.9763 -0.2164 0.0018
vn -0.9744 -0.2250 -0.0009
vn -0.9734 -0.2289 -0.0008
vn -0.9741 -0.2261 -0.0006
vn -0.9726 -0.2324 -0.0004
vn -0.9731 -0.2303 -0.0001
vn -0.9729 -0.2312 0.0001
vn -0.9731 -0.2302 0.0004
vn -0.9731 -0.2304 0.0006
vn -0.9735 -0.2288 0.0008
vn -0.9758 -0.2189 -0.0002
vn 0.2288 -0.9735 -0.0000
vn -0.9123 -0.4096 -0.0000
vn -0.9524 -0.3047 -0.0000
vn 0.3309 -0.9436 -0.0000
vn 0.2290 -0.9734 0.0001
vn -0.9116 -0.4112 -0.0001
vn 0.3310 -0.9436 -0.0000
vn 0.2244 -0.9745 0.0010
vn -0.8961 -0.4438 0.0007
vn 0.2310 -0.9729 0.0014
vn -0.0974 -0.9952 -0.0044
vn -0.1636 -0.9865 -0.0029
vn -0.8285 -0.5600 -0.0023
vn -0.4102 -0.9120 -0.0062
vn -0.4125 -0.9110 -0.0024
vn -0.9973 -0.0729 -0.0038
vn -0.6826 0.7308 -0.0007
vn -0.7208 0.6931 -0.0011
vn -0.8822 0.4709 -0.0042
vn -0.8730 0.4876 -0.0008
vn -0.9979 -0.0654 0.0018
vn -0.7244 0.6894 -0.0001
vn -0.8789 0.4771 0.0006
vn -0.9196 -0.2949 0.2595
vn -0.8992 -0.3739 0.2272
vn -0.3316 -0.1160 0.9363
vn -0.3332 -0.1166 0.9356
vn -0.6006 -0.2097 0.7716
vn -0.8283 -0.5603 0.0024
vn -0.0970 -0.9953 0.0046
vn -0.1633 -0.9866 0.0031
vn -0.4098 -0.9121 0.0065
vn -0.4112 -0.9116 0.0028
vn -0.9965 -0.0842 0.0013
vn -0.7428 0.6695 -0.0002
vn -0.8929 0.4502 0.0003
vn -0.9952 -0.0975 0.0008
vn -0.7558 0.6548 -0.0002
vn -0.9026 0.4305 0.0001
vn -0.9945 -0.1044 0.0002
vn -0.5671 0.8236 -0.0002
vn -0.9074 0.4203 -0.0000
vn -0.9073 0.4205 -0.0000
vn -0.9945 -0.1043 -0.0003
vn -0.5671 0.8237 0.0002
vn -0.9073 0.4204 -0.0000
vn -0.9072 0.4207 -0.0000
vn -0.9952 -0.0978 -0.0008
vn -0.7569 0.6535 0.0002
vn -0.9024 0.4310 -0.0001
vn -0.9962 -0.0868 -0.0012
vn -0.7428 0.6695 0.0003
vn -0.8947 0.4466 -0.0003
vn -0.9974 -0.0717 -0.0017
vn -0.7302 0.6832 0.0001
vn -0.8829 0.4695 -0.0005
vn -0.9985 -0.0555 -0.0021
vn -0.7137 0.7004 -0.0000
vn -0.8706 0.4920 -0.0008
vn -0.9966 -0.0821 0.0102
vn -0.7247 0.6890 0.0040
vn -0.8727 0.4882 0.0039
vn -0.8914 0.4531 0.0126
vn -0.6905 0.7233 0.0046
vn -0.1575 -0.9875 -0.0000
vn -0.8312 -0.5559 0.0002
vn -0.4231 -0.9061 -0.0000
vn -0.1558 -0.9878 -0.0000
vn -0.8312 -0.5560 -0.0002
vn -0.4230 -0.9061 -0.0000
vn 0.9386 0.3451 -0.0000
vn 0.9385 0.3453 0.0001
vn 0.9362 0.3516 -0.0000
vn 0.9385 0.3452 -0.0001
vn 0.9374 0.3483 -0.0012
vn 0.9377 0.3475 -0.0010
vn 0.9384 0.3455 -0.0001
vn 0.9385 0.3454 0.0002
vn 0.9352 0.3541 -0.0037
vn 0.9339 0.3576 -0.0053
vn 0.9365 0.3507 -0.0020
vn 0.9374 0.3484 0.0012
vn 0.9377 0.3475 0.0011
vn 0.9338 0.3577 0.0055
vn 0.9352 0.3541 0.0038
vn 0.9365 0.3507 0.0021
vn 0.9385 0.3454 -0.0001
vn 0.9385 0.3452 -0.0000
vn 0.9322 0.3618 -0.0072
vn 0.9323 0.3617 -0.0070
vn 0.3725 -0.3226 0.8701
vn 0.3712 -0.3449 0.8621
vn 0.3476 -0.2436 0.9054
vn 0.3522 -0.2535 0.9010
vn -0.4922 0.8696 0.0387
vn -0.4949 0.8686 0.0244
vn -0.5015 0.8649 -0.0203
vn -0.5010 0.8653 -0.0156
vn -0.2771 0.2373 -0.9311
vn -0.2806 0.2441 -0.9283
vn -0.2601 0.1460 -0.9545
vn -0.2615 0.1727 -0.9496
vn 0.0870 -0.9959 -0.0255
vn 0.0830 -0.9957 -0.0409
vn 0.0985 -0.9951 0.0128
vn 0.1047 -0.9941 0.0289
vn -0.5014 0.8650 0.0178
vn -0.5020 0.8646 0.0234
vn -0.4941 0.8689 -0.0286
vn -0.4909 0.8701 -0.0449
vn 0.3566 -0.2568 -0.8983
vn 0.3521 -0.2472 -0.9027
vn 0.3754 -0.3481 -0.8590
vn 0.3768 -0.3258 -0.8671
vn 0.1067 -0.9937 -0.0335
vn 0.0995 -0.9949 -0.0152
vn 0.0801 -0.9956 0.0489
vn 0.0853 -0.9959 0.0301
vn -0.2759 0.1842 0.9434
vn -0.2747 0.1569 0.9487
vn -0.2940 0.2543 0.9213
vn -0.2908 0.2481 0.9241
vn 0.9320 0.3624 -0.0001
vn 0.9320 0.3625 -0.0000
vn 0.9320 0.3624 -0.0000
vn 0.9319 0.3627 -0.0001
vn 0.9337 0.3580 -0.0000
vn 0.9327 0.3607 -0.0000
vn 0.9326 0.3609 -0.0000
vn 0.9321 0.3621 0.0076
vn 0.9321 0.3620 0.0076
vn 0.9319 0.3627 0.0055
vn 0.9320 0.3624 0.0065
vn 0.9318 0.3629 0.0027
vn 0.9320 0.3624 0.0001
vn 0.9320 0.3623 -0.0001
vn 0.9319 0.3626 0.0016
vn 0.9318 0.3628 0.0048
vn 0.1864 0.0664 0.9802
vn 0.2087 0.0268 0.9776
vn -0.0300 0.4130 0.9102
vn 0.0037 0.3632 0.9317
vn -0.2404 0.6884 0.6844
vn -0.2067 0.6489 0.7323
vn -0.4062 0.8440 0.3502
vn -0.3835 0.8280 0.4091
vn 0.1665 -0.9669 0.1933
vn 0.1877 -0.9495 0.2516
vn 0.2431 -0.8792 0.4098
vn 0.2623 -0.8445 0.4669
vn 0.3062 -0.7347 0.6054
vn 0.3203 -0.6864 0.6529
vn 0.3500 -0.5442 0.7625
vn 0.3577 -0.4898 0.7951
vn -0.5117 0.8213 -0.2522
vn -0.5119 0.8249 -0.2398
vn -0.4921 0.7283 -0.4769
vn -0.4927 0.7302 -0.4734
vn -0.4435 0.5927 -0.6723
vn -0.4423 0.5897 -0.6758
vn -0.3685 0.4215 -0.8286
vn -0.3636 0.4110 -0.8360
vn -0.2302 -0.1757 -0.9572
vn -0.2363 -0.1265 -0.9634
vn -0.1727 -0.4973 -0.8502
vn -0.1774 -0.4764 -0.8611
vn -0.0966 -0.7552 -0.6484
vn -0.0955 -0.7581 -0.6451
vn -0.0079 -0.9296 -0.3685
vn 0.0009 -0.9409 -0.3386
vn -0.4052 0.8444 -0.3504
vn -0.3820 0.8282 -0.4101
vn -0.2378 0.6883 -0.6853
vn -0.2036 0.6483 -0.7336
vn -0.0259 0.4117 -0.9110
vn 0.0078 0.3618 -0.9322
vn 0.1911 0.0638 -0.9795
vn 0.2135 0.0239 -0.9766
vn -0.3790 0.4285 0.8202
vn -0.3746 0.4191 0.8270
vn -0.4507 0.5966 0.6641
vn -0.4498 0.5942 0.6668
vn -0.4962 0.7295 0.4707
vn -0.4969 0.7320 0.4660
vn -0.5134 0.8212 0.2491
vn -0.5135 0.8251 0.2356
vn 0.3534 -0.5466 -0.7592
vn 0.3614 -0.4921 -0.7920
vn 0.3086 -0.7362 -0.6023
vn 0.3232 -0.6876 -0.6502
vn 0.2446 -0.8799 -0.4074
vn 0.2642 -0.8451 -0.4648
vn 0.1670 -0.9671 -0.1917
vn 0.1888 -0.9495 -0.2506
vn -0.0148 -0.9282 0.3717
vn -0.0046 -0.9408 0.3390
vn -0.1079 -0.7516 0.6508
vn -0.1062 -0.7559 0.6461
vn -0.1868 -0.4917 0.8505
vn -0.1916 -0.4712 0.8610
vn -0.2453 -0.1683 0.9547
vn -0.2517 -0.1175 0.9607
vn 0.9329 0.3601 -0.0053
vn 0.9352 0.3541 -0.0046
vn 0.9380 0.3467 -0.0016
vn 0.9378 0.3472 -0.0006
vn 0.9338 0.3577 -0.0026
vn 0.9347 0.3555 -0.0030
vn 0.9368 0.3499 -0.0010
vn 0.9362 0.3516 -0.0002
vn 0.9322 0.3619 -0.0002
vn 0.9313 0.3642 -0.0040
vn 0.9313 0.3641 -0.0077
vn 0.9324 0.3613 -0.0066
vn 0.9327 0.3606 -0.0009
vn 0.9319 0.3627 -0.0033
vn 0.9320 0.3623 -0.0054
vn 0.9329 0.3601 -0.0038
vn 0.9379 0.3468 0.0005
vn 0.9383 0.3459 0.0002
vn 0.9361 0.3516 -0.0000
vn 0.9366 0.3504 -0.0004
vn 0.9373 0.3484 -0.0003
vn 0.9358 0.3526 -0.0004
vn 0.9343 0.3564 -0.0006
vn 0.9330 0.3598 -0.0000
vn 0.9321 0.3621 0.0001
vn 0.9323 0.3617 0.0002
vn 0.9335 0.3587 -0.0002
vn 0.9332 0.3595 -0.0001
vn 0.9325 0.3611 -0.0001
vn 0.9328 0.3604 -0.0002
vn 0.9377 0.3475 0.0005
vn 0.9380 0.3466 0.0020
vn 0.9352 0.3542 0.0048
vn 0.9328 0.3603 0.0056
vn 0.9363 0.3513 0.0002
vn 0.9367 0.3501 0.0010
vn 0.9346 0.3556 0.0032
vn 0.9338 0.3578 0.0027
vn -0.9524 -0.3047 -0.0001
vn -0.9524 -0.3048 0.0001
vn 0.9383 0.3458 -0.0002
vn 0.9380 0.3467 -0.0004
vn 0.9344 0.3561 0.0007
vn 0.9358 0.3525 0.0004
vn 0.9373 0.3484 0.0003
vn 0.9367 0.3502 0.0004
vn 0.9324 0.3613 0.0067
vn 0.9313 0.3641 0.0079
vn 0.9313 0.3642 0.0040
vn 0.9322 0.3619 0.0002
vn 0.9328 0.3603 0.0043
vn 0.9319 0.3626 0.0058
vn 0.9319 0.3628 0.0035
vn 0.9327 0.3606 0.0009
vn 0.9323 0.3616 -0.0002
vn 0.9321 0.3621 -0.0001
vn 0.9330 0.3600 -0.0000
vn 0.9328 0.3604 0.0002
vn 0.9326 0.3609 0.0001
vn 0.9331 0.3596 0.0001
vn 0.9335 0.3586 0.0002
vn -0.9283 -0.3718 -0.0000
vn 0.9572 0.2894 -0.0000
vn -0.9464 -0.3227 -0.0139
vn -0.9428 -0.3331 -0.0122
vn -0.9432 -0.3308 -0.0296
vn -0.9437 -0.3292 -0.0335
vn 0.9431 0.3307 -0.0356
vn -0.9572 -0.2894 -0.0000
vn 0.9283 0.3718 -0.0000
vn -0.9422 -0.3304 0.0555
vn -0.9433 -0.3308 0.0283
vn -0.9432 -0.3308 0.0299
vn 0.9416 0.3351 0.0339
vn 0.9426 0.3322 0.0337
vn 0.9422 0.3334 0.0338
vn 0.9414 0.3357 0.0337
vn 0.9410 0.3367 0.0334
vn 0.5489 0.5949 -0.5872
vn 0.7062 0.2016 -0.6787
vn 0.7045 0.2090 -0.6782
vn -0.9433 -0.3308 0.0276
vn -0.9430 -0.3307 -0.0379
vn -0.9448 -0.3274 -0.0118
vn -0.9395 -0.3423 -0.0148
vn -0.9424 -0.3327 -0.0339
vn -0.9432 -0.3308 -0.0294
vn -0.9430 -0.3307 -0.0378
vn 0.6834 0.2773 -0.6753
vn 0.6733 0.2989 -0.6762
vn 0.7990 -0.2212 -0.5592
vn -0.9441 -0.3293 -0.0131
vn -0.9430 -0.3316 -0.0292
vn 0.6534 0.2292 -0.7215
vn 0.6533 0.2295 -0.7215
vn -0.9432 -0.3319 -0.0131
vn -0.9433 -0.3306 -0.0300
vn 0.6535 0.2291 -0.7215
vn 0.6523 0.2324 -0.7214
vn -0.9439 -0.3300 -0.0129
vn -0.9431 -0.3311 -0.0296
vn 0.6530 0.2305 -0.7215
vn -0.9436 -0.3310 -0.0133
vn -0.9432 -0.3307 -0.0300
vn 0.6524 0.2323 -0.7214
vn -0.9435 -0.3310 -0.0128
vn -0.9433 -0.3306 -0.0296
vn 0.6553 0.2238 -0.7214
vn -0.9437 -0.3305 -0.0133
vn -0.9432 -0.3309 -0.0299
vn 0.6534 0.2292 -0.7214
vn 0.6615 0.2055 -0.7212
vn -0.9432 -0.3321 -0.0130
vn -0.9435 -0.3301 -0.0297
vn 0.6535 0.2292 -0.7214
vn 0.6557 0.2227 -0.7214
vn -0.9443 -0.3287 -0.0129
vn -0.9432 -0.3310 -0.0301
vn 0.6535 0.2291 -0.7214
vn -0.9428 -0.3330 -0.0133
vn -0.9437 -0.3296 -0.0292
vn 0.6544 0.2263 -0.7215
vn -0.9543 -0.2988 0.0078
vn -0.9567 -0.2910 -0.0038
vn -0.9294 -0.3690 -0.0047
vn -0.9320 -0.3625 0.0079
vn -0.9433 -0.3308 0.0291
vn -0.9433 -0.3308 0.0275
vn -0.9422 -0.3304 0.0556
vn -0.4101 0.9121 -0.0001
vn -0.6333 0.7739 -0.0000
vn -0.6342 0.7732 -0.0000
vn -0.8458 0.5335 0.0003
vn -0.9931 -0.1015 -0.0588
vn -0.9890 -0.1454 -0.0282
vn -0.9902 -0.1381 0.0193
vn -0.9968 -0.0719 0.0336
vn -0.0946 -0.0337 0.9950
vn -0.0988 -0.0348 0.9945
vn 0.2469 -0.9691 -0.0000
vn 0.2462 -0.9692 -0.0000
vn -0.1047 -0.0357 -0.9939
vn -0.0986 -0.0330 -0.9946
vn -0.1002 -0.0353 0.9943
vn -0.0982 -0.0344 0.9946
vn -0.0997 -0.0345 0.9944
vn -0.1022 -0.0354 0.9941
vn -0.1037 -0.0361 0.9940
vn -0.1045 -0.0366 0.9939
vn -0.1043 -0.0367 0.9939
vn -0.1038 -0.0367 0.9939
vn -0.1017 -0.0361 0.9942
vn -0.1002 -0.0356 0.9943
vn -0.0979 -0.0348 0.9946
vn -0.9367 -0.3278 -0.1226
vn -0.8640 -0.5027 -0.0267
vn -0.8583 -0.5129 0.0147
vn -0.9364 -0.3303 0.1188
vn -0.9382 -0.3280 0.1102
vn -0.9386 -0.3283 0.1061
vn -0.9382 -0.3284 0.1089
vn -0.9388 -0.3288 0.1025
vn -0.9385 -0.3290 0.1047
vn -0.9385 -0.3292 0.1038
vn -0.9384 -0.3294 0.1047
vn -0.9383 -0.3297 0.1046
vn -0.9381 -0.3298 0.1063
vn -0.9373 -0.3284 0.1164
vn -0.1003 -0.0351 -0.9943
vn -0.9403 -0.3298 -0.0847
vn -0.1001 -0.0352 -0.9944
vn -0.9402 -0.3296 -0.0864
vn -0.1041 -0.0375 -0.9939
vn -0.9364 -0.3291 -0.1223
vn -0.0976 -0.0357 -0.9946
vn -0.3990 -0.1352 -0.9069
vn -0.4547 -0.1563 -0.8768
vn -0.9135 -0.3175 -0.2544
vn -0.6522 -0.2221 -0.7248
vn -0.6526 -0.2260 -0.7232
vn -0.9122 -0.3158 0.2609
vn -0.3799 -0.1324 0.9155
vn -0.4258 -0.1482 0.8926
vn -0.6399 -0.2200 0.7363
vn -0.6255 -0.2185 0.7490
vn -0.9084 -0.3205 0.2683
vn -0.4298 -0.1506 0.8903
vn -0.6335 -0.2228 0.7410
vn -0.8251 -0.5643 0.0260
vn -0.8423 -0.5362 -0.0553
vn -0.0217 -0.9998 0.0002
vn -0.0235 -0.9997 0.0002
vn -0.3450 -0.9386 0.0008
vn -0.9117 -0.3223 -0.2547
vn -0.3956 -0.1436 -0.9071
vn -0.4524 -0.1619 -0.8770
vn -0.6476 -0.2340 -0.7251
vn -0.6501 -0.2306 -0.7240
vn -0.9132 -0.3216 0.2503
vn -0.4525 -0.1584 0.8776
vn -0.6542 -0.2298 0.7206
vn -0.9165 -0.3222 0.2372
vn -0.4687 -0.1641 0.8680
vn -0.6693 -0.2348 0.7050
vn -0.9182 -0.3222 0.2306
vn -0.2479 -0.0867 0.9649
vn -0.6767 -0.2373 0.6969
vn -0.6766 -0.2373 0.6971
vn -0.9183 -0.3217 0.2307
vn -0.2477 -0.0871 0.9649
vn -0.6770 -0.2374 0.6967
vn -0.6765 -0.2372 0.6972
vn -0.9170 -0.3208 0.2370
vn -0.4699 -0.1650 0.8672
vn -0.6691 -0.2345 0.7052
vn -0.9146 -0.3194 0.2478
vn -0.4523 -0.1589 0.8776
vn -0.6574 -0.2302 0.7175
vn -0.9112 -0.3177 0.2624
vn -0.4368 -0.1533 0.8864
vn -0.6398 -0.2238 0.7352
vn -0.9071 -0.3159 0.2781
vn -0.4169 -0.1462 0.8971
vn -0.6219 -0.2172 0.7524
vn -0.9097 -0.3298 0.2524
vn -0.4289 -0.1546 0.8900
vn -0.6234 -0.2228 0.7495
vn -0.6481 -0.2407 0.7225
vn -0.3875 -0.1408 0.9111
vn -0.4486 -0.1573 -0.8798
vn -0.9138 -0.3206 -0.2495
vn -0.6597 -0.2314 -0.7150
vn -0.4471 -0.1568 -0.8806
vn -0.9139 -0.3202 -0.2496
vn -0.6596 -0.2313 -0.7151
vn 0.9436 0.3309 0.0151
vn 0.9436 0.3308 0.0153
vn 0.9434 0.3308 0.0220
vn 0.9435 0.3310 0.0152
vn 0.9431 0.3320 0.0185
vn 0.9431 0.3321 0.0175
vn 0.9435 0.3309 0.0152
vn 0.9422 0.3342 0.0246
vn 0.9415 0.3358 0.0284
vn 0.9428 0.3328 0.0210
vn 0.9572 0.2893 -0.0000
vn 0.9439 0.3297 0.0186
vn 0.9439 0.3298 0.0177
vn 0.9451 0.3255 0.0286
vn 0.9446 0.3272 0.0248
vn 0.9442 0.3288 0.0211
vn 0.9435 0.3310 0.0154
vn 0.9435 0.3309 0.0150
vn 0.9407 0.3375 0.0329
vn 0.9407 0.3377 0.0332
vn 0.5189 -0.7401 -0.4277
vn 0.5082 -0.7354 -0.4483
vn 0.5331 -0.7725 -0.3450
vn 0.5326 -0.7680 -0.3557
vn -0.1540 -0.0950 0.9835
vn -0.1614 -0.0825 0.9834
vn -0.1832 -0.0428 0.9821
vn -0.1811 -0.0470 0.9823
vn -0.4808 0.8181 0.3157
vn -0.4809 0.8151 0.3232
vn -0.5019 0.8355 0.2239
vn -0.4932 0.8334 0.2495
vn -0.2420 -0.0578 -0.9686
vn -0.2506 -0.0445 -0.9671
vn -0.2188 -0.0903 -0.9716
vn -0.2076 -0.1035 -0.9727
vn -0.1705 -0.0786 0.9822
vn -0.1693 -0.0842 0.9820
vn -0.1781 -0.0322 0.9835
vn -0.1803 -0.0157 0.9835
vn -0.0599 0.9309 -0.3603
vn -0.0623 0.9348 -0.3498
vn -0.0587 0.8897 -0.4527
vn -0.0532 0.9002 -0.4322
vn -0.2264 -0.0439 -0.9730
vn -0.2271 -0.0636 -0.9718
vn -0.2234 -0.1301 -0.9660
vn -0.2251 -0.1109 -0.9680
vn 0.1240 -0.9562 0.2651
vn 0.1183 -0.9638 0.2389
vn 0.1224 -0.9334 0.3373
vn 0.1243 -0.9357 0.3303
vn 0.9431 0.3307 0.0336
vn 0.9431 0.3307 0.0337
vn 0.9431 0.3308 0.0338
vn 0.9433 0.3308 0.0289
vn 0.9432 0.3307 0.0319
vn 0.9456 0.3235 0.0333
vn 0.9456 0.3236 0.0332
vn 0.9450 0.3254 0.0339
vn 0.9452 0.3246 0.0336
vn 0.9440 0.3281 0.0341
vn 0.9431 0.3308 0.0335
vn 0.9437 0.3292 0.0338
vn 0.9447 0.3262 0.0340
vn 0.5111 -0.8595 0.0010
vn 0.5177 -0.8544 -0.0437
vn 0.4035 -0.8231 0.3996
vn 0.4249 -0.8382 0.3419
vn 0.2274 -0.6455 0.7291
vn 0.2609 -0.6845 0.6807
vn 0.0177 -0.3648 0.9309
vn 0.0524 -0.4151 0.9083
vn -0.0898 -0.2363 -0.9675
vn -0.0461 -0.2828 -0.9581
vn 0.0775 -0.4070 -0.9101
vn 0.1243 -0.4511 -0.8838
vn 0.2436 -0.5561 -0.7946
vn 0.2869 -0.5912 -0.7538
vn 0.3940 -0.6698 -0.6294
vn 0.4287 -0.6922 -0.5806
vn -0.2826 0.1682 0.9444
vn -0.2776 0.1568 0.9478
vn -0.3686 0.3761 0.8501
vn -0.3673 0.3728 0.8521
vn -0.4323 0.5606 0.7063
vn -0.4334 0.5642 0.7028
vn -0.4707 0.7129 0.5198
vn -0.4721 0.7203 0.5082
vn -0.5766 0.8121 -0.0896
vn -0.5687 0.8215 -0.0409
vn -0.5905 0.6942 -0.4117
vn -0.5917 0.7049 -0.3911
vn -0.5364 0.4990 -0.6807
vn -0.5352 0.4959 -0.6839
vn -0.4192 0.2435 -0.8746
vn -0.4050 0.2168 -0.8882
vn -0.2131 0.2967 0.9309
vn -0.2173 0.3584 0.9079
vn -0.2236 0.6478 0.7282
vn -0.2216 0.6997 0.6792
vn -0.1960 0.8966 0.3970
vn -0.1885 0.9218 0.3388
vn -0.1340 0.9910 -0.0033
vn -0.1257 0.9909 -0.0476
vn 0.0678 -0.8454 0.5298
vn 0.0710 -0.8516 0.5194
vn 0.0047 -0.7021 0.7121
vn 0.0057 -0.7046 0.7096
vn -0.0584 -0.5190 0.8528
vn -0.0598 -0.5144 0.8555
vn -0.1184 -0.3055 0.9448
vn -0.1217 -0.2924 0.9485
vn -0.1072 0.7669 -0.6327
vn -0.0940 0.8063 -0.5840
vn -0.1543 0.5842 -0.7968
vn -0.1422 0.6390 -0.7559
vn -0.1917 0.3645 -0.9113
vn -0.1824 0.4286 -0.8849
vn -0.2167 0.1274 -0.9679
vn -0.2113 0.1914 -0.9585
vn -0.1800 -0.4570 -0.8711
vn -0.1857 -0.4244 -0.8862
vn -0.1154 -0.7300 -0.6736
vn -0.1168 -0.7256 -0.6781
vn -0.0384 -0.9148 -0.4021
vn -0.0328 -0.9238 -0.3813
vn 0.0449 -0.9960 -0.0777
vn 0.0570 -0.9980 -0.0279
vn 0.9414 0.3358 0.0311
vn 0.9418 0.3352 0.0247
vn 0.9429 0.3327 0.0167
vn 0.9434 0.3313 0.0176
vn 0.9424 0.3332 0.0285
vn 0.9423 0.3337 0.0262
vn 0.9432 0.3317 0.0204
vn 0.9434 0.3310 0.0217
vn 0.9431 0.3308 0.0331
vn 0.9418 0.3344 0.0354
vn 0.9405 0.3379 0.0351
vn 0.9409 0.3371 0.0325
vn 0.9429 0.3316 0.0316
vn 0.9420 0.3338 0.0339
vn 0.9413 0.3359 0.0336
vn 0.9419 0.3343 0.0311
vn 0.9437 0.3304 0.0166
vn 0.9436 0.3306 0.0160
vn 0.9433 0.3307 0.0289
vn 0.9433 0.3312 0.0205
vn 0.9434 0.3311 0.0186
vn 0.9433 0.3312 0.0230
vn 0.9431 0.3313 0.0271
vn -0.9433 -0.3307 0.0276
vn 0.9432 0.3308 0.0289
vn 0.9432 0.3307 0.0307
vn 0.9432 0.3306 0.0332
vn 0.9432 0.3306 0.0328
vn 0.9432 0.3309 0.0295
vn 0.9432 0.3309 0.0306
vn 0.9431 0.3308 0.0322
vn 0.9432 0.3308 0.0317
vn 0.9437 0.3304 0.0176
vn 0.9442 0.3290 0.0167
vn 0.9450 0.3263 0.0247
vn 0.9450 0.3255 0.0313
vn 0.9435 0.3306 0.0217
vn 0.9438 0.3299 0.0204
vn 0.9444 0.3278 0.0263
vn 0.9442 0.3283 0.0286
vn 0.9435 0.3311 0.0159
vn 0.9434 0.3313 0.0165
vn 0.9435 0.3302 0.0267
vn 0.9435 0.3305 0.0231
vn 0.9436 0.3306 0.0186
vn 0.9436 0.3304 0.0209
vn 0.9453 0.3245 0.0324
vn 0.9457 0.3232 0.0356
vn 0.9444 0.3269 0.0355
vn 0.9432 0.3306 0.0330
vn 0.9446 0.3266 0.0314
vn 0.9450 0.3253 0.0338
vn 0.9443 0.3275 0.0340
vn 0.9435 0.3299 0.0316
vn 0.9431 0.3309 0.0328
vn 0.9431 0.3308 0.0332
vn 0.9432 0.3308 0.0313
vn 0.9432 0.3306 0.0314
vn 0.9432 0.3307 0.0322
vn 0.9433 0.3306 0.0306
vn 0.9433 0.3306 0.0296
vn 0.9437 0.3309 -0.0000
vn -0.9437 -0.3309 -0.0000
vn -0.6436 -0.7654 -0.0000
vn -0.8121 -0.2848 -0.5093
vn -0.9806 0.1958 -0.0000
vn -0.8121 -0.2848 0.5093
vn 0.3309 -0.9437 -0.0030
vn 0.3309 -0.9437 0.0030
vn 0.0010 -0.0028 1.0000
vn 0.0009 -0.0028 1.0000
vn -0.0010 0.0028 1.0000
vn -0.3309 0.9437 0.0030
vn -0.3309 0.9437 -0.0030
vn -0.0010 0.0028 -1.0000
vn -0.0009 0.0028 -1.0000
vn 0.0010 -0.0028 -1.0000
vn 0.1266 -0.3611 -0.9239
vn 0.3057 -0.8718 -0.3827
vn 0.3057 -0.8718 0.3827
vn 0.1266 -0.3611 0.9239
vn -0.1266 0.3611 0.9239
vn -0.3057 0.8718 0.3827
vn -0.3057 0.8718 -0.3827
vn -0.1266 0.3611 -0.9239
vn -0.9376 -0.3472 -0.0174
vn -0.9316 -0.3635 -0.0000
vn -0.9399 -0.3412 -0.0110
vn -0.9431 -0.3307 -0.0348
vn 0.9491 0.3144 -0.0174
vn 0.9431 0.3307 -0.0348
vn 0.9472 0.3205 -0.0110
vn 0.9546 0.2979 -0.0000
vn -0.9376 -0.3473 0.0174
vn -0.9431 -0.3307 0.0348
vn -0.9399 -0.3412 0.0110
vn 0.9491 0.3144 0.0174
vn 0.9472 0.3205 0.0110
vn 0.9431 0.3307 0.0348
vn -0.9491 -0.3144 0.0174
vn -0.9546 -0.2979 -0.0000
vn -0.9472 -0.3205 0.0110
vn 0.9376 0.3472 0.0174
vn 0.9399 0.3412 0.0110
vn 0.9316 0.3636 -0.0000
vn -0.9491 -0.3144 -0.0174
vn -0.9472 -0.3205 -0.0110
vn 0.9376 0.3472 -0.0174
vn 0.9399 0.3412 -0.0110
vn 0.9359 0.3517 -0.0222
vn 0.9359 0.3517 0.0222
vn 0.9505 0.3099 -0.0221
vn 0.9505 0.3099 0.0221
vn 0.0644 0.0226 0.9977
vn 0.3678 0.1290 0.9209
vn 0.0643 0.0226 0.9977
vn 0.9720 0.1450 0.1848
vn 0.8497 0.4938 0.1848
vn -0.2658 0.9640 -0.0000
vn 0.0631 0.9980 -0.0000
vn 0.8497 0.4938 -0.1848
vn 0.0643 0.0226 -0.9977
vn 0.3678 0.1290 -0.9209
vn 0.9720 0.1450 -0.1848
vn 0.6726 -0.7400 -0.0000
vn 0.3945 -0.9189 -0.0000
vn -0.9349 -0.3540 0.0247
vn -0.9513 -0.3074 0.0247
vn -0.9513 -0.3074 -0.0247
vn -0.9349 -0.3540 -0.0247
vn -0.0682 -0.0239 0.9974
vn -0.3982 0.9173 -0.0000
vn -0.0682 -0.0239 -0.9974
vn 0.2619 -0.9651 -0.0000
vn -0.8497 -0.4938 0.1848
vn -0.9720 -0.1451 0.1848
vn -0.3679 -0.1290 0.9209
vn -0.9720 -0.1451 -0.1848
vn -0.6726 0.7400 -0.0000
vn -0.8497 -0.4938 -0.1848
vn -0.3679 -0.1290 -0.9209
vn -0.0631 -0.9980 -0.0000
vt 0.375000 0.000000
vt 0.625000 0.000000
vt 0.625000 0.250000
vt 0.375000 0.250000
vt 0.625000 0.370210
vt 0.375000 0.370210
vt 0.375000 0.500000
vt 0.625000 0.500000
vt 0.625000 0.750000
vt 0.375000 0.750000
vt 0.375000 0.879790
vt 0.625000 0.879790
vt 0.625000 1.000000
vt 0.375000 1.000000
vt 0.745210 0.000000
vt 0.745210 0.250000
vt 0.254790 0.000000
vt 0.254790 0.250000
vt 0.125000 0.000000
vt 0.125000 0.250000
vt 0.875000 0.000000
vt 0.875000 0.250000
vt 0.375000 0.312500
vt 0.402778 0.312500
vt 0.402778 0.688440
vt 0.375000 0.688440
vt 0.430556 0.312500
vt 0.430556 0.688440
vt 0.458333 0.312500
vt 0.458333 0.688440
vt 0.486111 0.312500
vt 0.486111 0.688440
vt 0.513889 0.312500
vt 0.513889 0.688440
vt 0.541667 0.312500
vt 0.541667 0.688440
vt 0.569445 0.312500
vt 0.569445 0.688440
vt 0.597222 0.312500
vt 0.597222 0.688440
vt 0.625000 0.312500
vt 0.625000 0.688440
vt 0.527133 0.002374
vt 0.619694 0.055814
vt 0.500000 0.150000
vt 0.421875 0.020934
vt 0.353173 0.102809
vt 0.353173 0.209691
vt 0.421875 0.291566
vt 0.527133 0.310126
vt 0.619694 0.256686
vt 0.656250 0.156250
vt 0.619694 0.944186
vt 0.527133 0.997626
vt 0.500000 0.837500
vt 0.421875 0.979066
vt 0.353173 0.897191
vt 0.353173 0.790309
vt 0.421875 0.708434
vt 0.527133 0.689874
vt 0.619694 0.743314
vt 0.656250 0.843750
vt 0.625000 0.270579
vt 0.375000 0.270579
vt 0.625000 0.965095
vt 0.375000 0.965095
vt 0.375000 0.971343
vt 0.625000 0.972410
vt 0.625000 0.484271
vt 0.375000 0.484271
vt 0.625000 0.294015
vt 0.375000 0.294015
vt 0.625000 0.317721
vt 0.375000 0.317721
vt 0.625000 0.340819
vt 0.375000 0.340819
vt 0.625000 0.365133
vt 0.375000 0.365133
vt 0.625000 0.388839
vt 0.375000 0.388839
vt 0.625000 0.408290
vt 0.375000 0.408290
vt 0.625000 0.431388
vt 0.375000 0.431388
vt 0.625000 0.449624
vt 0.375000 0.449624
vt 0.625000 0.467859
vt 0.375000 0.467859
vt 0.625000 0.933955
vt 0.625000 0.956924
vt 0.624999 0.944331
vt 0.375000 0.933955
vt 0.625000 0.812432
vt 0.625000 0.925638
vt 0.625000 0.820807
vt 0.375000 0.812432
vt 0.625000 0.783570
vt 0.625000 0.801929
vt 0.625000 0.791745
vt 0.375000 0.783570
vt 0.625000 0.776251
vt 0.625000 0.775478
vt 0.464236 0.000000
vt 0.545509 -0.000000
vt 0.552172 0.251528
vt 0.474164 0.250000
vt 0.604382 -0.000000
vt 0.608158 0.252079
vt 0.465089 0.270579
vt 0.474164 0.500000
vt 0.464232 0.750000
vt 0.473554 0.965095
vt 0.464236 1.000000
vt 0.464089 0.484271
vt 0.469850 0.294015
vt 0.474190 0.317721
vt 0.477428 0.340819
vt 0.479228 0.365133
vt 0.479065 0.388839
vt 0.477526 0.408290
vt 0.474337 0.431388
vt 0.471083 0.449624
vt 0.467465 0.467859
vt 0.625000 0.973161
vt 0.625000 0.999157
vt 0.625000 0.750841
vt 0.477138 0.933955
vt 0.625000 0.940773
vt 0.625000 0.954471
vt 0.476777 0.812432
vt 0.625000 0.818567
vt 0.625000 0.927798
vt 0.473380 0.783570
vt 0.624999 0.794250
vt 0.625000 0.805649
vt 0.582255 0.265890
vt 0.568998 0.593680
vt 0.613913 0.808968
vt 0.610748 0.866278
vt 0.617656 0.270731
vt 0.548813 0.271374
vt 0.619013 0.293690
vt 0.551942 0.294292
vt 0.605905 0.497676
vt 0.623237 0.751290
vt 0.550541 0.498173
vt 0.553595 0.747463
vt 0.611330 0.779397
vt 0.555801 0.771334
vt 0.611381 0.317254
vt 0.553644 0.317723
vt 0.608768 0.340468
vt 0.554480 0.340737
vt 0.607795 0.365021
vt 0.554684 0.365085
vt 0.607301 0.388988
vt 0.554117 0.388856
vt 0.606903 0.408625
vt 0.553056 0.408320
vt 0.606353 0.431848
vt 0.551206 0.431327
vt 0.605862 0.450026
vt 0.549414 0.449356
vt 0.605355 0.467953
vt 0.547456 0.467239
vt 0.604927 0.483693
vt 0.545634 0.483188
vt 0.560955 0.762915
vt 0.608852 0.883635
vt 0.555680 0.787571
vt 0.607988 0.804206
vt 0.375000 0.927781
vt 0.375000 0.818594
vt 0.375000 0.954700
vt 0.375000 0.940597
vt 0.375000 0.972783
vt 0.375000 0.775846
vt 0.375000 0.805825
vt 0.375000 0.794020
vt 0.624997 0.933955
vt 0.375000 0.943864
vt 0.375000 0.957324
vt 0.375000 0.791345
vt 0.375000 0.802401
vt 0.375000 0.925880
vt 0.375000 0.820580
vt 0.375000 0.777343
vt 0.625121 0.963099
vt 0.374854 0.963179
vt 0.625381 0.960864
vt 0.374582 0.960994
vt 0.625583 0.958628
vt 0.374382 0.958787
vt 0.625513 0.956504
vt 0.374464 0.956696
vt 0.624281 0.958631
vt 0.375761 0.958975
vt 0.623957 0.960309
vt 0.376092 0.960584
vt 0.624000 0.961964
vt 0.376038 0.962159
vt 0.624365 0.963575
vt 0.375653 0.963679
vt 0.625441 0.939423
vt 0.374572 0.939280
vt 0.625597 0.938071
vt 0.374423 0.937961
vt 0.625524 0.936692
vt 0.374496 0.936620
vt 0.625298 0.935306
vt 0.374716 0.935269
vt 0.624496 0.935865
vt 0.375583 0.935781
vt 0.624092 0.938012
vt 0.376045 0.937831
vt 0.623952 0.940191
vt 0.376201 0.939921
vt 0.624217 0.942295
vt 0.375892 0.941932
vt 0.625515 0.792211
vt 0.374466 0.792010
vt 0.625584 0.790082
vt 0.374384 0.789903
vt 0.625381 0.787832
vt 0.374585 0.787686
vt 0.625120 0.785587
vt 0.374856 0.785484
vt 0.625297 0.811098
vt 0.374713 0.811120
vt 0.625521 0.809720
vt 0.374494 0.809777
vt 0.625591 0.808351
vt 0.374423 0.808444
vt 0.625435 0.806999
vt 0.374574 0.807133
vt 0.624369 0.785082
vt 0.375660 0.784997
vt 0.624004 0.786692
vt 0.376046 0.786517
vt 0.623962 0.788348
vt 0.376099 0.788091
vt 0.624284 0.790031
vt 0.375765 0.789698
vt 0.624213 0.803983
vt 0.375887 0.804364
vt 0.623950 0.806109
vt 0.376193 0.806410
vt 0.624094 0.808320
vt 0.376035 0.808526
vt 0.624500 0.810491
vt 0.375573 0.810600
vt 0.625097 0.964855
vt 0.625086 0.969529
vt 0.625215 0.964410
vt 0.625194 0.965956
vt 0.374926 0.969602
vt 0.374915 0.965008
vt 0.374818 0.966326
vt 0.374796 0.964816
vt 0.624800 0.969153
vt 0.624837 0.964844
vt 0.624560 0.965841
vt 0.624582 0.964441
vt 0.375181 0.964932
vt 0.375256 0.968519
vt 0.375461 0.964592
vt 0.375502 0.965745
vt 0.625106 0.930549
vt 0.625086 0.934156
vt 0.625237 0.933345
vt 0.625231 0.934507
vt 0.374890 0.934231
vt 0.374872 0.930685
vt 0.374732 0.934699
vt 0.374729 0.933552
vt 0.624826 0.934208
vt 0.624790 0.929392
vt 0.624574 0.934677
vt 0.624574 0.933087
vt 0.375190 0.929436
vt 0.375144 0.934153
vt 0.375425 0.933030
vt 0.375407 0.934520
vt 0.625073 0.779017
vt 0.625075 0.783778
vt 0.625174 0.782605
vt 0.625190 0.784119
vt 0.374898 0.783674
vt 0.374916 0.779109
vt 0.374780 0.783893
vt 0.374812 0.782354
vt 0.625109 0.812184
vt 0.625131 0.815744
vt 0.625269 0.811768
vt 0.625273 0.812938
vt 0.374894 0.815767
vt 0.374913 0.812197
vt 0.374764 0.812920
vt 0.374770 0.811797
vt 0.624807 0.783864
vt 0.624755 0.779591
vt 0.624520 0.784331
vt 0.624500 0.782924
vt 0.375198 0.780056
vt 0.375148 0.783685
vt 0.375418 0.782789
vt 0.375386 0.783944
vt 0.624837 0.817143
vt 0.624866 0.812222
vt 0.624634 0.813431
vt 0.624644 0.811859
vt 0.375196 0.812186
vt 0.375244 0.816879
vt 0.375491 0.811706
vt 0.375494 0.813246
vt 0.003469 0.004107
vt 1.000949 0.000000
vt 1.010571 1.068902
vt -0.065364 1.033215
vt 0.625000 0.252495
vt 0.375000 0.252495
vt 0.375000 0.497505
vt 0.625000 0.497505
vt 0.625000 0.502495
vt 0.375000 0.502495
vt 0.375000 0.747505
vt 0.625000 0.747505
vt 0.625000 0.752495
vt 0.375000 0.752495
vt 0.375000 0.997505
vt 0.625000 0.997505
vt 0.625000 0.002495
vt 0.375000 0.002495
vt 0.375000 0.247505
vt 0.625000 0.247505
vt 0.375000 1.002409
vt -0.000599 0.995668
vt 1.000599 0.998747
vt 1.000599 1.002409
vt -0.004704 -0.005488
vt 0.998547 -0.005488
vt 0.998547 0.530787
vt 0.573176 0.000000
vt 0.573176 0.250000
vt 0.573176 0.500000
vt 0.573176 0.750000
vt 0.573176 1.000000
vt 0.430580 0.000000
vt 0.430580 0.250000
vt 0.430580 0.500000
vt 0.430580 0.750000
vt 0.430580 1.000000
s 1
f 1/1/1 2/2/1 4/3/1 3/4/1
f 3/4/2 4/3/2 9/5/2 10/6/2
f 5/7/3 6/8/3 8/9/3 7/10/3
f 11/11/4 12/12/4 2/13/5 1/14/5
f 2/2/6 12/15/6 9/16/6 4/3/6
f 11/17/7 1/1/7 3/4/7 10/18/7
f 10/6/2 9/5/2 6/8/2 5/7/2
f 7/19/7 11/17/7 10/18/7 5/20/7
f 7/10/8 8/9/8 12/12/4 11/11/4
f 9/16/6 12/15/6 8/21/6 6/22/6
f 13/23/9 14/24/9 23/25/9 22/26/9
f 14/24/10 15/27/10 24/28/10 23/25/10
f 15/27/11 16/29/11 25/30/11 24/28/11
f 16/29/12 17/31/12 26/32/12 25/30/12
f 17/31/13 18/33/13 27/34/13 26/32/13
f 18/33/14 19/35/14 28/36/14 27/34/14
f 19/35/15 20/37/15 29/38/15 28/36/15
f 20/37/16 21/39/16 30/40/16 29/38/16
f 21/39/17 13/41/17 22/42/17 30/40/17
f 14/43/18 13/44/18 31/45/18
f 15/46/18 14/43/18 31/45/18
f 16/47/19 15/46/18 31/45/18
f 17/48/18 16/47/19 31/45/18
f 18/49/18 17/48/18 31/45/18
f 19/50/18 18/49/18 31/45/18
f 20/51/18 19/50/18 31/45/18
f 21/52/18 20/51/18 31/45/18
f 13/44/18 21/52/18 31/45/18
f 22/53/20 23/54/20 32/55/20
f 23/54/20 24/56/20 32/55/20
f 24/56/20 25/57/21 32/55/20
f 25/57/21 26/58/21 32/55/20
f 26/58/21 27/59/21 32/55/20
f 27/59/21 28/60/21 32/55/20
f 28/60/21 29/61/20 32/55/20
f 29/61/20 30/62/20 32/55/20
f 30/62/20 22/53/20 32/55/20
f 34/2/22 36/3/22 45/3/22 46/2/22
f 35/4/23 33/1/23 230/1/23 231/4/23
f 36/3/24 49/63/25 50/63/26 45/3/27
f 52/64/28 35/4/28 231/4/28 232/64/28
f 38/8/29 40/9/29 47/9/29 48/8/29
f 39/10/30 37/7/30 243/7/30 244/10/30
f 124/65/31 34/13/31 46/13/32 123/65/33
f 33/14/34 125/66/35 274/66/36 273/67/37 230/14/38
f 35/4/39 52/64/40 49/63/41 36/3/39
f 37/7/42 39/10/42 40/9/42 38/8/42
f 125/66/43 33/14/43 34/13/43 124/65/43
f 33/1/44 35/4/44 36/3/44 34/2/44
f 46/2/22 45/3/22 122/3/22 108/2/22
f 123/65/33 46/13/32 108/13/45 266/68/45 265/65/45
f 48/8/29 47/9/29 109/9/29 110/8/29
f 45/3/27 50/63/26 121/63/46 122/3/46
f 90/69/47 38/8/48 48/8/49 89/69/50
f 111/69/46 89/69/50 48/8/49 110/8/46
f 37/7/28 91/70/28 242/70/28 243/7/28
f 90/69/51 91/70/52 37/7/53 38/8/53
f 49/63/25 54/71/54 53/71/55 50/63/26
f 49/63/41 52/64/40 55/72/56 54/71/57
f 233/72/28 55/72/28 52/64/28 232/64/28
f 121/63/46 50/63/26 53/71/55 120/71/46
f 54/71/54 58/73/58 57/73/59 53/71/55
f 54/71/57 55/72/56 59/74/56 58/73/60
f 234/74/28 59/74/28 55/72/28 233/72/28
f 120/71/46 53/71/55 57/73/59 119/73/46
f 58/73/58 62/75/61 61/75/62 57/73/59
f 58/73/60 59/74/56 63/76/56 62/75/63
f 235/76/28 63/76/28 59/74/28 234/74/28
f 119/73/46 57/73/59 61/75/62 118/75/46
f 62/75/61 66/77/64 65/77/65 61/75/62
f 62/75/63 63/76/56 67/78/56 66/77/66
f 236/78/28 67/78/28 63/76/28 235/76/28
f 118/75/46 61/75/62 65/77/65 117/77/46
f 66/77/64 70/79/67 69/79/68 65/77/65
f 66/77/66 67/78/56 71/80/56 70/79/69
f 237/80/28 71/80/28 67/78/28 236/78/28
f 117/77/46 65/77/65 69/79/68 116/79/46
f 70/79/67 74/81/70 73/81/71 69/79/68
f 70/79/69 71/80/56 75/82/56 74/81/72
f 238/82/28 75/82/28 71/80/28 237/80/28
f 116/79/46 69/79/68 73/81/71 115/81/46
f 74/81/70 78/83/73 77/83/74 73/81/71
f 74/81/72 75/82/56 79/84/56 78/83/75
f 239/84/28 79/84/28 75/82/28 238/82/28
f 115/81/46 73/81/71 77/83/74 114/83/46
f 78/83/73 82/85/76 81/85/77 77/83/74
f 78/83/75 79/84/56 83/86/56 82/85/56
f 240/86/28 83/86/28 79/84/28 239/84/28
f 114/83/46 77/83/74 81/85/77 113/85/46
f 82/85/76 86/87/78 85/87/79 81/85/77
f 82/85/56 83/86/56 87/88/56 86/87/80
f 241/88/28 87/88/28 83/86/28 240/86/28
f 113/85/46 81/85/77 85/87/79 112/87/46
f 86/87/78 90/69/47 89/69/50 85/87/79
f 86/87/80 87/88/56 91/70/52 90/69/51
f 242/70/28 91/70/28 87/88/28 241/88/28
f 112/87/46 85/87/79 89/69/50 111/69/46
f 110/8/29 109/9/29 94/9/81 95/8/82
f 96/69/46 111/69/46 110/8/46 95/8/82
f 97/87/46 112/87/46 111/69/46 96/69/46
f 98/85/46 113/85/46 112/87/46 97/87/46
f 99/83/46 114/83/46 113/85/46 98/85/46
f 100/81/46 115/81/46 114/83/46 99/83/46
f 101/79/46 116/79/46 115/81/46 100/81/46
f 102/77/46 117/77/46 116/79/46 101/79/46
f 103/75/46 118/75/46 117/77/46 102/77/46
f 104/73/46 119/73/46 118/75/46 103/75/46
f 105/71/46 120/71/46 119/73/46 104/73/46
f 106/63/46 121/63/46 120/71/46 105/71/46
f 122/3/46 121/63/46 106/63/46 107/3/83
f 108/2/22 122/3/22 107/3/83 93/2/84
f 127/89/85 123/65/33 265/65/45 264/90/45 299/91/45 298/89/45
f 128/89/31 124/65/31 123/65/33 127/89/85
f 129/92/43 125/66/43 124/65/43 128/89/43
f 131/93/85 127/89/85 298/89/45 297/94/45 361/95/45 360/93/45
f 132/93/31 128/89/31 127/89/85 131/93/85
f 133/96/43 129/92/43 128/89/43 132/93/43
f 135/97/86 131/93/85 360/93/45 359/98/45 346/99/45 345/97/45
f 136/97/31 132/93/31 131/93/85 135/97/86
f 137/100/43 133/96/43 132/93/43 136/97/43
f 109/9/45 344/101/45 343/97/45 314/97/45 313/102/45 94/9/81
f 47/9/32 135/97/86 345/97/45 344/101/45 109/9/45
f 40/9/31 136/97/31 135/97/86 47/9/32
f 39/10/43 137/100/43 136/97/43 40/9/43
f 142/103/87 141/104/88 144/105/89 143/106/90
f 141/104/88 140/107/91 145/108/91 144/105/89
f 140/107/92 139/2/93 146/3/94 145/108/95
f 41/1/42 142/103/87 143/106/90 42/4/42
f 42/4/96 143/106/97 147/109/98 51/64/96
f 43/7/44 151/110/99 155/111/100 44/10/44
f 126/66/101 206/112/102 142/113/103 41/14/101
f 92/70/43 199/114/104 151/110/105 43/7/43
f 51/64/96 147/109/98 163/115/106 56/72/43
f 56/72/43 163/115/106 167/116/107 60/74/43
f 60/74/43 167/116/107 171/117/108 64/76/43
f 64/76/43 171/117/108 175/118/109 68/78/43
f 68/78/43 175/118/109 179/119/110 72/80/43
f 72/80/43 179/119/110 183/120/111 76/82/43
f 76/82/43 183/120/111 187/121/112 80/84/113
f 80/84/113 187/121/112 191/122/114 84/86/113
f 84/86/113 191/122/114 195/123/115 88/88/96
f 88/88/96 195/123/115 199/114/104 92/70/43
f 203/65/116 250/124/45 93/13/84 139/125/93
f 95/8/82 94/9/81 158/126/117 154/8/118
f 202/69/119 96/69/46 95/8/82 154/8/118
f 198/87/120 97/87/46 96/69/46 202/69/119
f 194/85/121 98/85/46 97/87/46 198/87/120
f 190/83/122 99/83/46 98/85/46 194/85/121
f 186/81/123 100/81/46 99/83/46 190/83/122
f 182/79/124 101/79/46 100/81/46 186/81/123
f 178/77/125 102/77/46 101/79/46 182/79/124
f 174/75/126 103/75/46 102/77/46 178/77/125
f 170/73/127 104/73/46 103/75/46 174/75/126
f 166/71/128 105/71/46 104/73/46 170/73/127
f 150/63/129 106/63/46 105/71/46 166/71/128
f 107/3/83 106/63/46 150/63/129 146/3/94
f 93/2/84 107/3/83 146/3/94 139/2/93
f 130/92/101 210/127/130 206/112/102 126/66/101
f 207/89/131 281/89/45 280/128/45 251/129/132 203/65/116
f 134/96/133 214/130/134 210/127/130 130/92/101
f 211/93/135 329/93/45 328/131/45 282/132/45 281/89/45 207/89/131
f 138/100/136 159/133/137 214/130/134 134/96/133
f 162/97/138 312/134/45 330/135/45 329/93/45 211/93/135
f 44/10/136 155/111/139 159/133/137 138/100/136
f 94/9/81 313/102/45 162/97/138 158/126/117
f 141/136/140 142/113/103 206/112/102 205/137/141
f 139/125/93 140/138/92 204/139/142 203/65/116
f 140/138/143 141/136/140 205/137/141 204/139/144
f 145/108/95 146/3/94 150/63/129 149/140/145
f 143/106/97 144/105/146 148/141/147 147/109/98
f 144/105/146 145/108/148 149/140/149 148/141/147
f 149/140/145 150/63/129 166/71/128 165/142/150
f 147/109/98 148/141/147 164/143/151 163/115/106
f 148/141/147 149/140/149 165/142/152 164/143/151
f 153/144/153 154/8/118 158/126/117 157/145/154
f 151/110/99 152/146/155 156/147/156 155/111/100
f 152/146/155 153/144/157 157/145/157 156/147/156
f 157/145/154 158/126/117 162/97/138 161/148/158
f 155/111/139 156/147/159 160/149/160 159/133/137
f 156/147/159 157/145/161 161/148/162 160/149/160
f 165/142/150 166/71/128 170/73/127 169/150/163
f 163/115/106 164/143/151 168/151/164 167/116/107
f 164/143/151 165/142/152 169/150/165 168/151/164
f 169/150/163 170/73/127 174/75/126 173/152/166
f 167/116/107 168/151/164 172/153/167 171/117/108
f 168/151/164 169/150/165 173/152/168 172/153/167
f 173/152/166 174/75/126 178/77/125 177/154/169
f 171/117/108 172/153/167 176/155/170 175/118/109
f 172/153/167 173/152/168 177/154/171 176/155/172
f 177/154/169 178/77/125 182/79/124 181/156/173
f 175/118/109 176/155/170 180/157/174 179/119/110
f 176/155/172 177/154/171 181/156/175 180/157/176
f 181/156/173 182/79/124 186/81/123 185/158/177
f 179/119/110 180/157/174 184/159/178 183/120/111
f 180/157/176 181/156/175 185/158/179 184/159/178
f 185/158/177 186/81/123 190/83/122 189/160/180
f 183/120/111 184/159/178 188/161/181 187/121/112
f 184/159/178 185/158/179 189/160/182 188/161/181
f 189/160/180 190/83/122 194/85/121 193/162/183
f 187/121/112 188/161/181 192/163/184 191/122/114
f 188/161/181 189/160/182 193/162/185 192/163/184
f 193/162/183 194/85/121 198/87/120 197/164/186
f 191/122/114 192/163/184 196/165/187 195/123/115
f 192/163/184 193/162/185 197/164/188 196/165/187
f 197/164/186 198/87/120 202/69/119 201/166/189
f 195/123/115 196/165/187 200/167/190 199/114/104
f 196/165/187 197/164/188 201/166/191 200/167/190
f 154/8/118 153/144/153 201/166/189 202/69/119
f 153/144/192 152/146/193 200/167/190 201/166/191
f 152/146/193 151/110/105 199/114/104 200/167/190
f 205/137/141 206/112/102 210/127/130 209/168/194
f 203/65/116 204/139/142 208/169/195 207/89/131
f 204/139/144 205/137/141 209/168/194 208/169/196
f 209/168/194 210/127/130 214/130/134 213/170/197
f 207/89/131 208/169/195 212/171/198 211/93/135
f 208/169/196 209/168/194 213/170/197 212/171/199
f 159/133/137 160/149/160 213/170/197 214/130/134
f 160/149/160 161/148/162 212/171/199 213/170/197
f 161/148/158 162/97/138 211/93/135 212/171/198
f 130/92/200 290/92/201 289/172/202 337/173/202 336/96/203 134/96/200
f 126/66/204 257/66/205 256/174/206 291/175/207 290/92/201 130/92/200
f 215/14/208 258/176/209 257/66/205 126/66/204 41/14/210
f 216/4/23 215/1/23 41/1/23 42/4/23
f 217/64/28 216/4/28 42/4/28 51/64/28
f 56/72/28 218/72/28 217/64/28 51/64/28
f 60/74/28 219/74/28 218/72/28 56/72/28
f 64/76/28 220/76/28 219/74/28 60/74/28
f 68/78/28 221/78/28 220/76/28 64/76/28
f 72/80/28 222/80/28 221/78/28 68/78/28
f 76/82/28 223/82/28 222/80/28 72/80/28
f 80/84/28 224/84/28 223/82/28 76/82/28
f 84/86/28 225/86/28 224/84/28 80/84/28
f 88/88/28 226/88/28 225/86/28 84/86/28
f 92/70/28 227/70/28 226/88/28 88/88/28
f 228/7/28 227/70/28 92/70/28 43/7/28
f 229/10/30 228/7/30 43/7/30 44/10/30
f 138/100/211 321/100/212 320/177/213 229/10/214 44/10/215
f 134/96/200 336/96/203 335/178/216 322/179/217 321/100/212 138/100/211
f 230/14/38 273/67/37 272/66/218 259/66/219 258/176/209 215/14/208
f 231/4/23 230/1/23 215/1/23 216/4/23
f 232/64/28 231/4/28 216/4/28 217/64/28
f 218/72/28 233/72/28 232/64/28 217/64/28
f 219/74/28 234/74/28 233/72/28 218/72/28
f 220/76/28 235/76/28 234/74/28 219/74/28
f 221/78/28 236/78/28 235/76/28 220/76/28
f 222/80/28 237/80/28 236/78/28 221/78/28
f 223/82/28 238/82/28 237/80/28 222/80/28
f 224/84/28 239/84/28 238/82/28 223/82/28
f 225/86/28 240/86/28 239/84/28 224/84/28
f 226/88/28 241/88/28 240/86/28 225/86/28
f 227/70/28 242/70/28 241/88/28 226/88/28
f 243/7/28 242/70/28 227/70/28 228/7/28
f 244/10/30 243/7/30 228/7/30 229/10/30
f 272/66/220 267/65/221 249/65/222 259/66/223
f 256/174/224 251/129/225 280/128/226 291/175/227
f 288/92/228 283/89/229 296/180/230 307/92/231
f 304/181/232 299/91/233 264/90/234 275/182/235
f 335/178/236 330/135/237 312/134/238 322/179/239
f 319/100/240 314/97/241 343/97/242 354/100/243
f 351/183/244 346/99/245 359/98/246 370/184/247
f 367/96/248 362/93/249 327/93/250 338/96/251
f 267/65/45 266/68/45 108/13/45 93/13/84 250/124/45 249/65/45
f 275/182/252 274/66/36 125/66/35 129/92/253 305/92/254 304/181/255
f 289/172/202 288/92/256 307/92/256 306/185/257 368/186/258 367/96/256 338/96/256 337/173/202
f 306/185/257 305/92/254 129/92/253 133/96/253 369/96/254 368/186/258
f 320/177/213 319/100/259 354/100/260 353/187/261 244/10/262 229/10/214
f 352/100/263 351/183/264 370/184/265 369/96/254 133/96/253 137/100/266
f 353/187/261 352/100/263 137/100/266 39/10/267 244/10/262
f 362/93/45 361/95/45 297/94/45 296/180/45 283/89/45 282/132/45 328/131/45 327/93/45
f 249/65/222 248/188/268 252/189/269 259/66/223
f 248/188/268 247/190/270 253/191/271 252/189/269
f 247/190/270 246/192/272 254/193/273 253/191/271
f 246/192/272 245/194/274 255/195/275 254/193/273
f 245/194/274 251/129/225 256/174/224 255/195/275
f 264/90/234 263/196/276 268/197/277 275/182/235
f 263/196/276 262/198/278 269/199/279 268/197/277
f 262/198/278 261/200/280 270/201/281 269/199/279
f 261/200/280 260/202/282 271/203/283 270/201/281
f 260/202/282 267/65/221 272/66/220 271/203/283
f 280/128/226 279/204/284 284/205/285 291/175/227
f 279/204/284 278/206/286 285/207/287 284/205/285
f 278/206/286 277/208/288 286/209/289 285/207/287
f 277/208/288 276/210/290 287/211/291 286/209/289
f 276/210/290 283/89/229 288/92/228 287/211/291
f 296/180/230 295/212/292 300/213/293 307/92/231
f 295/212/292 294/214/294 301/215/295 300/213/293
f 294/214/294 293/216/296 302/217/297 301/215/295
f 293/216/296 292/218/298 303/219/299 302/217/297
f 292/218/298 299/91/233 304/181/232 303/219/299
f 312/134/238 311/220/300 315/221/301 322/179/239
f 311/220/300 310/222/302 316/223/303 315/221/301
f 310/222/302 309/224/304 317/225/305 316/223/303
f 309/224/304 308/226/306 318/227/307 317/225/305
f 308/226/306 314/97/241 319/100/240 318/227/307
f 327/93/250 326/228/308 331/229/309 338/96/251
f 326/228/308 325/230/310 332/231/311 331/229/309
f 325/230/310 324/232/312 333/233/313 332/231/311
f 324/232/312 323/234/314 334/235/315 333/233/313
f 323/234/314 330/135/237 335/178/236 334/235/315
f 343/97/242 342/236/316 347/237/317 354/100/243
f 342/236/316 341/238/318 348/239/319 347/237/317
f 341/238/318 340/240/320 349/241/321 348/239/319
f 340/240/320 339/242/322 350/243/323 349/241/321
f 339/242/322 346/99/245 351/183/244 350/243/323
f 359/98/246 358/244/324 363/245/325 370/184/247
f 358/244/324 357/246/326 364/247/327 363/245/325
f 357/246/326 356/248/328 365/249/329 364/247/327
f 356/248/328 355/250/330 366/251/331 365/249/329
f 355/250/330 362/93/249 367/96/248 366/251/331
f 251/129/132 245/194/132 371/252/132 203/65/116
f 203/65/116 371/252/132 372/253/45 250/124/45
f 250/124/45 372/253/45 248/188/45 249/65/45
f 245/194/132 246/192/45 373/254/45 371/252/132
f 371/252/132 373/254/45 374/255/45 372/253/45
f 372/253/45 374/255/45 247/190/45 248/188/45
f 247/190/45 374/255/45 373/254/45 246/192/45
f 259/66/219 252/189/332 375/256/333 258/176/209
f 258/176/209 375/256/333 376/257/334 257/66/205
f 257/66/205 376/257/334 255/195/335 256/174/206
f 252/189/332 253/191/336 377/258/337 375/256/333
f 375/256/333 377/258/337 378/259/338 376/257/334
f 376/257/334 378/259/338 254/193/339 255/195/335
f 254/193/339 378/259/338 377/258/337 253/191/336
f 267/65/45 260/202/45 379/260/45 266/68/45
f 266/68/45 379/260/45 380/261/45 265/65/45
f 265/65/45 380/261/45 263/196/132 264/90/45
f 260/202/45 261/200/45 381/262/45 379/260/45
f 379/260/45 381/262/45 382/263/45 380/261/45
f 380/261/45 382/263/45 262/198/45 263/196/132
f 262/198/45 382/263/45 381/262/45 261/200/45
f 275/182/252 268/197/340 383/264/341 274/66/36
f 274/66/36 383/264/341 384/265/342 273/67/37
f 273/67/37 384/265/342 271/203/343 272/66/218
f 268/197/340 269/199/344 385/266/345 383/264/341
f 383/264/341 385/266/345 386/267/346 384/265/342
f 384/265/342 386/267/346 270/201/347 271/203/343
f 270/201/347 386/267/346 385/266/345 269/199/344
f 283/89/45 276/210/132 387/268/45 282/132/45
f 282/132/45 387/268/45 388/269/45 281/89/45
f 281/89/45 388/269/45 279/204/45 280/128/45
f 276/210/132 277/208/132 389/270/132 387/268/45
f 387/268/45 389/270/132 390/271/45 388/269/45
f 388/269/45 390/271/45 278/206/132 279/204/45
f 278/206/132 390/271/45 389/270/132 277/208/132
f 291/175/207 284/205/348 391/272/349 290/92/201
f 290/92/201 391/272/349 392/273/350 289/172/202
f 289/172/202 392/273/350 287/211/256 288/92/256
f 284/205/348 285/207/351 393/274/352 391/272/349
f 391/272/349 393/274/352 394/275/353 392/273/350
f 392/273/350 394/275/353 286/209/354 287/211/256
f 286/209/354 394/275/353 393/274/352 285/207/351
f 299/91/45 292/218/45 395/276/45 298/89/45
f 298/89/45 395/276/45 396/277/45 297/94/45
f 297/94/45 396/277/45 295/212/45 296/180/45
f 292/218/45 293/216/45 397/278/45 395/276/45
f 395/276/45 397/278/45 398/279/45 396/277/45
f 396/277/45 398/279/45 294/214/45 295/212/45
f 294/214/45 398/279/45 397/278/45 293/216/45
f 307/92/256 300/213/256 399/280/355 306/185/257
f 306/185/257 399/280/355 400/281/356 305/92/254
f 305/92/254 400/281/356 303/219/357 304/181/255
f 300/213/256 301/215/358 401/282/359 399/280/355
f 399/280/355 401/282/359 402/283/360 400/281/356
f 400/281/356 402/283/360 302/217/361 303/219/357
f 302/217/361 402/283/360 401/282/359 301/215/358
f 314/97/45 308/226/132 403/284/45 313/102/45
f 313/102/45 403/284/45 404/285/45 162/97/138
f 162/97/138 404/285/45 311/220/132 312/134/45
f 308/226/132 309/224/45 405/286/45 403/284/45
f 403/284/45 405/286/45 406/287/45 404/285/45
f 404/285/45 406/287/45 310/222/45 311/220/132
f 310/222/45 406/287/45 405/286/45 309/224/45
f 322/179/217 315/221/362 407/288/363 321/100/212
f 321/100/212 407/288/363 408/289/364 320/177/213
f 320/177/213 408/289/364 318/227/365 319/100/259
f 315/221/362 316/223/366 409/290/367 407/288/363
f 407/288/363 409/290/367 410/291/368 408/289/364
f 408/289/364 410/291/368 317/225/369 318/227/365
f 317/225/369 410/291/368 409/290/367 316/223/366
f 330/135/45 323/234/370 411/292/132 329/93/45
f 329/93/45 411/292/132 412/293/132 328/131/45
f 328/131/45 412/293/132 326/228/45 327/93/45
f 323/234/370 324/232/45 413/294/45 411/292/132
f 411/292/132 413/294/45 414/295/45 412/293/132
f 412/293/132 414/295/45 325/230/371 326/228/45
f 325/230/371 414/295/45 413/294/45 324/232/45
f 338/96/256 331/229/256 415/296/202 337/173/202
f 337/173/202 415/296/202 416/297/372 336/96/203
f 336/96/203 416/297/372 334/235/373 335/178/216
f 331/229/256 332/231/374 417/298/375 415/296/202
f 415/296/202 417/298/375 418/299/376 416/297/372
f 416/297/372 418/299/376 333/233/377 334/235/373
f 333/233/377 418/299/376 417/298/375 332/231/374
f 346/99/45 339/242/45 419/300/45 345/97/45
f 345/97/45 419/300/45 420/301/45 344/101/45
f 344/101/45 420/301/45 342/236/45 343/97/45
f 339/242/45 340/240/132 421/302/132 419/300/45
f 419/300/45 421/302/132 422/303/132 420/301/45
f 420/301/45 422/303/132 341/238/45 342/236/45
f 341/238/45 422/303/132 421/302/132 340/240/132
f 354/100/260 347/237/378 423/304/379 353/187/261
f 353/187/261 423/304/379 424/305/380 352/100/263
f 352/100/263 424/305/380 350/243/381 351/183/264
f 347/237/378 348/239/382 425/306/383 423/304/379
f 423/304/379 425/306/383 426/307/384 424/305/380
f 424/305/380 426/307/384 349/241/385 350/243/381
f 349/241/385 426/307/384 425/306/383 348/239/382
f 362/93/45 355/250/45 427/308/45 361/95/45
f 361/95/45 427/308/45 428/309/45 360/93/45
f 360/93/45 428/309/45 358/244/132 359/98/45
f 355/250/45 356/248/45 429/310/45 427/308/45
f 427/308/45 429/310/45 430/311/45 428/309/45
f 428/309/45 430/311/45 357/246/45 358/244/132
f 357/246/45 430/311/45 429/310/45 356/248/45
f 370/184/265 363/245/386 431/312/387 369/96/254
f 369/96/254 431/312/387 432/313/388 368/186/258
f 368/186/258 432/313/388 366/251/256 367/96/256
f 363/245/386 364/247/389 433/314/390 431/312/387
f 431/312/387 433/314/390 434/315/391 432/313/388
f 432/313/388 434/315/391 365/249/392 366/251/256
f 365/249/392 434/315/391 433/314/390 364/247/389
f 436/2/393 438/3/393 447/3/393 448/2/393
f 437/4/394 435/1/394 632/1/394 633/4/394
f 438/3/395 451/63/396 452/63/397 447/3/398
f 454/64/399 437/4/399 633/4/399 634/64/399
f 440/8/400 442/9/400 449/9/400 450/8/400
f 441/10/401 439/7/401 645/7/401 646/10/401
f 526/65/402 436/13/402 448/13/403 525/65/404
f 435/14/405 527/66/406 676/66/407 675/67/408 632/14/409
f 437/4/410 454/64/411 451/63/412 438/3/410
f 439/7/43 441/10/43 442/9/43 440/8/43
f 527/66/44 435/14/44 436/13/44 526/65/44
f 435/1/101 437/4/101 438/3/101 436/2/101
f 448/2/393 447/3/393 524/3/393 510/2/393
f 525/65/404 448/13/403 510/13/413 668/68/413 667/65/413
f 450/8/400 449/9/400 511/9/400 512/8/400
f 447/3/398 452/63/397 523/63/414 524/3/414
f 492/69/415 440/8/416 450/8/417 491/69/418
f 513/69/414 491/69/418 450/8/417 512/8/419
f 439/7/399 493/70/399 644/70/399 645/7/399
f 492/69/420 493/70/421 439/7/422 440/8/422
f 451/63/396 456/71/423 455/71/424 452/63/397
f 451/63/412 454/64/411 457/72/425 456/71/426
f 635/72/399 457/72/399 454/64/399 634/64/399
f 523/63/414 452/63/397 455/71/424 522/71/414
f 456/71/423 460/73/427 459/73/428 455/71/424
f 456/71/426 457/72/425 461/74/429 460/73/430
f 636/74/399 461/74/399 457/72/399 635/72/399
f 522/71/414 455/71/424 459/73/428 521/73/414
f 460/73/427 464/75/431 463/75/432 459/73/428
f 460/73/430 461/74/429 465/76/429 464/75/433
f 637/76/399 465/76/399 461/74/399 636/74/399
f 521/73/414 459/73/428 463/75/432 520/75/414
f 464/75/431 468/77/434 467/77/435 463/75/432
f 464/75/433 465/76/429 469/78/425 468/77/436
f 638/78/399 469/78/399 465/76/399 637/76/399
f 520/75/414 463/75/432 467/77/435 519/77/414
f 468/77/434 472/79/437 471/79/438 467/77/435
f 468/77/436 469/78/425 473/80/429 472/79/439
f 639/80/399 473/80/399 469/78/399 638/78/399
f 519/77/414 467/77/435 471/79/438 518/79/419
f 472/79/437 476/81/440 475/81/441 471/79/438
f 472/79/439 473/80/429 477/82/442 476/81/443
f 640/82/399 477/82/399 473/80/399 639/80/399
f 518/79/419 471/79/438 475/81/441 517/81/419
f 476/81/440 480/83/444 479/83/445 475/81/441
f 476/81/443 477/82/442 481/84/446 480/83/447
f 641/84/399 481/84/399 477/82/399 640/82/399
f 517/81/419 475/81/441 479/83/445 516/83/419
f 480/83/444 484/85/448 483/85/449 479/83/445
f 480/83/447 481/84/446 485/86/450 484/85/450
f 642/86/399 485/86/399 481/84/399 641/84/399
f 516/83/419 479/83/445 483/85/449 515/85/419
f 484/85/448 488/87/451 487/87/452 483/85/449
f 484/85/450 485/86/450 489/88/450 488/87/453
f 643/88/399 489/88/399 485/86/399 642/86/399
f 515/85/419 483/85/449 487/87/452 514/87/414
f 488/87/451 492/69/415 491/69/418 487/87/452
f 488/87/453 489/88/450 493/70/421 492/69/420
f 644/70/399 493/70/399 489/88/399 643/88/399
f 514/87/414 487/87/452 491/69/418 513/69/414
f 512/8/400 511/9/400 496/9/454 497/8/455
f 498/69/414 513/69/414 512/8/419 497/8/455
f 499/87/419 514/87/414 513/69/414 498/69/414
f 500/85/419 515/85/419 514/87/414 499/87/419
f 501/83/414 516/83/419 515/85/419 500/85/419
f 502/81/414 517/81/419 516/83/419 501/83/414
f 503/79/414 518/79/419 517/81/419 502/81/414
f 504/77/414 519/77/414 518/79/419 503/79/414
f 505/75/414 520/75/414 519/77/414 504/77/414
f 506/73/419 521/73/414 520/75/414 505/75/414
f 507/71/419 522/71/414 521/73/414 506/73/419
f 508/63/419 523/63/414 522/71/414 507/71/419
f 524/3/414 523/63/414 508/63/419 509/3/456
f 510/2/393 524/3/393 509/3/456 495/2/457
f 529/89/458 525/65/404 667/65/413 666/90/413 701/91/459 700/89/459
f 530/89/402 526/65/402 525/65/404 529/89/458
f 531/92/44 527/66/44 526/65/44 530/89/44
f 533/93/458 529/89/458 700/89/459 699/94/413 763/95/413 762/93/413
f 534/93/460 530/89/402 529/89/458 533/93/458
f 535/96/44 531/92/44 530/89/44 534/93/44
f 537/97/404 533/93/458 762/93/413 761/98/413 748/99/413 747/97/413
f 538/97/460 534/93/460 533/93/458 537/97/404
f 539/100/44 535/96/44 534/93/44 538/97/44
f 511/9/413 746/101/413 745/97/413 716/97/413 715/102/413 496/9/454
f 449/9/403 537/97/404 747/97/413 746/101/413 511/9/413
f 442/9/402 538/97/460 537/97/404 449/9/403
f 441/10/44 539/100/44 538/97/44 442/9/44
f 544/103/461 543/104/462 546/105/463 545/106/461
f 543/104/462 542/107/464 547/108/464 546/105/463
f 542/107/465 541/2/466 548/3/467 547/108/468
f 443/1/43 544/103/461 545/106/461 444/4/43
f 444/4/44 545/106/469 549/109/470 453/64/44
f 445/7/133 553/110/471 557/111/472 446/10/133
f 528/66/42 608/112/473 544/113/474 443/14/42
f 494/70/44 601/114/475 553/110/476 445/7/44
f 453/64/44 549/109/470 565/115/477 458/72/44
f 458/72/44 565/115/477 569/116/478 462/74/44
f 462/74/44 569/116/478 573/117/479 466/76/44
f 466/76/44 573/117/479 577/118/480 470/78/44
f 470/78/44 577/118/480 581/119/481 474/80/44
f 474/80/44 581/119/481 585/120/482 478/82/44
f 478/82/44 585/120/482 589/121/483 482/84/44
f 482/84/44 589/121/483 593/122/484 486/86/44
f 486/86/44 593/122/484 597/123/485 490/88/44
f 490/88/44 597/123/485 601/114/475 494/70/44
f 605/65/486 652/124/413 495/13/457 541/125/466
f 497/8/455 496/9/454 560/126/487 556/8/488
f 604/69/489 498/69/414 497/8/455 556/8/488
f 600/87/490 499/87/419 498/69/414 604/69/489
f 596/85/491 500/85/419 499/87/419 600/87/490
f 592/83/492 501/83/414 500/85/419 596/85/491
f 588/81/493 502/81/414 501/83/414 592/83/492
f 584/79/494 503/79/414 502/81/414 588/81/493
f 580/77/495 504/77/414 503/79/414 584/79/494
f 576/75/496 505/75/414 504/77/414 580/77/495
f 572/73/497 506/73/419 505/75/414 576/75/496
f 568/71/498 507/71/419 506/73/419 572/73/497
f 552/63/499 508/63/419 507/71/419 568/71/498
f 509/3/456 508/63/419 552/63/499 548/3/467
f 495/2/457 509/3/456 548/3/467 541/2/466
f 532/92/42 612/127/500 608/112/473 528/66/42
f 609/89/501 683/89/413 682/128/413 653/129/413 605/65/486
f 536/96/42 616/130/502 612/127/500 532/92/42
f 613/93/503 731/93/413 730/131/413 684/132/413 683/89/413 609/89/501
f 540/100/42 561/133/504 616/130/502 536/96/42
f 564/97/505 714/134/413 732/135/413 731/93/413 613/93/503
f 446/10/42 557/111/506 561/133/504 540/100/42
f 496/9/454 715/102/413 564/97/505 560/126/487
f 543/136/507 544/113/474 608/112/473 607/137/508
f 541/125/466 542/138/465 606/139/509 605/65/486
f 542/138/510 543/136/507 607/137/508 606/139/511
f 547/108/468 548/3/467 552/63/499 551/140/512
f 545/106/469 546/105/513 550/141/514 549/109/470
f 546/105/513 547/108/515 551/140/516 550/141/514
f 551/140/512 552/63/499 568/71/498 567/142/517
f 549/109/470 550/141/514 566/143/518 565/115/477
f 550/141/514 551/140/516 567/142/519 566/143/518
f 555/144/520 556/8/488 560/126/487 559/145/521
f 553/110/471 554/146/522 558/147/523 557/111/472
f 554/146/522 555/144/524 559/145/524 558/147/523
f 559/145/521 560/126/487 564/97/505 563/148/525
f 557/111/506 558/147/526 562/149/527 561/133/504
f 558/147/526 559/145/528 563/148/529 562/149/527
f 567/142/517 568/71/498 572/73/497 571/150/530
f 565/115/477 566/143/518 570/151/531 569/116/478
f 566/143/518 567/142/519 571/150/532 570/151/531
f 571/150/530 572/73/497 576/75/496 575/152/533
f 569/116/478 570/151/531 574/153/534 573/117/479
f 570/151/531 571/150/532 575/152/535 574/153/534
f 575/152/533 576/75/496 580/77/495 579/154/536
f 573/117/479 574/153/534 578/155/537 577/118/480
f 574/153/534 575/152/535 579/154/538 578/155/539
f 579/154/536 580/77/495 584/79/494 583/156/540
f 577/118/480 578/155/537 582/157/541 581/119/481
f 578/155/539 579/154/538 583/156/542 582/157/543
f 583/156/540 584/79/494 588/81/493 587/158/544
f 581/119/481 582/157/541 586/159/545 585/120/482
f 582/157/543 583/156/542 587/158/546 586/159/545
f 587/158/544 588/81/493 592/83/492 591/160/547
f 585/120/482 586/159/545 590/161/548 589/121/483
f 586/159/545 587/158/546 591/160/549 590/161/548
f 591/160/547 592/83/492 596/85/491 595/162/550
f 589/121/483 590/161/548 594/163/551 593/122/484
f 590/161/548 591/160/549 595/162/552 594/163/551
f 595/162/550 596/85/491 600/87/490 599/164/553
f 593/122/484 594/163/551 598/165/554 597/123/485
f 594/163/551 595/162/552 599/164/555 598/165/554
f 599/164/553 600/87/490 604/69/489 603/166/556
f 597/123/485 598/165/554 602/167/557 601/114/475
f 598/165/554 599/164/555 603/166/558 602/167/557
f 556/8/488 555/144/520 603/166/556 604/69/489
f 555/144/559 554/146/560 602/167/557 603/166/558
f 554/146/560 553/110/476 601/114/475 602/167/557
f 607/137/508 608/112/473 612/127/500 611/168/561
f 605/65/486 606/139/509 610/169/562 609/89/501
f 606/139/511 607/137/508 611/168/561 610/169/563
f 611/168/561 612/127/500 616/130/502 615/170/564
f 609/89/501 610/169/562 614/171/565 613/93/503
f 610/169/563 611/168/561 615/170/564 614/171/566
f 561/133/504 562/149/527 615/170/564 616/130/502
f 562/149/527 563/148/529 614/171/566 615/170/564
f 563/148/525 564/97/505 613/93/503 614/171/565
f 532/92/567 692/92/568 691/172/569 739/173/569 738/96/570 536/96/567
f 528/66/571 659/66/572 658/174/573 693/175/567 692/92/568 532/92/567
f 617/14/574 660/176/575 659/66/572 528/66/571 443/14/576
f 618/4/577 617/1/577 443/1/577 444/4/577
f 619/64/399 618/4/399 444/4/399 453/64/399
f 458/72/399 620/72/399 619/64/399 453/64/399
f 462/74/399 621/74/399 620/72/399 458/72/399
f 466/76/399 622/76/399 621/74/399 462/74/399
f 470/78/399 623/78/399 622/76/399 466/76/399
f 474/80/399 624/80/399 623/78/399 470/78/399
f 478/82/399 625/82/399 624/80/399 474/80/399
f 482/84/399 626/84/399 625/82/399 478/82/399
f 486/86/399 627/86/399 626/84/399 482/84/399
f 490/88/399 628/88/399 627/86/399 486/86/399
f 494/70/399 629/70/399 628/88/399 490/88/399
f 630/7/399 629/70/399 494/70/399 445/7/399
f 631/10/401 630/7/401 445/7/401 446/10/401
f 540/100/578 723/100/579 722/177/580 631/10/581 446/10/582
f 536/96/567 738/96/570 737/178/583 724/179/584 723/100/579 540/100/578
f 632/14/409 675/67/408 674/66/585 661/66/586 660/176/575 617/14/574
f 633/4/394 632/1/394 617/1/577 618/4/577
f 634/64/399 633/4/399 618/4/399 619/64/399
f 620/72/399 635/72/399 634/64/399 619/64/399
f 621/74/399 636/74/399 635/72/399 620/72/399
f 622/76/399 637/76/399 636/74/399 621/74/399
f 623/78/399 638/78/399 637/76/399 622/76/399
f 624/80/399 639/80/399 638/78/399 623/78/399
f 625/82/399 640/82/399 639/80/399 624/80/399
f 626/84/399 641/84/399 640/82/399 625/82/399
f 627/86/399 642/86/399 641/84/399 626/84/399
f 628/88/399 643/88/399 642/86/399 627/86/399
f 629/70/399 644/70/399 643/88/399 628/88/399
f 645/7/399 644/70/399 629/70/399 630/7/399
f 646/10/401 645/7/401 630/7/401 631/10/401
f 674/66/587 669/65/588 651/65/589 661/66/590
f 658/174/591 653/129/592 682/128/593 693/175/594
f 690/92/595 685/89/596 698/180/597 709/92/598
f 706/181/599 701/91/600 666/90/601 677/182/602
f 737/178/603 732/135/604 714/134/605 724/179/606
f 721/100/607 716/97/608 745/97/609 756/100/610
f 753/183/611 748/99/612 761/98/613 772/184/614
f 769/96/615 764/93/616 729/93/617 740/96/618
f 669/65/413 668/68/413 510/13/413 495/13/457 652/124/413 651/65/413
f 677/182/619 676/66/407 527/66/406 531/92/620 707/92/619 706/181/621
f 691/172/569 690/92/622 709/92/622 708/185/623 770/186/623 769/96/622 740/96/622 739/173/569
f 708/185/623 707/92/619 531/92/620 535/96/620 771/96/619 770/186/623
f 722/177/580 721/100/624 756/100/625 755/187/626 646/10/627 631/10/581
f 754/100/628 753/183/619 772/184/629 771/96/619 535/96/620 539/100/630
f 755/187/626 754/100/628 539/100/630 441/10/631 646/10/627
f 764/93/413 763/95/413 699/94/413 698/180/413 685/89/413 684/132/413 730/131/413 729/93/413
f 651/65/589 650/188/632 654/189/633 661/66/590
f 650/188/632 649/190/634 655/191/635 654/189/633
f 649/190/634 648/192/636 656/193/637 655/191/635
f 648/192/636 647/194/638 657/195/639 656/193/637
f 647/194/638 653/129/592 658/174/591 657/195/639
f 666/90/601 665/196/640 670/197/641 677/182/602
f 665/196/640 664/198/642 671/199/643 670/197/641
f 664/198/642 663/200/644 672/201/645 671/199/643
f 663/200/644 662/202/646 673/203/647 672/201/645
f 662/202/646 669/65/588 674/66/587 673/203/647
f 682/128/593 681/204/648 686/205/649 693/175/594
f 681/204/648 680/206/650 687/207/651 686/205/649
f 680/206/650 679/208/652 688/209/653 687/207/651
f 679/208/652 678/210/654 689/211/655 688/209/653
f 678/210/654 685/89/596 690/92/595 689/211/655
f 698/180/597 697/212/656 702/213/657 709/92/598
f 697/212/656 696/214/658 703/215/659 702/213/657
f 696/214/658 695/216/660 704/217/661 703/215/659
f 695/216/660 694/218/662 705/219/663 704/217/661
f 694/218/662 701/91/600 706/181/599 705/219/663
f 714/134/605 713/220/664 717/221/665 724/179/606
f 713/220/664 712/222/666 718/223/667 717/221/665
f 712/222/666 711/224/668 719/225/669 718/223/667
f 711/224/668 710/226/670 720/227/671 719/225/669
f 710/226/670 716/97/608 721/100/607 720/227/671
f 729/93/617 728/228/672 733/229/673 740/96/618
f 728/228/672 727/230/674 734/231/675 733/229/673
f 727/230/674 726/232/676 735/233/677 734/231/675
f 726/232/676 725/234/678 736/235/679 735/233/677
f 725/234/678 732/135/604 737/178/603 736/235/679
f 745/97/609 744/236/680 749/237/681 756/100/610
f 744/236/680 743/238/682 750/239/683 749/237/681
f 743/238/682 742/240/684 751/241/685 750/239/683
f 742/240/684 741/242/686 752/243/687 751/241/685
f 741/242/686 748/99/612 753/183/611 752/243/687
f 761/98/613 760/244/688 765/245/689 772/184/614
f 760/244/688 759/246/690 766/247/691 765/245/689
f 759/246/690 758/248/692 767/249/693 766/247/691
f 758/248/692 757/250/694 768/251/695 767/249/693
f 757/250/694 764/93/616 769/96/615 768/251/695
f 653/129/413 647/194/413 773/252/413 605/65/486
f 605/65/486 773/252/413 774/253/413 652/124/413
f 652/124/413 774/253/413 650/188/413 651/65/413
f 647/194/413 648/192/413 775/254/413 773/252/413
f 773/252/413 775/254/413 776/255/413 774/253/413
f 774/253/413 776/255/413 649/190/413 650/188/413
f 649/190/413 776/255/413 775/254/413 648/192/413
f 661/66/586 654/189/696 777/256/697 660/176/575
f 660/176/575 777/256/697 778/257/698 659/66/572
f 659/66/572 778/257/698 657/195/699 658/174/573
f 654/189/696 655/191/700 779/258/701 777/256/697
f 777/256/697 779/258/701 780/259/702 778/257/698
f 778/257/698 780/259/702 656/193/703 657/195/699
f 656/193/703 780/259/702 779/258/701 655/191/700
f 669/65/413 662/202/413 781/260/459 668/68/413
f 668/68/413 781/260/459 782/261/413 667/65/413
f 667/65/413 782/261/413 665/196/413 666/90/413
f 662/202/413 663/200/413 783/262/413 781/260/459
f 781/260/459 783/262/413 784/263/413 782/261/413
f 782/261/413 784/263/413 664/198/413 665/196/413
f 664/198/413 784/263/413 783/262/413 663/200/413
f 677/182/619 670/197/704 785/264/705 676/66/407
f 676/66/407 785/264/705 786/265/706 675/67/408
f 675/67/408 786/265/706 673/203/707 674/66/585
f 670/197/704 671/199/708 787/266/709 785/264/705
f 785/264/705 787/266/709 788/267/710 786/265/706
f 786/265/706 788/267/710 672/201/711 673/203/707
f 672/201/711 788/267/710 787/266/709 671/199/708
f 685/89/413 678/210/413 789/268/413 684/132/413
f 684/132/413 789/268/413 790/269/459 683/89/413
f 683/89/413 790/269/459 681/204/459 682/128/413
f 678/210/413 679/208/413 791/270/413 789/268/413
f 789/268/413 791/270/413 792/271/459 790/269/459
f 790/269/459 792/271/459 680/206/413 681/204/459
f 680/206/413 792/271/459 791/270/413 679/208/413
f 693/175/567 686/205/712 793/272/713 692/92/568
f 692/92/568 793/272/713 794/273/569 691/172/569
f 691/172/569 794/273/569 689/211/714 690/92/622
f 686/205/712 687/207/715 795/274/716 793/272/713
f 793/272/713 795/274/716 796/275/717 794/273/569
f 794/273/569 796/275/717 688/209/718 689/211/714
f 688/209/718 796/275/717 795/274/716 687/207/715
f 701/91/459 694/218/459 797/276/459 700/89/459
f 700/89/459 797/276/459 798/277/719 699/94/413
f 699/94/413 798/277/719 697/212/719 698/180/413
f 694/218/459 695/216/413 799/278/413 797/276/459
f 797/276/459 799/278/413 800/279/413 798/277/719
f 798/277/719 800/279/413 696/214/459 697/212/719
f 696/214/459 800/279/413 799/278/413 695/216/413
f 709/92/622 702/213/720 801/280/721 708/185/623
f 708/185/623 801/280/721 802/281/722 707/92/619
f 707/92/619 802/281/722 705/219/723 706/181/621
f 702/213/720 703/215/724 803/282/725 801/280/721
f 801/280/721 803/282/725 804/283/726 802/281/722
f 802/281/722 804/283/726 704/217/727 705/219/723
f 704/217/727 804/283/726 803/282/725 703/215/724
f 716/97/413 710/226/413 805/284/413 715/102/413
f 715/102/413 805/284/413 806/285/413 564/97/505
f 564/97/505 806/285/413 713/220/413 714/134/413
f 710/226/413 711/224/413 807/286/413 805/284/413
f 805/284/413 807/286/413 808/287/413 806/285/413
f 806/285/413 808/287/413 712/222/413 713/220/413
f 712/222/413 808/287/413 807/286/413 711/224/413
f 724/179/584 717/221/728 809/288/729 723/100/579
f 723/100/579 809/288/729 810/289/730 722/177/580
f 722/177/580 810/289/730 720/227/731 721/100/624
f 717/221/728 718/223/732 811/290/733 809/288/729
f 809/288/729 811/290/733 812/291/734 810/289/730
f 810/289/730 812/291/734 719/225/735 720/227/731
f 719/225/735 812/291/734 811/290/733 718/223/732
f 732/135/413 725/234/719 813/292/413 731/93/413
f 731/93/413 813/292/413 814/293/413 730/131/413
f 730/131/413 814/293/413 728/228/719 729/93/413
f 725/234/719 726/232/413 815/294/459 813/292/413
f 813/292/413 815/294/459 816/295/413 814/293/413
f 814/293/413 816/295/413 727/230/413 728/228/719
f 727/230/413 816/295/413 815/294/459 726/232/413
f 740/96/622 733/229/622 817/296/569 739/173/569
f 739/173/569 817/296/569 818/297/736 738/96/570
f 738/96/570 818/297/736 736/235/737 737/178/583
f 733/229/622 734/231/738 819/298/739 817/296/569
f 817/296/569 819/298/739 820/299/740 818/297/736
f 818/297/736 820/299/740 735/233/741 736/235/737
f 735/233/741 820/299/740 819/298/739 734/231/738
f 748/99/413 741/242/413 821/300/413 747/97/413
f 747/97/413 821/300/413 822/301/459 746/101/413
f 746/101/413 822/301/459 744/236/413 745/97/413
f 741/242/413 742/240/413 823/302/413 821/300/413
f 821/300/413 823/302/413 824/303/413 822/301/459
f 822/301/459 824/303/413 743/238/413 744/236/413
f 743/238/413 824/303/413 823/302/413 742/240/413
f 756/100/625 749/237/742 825/304/743 755/187/626
f 755/187/626 825/304/743 826/305/744 754/100/628
f 754/100/628 826/305/744 752/243/745 753/183/619
f 749/237/742 750/239/746 827/306/747 825/304/743
f 825/304/743 827/306/747 828/307/748 826/305/744
f 826/305/744 828/307/748 751/241/749 752/243/745
f 751/241/749 828/307/748 827/306/747 750/239/746
f 764/93/413 757/250/413 829/308/413 763/95/413
f 763/95/413 829/308/413 830/309/413 762/93/413
f 762/93/413 830/309/413 760/244/459 761/98/413
f 757/250/413 758/248/413 831/310/459 829/308/413
f 829/308/413 831/310/459 832/311/459 830/309/413
f 830/309/413 832/311/459 759/246/413 760/244/459
f 759/246/413 832/311/459 831/310/459 758/248/413
f 772/184/629 765/245/750 833/312/751 771/96/619
f 771/96/619 833/312/751 834/313/752 770/186/623
f 770/186/623 834/313/752 768/251/622 769/96/622
f 765/245/750 766/247/753 835/314/754 833/312/751
f 833/312/751 835/314/754 836/315/755 834/313/752
f 834/313/752 836/315/755 767/249/756 768/251/622
f 767/249/756 836/315/755 835/314/754 766/247/753
f 837/1/44 838/2/44 840/3/44 839/4/44
f 839/4/43 840/3/43 842/8/43 841/7/43
f 841/7/42 842/8/42 844/9/42 843/10/42
f 843/10/101 844/9/101 838/13/101 837/14/101
f 846/316/757 845/317/757 847/318/757 848/319/757
f 843/19/758 837/1/758 839/4/758 841/20/758
f 838/2/759 844/21/759 845/21/759 846/2/759
f 844/21/760 842/22/760 847/22/760 845/21/760
f 842/22/761 840/3/761 848/3/761 847/22/761
f 840/3/762 838/2/762 846/2/762 848/3/762
f 854/320/763 852/321/763 858/322/764 864/323/764
f 862/324/765 860/325/766 866/326/767 872/327/767
f 870/328/768 868/329/768 874/330/769 880/331/769
f 878/332/770 876/333/771 850/334/772 856/335/772
f 850/334/772 849/4/773 853/3/773 856/335/772
f 849/4/774 852/321/763 854/320/763 853/3/774
f 858/336/764 857/337/775 861/338/775 864/339/764
f 857/337/776 860/340/766 862/341/765 861/338/776
f 866/326/767 865/10/777 869/9/777 872/327/767
f 865/10/778 868/329/768 870/328/768 869/9/778
f 874/330/769 873/14/779 877/13/779 880/331/769
f 873/1/780 876/333/771 878/332/770 877/2/780
f 851/4/781 852/321/782 849/4/783
f 851/4/781 849/4/783 850/334/784
f 855/3/785 856/335/786 853/3/787
f 855/3/785 853/3/787 854/320/788
f 859/7/789 860/325/790 857/7/791
f 859/7/789 857/7/791 858/322/782
f 863/342/792 864/339/788 861/338/793
f 863/342/792 861/338/793 862/341/794
f 867/10/795 868/329/796 865/10/797
f 867/10/795 865/10/797 866/326/790
f 871/9/798 872/327/794 869/9/799
f 871/9/798 869/9/799 870/328/800
f 875/1/801 876/333/784 873/1/802
f 875/14/801 873/14/802 874/330/796
f 879/13/803 880/331/800 877/13/804
f 879/2/803 877/2/804 878/332/786
f 855/3/785 854/320/788 864/323/788 863/8/792 889/8/805 886/3/806
f 863/8/792 862/324/794 872/327/794 871/9/798 892/9/807 889/8/805
f 871/9/798 870/328/800 880/331/800 879/13/803 883/13/808 892/9/807
f 879/2/803 878/332/786 856/335/786 855/3/785 886/3/806 883/2/808
f 881/343/809 882/2/810 885/3/810 884/344/811
f 882/2/812 883/2/808 886/3/806 885/3/813
f 884/344/814 885/3/815 888/8/815 887/345/814
f 885/3/813 886/3/806 889/8/805 888/8/816
f 887/345/817 888/8/818 891/9/818 890/346/817
f 888/8/816 889/8/805 892/9/807 891/9/819
f 883/13/808 882/13/812 891/9/819 892/9/807
f 882/13/820 881/347/821 890/346/821 891/9/820
f 851/4/781 850/334/784 876/333/784 875/1/801 893/1/822 896/4/823
f 859/7/789 858/322/782 852/321/782 851/4/781 896/4/823 899/7/824
f 867/10/795 866/326/790 860/325/790 859/7/789 899/7/824 902/10/825
f 875/14/801 874/330/796 868/329/796 867/10/795 902/10/825 893/14/822
f 895/348/826 881/343/809 884/344/811 898/349/826
f 898/349/827 884/344/814 887/345/814 901/350/827
f 901/350/828 887/345/817 890/346/817 904/351/828
f 904/351/829 890/346/821 881/347/821 895/352/829
f 893/1/822 894/1/830 897/4/831 896/4/823
f 894/1/832 895/348/826 898/349/826 897/4/832
f 896/4/823 897/4/831 900/7/833 899/7/824
f 897/4/834 898/349/827 901/350/827 900/7/834
f 899/7/824 900/7/833 903/10/835 902/10/825
f 900/7/836 901/350/828 904/351/828 903/10/836
f 895/352/829 894/14/837 903/10/837 904/351/829
f 894/14/830 893/14/822 902/10/825 903/10/835
