
v -0.012384 0.140570 0.050728
v -0.068301 0.138231 0.032441
v -0.056279 0.138231 0.029943
v -0.068301 0.160232 0.032441
v -0.056279 0.160232 0.029943
v -0.069564 0.160232 0.026967
v -0.057543 0.160232 0.023864
v -0.069564 0.138231 0.026363
v -0.057543 0.138231 0.023864
v -0.067578 0.139395 0.032730
v -0.056828 0.139395 0.030496
v -0.056828 0.159068 0.030496
v -0.067578 0.159068 0.032730
vn 0.2035 -0.0000 0.9791
vn -0.2268 0.0134 -0.9738
vn 0.9791 -0.0000 -0.2035
vn -0.9769 -0.0029 0.2136
vn 0.7098 -0.0000 0.7044
vn 0.1909 0.3463 0.9185
vn -0.3704 -0.0000 0.9289
vt 1.155474 0.196069
vt 1.166980 0.196061
vt 1.166980 0.210766
vt 1.155474 0.210774
vt 1.187644 0.211634
vt 1.174600 0.211624
vt 1.174632 0.195179
vt 1.187706 0.195189
vt 1.167530 0.195191
vt 1.167530 0.211636
vt 1.148338 0.195233
vt 1.154925 0.195199
vt 1.154925 0.211644
vt 1.148338 0.211678
s 1
usemtl Clock_Texture.003
f 10/1/1 11/2/1 12/3/1 13/4/1
f 6/5/2 7/6/2 9/7/2 8/8/2
f 3/9/3 9/7/3 7/6/3 5/10/3
f 8/11/4 2/12/4 4/13/4 6/14/4
f 3/9/5 5/10/5 12/3/5 11/2/5
f 5/10/6 4/13/6 13/4/6 12/3/6
f 4/13/7 2/12/7 10/1/7 13/4/7
