v -1.000000 0.137501 -0.321909
v 1.000000 0.137501 -0.321909
v -1.000000 1.328681 -0.321909
v 1.000000 1.328681 -0.321909
v -0.986520 1.313125 -0.321909
v -0.986520 0.173669 -0.321909
v 0.986520 0.173669 -0.321909
v 0.986520 1.313125 -0.321909
v -0.986520 1.313125 -0.308006
v -0.986520 0.173669 -0.308006
v 0.986520 0.173669 -0.308006
v 0.986520 1.313125 -0.308006
v -1.000000 1.328681 -0.308006
v -1.000000 0.137501 -0.308006
v 1.000000 0.137501 -0.308006
v 1.000000 1.328681 -0.308006
v -0.986520 1.313125 -0.300807
v -0.986520 0.173669 -0.300807
v 0.986520 0.173669 -0.300807
v 0.986520 1.313125 -0.300807
v -1.000000 1.328681 -0.300807
v -1.000000 0.137501 -0.300807
v 1.000000 0.137501 -0.300807
v 1.000000 1.328681 -0.300807
v -0.401692 0.276162 -0.421267
v -0.986520 0.156304 -0.330468
v 0.986520 0.156304 -0.330468
v -0.425589 1.082237 -0.421267
v -0.428913 0.229684 -0.421268
v 0.449107 0.230898 -0.421268
v 0.439828 1.087767 -0.421267
v -0.341097 0.333873 -0.489974
v -0.313721 1.041308 -0.421267
v -0.401692 0.973371 -0.421267
v -0.327482 1.040472 -0.421267
v -0.340905 1.037983 -0.421267
v -0.353659 1.033903 -0.421267
v -0.365429 1.028333 -0.421267
v -0.375926 1.021410 -0.421267
v -0.384891 1.013303 -0.421267
v -0.392104 1.004214 -0.421267
v -0.397387 0.994365 -0.421267
v -0.400609 0.983999 -0.421267
v 0.313721 1.041308 -0.421267
v 0.400609 0.983999 -0.421267
v 0.397387 0.994365 -0.421267
v 0.392104 1.004214 -0.421267
v 0.384891 1.013303 -0.421267
v 0.375926 1.021410 -0.421267
v 0.365429 1.028333 -0.421267
v 0.353659 1.033903 -0.421267
v 0.340905 1.037983 -0.421267
v 0.327482 1.040472 -0.421267
v -0.341097 0.915660 -0.489974
v -0.253125 0.983597 -0.489974
v -0.340014 0.926287 -0.489974
v -0.336791 0.936653 -0.489974
v -0.331509 0.946503 -0.489974
v -0.324296 0.955592 -0.489974
v -0.315331 0.963699 -0.489974
v -0.304834 0.970622 -0.489974
v -0.293064 0.976192 -0.489974
v -0.280310 0.980272 -0.489974
v -0.266887 0.982760 -0.489974
v 0.253125 0.983597 -0.489974
v 0.266887 0.982760 -0.489974
v 0.280310 0.980272 -0.489974
v 0.293064 0.976192 -0.489974
v 0.304834 0.970622 -0.489974
v 0.315331 0.963699 -0.489974
v 0.324296 0.955592 -0.489974
v 0.331509 0.946503 -0.489974
v 0.336791 0.936653 -0.489974
v 0.340014 0.926287 -0.489974
v 0.341097 0.333873 -0.489974
v 0.401692 0.276162 -0.421267
v 0.401692 0.973371 -0.421267
v 0.341097 0.915660 -0.489974
v -0.401692 0.265536 -0.421268
v -0.374261 0.244353 -0.421271
v -0.400350 0.258990 -0.421269
v -0.396453 0.253085 -0.421270
v -0.390385 0.248398 -0.421271
v -0.382738 0.245390 -0.421271
v 0.374261 0.244353 -0.421271
v 0.401692 0.265536 -0.421268
v 0.382738 0.245390 -0.421271
v 0.390385 0.248398 -0.421271
v 0.396453 0.253085 -0.421270
v 0.400350 0.258990 -0.421269
v -0.313666 0.302064 -0.489978
v -0.341097 0.323247 -0.489975
v -0.322142 0.303101 -0.489978
v -0.329789 0.306110 -0.489978
v -0.335858 0.310796 -0.489977
v -0.339754 0.316701 -0.489976
v 0.341097 0.323247 -0.489975
v 0.313666 0.302064 -0.489978
v 0.339754 0.316701 -0.489976
v 0.335858 0.310796 -0.489977
v 0.329789 0.306110 -0.489978
v 0.322142 0.303101 -0.489978
v 0.387725 0.334980 -0.437104
v 0.397531 0.343722 -0.425985
v 0.398156 0.326079 -0.425277
v 0.390755 0.335385 -0.433668
v 0.393489 0.336615 -0.430568
v 0.395659 0.338549 -0.428108
v 0.397051 0.340998 -0.426529
v 0.345258 0.344283 -0.485256
v 0.355163 0.335274 -0.474024
v 0.341128 0.333884 -0.489939
v 0.345743 0.341522 -0.484706
v 0.347150 0.339023 -0.483111
v 0.349341 0.337030 -0.480626
v 0.352102 0.335738 -0.477495
v 0.397531 0.905296 -0.425985
v 0.387675 0.914171 -0.437160
v 0.398154 0.923028 -0.425279
v 0.397049 0.908039 -0.426532
v 0.395649 0.910513 -0.428119
v 0.393469 0.912476 -0.430592
v 0.390721 0.913736 -0.433707
v 0.355114 0.914169 -0.474080
v 0.345258 0.905294 -0.485256
v 0.341128 0.915649 -0.489939
v 0.352069 0.913735 -0.477534
v 0.349321 0.912474 -0.480649
v 0.347140 0.910511 -0.483122
v 0.345740 0.908037 -0.484709
v 0.280738 0.345722 -0.477323
v 0.281790 0.345307 -0.434576
v 0.281789 0.903784 -0.434618
v 0.280737 0.903782 -0.477365
v 0.281970 0.900988 -0.427247
v 0.281957 0.903689 -0.427777
v 0.281919 0.906125 -0.429317
v 0.281860 0.908058 -0.431715
v 0.281786 0.909299 -0.434737
v 0.281704 0.909726 -0.438086
v 0.280568 0.903686 -0.484207
v 0.280555 0.900986 -0.484737
v 0.280606 0.906123 -0.482667
v 0.280665 0.908056 -0.480269
v 0.280739 0.909297 -0.477247
v 0.280822 0.909725 -0.473897
v 0.281705 0.339427 -0.438032
v 0.281787 0.339825 -0.434699
v 0.281861 0.341036 -0.431693
v 0.281920 0.342940 -0.429306
v 0.281957 0.345352 -0.427775
v 0.281970 0.348034 -0.427247
v 0.280555 0.348587 -0.484737
v 0.280568 0.345868 -0.484204
v 0.280606 0.343408 -0.482657
v 0.280666 0.341445 -0.480247
v 0.280740 0.340173 -0.477210
v 0.280823 0.339716 -0.473843
v -0.763719 1.154429 -0.421267
v -0.770183 1.156253 -0.420904
v -0.777648 1.159136 -0.419851
v -0.785384 1.162795 -0.418211
v -0.792635 1.166872 -0.416144
v -0.798689 0.220221 -0.413854
v -0.763719 0.226099 -0.421267
v -0.763719 0.220554 -0.413288
v -0.792635 0.221986 -0.416144
v -0.785384 0.223598 -0.418211
v -0.777648 0.224898 -0.419851
v -0.770183 0.225760 -0.420904
v 0.763719 0.226177 -0.421267
v 0.798690 0.220221 -0.413853
v 0.763719 0.219353 -0.414171
v 0.770183 0.225814 -0.420904
v 0.777648 0.224931 -0.419851
v 0.785385 0.223613 -0.418211
v 0.792635 0.221990 -0.416144
v 0.763719 1.154562 -0.421267
v 0.792635 1.166879 -0.416144
v 0.785385 1.162820 -0.418211
v 0.777648 1.159191 -0.419851
v 0.770183 1.156345 -0.420904
v -1.000000 0.137501 -0.321869
v 1.000000 0.137501 -0.321869
v -1.000000 1.328681 -0.321869
v 1.000000 1.328681 -0.321869
v 0.986520 1.313125 -0.330468
v -0.986520 1.313125 -0.330468
v -0.798689 1.170969 -0.413853
v -0.763719 1.158330 -0.421267
v 0.763719 1.158330 -0.421267
v 0.798690 1.170969 -0.413853
v -0.726988 1.264748 -0.358845
v -0.739570 1.260179 -0.361525
v -0.746898 1.266170 -0.358011
v -0.731825 1.264400 -0.359049
v -0.735915 1.263410 -0.359630
v -0.738634 1.261928 -0.360500
v 0.739712 1.260179 -0.361525
v 0.727146 1.264748 -0.358845
v 0.747049 1.266170 -0.358011
v 0.738781 1.261928 -0.360500
v 0.736067 1.263410 -0.359630
v 0.731981 1.264400 -0.359049
v -0.738854 1.215572 -0.387691
v -0.714995 1.206802 -0.392835
v -0.748020 1.201241 -0.396096
v -0.736995 1.212216 -0.389659
v -0.731808 1.209371 -0.391328
v -0.724082 1.207470 -0.392443
v 0.715218 1.206802 -0.392835
v 0.738878 1.215585 -0.387683
v 0.748011 1.201247 -0.396093
v 0.742493 1.199476 -0.397132
v 0.724222 1.207471 -0.392442
v 0.731880 1.209375 -0.391326
v 0.737026 1.212224 -0.389654
v 0.697706 1.247587 -0.345921
v -0.697408 1.247823 -0.345703
v -0.696840 1.225524 -0.366023
v 0.695920 1.223680 -0.367728
v 0.704136 1.248060 -0.345490
v 0.703219 1.249645 -0.344044
v 0.700515 1.250989 -0.342818
v 0.696437 1.251887 -0.341999
v 0.691605 1.252203 -0.341711
v -0.703062 1.249643 -0.344044
v -0.703975 1.248056 -0.345490
v -0.700362 1.250988 -0.342818
v -0.696285 1.251887 -0.341999
v -0.691452 1.252203 -0.341711
v -0.688350 1.217275 -0.373541
v -0.679252 1.216640 -0.374119
v -0.696103 1.219084 -0.371892
v -0.701332 1.221791 -0.369425
v -0.703239 1.224984 -0.366515
v 0.701587 1.221899 -0.369352
v 0.703468 1.225104 -0.366428
v 0.696416 1.219182 -0.371830
v 0.688741 1.217366 -0.373486
v 0.679733 1.216727 -0.374068
v -0.997648 0.140782 -0.330468
v -1.000000 0.137501 -0.326226
v -0.998375 0.139768 -0.330261
v -0.999030 0.138854 -0.329658
v -0.999551 0.138128 -0.328720
v -0.999885 0.137662 -0.327537
v 0.997648 0.140782 -0.330468
v 1.000000 0.137501 -0.326226
v 0.998375 0.139768 -0.330261
v 0.999030 0.138854 -0.329658
v 0.999551 0.138128 -0.328720
v 0.999885 0.137662 -0.327537
v -1.000000 1.328681 -0.326226
v -0.997605 1.325917 -0.330468
v -0.999883 1.328546 -0.327537
v -0.999543 1.328153 -0.328720
v -0.999013 1.327542 -0.329658
v -0.998345 1.326771 -0.330261
v 0.997605 1.325917 -0.330468
v 1.000000 1.328681 -0.326226
v 0.998345 1.326771 -0.330261
v 0.999013 1.327542 -0.329658
v 0.999543 1.328153 -0.328720
v 0.999883 1.328546 -0.327537
vn -0.0000 -0.0000 -1.0000
vn -0.0000 -0.0000 1.0000
vn -1.0000 -0.0000 -0.0000
vn 1.0000 -0.0000 -0.0000
vn -0.0000 1.0000 -0.0000
vn -0.0000 -1.0000 -0.0000
vn -0.0004 -0.6236 -0.7817
vn -0.4058 -0.0000 -0.9140
vn -0.0000 -0.7944 -0.6075
vn 0.4058 -0.0000 -0.9140
vn -0.0000 0.5060 -0.8626
vn -0.0000 0.7657 -0.6432
vn 0.9997 -0.0000 -0.0246
vn 0.7500 0.0001 -0.6614
vn -0.7500 0.0001 -0.6614
vn -0.0000 -0.7657 -0.6432
vn -0.0000 0.0001 -1.0000
vn 0.7168 0.0730 -0.6935
vn 0.6451 0.2005 -0.7373
vn 0.5714 0.3065 -0.7613
vn 0.4983 0.3954 -0.7716
vn 0.4263 0.4715 -0.7720
vn 0.3548 0.5379 -0.7647
vn 0.2826 0.5971 -0.7508
vn 0.2082 0.6508 -0.7302
vn 0.1298 0.6999 -0.7023
vn 0.0453 0.7449 -0.6656
vn -0.7168 0.0730 -0.6935
vn -0.6451 0.2005 -0.7373
vn -0.5714 0.3065 -0.7613
vn -0.4983 0.3954 -0.7716
vn -0.4263 0.4715 -0.7720
vn -0.3548 0.5379 -0.7647
vn -0.2826 0.5971 -0.7507
vn -0.2082 0.6508 -0.7302
vn -0.1298 0.6999 -0.7023
vn -0.0453 0.7449 -0.6656
vn -0.7500 -0.0000 -0.6614
vn 0.0109 -0.0000 -0.9999
vn 0.0493 -0.9985 -0.0226
vn 0.7500 -0.0000 -0.6614
vn 0.0080 -0.0000 1.0000
vn -0.6815 -0.1397 -0.7184
vn -0.5347 -0.3527 -0.7679
vn -0.3906 -0.5057 -0.7692
vn -0.2458 -0.6245 -0.7413
vn -0.0884 -0.7229 -0.6852
vn 0.6815 -0.1397 -0.7184
vn 0.5347 -0.3527 -0.7679
vn 0.3906 -0.5057 -0.7692
vn 0.2458 -0.6245 -0.7413
vn 0.0884 -0.7229 -0.6852
vn -0.0000 -0.0001 1.0000
vn 0.0001 -0.0000 1.0000
vn -0.0001 -0.0001 1.0000
vn 0.0002 -0.0001 1.0000
vn 0.0001 -0.0001 1.0000
vn -0.0000 0.0002 1.0000
vn -0.0000 0.0001 1.0000
vn 0.7500 -0.0000 -0.6615
vn 0.0179 -0.1926 -0.9811
vn 0.0293 -0.5308 -0.8470
vn 0.0367 -0.7720 -0.6345
vn 0.0407 -0.9186 -0.3931
vn 0.0422 -0.9886 -0.1446
vn 0.0208 -0.1960 0.9804
vn 0.0423 -0.5455 0.8371
vn 0.0553 -0.7919 0.6081
vn 0.0607 -0.9337 0.3527
vn 0.0609 -0.9933 0.0979
vn 0.0422 0.9897 -0.1369
vn 0.0408 0.9212 -0.3869
vn 0.0368 0.7751 -0.6308
vn 0.0294 0.5327 -0.8458
vn 0.0179 0.1929 -0.9811
vn 0.0207 0.1957 0.9805
vn 0.0421 0.5435 0.8384
vn 0.0551 0.7888 0.6121
vn 0.0606 0.9313 0.3593
vn 0.0608 0.9925 0.1058
vn 0.0493 0.9987 -0.0146
vn -0.0560 -0.0000 -0.9984
vn -0.0936 0.1187 -0.9885
vn -0.0831 0.2560 -0.9631
vn -0.0535 0.3741 -0.9258
vn -0.0188 0.4668 -0.8842
vn 0.0172 -0.8134 -0.5815
vn 0.0167 -0.8159 -0.5779
vn 0.0157 -0.8182 -0.5748
vn 0.0139 -0.8199 -0.5723
vn 0.0110 -0.8212 -0.5706
vn -0.0016 -0.7208 -0.6931
vn 0.0109 -0.7267 -0.6869
vn 0.0183 -0.7355 -0.6773
vn 0.0226 -0.7462 -0.6654
vn 0.0247 -0.7585 -0.6512
vn 0.0182 0.4680 -0.8835
vn 0.0521 0.3776 -0.9245
vn 0.0817 0.2606 -0.9620
vn 0.0929 0.1219 -0.9882
vn 0.0560 -0.0000 -0.9984
vn -0.1397 -0.0000 -0.9902
vn -0.2074 -0.0000 -0.9783
vn -0.2741 -0.0000 -0.9617
vn -0.3539 -0.0000 -0.9353
vn 0.0561 -0.0000 -0.9984
vn 0.1397 -0.0000 -0.9902
vn 0.2074 -0.0000 -0.9783
vn 0.2741 -0.0000 -0.9617
vn 0.3539 -0.0000 -0.9353
vn 0.4091 0.5278 -0.7444
vn -0.0000 0.8846 -0.4664
vn -0.0000 0.6737 -0.7390
vn -0.4101 0.5277 -0.7439
vn -0.0000 0.5059 -0.8626
vn -0.0000 0.5060 -0.8625
vn -0.4838 0.3322 -0.8097
vn -0.3978 -0.0852 -0.9135
vn -0.2509 -0.4491 -0.8575
vn -0.0843 -0.7119 -0.6972
vn 0.4836 0.3322 -0.8098
vn 0.3977 -0.0853 -0.9136
vn 0.2509 -0.4491 -0.8575
vn 0.0843 -0.7120 -0.6972
vn 0.0341 0.8579 -0.5127
vn 0.0903 0.8093 -0.5804
vn 0.1499 0.7559 -0.6373
vn 0.2354 0.6640 -0.7097
vn -0.2365 0.6636 -0.7097
vn -0.1507 0.7550 -0.6381
vn -0.0909 0.8082 -0.5818
vn -0.0343 0.8567 -0.5147
vn -0.0000 -0.8069 -0.5907
vn -0.0000 0.6739 -0.7388
vn -0.0001 0.6736 -0.7391
vn -0.0000 0.6736 -0.7391
vn 0.0001 0.6739 -0.7388
vn -0.0000 0.6738 -0.7389
vn -0.0000 0.6738 -0.7390
vn -0.2723 -0.0000 -0.9622
vn -0.6733 -0.0000 -0.7393
vn -0.8727 -0.0000 -0.4883
vn -0.9617 -0.0000 -0.2742
vn -0.9961 -0.0000 -0.0883
vn -0.0000 -0.2006 -0.9797
vn -0.0000 -0.5502 -0.8351
vn -0.0000 -0.7910 -0.6118
vn -0.0000 -0.9304 -0.3666
vn -0.0000 -0.9926 -0.1216
vn 0.2723 -0.0000 -0.9622
vn 0.6733 -0.0000 -0.7393
vn 0.8727 -0.0000 -0.4883
vn 0.9617 -0.0000 -0.2742
vn 0.9961 -0.0000 -0.0883
vn -0.0000 0.2362 -0.9717
vn -0.0000 0.6160 -0.7877
vn -0.0000 0.8379 -0.5459
vn -0.0000 0.9491 -0.3151
vn -0.0000 0.9947 -0.1026
vt 0.695640 0.489405
vt 0.366453 0.489456
vt 0.366453 0.010606
vt 0.695641 0.010555
vt 0.706089 0.492675
vt 0.361959 0.492729
vt 0.706089 0.007282
vt 0.361959 0.007335
vt 0.000088 0.000088
vt 1.001281 0.000088
vt 1.001281 0.999912
vt 0.000088 0.999912
vt 0.740357 0.507291
vt 0.740357 0.992684
vt 0.739120 0.992684
vt 0.739120 0.507291
vt 0.732851 0.507291
vt 0.732851 0.992684
vt 0.731605 0.992684
vt 0.731605 0.507291
vt 0.746266 0.007184
vt 0.746266 0.485839
vt 0.745023 0.485835
vt 0.745023 0.007180
vt 0.746234 0.985848
vt 0.746234 0.507195
vt 0.747475 0.507190
vt 0.747475 0.985843
vt 0.742748 0.507291
vt 0.742748 0.992684
vt 0.739010 0.507300
vt 0.739010 0.992495
vt 0.736610 0.992487
vt 0.736610 0.507292
vt 0.739969 0.007278
vt 0.739969 0.492471
vt 0.737572 0.492481
vt 0.737572 0.007288
vt 0.735258 0.507291
vt 0.735258 0.992684
vt 0.015714 0.489488
vt 0.347077 0.489387
vt 0.351601 0.492657
vt 0.005196 0.492763
vt 0.015714 0.010656
vt 0.005196 0.007388
vt 0.347077 0.010555
vt 0.351601 0.007282
vt 0.749981 0.506975
vt 0.749981 0.971292
vt 0.748744 0.971292
vt 0.748744 0.506975
vt 0.748785 0.006965
vt 0.748785 0.471281
vt 0.747539 0.471281
vt 0.747539 0.006965
vt 0.735367 0.992483
vt 0.735367 0.507288
vt 0.736331 0.492485
vt 0.736331 0.007293
vt 0.459588 0.661838
vt 0.435495 0.607963
vt 0.438143 0.378446
vt 0.457164 0.334205
vt 0.013627 0.015949
vt 0.037546 0.983562
vt 0.025472 0.999910
vt 0.000090 0.000090
vt 0.665159 0.958245
vt 0.677778 0.973043
vt 0.665447 0.017406
vt 0.677778 0.001106
vt 0.489859 0.196695
vt 0.492578 0.195835
vt 0.491468 0.790561
vt 0.488970 0.789855
vt 0.154728 0.664606
vt 0.157100 0.792404
vt 0.147231 0.350333
vt 0.151497 0.793204
vt 0.138416 0.208104
vt 0.143701 0.208570
vt 0.502657 0.168595
vt 0.135475 0.177060
vt 0.093252 0.089343
vt 0.591939 0.093500
vt 0.150223 0.822842
vt 0.113124 0.908797
vt 0.502091 0.816777
vt 0.591959 0.887090
vt 0.523501 0.199856
vt 0.526525 0.216296
vt 0.525270 0.767042
vt 0.520828 0.781343
vt 0.399077 0.568290
vt 0.405627 0.409893
vt 0.199634 0.384469
vt 0.376507 0.372717
vt 0.363079 0.606232
vt 0.212590 0.604319
vt 0.343671 0.615744
vt 0.342709 0.623372
vt 0.232861 0.623138
vt 0.232192 0.615420
vt 0.178111 0.648023
vt 0.172927 0.647185
vt 0.207613 0.604259
vt 0.395881 0.649417
vt 0.403895 0.344524
vt 0.168966 0.357637
vt 0.195208 0.385576
vt 0.164495 0.358441
vt 0.160669 0.634772
vt 0.154399 0.369873
vt 0.185129 0.398247
vt 0.194612 0.591207
vt 0.437541 0.373061
vt 0.436133 0.367882
vt 0.433953 0.362963
vt 0.431063 0.358405
vt 0.427530 0.354329
vt 0.423452 0.350852
vt 0.418935 0.348072
vt 0.414097 0.346061
vt 0.409049 0.344870
vt 0.401763 0.648533
vt 0.407593 0.646708
vt 0.413214 0.643972
vt 0.418473 0.640392
vt 0.423222 0.636068
vt 0.427331 0.631129
vt 0.430687 0.625723
vt 0.433199 0.619991
vt 0.434813 0.614047
vt 0.368299 0.606115
vt 0.373363 0.605193
vt 0.378171 0.603448
vt 0.382622 0.600895
vt 0.386617 0.597580
vt 0.390069 0.593574
vt 0.393122 0.588774
vt 0.395843 0.583016
vt 0.398022 0.576145
vt 0.380984 0.373594
vt 0.385307 0.375062
vt 0.389399 0.377155
vt 0.393169 0.379880
vt 0.396526 0.383211
vt 0.399382 0.387105
vt 0.401821 0.391646
vt 0.403860 0.396942
vt 0.405287 0.403108
vt 0.360377 0.646475
vt 0.214435 0.645225
vt 0.233545 0.625575
vt 0.341958 0.625772
vt 0.362608 0.615135
vt 0.363482 0.640907
vt 0.344469 0.622418
vt 0.344973 0.617148
vt 0.212654 0.604539
vt 0.212827 0.613376
vt 0.211423 0.639632
vt 0.205902 0.645551
vt 0.368809 0.646849
vt 0.363012 0.606445
vt 0.218900 0.607237
vt 0.356890 0.608896
vt 0.343360 0.613266
vt 0.232594 0.612948
vt 0.192377 0.386595
vt 0.161213 0.359350
vt 0.189701 0.388384
vt 0.158421 0.361113
vt 0.187358 0.390955
vt 0.156242 0.363585
vt 0.185635 0.394340
vt 0.154861 0.366587
vt 0.169125 0.646339
vt 0.204371 0.603734
vt 0.165791 0.644505
vt 0.201202 0.602265
vt 0.163121 0.641805
vt 0.198251 0.599770
vt 0.161363 0.638455
vt 0.195795 0.596094
vt 0.943780 0.023652
vt 0.677959 0.023652
vt 0.677959 0.015781
vt 0.678403 0.010932
vt 0.679692 0.006558
vt 0.681700 0.003087
vt 0.684231 0.000858
vt 0.687035 0.000090
vt 0.934703 0.000090
vt 0.937508 0.000858
vt 0.940038 0.003087
vt 0.942046 0.006558
vt 0.943335 0.010933
vt 0.943780 0.015781
vt 0.154819 0.366563
vt 0.156207 0.363542
vt 0.172917 0.647286
vt 0.169107 0.646423
vt 0.164485 0.358357
vt 0.158394 0.361055
vt 0.161196 0.359280
vt 0.160621 0.634781
vt 0.154353 0.369868
vt 0.163079 0.641857
vt 0.161316 0.638483
vt 0.165760 0.644576
vt 0.211368 0.641301
vt 0.211584 0.642828
vt 0.212148 0.644090
vt 0.213100 0.644927
vt 0.217215 0.607917
vt 0.215585 0.609152
vt 0.214131 0.610538
vt 0.213192 0.611961
vt 0.361691 0.646190
vt 0.362652 0.645369
vt 0.363244 0.644117
vt 0.363498 0.642586
vt 0.362294 0.613743
vt 0.361422 0.612316
vt 0.360043 0.610902
vt 0.358492 0.609628
vt 0.342877 0.625183
vt 0.343518 0.624534
vt 0.343969 0.623899
vt 0.344282 0.623219
vt 0.344160 0.614186
vt 0.344609 0.615002
vt 0.344867 0.615723
vt 0.344988 0.616417
vt 0.231136 0.622105
vt 0.231297 0.622913
vt 0.231585 0.623605
vt 0.232014 0.624260
vt 0.232635 0.624939
vt 0.231763 0.613816
vt 0.231279 0.614611
vt 0.230989 0.615326
vt 0.230838 0.616023
vt 0.230822 0.616768
vt 0.490549 0.192027
vt 0.492546 0.186238
vt 0.495419 0.180116
vt 0.498858 0.174108
vt 0.138694 0.183721
vt 0.141309 0.190647
vt 0.143120 0.197486
vt 0.143887 0.203719
vt 0.157379 0.797050
vt 0.156837 0.803019
vt 0.155334 0.809621
vt 0.153067 0.816347
vt 0.498203 0.811511
vt 0.494682 0.805767
vt 0.491735 0.799901
vt 0.489676 0.794333
vt 0.603586 0.084234
vt 0.603614 0.895798
vt 0.100912 0.917783
vt 0.080478 0.080606
vt 0.532636 0.205138
vt 0.562175 0.206156
vt 0.554683 0.225343
vt 0.540270 0.223276
vt 0.534139 0.233877
vt 0.533079 0.748502
vt 0.553615 0.754119
vt 0.538455 0.756051
vt 0.540430 0.226214
vt 0.554175 0.228508
vt 0.565742 0.779881
vt 0.564933 0.769795
vt 0.565341 0.212758
vt 0.566075 0.202658
vt 0.522348 0.784272
vt 0.531796 0.778319
vt 0.561803 0.776450
vt 0.539627 0.759446
vt 0.554269 0.757229
vt 0.565042 0.210231
vt 0.564330 0.208121
vt 0.563329 0.206690
vt 0.562957 0.775900
vt 0.563952 0.774455
vt 0.564651 0.772332
vt 0.530447 0.205876
vt 0.525949 0.771500
vt 0.555317 0.756609
vt 0.556152 0.755253
vt 0.556741 0.753320
vt 0.557064 0.750921
vt 0.555721 0.225958
vt 0.556550 0.227306
vt 0.557137 0.229232
vt 0.557461 0.231626
vt 0.527137 0.211913
vt 0.534789 0.229669
vt 0.528515 0.208252
vt 0.536178 0.226182
vt 0.538104 0.223934
vt 0.529494 0.777638
vt 0.537386 0.758838
vt 0.527431 0.775228
vt 0.535335 0.756569
vt 0.533821 0.752942
vt 0.067297 0.071214
vt 0.615791 0.074011
vt 0.053996 0.059866
vt 0.628071 0.062091
vt 0.040786 0.046437
vt 0.640368 0.048439
vt 0.027384 0.031474
vt 0.652947 0.033438
vt 0.088064 0.927596
vt 0.075226 0.939276
vt 0.062610 0.952944
vt 0.049901 0.968097
vt 0.615607 0.905231
vt 0.627691 0.916301
vt 0.639811 0.929033
vt 0.652242 0.943059
s 0
f 6/1/1 5/2/1 8/3/1 7/4/1
f 6/1/1 1/5/1 3/6/1 5/2/1
f 7/4/1 2/7/1 1/5/1 6/1/1
f 8/3/1 4/8/1 2/7/1 7/4/1
f 5/2/1 3/6/1 4/8/1 8/3/1
f 10/9/2 11/10/2 12/11/2 9/12/2
f 13/13/3 14/14/3 22/15/3 21/16/3
f 15/17/4 16/18/4 24/19/4 23/20/4
f 11/21/5 10/22/5 18/23/5 19/24/5
f 9/25/6 12/26/6 20/27/6 17/28/6
f 3/29/3 1/30/3 14/14/3 13/13/3
f 4/31/5 3/32/5 13/33/5 16/34/5
f 1/35/6 2/36/6 15/37/6 14/38/6
f 2/39/4 4/40/4 16/18/4 15/17/4
f 18/41/2 17/42/2 21/43/2 22/44/2
f 19/45/2 18/41/2 22/44/2 23/46/2
f 20/47/2 19/45/2 23/46/2 24/48/2
f 17/42/2 20/47/2 24/48/2 21/43/2
f 12/49/3 11/50/3 19/51/3 20/52/3
f 10/53/4 9/54/4 17/55/4 18/56/4
f 16/34/5 13/33/5 21/57/5 24/58/5
f 14/38/6 15/37/6 23/59/6 22/60/6
f 31/61/1 44/62/1 33/63/1 28/64/1
f 243/65/6 249/66/6 184/67/6 183/68/6
f 249/66/4 261/69/4 186/70/4 184/67/4
f 261/69/5 254/71/5 185/72/5 186/70/5
f 31/61/1 28/64/1 159/73/1 190/74/1 191/75/1 178/76/1
f 30/77/1 31/61/1 178/76/1 171/78/1
f 29/79/7 30/77/7 171/78/7 173/80/7 166/81/7 165/82/7
f 189/83/8 164/84/8 26/85/8 188/86/8
f 164/84/9 166/81/9 173/80/9 172/87/9 27/88/9 26/85/9
f 172/87/10 192/89/10 187/90/10 27/88/10
f 207/91/11 206/92/11 211/93/11 214/94/11 191/75/11 190/74/11
f 33/63/12 44/62/12 65/95/12 55/96/12
f 32/97/1 54/98/1 78/99/1 75/100/1
f 134/101/13 133/102/13 132/103/13 131/104/13
f 75/100/14 76/105/14 86/106/14 97/107/14
f 76/105/1 77/108/1 31/61/1 30/77/1
f 28/64/1 34/109/1 25/110/1 29/79/1
f 25/110/15 32/97/15 92/111/15 79/112/15
f 85/113/16 80/114/16 91/115/16 98/116/16
f 32/97/17 75/100/17 97/107/17 92/111/17
f 33/63/1 35/117/1 28/64/1
f 35/117/1 36/118/1 28/64/1
f 36/118/1 37/119/1 28/64/1
f 37/119/1 38/120/1 28/64/1
f 38/120/1 39/121/1 28/64/1
f 39/121/1 40/122/1 28/64/1
f 40/122/1 41/123/1 28/64/1
f 41/123/1 42/124/1 28/64/1
f 42/124/1 43/125/1 28/64/1
f 43/125/1 34/109/1 28/64/1
f 77/108/1 45/126/1 31/61/1
f 45/126/1 46/127/1 31/61/1
f 46/127/1 47/128/1 31/61/1
f 47/128/1 48/129/1 31/61/1
f 48/129/1 49/130/1 31/61/1
f 49/130/1 50/131/1 31/61/1
f 50/131/1 51/132/1 31/61/1
f 51/132/1 52/133/1 31/61/1
f 52/133/1 53/134/1 31/61/1
f 53/134/1 44/62/1 31/61/1
f 77/108/18 78/99/18 74/135/18 45/126/18
f 45/126/19 74/135/19 73/136/19 46/127/19
f 46/127/20 73/136/20 72/137/20 47/128/20
f 47/128/21 72/137/21 71/138/21 48/129/21
f 48/129/22 71/138/22 70/139/22 49/130/22
f 49/130/23 70/139/23 69/140/23 50/131/23
f 50/131/24 69/140/24 68/141/24 51/132/24
f 51/132/25 68/141/25 67/142/25 52/133/25
f 52/133/26 67/142/26 66/143/26 53/134/26
f 53/134/27 66/143/27 65/95/27 44/62/27
f 54/98/28 34/109/28 43/125/28 56/144/28
f 56/144/29 43/125/29 42/124/29 57/145/29
f 57/145/30 42/124/30 41/123/30 58/146/30
f 58/146/31 41/123/31 40/122/31 59/147/31
f 59/147/32 40/122/32 39/121/32 60/148/32
f 60/148/33 39/121/33 38/120/33 61/149/33
f 61/149/34 38/120/34 37/119/34 62/150/34
f 62/150/35 37/119/35 36/118/35 63/151/35
f 63/151/36 36/118/36 35/117/36 64/152/36
f 64/152/37 35/117/37 33/63/37 55/96/37
f 25/110/38 34/109/38 54/98/38 32/97/38
f 78/99/1 54/98/1 56/144/1 74/135/1
f 74/135/1 56/144/1 57/145/1 73/136/1
f 73/136/1 57/145/1 58/146/1 72/137/1
f 72/137/1 58/146/1 59/147/1 71/138/1
f 71/138/1 59/147/1 60/148/1 70/139/1
f 70/139/1 60/148/1 61/149/1 69/140/1
f 69/140/1 61/149/1 62/150/1 68/141/1
f 68/141/1 62/150/1 63/151/1 67/142/1
f 67/142/1 63/151/1 64/152/1 66/143/1
f 66/143/1 64/152/1 55/96/1 65/95/1
f 117/153/39 104/154/39 152/155/39 135/156/39
f 124/157/40 118/158/40 140/159/40 146/160/40
f 112/161/41 111/162/41 103/163/41 105/164/41 76/105/41 75/100/41
f 119/165/41 118/158/41 124/157/41 126/166/41 78/99/41 77/108/41
f 110/167/42 125/168/42 142/169/42 153/170/42
f 105/164/41 104/154/41 117/153/41 119/165/41 77/108/41 76/105/41
f 126/166/41 125/168/41 110/167/41 112/161/41 75/100/41 78/99/41
f 79/112/43 92/111/43 96/171/43 81/172/43
f 81/172/44 96/171/44 95/173/44 82/174/44
f 82/174/45 95/173/45 94/175/45 83/176/45
f 83/176/46 94/175/46 93/177/46 84/178/46
f 84/178/47 93/177/47 91/115/47 80/114/47
f 97/107/48 86/106/48 90/179/48 99/180/48
f 99/180/49 90/179/49 89/181/49 100/182/49
f 100/182/50 89/181/50 88/183/50 101/184/50
f 101/184/51 88/183/51 87/185/51 102/186/51
f 102/186/52 87/185/52 85/113/52 98/116/52
f 76/187/53 25/188/53 79/189/53 81/190/53 82/191/53 83/192/53 84/193/53 80/194/53 85/195/53 87/196/53 88/197/53 89/198/53 90/199/53 86/200/53
f 92/111/17 97/107/17 99/180/17 96/171/17
f 96/171/17 99/180/17 100/182/17 95/173/17
f 95/173/17 100/182/17 101/184/17 94/175/17
f 94/175/17 101/184/17 102/186/17 93/177/17
f 93/177/17 102/186/17 98/116/17 91/115/17
f 84/201/54 83/202/54 29/79/54
f 86/203/55 90/204/55 30/77/55
f 79/205/56 25/110/56 29/79/56
f 82/206/57 81/207/57 29/79/57
f 85/208/58 80/209/58 29/79/58 30/77/58
f 88/210/2 87/211/2 30/77/2
f 80/209/59 84/201/59 29/79/59
f 90/204/55 89/212/55 30/77/55
f 83/202/54 82/206/54 29/79/54
f 81/207/57 79/205/57 29/79/57
f 87/211/59 85/208/59 30/77/59
f 89/212/55 88/210/55 30/77/55
f 76/105/55 86/203/55 30/77/55
f 103/163/41 106/213/41 105/164/41
f 106/213/60 107/214/60 105/164/60
f 107/214/41 108/215/41 105/164/41
f 108/215/60 109/216/60 105/164/60
f 109/216/41 104/154/41 105/164/41
f 110/167/41 113/217/41 112/161/41
f 113/217/60 114/218/60 112/161/60
f 114/218/60 115/219/60 112/161/60
f 115/219/41 116/220/41 112/161/41
f 116/220/14 111/162/14 112/161/14
f 117/153/60 120/221/60 119/165/60
f 120/221/41 121/222/41 119/165/41
f 121/222/41 122/223/41 119/165/41
f 122/223/60 123/224/60 119/165/60
f 123/224/41 118/158/41 119/165/41
f 124/157/41 127/225/41 126/166/41
f 127/225/60 128/226/60 126/166/60
f 128/226/41 129/227/41 126/166/41
f 129/227/41 130/228/41 126/166/41
f 130/228/41 125/168/41 126/166/41
f 117/153/61 135/156/61 136/229/61 120/221/61
f 120/221/62 136/229/62 137/230/62 121/222/62
f 121/222/63 137/230/63 138/231/63 122/223/63
f 122/223/64 138/231/64 139/232/64 123/224/64
f 123/224/65 139/232/65 140/159/65 118/158/65
f 142/169/66 125/168/66 130/228/66 141/233/66
f 141/233/67 130/228/67 129/227/67 143/234/67
f 143/234/68 129/227/68 128/226/68 144/235/68
f 144/235/69 128/226/69 127/225/69 145/236/69
f 145/236/70 127/225/70 124/157/70 146/160/70
f 103/163/71 147/237/71 148/238/71 106/213/71
f 106/213/72 148/238/72 149/239/72 107/214/72
f 107/214/73 149/239/73 150/240/73 108/215/73
f 108/215/74 150/240/74 151/241/74 109/216/74
f 109/216/75 151/241/75 152/155/75 104/154/75
f 110/167/76 153/170/76 154/242/76 113/217/76
f 113/217/77 154/242/77 155/243/77 114/218/77
f 114/218/78 155/243/78 156/244/78 115/219/78
f 115/219/79 156/244/79 157/245/79 116/220/79
f 116/220/80 157/245/80 158/246/80 111/162/80
f 103/163/81 111/162/81 158/246/81 147/237/81
f 133/102/13 136/229/13 135/156/13
f 133/102/13 137/230/13 136/229/13
f 133/102/13 138/231/13 137/230/13
f 133/102/13 139/232/13 138/231/13
f 133/102/13 140/159/13 139/232/13
f 134/101/13 142/169/13 141/233/13
f 134/101/13 141/233/13 143/234/13
f 134/101/13 143/234/13 144/235/13
f 134/101/13 144/235/13 145/236/13
f 134/101/13 145/236/13 146/160/13
f 132/103/13 148/238/13 147/237/13
f 132/103/13 149/239/13 148/238/13
f 132/103/13 150/240/13 149/239/13
f 132/103/13 151/241/13 150/240/13
f 132/103/13 152/155/13 151/241/13
f 131/104/13 154/242/13 153/170/13
f 131/104/13 155/243/13 154/242/13
f 131/104/13 156/244/13 155/243/13
f 131/104/13 157/245/13 156/244/13
f 131/104/13 158/246/13 157/245/13
f 131/104/13 132/103/13 147/237/13 158/246/13
f 132/103/13 133/102/13 135/156/13 152/155/13
f 134/101/13 131/104/13 153/170/13 142/169/13
f 133/102/13 134/101/13 146/160/13 140/159/13
f 159/73/82 160/247/82 190/74/82
f 160/247/83 161/248/83 190/74/83
f 161/248/84 162/249/84 190/74/84
f 162/249/85 163/250/85 190/74/85
f 163/250/86 189/83/86 190/74/86
f 164/84/87 167/251/87 166/81/87
f 167/251/88 168/252/88 166/81/88
f 168/252/89 169/253/89 166/81/89
f 169/253/90 170/254/90 166/81/90
f 170/254/91 165/82/91 166/81/91
f 171/78/92 174/255/92 173/80/92
f 174/255/93 175/256/93 173/80/93
f 175/256/94 176/257/94 173/80/94
f 176/257/95 177/258/95 173/80/95
f 177/258/96 172/87/96 173/80/96
f 192/89/97 179/259/97 191/75/97
f 179/259/98 180/260/98 191/75/98
f 180/260/99 181/261/99 191/75/99
f 181/261/100 182/262/100 191/75/100
f 182/262/101 178/76/101 191/75/101
f 159/73/82 165/82/82 170/254/82 160/247/82
f 160/247/102 170/254/102 169/253/102 161/248/102
f 161/248/103 169/253/103 168/252/103 162/249/103
f 162/249/104 168/252/104 167/251/104 163/250/104
f 163/250/105 167/251/105 164/84/105 189/83/105
f 171/78/106 178/76/106 182/262/106 174/255/106
f 174/255/107 182/262/107 181/261/107 175/256/107
f 175/256/108 181/261/108 180/260/108 176/257/108
f 176/257/109 180/260/109 179/259/109 177/258/109
f 177/258/110 179/259/110 192/89/110 172/87/110
f 28/64/1 29/79/1 165/82/1 159/73/1
f 188/86/1 255/263/1 260/264/1 187/90/1
f 27/88/1 248/265/1 242/266/1 26/85/1
f 187/90/1 260/264/1 248/265/1 27/88/1
f 26/85/1 242/266/1 255/263/1 188/86/1
f 205/267/111 194/268/111 228/269/111 236/270/111
f 211/93/112 206/92/112 233/271/112 241/272/112
f 218/273/113 221/274/113 220/275/113 219/276/113
f 201/277/11 200/278/11 193/279/11 195/280/11 188/86/11 187/90/11
f 214/94/11 213/281/11 192/89/11 191/75/11
f 207/91/11 190/74/11 189/83/11
f 195/280/11 194/268/11 205/267/11 207/91/11 189/83/11 188/86/11
f 213/281/11 212/282/11 199/283/11 201/277/11 187/90/11 192/89/11
f 199/283/114 212/282/114 238/284/114 222/285/114
f 193/279/115 196/286/115 195/280/115
f 196/286/116 197/287/116 195/280/116
f 197/287/11 198/288/11 195/280/11
f 198/288/11 194/268/11 195/280/11
f 199/283/11 202/289/11 201/277/11
f 202/289/11 203/290/11 201/277/11
f 203/290/11 204/291/11 201/277/11
f 204/291/11 200/278/11 201/277/11
f 205/267/115 208/292/115 207/91/115
f 211/93/11 215/293/11 214/94/11
f 199/283/117 222/285/117 223/294/117 202/289/117
f 202/289/118 223/294/118 224/295/118 203/290/118
f 203/290/119 224/295/119 225/296/119 204/291/119
f 204/291/120 225/296/120 226/297/120 200/278/120
f 228/269/121 194/268/121 198/288/121 227/298/121
f 227/298/122 198/288/122 197/287/122 229/299/122
f 229/299/123 197/287/123 196/286/123 230/300/123
f 230/300/124 196/286/124 193/279/124 231/301/124
f 233/271/125 206/92/125 210/302/125 232/303/125
f 232/303/126 210/302/126 209/304/126 234/305/126
f 234/305/127 209/304/127 208/292/127 235/306/127
f 235/306/128 208/292/128 205/267/128 236/270/128
f 238/284/129 212/282/129 217/307/129 237/308/129
f 237/308/130 217/307/130 216/309/130 239/310/130
f 239/310/131 216/309/131 215/293/131 240/311/131
f 240/311/132 215/293/132 211/93/132 241/272/132
f 193/279/133 200/278/133 226/297/133 231/301/133
f 207/91/11 210/302/11 206/92/11
f 207/91/11 209/304/11 210/302/11
f 207/91/11 208/292/11 209/304/11
f 213/281/11 217/307/11 212/282/11
f 214/94/11 216/309/11 217/307/11 213/281/11
f 214/94/115 215/293/115 216/309/115
f 218/273/134 223/294/134 222/285/134
f 218/273/134 224/295/134 223/294/134
f 218/273/134 225/296/134 224/295/134
f 218/273/134 226/297/134 225/296/134
f 219/276/135 228/269/135 227/298/135
f 219/276/135 227/298/135 229/299/135
f 219/276/113 229/299/113 230/300/113
f 219/276/136 230/300/136 231/301/136
f 220/275/136 233/271/136 232/303/136
f 220/275/136 232/303/136 234/305/136
f 220/275/136 234/305/136 235/306/136
f 220/275/136 235/306/136 236/270/136
f 221/274/137 238/284/137 237/308/137
f 221/274/138 237/308/138 239/310/138
f 221/274/138 239/310/138 240/311/138
f 221/274/138 240/311/138 241/272/138
f 218/273/139 219/276/139 231/301/139 226/297/139
f 219/276/136 220/275/136 236/270/136 228/269/136
f 221/274/134 218/273/134 222/285/134 238/284/134
f 220/275/113 221/274/113 241/272/113 233/271/113
f 255/263/140 242/266/140 244/312/140 259/313/140
f 259/313/141 244/312/141 245/314/141 258/315/141
f 258/315/142 245/314/142 246/316/142 257/317/142
f 257/317/143 246/316/143 247/318/143 256/319/143
f 256/319/144 247/318/144 243/65/144 254/71/144
f 242/266/145 248/265/145 250/320/145 244/312/145
f 244/312/146 250/320/146 251/321/146 245/314/146
f 245/314/147 251/321/147 252/322/147 246/316/147
f 246/316/148 252/322/148 253/323/148 247/318/148
f 247/318/149 253/323/149 249/66/149 243/65/149
f 248/265/150 260/264/150 262/324/150 250/320/150
f 250/320/151 262/324/151 263/325/151 251/321/151
f 251/321/152 263/325/152 264/326/152 252/322/152
f 252/322/153 264/326/153 265/327/153 253/323/153
f 253/323/154 265/327/154 261/69/154 249/66/154
f 260/264/155 255/263/155 259/313/155 262/324/155
f 262/324/156 259/313/156 258/315/156 263/325/156
f 263/325/157 258/315/157 257/317/157 264/326/157
f 264/326/158 257/317/158 256/319/158 265/327/158
f 265/327/159 256/319/159 254/71/159 261/69/159
f 254/71/3 243/65/3 183/68/3 185/72/3
